<?xml version="1.0" encoding="UTF-8" standalone="no"?><svg xmlns="http://www.w3.org/2000/svg" xmlns:xlink="http://www.w3.org/1999/xlink" contentStyleType="text/css" height="894px" preserveAspectRatio="none" style="width:1549px;height:894px;background:#FFFFFF;" version="1.1" viewBox="0 0 1549 894" width="1549px" zoomAndPan="magnify"><defs/><g><!--MD5=[bc6b40dadbf86ab6a0c8405a467a48af]
cluster Persistence--><g id="cluster_Persistence"><path d="M8.5,475 L93.5,475 A3.75,3.75 0 0 1 96,477.5 L103,496.6406 L1053.5,496.6406 A2.5,2.5 0 0 1 1056,499.1406 L1056,885 A2.5,2.5 0 0 1 1053.5,887.5 L8.5,887.5 A2.5,2.5 0 0 1 6,885 L6,477.5 A2.5,2.5 0 0 1 8.5,475 " fill="none" style="stroke:#000000;stroke-width:1.5;"/><line style="stroke:#000000;stroke-width:1.5;" x1="6" x2="103" y1="496.6406" y2="496.6406"/><text fill="#000000" font-family="sans-serif" font-size="14" font-weight="bold" lengthAdjust="spacing" textLength="84" x="10" y="489.6738">Persistence</text></g><!--MD5=[9dd75fd92da113d30380b27734fd2f01]
cluster Service--><g id="cluster_Service"><path d="M1082.5,330 L1137.5,330 A3.75,3.75 0 0 1 1140,332.5 L1147,351.6406 L1539.5,351.6406 A2.5,2.5 0 0 1 1542,354.1406 L1542,602 A2.5,2.5 0 0 1 1539.5,604.5 L1082.5,604.5 A2.5,2.5 0 0 1 1080,602 L1080,332.5 A2.5,2.5 0 0 1 1082.5,330 " fill="none" style="stroke:#000000;stroke-width:1.5;"/><line style="stroke:#000000;stroke-width:1.5;" x1="1080" x2="1147" y1="351.6406" y2="351.6406"/><text fill="#000000" font-family="sans-serif" font-size="14" font-weight="bold" lengthAdjust="spacing" textLength="54" x="1084" y="344.6738">Service</text></g><!--MD5=[d64883541e3d62e3241c4d12decf100d]
cluster Application--><g id="cluster_Application"><path d="M992.5,168 L1071.5,168 A3.75,3.75 0 0 1 1074,170.5 L1081,189.6406 L1363.5,189.6406 A2.5,2.5 0 0 1 1366,192.1406 L1366,279.5 A2.5,2.5 0 0 1 1363.5,282 L992.5,282 A2.5,2.5 0 0 1 990,279.5 L990,170.5 A2.5,2.5 0 0 1 992.5,168 " fill="none" style="stroke:#000000;stroke-width:1.5;"/><line style="stroke:#000000;stroke-width:1.5;" x1="990" x2="1081" y1="189.6406" y2="189.6406"/><text fill="#000000" font-family="sans-serif" font-size="14" font-weight="bold" lengthAdjust="spacing" textLength="78" x="994" y="182.6738">Application</text></g><!--MD5=[8fd473fd151a2794da4f2c8684676405]
cluster Presentation--><g id="cluster_Presentation"><path d="M1091.5,6 L1182.5,6 A3.75,3.75 0 0 1 1185,8.5 L1192,27.6406 L1264.5,27.6406 A2.5,2.5 0 0 1 1267,30.1406 L1267,117.5 A2.5,2.5 0 0 1 1264.5,120 L1091.5,120 A2.5,2.5 0 0 1 1089,117.5 L1089,8.5 A2.5,2.5 0 0 1 1091.5,6 " fill="none" style="stroke:#000000;stroke-width:1.5;"/><line style="stroke:#000000;stroke-width:1.5;" x1="1089" x2="1192" y1="27.6406" y2="27.6406"/><text fill="#000000" font-family="sans-serif" font-size="14" font-weight="bold" lengthAdjust="spacing" textLength="90" x="1093" y="20.6738">Presentation</text></g><!--MD5=[e8c189551b7885b999ad7cefb30fc2a3]
class PersistenceContext--><g id="elem_PersistenceContext"><rect codeLine="2" fill="#F1F1F1" height="63.6406" id="PersistenceContext" rx="2.5" ry="2.5" style="stroke:#181818;stroke-width:0.5;" width="234" x="806" y="509"/><ellipse cx="857.75" cy="525" fill="#ADD1B2" rx="11" ry="11" style="stroke:#181818;stroke-width:1.0;"/><path d="M859.75,521.5 Q859.9531,521 860.1875,520.75 Q860.4219,520.5 860.6875,520.5 Q861.1563,520.5 861.4531,520.7813 Q861.75,521.0625 861.75,521.7188 L861.75,523.2813 Q861.75,523.9375 861.4688,524.2188 Q861.1875,524.5 860.75,524.5 Q860.3594,524.5 860.1094,524.3281 Q859.8594,524.1563 859.75,523.7031 Q859.7031,523.3906 859.5313,523.2188 Q859.2188,522.8906 858.6563,522.7031 Q858.0938,522.5 857.5313,522.5 Q856.8281,522.5 856.2344,522.7813 Q855.6563,523.0625 855.2031,523.6875 Q854.75,524.3125 854.75,525.1719 L854.75,526.0938 Q854.75,527.125 855.5938,527.8125 Q856.4375,528.5 857.9375,528.5 Q858.8281,528.5 859.4531,528.2969 Q859.8125,528.1875 860.2188,527.8281 Q860.4844,527.625 860.625,527.5625 Q860.7656,527.5 860.9375,527.5 Q861.2656,527.5 861.5,527.7656 Q861.75,528.0156 861.75,528.375 Q861.75,528.7188 861.4063,529.125 Q860.9063,529.7188 860.1094,530.0469 Q859.0625,530.5 857.7813,530.5 Q856.2813,530.5 855.0781,529.9063 Q854.1094,529.4375 853.4219,528.4219 Q852.75,527.4063 852.75,526.2031 L852.75,525.1094 Q852.75,523.8594 853.3438,522.7656 Q853.9531,521.6719 855,521.0938 Q856.0625,520.5 857.25,520.5 Q857.9688,520.5 858.5938,520.75 Q859.2188,521 859.75,521.5 Z " fill="#000000"/><text fill="#000000" font-family="sans-serif" font-size="14" lengthAdjust="spacing" textLength="122" x="878.25" y="529.8535">PersistenceContext</text><line style="stroke:#181818;stroke-width:0.5;" x1="807" x2="1039" y1="541" y2="541"/><line style="stroke:#181818;stroke-width:0.5;" x1="807" x2="1039" y1="549" y2="549"/><ellipse cx="817" cy="562.3203" fill="#84BE84" rx="3" ry="3" style="stroke:#038048;stroke-width:1.0;"/><text fill="#000000" font-family="sans-serif" font-size="14" lengthAdjust="spacing" textLength="208" x="826" y="565.6738">repositories(): RepositoryFactory</text></g><!--MD5=[48590afff58a68e2fcba47824d6f8a11]
class RepositoryFactory--><g id="elem_RepositoryFactory"><rect codeLine="5" fill="#F1F1F1" height="94.9219" id="RepositoryFactory" rx="2.5" ry="2.5" style="stroke:#181818;stroke-width:0.5;" width="313" x="383.5" y="651.5"/><ellipse cx="477.75" cy="667.5" fill="#ADD1B2" rx="11" ry="11" style="stroke:#181818;stroke-width:1.0;"/><path d="M479.75,664 Q479.9531,663.5 480.1875,663.25 Q480.4219,663 480.6875,663 Q481.1563,663 481.4531,663.2813 Q481.75,663.5625 481.75,664.2188 L481.75,665.7813 Q481.75,666.4375 481.4688,666.7188 Q481.1875,667 480.75,667 Q480.3594,667 480.1094,666.8281 Q479.8594,666.6563 479.75,666.2031 Q479.7031,665.8906 479.5313,665.7188 Q479.2188,665.3906 478.6563,665.2031 Q478.0938,665 477.5313,665 Q476.8281,665 476.2344,665.2813 Q475.6563,665.5625 475.2031,666.1875 Q474.75,666.8125 474.75,667.6719 L474.75,668.5938 Q474.75,669.625 475.5938,670.3125 Q476.4375,671 477.9375,671 Q478.8281,671 479.4531,670.7969 Q479.8125,670.6875 480.2188,670.3281 Q480.4844,670.125 480.625,670.0625 Q480.7656,670 480.9375,670 Q481.2656,670 481.5,670.2656 Q481.75,670.5156 481.75,670.875 Q481.75,671.2188 481.4063,671.625 Q480.9063,672.2188 480.1094,672.5469 Q479.0625,673 477.7813,673 Q476.2813,673 475.0781,672.4063 Q474.1094,671.9375 473.4219,670.9219 Q472.75,669.9063 472.75,668.7031 L472.75,667.6094 Q472.75,666.3594 473.3438,665.2656 Q473.9531,664.1719 475,663.5938 Q476.0625,663 477.25,663 Q477.9688,663 478.5938,663.25 Q479.2188,663.5 479.75,664 Z " fill="#000000"/><text fill="#000000" font-family="sans-serif" font-size="14" lengthAdjust="spacing" textLength="116" x="498.25" y="672.3535">RepositoryFactory</text><line style="stroke:#181818;stroke-width:0.5;" x1="384.5" x2="695.5" y1="683.5" y2="683.5"/><line style="stroke:#181818;stroke-width:0.5;" x1="384.5" x2="695.5" y1="691.5" y2="691.5"/><ellipse cx="394.5" cy="704.8203" fill="#84BE84" rx="3" ry="3" style="stroke:#038048;stroke-width:1.0;"/><text fill="#000000" font-family="sans-serif" font-size="14" lengthAdjust="spacing" textLength="243" x="403.5" y="708.1738">courseRepository(): CourseRepository</text><ellipse cx="394.5" cy="720.4609" fill="#84BE84" rx="3" ry="3" style="stroke:#038048;stroke-width:1.0;"/><text fill="#000000" font-family="sans-serif" font-size="14" lengthAdjust="spacing" textLength="287" x="403.5" y="723.8145">enrollmentRepository(): EnrollmentRepository</text><ellipse cx="394.5" cy="736.1016" fill="#84BE84" rx="3" ry="3" style="stroke:#038048;stroke-width:1.0;"/><text fill="#000000" font-family="sans-serif" font-size="14" lengthAdjust="spacing" textLength="248" x="403.5" y="739.4551">studentRepository(): studentRepository</text></g><!--MD5=[e357f1fd68df466d60efd00f0c47fbc0]
class CourseRepository--><g id="elem_CourseRepository"><rect codeLine="10" fill="#F1F1F1" height="63.6406" id="CourseRepository" rx="2.5" ry="2.5" style="stroke:#181818;stroke-width:0.5;" width="286" x="22" y="807.5"/><ellipse cx="103.75" cy="823.5" fill="#ADD1B2" rx="11" ry="11" style="stroke:#181818;stroke-width:1.0;"/><path d="M105.75,820 Q105.9531,819.5 106.1875,819.25 Q106.4219,819 106.6875,819 Q107.1563,819 107.4531,819.2813 Q107.75,819.5625 107.75,820.2188 L107.75,821.7813 Q107.75,822.4375 107.4688,822.7188 Q107.1875,823 106.75,823 Q106.3594,823 106.1094,822.8281 Q105.8594,822.6563 105.75,822.2031 Q105.7031,821.8906 105.5313,821.7188 Q105.2188,821.3906 104.6563,821.2031 Q104.0938,821 103.5313,821 Q102.8281,821 102.2344,821.2813 Q101.6563,821.5625 101.2031,822.1875 Q100.75,822.8125 100.75,823.6719 L100.75,824.5938 Q100.75,825.625 101.5938,826.3125 Q102.4375,827 103.9375,827 Q104.8281,827 105.4531,826.7969 Q105.8125,826.6875 106.2188,826.3281 Q106.4844,826.125 106.625,826.0625 Q106.7656,826 106.9375,826 Q107.2656,826 107.5,826.2656 Q107.75,826.5156 107.75,826.875 Q107.75,827.2188 107.4063,827.625 Q106.9063,828.2188 106.1094,828.5469 Q105.0625,829 103.7813,829 Q102.2813,829 101.0781,828.4063 Q100.1094,827.9375 99.4219,826.9219 Q98.75,825.9063 98.75,824.7031 L98.75,823.6094 Q98.75,822.3594 99.3438,821.2656 Q99.9531,820.1719 101,819.5938 Q102.0625,819 103.25,819 Q103.9688,819 104.5938,819.25 Q105.2188,819.5 105.75,820 Z " fill="#000000"/><text fill="#000000" font-family="sans-serif" font-size="14" lengthAdjust="spacing" textLength="114" x="124.25" y="828.3535">CourseRepository</text><line style="stroke:#181818;stroke-width:0.5;" x1="23" x2="307" y1="839.5" y2="839.5"/><line style="stroke:#181818;stroke-width:0.5;" x1="23" x2="307" y1="847.5" y2="847.5"/><ellipse cx="33" cy="860.8203" fill="#84BE84" rx="3" ry="3" style="stroke:#038048;stroke-width:1.0;"/><text fill="#000000" font-family="sans-serif" font-size="14" lengthAdjust="spacing" textLength="260" x="42" y="864.1738">getCourseFromCourseID(): List&lt;Course&gt;</text></g><!--MD5=[9dcfeacc8a876f0e26274e3df6bf5fa6]
class EnrollmentRepository--><g id="elem_EnrollmentRepository"><rect codeLine="14" fill="#F1F1F1" height="63.6406" id="EnrollmentRepository" rx="2.5" ry="2.5" style="stroke:#181818;stroke-width:0.5;" width="208" x="343" y="807.5"/><ellipse cx="376.45" cy="823.5" fill="#ADD1B2" rx="11" ry="11" style="stroke:#181818;stroke-width:1.0;"/><path d="M378.45,820 Q378.6531,819.5 378.8875,819.25 Q379.1219,819 379.3875,819 Q379.8563,819 380.1531,819.2813 Q380.45,819.5625 380.45,820.2188 L380.45,821.7813 Q380.45,822.4375 380.1688,822.7188 Q379.8875,823 379.45,823 Q379.0594,823 378.8094,822.8281 Q378.5594,822.6563 378.45,822.2031 Q378.4031,821.8906 378.2313,821.7188 Q377.9188,821.3906 377.3563,821.2031 Q376.7938,821 376.2313,821 Q375.5281,821 374.9344,821.2813 Q374.3563,821.5625 373.9031,822.1875 Q373.45,822.8125 373.45,823.6719 L373.45,824.5938 Q373.45,825.625 374.2938,826.3125 Q375.1375,827 376.6375,827 Q377.5281,827 378.1531,826.7969 Q378.5125,826.6875 378.9188,826.3281 Q379.1844,826.125 379.325,826.0625 Q379.4656,826 379.6375,826 Q379.9656,826 380.2,826.2656 Q380.45,826.5156 380.45,826.875 Q380.45,827.2188 380.1063,827.625 Q379.6063,828.2188 378.8094,828.5469 Q377.7625,829 376.4813,829 Q374.9813,829 373.7781,828.4063 Q372.8094,827.9375 372.1219,826.9219 Q371.45,825.9063 371.45,824.7031 L371.45,823.6094 Q371.45,822.3594 372.0438,821.2656 Q372.6531,820.1719 373.7,819.5938 Q374.7625,819 375.95,819 Q376.6688,819 377.2938,819.25 Q377.9188,819.5 378.45,820 Z " fill="#000000"/><text fill="#000000" font-family="sans-serif" font-size="14" lengthAdjust="spacing" textLength="135" x="394.55" y="828.3535">EnrollmentRepository</text><line style="stroke:#181818;stroke-width:0.5;" x1="344" x2="550" y1="839.5" y2="839.5"/><line style="stroke:#181818;stroke-width:0.5;" x1="344" x2="550" y1="847.5" y2="847.5"/><ellipse cx="354" cy="860.8203" fill="#84BE84" rx="3" ry="3" style="stroke:#038048;stroke-width:1.0;"/><text fill="#000000" font-family="sans-serif" font-size="14" lengthAdjust="spacing" textLength="182" x="363" y="864.1738">save(Enrollment): Enrollment</text></g><!--MD5=[fa3e5eb5fedffd174e4201d687b4ebcf]
class StudentRepository--><g id="elem_StudentRepository"><rect codeLine="18" fill="#F1F1F1" height="63.6406" id="StudentRepository" rx="2.5" ry="2.5" style="stroke:#181818;stroke-width:0.5;" width="454" x="586" y="807.5"/><ellipse cx="750.25" cy="823.5" fill="#ADD1B2" rx="11" ry="11" style="stroke:#181818;stroke-width:1.0;"/><path d="M752.25,820 Q752.4531,819.5 752.6875,819.25 Q752.9219,819 753.1875,819 Q753.6563,819 753.9531,819.2813 Q754.25,819.5625 754.25,820.2188 L754.25,821.7813 Q754.25,822.4375 753.9688,822.7188 Q753.6875,823 753.25,823 Q752.8594,823 752.6094,822.8281 Q752.3594,822.6563 752.25,822.2031 Q752.2031,821.8906 752.0313,821.7188 Q751.7188,821.3906 751.1563,821.2031 Q750.5938,821 750.0313,821 Q749.3281,821 748.7344,821.2813 Q748.1563,821.5625 747.7031,822.1875 Q747.25,822.8125 747.25,823.6719 L747.25,824.5938 Q747.25,825.625 748.0938,826.3125 Q748.9375,827 750.4375,827 Q751.3281,827 751.9531,826.7969 Q752.3125,826.6875 752.7188,826.3281 Q752.9844,826.125 753.125,826.0625 Q753.2656,826 753.4375,826 Q753.7656,826 754,826.2656 Q754.25,826.5156 754.25,826.875 Q754.25,827.2188 753.9063,827.625 Q753.4063,828.2188 752.6094,828.5469 Q751.5625,829 750.2813,829 Q748.7813,829 747.5781,828.4063 Q746.6094,827.9375 745.9219,826.9219 Q745.25,825.9063 745.25,824.7031 L745.25,823.6094 Q745.25,822.3594 745.8438,821.2656 Q746.4531,820.1719 747.5,819.5938 Q748.5625,819 749.75,819 Q750.4688,819 751.0938,819.25 Q751.7188,819.5 752.25,820 Z " fill="#000000"/><text fill="#000000" font-family="sans-serif" font-size="14" lengthAdjust="spacing" textLength="117" x="770.75" y="828.3535">StudentRepository</text><line style="stroke:#181818;stroke-width:0.5;" x1="587" x2="1039" y1="839.5" y2="839.5"/><line style="stroke:#181818;stroke-width:0.5;" x1="587" x2="1039" y1="847.5" y2="847.5"/><ellipse cx="597" cy="860.8203" fill="#84BE84" rx="3" ry="3" style="stroke:#038048;stroke-width:1.0;"/><text fill="#000000" font-family="sans-serif" font-size="14" lengthAdjust="spacing" textLength="428" x="606" y="864.1738">getStudentFromMecNumber(MecanographicNumber): List&lt;Student&gt;</text></g><!--MD5=[19ffb335d971b0c51846f9b6a56eecc2]
class ReadCSVFileService--><g id="elem_ReadCSVFileService"><rect codeLine="26" fill="#F1F1F1" height="63.6406" id="ReadCSVFileService" rx="2.5" ry="2.5" style="stroke:#181818;stroke-width:0.5;" width="164" x="1096" y="364"/><ellipse cx="1111" cy="380" fill="#ADD1B2" rx="11" ry="11" style="stroke:#181818;stroke-width:1.0;"/><path d="M1113,376.5 Q1113.2031,376 1113.4375,375.75 Q1113.6719,375.5 1113.9375,375.5 Q1114.4063,375.5 1114.7031,375.7813 Q1115,376.0625 1115,376.7188 L1115,378.2813 Q1115,378.9375 1114.7188,379.2188 Q1114.4375,379.5 1114,379.5 Q1113.6094,379.5 1113.3594,379.3281 Q1113.1094,379.1563 1113,378.7031 Q1112.9531,378.3906 1112.7813,378.2188 Q1112.4688,377.8906 1111.9063,377.7031 Q1111.3438,377.5 1110.7813,377.5 Q1110.0781,377.5 1109.4844,377.7813 Q1108.9063,378.0625 1108.4531,378.6875 Q1108,379.3125 1108,380.1719 L1108,381.0938 Q1108,382.125 1108.8438,382.8125 Q1109.6875,383.5 1111.1875,383.5 Q1112.0781,383.5 1112.7031,383.2969 Q1113.0625,383.1875 1113.4688,382.8281 Q1113.7344,382.625 1113.875,382.5625 Q1114.0156,382.5 1114.1875,382.5 Q1114.5156,382.5 1114.75,382.7656 Q1115,383.0156 1115,383.375 Q1115,383.7188 1114.6563,384.125 Q1114.1563,384.7188 1113.3594,385.0469 Q1112.3125,385.5 1111.0313,385.5 Q1109.5313,385.5 1108.3281,384.9063 Q1107.3594,384.4375 1106.6719,383.4219 Q1106,382.4063 1106,381.2031 L1106,380.1094 Q1106,378.8594 1106.5938,377.7656 Q1107.2031,376.6719 1108.25,376.0938 Q1109.3125,375.5 1110.5,375.5 Q1111.2188,375.5 1111.8438,375.75 Q1112.4688,376 1113,376.5 Z " fill="#000000"/><text fill="#000000" font-family="sans-serif" font-size="14" lengthAdjust="spacing" textLength="132" x="1125" y="384.8535">ReadCSVFileService</text><line style="stroke:#181818;stroke-width:0.5;" x1="1097" x2="1259" y1="396" y2="396"/><line style="stroke:#181818;stroke-width:0.5;" x1="1097" x2="1259" y1="404" y2="404"/><ellipse cx="1107" cy="417.3203" fill="#84BE84" rx="3" ry="3" style="stroke:#038048;stroke-width:1.0;"/><text fill="#000000" font-family="sans-serif" font-size="14" lengthAdjust="spacing" textLength="126" x="1116" y="420.6738">readCSV(): boolean</text></g><!--MD5=[48386de6137336a3cea5c0b236913b33]
class EnrollmentManagementService--><g id="elem_EnrollmentManagementService"><rect codeLine="29" fill="#F1F1F1" height="94.9219" id="EnrollmentManagementService" rx="2.5" ry="2.5" style="stroke:#181818;stroke-width:0.5;" width="429" x="1096.5" y="493.5"/><ellipse cx="1208.75" cy="509.5" fill="#ADD1B2" rx="11" ry="11" style="stroke:#181818;stroke-width:1.0;"/><path d="M1210.75,506 Q1210.9531,505.5 1211.1875,505.25 Q1211.4219,505 1211.6875,505 Q1212.1563,505 1212.4531,505.2813 Q1212.75,505.5625 1212.75,506.2188 L1212.75,507.7813 Q1212.75,508.4375 1212.4688,508.7188 Q1212.1875,509 1211.75,509 Q1211.3594,509 1211.1094,508.8281 Q1210.8594,508.6563 1210.75,508.2031 Q1210.7031,507.8906 1210.5313,507.7188 Q1210.2188,507.3906 1209.6563,507.2031 Q1209.0938,507 1208.5313,507 Q1207.8281,507 1207.2344,507.2813 Q1206.6563,507.5625 1206.2031,508.1875 Q1205.75,508.8125 1205.75,509.6719 L1205.75,510.5938 Q1205.75,511.625 1206.5938,512.3125 Q1207.4375,513 1208.9375,513 Q1209.8281,513 1210.4531,512.7969 Q1210.8125,512.6875 1211.2188,512.3281 Q1211.4844,512.125 1211.625,512.0625 Q1211.7656,512 1211.9375,512 Q1212.2656,512 1212.5,512.2656 Q1212.75,512.5156 1212.75,512.875 Q1212.75,513.2188 1212.4063,513.625 Q1211.9063,514.2188 1211.1094,514.5469 Q1210.0625,515 1208.7813,515 Q1207.2813,515 1206.0781,514.4063 Q1205.1094,513.9375 1204.4219,512.9219 Q1203.75,511.9063 1203.75,510.7031 L1203.75,509.6094 Q1203.75,508.3594 1204.3438,507.2656 Q1204.9531,506.1719 1206,505.5938 Q1207.0625,505 1208.25,505 Q1208.9688,505 1209.5938,505.25 Q1210.2188,505.5 1210.75,506 Z " fill="#000000"/><text fill="#000000" font-family="sans-serif" font-size="14" lengthAdjust="spacing" textLength="196" x="1229.25" y="514.3535">EnrollmentManagementService</text><line style="stroke:#181818;stroke-width:0.5;" x1="1097.5" x2="1524.5" y1="525.5" y2="525.5"/><line style="stroke:#181818;stroke-width:0.5;" x1="1097.5" x2="1524.5" y1="533.5" y2="533.5"/><ellipse cx="1107.5" cy="546.8203" fill="#84BE84" rx="3" ry="3" style="stroke:#038048;stroke-width:1.0;"/><text fill="#000000" font-family="sans-serif" font-size="14" lengthAdjust="spacing" textLength="322" x="1116.5" y="550.1738">saveEnrollment(EmailAddress, Course): Enrollment</text><ellipse cx="1107.5" cy="562.4609" fill="#84BE84" rx="3" ry="3" style="stroke:#038048;stroke-width:1.0;"/><text fill="#000000" font-family="sans-serif" font-size="14" lengthAdjust="spacing" textLength="403" x="1116.5" y="565.8145">getSudentFromMecNum(MecanographicNumber): List&lt;Student&gt;</text><ellipse cx="1107.5" cy="578.1016" fill="#84BE84" rx="3" ry="3" style="stroke:#038048;stroke-width:1.0;"/><text fill="#000000" font-family="sans-serif" font-size="14" lengthAdjust="spacing" textLength="303" x="1116.5" y="581.4551">getCourseFromCourseID(Edition): List&lt;Course&gt;</text></g><!--MD5=[570cc7e0416978ba78cf67172bafde92]
class StudentEnrollmentController--><g id="elem_StudentEnrollmentController"><rect codeLine="37" fill="#F1F1F1" height="63.6406" id="StudentEnrollmentController" rx="2.5" ry="2.5" style="stroke:#181818;stroke-width:0.5;" width="343" x="1006.5" y="202"/><ellipse cx="1084.75" cy="218" fill="#ADD1B2" rx="11" ry="11" style="stroke:#181818;stroke-width:1.0;"/><path d="M1086.75,214.5 Q1086.9531,214 1087.1875,213.75 Q1087.4219,213.5 1087.6875,213.5 Q1088.1563,213.5 1088.4531,213.7813 Q1088.75,214.0625 1088.75,214.7188 L1088.75,216.2813 Q1088.75,216.9375 1088.4688,217.2188 Q1088.1875,217.5 1087.75,217.5 Q1087.3594,217.5 1087.1094,217.3281 Q1086.8594,217.1563 1086.75,216.7031 Q1086.7031,216.3906 1086.5313,216.2188 Q1086.2188,215.8906 1085.6563,215.7031 Q1085.0938,215.5 1084.5313,215.5 Q1083.8281,215.5 1083.2344,215.7813 Q1082.6563,216.0625 1082.2031,216.6875 Q1081.75,217.3125 1081.75,218.1719 L1081.75,219.0938 Q1081.75,220.125 1082.5938,220.8125 Q1083.4375,221.5 1084.9375,221.5 Q1085.8281,221.5 1086.4531,221.2969 Q1086.8125,221.1875 1087.2188,220.8281 Q1087.4844,220.625 1087.625,220.5625 Q1087.7656,220.5 1087.9375,220.5 Q1088.2656,220.5 1088.5,220.7656 Q1088.75,221.0156 1088.75,221.375 Q1088.75,221.7188 1088.4063,222.125 Q1087.9063,222.7188 1087.1094,223.0469 Q1086.0625,223.5 1084.7813,223.5 Q1083.2813,223.5 1082.0781,222.9063 Q1081.1094,222.4375 1080.4219,221.4219 Q1079.75,220.4063 1079.75,219.2031 L1079.75,218.1094 Q1079.75,216.8594 1080.3438,215.7656 Q1080.9531,214.6719 1082,214.0938 Q1083.0625,213.5 1084.25,213.5 Q1084.9688,213.5 1085.5938,213.75 Q1086.2188,214 1086.75,214.5 Z " fill="#000000"/><text fill="#000000" font-family="sans-serif" font-size="14" lengthAdjust="spacing" textLength="178" x="1105.25" y="222.8535">StudentEnrollmentController</text><line style="stroke:#181818;stroke-width:0.5;" x1="1007.5" x2="1348.5" y1="234" y2="234"/><line style="stroke:#181818;stroke-width:0.5;" x1="1007.5" x2="1348.5" y1="242" y2="242"/><ellipse cx="1017.5" cy="255.3203" fill="#84BE84" rx="3" ry="3" style="stroke:#038048;stroke-width:1.0;"/><text fill="#000000" font-family="sans-serif" font-size="14" lengthAdjust="spacing" textLength="317" x="1026.5" y="258.6738">bulkEnrollmentCourse(csvfile, Course): Enrollment</text></g><!--MD5=[f89df5ccd34cad258facaff0f43ba4f7]
class BulkEnrollmentUI--><g id="elem_BulkEnrollmentUI"><rect codeLine="42" fill="#F1F1F1" height="63.6406" id="BulkEnrollmentUI" rx="2.5" ry="2.5" style="stroke:#181818;stroke-width:0.5;" width="145" x="1105.5" y="40"/><ellipse cx="1123.65" cy="56" fill="#ADD1B2" rx="11" ry="11" style="stroke:#181818;stroke-width:1.0;"/><path d="M1125.65,52.5 Q1125.8531,52 1126.0875,51.75 Q1126.3219,51.5 1126.5875,51.5 Q1127.0563,51.5 1127.3531,51.7813 Q1127.65,52.0625 1127.65,52.7188 L1127.65,54.2813 Q1127.65,54.9375 1127.3688,55.2188 Q1127.0875,55.5 1126.65,55.5 Q1126.2594,55.5 1126.0094,55.3281 Q1125.7594,55.1563 1125.65,54.7031 Q1125.6031,54.3906 1125.4313,54.2188 Q1125.1188,53.8906 1124.5563,53.7031 Q1123.9938,53.5 1123.4313,53.5 Q1122.7281,53.5 1122.1344,53.7813 Q1121.5563,54.0625 1121.1031,54.6875 Q1120.65,55.3125 1120.65,56.1719 L1120.65,57.0938 Q1120.65,58.125 1121.4938,58.8125 Q1122.3375,59.5 1123.8375,59.5 Q1124.7281,59.5 1125.3531,59.2969 Q1125.7125,59.1875 1126.1188,58.8281 Q1126.3844,58.625 1126.525,58.5625 Q1126.6656,58.5 1126.8375,58.5 Q1127.1656,58.5 1127.4,58.7656 Q1127.65,59.0156 1127.65,59.375 Q1127.65,59.7188 1127.3063,60.125 Q1126.8063,60.7188 1126.0094,61.0469 Q1124.9625,61.5 1123.6813,61.5 Q1122.1813,61.5 1120.9781,60.9063 Q1120.0094,60.4375 1119.3219,59.4219 Q1118.65,58.4063 1118.65,57.2031 L1118.65,56.1094 Q1118.65,54.8594 1119.2438,53.7656 Q1119.8531,52.6719 1120.9,52.0938 Q1121.9625,51.5 1123.15,51.5 Q1123.8688,51.5 1124.4938,51.75 Q1125.1188,52 1125.65,52.5 Z " fill="#000000"/><text fill="#000000" font-family="sans-serif" font-size="14" lengthAdjust="spacing" textLength="106" x="1138.35" y="60.8535">BulkEnrollmentUI</text><line style="stroke:#181818;stroke-width:0.5;" x1="1106.5" x2="1249.5" y1="72" y2="72"/><line style="stroke:#181818;stroke-width:0.5;" x1="1106.5" x2="1249.5" y1="80" y2="80"/><ellipse cx="1116.5" cy="93.3203" fill="#84BE84" rx="3" ry="3" style="stroke:#038048;stroke-width:1.0;"/><text fill="#000000" font-family="sans-serif" font-size="14" lengthAdjust="spacing" textLength="119" x="1125.5" y="96.6738">doShow(): boolean</text></g><!--MD5=[db53a82c4f8c24682774144dffd33099]
link BulkEnrollmentUI to StudentEnrollmentController--><g id="link_BulkEnrollmentUI_StudentEnrollmentController"><path codeLine="48" d="M1178,104.23 C1178,130.77 1178,168.89 1178,196.77 " fill="none" id="BulkEnrollmentUI-to-StudentEnrollmentController" style="stroke:#181818;stroke-width:1.0;"/><polygon fill="#181818" points="1178,201.85,1182,192.85,1178,196.85,1174,192.85,1178,201.85" style="stroke:#181818;stroke-width:1.0;"/><text fill="#000000" font-family="sans-serif" font-size="13" lengthAdjust="spacing" textLength="75" x="1179" y="148.7686">the controller</text></g><!--MD5=[764776768b27cbefe516582c955470b0]
link StudentEnrollmentController to ReadCSVFileService--><g id="link_StudentEnrollmentController_ReadCSVFileService"><path codeLine="49" d="M1178,266.23 C1178,292.77 1178,330.89 1178,358.77 " fill="none" id="StudentEnrollmentController-to-ReadCSVFileService" style="stroke:#181818;stroke-width:1.0;"/><polygon fill="#181818" points="1178,363.85,1182,354.85,1178,358.85,1174,354.85,1178,363.85" style="stroke:#181818;stroke-width:1.0;"/><text fill="#000000" font-family="sans-serif" font-size="13" lengthAdjust="spacing" textLength="40" x="1179" y="310.7686">service</text></g><!--MD5=[4338ee8a4fa9c79c307f876406577412]
link ReadCSVFileService to PersistenceContext--><g id="link_ReadCSVFileService_PersistenceContext"><path codeLine="50" d="M1122.67,428.03 C1081.54,451.09 1025.48,482.53 983.23,506.23 " fill="none" id="ReadCSVFileService-to-PersistenceContext" style="stroke:#181818;stroke-width:1.0;"/><polygon fill="#181818" points="978.66,508.79,988.4678,507.8914,983.0247,506.3509,984.5652,500.9078,978.66,508.79" style="stroke:#181818;stroke-width:1.0;"/></g><!--MD5=[754b775031405e096442b27febffa290]
link PersistenceContext to RepositoryFactory--><g id="link_PersistenceContext_RepositoryFactory"><path codeLine="51" d="M846.87,573.01 C793.29,594.83 720.51,624.48 659.27,649.42 " fill="none" id="PersistenceContext-to-RepositoryFactory" style="stroke:#181818;stroke-width:1.0;"/><polygon fill="#181818" points="654.5,651.36,664.3437,651.6793,659.1325,649.4785,661.3333,644.2673,654.5,651.36" style="stroke:#181818;stroke-width:1.0;"/></g><!--MD5=[0795949389f741c11f20948df9d921bb]
link RepositoryFactory to CourseRepository--><g id="link_RepositoryFactory_CourseRepository"><path codeLine="52" d="M414.09,746.5 C361.53,765.92 301.71,788.01 253.86,805.68 " fill="none" id="RepositoryFactory-to-CourseRepository" style="stroke:#181818;stroke-width:1.0;"/><polygon fill="#181818" points="248.98,807.48,258.8082,808.1179,253.671,805.7495,256.0394,800.6123,248.98,807.48" style="stroke:#181818;stroke-width:1.0;"/></g><!--MD5=[02d770dd45ca9833415554e615c89827]
link RepositoryFactory to EnrollmentRepository--><g id="link_RepositoryFactory_EnrollmentRepository"><path codeLine="53" d="M508.77,746.5 C496.42,764.91 482.44,785.72 470.91,802.89 " fill="none" id="RepositoryFactory-to-EnrollmentRepository" style="stroke:#181818;stroke-width:1.0;"/><polygon fill="#181818" points="468.04,807.17,476.373,801.9201,470.8234,803.0163,469.7272,797.4667,468.04,807.17" style="stroke:#181818;stroke-width:1.0;"/></g><!--MD5=[02f2aec9ae17e782bb5cf9c0b03879cb]
link RepositoryFactory to StudentRepository--><g id="link_RepositoryFactory_StudentRepository"><path codeLine="54" d="M631.66,746.5 C669.47,765.68 712.43,787.48 747.05,805.04 " fill="none" id="RepositoryFactory-to-StudentRepository" style="stroke:#181818;stroke-width:1.0;"/><polygon fill="#181818" points="751.66,807.38,745.438,799.7454,747.1994,805.1211,741.8237,806.8825,751.66,807.38" style="stroke:#181818;stroke-width:1.0;"/></g><!--MD5=[cdd4aa8ccda0b0fe3e22a4ea38496713]
link StudentEnrollmentController to PersistenceContext--><g id="link_StudentEnrollmentController_PersistenceContext"><path codeLine="55" d="M1138.95,266.22 C1120.22,282.03 1097.99,302.08 1080,322 C1026.1,381.69 973.58,459.88 945.03,504.56 " fill="none" id="StudentEnrollmentController-to-PersistenceContext" style="stroke:#181818;stroke-width:1.0;"/><polygon fill="#181818" points="942.35,508.78,950.5601,503.3399,945.0372,504.5635,943.8136,499.0405,942.35,508.78" style="stroke:#181818;stroke-width:1.0;"/></g><!--MD5=[0955e549b4d87278b096e0f5188aaa5e]
link StudentEnrollmentController to EnrollmentManagementService--><g id="link_StudentEnrollmentController_EnrollmentManagementService"><path codeLine="56" d="M1226.84,266.17 C1245.81,280.81 1265.86,299.92 1278,322 C1306.31,373.52 1312.53,441.68 1312.98,487.98 " fill="none" id="StudentEnrollmentController-to-EnrollmentManagementService" style="stroke:#181818;stroke-width:1.0;"/><polygon fill="#181818" points="1313,493.23,1316.9485,484.2073,1312.9714,488.2301,1308.9486,484.253,1313,493.23" style="stroke:#181818;stroke-width:1.0;"/></g><!--MD5=[b8dd9a281c7b4284aea70fd5a2ed12cd]
link ReadCSVFileService to EnrollmentManagementService--><g id="link_ReadCSVFileService_EnrollmentManagementService"><path codeLine="57" d="M1206.86,428.03 C1223.55,445.97 1244.95,468.98 1264,489.47 " fill="none" id="ReadCSVFileService-to-EnrollmentManagementService" style="stroke:#181818;stroke-width:1.0;"/><polygon fill="#181818" points="1267.53,493.26,1264.3496,483.9388,1264.1327,489.5915,1258.48,489.3745,1267.53,493.26" style="stroke:#181818;stroke-width:1.0;"/></g><!--MD5=[289849b1f2383065d7cb3f1d0974a7b5]
@startuml
package "Persistence"{
class PersistenceContext {
    + repositories(): RepositoryFactory
}
class RepositoryFactory {
     + courseRepository(): CourseRepository
     + enrollmentRepository(): EnrollmentRepository
     + studentRepository(): studentRepository
}
class CourseRepository {
   + getCourseFromCourseID(): List<Course>
}

class EnrollmentRepository {
    + save(Enrollment): Enrollment
}

class StudentRepository {
    + getStudentFromMecNumber(MecanographicNumber): List<Student>
}

}


package "Service"{
class ReadCSVFileService {
     + readCSV(): boolean
}
class EnrollmentManagementService{
 + saveEnrollment(EmailAddress, Course): Enrollment
 + getSudentFromMecNum(MecanographicNumber): List<Student>
 + getCourseFromCourseID(Edition): List<Course>
}
}

package "Application" {
class StudentEnrollmentController {
    + bulkEnrollmentCourse(csvfile, Course): Enrollment
}
}
package "Presentation"  {
class BulkEnrollmentUI {
    +doShow(): boolean
}
}


BulkEnrollmentUI - -> StudentEnrollmentController : the controller
StudentEnrollmentController - -> ReadCSVFileService :service
ReadCSVFileService - -> PersistenceContext
PersistenceContext - -> RepositoryFactory
RepositoryFactory - -> CourseRepository
RepositoryFactory - -> EnrollmentRepository
RepositoryFactory - -> StudentRepository
StudentEnrollmentController - -> PersistenceContext
StudentEnrollmentController - -> EnrollmentManagementService
ReadCSVFileService- -> EnrollmentManagementService





@enduml

PlantUML version 1.2022.12(Sun Oct 23 19:12:26 WEST 2022)
(GPL source distribution)
Java Runtime: OpenJDK Runtime Environment
JVM: OpenJDK 64-Bit Server VM
Default Encoding: Cp1252
Language: pt
Country: PT
--></g></svg>