<?xml version="1.0" encoding="UTF-8" standalone="no"?><svg xmlns="http://www.w3.org/2000/svg" xmlns:xlink="http://www.w3.org/1999/xlink" contentStyleType="text/css" height="882px" preserveAspectRatio="none" style="width:1650px;height:882px;background:#FFFFFF;" version="1.1" viewBox="0 0 1650 882" width="1650px" zoomAndPan="magnify"><defs/><g><!--MD5=[deb3c567b76d5af232f48dd7a6f0234b]
cluster <<Aggregate>> Course--><g id="cluster_&lt;&lt;Aggregate&gt;&gt; Course"><rect fill="#87CEFA" height="256" rx="2.5" ry="2.5" style="stroke:#181818;stroke-width:1.0;" width="880" x="764" y="620.5"/><text fill="#000000" font-family="sans-serif" font-size="14" font-weight="bold" lengthAdjust="spacing" textLength="160" x="1124" y="635.1738">&lt;&lt;Aggregate&gt;&gt; Course</text></g><!--MD5=[365bb2d02e6d505c6ef6f7faee131378]
cluster <<Aggregate>> Personal Information--><g id="cluster_&lt;&lt;Aggregate&gt;&gt; Personal Information"><rect fill="#BBAABB" height="411.5" rx="2.5" ry="2.5" style="stroke:#181818;stroke-width:1.0;" width="284" x="7" y="7"/><text fill="#000000" font-family="sans-serif" font-size="14" font-weight="bold" lengthAdjust="spacing" textLength="255" x="21.5" y="21.6738">&lt;&lt;Aggregate&gt;&gt; Personal Information</text></g><!--MD5=[b645c19d3073beb2fc9f71ee976e8626]
cluster <<Aggregate>> Student--><g id="cluster_&lt;&lt;Aggregate&gt;&gt; Student"><rect fill="#FF69B4" height="262.5" rx="2.5" ry="2.5" style="stroke:#181818;stroke-width:1.0;" width="200" x="315" y="310"/><text fill="#000000" font-family="sans-serif" font-size="14" font-weight="bold" lengthAdjust="spacing" textLength="164" x="333" y="324.6738">&lt;&lt;Aggregate&gt;&gt; Student</text></g><!--MD5=[6026bb76b26ef9ea2c06e1a62af3080f]
cluster <<Aggregate>> Enrollment--><g id="cluster_&lt;&lt;Aggregate&gt;&gt; Enrollment"><rect fill="#708090" height="255" rx="2.5" ry="2.5" style="stroke:#181818;stroke-width:1.0;" width="201" x="539" y="474"/><text fill="#000000" font-family="sans-serif" font-size="14" font-weight="bold" lengthAdjust="spacing" textLength="185" x="547" y="488.6738">&lt;&lt;Aggregate&gt;&gt; Enrollment</text></g><!--MD5=[4066b0363c5a91ff3b6e03e0428953a9]
class Course--><g id="elem_Course"><rect codeLine="5" fill="#F1F1F1" height="68.4531" id="Course" rx="2.5" ry="2.5" style="stroke:#181818;stroke-width:0.5;" width="78" x="1082" y="654.5"/><ellipse cx="1097" cy="680.7266" fill="#ADD1B2" rx="11" ry="11" style="stroke:#181818;stroke-width:1.0;"/><path d="M1095.5,681.7266 L1095.5,683.7266 L1099.5,683.7266 L1099.5,682.7266 L1099.5,682.2422 L1100.125,681.7266 L1100.5,681.7266 L1100.875,681.7266 L1101.5,682.2422 L1101.5,682.7266 L1101.5,685.7266 L1093.5,685.7266 L1093.0156,685.7266 L1092.5,685.1016 L1092.5,684.7266 L1092.5,684.3516 L1093.0156,683.7266 L1093.5,683.7266 L1093.5,683.7266 L1093.5,677.7266 L1093.5,677.7266 L1093.0156,677.7266 L1092.5,677.1016 L1092.5,676.7266 L1092.5,676.3516 L1093.0156,675.7266 L1093.5,675.7266 L1101.5,675.7266 L1101.5,678.7266 L1101.5,679.2109 L1100.875,679.7266 L1100.5,679.7266 L1100.125,679.7266 L1099.5,679.2109 L1099.5,678.7266 L1099.5,677.7266 L1095.5,677.7266 L1095.5,679.7266 L1096.5,679.7266 L1096.5,679.2422 L1096.5,679.2422 L1097.125,678.7266 L1097.5,678.7266 L1097.875,678.7266 L1098.5,679.2422 L1098.5,679.7266 L1098.5,681.7266 L1098.5,682.2109 L1097.875,682.7266 L1097.875,682.7266 L1097.5,682.7266 L1097.125,682.7266 L1096.5,682.2109 L1096.5,682.2109 L1096.5,681.7266 L1095.5,681.7266 Z " fill="#000000"/><text fill="#000000" font-family="sans-serif" font-size="12" font-style="italic" lengthAdjust="spacing" textLength="40" x="1114" y="670.3633">«Root»</text><text fill="#000000" font-family="sans-serif" font-size="12" font-style="italic" lengthAdjust="spacing" textLength="44" x="1112" y="683.7695">«Entity»</text><text fill="#000000" font-family="sans-serif" font-size="14" lengthAdjust="spacing" textLength="46" x="1111" y="698.9863">Course</text><line style="stroke:#181818;stroke-width:0.5;" x1="1083" x2="1159" y1="706.9531" y2="706.9531"/><line style="stroke:#181818;stroke-width:0.5;" x1="1083" x2="1159" y1="714.9531" y2="714.9531"/></g><g id="elem_Id"><rect fill="#F1F1F1" height="62.4531" style="stroke:#181818;stroke-width:0.5;" width="95" x="780.5" y="798.5"/><text fill="#000000" font-family="sans-serif" font-size="12" font-style="italic" lengthAdjust="spacing" textLength="85" x="785.5" y="809.3633">«Value Object»</text><text fill="#000000" font-family="sans-serif" font-size="12" font-style="italic" lengthAdjust="spacing" textLength="54" x="801" y="822.7695">«Identify»</text><text fill="#000000" font-family="sans-serif" font-size="14" lengthAdjust="spacing" textLength="11" x="822.5" y="839.9863">Id</text><line style="stroke:#181818;stroke-width:0.5;" x1="781.5" x2="874.5" y1="844.9531" y2="844.9531"/></g><g id="elem_CourseState"><rect fill="#F1F1F1" height="49.0469" style="stroke:#181818;stroke-width:0.5;" width="95" x="910.5" y="805"/><text fill="#000000" font-family="sans-serif" font-size="12" font-style="italic" lengthAdjust="spacing" textLength="85" x="915.5" y="815.8633">«Value Object»</text><text fill="#000000" font-family="sans-serif" font-size="14" lengthAdjust="spacing" textLength="79" x="918.5" y="833.0801">CourseState</text><line style="stroke:#181818;stroke-width:0.5;" x1="911.5" x2="1004.5" y1="838.0469" y2="838.0469"/></g><g id="elem_CourseEnrollmentState"><rect fill="#F1F1F1" height="49.0469" style="stroke:#181818;stroke-width:0.5;" width="160" x="1041" y="805"/><text fill="#000000" font-family="sans-serif" font-size="12" font-style="italic" lengthAdjust="spacing" textLength="85" x="1078.5" y="815.8633">«Value Object»</text><text fill="#000000" font-family="sans-serif" font-size="14" lengthAdjust="spacing" textLength="146" x="1048" y="833.0801">CourseEnrollmentState</text><line style="stroke:#181818;stroke-width:0.5;" x1="1042" x2="1200" y1="838.0469" y2="838.0469"/></g><g id="elem_Edition"><rect fill="#F1F1F1" height="49.0469" style="stroke:#181818;stroke-width:0.5;" width="95" x="1236.5" y="805"/><text fill="#000000" font-family="sans-serif" font-size="12" font-style="italic" lengthAdjust="spacing" textLength="85" x="1241.5" y="815.8633">«Value Object»</text><text fill="#000000" font-family="sans-serif" font-size="14" lengthAdjust="spacing" textLength="43" x="1262.5" y="833.0801">Edition</text><line style="stroke:#181818;stroke-width:0.5;" x1="1237.5" x2="1330.5" y1="838.0469" y2="838.0469"/></g><g id="elem_CourseDescription"><rect fill="#F1F1F1" height="49.0469" style="stroke:#181818;stroke-width:0.5;" width="131" x="1366.5" y="805"/><text fill="#000000" font-family="sans-serif" font-size="12" font-style="italic" lengthAdjust="spacing" textLength="85" x="1389.5" y="815.8633">«Value Object»</text><text fill="#000000" font-family="sans-serif" font-size="14" lengthAdjust="spacing" textLength="117" x="1373.5" y="833.0801">CourseDescription</text><line style="stroke:#181818;stroke-width:0.5;" x1="1367.5" x2="1496.5" y1="838.0469" y2="838.0469"/></g><g id="elem_CourseTitle"><rect fill="#F1F1F1" height="49.0469" style="stroke:#181818;stroke-width:0.5;" width="95" x="1532.5" y="805"/><text fill="#000000" font-family="sans-serif" font-size="12" font-style="italic" lengthAdjust="spacing" textLength="85" x="1537.5" y="815.8633">«Value Object»</text><text fill="#000000" font-family="sans-serif" font-size="14" lengthAdjust="spacing" textLength="73" x="1543.5" y="833.0801">CourseTitle</text><line style="stroke:#181818;stroke-width:0.5;" x1="1533.5" x2="1626.5" y1="838.0469" y2="838.0469"/></g><!--MD5=[3fd616f346a44cd59a91eb10b19e157c]
class User--><g id="elem_User"><rect codeLine="23" fill="#F1F1F1" height="81.8594" id="User" rx="2.5" ry="2.5" style="stroke:#181818;stroke-width:0.5;" width="87" x="187.5" y="166"/><ellipse cx="202.5" cy="198.9297" fill="#ADD1B2" rx="11" ry="11" style="stroke:#181818;stroke-width:1.0;"/><path d="M201,199.9297 L201,201.9297 L205,201.9297 L205,200.9297 L205,200.4453 L205.625,199.9297 L206,199.9297 L206.375,199.9297 L207,200.4453 L207,200.9297 L207,203.9297 L199,203.9297 L198.5156,203.9297 L198,203.3047 L198,202.9297 L198,202.5547 L198.5156,201.9297 L199,201.9297 L199,201.9297 L199,195.9297 L199,195.9297 L198.5156,195.9297 L198,195.3047 L198,194.9297 L198,194.5547 L198.5156,193.9297 L199,193.9297 L207,193.9297 L207,196.9297 L207,197.4141 L206.375,197.9297 L206,197.9297 L205.625,197.9297 L205,197.4141 L205,196.9297 L205,195.9297 L201,195.9297 L201,197.9297 L202,197.9297 L202,197.4453 L202,197.4453 L202.625,196.9297 L203,196.9297 L203.375,196.9297 L204,197.4453 L204,197.9297 L204,199.9297 L204,200.4141 L203.375,200.9297 L203.375,200.9297 L203,200.9297 L202.625,200.9297 L202,200.4141 L202,200.4141 L202,199.9297 L201,199.9297 Z " fill="#000000"/><text fill="#000000" font-family="sans-serif" font-size="12" font-style="italic" lengthAdjust="spacing" textLength="40" x="224" y="181.8633">«Root»</text><text fill="#000000" font-family="sans-serif" font-size="12" font-style="italic" lengthAdjust="spacing" textLength="44" x="222" y="195.2695">«Entity»</text><text fill="#000000" font-family="sans-serif" font-size="12" font-style="italic" lengthAdjust="spacing" textLength="59" x="214.5" y="208.6758">«Strategy»</text><text fill="#000000" font-family="sans-serif" font-size="14" lengthAdjust="spacing" textLength="29" x="229.5" y="223.8926">User</text><line style="stroke:#181818;stroke-width:0.5;" x1="188.5" x2="273.5" y1="231.8594" y2="231.8594"/><line style="stroke:#181818;stroke-width:0.5;" x1="188.5" x2="273.5" y1="239.8594" y2="239.8594"/></g><g id="elem_BirthDate"><rect fill="#F1F1F1" height="49.0469" style="stroke:#181818;stroke-width:0.5;" width="95" x="49.5" y="41"/><text fill="#000000" font-family="sans-serif" font-size="12" font-style="italic" lengthAdjust="spacing" textLength="85" x="54.5" y="51.8633">«Value Object»</text><text fill="#000000" font-family="sans-serif" font-size="14" lengthAdjust="spacing" textLength="59" x="67.5" y="69.0801">BirthDate</text><line style="stroke:#181818;stroke-width:0.5;" x1="50.5" x2="143.5" y1="74.0469" y2="74.0469"/></g><g id="elem_TaxNumber"><rect fill="#F1F1F1" height="62.4531" style="stroke:#181818;stroke-width:0.5;" width="95" x="23.5" y="176"/><text fill="#000000" font-family="sans-serif" font-size="12" font-style="italic" lengthAdjust="spacing" textLength="85" x="28.5" y="186.8633">«Value Object»</text><text fill="#000000" font-family="sans-serif" font-size="12" font-style="italic" lengthAdjust="spacing" textLength="25" x="58.5" y="200.2695">«Id»</text><text fill="#000000" font-family="sans-serif" font-size="14" lengthAdjust="spacing" textLength="72" x="35" y="217.4863">TaxNumber</text><line style="stroke:#181818;stroke-width:0.5;" x1="24.5" x2="117.5" y1="222.4531" y2="222.4531"/></g><g id="elem_FullName"><rect fill="#F1F1F1" height="49.0469" style="stroke:#181818;stroke-width:0.5;" width="95" x="179.5" y="353.5"/><text fill="#000000" font-family="sans-serif" font-size="12" font-style="italic" lengthAdjust="spacing" textLength="85" x="184.5" y="364.3633">«Value Object»</text><text fill="#000000" font-family="sans-serif" font-size="14" lengthAdjust="spacing" textLength="59" x="197.5" y="381.5801">FullName</text><line style="stroke:#181818;stroke-width:0.5;" x1="180.5" x2="273.5" y1="386.5469" y2="386.5469"/></g><g id="elem_ShortName"><rect fill="#F1F1F1" height="49.0469" style="stroke:#181818;stroke-width:0.5;" width="95" x="179.5" y="41"/><text fill="#000000" font-family="sans-serif" font-size="12" font-style="italic" lengthAdjust="spacing" textLength="85" x="184.5" y="51.8633">«Value Object»</text><text fill="#000000" font-family="sans-serif" font-size="14" lengthAdjust="spacing" textLength="70" x="192" y="69.0801">ShortName</text><line style="stroke:#181818;stroke-width:0.5;" x1="180.5" x2="273.5" y1="74.0469" y2="74.0469"/></g><!--MD5=[d6181cb537bdc20c0a3007a98a56832d]
class Student--><g id="elem_Student"><rect codeLine="37" fill="#F1F1F1" height="68.4531" id="Student" rx="2.5" ry="2.5" style="stroke:#181818;stroke-width:0.5;" width="81" x="374.5" y="344"/><ellipse cx="389.5" cy="370.2266" fill="#ADD1B2" rx="11" ry="11" style="stroke:#181818;stroke-width:1.0;"/><path d="M388,371.2266 L388,373.2266 L392,373.2266 L392,372.2266 L392,371.7422 L392.625,371.2266 L393,371.2266 L393.375,371.2266 L394,371.7422 L394,372.2266 L394,375.2266 L386,375.2266 L385.5156,375.2266 L385,374.6016 L385,374.2266 L385,373.8516 L385.5156,373.2266 L386,373.2266 L386,373.2266 L386,367.2266 L386,367.2266 L385.5156,367.2266 L385,366.6016 L385,366.2266 L385,365.8516 L385.5156,365.2266 L386,365.2266 L394,365.2266 L394,368.2266 L394,368.7109 L393.375,369.2266 L393,369.2266 L392.625,369.2266 L392,368.7109 L392,368.2266 L392,367.2266 L388,367.2266 L388,369.2266 L389,369.2266 L389,368.7422 L389,368.7422 L389.625,368.2266 L390,368.2266 L390.375,368.2266 L391,368.7422 L391,369.2266 L391,371.2266 L391,371.7109 L390.375,372.2266 L390.375,372.2266 L390,372.2266 L389.625,372.2266 L389,371.7109 L389,371.7109 L389,371.2266 L388,371.2266 Z " fill="#000000"/><text fill="#000000" font-family="sans-serif" font-size="12" font-style="italic" lengthAdjust="spacing" textLength="44" x="406" y="359.8633">«Entity»</text><text fill="#000000" font-family="sans-serif" font-size="12" font-style="italic" lengthAdjust="spacing" textLength="40" x="408" y="373.2695">«Root»</text><text fill="#000000" font-family="sans-serif" font-size="14" lengthAdjust="spacing" textLength="49" x="403.5" y="388.4863">Student</text><line style="stroke:#181818;stroke-width:0.5;" x1="375.5" x2="454.5" y1="396.4531" y2="396.4531"/><line style="stroke:#181818;stroke-width:0.5;" x1="375.5" x2="454.5" y1="404.4531" y2="404.4531"/></g><g id="elem_MechanographicNumber"><rect fill="#F1F1F1" height="49.0469" style="stroke:#181818;stroke-width:0.5;" width="168" x="331" y="507.5"/><text fill="#000000" font-family="sans-serif" font-size="12" font-style="italic" lengthAdjust="spacing" textLength="85" x="372.5" y="518.3633">«Value Object»</text><text fill="#000000" font-family="sans-serif" font-size="14" lengthAdjust="spacing" textLength="154" x="338" y="535.5801">MechanographicNumber</text><line style="stroke:#181818;stroke-width:0.5;" x1="332" x2="498" y1="540.5469" y2="540.5469"/></g><!--MD5=[a5e519b5507f5347c192db89cdb5223a]
class Enrollment--><g id="elem_Enrollment"><rect codeLine="46" fill="#F1F1F1" height="48" id="Enrollment" rx="2.5" ry="2.5" style="stroke:#181818;stroke-width:0.5;" width="99" x="589.5" y="508"/><ellipse cx="604.5" cy="524" fill="#ADD1B2" rx="11" ry="11" style="stroke:#181818;stroke-width:1.0;"/><path d="M603,525 L603,527 L607,527 L607,526 L607,525.5156 L607.625,525 L608,525 L608.375,525 L609,525.5156 L609,526 L609,529 L601,529 L600.5156,529 L600,528.375 L600,528 L600,527.625 L600.5156,527 L601,527 L601,527 L601,521 L601,521 L600.5156,521 L600,520.375 L600,520 L600,519.625 L600.5156,519 L601,519 L609,519 L609,522 L609,522.4844 L608.375,523 L608,523 L607.625,523 L607,522.4844 L607,522 L607,521 L603,521 L603,523 L604,523 L604,522.5156 L604,522.5156 L604.625,522 L605,522 L605.375,522 L606,522.5156 L606,523 L606,525 L606,525.4844 L605.375,526 L605.375,526 L605,526 L604.625,526 L604,525.4844 L604,525.4844 L604,525 L603,525 Z " fill="#000000"/><text fill="#000000" font-family="sans-serif" font-size="14" lengthAdjust="spacing" textLength="67" x="618.5" y="528.8535">Enrollment</text><line style="stroke:#181818;stroke-width:0.5;" x1="590.5" x2="687.5" y1="540" y2="540"/><line style="stroke:#181818;stroke-width:0.5;" x1="590.5" x2="687.5" y1="548" y2="548"/></g><g id="elem_EnrollmentState"><rect fill="#F1F1F1" height="49.0469" style="stroke:#181818;stroke-width:0.5;" width="114" x="582" y="664"/><text fill="#000000" font-family="sans-serif" font-size="12" font-style="italic" lengthAdjust="spacing" textLength="85" x="596.5" y="674.8633">«Value Object»</text><text fill="#000000" font-family="sans-serif" font-size="14" lengthAdjust="spacing" textLength="100" x="589" y="692.0801">EnrollmentState</text><line style="stroke:#181818;stroke-width:0.5;" x1="583" x2="695" y1="697.0469" y2="697.0469"/></g><!--MD5=[b3919203e0fc33882323d71b139d4648]
link Course to CourseTitle--><g id="link_Course_CourseTitle"><path codeLine="13" d="M1160.25,698.12 C1231.86,714.34 1388.05,751.99 1515,798.5 C1519.2,800.04 1523.5,801.74 1527.8,803.52 " fill="none" id="Course-to-CourseTitle" style="stroke:#181818;stroke-width:1.0;"/><polygon fill="#181818" points="1532.45,805.49,1525.7155,798.3035,1527.844,803.5446,1522.6028,805.6731,1532.45,805.49" style="stroke:#181818;stroke-width:1.0;"/><text fill="#000000" font-family="sans-serif" font-size="13" lengthAdjust="spacing" textLength="32" x="1420" y="765.2686">has a</text><text fill="#000000" font-family="sans-serif" font-size="13" lengthAdjust="spacing" textLength="7" x="1168.132" y="696.3781">1</text><text fill="#000000" font-family="sans-serif" font-size="13" lengthAdjust="spacing" textLength="7" x="1517.633" y="798.5466">1</text></g><!--MD5=[11de04e271b5730d591139d5c3a29f06]
link Course to Id--><g id="link_Course_Id"><path codeLine="14" d="M1081.98,707.77 C1055.23,720.31 1018.94,737.36 987,752.5 C951.44,769.36 911.48,788.46 880.51,803.3 " fill="none" id="Course-to-Id" style="stroke:#181818;stroke-width:1.0;"/><polygon fill="#181818" points="875.62,805.64,885.4644,805.3434,880.1258,803.4726,881.9966,798.1341,875.62,805.64" style="stroke:#181818;stroke-width:1.0;"/><text fill="#000000" font-family="sans-serif" font-size="13" lengthAdjust="spacing" textLength="32" x="988" y="765.2686">has a</text><text fill="#000000" font-family="sans-serif" font-size="13" lengthAdjust="spacing" textLength="7" x="1066.8746" y="707.8842">1</text><text fill="#000000" font-family="sans-serif" font-size="13" lengthAdjust="spacing" textLength="7" x="883.4478" y="798.6885">1</text></g><!--MD5=[fb1b11975120a3eff39f2a5b357f0d9b]
link Course to CourseDescription--><g id="link_Course_CourseDescription"><path codeLine="15" d="M1160.07,706.96 C1214.13,731.13 1312.12,774.92 1374.53,802.81 " fill="none" id="Course-to-CourseDescription" style="stroke:#181818;stroke-width:1.0;"/><polygon fill="#181818" points="1379.33,804.96,1372.7451,797.6361,1374.7651,802.92,1369.4812,804.94,1379.33,804.96" style="stroke:#181818;stroke-width:1.0;"/><text fill="#000000" font-family="sans-serif" font-size="13" lengthAdjust="spacing" textLength="32" x="1296" y="765.2686">has a</text><text fill="#000000" font-family="sans-serif" font-size="13" lengthAdjust="spacing" textLength="7" x="1167.9188" y="723.4292">1</text><text fill="#000000" font-family="sans-serif" font-size="13" lengthAdjust="spacing" textLength="7" x="1357.2343" y="794.3162">1</text></g><!--MD5=[e64f2b7cf82963464778f39ca9b22dac]
link Course to CourseState--><g id="link_Course_CourseState"><path codeLine="16" d="M1081.96,722.79 C1053.68,746.91 1015.94,779.09 989.56,801.58 " fill="none" id="Course-to-CourseState" style="stroke:#181818;stroke-width:1.0;"/><polygon fill="#181818" points="985.76,804.83,995.1965,802.0099,989.5563,801.576,989.9901,795.9359,985.76,804.83" style="stroke:#181818;stroke-width:1.0;"/><text fill="#000000" font-family="sans-serif" font-size="13" lengthAdjust="spacing" textLength="32" x="1045" y="765.2686">has a</text><text fill="#000000" font-family="sans-serif" font-size="13" lengthAdjust="spacing" textLength="7" x="1067.1167" y="725.5966">1</text><text fill="#000000" font-family="sans-serif" font-size="13" lengthAdjust="spacing" textLength="7" x="985.2799" y="794.1513">1</text></g><!--MD5=[09c0d6e916d1d63ced58e522345ec4eb]
link Course to CourseEnrollmentState--><g id="link_Course_CourseEnrollmentState"><path codeLine="17" d="M1121,722.79 C1121,746.14 1121,777.05 1121,799.41 " fill="none" id="Course-to-CourseEnrollmentState" style="stroke:#181818;stroke-width:1.0;"/><polygon fill="#181818" points="1121,804.62,1125,795.62,1121,799.62,1117,795.62,1121,804.62" style="stroke:#181818;stroke-width:1.0;"/><text fill="#000000" font-family="sans-serif" font-size="13" lengthAdjust="spacing" textLength="39" x="1122" y="765.2686">has an</text><text fill="#000000" font-family="sans-serif" font-size="13" lengthAdjust="spacing" textLength="7" x="1113.3109" y="742.6944">1</text><text fill="#000000" font-family="sans-serif" font-size="13" lengthAdjust="spacing" textLength="7" x="1113.1031" y="794.2804">1</text></g><!--MD5=[12435fc97d44de943be48564a2294445]
link Course to Edition--><g id="link_Course_Edition"><path codeLine="18" d="M1160.04,722.79 C1188.32,746.91 1226.06,779.09 1252.44,801.58 " fill="none" id="Course-to-Edition" style="stroke:#181818;stroke-width:1.0;"/><polygon fill="#181818" points="1256.24,804.83,1252.0099,795.9359,1252.4437,801.576,1246.8035,802.0099,1256.24,804.83" style="stroke:#181818;stroke-width:1.0;"/><text fill="#000000" font-family="sans-serif" font-size="13" lengthAdjust="spacing" textLength="32" x="1213" y="765.2686">has a</text><text fill="#000000" font-family="sans-serif" font-size="13" lengthAdjust="spacing" textLength="7" x="1160.0369" y="742.6944">1</text><text fill="#000000" font-family="sans-serif" font-size="13" lengthAdjust="spacing" textLength="7" x="1240.8389" y="794.1513">1</text></g><!--MD5=[5be8aaedb820ee9cf3ce759b5401d401]
reverse link BirthDate to User--><g id="link_BirthDate_User"><path codeLine="29" d="M123.32,93.9 C143,114.39 170.23,142.73 192.38,165.79 " fill="none" id="BirthDate-backto-User" style="stroke:#181818;stroke-width:1.0;"/><polygon fill="#181818" points="119.73,90.16,123.0604,99.4287,123.1861,93.7732,128.8416,93.8989,119.73,90.16" style="stroke:#181818;stroke-width:1.0;"/><text fill="#000000" font-family="sans-serif" font-size="13" lengthAdjust="spacing" textLength="32" x="161" y="132.7686">has a</text><text fill="#000000" font-family="sans-serif" font-size="13" lengthAdjust="spacing" textLength="7" x="117.4173" y="109.7038">1</text><text fill="#000000" font-family="sans-serif" font-size="13" lengthAdjust="spacing" textLength="7" x="178.1406" y="155.3295">1</text></g><!--MD5=[1dba526f95bd730ec4c849a0bc17cef7]
reverse link TaxNumber to User--><g id="link_TaxNumber_User"><path codeLine="30" d="M123.76,207 C144.39,207 167.78,207 187.43,207 " fill="none" id="TaxNumber-backto-User" style="stroke:#181818;stroke-width:1.0;"/><polygon fill="#181818" points="118.57,207,127.57,211,123.57,207,127.57,203,118.57,207" style="stroke:#181818;stroke-width:1.0;"/><text fill="#000000" font-family="sans-serif" font-size="13" lengthAdjust="spacing" textLength="32" x="137" y="200.7686">has a</text><text fill="#000000" font-family="sans-serif" font-size="13" lengthAdjust="spacing" textLength="7" x="126.3901" y="203.7021">1</text><text fill="#000000" font-family="sans-serif" font-size="13" lengthAdjust="spacing" textLength="7" x="172.634" y="203.6642">1</text></g><!--MD5=[176e07b16b38b5978b9bc82adf5db4ba]
link User to FullName--><g id="link_User_FullName"><path codeLine="31" d="M230.05,248.05 C229.32,278.8 228.34,320.52 227.68,348.08 " fill="none" id="User-to-FullName" style="stroke:#181818;stroke-width:1.0;"/><polygon fill="#181818" points="227.56,353.39,231.7646,344.4838,227.6743,348.3913,223.7667,344.3009,227.56,353.39" style="stroke:#181818;stroke-width:1.0;"/><text fill="#000000" font-family="sans-serif" font-size="13" lengthAdjust="spacing" textLength="32" x="231" y="290.7686">has a</text><text fill="#000000" font-family="sans-serif" font-size="13" lengthAdjust="spacing" textLength="7" x="222.3408" y="267.5294">1</text><text fill="#000000" font-family="sans-serif" font-size="13" lengthAdjust="spacing" textLength="7" x="219.7699" y="342.7274">1</text></g><!--MD5=[090fafa15af9dc716b5d092066e89d17]
reverse link ShortName to User--><g id="link_ShortName_User"><path codeLine="32" d="M227.82,95.18 C228.41,115.56 229.2,143.21 229.85,165.79 " fill="none" id="ShortName-backto-User" style="stroke:#181818;stroke-width:1.0;"/><polygon fill="#181818" points="227.68,90.16,223.9387,99.2706,227.8228,95.158,231.9354,99.0421,227.68,90.16" style="stroke:#181818;stroke-width:1.0;"/><text fill="#000000" font-family="sans-serif" font-size="13" lengthAdjust="spacing" textLength="32" x="230" y="132.7686">has a</text><text fill="#000000" font-family="sans-serif" font-size="13" lengthAdjust="spacing" textLength="7" x="219.9926" y="109.7038">1</text><text fill="#000000" font-family="sans-serif" font-size="13" lengthAdjust="spacing" textLength="7" x="222.0508" y="155.3295">1</text></g><!--MD5=[29fe19ce294944fa80f389ae9bd987a4]
reverse link User to Student--><g id="link_User_Student"><path codeLine="40" d="M278.38,251.51 C309.69,280.27 350.09,317.38 378.82,343.77 " fill="none" id="User-backto-Student" style="stroke:#181818;stroke-width:1.0;"/><polygon fill="#181818" points="274.61,248.05,278.532,257.0843,278.2922,251.4325,283.944,251.1927,274.61,248.05" style="stroke:#181818;stroke-width:1.0;"/><text fill="#000000" font-family="sans-serif" font-size="13" lengthAdjust="spacing" textLength="21" x="324" y="290.7686">is a</text></g><!--MD5=[98c7668d4def7ca1b45538dfd0d209a2]
link Student to MechanographicNumber--><g id="link_Student_MechanographicNumber"><path codeLine="41" d="M415,412.36 C415,439.12 415,476.31 415,501.88 " fill="none" id="Student-to-MechanographicNumber" style="stroke:#181818;stroke-width:1.0;"/><polygon fill="#181818" points="415,507.15,419,498.15,415,502.15,411,498.15,415,507.15" style="stroke:#181818;stroke-width:1.0;"/><text fill="#000000" font-family="sans-serif" font-size="13" lengthAdjust="spacing" textLength="32" x="416" y="454.7686">has a</text><text fill="#000000" font-family="sans-serif" font-size="13" lengthAdjust="spacing" textLength="7" x="407.3109" y="432.2782">1</text><text fill="#000000" font-family="sans-serif" font-size="13" lengthAdjust="spacing" textLength="7" x="407.1031" y="496.8181">1</text></g><!--MD5=[bcfd34c5559dff23054c59a5e981aced]
link Enrollment to EnrollmentState--><g id="link_Enrollment_EnrollmentState"><path codeLine="49" d="M639,556.13 C639,583.47 639,628.99 639,658.62 " fill="none" id="Enrollment-to-EnrollmentState" style="stroke:#181818;stroke-width:1.0;"/><polygon fill="#181818" points="639,663.96,643,654.96,639,658.96,635,654.96,639,663.96" style="stroke:#181818;stroke-width:1.0;"/><text fill="#000000" font-family="sans-serif" font-size="13" lengthAdjust="spacing" textLength="39" x="640" y="601.2686">has an</text><text fill="#000000" font-family="sans-serif" font-size="13" lengthAdjust="spacing" textLength="7" x="631.1031" y="575.9427">1</text><text fill="#000000" font-family="sans-serif" font-size="13" lengthAdjust="spacing" textLength="7" x="631.0594" y="653.3162">1</text></g><!--MD5=[3cbe93a553b830f8762380501920eaf4]
link Enrollment to Course--><g id="link_Enrollment_Course"><path codeLine="50" d="M688.77,548.95 C783.19,579.22 986.93,644.53 1076.84,673.34 " fill="none" id="Enrollment-to-Course" style="stroke:#181818;stroke-width:1.0;"/><polygon fill="#181818" points="1081.81,674.94,1074.4473,668.3986,1077.0456,673.4234,1072.0207,676.0217,1081.81,674.94" style="stroke:#181818;stroke-width:1.0;"/><polygon fill="#000000" points="860.7614,598.2879,853.045,592.7283,851.2509,598.3257,860.7614,598.2879" style="stroke:#000000;stroke-width:1.0;"/><text fill="#000000" font-family="sans-serif" font-size="13" lengthAdjust="spacing" textLength="79" x="865" y="601.2686">is related to a</text><text fill="#000000" font-family="sans-serif" font-size="13" lengthAdjust="spacing" textLength="7" x="696.594" y="548.2184">1</text><text fill="#000000" font-family="sans-serif" font-size="13" lengthAdjust="spacing" textLength="7" x="1066.939" y="668.9243">1</text></g><!--MD5=[d97feb4f588aa61001cbeac3ed5ac5af]
link Student to Enrollment--><g id="link_Student_Enrollment"><path codeLine="53" d="M455.56,406.53 C496.8,434.51 560.21,477.54 600.64,504.97 " fill="none" id="Student-to-Enrollment" style="stroke:#181818;stroke-width:1.0;"/><polygon fill="#181818" points="604.96,507.9,599.7764,499.5256,600.8286,505.0838,595.2704,506.1359,604.96,507.9" style="stroke:#181818;stroke-width:1.0;"/><text fill="#000000" font-family="sans-serif" font-size="13" lengthAdjust="spacing" textLength="50" x="528" y="454.7686">makes a</text></g><!--MD5=[568e6453076962de6073711fda04cf84]
@startuml
'https://plantuml.com/use-case-diagram

rectangle "<<Aggregate>> Course" #lightskyblue{

    entity Course<<Root>><<Entity>>
    object Id<<Value Object>><<Identify>>
    object CourseState<<Value Object>>
    object CourseEnrollmentState <<Value Object>>
    object Edition <<Value Object>>
    object CourseDescription <<Value Object>>
    object CourseTitle <<Value Object>>

    Course"1" - -> "1"CourseTitle: has a
    Course"1" - -> "1"Id : has a
    Course"1" - -> "1"CourseDescription : has a
    Course"1"- ->"1"CourseState : has a
    Course"1"- ->"1"CourseEnrollmentState: has an
    Course"1" - ->"1"Edition : has a
}

rectangle "<<Aggregate>> Personal Information" #bbaabb{

    entity User<<Root>><<Entity>><<Strategy>>
    object BirthDate<<Value Object>>
    object TaxNumber<<Value Object>><<Id>>
    object FullName<<Value Object>>
    object ShortName<<Value Object>>

    User"1" -up-> "1"BirthDate : has a
    User"1" -left-> "1"TaxNumber : has a
    User"1" - -> "1" FullName : has a
    User "1" -up->"1"ShortName : has a
}

rectangle "<<Aggregate>> Student" #hotpink{

    entity Student<<Entity>><<Root>>
    object MechanographicNumber<<Value Object>>

    Student -up-> User: is a
    Student "1" - ->"1"MechanographicNumber: has a
}

rectangle "<<Aggregate>> Enrollment" #slategrey {

    entity Enrollment
    object EnrollmentState<<Value Object>>

     Enrollment"1"- ->"1"EnrollmentState : has an
     Enrollment "1"- ->"1" Course : is related to a >
}

Student- -> Enrollment: makes a


@enduml

@startuml

rectangle "<<Aggregate>> Course" #lightskyblue{

    entity Course<<Root>><<Entity>>
    object Id<<Value Object>><<Identify>>
    object CourseState<<Value Object>>
    object CourseEnrollmentState <<Value Object>>
    object Edition <<Value Object>>
    object CourseDescription <<Value Object>>
    object CourseTitle <<Value Object>>

    Course"1" - -> "1"CourseTitle: has a
    Course"1" - -> "1"Id : has a
    Course"1" - -> "1"CourseDescription : has a
    Course"1"- ->"1"CourseState : has a
    Course"1"- ->"1"CourseEnrollmentState: has an
    Course"1" - ->"1"Edition : has a
}

rectangle "<<Aggregate>> Personal Information" #bbaabb{

    entity User<<Root>><<Entity>><<Strategy>>
    object BirthDate<<Value Object>>
    object TaxNumber<<Value Object>><<Id>>
    object FullName<<Value Object>>
    object ShortName<<Value Object>>

    User"1" -up-> "1"BirthDate : has a
    User"1" -left-> "1"TaxNumber : has a
    User"1" - -> "1" FullName : has a
    User "1" -up->"1"ShortName : has a
}

rectangle "<<Aggregate>> Student" #hotpink{

    entity Student<<Entity>><<Root>>
    object MechanographicNumber<<Value Object>>

    Student -up-> User: is a
    Student "1" - ->"1"MechanographicNumber: has a
}

rectangle "<<Aggregate>> Enrollment" #slategrey {

    entity Enrollment
    object EnrollmentState<<Value Object>>

     Enrollment"1"- ->"1"EnrollmentState : has an
     Enrollment "1"- ->"1" Course : is related to a >
}

Student- -> Enrollment: makes a


@enduml

PlantUML version 1.2022.12(Sun Oct 23 19:12:26 WEST 2022)
(GPL source distribution)
Java Runtime: OpenJDK Runtime Environment
JVM: OpenJDK 64-Bit Server VM
Default Encoding: Cp1252
Language: pt
Country: PT
--></g></svg>