<?xml version="1.0" encoding="UTF-8" standalone="no"?><svg xmlns="http://www.w3.org/2000/svg" xmlns:xlink="http://www.w3.org/1999/xlink" contentStyleType="text/css" height="996px" preserveAspectRatio="none" style="width:1894px;height:996px;background:#FFFFFF;" version="1.1" viewBox="0 0 1894 996" width="1894px" zoomAndPan="magnify"><defs/><g><rect fill="#FFFFFF" height="801.6563" style="stroke:#181818;stroke-width:1.0;" width="10" x="31" y="92.2813"/><rect fill="#FFFFFF" height="28.5234" style="stroke:#181818;stroke-width:1.0;" width="10" x="343" y="112.8047"/><rect fill="#FFFFFF" height="715.0859" style="stroke:#181818;stroke-width:1.0;" width="10" x="343" y="169.8516"/><rect fill="#FFFFFF" height="658.0391" style="stroke:#181818;stroke-width:1.0;" width="10" x="571" y="198.375"/><rect fill="#FFFFFF" height="600.9922" style="stroke:#181818;stroke-width:1.0;" width="10" x="799" y="226.8984"/><rect fill="#FFFFFF" height="513.4219" style="stroke:#181818;stroke-width:1.0;" width="10" x="1068" y="278.9453"/><rect fill="#FFFFFF" height="57.0469" style="stroke:#181818;stroke-width:1.0;" width="10" x="1251" y="307.4688"/><rect fill="#FFFFFF" height="28.5234" style="stroke:#181818;stroke-width:1.0;" width="10" x="1394" y="393.0391"/><rect fill="#FFFFFF" height="28.5234" style="stroke:#181818;stroke-width:1.0;" width="10" x="1394" y="450.0859"/><rect fill="#FFFFFF" height="28.5234" style="stroke:#181818;stroke-width:1.0;" width="10" x="1394" y="507.1328"/><rect fill="#FFFFFF" height="28.5234" style="stroke:#181818;stroke-width:1.0;" width="10" x="1681.5" y="564.1797"/><rect fill="#FFFFFF" height="28.5234" style="stroke:#181818;stroke-width:1.0;" width="10" x="1813" y="678.2734"/><rect fill="none" height="558.4688" style="stroke:#000000;stroke-width:1.5;" width="1167" x="721" y="241.8984"/><line style="stroke:#181818;stroke-width:0.5;stroke-dasharray:5.0,5.0;" x1="36" x2="36" y1="82.2813" y2="902.9375"/><line style="stroke:#181818;stroke-width:0.5;stroke-dasharray:5.0,5.0;" x1="348" x2="348" y1="82.2813" y2="902.9375"/><line style="stroke:#181818;stroke-width:0.5;stroke-dasharray:5.0,5.0;" x1="576" x2="576" y1="82.2813" y2="902.9375"/><line style="stroke:#181818;stroke-width:0.5;stroke-dasharray:5.0,5.0;" x1="804" x2="804" y1="82.2813" y2="902.9375"/><line style="stroke:#181818;stroke-width:0.5;stroke-dasharray:5.0,5.0;" x1="1073" x2="1073" y1="82.2813" y2="902.9375"/><line style="stroke:#181818;stroke-width:0.5;stroke-dasharray:5.0,5.0;" x1="1256" x2="1256" y1="82.2813" y2="902.9375"/><line style="stroke:#181818;stroke-width:0.5;stroke-dasharray:5.0,5.0;" x1="1399" x2="1399" y1="82.2813" y2="902.9375"/><line style="stroke:#181818;stroke-width:0.5;stroke-dasharray:5.0,5.0;" x1="1544" x2="1544" y1="82.2813" y2="902.9375"/><line style="stroke:#181818;stroke-width:0.5;stroke-dasharray:5.0,5.0;" x1="1686" x2="1686" y1="82.2813" y2="902.9375"/><line style="stroke:#181818;stroke-width:0.5;stroke-dasharray:5.0,5.0;" x1="1818" x2="1818" y1="82.2813" y2="902.9375"/><text fill="#000000" font-family="sans-serif" font-size="14" lengthAdjust="spacing" textLength="56" x="5" y="79.3145">Manager</text><ellipse cx="36" cy="15.1406" fill="#E2E2F0" rx="8" ry="8" style="stroke:#181818;stroke-width:0.5;"/><path d="M36,23.1406 L36,50.1406 M23,31.1406 L49,31.1406 M36,50.1406 L23,65.1406 M36,50.1406 L49,65.1406 " fill="none" style="stroke:#181818;stroke-width:0.5;"/><text fill="#000000" font-family="sans-serif" font-size="14" lengthAdjust="spacing" textLength="56" x="5" y="914.6113">Manager</text><ellipse cx="36" cy="926.0781" fill="#E2E2F0" rx="8" ry="8" style="stroke:#181818;stroke-width:0.5;"/><path d="M36,934.0781 L36,961.0781 M23,942.0781 L49,942.0781 M36,961.0781 L23,976.0781 M36,961.0781 L49,976.0781 " fill="none" style="stroke:#181818;stroke-width:0.5;"/><rect fill="#E2E2F0" height="45.2813" rx="2.5" ry="2.5" style="stroke:#181818;stroke-width:0.5;" width="120" x="288" y="36"/><text fill="#000000" font-family="sans-serif" font-size="14" font-style="italic" lengthAdjust="spacing" textLength="95" x="300.5" y="55.6738">«presentation»</text><text fill="#000000" font-family="sans-serif" font-size="14" lengthAdjust="spacing" textLength="106" x="295" y="71.3145">BulkEnrollmentUI</text><rect fill="#E2E2F0" height="45.2813" rx="2.5" ry="2.5" style="stroke:#181818;stroke-width:0.5;" width="120" x="288" y="901.9375"/><text fill="#000000" font-family="sans-serif" font-size="14" font-style="italic" lengthAdjust="spacing" textLength="95" x="300.5" y="921.6113">«presentation»</text><text fill="#000000" font-family="sans-serif" font-size="14" lengthAdjust="spacing" textLength="106" x="295" y="937.252">BulkEnrollmentUI</text><rect fill="#E2E2F0" height="45.2813" rx="2.5" ry="2.5" style="stroke:#181818;stroke-width:0.5;" width="192" x="480" y="36"/><text fill="#000000" font-family="sans-serif" font-size="14" font-style="italic" lengthAdjust="spacing" textLength="84" x="534" y="55.6738">«application»</text><text fill="#000000" font-family="sans-serif" font-size="14" lengthAdjust="spacing" textLength="178" x="487" y="71.3145">StudentEnrollmentController</text><rect fill="#E2E2F0" height="45.2813" rx="2.5" ry="2.5" style="stroke:#181818;stroke-width:0.5;" width="192" x="480" y="901.9375"/><text fill="#000000" font-family="sans-serif" font-size="14" font-style="italic" lengthAdjust="spacing" textLength="84" x="534" y="921.6113">«application»</text><text fill="#000000" font-family="sans-serif" font-size="14" lengthAdjust="spacing" textLength="178" x="487" y="937.252">StudentEnrollmentController</text><rect fill="#E2E2F0" height="45.2813" rx="2.5" ry="2.5" style="stroke:#181818;stroke-width:0.5;" width="146" x="731" y="36"/><text fill="#000000" font-family="sans-serif" font-size="14" font-style="italic" lengthAdjust="spacing" textLength="60" x="774" y="55.6738">«service»</text><text fill="#000000" font-family="sans-serif" font-size="14" lengthAdjust="spacing" textLength="132" x="738" y="71.3145">ReadCSVFileService</text><rect fill="#E2E2F0" height="45.2813" rx="2.5" ry="2.5" style="stroke:#181818;stroke-width:0.5;" width="146" x="731" y="901.9375"/><text fill="#000000" font-family="sans-serif" font-size="14" font-style="italic" lengthAdjust="spacing" textLength="60" x="774" y="921.6113">«service»</text><text fill="#000000" font-family="sans-serif" font-size="14" lengthAdjust="spacing" textLength="132" x="738" y="937.252">ReadCSVFileService</text><rect fill="#E2E2F0" height="45.2813" rx="2.5" ry="2.5" style="stroke:#181818;stroke-width:0.5;" width="210" x="968" y="36"/><text fill="#000000" font-family="sans-serif" font-size="14" font-style="italic" lengthAdjust="spacing" textLength="60" x="1043" y="55.6738">«service»</text><text fill="#000000" font-family="sans-serif" font-size="14" lengthAdjust="spacing" textLength="196" x="975" y="71.3145">EnrollmentManagementService</text><rect fill="#E2E2F0" height="45.2813" rx="2.5" ry="2.5" style="stroke:#181818;stroke-width:0.5;" width="210" x="968" y="901.9375"/><text fill="#000000" font-family="sans-serif" font-size="14" font-style="italic" lengthAdjust="spacing" textLength="60" x="1043" y="921.6113">«service»</text><text fill="#000000" font-family="sans-serif" font-size="14" lengthAdjust="spacing" textLength="196" x="975" y="937.252">EnrollmentManagementService</text><rect fill="#E2E2F0" height="45.2813" rx="2.5" ry="2.5" style="stroke:#181818;stroke-width:0.5;" width="136" x="1188" y="36"/><text fill="#000000" font-family="sans-serif" font-size="14" font-style="italic" lengthAdjust="spacing" textLength="89" x="1211.5" y="55.6738">«persistence»</text><text fill="#000000" font-family="sans-serif" font-size="14" lengthAdjust="spacing" textLength="122" x="1195" y="71.3145">PersistenceContext</text><rect fill="#E2E2F0" height="45.2813" rx="2.5" ry="2.5" style="stroke:#181818;stroke-width:0.5;" width="136" x="1188" y="901.9375"/><text fill="#000000" font-family="sans-serif" font-size="14" font-style="italic" lengthAdjust="spacing" textLength="89" x="1211.5" y="921.6113">«persistence»</text><text fill="#000000" font-family="sans-serif" font-size="14" lengthAdjust="spacing" textLength="122" x="1195" y="937.252">PersistenceContext</text><rect fill="#E2E2F0" height="45.2813" rx="2.5" ry="2.5" style="stroke:#181818;stroke-width:0.5;" width="130" x="1334" y="36"/><text fill="#000000" font-family="sans-serif" font-size="14" font-style="italic" lengthAdjust="spacing" textLength="59" x="1369.5" y="55.6738">«factory»</text><text fill="#000000" font-family="sans-serif" font-size="14" lengthAdjust="spacing" textLength="116" x="1341" y="71.3145">RepositoryFactory</text><rect fill="#E2E2F0" height="45.2813" rx="2.5" ry="2.5" style="stroke:#181818;stroke-width:0.5;" width="130" x="1334" y="901.9375"/><text fill="#000000" font-family="sans-serif" font-size="14" font-style="italic" lengthAdjust="spacing" textLength="59" x="1369.5" y="921.6113">«factory»</text><text fill="#000000" font-family="sans-serif" font-size="14" lengthAdjust="spacing" textLength="116" x="1341" y="937.252">RepositoryFactory</text><text fill="#000000" font-family="sans-serif" font-size="14" font-style="italic" lengthAdjust="spacing" textLength="79" x="1502" y="63.6738">«repository»</text><text fill="#000000" font-family="sans-serif" font-size="14" lengthAdjust="spacing" textLength="135" x="1474" y="79.3145">EnrollmentRepository</text><path d="M1526.5,15 C1526.5,5 1544.5,5 1544.5,5 C1544.5,5 1562.5,5 1562.5,15 L1562.5,41 C1562.5,51 1544.5,51 1544.5,51 C1544.5,51 1526.5,51 1526.5,41 L1526.5,15 " fill="#E2E2F0" style="stroke:#181818;stroke-width:1.5;"/><path d="M1526.5,15 C1526.5,25 1544.5,25 1544.5,25 C1544.5,25 1562.5,25 1562.5,15 " fill="none" style="stroke:#181818;stroke-width:1.5;"/><text fill="#000000" font-family="sans-serif" font-size="14" font-style="italic" lengthAdjust="spacing" textLength="79" x="1502" y="914.6113">«repository»</text><text fill="#000000" font-family="sans-serif" font-size="14" lengthAdjust="spacing" textLength="135" x="1474" y="930.252">EnrollmentRepository</text><path d="M1526.5,943.2188 C1526.5,933.2188 1544.5,933.2188 1544.5,933.2188 C1544.5,933.2188 1562.5,933.2188 1562.5,943.2188 L1562.5,969.2188 C1562.5,979.2188 1544.5,979.2188 1544.5,979.2188 C1544.5,979.2188 1526.5,979.2188 1526.5,969.2188 L1526.5,943.2188 " fill="#E2E2F0" style="stroke:#181818;stroke-width:1.5;"/><path d="M1526.5,943.2188 C1526.5,953.2188 1544.5,953.2188 1544.5,953.2188 C1544.5,953.2188 1562.5,953.2188 1562.5,943.2188 " fill="none" style="stroke:#181818;stroke-width:1.5;"/><text fill="#000000" font-family="sans-serif" font-size="14" font-style="italic" lengthAdjust="spacing" textLength="79" x="1644" y="63.6738">«repository»</text><text fill="#000000" font-family="sans-serif" font-size="14" lengthAdjust="spacing" textLength="117" x="1625" y="79.3145">StudentRepository</text><path d="M1668.5,15 C1668.5,5 1686.5,5 1686.5,5 C1686.5,5 1704.5,5 1704.5,15 L1704.5,41 C1704.5,51 1686.5,51 1686.5,51 C1686.5,51 1668.5,51 1668.5,41 L1668.5,15 " fill="#E2E2F0" style="stroke:#181818;stroke-width:1.5;"/><path d="M1668.5,15 C1668.5,25 1686.5,25 1686.5,25 C1686.5,25 1704.5,25 1704.5,15 " fill="none" style="stroke:#181818;stroke-width:1.5;"/><text fill="#000000" font-family="sans-serif" font-size="14" font-style="italic" lengthAdjust="spacing" textLength="79" x="1644" y="914.6113">«repository»</text><text fill="#000000" font-family="sans-serif" font-size="14" lengthAdjust="spacing" textLength="117" x="1625" y="930.252">StudentRepository</text><path d="M1668.5,943.2188 C1668.5,933.2188 1686.5,933.2188 1686.5,933.2188 C1686.5,933.2188 1704.5,933.2188 1704.5,943.2188 L1704.5,969.2188 C1704.5,979.2188 1686.5,979.2188 1686.5,979.2188 C1686.5,979.2188 1668.5,979.2188 1668.5,969.2188 L1668.5,943.2188 " fill="#E2E2F0" style="stroke:#181818;stroke-width:1.5;"/><path d="M1668.5,943.2188 C1668.5,953.2188 1686.5,953.2188 1686.5,953.2188 C1686.5,953.2188 1704.5,953.2188 1704.5,943.2188 " fill="none" style="stroke:#181818;stroke-width:1.5;"/><text fill="#000000" font-family="sans-serif" font-size="14" font-style="italic" lengthAdjust="spacing" textLength="79" x="1775.5" y="63.6738">«repository»</text><text fill="#000000" font-family="sans-serif" font-size="14" lengthAdjust="spacing" textLength="114" x="1758" y="79.3145">CourseRepository</text><path d="M1800,15 C1800,5 1818,5 1818,5 C1818,5 1836,5 1836,15 L1836,41 C1836,51 1818,51 1818,51 C1818,51 1800,51 1800,41 L1800,15 " fill="#E2E2F0" style="stroke:#181818;stroke-width:1.5;"/><path d="M1800,15 C1800,25 1818,25 1818,25 C1818,25 1836,25 1836,15 " fill="none" style="stroke:#181818;stroke-width:1.5;"/><text fill="#000000" font-family="sans-serif" font-size="14" font-style="italic" lengthAdjust="spacing" textLength="79" x="1775.5" y="914.6113">«repository»</text><text fill="#000000" font-family="sans-serif" font-size="14" lengthAdjust="spacing" textLength="114" x="1758" y="930.252">CourseRepository</text><path d="M1800,943.2188 C1800,933.2188 1818,933.2188 1818,933.2188 C1818,933.2188 1836,933.2188 1836,943.2188 L1836,969.2188 C1836,979.2188 1818,979.2188 1818,979.2188 C1818,979.2188 1800,979.2188 1800,969.2188 L1800,943.2188 " fill="#E2E2F0" style="stroke:#181818;stroke-width:1.5;"/><path d="M1800,943.2188 C1800,953.2188 1818,953.2188 1818,953.2188 C1818,953.2188 1836,953.2188 1836,943.2188 " fill="none" style="stroke:#181818;stroke-width:1.5;"/><rect fill="#FFFFFF" height="801.6563" style="stroke:#181818;stroke-width:1.0;" width="10" x="31" y="92.2813"/><rect fill="#FFFFFF" height="28.5234" style="stroke:#181818;stroke-width:1.0;" width="10" x="343" y="112.8047"/><rect fill="#FFFFFF" height="715.0859" style="stroke:#181818;stroke-width:1.0;" width="10" x="343" y="169.8516"/><rect fill="#FFFFFF" height="658.0391" style="stroke:#181818;stroke-width:1.0;" width="10" x="571" y="198.375"/><rect fill="#FFFFFF" height="600.9922" style="stroke:#181818;stroke-width:1.0;" width="10" x="799" y="226.8984"/><rect fill="#FFFFFF" height="513.4219" style="stroke:#181818;stroke-width:1.0;" width="10" x="1068" y="278.9453"/><rect fill="#FFFFFF" height="57.0469" style="stroke:#181818;stroke-width:1.0;" width="10" x="1251" y="307.4688"/><rect fill="#FFFFFF" height="28.5234" style="stroke:#181818;stroke-width:1.0;" width="10" x="1394" y="393.0391"/><rect fill="#FFFFFF" height="28.5234" style="stroke:#181818;stroke-width:1.0;" width="10" x="1394" y="450.0859"/><rect fill="#FFFFFF" height="28.5234" style="stroke:#181818;stroke-width:1.0;" width="10" x="1394" y="507.1328"/><rect fill="#FFFFFF" height="28.5234" style="stroke:#181818;stroke-width:1.0;" width="10" x="1681.5" y="564.1797"/><rect fill="#FFFFFF" height="28.5234" style="stroke:#181818;stroke-width:1.0;" width="10" x="1813" y="678.2734"/><polygon fill="#181818" points="331,108.8047,341,112.8047,331,116.8047,335,112.8047" style="stroke:#181818;stroke-width:1.0;"/><line style="stroke:#181818;stroke-width:1.0;" x1="41" x2="337" y1="112.8047" y2="112.8047"/><text fill="#000000" font-family="sans-serif" font-size="13" font-weight="bold" lengthAdjust="spacing" textLength="7" x="48" y="108.0498">1</text><text fill="#000000" font-family="sans-serif" font-size="13" lengthAdjust="spacing" textLength="272" x="59" y="108.0498">requests bulk enrollment of students via csv file</text><polygon fill="#181818" points="52,137.3281,42,141.3281,52,145.3281,48,141.3281" style="stroke:#181818;stroke-width:1.0;"/><line style="stroke:#181818;stroke-width:1.0;stroke-dasharray:2.0,2.0;" x1="46" x2="347" y1="141.3281" y2="141.3281"/><text fill="#000000" font-family="sans-serif" font-size="13" font-weight="bold" lengthAdjust="spacing" textLength="7" x="58" y="136.5732">2</text><text fill="#000000" font-family="sans-serif" font-size="13" lengthAdjust="spacing" textLength="99" x="69" y="136.5732">requests file path</text><polygon fill="#181818" points="331,165.8516,341,169.8516,331,173.8516,335,169.8516" style="stroke:#181818;stroke-width:1.0;"/><line style="stroke:#181818;stroke-width:1.0;" x1="41" x2="337" y1="169.8516" y2="169.8516"/><text fill="#000000" font-family="sans-serif" font-size="13" font-weight="bold" lengthAdjust="spacing" textLength="7" x="48" y="165.0967">3</text><text fill="#000000" font-family="sans-serif" font-size="13" lengthAdjust="spacing" textLength="122" x="59" y="165.0967">types requested data</text><polygon fill="#181818" points="559,194.375,569,198.375,559,202.375,563,198.375" style="stroke:#181818;stroke-width:1.0;"/><line style="stroke:#181818;stroke-width:1.0;" x1="353" x2="565" y1="198.375" y2="198.375"/><text fill="#000000" font-family="sans-serif" font-size="13" font-weight="bold" lengthAdjust="spacing" textLength="7" x="360" y="193.6201">4</text><text fill="#000000" font-family="sans-serif" font-size="13" lengthAdjust="spacing" textLength="188" x="371" y="193.6201">bulkEnrollmentInCourse(filePath)</text><polygon fill="#181818" points="787,222.8984,797,226.8984,787,230.8984,791,226.8984" style="stroke:#181818;stroke-width:1.0;"/><line style="stroke:#181818;stroke-width:1.0;" x1="581" x2="793" y1="226.8984" y2="226.8984"/><text fill="#000000" font-family="sans-serif" font-size="13" font-weight="bold" lengthAdjust="spacing" textLength="7" x="588" y="222.1436">5</text><text fill="#000000" font-family="sans-serif" font-size="13" lengthAdjust="spacing" textLength="188" x="599" y="222.1436">bulkEnrollmentInCourse(filePath)</text><path d="M721,241.8984 L794,241.8984 L794,248.4219 L784,258.4219 L721,258.4219 L721,241.8984 " fill="#EEEEEE" style="stroke:#000000;stroke-width:1.5;"/><rect fill="none" height="558.4688" style="stroke:#000000;stroke-width:1.5;" width="1167" x="721" y="241.8984"/><text fill="#000000" font-family="sans-serif" font-size="13" font-weight="bold" lengthAdjust="spacing" textLength="28" x="736" y="254.667">loop</text><text fill="#000000" font-family="sans-serif" font-size="11" font-weight="bold" lengthAdjust="spacing" textLength="111" x="809" y="253.8564">[while has next line]</text><polygon fill="#181818" points="1056,274.9453,1066,278.9453,1056,282.9453,1060,278.9453" style="stroke:#181818;stroke-width:1.0;"/><line style="stroke:#181818;stroke-width:1.0;" x1="809" x2="1062" y1="278.9453" y2="278.9453"/><text fill="#000000" font-family="sans-serif" font-size="13" font-weight="bold" lengthAdjust="spacing" textLength="7" x="816" y="274.1904">6</text><text fill="#000000" font-family="sans-serif" font-size="13" lengthAdjust="spacing" textLength="205" x="827" y="274.1904">getStudentFromMecNum(menNum)</text><polygon fill="#181818" points="1239,303.4688,1249,307.4688,1239,311.4688,1243,307.4688" style="stroke:#181818;stroke-width:1.0;"/><line style="stroke:#181818;stroke-width:1.0;" x1="1078" x2="1245" y1="307.4688" y2="307.4688"/><text fill="#000000" font-family="sans-serif" font-size="13" font-weight="bold" lengthAdjust="spacing" textLength="7" x="1085" y="302.7139">7</text><text fill="#000000" font-family="sans-serif" font-size="13" lengthAdjust="spacing" textLength="109" x="1096" y="302.7139">rep = repositories()</text><polygon fill="#181818" points="1387,331.9922,1397,335.9922,1387,339.9922,1391,335.9922" style="stroke:#181818;stroke-width:1.0;"/><line style="stroke:#181818;stroke-width:1.0;" x1="1261" x2="1393" y1="335.9922" y2="335.9922"/><text fill="#000000" font-family="sans-serif" font-size="13" font-weight="bold" lengthAdjust="spacing" textLength="7" x="1268" y="331.2373">8</text><text fill="#000000" font-family="sans-serif" font-size="13" lengthAdjust="spacing" textLength="36" x="1279" y="331.2373">create</text><polygon fill="#181818" points="1089,360.5156,1079,364.5156,1089,368.5156,1085,364.5156" style="stroke:#181818;stroke-width:1.0;"/><line style="stroke:#181818;stroke-width:1.0;" x1="1083" x2="1255" y1="364.5156" y2="364.5156"/><text fill="#000000" font-family="sans-serif" font-size="13" font-weight="bold" lengthAdjust="spacing" textLength="7" x="1095" y="359.7607">9</text><text fill="#000000" font-family="sans-serif" font-size="13" lengthAdjust="spacing" textLength="18" x="1106" y="359.7607">rep</text><polygon fill="#181818" points="1382,389.0391,1392,393.0391,1382,397.0391,1386,393.0391" style="stroke:#181818;stroke-width:1.0;"/><line style="stroke:#181818;stroke-width:1.0;" x1="1078" x2="1388" y1="393.0391" y2="393.0391"/><text fill="#000000" font-family="sans-serif" font-size="13" font-weight="bold" lengthAdjust="spacing" textLength="14" x="1085" y="388.2842">10</text><text fill="#000000" font-family="sans-serif" font-size="13" lengthAdjust="spacing" textLength="229" x="1103" y="388.2842">enrollRepo = rep.enrollmentRepository()</text><polygon fill="#181818" points="1089,417.5625,1079,421.5625,1089,425.5625,1085,421.5625" style="stroke:#181818;stroke-width:1.0;"/><line style="stroke:#181818;stroke-width:1.0;stroke-dasharray:2.0,2.0;" x1="1083" x2="1398" y1="421.5625" y2="421.5625"/><text fill="#000000" font-family="sans-serif" font-size="13" font-weight="bold" lengthAdjust="spacing" textLength="14" x="1095" y="416.8076">11</text><text fill="#000000" font-family="sans-serif" font-size="13" lengthAdjust="spacing" textLength="61" x="1113" y="416.8076">enrollRepo</text><polygon fill="#181818" points="1382,446.0859,1392,450.0859,1382,454.0859,1386,450.0859" style="stroke:#181818;stroke-width:1.0;"/><line style="stroke:#181818;stroke-width:1.0;" x1="1078" x2="1388" y1="450.0859" y2="450.0859"/><text fill="#000000" font-family="sans-serif" font-size="13" font-weight="bold" lengthAdjust="spacing" textLength="14" x="1085" y="445.3311">12</text><text fill="#000000" font-family="sans-serif" font-size="13" lengthAdjust="spacing" textLength="216" x="1103" y="445.3311">courseRepo = rep.courseRepository()</text><polygon fill="#181818" points="1089,474.6094,1079,478.6094,1089,482.6094,1085,478.6094" style="stroke:#181818;stroke-width:1.0;"/><line style="stroke:#181818;stroke-width:1.0;stroke-dasharray:2.0,2.0;" x1="1083" x2="1398" y1="478.6094" y2="478.6094"/><text fill="#000000" font-family="sans-serif" font-size="13" font-weight="bold" lengthAdjust="spacing" textLength="14" x="1095" y="473.8545">13</text><text fill="#000000" font-family="sans-serif" font-size="13" lengthAdjust="spacing" textLength="69" x="1113" y="473.8545">courseRepo</text><polygon fill="#181818" points="1382,503.1328,1392,507.1328,1382,511.1328,1386,507.1328" style="stroke:#181818;stroke-width:1.0;"/><line style="stroke:#181818;stroke-width:1.0;" x1="1078" x2="1388" y1="507.1328" y2="507.1328"/><text fill="#000000" font-family="sans-serif" font-size="13" font-weight="bold" lengthAdjust="spacing" textLength="14" x="1085" y="502.3779">14</text><text fill="#000000" font-family="sans-serif" font-size="13" lengthAdjust="spacing" textLength="224" x="1103" y="502.3779">studentRepo = rep.studentRepository()</text><polygon fill="#181818" points="1089,531.6563,1079,535.6563,1089,539.6563,1085,535.6563" style="stroke:#181818;stroke-width:1.0;"/><line style="stroke:#181818;stroke-width:1.0;stroke-dasharray:2.0,2.0;" x1="1083" x2="1398" y1="535.6563" y2="535.6563"/><text fill="#000000" font-family="sans-serif" font-size="13" font-weight="bold" lengthAdjust="spacing" textLength="14" x="1095" y="530.9014">15</text><text fill="#000000" font-family="sans-serif" font-size="13" lengthAdjust="spacing" textLength="73" x="1113" y="530.9014">studentRepo</text><polygon fill="#181818" points="1669.5,560.1797,1679.5,564.1797,1669.5,568.1797,1673.5,564.1797" style="stroke:#181818;stroke-width:1.0;"/><line style="stroke:#181818;stroke-width:1.0;" x1="1078" x2="1675.5" y1="564.1797" y2="564.1797"/><text fill="#000000" font-family="sans-serif" font-size="13" font-weight="bold" lengthAdjust="spacing" textLength="14" x="1085" y="559.4248">16</text><text fill="#000000" font-family="sans-serif" font-size="13" lengthAdjust="spacing" textLength="223" x="1103" y="559.4248">getStudentFromMecNumber(mecNum)</text><polygon fill="#181818" points="1089,588.7031,1079,592.7031,1089,596.7031,1085,592.7031" style="stroke:#181818;stroke-width:1.0;"/><line style="stroke:#181818;stroke-width:1.0;stroke-dasharray:2.0,2.0;" x1="1083" x2="1685.5" y1="592.7031" y2="592.7031"/><text fill="#000000" font-family="sans-serif" font-size="13" font-weight="bold" lengthAdjust="spacing" textLength="14" x="1095" y="587.9482">17</text><text fill="#000000" font-family="sans-serif" font-size="13" lengthAdjust="spacing" textLength="43" x="1113" y="587.9482">student</text><polygon fill="#181818" points="820,617.2266,810,621.2266,820,625.2266,816,621.2266" style="stroke:#181818;stroke-width:1.0;"/><line style="stroke:#181818;stroke-width:1.0;stroke-dasharray:2.0,2.0;" x1="814" x2="1067" y1="621.2266" y2="621.2266"/><text fill="#000000" font-family="sans-serif" font-size="13" font-weight="bold" lengthAdjust="spacing" textLength="14" x="826" y="616.4717">18</text><text fill="#000000" font-family="sans-serif" font-size="13" lengthAdjust="spacing" textLength="43" x="844" y="616.4717">student</text><polygon fill="#181818" points="1056,645.75,1066,649.75,1056,653.75,1060,649.75" style="stroke:#181818;stroke-width:1.0;"/><line style="stroke:#181818;stroke-width:1.0;" x1="809" x2="1062" y1="649.75" y2="649.75"/><text fill="#000000" font-family="sans-serif" font-size="13" font-weight="bold" lengthAdjust="spacing" textLength="14" x="816" y="644.9951">19</text><text fill="#000000" font-family="sans-serif" font-size="13" lengthAdjust="spacing" textLength="203" x="834" y="644.9951">getCourseFromCourseID(CourseID)</text><polygon fill="#181818" points="1801,674.2734,1811,678.2734,1801,682.2734,1805,678.2734" style="stroke:#181818;stroke-width:1.0;"/><line style="stroke:#181818;stroke-width:1.0;" x1="1078" x2="1807" y1="678.2734" y2="678.2734"/><text fill="#000000" font-family="sans-serif" font-size="13" font-weight="bold" lengthAdjust="spacing" textLength="14" x="1085" y="673.5186">20</text><text fill="#000000" font-family="sans-serif" font-size="13" lengthAdjust="spacing" textLength="203" x="1103" y="673.5186">getCourseFromCourseID(CourseID)</text><polygon fill="#181818" points="1089,702.7969,1079,706.7969,1089,710.7969,1085,706.7969" style="stroke:#181818;stroke-width:1.0;"/><line style="stroke:#181818;stroke-width:1.0;stroke-dasharray:2.0,2.0;" x1="1083" x2="1817" y1="706.7969" y2="706.7969"/><text fill="#000000" font-family="sans-serif" font-size="13" font-weight="bold" lengthAdjust="spacing" textLength="14" x="1095" y="702.042">21</text><text fill="#000000" font-family="sans-serif" font-size="13" lengthAdjust="spacing" textLength="39" x="1113" y="702.042">course</text><polygon fill="#181818" points="820,731.3203,810,735.3203,820,739.3203,816,735.3203" style="stroke:#181818;stroke-width:1.0;"/><line style="stroke:#181818;stroke-width:1.0;stroke-dasharray:2.0,2.0;" x1="814" x2="1067" y1="735.3203" y2="735.3203"/><text fill="#000000" font-family="sans-serif" font-size="13" font-weight="bold" lengthAdjust="spacing" textLength="14" x="826" y="730.5654">22</text><text fill="#000000" font-family="sans-serif" font-size="13" lengthAdjust="spacing" textLength="39" x="844" y="730.5654">course</text><polygon fill="#181818" points="1056,759.8438,1066,763.8438,1056,767.8438,1060,763.8438" style="stroke:#181818;stroke-width:1.0;"/><line style="stroke:#181818;stroke-width:1.0;" x1="809" x2="1062" y1="763.8438" y2="763.8438"/><text fill="#000000" font-family="sans-serif" font-size="13" font-weight="bold" lengthAdjust="spacing" textLength="14" x="816" y="759.0889">23</text><text fill="#000000" font-family="sans-serif" font-size="13" lengthAdjust="spacing" textLength="217" x="834" y="759.0889">saveEnrollment(student.email,course)</text><polygon fill="#181818" points="1532.5,788.3672,1542.5,792.3672,1532.5,796.3672,1536.5,792.3672" style="stroke:#181818;stroke-width:1.0;"/><line style="stroke:#181818;stroke-width:1.0;" x1="1073" x2="1538.5" y1="792.3672" y2="792.3672"/><text fill="#000000" font-family="sans-serif" font-size="13" font-weight="bold" lengthAdjust="spacing" textLength="14" x="1080" y="787.6123">24</text><text fill="#000000" font-family="sans-serif" font-size="13" lengthAdjust="spacing" textLength="221" x="1098" y="787.6123">saveEnrollment(student.email, course)</text><polygon fill="#181818" points="592,823.8906,582,827.8906,592,831.8906,588,827.8906" style="stroke:#181818;stroke-width:1.0;"/><line style="stroke:#181818;stroke-width:1.0;stroke-dasharray:2.0,2.0;" x1="586" x2="803" y1="827.8906" y2="827.8906"/><text fill="#000000" font-family="sans-serif" font-size="13" font-weight="bold" lengthAdjust="spacing" textLength="14" x="598" y="823.1357">25</text><text fill="#000000" font-family="sans-serif" font-size="13" lengthAdjust="spacing" textLength="106" x="616" y="823.1357">operation success</text><polygon fill="#181818" points="364,852.4141,354,856.4141,364,860.4141,360,856.4141" style="stroke:#181818;stroke-width:1.0;"/><line style="stroke:#181818;stroke-width:1.0;stroke-dasharray:2.0,2.0;" x1="358" x2="575" y1="856.4141" y2="856.4141"/><text fill="#000000" font-family="sans-serif" font-size="13" font-weight="bold" lengthAdjust="spacing" textLength="14" x="370" y="851.6592">26</text><text fill="#000000" font-family="sans-serif" font-size="13" lengthAdjust="spacing" textLength="106" x="388" y="851.6592">operation success</text><polygon fill="#181818" points="52,880.9375,42,884.9375,52,888.9375,48,884.9375" style="stroke:#181818;stroke-width:1.0;"/><line style="stroke:#181818;stroke-width:1.0;stroke-dasharray:2.0,2.0;" x1="46" x2="347" y1="884.9375" y2="884.9375"/><text fill="#000000" font-family="sans-serif" font-size="13" font-weight="bold" lengthAdjust="spacing" textLength="14" x="58" y="880.1826">27</text><text fill="#000000" font-family="sans-serif" font-size="13" lengthAdjust="spacing" textLength="140" x="76" y="880.1826">show operation success</text><!--MD5=[936daf0fa046022cf7230a9da383f85e]
@startuml
'https://plantuml.com/sequence-diagram

autonumber

actor "Manager" as man
participant "BulkEnrollmentUI" as ui <<presentation>>
participant "StudentEnrollmentController" as ctrl <<application>>
participant "ReadCSVFileService" as readCsv <<service>>
participant "EnrollmentManagementService" as enrollService <<service>>
participant "PersistenceContext" as pc <<persistence>>
participant "RepositoryFactory" as repFac <<factory>>
database "EnrollmentRepository" as enrollRepo <<repository>>
database "StudentRepository" as stdRepo <<repository>>
database "CourseRepository" as courseRepo <<repository>>

activate man
man->ui: requests bulk enrollment of students via csv file
activate ui
ui- -> man :requests file path
deactivate ui
man->ui: types requested data
activate ui
ui->ctrl: bulkEnrollmentInCourse(filePath)
activate ctrl
ctrl->readCsv: bulkEnrollmentInCourse(filePath)
loop while has next line
    activate readCsv
    readCsv->enrollService: getStudentFromMecNum(menNum)
    activate enrollService
    enrollService->pc: rep = repositories()
    activate pc
    pc->repFac: create
    pc->enrollService: rep
    deactivate pc
    enrollService->repFac: enrollRepo = rep.enrollmentRepository()
    activate repFac
    repFac- ->enrollService: enrollRepo
    deactivate repFac

    enrollService->repFac: courseRepo = rep.courseRepository()
    activate repFac
    repFac- ->enrollService: courseRepo
    deactivate repFac

    enrollService->repFac: studentRepo = rep.studentRepository()
    activate repFac
    repFac- ->enrollService: studentRepo
    deactivate repFac
    enrollService->stdRepo: getStudentFromMecNumber(mecNum)
    activate stdRepo
    stdRepo - -> enrollService: student
    deactivate stdRepo
    enrollService- ->readCsv: student
    readCsv->enrollService: getCourseFromCourseID(CourseID)
    enrollService->courseRepo: getCourseFromCourseID(CourseID)
    activate courseRepo
    courseRepo - -> enrollService: course
    deactivate courseRepo
    enrollService - -> readCsv: course
    readCsv -> enrollService : saveEnrollment(student.email,course)
    enrollService->enrollRepo: saveEnrollment(student.email, course)
    deactivate enrollService
    end
readCsv- ->ctrl: operation success
deactivate readCsv
ctrl- ->ui: operation success
deactivate ctrl
ui- ->man: show operation success
deactivate ui
@enduml

@startuml

autonumber

actor "Manager" as man
participant "BulkEnrollmentUI" as ui <<presentation>>
participant "StudentEnrollmentController" as ctrl <<application>>
participant "ReadCSVFileService" as readCsv <<service>>
participant "EnrollmentManagementService" as enrollService <<service>>
participant "PersistenceContext" as pc <<persistence>>
participant "RepositoryFactory" as repFac <<factory>>
database "EnrollmentRepository" as enrollRepo <<repository>>
database "StudentRepository" as stdRepo <<repository>>
database "CourseRepository" as courseRepo <<repository>>

activate man
man->ui: requests bulk enrollment of students via csv file
activate ui
ui- -> man :requests file path
deactivate ui
man->ui: types requested data
activate ui
ui->ctrl: bulkEnrollmentInCourse(filePath)
activate ctrl
ctrl->readCsv: bulkEnrollmentInCourse(filePath)
loop while has next line
    activate readCsv
    readCsv->enrollService: getStudentFromMecNum(menNum)
    activate enrollService
    enrollService->pc: rep = repositories()
    activate pc
    pc->repFac: create
    pc->enrollService: rep
    deactivate pc
    enrollService->repFac: enrollRepo = rep.enrollmentRepository()
    activate repFac
    repFac- ->enrollService: enrollRepo
    deactivate repFac

    enrollService->repFac: courseRepo = rep.courseRepository()
    activate repFac
    repFac- ->enrollService: courseRepo
    deactivate repFac

    enrollService->repFac: studentRepo = rep.studentRepository()
    activate repFac
    repFac- ->enrollService: studentRepo
    deactivate repFac
    enrollService->stdRepo: getStudentFromMecNumber(mecNum)
    activate stdRepo
    stdRepo - -> enrollService: student
    deactivate stdRepo
    enrollService- ->readCsv: student
    readCsv->enrollService: getCourseFromCourseID(CourseID)
    enrollService->courseRepo: getCourseFromCourseID(CourseID)
    activate courseRepo
    courseRepo - -> enrollService: course
    deactivate courseRepo
    enrollService - -> readCsv: course
    readCsv -> enrollService : saveEnrollment(student.email,course)
    enrollService->enrollRepo: saveEnrollment(student.email, course)
    deactivate enrollService
    end
readCsv- ->ctrl: operation success
deactivate readCsv
ctrl- ->ui: operation success
deactivate ctrl
ui- ->man: show operation success
deactivate ui
@enduml

PlantUML version 1.2022.12(Sun Oct 23 19:12:26 WEST 2022)
(GPL source distribution)
Java Runtime: OpenJDK Runtime Environment
JVM: OpenJDK 64-Bit Server VM
Default Encoding: Cp1252
Language: pt
Country: PT
--></g></svg>