<?xml version="1.0" encoding="us-ascii" standalone="no"?><svg xmlns="http://www.w3.org/2000/svg" xmlns:xlink="http://www.w3.org/1999/xlink" contentStyleType="text/css" height="770px" preserveAspectRatio="none" style="width:379px;height:770px;background:#FFFFFF;" version="1.1" viewBox="0 0 379 770" width="379px" zoomAndPan="magnify"><defs/><g><!--class ListMeetingParticipantsUI--><g id="elem_ListMeetingParticipantsUI"><rect codeLine="12" fill="#F1F1F1" height="66.6211" id="ListMeetingParticipantsUI" rx="2.5" ry="2.5" style="stroke:#181818;stroke-width:0.5;" width="190" x="96.5" y="7"/><ellipse cx="111.5" cy="23" fill="#ADD1B2" rx="11" ry="11" style="stroke:#181818;stroke-width:1.0;"/><path d="M114.2656,18.875 Q114.4219,18.6563 114.6094,18.5469 Q114.7969,18.4375 115.0156,18.4375 Q115.3906,18.4375 115.625,18.7031 Q115.8594,18.9531 115.8594,19.5625 L115.8594,21.0156 Q115.8594,21.625 115.625,21.8906 Q115.3906,22.1563 115.0156,22.1563 Q114.6719,22.1563 114.4688,21.9531 Q114.2656,21.7656 114.1563,21.25 Q114.1094,20.8906 113.9219,20.7031 Q113.5938,20.3281 112.9844,20.1094 Q112.375,19.8906 111.75,19.8906 Q110.9844,19.8906 110.3438,20.2188 Q109.7188,20.5469 109.2188,21.2969 Q108.7344,22.0469 108.7344,23.0781 L108.7344,24.1719 Q108.7344,25.4063 109.625,26.2344 Q110.5156,27.0469 112.1094,27.0469 Q113.0469,27.0469 113.7031,26.7969 Q114.0938,26.6406 114.5156,26.2031 Q114.7813,25.9375 114.9219,25.8594 Q115.0781,25.7813 115.2813,25.7813 Q115.6094,25.7813 115.8594,26.0469 Q116.125,26.2969 116.125,26.6406 Q116.125,26.9844 115.7813,27.3906 Q115.2813,27.9688 114.4844,28.2969 Q113.4063,28.75 112.1094,28.75 Q110.5938,28.75 109.3906,28.125 Q108.4063,27.625 107.7188,26.5625 Q107.0313,25.4844 107.0313,24.2031 L107.0313,23.0469 Q107.0313,21.7188 107.6406,20.5781 Q108.2656,19.4219 109.3594,18.8125 Q110.4531,18.1875 111.6875,18.1875 Q112.4219,18.1875 113.0625,18.3594 Q113.7188,18.5156 114.2656,18.875 Z " fill="#000000"/><text fill="#000000" font-family="sans-serif" font-size="14" lengthAdjust="spacing" textLength="158" x="125.5" y="28.7969">ListMeetingParticipantsUI</text><line style="stroke:#181818;stroke-width:0.5;" x1="97.5" x2="285.5" y1="39" y2="39"/><line style="stroke:#181818;stroke-width:0.5;" x1="97.5" x2="285.5" y1="47" y2="47"/><ellipse cx="107.5" cy="61.8105" fill="#84BE84" rx="3" ry="3" style="stroke:#038048;stroke-width:1.0;"/><text fill="#000000" font-family="sans-serif" font-size="14" lengthAdjust="spacing" textLength="60" x="116.5" y="66.1074">doShow()</text></g><!--class ListMeetingParticipantsController--><g id="elem_ListMeetingParticipantsController"><rect codeLine="16" fill="#F1F1F1" height="66.6211" id="ListMeetingParticipantsController" rx="2.5" ry="2.5" style="stroke:#181818;stroke-width:0.5;" width="240" x="71.5" y="134"/><ellipse cx="86.5" cy="150" fill="#ADD1B2" rx="11" ry="11" style="stroke:#181818;stroke-width:1.0;"/><path d="M89.2656,145.875 Q89.4219,145.6563 89.6094,145.5469 Q89.7969,145.4375 90.0156,145.4375 Q90.3906,145.4375 90.625,145.7031 Q90.8594,145.9531 90.8594,146.5625 L90.8594,148.0156 Q90.8594,148.625 90.625,148.8906 Q90.3906,149.1563 90.0156,149.1563 Q89.6719,149.1563 89.4688,148.9531 Q89.2656,148.7656 89.1563,148.25 Q89.1094,147.8906 88.9219,147.7031 Q88.5938,147.3281 87.9844,147.1094 Q87.375,146.8906 86.75,146.8906 Q85.9844,146.8906 85.3438,147.2188 Q84.7188,147.5469 84.2188,148.2969 Q83.7344,149.0469 83.7344,150.0781 L83.7344,151.1719 Q83.7344,152.4063 84.625,153.2344 Q85.5156,154.0469 87.1094,154.0469 Q88.0469,154.0469 88.7031,153.7969 Q89.0938,153.6406 89.5156,153.2031 Q89.7813,152.9375 89.9219,152.8594 Q90.0781,152.7813 90.2813,152.7813 Q90.6094,152.7813 90.8594,153.0469 Q91.125,153.2969 91.125,153.6406 Q91.125,153.9844 90.7813,154.3906 Q90.2813,154.9688 89.4844,155.2969 Q88.4063,155.75 87.1094,155.75 Q85.5938,155.75 84.3906,155.125 Q83.4063,154.625 82.7188,153.5625 Q82.0313,152.4844 82.0313,151.2031 L82.0313,150.0469 Q82.0313,148.7188 82.6406,147.5781 Q83.2656,146.4219 84.3594,145.8125 Q85.4531,145.1875 86.6875,145.1875 Q87.4219,145.1875 88.0625,145.3594 Q88.7188,145.5156 89.2656,145.875 Z " fill="#000000"/><text fill="#000000" font-family="sans-serif" font-size="14" lengthAdjust="spacing" textLength="208" x="100.5" y="155.7969">ListMeetingParticipantsController</text><line style="stroke:#181818;stroke-width:0.5;" x1="72.5" x2="310.5" y1="166" y2="166"/><line style="stroke:#181818;stroke-width:0.5;" x1="72.5" x2="310.5" y1="174" y2="174"/><ellipse cx="82.5" cy="188.8105" fill="#84BE84" rx="3" ry="3" style="stroke:#038048;stroke-width:1.0;"/><text fill="#000000" font-family="sans-serif" font-size="14" lengthAdjust="spacing" textLength="95" x="91.5" y="193.1074">userMeetings()</text></g><!--class MeetingManagementService--><g id="elem_MeetingManagementService"><rect codeLine="20" fill="#F1F1F1" height="85.2422" id="MeetingManagementService" rx="2.5" ry="2.5" style="stroke:#181818;stroke-width:0.5;" width="211" x="7" y="261"/><ellipse cx="22" cy="277" fill="#ADD1B2" rx="11" ry="11" style="stroke:#181818;stroke-width:1.0;"/><path d="M24.7656,272.875 Q24.9219,272.6563 25.1094,272.5469 Q25.2969,272.4375 25.5156,272.4375 Q25.8906,272.4375 26.125,272.7031 Q26.3594,272.9531 26.3594,273.5625 L26.3594,275.0156 Q26.3594,275.625 26.125,275.8906 Q25.8906,276.1563 25.5156,276.1563 Q25.1719,276.1563 24.9688,275.9531 Q24.7656,275.7656 24.6563,275.25 Q24.6094,274.8906 24.4219,274.7031 Q24.0938,274.3281 23.4844,274.1094 Q22.875,273.8906 22.25,273.8906 Q21.4844,273.8906 20.8438,274.2188 Q20.2188,274.5469 19.7188,275.2969 Q19.2344,276.0469 19.2344,277.0781 L19.2344,278.1719 Q19.2344,279.4063 20.125,280.2344 Q21.0156,281.0469 22.6094,281.0469 Q23.5469,281.0469 24.2031,280.7969 Q24.5938,280.6406 25.0156,280.2031 Q25.2813,279.9375 25.4219,279.8594 Q25.5781,279.7813 25.7813,279.7813 Q26.1094,279.7813 26.3594,280.0469 Q26.625,280.2969 26.625,280.6406 Q26.625,280.9844 26.2813,281.3906 Q25.7813,281.9688 24.9844,282.2969 Q23.9063,282.75 22.6094,282.75 Q21.0938,282.75 19.8906,282.125 Q18.9063,281.625 18.2188,280.5625 Q17.5313,279.4844 17.5313,278.2031 L17.5313,277.0469 Q17.5313,275.7188 18.1406,274.5781 Q18.7656,273.4219 19.8594,272.8125 Q20.9531,272.1875 22.1875,272.1875 Q22.9219,272.1875 23.5625,272.3594 Q24.2188,272.5156 24.7656,272.875 Z " fill="#000000"/><text fill="#000000" font-family="sans-serif" font-size="14" lengthAdjust="spacing" textLength="179" x="36" y="282.7969">MeetingManagementService</text><line style="stroke:#181818;stroke-width:0.5;" x1="8" x2="217" y1="293" y2="293"/><line style="stroke:#181818;stroke-width:0.5;" x1="8" x2="217" y1="301" y2="301"/><ellipse cx="18" cy="315.8105" fill="#84BE84" rx="3" ry="3" style="stroke:#038048;stroke-width:1.0;"/><text fill="#000000" font-family="sans-serif" font-size="14" lengthAdjust="spacing" textLength="124" x="27" y="320.1074">findOwnerMeeting()</text><ellipse cx="18" cy="334.4316" fill="#84BE84" rx="3" ry="3" style="stroke:#038048;stroke-width:1.0;"/><text fill="#000000" font-family="sans-serif" font-size="14" lengthAdjust="spacing" textLength="123" x="27" y="338.7285">meetingOwnerList()</text></g><!--class PersistenceContext--><g id="elem_PersistenceContext"><rect codeLine="25" fill="#F1F1F1" height="66.6211" id="PersistenceContext" rx="2.5" ry="2.5" style="stroke:#181818;stroke-width:0.5;" width="154" x="114.5" y="406"/><ellipse cx="129.5" cy="422" fill="#ADD1B2" rx="11" ry="11" style="stroke:#181818;stroke-width:1.0;"/><path d="M132.2656,417.875 Q132.4219,417.6563 132.6094,417.5469 Q132.7969,417.4375 133.0156,417.4375 Q133.3906,417.4375 133.625,417.7031 Q133.8594,417.9531 133.8594,418.5625 L133.8594,420.0156 Q133.8594,420.625 133.625,420.8906 Q133.3906,421.1563 133.0156,421.1563 Q132.6719,421.1563 132.4688,420.9531 Q132.2656,420.7656 132.1563,420.25 Q132.1094,419.8906 131.9219,419.7031 Q131.5938,419.3281 130.9844,419.1094 Q130.375,418.8906 129.75,418.8906 Q128.9844,418.8906 128.3438,419.2188 Q127.7188,419.5469 127.2188,420.2969 Q126.7344,421.0469 126.7344,422.0781 L126.7344,423.1719 Q126.7344,424.4063 127.625,425.2344 Q128.5156,426.0469 130.1094,426.0469 Q131.0469,426.0469 131.7031,425.7969 Q132.0938,425.6406 132.5156,425.2031 Q132.7813,424.9375 132.9219,424.8594 Q133.0781,424.7813 133.2813,424.7813 Q133.6094,424.7813 133.8594,425.0469 Q134.125,425.2969 134.125,425.6406 Q134.125,425.9844 133.7813,426.3906 Q133.2813,426.9688 132.4844,427.2969 Q131.4063,427.75 130.1094,427.75 Q128.5938,427.75 127.3906,427.125 Q126.4063,426.625 125.7188,425.5625 Q125.0313,424.4844 125.0313,423.2031 L125.0313,422.0469 Q125.0313,420.7188 125.6406,419.5781 Q126.2656,418.4219 127.3594,417.8125 Q128.4531,417.1875 129.6875,417.1875 Q130.4219,417.1875 131.0625,417.3594 Q131.7188,417.5156 132.2656,417.875 Z " fill="#000000"/><text fill="#000000" font-family="sans-serif" font-size="14" lengthAdjust="spacing" textLength="122" x="143.5" y="427.7969">PersistenceContext</text><line style="stroke:#181818;stroke-width:0.5;" x1="115.5" x2="267.5" y1="438" y2="438"/><line style="stroke:#181818;stroke-width:0.5;" x1="115.5" x2="267.5" y1="446" y2="446"/><ellipse cx="125.5" cy="460.8105" fill="#84BE84" rx="3" ry="3" style="stroke:#038048;stroke-width:1.0;"/><text fill="#000000" font-family="sans-serif" font-size="14" lengthAdjust="spacing" textLength="84" x="134.5" y="465.1074">repositories()</text></g><!--class RepositoryFactory--><g id="elem_RepositoryFactory"><rect codeLine="29" fill="#F1F1F1" height="66.6211" id="RepositoryFactory" rx="2.5" ry="2.5" style="stroke:#181818;stroke-width:0.5;" width="148" x="117.5" y="533"/><ellipse cx="132.5" cy="549" fill="#ADD1B2" rx="11" ry="11" style="stroke:#181818;stroke-width:1.0;"/><path d="M135.2656,544.875 Q135.4219,544.6563 135.6094,544.5469 Q135.7969,544.4375 136.0156,544.4375 Q136.3906,544.4375 136.625,544.7031 Q136.8594,544.9531 136.8594,545.5625 L136.8594,547.0156 Q136.8594,547.625 136.625,547.8906 Q136.3906,548.1563 136.0156,548.1563 Q135.6719,548.1563 135.4688,547.9531 Q135.2656,547.7656 135.1563,547.25 Q135.1094,546.8906 134.9219,546.7031 Q134.5938,546.3281 133.9844,546.1094 Q133.375,545.8906 132.75,545.8906 Q131.9844,545.8906 131.3438,546.2188 Q130.7188,546.5469 130.2188,547.2969 Q129.7344,548.0469 129.7344,549.0781 L129.7344,550.1719 Q129.7344,551.4063 130.625,552.2344 Q131.5156,553.0469 133.1094,553.0469 Q134.0469,553.0469 134.7031,552.7969 Q135.0938,552.6406 135.5156,552.2031 Q135.7813,551.9375 135.9219,551.8594 Q136.0781,551.7813 136.2813,551.7813 Q136.6094,551.7813 136.8594,552.0469 Q137.125,552.2969 137.125,552.6406 Q137.125,552.9844 136.7813,553.3906 Q136.2813,553.9688 135.4844,554.2969 Q134.4063,554.75 133.1094,554.75 Q131.5938,554.75 130.3906,554.125 Q129.4063,553.625 128.7188,552.5625 Q128.0313,551.4844 128.0313,550.2031 L128.0313,549.0469 Q128.0313,547.7188 128.6406,546.5781 Q129.2656,545.4219 130.3594,544.8125 Q131.4531,544.1875 132.6875,544.1875 Q133.4219,544.1875 134.0625,544.3594 Q134.7188,544.5156 135.2656,544.875 Z " fill="#000000"/><text fill="#000000" font-family="sans-serif" font-size="14" lengthAdjust="spacing" textLength="116" x="146.5" y="554.7969">RepositoryFactory</text><line style="stroke:#181818;stroke-width:0.5;" x1="118.5" x2="264.5" y1="565" y2="565"/><line style="stroke:#181818;stroke-width:0.5;" x1="118.5" x2="264.5" y1="573" y2="573"/><ellipse cx="128.5" cy="587.8105" fill="#84BE84" rx="3" ry="3" style="stroke:#038048;stroke-width:1.0;"/><text fill="#000000" font-family="sans-serif" font-size="14" lengthAdjust="spacing" textLength="121" x="137.5" y="592.1074">courseRepository()</text></g><!--class MeetingRepository--><g id="elem_MeetingRepository"><rect codeLine="33" fill="#F1F1F1" height="103.8633" id="MeetingRepository" rx="2.5" ry="2.5" style="stroke:#181818;stroke-width:0.5;" width="150" x="19.5" y="660"/><ellipse cx="34.5" cy="676" fill="#ADD1B2" rx="11" ry="11" style="stroke:#181818;stroke-width:1.0;"/><path d="M37.2656,671.875 Q37.4219,671.6563 37.6094,671.5469 Q37.7969,671.4375 38.0156,671.4375 Q38.3906,671.4375 38.625,671.7031 Q38.8594,671.9531 38.8594,672.5625 L38.8594,674.0156 Q38.8594,674.625 38.625,674.8906 Q38.3906,675.1563 38.0156,675.1563 Q37.6719,675.1563 37.4688,674.9531 Q37.2656,674.7656 37.1563,674.25 Q37.1094,673.8906 36.9219,673.7031 Q36.5938,673.3281 35.9844,673.1094 Q35.375,672.8906 34.75,672.8906 Q33.9844,672.8906 33.3438,673.2188 Q32.7188,673.5469 32.2188,674.2969 Q31.7344,675.0469 31.7344,676.0781 L31.7344,677.1719 Q31.7344,678.4063 32.625,679.2344 Q33.5156,680.0469 35.1094,680.0469 Q36.0469,680.0469 36.7031,679.7969 Q37.0938,679.6406 37.5156,679.2031 Q37.7813,678.9375 37.9219,678.8594 Q38.0781,678.7813 38.2813,678.7813 Q38.6094,678.7813 38.8594,679.0469 Q39.125,679.2969 39.125,679.6406 Q39.125,679.9844 38.7813,680.3906 Q38.2813,680.9688 37.4844,681.2969 Q36.4063,681.75 35.1094,681.75 Q33.5938,681.75 32.3906,681.125 Q31.4063,680.625 30.7188,679.5625 Q30.0313,678.4844 30.0313,677.2031 L30.0313,676.0469 Q30.0313,674.7188 30.6406,673.5781 Q31.2656,672.4219 32.3594,671.8125 Q33.4531,671.1875 34.6875,671.1875 Q35.4219,671.1875 36.0625,671.3594 Q36.7188,671.5156 37.2656,671.875 Z " fill="#000000"/><text fill="#000000" font-family="sans-serif" font-size="14" lengthAdjust="spacing" textLength="118" x="48.5" y="681.7969">MeetingRepository</text><line style="stroke:#181818;stroke-width:0.5;" x1="20.5" x2="168.5" y1="692" y2="692"/><line style="stroke:#181818;stroke-width:0.5;" x1="20.5" x2="168.5" y1="700" y2="700"/><ellipse cx="30.5" cy="714.8105" fill="#84BE84" rx="3" ry="3" style="stroke:#038048;stroke-width:1.0;"/><text fill="#000000" font-family="sans-serif" font-size="14" lengthAdjust="spacing" textLength="48" x="39.5" y="719.1074">findAll()</text><ellipse cx="30.5" cy="733.4316" fill="#84BE84" rx="3" ry="3" style="stroke:#038048;stroke-width:1.0;"/><text fill="#000000" font-family="sans-serif" font-size="14" lengthAdjust="spacing" textLength="123" x="39.5" y="737.7285">meetingOwnerList()</text><ellipse cx="30.5" cy="752.0527" fill="#84BE84" rx="3" ry="3" style="stroke:#038048;stroke-width:1.0;"/><text fill="#000000" font-family="sans-serif" font-size="14" lengthAdjust="spacing" textLength="40" x="39.5" y="756.3496">save()</text></g><!--class ParticipantRepository--><g id="elem_ParticipantRepository"><rect codeLine="39" fill="#F1F1F1" height="66.6211" id="ParticipantRepository" rx="2.5" ry="2.5" style="stroke:#181818;stroke-width:0.5;" width="167" x="205" y="678.5"/><ellipse cx="220" cy="694.5" fill="#ADD1B2" rx="11" ry="11" style="stroke:#181818;stroke-width:1.0;"/><path d="M222.7656,690.375 Q222.9219,690.1563 223.1094,690.0469 Q223.2969,689.9375 223.5156,689.9375 Q223.8906,689.9375 224.125,690.2031 Q224.3594,690.4531 224.3594,691.0625 L224.3594,692.5156 Q224.3594,693.125 224.125,693.3906 Q223.8906,693.6563 223.5156,693.6563 Q223.1719,693.6563 222.9688,693.4531 Q222.7656,693.2656 222.6563,692.75 Q222.6094,692.3906 222.4219,692.2031 Q222.0938,691.8281 221.4844,691.6094 Q220.875,691.3906 220.25,691.3906 Q219.4844,691.3906 218.8438,691.7188 Q218.2188,692.0469 217.7188,692.7969 Q217.2344,693.5469 217.2344,694.5781 L217.2344,695.6719 Q217.2344,696.9063 218.125,697.7344 Q219.0156,698.5469 220.6094,698.5469 Q221.5469,698.5469 222.2031,698.2969 Q222.5938,698.1406 223.0156,697.7031 Q223.2813,697.4375 223.4219,697.3594 Q223.5781,697.2813 223.7813,697.2813 Q224.1094,697.2813 224.3594,697.5469 Q224.625,697.7969 224.625,698.1406 Q224.625,698.4844 224.2813,698.8906 Q223.7813,699.4688 222.9844,699.7969 Q221.9063,700.25 220.6094,700.25 Q219.0938,700.25 217.8906,699.625 Q216.9063,699.125 216.2188,698.0625 Q215.5313,696.9844 215.5313,695.7031 L215.5313,694.5469 Q215.5313,693.2188 216.1406,692.0781 Q216.7656,690.9219 217.8594,690.3125 Q218.9531,689.6875 220.1875,689.6875 Q220.9219,689.6875 221.5625,689.8594 Q222.2188,690.0156 222.7656,690.375 Z " fill="#000000"/><text fill="#000000" font-family="sans-serif" font-size="14" lengthAdjust="spacing" textLength="135" x="234" y="700.2969">ParticipantRepository</text><line style="stroke:#181818;stroke-width:0.5;" x1="206" x2="371" y1="710.5" y2="710.5"/><line style="stroke:#181818;stroke-width:0.5;" x1="206" x2="371" y1="718.5" y2="718.5"/><ellipse cx="216" cy="733.3105" fill="#84BE84" rx="3" ry="3" style="stroke:#038048;stroke-width:1.0;"/><text fill="#000000" font-family="sans-serif" font-size="14" lengthAdjust="spacing" textLength="134" x="225" y="737.6074">meetingParticipants()</text></g><!--link ListMeetingParticipantsUI to ListMeetingParticipantsController--><g id="link_ListMeetingParticipantsUI_ListMeetingParticipantsController"><path codeLine="2" d="M191.5,74.02 C191.5,90.67 191.5,111.04 191.5,128.42 " fill="none" id="ListMeetingParticipantsUI-to-ListMeetingParticipantsController" style="stroke:#181818;stroke-width:1.0;stroke-dasharray:7.0,7.0;"/><polygon fill="#181818" points="191.5,133.71,195.5,124.71,191.5,128.71,187.5,124.71,191.5,133.71" style="stroke:#181818;stroke-width:1.0;"/></g><!--link ListMeetingParticipantsController to MeetingManagementService--><g id="link_ListMeetingParticipantsController_MeetingManagementService"><path codeLine="4" d="M172.17,201.28 C162.4,217.85 150.38,238.24 139.7,256.37 " fill="none" id="ListMeetingParticipantsController-to-MeetingManagementService" style="stroke:#181818;stroke-width:1.0;"/><polygon fill="#181818" points="137.01,260.92,145.0118,255.1779,139.5382,256.6063,138.1099,251.1327,137.01,260.92" style="stroke:#181818;stroke-width:1.0;"/></g><!--link MeetingManagementService to PersistenceContext--><g id="link_MeetingManagementService_PersistenceContext"><path codeLine="6" d="M137.06,346.16 C147.41,363.72 159.37,384 169.43,401.07 " fill="none" id="MeetingManagementService-to-PersistenceContext" style="stroke:#181818;stroke-width:1.0;"/><polygon fill="#181818" points="172.22,405.8,171.0961,396.0155,169.6812,401.4925,164.2041,400.0776,172.22,405.8" style="stroke:#181818;stroke-width:1.0;"/></g><!--link ListMeetingParticipantsController to PersistenceContext--><g id="link_ListMeetingParticipantsController_PersistenceContext"><path codeLine="7" d="M211.35,201.03 C220.67,218.2 230.76,240.01 235.5,261 C243.82,297.85 243.82,309.15 235.5,346 C231.17,365.19 222.37,385.06 213.77,401.45 " fill="none" id="ListMeetingParticipantsController-to-PersistenceContext" style="stroke:#181818;stroke-width:1.0;"/><polygon fill="#181818" points="211.35,405.97,219.1025,399.8955,213.694,401.5535,212.0361,396.1451,211.35,405.97" style="stroke:#181818;stroke-width:1.0;"/></g><!--link PersistenceContext to RepositoryFactory--><g id="link_PersistenceContext_RepositoryFactory"><path codeLine="8" d="M191.5,473.02 C191.5,489.67 191.5,510.04 191.5,527.42 " fill="none" id="PersistenceContext-to-RepositoryFactory" style="stroke:#181818;stroke-width:1.0;"/><polygon fill="#181818" points="191.5,532.71,195.5,523.71,191.5,527.71,187.5,523.71,191.5,532.71" style="stroke:#181818;stroke-width:1.0;"/></g><!--link RepositoryFactory to MeetingRepository--><g id="link_RepositoryFactory_MeetingRepository"><path codeLine="9" d="M169.49,600.06 C158.37,616.51 144.57,636.93 131.85,655.75 " fill="none" id="RepositoryFactory-to-MeetingRepository" style="stroke:#181818;stroke-width:1.0;"/><polygon fill="#181818" points="128.98,659.99,137.346,654.793,131.7896,655.854,130.7285,650.2976,128.98,659.99" style="stroke:#181818;stroke-width:1.0;"/></g><!--link RepositoryFactory to ParticipantRepository--><g id="link_RepositoryFactory_ParticipantRepository"><path codeLine="10" d="M213.51,600.06 C228.35,622.02 247.96,651.03 263.41,673.88 " fill="none" id="RepositoryFactory-to-ParticipantRepository" style="stroke:#181818;stroke-width:1.0;"/><polygon fill="#181818" points="266.24,678.07,264.5144,668.3735,263.4402,673.9274,257.8863,672.8532,266.24,678.07" style="stroke:#181818;stroke-width:1.0;"/></g><!--SRC=[ZL5TQW8n47wVK-In8de4eHGAWb9HF438JcqWEv5CT2lIkpVPJRifoMBt9PlvVcRcoqQpto9wJQUTT5uhVPRa-RWMoyPsj5o9JPtnOiaxQmmwW8SKiLYiH69i9SaJjaZ-WEwg5G9C8RriXuw3FvB2Q8YV_f_zAiAor3FtUBQilNMtLwdY0KKbts049tZPK1aNb97CKtaUrtUOYyOUFcptD8El1_HnroYxCBf4ubmy5MpKl6jgtZhw5GRTNBJ3Vr-FdNEpChneutuMrFYdTP5C92jxSOmZL9br1EyWmZSC-cnCu0xtoem3mFAAyH8iHHgvzX39jor3JMBu1W00]--></g></svg>