<?xml version="1.0" encoding="us-ascii" standalone="no"?><svg xmlns="http://www.w3.org/2000/svg" xmlns:xlink="http://www.w3.org/1999/xlink" contentStyleType="text/css" height="612.5px" preserveAspectRatio="none" style="width:1103px;height:612px;background:#FFFFFF;" version="1.1" viewBox="0 0 1103 612" width="1103.9px" zoomAndPan="magnify"><defs/><g><rect fill="#FFFFFF" height="461.6705" style="stroke:#181818;stroke-width:0.6999999999999998;" width="7" x="12.25" y="68.7695"/><rect fill="#FFFFFF" height="249.1371" style="stroke:#181818;stroke-width:0.6999999999999998;" width="7" x="248.15" y="85.0732"/><rect fill="#FFFFFF" height="174.326" style="stroke:#181818;stroke-width:0.6999999999999998;" width="7" x="248.15" y="356.1141"/><rect fill="#FFFFFF" height="205.3297" style="stroke:#181818;stroke-width:0.6999999999999998;" width="7" x="390.25" y="106.977"/><rect fill="#FFFFFF" height="130.5186" style="stroke:#181818;stroke-width:0.6999999999999998;" width="7" x="390.25" y="378.0178"/><rect fill="#FFFFFF" height="161.5223" style="stroke:#181818;stroke-width:0.6999999999999998;" width="7" x="536.9" y="128.8807"/><rect fill="#FFFFFF" height="42.9037" style="stroke:#181818;stroke-width:0.6999999999999998;" width="7" x="728" y="150.7844"/><rect fill="#FFFFFF" height="42.9037" style="stroke:#181818;stroke-width:0.6999999999999998;" width="7" x="728" y="399.9215"/><rect fill="#FFFFFF" height="21" style="stroke:#181818;stroke-width:0.6999999999999998;" width="7" x="851.9" y="172.6881"/><rect fill="#FFFFFF" height="21" style="stroke:#181818;stroke-width:0.6999999999999998;" width="7" x="851.9" y="421.8252"/><rect fill="#FFFFFF" height="21.9037" style="stroke:#181818;stroke-width:0.6999999999999998;" width="7" x="950.6" y="246.5955"/><rect fill="#FFFFFF" height="21.9037" style="stroke:#181818;stroke-width:0.6999999999999998;" width="7" x="1050.35" y="464.7289"/><line style="stroke:#181818;stroke-width:0.3499999999999999;stroke-dasharray:5.0,5.0;" x1="15.4" x2="15.4" y1="61.7695" y2="543.04"/><line style="stroke:#181818;stroke-width:0.3499999999999999;stroke-dasharray:5.0,5.0;" x1="251.65" x2="251.65" y1="61.7695" y2="543.04"/><line style="stroke:#181818;stroke-width:0.3499999999999999;stroke-dasharray:5.0,5.0;" x1="393.75" x2="393.75" y1="61.7695" y2="543.04"/><line style="stroke:#181818;stroke-width:0.3499999999999999;stroke-dasharray:5.0,5.0;" x1="540.05" x2="540.05" y1="61.7695" y2="543.04"/><line style="stroke:#181818;stroke-width:0.3499999999999999;stroke-dasharray:5.0,5.0;" x1="731.5" x2="731.5" y1="61.7695" y2="543.04"/><line style="stroke:#181818;stroke-width:0.3499999999999999;stroke-dasharray:5.0,5.0;" x1="855.4" x2="855.4" y1="61.7695" y2="543.04"/><line style="stroke:#181818;stroke-width:0.3499999999999999;stroke-dasharray:5.0,5.0;" x1="954.1" x2="954.1" y1="61.7695" y2="543.04"/><line style="stroke:#181818;stroke-width:0.3499999999999999;stroke-dasharray:5.0,5.0;" x1="1053.5" x2="1053.5" y1="61.7695" y2="543.04"/><text fill="#000000" font-family="sans-serif" font-size="9.8" lengthAdjust="spacing" textLength="20.3" x="3.5" y="59.31">User</text><ellipse cx="15.75" cy="12.6848" fill="#E2E2F0" rx="5.6" ry="5.6" style="stroke:#181818;stroke-width:0.3499999999999999;"/><path d="M15.75,18.2848 L15.75,37.1848 M6.65,23.8848 L24.85,23.8848 M15.75,37.1848 L6.65,47.6848 M15.75,37.1848 L24.85,47.6848 " fill="none" style="stroke:#181818;stroke-width:0.3499999999999999;"/><text fill="#000000" font-family="sans-serif" font-size="9.8" lengthAdjust="spacing" textLength="20.3" x="3.5" y="552.9152">User</text><ellipse cx="15.75" cy="561.3248" fill="#E2E2F0" rx="5.6" ry="5.6" style="stroke:#181818;stroke-width:0.3499999999999999;"/><path d="M15.75,566.9248 L15.75,585.8248 M6.65,572.5248 L24.85,572.5248 M15.75,585.8248 L6.65,596.3248 M15.75,585.8248 L24.85,596.3248 " fill="none" style="stroke:#181818;stroke-width:0.3499999999999999;"/><rect fill="#E2E2F0" height="22.8348" rx="1.75" ry="1.75" style="stroke:#181818;stroke-width:0.3499999999999999;" width="120.4" x="191.45" y="38.2348"/><text fill="#000000" font-family="sans-serif" font-size="9.8" lengthAdjust="spacing" textLength="110.6" x="196.35" y="53.71">ListMeetingParticipantsUI</text><rect fill="#E2E2F0" height="22.8348" rx="1.75" ry="1.75" style="stroke:#181818;stroke-width:0.3499999999999999;" width="120.4" x="191.45" y="542.34"/><text fill="#000000" font-family="sans-serif" font-size="9.8" lengthAdjust="spacing" textLength="110.6" x="196.35" y="557.8152">ListMeetingParticipantsUI</text><text fill="#000000" font-family="sans-serif" font-size="9.8" lengthAdjust="spacing" textLength="145.6" x="318.85" y="59.31">ListMeetingParticipantsController</text><ellipse cx="393.75" cy="37.5348" fill="#E2E2F0" rx="8.4" ry="8.4" style="stroke:#181818;stroke-width:0.3499999999999999;"/><polygon fill="#181818" points="390.95,29.1348,395.15,25.6348,393.75,29.1348,395.15,32.6348,390.95,29.1348" style="stroke:#181818;stroke-width:0.6999999999999998;"/><text fill="#000000" font-family="sans-serif" font-size="9.8" lengthAdjust="spacing" textLength="145.6" x="318.85" y="552.9152">ListMeetingParticipantsController</text><ellipse cx="393.75" cy="566.5748" fill="#E2E2F0" rx="8.4" ry="8.4" style="stroke:#181818;stroke-width:0.3499999999999999;"/><polygon fill="#181818" points="390.95,558.1748,395.15,554.6748,393.75,558.1748,395.15,561.6748,390.95,558.1748" style="stroke:#181818;stroke-width:0.6999999999999998;"/><rect fill="#E2E2F0" height="22.8348" rx="1.75" ry="1.75" style="stroke:#181818;stroke-width:0.3499999999999999;" width="129.5" x="475.65" y="38.2348"/><text fill="#000000" font-family="sans-serif" font-size="9.8" lengthAdjust="spacing" textLength="119.7" x="480.55" y="53.71">MeetingParticipantsService</text><rect fill="#E2E2F0" height="22.8348" rx="1.75" ry="1.75" style="stroke:#181818;stroke-width:0.3499999999999999;" width="129.5" x="475.65" y="542.34"/><text fill="#000000" font-family="sans-serif" font-size="9.8" lengthAdjust="spacing" textLength="119.7" x="480.55" y="557.8152">MeetingParticipantsService</text><rect fill="#E2E2F0" height="22.8348" rx="1.75" ry="1.75" style="stroke:#181818;stroke-width:0.3499999999999999;" width="98" x="682.5" y="38.2348"/><text fill="#000000" font-family="sans-serif" font-size="9.8" lengthAdjust="spacing" textLength="88.2" x="687.4" y="53.71">:PersistenceContext</text><rect fill="#E2E2F0" height="22.8348" rx="1.75" ry="1.75" style="stroke:#181818;stroke-width:0.3499999999999999;" width="98" x="682.5" y="542.34"/><text fill="#000000" font-family="sans-serif" font-size="9.8" lengthAdjust="spacing" textLength="88.2" x="687.4" y="557.8152">:PersistenceContext</text><rect fill="#E2E2F0" height="22.8348" rx="1.75" ry="1.75" style="stroke:#181818;stroke-width:0.3499999999999999;" width="96.6" x="807.1" y="38.2348"/><text fill="#000000" font-family="sans-serif" font-size="9.8" lengthAdjust="spacing" textLength="84" x="812" y="53.71">:RepositoryFactory</text><rect fill="#E2E2F0" height="22.8348" rx="1.75" ry="1.75" style="stroke:#181818;stroke-width:0.3499999999999999;" width="96.6" x="807.1" y="542.34"/><text fill="#000000" font-family="sans-serif" font-size="9.8" lengthAdjust="spacing" textLength="84" x="812" y="557.8152">:RepositoryFactory</text><text fill="#000000" font-family="sans-serif" font-size="9.8" font-style="italic" lengthAdjust="spacing" textLength="55.3" x="924.35" y="46.2752">&#171;repository&#187;</text><text fill="#000000" font-family="sans-serif" font-size="9.8" lengthAdjust="spacing" textLength="82.6" x="910.7" y="59.31">MeetingRepository</text><path d="M941.5,10.5 C941.5,3.5 954.1,3.5 954.1,3.5 C954.1,3.5 966.7,3.5 966.7,10.5 L966.7,28.7 C966.7,35.7 954.1,35.7 954.1,35.7 C954.1,35.7 941.5,35.7 941.5,28.7 L941.5,10.5 " fill="#E2E2F0" style="stroke:#181818;stroke-width:1.0499999999999998;"/><path d="M941.5,10.5 C941.5,17.5 954.1,17.5 954.1,17.5 C954.1,17.5 966.7,17.5 966.7,10.5 " fill="none" style="stroke:#181818;stroke-width:1.0499999999999998;"/><text fill="#000000" font-family="sans-serif" font-size="9.8" font-style="italic" lengthAdjust="spacing" textLength="55.3" x="924.35" y="552.9152">&#171;repository&#187;</text><text fill="#000000" font-family="sans-serif" font-size="9.8" lengthAdjust="spacing" textLength="82.6" x="910.7" y="565.95">MeetingRepository</text><path d="M941.5,575.4096 C941.5,568.4096 954.1,568.4096 954.1,568.4096 C954.1,568.4096 966.7,568.4096 966.7,575.4096 L966.7,593.6096 C966.7,600.6096 954.1,600.6096 954.1,600.6096 C954.1,600.6096 941.5,600.6096 941.5,593.6096 L941.5,575.4096 " fill="#E2E2F0" style="stroke:#181818;stroke-width:1.0499999999999998;"/><path d="M941.5,575.4096 C941.5,582.4096 954.1,582.4096 954.1,582.4096 C954.1,582.4096 966.7,582.4096 966.7,575.4096 " fill="none" style="stroke:#181818;stroke-width:1.0499999999999998;"/><text fill="#000000" font-family="sans-serif" font-size="9.8" font-style="italic" lengthAdjust="spacing" textLength="55.3" x="1024.1" y="46.2752">&#171;repository&#187;</text><text fill="#000000" font-family="sans-serif" font-size="9.8" lengthAdjust="spacing" textLength="94.5" x="1004.5" y="59.31">ParticipantRepository</text><path d="M1041.25,10.5 C1041.25,3.5 1053.85,3.5 1053.85,3.5 C1053.85,3.5 1066.45,3.5 1066.45,10.5 L1066.45,28.7 C1066.45,35.7 1053.85,35.7 1053.85,35.7 C1053.85,35.7 1041.25,35.7 1041.25,28.7 L1041.25,10.5 " fill="#E2E2F0" style="stroke:#181818;stroke-width:1.0499999999999998;"/><path d="M1041.25,10.5 C1041.25,17.5 1053.85,17.5 1053.85,17.5 C1053.85,17.5 1066.45,17.5 1066.45,10.5 " fill="none" style="stroke:#181818;stroke-width:1.0499999999999998;"/><text fill="#000000" font-family="sans-serif" font-size="9.8" font-style="italic" lengthAdjust="spacing" textLength="55.3" x="1024.1" y="552.9152">&#171;repository&#187;</text><text fill="#000000" font-family="sans-serif" font-size="9.8" lengthAdjust="spacing" textLength="94.5" x="1004.5" y="565.95">ParticipantRepository</text><path d="M1041.25,575.4096 C1041.25,568.4096 1053.85,568.4096 1053.85,568.4096 C1053.85,568.4096 1066.45,568.4096 1066.45,575.4096 L1066.45,593.6096 C1066.45,600.6096 1053.85,600.6096 1053.85,600.6096 C1053.85,600.6096 1041.25,600.6096 1041.25,593.6096 L1041.25,575.4096 " fill="#E2E2F0" style="stroke:#181818;stroke-width:1.0499999999999998;"/><path d="M1041.25,575.4096 C1041.25,582.4096 1053.85,582.4096 1053.85,582.4096 C1053.85,582.4096 1066.45,582.4096 1066.45,575.4096 " fill="none" style="stroke:#181818;stroke-width:1.0499999999999998;"/><rect fill="#FFFFFF" height="461.6705" style="stroke:#181818;stroke-width:0.6999999999999998;" width="7" x="12.25" y="68.7695"/><rect fill="#FFFFFF" height="249.1371" style="stroke:#181818;stroke-width:0.6999999999999998;" width="7" x="248.15" y="85.0732"/><rect fill="#FFFFFF" height="174.326" style="stroke:#181818;stroke-width:0.6999999999999998;" width="7" x="248.15" y="356.1141"/><rect fill="#FFFFFF" height="205.3297" style="stroke:#181818;stroke-width:0.6999999999999998;" width="7" x="390.25" y="106.977"/><rect fill="#FFFFFF" height="130.5186" style="stroke:#181818;stroke-width:0.6999999999999998;" width="7" x="390.25" y="378.0178"/><rect fill="#FFFFFF" height="161.5223" style="stroke:#181818;stroke-width:0.6999999999999998;" width="7" x="536.9" y="128.8807"/><rect fill="#FFFFFF" height="42.9037" style="stroke:#181818;stroke-width:0.6999999999999998;" width="7" x="728" y="150.7844"/><rect fill="#FFFFFF" height="42.9037" style="stroke:#181818;stroke-width:0.6999999999999998;" width="7" x="728" y="399.9215"/><rect fill="#FFFFFF" height="21" style="stroke:#181818;stroke-width:0.6999999999999998;" width="7" x="851.9" y="172.6881"/><rect fill="#FFFFFF" height="21" style="stroke:#181818;stroke-width:0.6999999999999998;" width="7" x="851.9" y="421.8252"/><rect fill="#FFFFFF" height="21.9037" style="stroke:#181818;stroke-width:0.6999999999999998;" width="7" x="950.6" y="246.5955"/><rect fill="#FFFFFF" height="21.9037" style="stroke:#181818;stroke-width:0.6999999999999998;" width="7" x="1050.35" y="464.7289"/><polygon fill="#181818" points="239.75,82.2732,246.75,85.0732,239.75,87.8732,242.55,85.0732" style="stroke:#181818;stroke-width:0.6999999999999998;"/><line style="stroke:#181818;stroke-width:0.6999999999999998;" x1="19.25" x2="243.95" y1="85.0732" y2="85.0732"/><text fill="#000000" font-family="sans-serif" font-size="9.1" font-weight="bold" lengthAdjust="spacing" textLength="4.9" x="24.15" y="81.3894">1</text><text fill="#000000" font-family="sans-serif" font-size="9.1" lengthAdjust="spacing" textLength="134.4" x="31.85" y="81.3894">asks to view meeting participants</text><polygon fill="#181818" points="381.85,104.177,388.85,106.977,381.85,109.777,384.65,106.977" style="stroke:#181818;stroke-width:0.6999999999999998;"/><line style="stroke:#181818;stroke-width:0.6999999999999998;" x1="255.15" x2="386.05" y1="106.977" y2="106.977"/><text fill="#000000" font-family="sans-serif" font-size="9.1" font-weight="bold" lengthAdjust="spacing" textLength="4.9" x="260.05" y="103.2931">2</text><text fill="#000000" font-family="sans-serif" font-size="9.1" lengthAdjust="spacing" textLength="60.2" x="267.75" y="103.2931">userMeetings()</text><polygon fill="#181818" points="528.5,126.0807,535.5,128.8807,528.5,131.6807,531.3,128.8807" style="stroke:#181818;stroke-width:0.6999999999999998;"/><line style="stroke:#181818;stroke-width:0.6999999999999998;" x1="397.25" x2="532.7" y1="128.8807" y2="128.8807"/><text fill="#000000" font-family="sans-serif" font-size="9.1" font-weight="bold" lengthAdjust="spacing" textLength="4.9" x="402.15" y="125.1968">3</text><text fill="#000000" font-family="sans-serif" font-size="9.1" lengthAdjust="spacing" textLength="60.2" x="409.85" y="125.1968">userMeetings()</text><polygon fill="#181818" points="719.6,147.9844,726.6,150.7844,719.6,153.5844,722.4,150.7844" style="stroke:#181818;stroke-width:0.6999999999999998;"/><line style="stroke:#181818;stroke-width:0.6999999999999998;" x1="543.9" x2="723.8" y1="150.7844" y2="150.7844"/><text fill="#000000" font-family="sans-serif" font-size="9.1" font-weight="bold" lengthAdjust="spacing" textLength="4.9" x="548.8" y="147.1005">4</text><text fill="#000000" font-family="sans-serif" font-size="9.1" lengthAdjust="spacing" textLength="163.1" x="556.5" y="147.1005">meetingRepository = repositoryFactory()</text><polygon fill="#181818" points="843.5,169.8881,850.5,172.6881,843.5,175.4881,846.3,172.6881" style="stroke:#181818;stroke-width:0.6999999999999998;"/><line style="stroke:#181818;stroke-width:0.6999999999999998;" x1="735" x2="847.7" y1="172.6881" y2="172.6881"/><text fill="#000000" font-family="sans-serif" font-size="9.1" font-weight="bold" lengthAdjust="spacing" textLength="4.9" x="739.9" y="169.0042">5</text><text fill="#000000" font-family="sans-serif" font-size="9.1" lengthAdjust="spacing" textLength="81.2" x="747.6" y="169.0042">meetingRepository()</text><line style="stroke:#181818;stroke-width:0.6999999999999998;" x1="543.9" x2="573.3" y1="215.5918" y2="215.5918"/><line style="stroke:#181818;stroke-width:0.6999999999999998;" x1="573.3" x2="573.3" y1="215.5918" y2="224.6918"/><line style="stroke:#181818;stroke-width:0.6999999999999998;" x1="544.6" x2="573.3" y1="224.6918" y2="224.6918"/><polygon fill="#181818" points="551.6,221.8918,544.6,224.6918,551.6,227.4918,548.8,224.6918" style="stroke:#181818;stroke-width:0.6999999999999998;"/><text fill="#000000" font-family="sans-serif" font-size="9.1" font-weight="bold" lengthAdjust="spacing" textLength="4.9" x="548.8" y="211.9079">6</text><text fill="#000000" font-family="sans-serif" font-size="9.1" lengthAdjust="spacing" textLength="75.6" x="556.5" y="211.9079">findownerMeeting()</text><polygon fill="#181818" points="942.2,243.7955,949.2,246.5955,942.2,249.3955,945,246.5955" style="stroke:#181818;stroke-width:0.6999999999999998;"/><line style="stroke:#181818;stroke-width:0.6999999999999998;" x1="543.9" x2="946.4" y1="246.5955" y2="246.5955"/><text fill="#000000" font-family="sans-serif" font-size="9.1" font-weight="bold" lengthAdjust="spacing" textLength="4.9" x="548.8" y="242.9116">7</text><text fill="#000000" font-family="sans-serif" font-size="9.1" lengthAdjust="spacing" textLength="102.2" x="556.5" y="242.9116">meetingOwnerList(owner)</text><polygon fill="#181818" points="551.6,265.6992,544.6,268.4992,551.6,271.2992,548.8,268.4992" style="stroke:#181818;stroke-width:0.6999999999999998;"/><line style="stroke:#181818;stroke-width:0.6999999999999998;stroke-dasharray:2.0,2.0;" x1="547.4" x2="953.4" y1="268.4992" y2="268.4992"/><text fill="#000000" font-family="sans-serif" font-size="9.1" font-weight="bold" lengthAdjust="spacing" textLength="4.9" x="555.8" y="264.8153">8</text><text fill="#000000" font-family="sans-serif" font-size="9.1" lengthAdjust="spacing" textLength="2.8" x="563.5" y="264.8153">&#160;</text><polygon fill="#181818" points="404.95,287.6029,397.95,290.4029,404.95,293.2029,402.15,290.4029" style="stroke:#181818;stroke-width:0.6999999999999998;"/><line style="stroke:#181818;stroke-width:0.6999999999999998;stroke-dasharray:2.0,2.0;" x1="400.75" x2="539.7" y1="290.4029" y2="290.4029"/><text fill="#000000" font-family="sans-serif" font-size="9.1" font-weight="bold" lengthAdjust="spacing" textLength="4.9" x="409.15" y="286.719">9</text><text fill="#000000" font-family="sans-serif" font-size="9.1" lengthAdjust="spacing" textLength="2.8" x="416.85" y="286.719">&#160;</text><polygon fill="#181818" points="262.85,309.5066,255.85,312.3066,262.85,315.1066,260.05,312.3066" style="stroke:#181818;stroke-width:0.6999999999999998;"/><line style="stroke:#181818;stroke-width:0.6999999999999998;stroke-dasharray:2.0,2.0;" x1="258.65" x2="393.05" y1="312.3066" y2="312.3066"/><text fill="#000000" font-family="sans-serif" font-size="9.1" font-weight="bold" lengthAdjust="spacing" textLength="9.8" x="267.05" y="308.6228">10</text><text fill="#000000" font-family="sans-serif" font-size="9.1" lengthAdjust="spacing" textLength="2.8" x="279.65" y="308.6228">&#160;</text><polygon fill="#181818" points="26.95,331.4104,19.95,334.2104,26.95,337.0104,24.15,334.2104" style="stroke:#181818;stroke-width:0.6999999999999998;"/><line style="stroke:#181818;stroke-width:0.6999999999999998;stroke-dasharray:2.0,2.0;" x1="22.75" x2="250.95" y1="334.2104" y2="334.2104"/><text fill="#000000" font-family="sans-serif" font-size="9.1" font-weight="bold" lengthAdjust="spacing" textLength="9.8" x="31.15" y="330.5265">11</text><text fill="#000000" font-family="sans-serif" font-size="9.1" lengthAdjust="spacing" textLength="199.5" x="43.75" y="330.5265">asks to select the meeting : shows userMeetings</text><polygon fill="#181818" points="239.75,353.3141,246.75,356.1141,239.75,358.9141,242.55,356.1141" style="stroke:#181818;stroke-width:0.6999999999999998;"/><line style="stroke:#181818;stroke-width:0.6999999999999998;" x1="19.25" x2="243.95" y1="356.1141" y2="356.1141"/><text fill="#000000" font-family="sans-serif" font-size="9.1" font-weight="bold" lengthAdjust="spacing" textLength="9.8" x="24.15" y="352.4302">12</text><text fill="#000000" font-family="sans-serif" font-size="9.1" lengthAdjust="spacing" textLength="95.9" x="36.75" y="352.4302">selects wanted meeting</text><polygon fill="#181818" points="381.85,375.2178,388.85,378.0178,381.85,380.8178,384.65,378.0178" style="stroke:#181818;stroke-width:0.6999999999999998;"/><line style="stroke:#181818;stroke-width:0.6999999999999998;" x1="255.15" x2="386.05" y1="378.0178" y2="378.0178"/><text fill="#000000" font-family="sans-serif" font-size="9.1" font-weight="bold" lengthAdjust="spacing" textLength="9.8" x="260.05" y="374.3339">13</text><text fill="#000000" font-family="sans-serif" font-size="9.1" lengthAdjust="spacing" textLength="86.1" x="272.65" y="374.3339">meetingParticipants()</text><polygon fill="#181818" points="719.6,397.1215,726.6,399.9215,719.6,402.7215,722.4,399.9215" style="stroke:#181818;stroke-width:0.6999999999999998;"/><line style="stroke:#181818;stroke-width:0.6999999999999998;" x1="397.25" x2="723.8" y1="399.9215" y2="399.9215"/><text fill="#000000" font-family="sans-serif" font-size="9.1" font-weight="bold" lengthAdjust="spacing" textLength="9.8" x="402.15" y="396.2376">14</text><text fill="#000000" font-family="sans-serif" font-size="9.1" lengthAdjust="spacing" textLength="172.9" x="414.75" y="396.2376">participantRepository = repositoryFactory()</text><polygon fill="#181818" points="843.5,419.0252,850.5,421.8252,843.5,424.6252,846.3,421.8252" style="stroke:#181818;stroke-width:0.6999999999999998;"/><line style="stroke:#181818;stroke-width:0.6999999999999998;" x1="735" x2="847.7" y1="421.8252" y2="421.8252"/><text fill="#000000" font-family="sans-serif" font-size="9.1" font-weight="bold" lengthAdjust="spacing" textLength="9.8" x="739.9" y="418.1413">15</text><text fill="#000000" font-family="sans-serif" font-size="9.1" lengthAdjust="spacing" textLength="91" x="752.5" y="418.1413">participantRepository()</text><polygon fill="#181818" points="1041.95,461.9289,1048.95,464.7289,1041.95,467.5289,1044.75,464.7289" style="stroke:#181818;stroke-width:0.6999999999999998;"/><line style="stroke:#181818;stroke-width:0.6999999999999998;" x1="397.25" x2="1046.15" y1="464.7289" y2="464.7289"/><text fill="#000000" font-family="sans-serif" font-size="9.1" font-weight="bold" lengthAdjust="spacing" textLength="9.8" x="402.15" y="461.045">16</text><text fill="#000000" font-family="sans-serif" font-size="9.1" lengthAdjust="spacing" textLength="86.1" x="414.75" y="461.045">meetingParticipants()</text><polygon fill="#181818" points="404.95,483.8326,397.95,486.6326,404.95,489.4326,402.15,486.6326" style="stroke:#181818;stroke-width:0.6999999999999998;"/><line style="stroke:#181818;stroke-width:0.6999999999999998;stroke-dasharray:2.0,2.0;" x1="400.75" x2="1053.15" y1="486.6326" y2="486.6326"/><text fill="#000000" font-family="sans-serif" font-size="9.1" font-weight="bold" lengthAdjust="spacing" textLength="9.8" x="409.15" y="482.9487">17</text><text fill="#000000" font-family="sans-serif" font-size="9.1" lengthAdjust="spacing" textLength="2.8" x="421.75" y="482.9487">&#160;</text><polygon fill="#181818" points="262.85,505.7363,255.85,508.5363,262.85,511.3363,260.05,508.5363" style="stroke:#181818;stroke-width:0.6999999999999998;"/><line style="stroke:#181818;stroke-width:0.6999999999999998;stroke-dasharray:2.0,2.0;" x1="258.65" x2="393.05" y1="508.5363" y2="508.5363"/><text fill="#000000" font-family="sans-serif" font-size="9.1" font-weight="bold" lengthAdjust="spacing" textLength="9.8" x="267.05" y="504.8524">18</text><text fill="#000000" font-family="sans-serif" font-size="9.1" lengthAdjust="spacing" textLength="2.8" x="279.65" y="504.8524">&#160;</text><polygon fill="#181818" points="23.45,527.64,16.45,530.44,23.45,533.24,20.65,530.44" style="stroke:#181818;stroke-width:0.6999999999999998;"/><line style="stroke:#181818;stroke-width:0.6999999999999998;stroke-dasharray:2.0,2.0;" x1="19.25" x2="250.95" y1="530.44" y2="530.44"/><text fill="#000000" font-family="sans-serif" font-size="9.1" font-weight="bold" lengthAdjust="spacing" textLength="9.8" x="27.65" y="526.7562">19</text><text fill="#000000" font-family="sans-serif" font-size="9.1" lengthAdjust="spacing" textLength="170.1" x="40.25" y="526.7562">shows list of participants(with their status)</text><!--SRC=[dLJ1RgCm4Btp5QDUcXxOt54NQRNIIf5QRTGg7-2QIMCjODPZGlltjKq8OuUqshqWRDvxdfdtpEt1sewAzRghHMlxflucTRCc_DjZAp6lb7WreiaoqLlTziqB6lSkhJQm8pGW27xuLTO9OvLKdHE11qNs4T6gzdKxRzDku-6xJIPrQuskh-5-Zf_hKNvUHMSiy9xH79L4Jsh6hzDMnBmfjcZ87UqRzEhuPcyygPC9xWaxJSfrz_uhjFmE0RSV5rbM2IjU1E5Kp8pti4UtXFjxSzuiovd1wevPsmMM7xWw2ekdMOSdvAMRPU4uVmYiXgF2OUeRM1yqizteTvkyd2TQGEzCF5LFgxiPogO-l-PbCjVh_DI0P9sNdImc41l0Tp3fpBcgTqZwnayMB4Xm-6HKXPzjET6aEd_2HQTxrLPwQC_jkeCMQDxqSrM_FTo7V1M8h38Foq90yikpeE3b1UZ5IOx5REJuTFBiDkKXCh4yCzfbmm52kEPO4TOeBTZ3MHaAe8CUAFAUIxgOHGaT9GW6bqQi9faabX1tDA7u_Vuodp36gbkyM_yShKMP_ufNL66uuL_svq7PTWe8wvOf1yo5lTVT1MRlw63jiWbw7_qkLeEo1- -tCa1Ms9xk4dFvCiXz0000]--></g></svg>