<?xml version="1.0" encoding="us-ascii" standalone="no"?><svg xmlns="http://www.w3.org/2000/svg" xmlns:xlink="http://www.w3.org/1999/xlink" contentStyleType="text/css" height="1212px" preserveAspectRatio="none" style="width:1225px;height:1212px;background:#FFFFFF;" version="1.1" viewBox="0 0 1225 1212" width="1225px" zoomAndPan="magnify"><defs/><g><!--class Teacher--><g id="elem_Teacher"><rect codeLine="5" fill="#F1F1F1" height="103.8633" id="Teacher" rx="2.5" ry="2.5" style="stroke:#181818;stroke-width:0.5;" width="104" x="7" y="665.5"/><ellipse cx="30.55" cy="681.5" fill="#ADD1B2" rx="11" ry="11" style="stroke:#181818;stroke-width:1.0;"/><path d="M33.3156,677.375 Q33.4719,677.1563 33.6594,677.0469 Q33.8469,676.9375 34.0656,676.9375 Q34.4406,676.9375 34.675,677.2031 Q34.9094,677.4531 34.9094,678.0625 L34.9094,679.5156 Q34.9094,680.125 34.675,680.3906 Q34.4406,680.6563 34.0656,680.6563 Q33.7219,680.6563 33.5188,680.4531 Q33.3156,680.2656 33.2063,679.75 Q33.1594,679.3906 32.9719,679.2031 Q32.6438,678.8281 32.0344,678.6094 Q31.425,678.3906 30.8,678.3906 Q30.0344,678.3906 29.3938,678.7188 Q28.7688,679.0469 28.2688,679.7969 Q27.7844,680.5469 27.7844,681.5781 L27.7844,682.6719 Q27.7844,683.9063 28.675,684.7344 Q29.5656,685.5469 31.1594,685.5469 Q32.0969,685.5469 32.7531,685.2969 Q33.1438,685.1406 33.5656,684.7031 Q33.8313,684.4375 33.9719,684.3594 Q34.1281,684.2813 34.3313,684.2813 Q34.6594,684.2813 34.9094,684.5469 Q35.175,684.7969 35.175,685.1406 Q35.175,685.4844 34.8313,685.8906 Q34.3313,686.4688 33.5344,686.7969 Q32.4563,687.25 31.1594,687.25 Q29.6438,687.25 28.4406,686.625 Q27.4563,686.125 26.7688,685.0625 Q26.0813,683.9844 26.0813,682.7031 L26.0813,681.5469 Q26.0813,680.2188 26.6906,679.0781 Q27.3156,677.9219 28.4094,677.3125 Q29.5031,676.6875 30.7375,676.6875 Q31.4719,676.6875 32.1125,676.8594 Q32.7688,677.0156 33.3156,677.375 Z " fill="#000000"/><text fill="#000000" font-family="FG Virgil" font-size="14" lengthAdjust="spacing" textLength="53" x="46.45" y="687.2969">Teacher</text><line style="stroke:#181818;stroke-width:0.5;" x1="8" x2="110" y1="697.5" y2="697.5"/><rect fill="none" height="6" style="stroke:#C82930;stroke-width:1.0;" width="6" x="15" y="709.3105"/><text fill="#000000" font-family="FG Virgil" font-size="14" lengthAdjust="spacing" textLength="34" x="27" y="716.6074">id: int</text><rect fill="none" height="6" style="stroke:#C82930;stroke-width:1.0;" width="6" x="15" y="727.9316"/><text fill="#000000" font-family="FG Virgil" font-size="14" lengthAdjust="spacing" textLength="78" x="27" y="735.2285">name: string</text><rect fill="none" height="6" style="stroke:#C82930;stroke-width:1.0;" width="6" x="15" y="746.5527"/><text fill="#000000" font-family="FG Virgil" font-size="14" lengthAdjust="spacing" textLength="76" x="27" y="753.8496">email: string</text><line style="stroke:#181818;stroke-width:0.5;" x1="8" x2="110" y1="761.3633" y2="761.3633"/></g><!--class CreateExamUI--><g id="elem_CreateExamUI"><rect codeLine="11" fill="#F1F1F1" height="122.4844" id="CreateExamUI" rx="2.5" ry="2.5" style="stroke:#181818;stroke-width:0.5;" width="438" x="228" y="7"/><ellipse cx="398.25" cy="23" fill="#ADD1B2" rx="11" ry="11" style="stroke:#181818;stroke-width:1.0;"/><path d="M401.0156,18.875 Q401.1719,18.6563 401.3594,18.5469 Q401.5469,18.4375 401.7656,18.4375 Q402.1406,18.4375 402.375,18.7031 Q402.6094,18.9531 402.6094,19.5625 L402.6094,21.0156 Q402.6094,21.625 402.375,21.8906 Q402.1406,22.1563 401.7656,22.1563 Q401.4219,22.1563 401.2188,21.9531 Q401.0156,21.7656 400.9063,21.25 Q400.8594,20.8906 400.6719,20.7031 Q400.3438,20.3281 399.7344,20.1094 Q399.125,19.8906 398.5,19.8906 Q397.7344,19.8906 397.0938,20.2188 Q396.4688,20.5469 395.9688,21.2969 Q395.4844,22.0469 395.4844,23.0781 L395.4844,24.1719 Q395.4844,25.4063 396.375,26.2344 Q397.2656,27.0469 398.8594,27.0469 Q399.7969,27.0469 400.4531,26.7969 Q400.8438,26.6406 401.2656,26.2031 Q401.5313,25.9375 401.6719,25.8594 Q401.8281,25.7813 402.0313,25.7813 Q402.3594,25.7813 402.6094,26.0469 Q402.875,26.2969 402.875,26.6406 Q402.875,26.9844 402.5313,27.3906 Q402.0313,27.9688 401.2344,28.2969 Q400.1563,28.75 398.8594,28.75 Q397.3438,28.75 396.1406,28.125 Q395.1563,27.625 394.4688,26.5625 Q393.7813,25.4844 393.7813,24.2031 L393.7813,23.0469 Q393.7813,21.7188 394.3906,20.5781 Q395.0156,19.4219 396.1094,18.8125 Q397.2031,18.1875 398.4375,18.1875 Q399.1719,18.1875 399.8125,18.3594 Q400.4688,18.5156 401.0156,18.875 Z " fill="#000000"/><text fill="#000000" font-family="FG Virgil" font-size="14" lengthAdjust="spacing" textLength="89" x="418.75" y="28.7969">CreateExamUI</text><line style="stroke:#181818;stroke-width:0.5;" x1="229" x2="665" y1="39" y2="39"/><line style="stroke:#181818;stroke-width:0.5;" x1="229" x2="665" y1="47" y2="47"/><ellipse cx="239" cy="61.8105" fill="#84BE84" rx="3" ry="3" style="stroke:#038048;stroke-width:1.0;"/><text fill="#000000" font-family="FG Virgil" font-size="14" lengthAdjust="spacing" textLength="172" x="248" y="66.1074">listCourses(): List&lt;Course&gt;</text><ellipse cx="239" cy="80.4316" fill="#84BE84" rx="3" ry="3" style="stroke:#038048;stroke-width:1.0;"/><text fill="#000000" font-family="FG Virgil" font-size="14" lengthAdjust="spacing" textLength="223" x="248" y="84.7285">validateExam(path: string): boolean</text><ellipse cx="239" cy="99.0527" fill="#84BE84" rx="3" ry="3" style="stroke:#038048;stroke-width:1.0;"/><text fill="#000000" font-family="FG Virgil" font-size="14" lengthAdjust="spacing" textLength="412" x="248" y="103.3496">createExamFromPath(path: string, selectedCourse: Course): void</text><ellipse cx="239" cy="117.6738" fill="#84BE84" rx="3" ry="3" style="stroke:#038048;stroke-width:1.0;"/><text fill="#000000" font-family="FG Virgil" font-size="14" lengthAdjust="spacing" textLength="296" x="248" y="121.9707">informOperationResult(success: boolean): void</text></g><!--class CreateExamController--><g id="elem_CreateExamController"><rect codeLine="18" fill="#F1F1F1" height="141.1055" id="CreateExamController" rx="2.5" ry="2.5" style="stroke:#181818;stroke-width:0.5;" width="438" x="228" y="189"/><ellipse cx="373.25" cy="205" fill="#ADD1B2" rx="11" ry="11" style="stroke:#181818;stroke-width:1.0;"/><path d="M376.0156,200.875 Q376.1719,200.6563 376.3594,200.5469 Q376.5469,200.4375 376.7656,200.4375 Q377.1406,200.4375 377.375,200.7031 Q377.6094,200.9531 377.6094,201.5625 L377.6094,203.0156 Q377.6094,203.625 377.375,203.8906 Q377.1406,204.1563 376.7656,204.1563 Q376.4219,204.1563 376.2188,203.9531 Q376.0156,203.7656 375.9063,203.25 Q375.8594,202.8906 375.6719,202.7031 Q375.3438,202.3281 374.7344,202.1094 Q374.125,201.8906 373.5,201.8906 Q372.7344,201.8906 372.0938,202.2188 Q371.4688,202.5469 370.9688,203.2969 Q370.4844,204.0469 370.4844,205.0781 L370.4844,206.1719 Q370.4844,207.4063 371.375,208.2344 Q372.2656,209.0469 373.8594,209.0469 Q374.7969,209.0469 375.4531,208.7969 Q375.8438,208.6406 376.2656,208.2031 Q376.5313,207.9375 376.6719,207.8594 Q376.8281,207.7813 377.0313,207.7813 Q377.3594,207.7813 377.6094,208.0469 Q377.875,208.2969 377.875,208.6406 Q377.875,208.9844 377.5313,209.3906 Q377.0313,209.9688 376.2344,210.2969 Q375.1563,210.75 373.8594,210.75 Q372.3438,210.75 371.1406,210.125 Q370.1563,209.625 369.4688,208.5625 Q368.7813,207.4844 368.7813,206.2031 L368.7813,205.0469 Q368.7813,203.7188 369.3906,202.5781 Q370.0156,201.4219 371.1094,200.8125 Q372.2031,200.1875 373.4375,200.1875 Q374.1719,200.1875 374.8125,200.3594 Q375.4688,200.5156 376.0156,200.875 Z " fill="#000000"/><text fill="#000000" font-family="FG Virgil" font-size="14" lengthAdjust="spacing" textLength="139" x="393.75" y="210.7969">CreateExamController</text><line style="stroke:#181818;stroke-width:0.5;" x1="229" x2="665" y1="221" y2="221"/><rect fill="none" height="6" style="stroke:#C82930;stroke-width:1.0;" width="6" x="236" y="232.8105"/><text fill="#000000" font-family="FG Virgil" font-size="14" lengthAdjust="spacing" textLength="333" x="248" y="240.1074">examManagementService: ExamManagementService</text><line style="stroke:#181818;stroke-width:0.5;" x1="229" x2="665" y1="247.6211" y2="247.6211"/><ellipse cx="239" cy="262.4316" fill="#84BE84" rx="3" ry="3" style="stroke:#038048;stroke-width:1.0;"/><text fill="#000000" font-family="FG Virgil" font-size="14" lengthAdjust="spacing" textLength="172" x="248" y="266.7285">listCourses(): List&lt;Course&gt;</text><ellipse cx="239" cy="281.0527" fill="#84BE84" rx="3" ry="3" style="stroke:#038048;stroke-width:1.0;"/><text fill="#000000" font-family="FG Virgil" font-size="14" lengthAdjust="spacing" textLength="223" x="248" y="285.3496">validateExam(path: string): boolean</text><ellipse cx="239" cy="299.6738" fill="#84BE84" rx="3" ry="3" style="stroke:#038048;stroke-width:1.0;"/><text fill="#000000" font-family="FG Virgil" font-size="14" lengthAdjust="spacing" textLength="412" x="248" y="303.9707">createExamFromPath(path: string, selectedCourse: Course): void</text><ellipse cx="239" cy="318.2949" fill="#84BE84" rx="3" ry="3" style="stroke:#038048;stroke-width:1.0;"/><text fill="#000000" font-family="FG Virgil" font-size="14" lengthAdjust="spacing" textLength="344" x="248" y="322.5918">saveExam(selectedCourse: Course, exam: Exam): void</text></g><!--class ExamManagementService--><g id="elem_ExamManagementService"><rect codeLine="26" fill="#F1F1F1" height="196.9688" id="ExamManagementService" rx="2.5" ry="2.5" style="stroke:#181818;stroke-width:0.5;" width="438" x="228" y="390"/><ellipse cx="361.25" cy="406" fill="#ADD1B2" rx="11" ry="11" style="stroke:#181818;stroke-width:1.0;"/><path d="M364.0156,401.875 Q364.1719,401.6563 364.3594,401.5469 Q364.5469,401.4375 364.7656,401.4375 Q365.1406,401.4375 365.375,401.7031 Q365.6094,401.9531 365.6094,402.5625 L365.6094,404.0156 Q365.6094,404.625 365.375,404.8906 Q365.1406,405.1563 364.7656,405.1563 Q364.4219,405.1563 364.2188,404.9531 Q364.0156,404.7656 363.9063,404.25 Q363.8594,403.8906 363.6719,403.7031 Q363.3438,403.3281 362.7344,403.1094 Q362.125,402.8906 361.5,402.8906 Q360.7344,402.8906 360.0938,403.2188 Q359.4688,403.5469 358.9688,404.2969 Q358.4844,405.0469 358.4844,406.0781 L358.4844,407.1719 Q358.4844,408.4063 359.375,409.2344 Q360.2656,410.0469 361.8594,410.0469 Q362.7969,410.0469 363.4531,409.7969 Q363.8438,409.6406 364.2656,409.2031 Q364.5313,408.9375 364.6719,408.8594 Q364.8281,408.7813 365.0313,408.7813 Q365.3594,408.7813 365.6094,409.0469 Q365.875,409.2969 365.875,409.6406 Q365.875,409.9844 365.5313,410.3906 Q365.0313,410.9688 364.2344,411.2969 Q363.1563,411.75 361.8594,411.75 Q360.3438,411.75 359.1406,411.125 Q358.1563,410.625 357.4688,409.5625 Q356.7813,408.4844 356.7813,407.2031 L356.7813,406.0469 Q356.7813,404.7188 357.3906,403.5781 Q358.0156,402.4219 359.1094,401.8125 Q360.2031,401.1875 361.4375,401.1875 Q362.1719,401.1875 362.8125,401.3594 Q363.4688,401.5156 364.0156,401.875 Z " fill="#000000"/><text fill="#000000" font-family="FG Virgil" font-size="14" lengthAdjust="spacing" textLength="163" x="381.75" y="411.7969">ExamManagementService</text><line style="stroke:#181818;stroke-width:0.5;" x1="229" x2="665" y1="422" y2="422"/><rect fill="none" height="6" style="stroke:#C82930;stroke-width:1.0;" width="6" x="236" y="433.8105"/><text fill="#000000" font-family="FG Virgil" font-size="14" lengthAdjust="spacing" textLength="211" x="248" y="441.1074">examRepository: ExamRepository</text><rect fill="none" height="6" style="stroke:#C82930;stroke-width:1.0;" width="6" x="236" y="452.4316"/><text fill="#000000" font-family="FG Virgil" font-size="14" lengthAdjust="spacing" textLength="245" x="248" y="459.7285">teacherRepository: TeacherRepository</text><rect fill="none" height="6" style="stroke:#C82930;stroke-width:1.0;" width="6" x="236" y="471.0527"/><text fill="#000000" font-family="FG Virgil" font-size="14" lengthAdjust="spacing" textLength="233" x="248" y="478.3496">courseRepository: CourseRepository</text><line style="stroke:#181818;stroke-width:0.5;" x1="229" x2="665" y1="485.8633" y2="485.8633"/><ellipse cx="239" cy="500.6738" fill="#84BE84" rx="3" ry="3" style="stroke:#038048;stroke-width:1.0;"/><text fill="#000000" font-family="FG Virgil" font-size="14" lengthAdjust="spacing" textLength="172" x="248" y="504.9707">listCourses(): List&lt;Course&gt;</text><ellipse cx="239" cy="519.2949" fill="#84BE84" rx="3" ry="3" style="stroke:#038048;stroke-width:1.0;"/><text fill="#000000" font-family="FG Virgil" font-size="14" lengthAdjust="spacing" textLength="223" x="248" y="523.5918">validateExam(path: string): boolean</text><ellipse cx="239" cy="537.916" fill="#84BE84" rx="3" ry="3" style="stroke:#038048;stroke-width:1.0;"/><text fill="#000000" font-family="FG Virgil" font-size="14" lengthAdjust="spacing" textLength="230" x="248" y="542.2129">readFileToString(path: string): string</text><ellipse cx="239" cy="556.5371" fill="#84BE84" rx="3" ry="3" style="stroke:#038048;stroke-width:1.0;"/><text fill="#000000" font-family="FG Virgil" font-size="14" lengthAdjust="spacing" textLength="344" x="248" y="560.834">saveExam(selectedCourse: Course, exam: Exam): void</text><ellipse cx="239" cy="575.1582" fill="#84BE84" rx="3" ry="3" style="stroke:#038048;stroke-width:1.0;"/><text fill="#000000" font-family="FG Virgil" font-size="14" lengthAdjust="spacing" textLength="412" x="248" y="579.4551">createExamFromPath(path: string, selectedCourse: Course): void</text></g><!--class AuthzRegistry--><g id="elem_AuthzRegistry"><rect codeLine="37" fill="#F1F1F1" height="66.6211" id="AuthzRegistry" rx="2.5" ry="2.5" style="stroke:#181818;stroke-width:0.5;" width="198" x="146" y="684"/><ellipse cx="197.25" cy="700" fill="#ADD1B2" rx="11" ry="11" style="stroke:#181818;stroke-width:1.0;"/><path d="M200.0156,695.875 Q200.1719,695.6563 200.3594,695.5469 Q200.5469,695.4375 200.7656,695.4375 Q201.1406,695.4375 201.375,695.7031 Q201.6094,695.9531 201.6094,696.5625 L201.6094,698.0156 Q201.6094,698.625 201.375,698.8906 Q201.1406,699.1563 200.7656,699.1563 Q200.4219,699.1563 200.2188,698.9531 Q200.0156,698.7656 199.9063,698.25 Q199.8594,697.8906 199.6719,697.7031 Q199.3438,697.3281 198.7344,697.1094 Q198.125,696.8906 197.5,696.8906 Q196.7344,696.8906 196.0938,697.2188 Q195.4688,697.5469 194.9688,698.2969 Q194.4844,699.0469 194.4844,700.0781 L194.4844,701.1719 Q194.4844,702.4063 195.375,703.2344 Q196.2656,704.0469 197.8594,704.0469 Q198.7969,704.0469 199.4531,703.7969 Q199.8438,703.6406 200.2656,703.2031 Q200.5313,702.9375 200.6719,702.8594 Q200.8281,702.7813 201.0313,702.7813 Q201.3594,702.7813 201.6094,703.0469 Q201.875,703.2969 201.875,703.6406 Q201.875,703.9844 201.5313,704.3906 Q201.0313,704.9688 200.2344,705.2969 Q199.1563,705.75 197.8594,705.75 Q196.3438,705.75 195.1406,705.125 Q194.1563,704.625 193.4688,703.5625 Q192.7813,702.4844 192.7813,701.2031 L192.7813,700.0469 Q192.7813,698.7188 193.3906,697.5781 Q194.0156,696.4219 195.1094,695.8125 Q196.2031,695.1875 197.4375,695.1875 Q198.1719,695.1875 198.8125,695.3594 Q199.4688,695.5156 200.0156,695.875 Z " fill="#000000"/><text fill="#000000" font-family="FG Virgil" font-size="14" lengthAdjust="spacing" textLength="87" x="217.75" y="705.7969">AuthzRegistry</text><line style="stroke:#181818;stroke-width:0.5;" x1="147" x2="343" y1="716" y2="716"/><line style="stroke:#181818;stroke-width:0.5;" x1="147" x2="343" y1="724" y2="724"/><ellipse cx="157" cy="738.8105" fill="#84BE84" rx="3" ry="3" style="stroke:#038048;stroke-width:1.0;"/><text fill="#000000" font-family="FG Virgil" font-size="14" lengthAdjust="spacing" textLength="172" x="166" y="743.1074">authorizationService(): void</text></g><!--class Exam--><g id="elem_Exam"><rect codeLine="41" fill="#F1F1F1" height="141.1055" id="Exam" rx="2.5" ry="2.5" style="stroke:#181818;stroke-width:0.5;" width="135" x="379.5" y="647"/><ellipse cx="425.75" cy="663" fill="#ADD1B2" rx="11" ry="11" style="stroke:#181818;stroke-width:1.0;"/><path d="M428.5156,658.875 Q428.6719,658.6563 428.8594,658.5469 Q429.0469,658.4375 429.2656,658.4375 Q429.6406,658.4375 429.875,658.7031 Q430.1094,658.9531 430.1094,659.5625 L430.1094,661.0156 Q430.1094,661.625 429.875,661.8906 Q429.6406,662.1563 429.2656,662.1563 Q428.9219,662.1563 428.7188,661.9531 Q428.5156,661.7656 428.4063,661.25 Q428.3594,660.8906 428.1719,660.7031 Q427.8438,660.3281 427.2344,660.1094 Q426.625,659.8906 426,659.8906 Q425.2344,659.8906 424.5938,660.2188 Q423.9688,660.5469 423.4688,661.2969 Q422.9844,662.0469 422.9844,663.0781 L422.9844,664.1719 Q422.9844,665.4063 423.875,666.2344 Q424.7656,667.0469 426.3594,667.0469 Q427.2969,667.0469 427.9531,666.7969 Q428.3438,666.6406 428.7656,666.2031 Q429.0313,665.9375 429.1719,665.8594 Q429.3281,665.7813 429.5313,665.7813 Q429.8594,665.7813 430.1094,666.0469 Q430.375,666.2969 430.375,666.6406 Q430.375,666.9844 430.0313,667.3906 Q429.5313,667.9688 428.7344,668.2969 Q427.6563,668.75 426.3594,668.75 Q424.8438,668.75 423.6406,668.125 Q422.6563,667.625 421.9688,666.5625 Q421.2813,665.4844 421.2813,664.2031 L421.2813,663.0469 Q421.2813,661.7188 421.8906,660.5781 Q422.5156,659.4219 423.6094,658.8125 Q424.7031,658.1875 425.9375,658.1875 Q426.6719,658.1875 427.3125,658.3594 Q427.9688,658.5156 428.5156,658.875 Z " fill="#000000"/><text fill="#000000" font-family="FG Virgil" font-size="14" lengthAdjust="spacing" textLength="34" x="446.25" y="668.7969">Exam</text><line style="stroke:#181818;stroke-width:0.5;" x1="380.5" x2="513.5" y1="679" y2="679"/><rect fill="none" height="6" style="stroke:#C82930;stroke-width:1.0;" width="6" x="387.5" y="690.8105"/><text fill="#000000" font-family="FG Virgil" font-size="14" lengthAdjust="spacing" textLength="34" x="399.5" y="698.1074">id: int</text><rect fill="none" height="6" style="stroke:#C82930;stroke-width:1.0;" width="6" x="387.5" y="709.4316"/><text fill="#000000" font-family="FG Virgil" font-size="14" lengthAdjust="spacing" textLength="101" x="399.5" y="716.7285">type: ExamType</text><rect fill="none" height="6" style="stroke:#C82930;stroke-width:1.0;" width="6" x="387.5" y="728.0527"/><text fill="#000000" font-family="FG Virgil" font-size="14" lengthAdjust="spacing" textLength="65" x="399.5" y="735.3496">text: string</text><rect fill="none" height="6" style="stroke:#C82930;stroke-width:1.0;" width="6" x="387.5" y="746.6738"/><text fill="#000000" font-family="FG Virgil" font-size="14" lengthAdjust="spacing" textLength="97" x="399.5" y="753.9707">course: Course</text><rect fill="none" height="6" style="stroke:#C82930;stroke-width:1.0;" width="6" x="387.5" y="765.2949"/><text fill="#000000" font-family="FG Virgil" font-size="14" lengthAdjust="spacing" textLength="109" x="399.5" y="772.5918">teacher: Teacher</text><line style="stroke:#181818;stroke-width:0.5;" x1="380.5" x2="513.5" y1="780.1055" y2="780.1055"/></g><!--class Course--><g id="elem_Course"><rect codeLine="49" fill="#F1F1F1" height="85.2422" id="Course" rx="2.5" ry="2.5" style="stroke:#181818;stroke-width:0.5;" width="104" x="550" y="675"/><ellipse cx="576.7" cy="691" fill="#ADD1B2" rx="11" ry="11" style="stroke:#181818;stroke-width:1.0;"/><path d="M579.4656,686.875 Q579.6219,686.6563 579.8094,686.5469 Q579.9969,686.4375 580.2156,686.4375 Q580.5906,686.4375 580.825,686.7031 Q581.0594,686.9531 581.0594,687.5625 L581.0594,689.0156 Q581.0594,689.625 580.825,689.8906 Q580.5906,690.1563 580.2156,690.1563 Q579.8719,690.1563 579.6688,689.9531 Q579.4656,689.7656 579.3563,689.25 Q579.3094,688.8906 579.1219,688.7031 Q578.7938,688.3281 578.1844,688.1094 Q577.575,687.8906 576.95,687.8906 Q576.1844,687.8906 575.5438,688.2188 Q574.9188,688.5469 574.4188,689.2969 Q573.9344,690.0469 573.9344,691.0781 L573.9344,692.1719 Q573.9344,693.4063 574.825,694.2344 Q575.7156,695.0469 577.3094,695.0469 Q578.2469,695.0469 578.9031,694.7969 Q579.2938,694.6406 579.7156,694.2031 Q579.9813,693.9375 580.1219,693.8594 Q580.2781,693.7813 580.4813,693.7813 Q580.8094,693.7813 581.0594,694.0469 Q581.325,694.2969 581.325,694.6406 Q581.325,694.9844 580.9813,695.3906 Q580.4813,695.9688 579.6844,696.2969 Q578.6063,696.75 577.3094,696.75 Q575.7938,696.75 574.5906,696.125 Q573.6063,695.625 572.9188,694.5625 Q572.2313,693.4844 572.2313,692.2031 L572.2313,691.0469 Q572.2313,689.7188 572.8406,688.5781 Q573.4656,687.4219 574.5594,686.8125 Q575.6531,686.1875 576.8875,686.1875 Q577.6219,686.1875 578.2625,686.3594 Q578.9188,686.5156 579.4656,686.875 Z " fill="#000000"/><text fill="#000000" font-family="FG Virgil" font-size="14" lengthAdjust="spacing" textLength="46" x="593.3" y="696.7969">Course</text><line style="stroke:#181818;stroke-width:0.5;" x1="551" x2="653" y1="707" y2="707"/><rect fill="none" height="6" style="stroke:#C82930;stroke-width:1.0;" width="6" x="558" y="718.8105"/><text fill="#000000" font-family="FG Virgil" font-size="14" lengthAdjust="spacing" textLength="34" x="570" y="726.1074">id: int</text><rect fill="none" height="6" style="stroke:#C82930;stroke-width:1.0;" width="6" x="558" y="737.4316"/><text fill="#000000" font-family="FG Virgil" font-size="14" lengthAdjust="spacing" textLength="78" x="570" y="744.7285">name: string</text><line style="stroke:#181818;stroke-width:0.5;" x1="551" x2="653" y1="752.2422" y2="752.2422"/></g><!--class PersistenceContext--><g id="elem_PersistenceContext"><rect codeLine="54" fill="#F1F1F1" height="66.6211" id="PersistenceContext" rx="2.5" ry="2.5" style="stroke:#181818;stroke-width:0.5;" width="296" x="689" y="684"/><ellipse cx="771.75" cy="700" fill="#B4A7E5" rx="11" ry="11" style="stroke:#181818;stroke-width:1.0;"/><path d="M772.7031,696.6406 L772.7031,703.2969 L774.4219,703.2969 Q775.0313,703.2969 775.2969,703.5313 Q775.5625,703.7656 775.5625,704.1563 Q775.5625,704.5313 775.2969,704.7656 Q775.0313,705 774.4219,705 L769.2813,705 Q768.6719,705 768.4063,704.7656 Q768.1406,704.5313 768.1406,704.1406 Q768.1406,703.7656 768.4063,703.5313 Q768.6719,703.2969 769.2813,703.2969 L771,703.2969 L771,696.6406 L769.2813,696.6406 Q768.6719,696.6406 768.4063,696.4063 Q768.1406,696.1719 768.1406,695.7813 Q768.1406,695.4063 768.4063,695.1719 Q768.6719,694.9375 769.2813,694.9375 L774.4219,694.9375 Q775.0313,694.9375 775.2969,695.1719 Q775.5625,695.4063 775.5625,695.7813 Q775.5625,696.1719 775.2969,696.4063 Q775.0313,696.6406 774.4219,696.6406 L772.7031,696.6406 Z " fill="#000000"/><text fill="#000000" font-family="FG Virgil" font-size="14" font-style="italic" lengthAdjust="spacing" textLength="122" x="792.25" y="705.7969">PersistenceContext</text><line style="stroke:#181818;stroke-width:0.5;" x1="690" x2="984" y1="716" y2="716"/><line style="stroke:#181818;stroke-width:0.5;" x1="690" x2="984" y1="724" y2="724"/><ellipse cx="700" cy="738.8105" fill="#84BE84" rx="3" ry="3" style="stroke:#038048;stroke-width:1.0;"/><text fill="#000000" font-family="FG Virgil" font-size="14" lengthAdjust="spacing" textLength="270" x="709" y="743.1074">getRepositoryFactory(): RepositoryFactory</text></g><!--class RepositoryFactory--><g id="elem_RepositoryFactory"><rect codeLine="58" fill="#F1F1F1" height="103.8633" id="RepositoryFactory" rx="2.5" ry="2.5" style="stroke:#181818;stroke-width:0.5;" width="281" x="696.5" y="848"/><ellipse cx="774.75" cy="864" fill="#B4A7E5" rx="11" ry="11" style="stroke:#181818;stroke-width:1.0;"/><path d="M775.7031,860.6406 L775.7031,867.2969 L777.4219,867.2969 Q778.0313,867.2969 778.2969,867.5313 Q778.5625,867.7656 778.5625,868.1563 Q778.5625,868.5313 778.2969,868.7656 Q778.0313,869 777.4219,869 L772.2813,869 Q771.6719,869 771.4063,868.7656 Q771.1406,868.5313 771.1406,868.1406 Q771.1406,867.7656 771.4063,867.5313 Q771.6719,867.2969 772.2813,867.2969 L774,867.2969 L774,860.6406 L772.2813,860.6406 Q771.6719,860.6406 771.4063,860.4063 Q771.1406,860.1719 771.1406,859.7813 Q771.1406,859.4063 771.4063,859.1719 Q771.6719,858.9375 772.2813,858.9375 L777.4219,858.9375 Q778.0313,858.9375 778.2969,859.1719 Q778.5625,859.4063 778.5625,859.7813 Q778.5625,860.1719 778.2969,860.4063 Q778.0313,860.6406 777.4219,860.6406 L775.7031,860.6406 Z " fill="#000000"/><text fill="#000000" font-family="FG Virgil" font-size="14" font-style="italic" lengthAdjust="spacing" textLength="116" x="795.25" y="869.7969">RepositoryFactory</text><line style="stroke:#181818;stroke-width:0.5;" x1="697.5" x2="976.5" y1="880" y2="880"/><line style="stroke:#181818;stroke-width:0.5;" x1="697.5" x2="976.5" y1="888" y2="888"/><ellipse cx="707.5" cy="902.8105" fill="#84BE84" rx="3" ry="3" style="stroke:#038048;stroke-width:1.0;"/><text fill="#000000" font-family="FG Virgil" font-size="14" lengthAdjust="spacing" textLength="243" x="716.5" y="907.1074">courseRepository(): CourseRepository</text><ellipse cx="707.5" cy="921.4316" fill="#84BE84" rx="3" ry="3" style="stroke:#038048;stroke-width:1.0;"/><text fill="#000000" font-family="FG Virgil" font-size="14" lengthAdjust="spacing" textLength="221" x="716.5" y="925.7285">examRepository(): ExamRepository</text><ellipse cx="707.5" cy="940.0527" fill="#84BE84" rx="3" ry="3" style="stroke:#038048;stroke-width:1.0;"/><text fill="#000000" font-family="FG Virgil" font-size="14" lengthAdjust="spacing" textLength="255" x="716.5" y="944.3496">teacherRepository(): TeacherRepository</text></g><!--class ExamRepository--><g id="elem_ExamRepository"><rect codeLine="64" fill="#F1F1F1" height="66.6211" id="ExamRepository" rx="2.5" ry="2.5" style="stroke:#181818;stroke-width:0.5;" width="175" x="477.5" y="1012"/><ellipse cx="510.95" cy="1028" fill="#B4A7E5" rx="11" ry="11" style="stroke:#181818;stroke-width:1.0;"/><path d="M511.9031,1024.6406 L511.9031,1031.2969 L513.6219,1031.2969 Q514.2313,1031.2969 514.4969,1031.5313 Q514.7625,1031.7656 514.7625,1032.1563 Q514.7625,1032.5313 514.4969,1032.7656 Q514.2313,1033 513.6219,1033 L508.4813,1033 Q507.8719,1033 507.6063,1032.7656 Q507.3406,1032.5313 507.3406,1032.1406 Q507.3406,1031.7656 507.6063,1031.5313 Q507.8719,1031.2969 508.4813,1031.2969 L510.2,1031.2969 L510.2,1024.6406 L508.4813,1024.6406 Q507.8719,1024.6406 507.6063,1024.4063 Q507.3406,1024.1719 507.3406,1023.7813 Q507.3406,1023.4063 507.6063,1023.1719 Q507.8719,1022.9375 508.4813,1022.9375 L513.6219,1022.9375 Q514.2313,1022.9375 514.4969,1023.1719 Q514.7625,1023.4063 514.7625,1023.7813 Q514.7625,1024.1719 514.4969,1024.4063 Q514.2313,1024.6406 513.6219,1024.6406 L511.9031,1024.6406 Z " fill="#000000"/><text fill="#000000" font-family="FG Virgil" font-size="14" font-style="italic" lengthAdjust="spacing" textLength="102" x="529.05" y="1033.7969">ExamRepository</text><line style="stroke:#181818;stroke-width:0.5;" x1="478.5" x2="651.5" y1="1044" y2="1044"/><line style="stroke:#181818;stroke-width:0.5;" x1="478.5" x2="651.5" y1="1052" y2="1052"/><ellipse cx="488.5" cy="1066.8105" fill="#84BE84" rx="3" ry="3" style="stroke:#038048;stroke-width:1.0;"/><text fill="#000000" font-family="FG Virgil" font-size="14" lengthAdjust="spacing" textLength="149" x="497.5" y="1071.1074">save(exam: Exam): void</text></g><!--class TeacherRepository--><g id="elem_TeacherRepository"><rect codeLine="68" fill="#F1F1F1" height="66.6211" id="TeacherRepository" rx="2.5" ry="2.5" style="stroke:#181818;stroke-width:0.5;" width="299" x="687.5" y="1012"/><ellipse cx="772.25" cy="1028" fill="#B4A7E5" rx="11" ry="11" style="stroke:#181818;stroke-width:1.0;"/><path d="M773.2031,1024.6406 L773.2031,1031.2969 L774.9219,1031.2969 Q775.5313,1031.2969 775.7969,1031.5313 Q776.0625,1031.7656 776.0625,1032.1563 Q776.0625,1032.5313 775.7969,1032.7656 Q775.5313,1033 774.9219,1033 L769.7813,1033 Q769.1719,1033 768.9063,1032.7656 Q768.6406,1032.5313 768.6406,1032.1406 Q768.6406,1031.7656 768.9063,1031.5313 Q769.1719,1031.2969 769.7813,1031.2969 L771.5,1031.2969 L771.5,1024.6406 L769.7813,1024.6406 Q769.1719,1024.6406 768.9063,1024.4063 Q768.6406,1024.1719 768.6406,1023.7813 Q768.6406,1023.4063 768.9063,1023.1719 Q769.1719,1022.9375 769.7813,1022.9375 L774.9219,1022.9375 Q775.5313,1022.9375 775.7969,1023.1719 Q776.0625,1023.4063 776.0625,1023.7813 Q776.0625,1024.1719 775.7969,1024.4063 Q775.5313,1024.6406 774.9219,1024.6406 L773.2031,1024.6406 Z " fill="#000000"/><text fill="#000000" font-family="FG Virgil" font-size="14" font-style="italic" lengthAdjust="spacing" textLength="121" x="792.75" y="1033.7969">TeacherRepository</text><line style="stroke:#181818;stroke-width:0.5;" x1="688.5" x2="985.5" y1="1044" y2="1044"/><line style="stroke:#181818;stroke-width:0.5;" x1="688.5" x2="985.5" y1="1052" y2="1052"/><ellipse cx="698.5" cy="1066.8105" fill="#84BE84" rx="3" ry="3" style="stroke:#038048;stroke-width:1.0;"/><text fill="#000000" font-family="FG Virgil" font-size="14" lengthAdjust="spacing" textLength="273" x="707.5" y="1071.1074">findTeacherByEmail(email: string): Teacher</text></g><!--class CourseRepository--><g id="elem_CourseRepository"><rect codeLine="72" fill="#F1F1F1" height="66.6211" id="CourseRepository" rx="2.5" ry="2.5" style="stroke:#181818;stroke-width:0.5;" width="197" x="1021.5" y="1012"/><ellipse cx="1059.45" cy="1028" fill="#B4A7E5" rx="11" ry="11" style="stroke:#181818;stroke-width:1.0;"/><path d="M1060.4031,1024.6406 L1060.4031,1031.2969 L1062.1219,1031.2969 Q1062.7313,1031.2969 1062.9969,1031.5313 Q1063.2625,1031.7656 1063.2625,1032.1563 Q1063.2625,1032.5313 1062.9969,1032.7656 Q1062.7313,1033 1062.1219,1033 L1056.9813,1033 Q1056.3719,1033 1056.1063,1032.7656 Q1055.8406,1032.5313 1055.8406,1032.1406 Q1055.8406,1031.7656 1056.1063,1031.5313 Q1056.3719,1031.2969 1056.9813,1031.2969 L1058.7,1031.2969 L1058.7,1024.6406 L1056.9813,1024.6406 Q1056.3719,1024.6406 1056.1063,1024.4063 Q1055.8406,1024.1719 1055.8406,1023.7813 Q1055.8406,1023.4063 1056.1063,1023.1719 Q1056.3719,1022.9375 1056.9813,1022.9375 L1062.1219,1022.9375 Q1062.7313,1022.9375 1062.9969,1023.1719 Q1063.2625,1023.4063 1063.2625,1023.7813 Q1063.2625,1024.1719 1062.9969,1024.4063 Q1062.7313,1024.6406 1062.1219,1024.6406 L1060.4031,1024.6406 Z " fill="#000000"/><text fill="#000000" font-family="FG Virgil" font-size="14" font-style="italic" lengthAdjust="spacing" textLength="114" x="1078.55" y="1033.7969">CourseRepository</text><line style="stroke:#181818;stroke-width:0.5;" x1="1022.5" x2="1217.5" y1="1044" y2="1044"/><line style="stroke:#181818;stroke-width:0.5;" x1="1022.5" x2="1217.5" y1="1052" y2="1052"/><ellipse cx="1032.5" cy="1066.8105" fill="#84BE84" rx="3" ry="3" style="stroke:#038048;stroke-width:1.0;"/><text fill="#000000" font-family="FG Virgil" font-size="14" lengthAdjust="spacing" textLength="171" x="1041.5" y="1071.1074">save(course: Course): void</text></g><!--class JPAExamRepository--><g id="elem_JPAExamRepository"><rect codeLine="76" fill="#F1F1F1" height="66.6211" id="JPAExamRepository" rx="2.5" ry="2.5" style="stroke:#181818;stroke-width:0.5;" width="175" x="477.5" y="1139"/><ellipse cx="500.15" cy="1155" fill="#ADD1B2" rx="11" ry="11" style="stroke:#181818;stroke-width:1.0;"/><path d="M502.9156,1150.875 Q503.0719,1150.6563 503.2594,1150.5469 Q503.4469,1150.4375 503.6656,1150.4375 Q504.0406,1150.4375 504.275,1150.7031 Q504.5094,1150.9531 504.5094,1151.5625 L504.5094,1153.0156 Q504.5094,1153.625 504.275,1153.8906 Q504.0406,1154.1563 503.6656,1154.1563 Q503.3219,1154.1563 503.1188,1153.9531 Q502.9156,1153.7656 502.8063,1153.25 Q502.7594,1152.8906 502.5719,1152.7031 Q502.2438,1152.3281 501.6344,1152.1094 Q501.025,1151.8906 500.4,1151.8906 Q499.6344,1151.8906 498.9938,1152.2188 Q498.3688,1152.5469 497.8688,1153.2969 Q497.3844,1154.0469 497.3844,1155.0781 L497.3844,1156.1719 Q497.3844,1157.4063 498.275,1158.2344 Q499.1656,1159.0469 500.7594,1159.0469 Q501.6969,1159.0469 502.3531,1158.7969 Q502.7438,1158.6406 503.1656,1158.2031 Q503.4313,1157.9375 503.5719,1157.8594 Q503.7281,1157.7813 503.9313,1157.7813 Q504.2594,1157.7813 504.5094,1158.0469 Q504.775,1158.2969 504.775,1158.6406 Q504.775,1158.9844 504.4313,1159.3906 Q503.9313,1159.9688 503.1344,1160.2969 Q502.0563,1160.75 500.7594,1160.75 Q499.2438,1160.75 498.0406,1160.125 Q497.0563,1159.625 496.3688,1158.5625 Q495.6813,1157.4844 495.6813,1156.2031 L495.6813,1155.0469 Q495.6813,1153.7188 496.2906,1152.5781 Q496.9156,1151.4219 498.0094,1150.8125 Q499.1031,1150.1875 500.3375,1150.1875 Q501.0719,1150.1875 501.7125,1150.3594 Q502.3688,1150.5156 502.9156,1150.875 Z " fill="#000000"/><text fill="#000000" font-family="FG Virgil" font-size="14" lengthAdjust="spacing" textLength="126" x="515.85" y="1160.7969">JPAExamRepository</text><line style="stroke:#181818;stroke-width:0.5;" x1="478.5" x2="651.5" y1="1171" y2="1171"/><line style="stroke:#181818;stroke-width:0.5;" x1="478.5" x2="651.5" y1="1179" y2="1179"/><ellipse cx="488.5" cy="1193.8105" fill="#84BE84" rx="3" ry="3" style="stroke:#038048;stroke-width:1.0;"/><text fill="#000000" font-family="FG Virgil" font-size="14" lengthAdjust="spacing" textLength="149" x="497.5" y="1198.1074">save(exam: Exam): void</text></g><!--class JPATeacherRepository--><g id="elem_JPATeacherRepository"><rect codeLine="80" fill="#F1F1F1" height="66.6211" id="JPATeacherRepository" rx="2.5" ry="2.5" style="stroke:#181818;stroke-width:0.5;" width="299" x="687.5" y="1139"/><ellipse cx="760.25" cy="1155" fill="#ADD1B2" rx="11" ry="11" style="stroke:#181818;stroke-width:1.0;"/><path d="M763.0156,1150.875 Q763.1719,1150.6563 763.3594,1150.5469 Q763.5469,1150.4375 763.7656,1150.4375 Q764.1406,1150.4375 764.375,1150.7031 Q764.6094,1150.9531 764.6094,1151.5625 L764.6094,1153.0156 Q764.6094,1153.625 764.375,1153.8906 Q764.1406,1154.1563 763.7656,1154.1563 Q763.4219,1154.1563 763.2188,1153.9531 Q763.0156,1153.7656 762.9063,1153.25 Q762.8594,1152.8906 762.6719,1152.7031 Q762.3438,1152.3281 761.7344,1152.1094 Q761.125,1151.8906 760.5,1151.8906 Q759.7344,1151.8906 759.0938,1152.2188 Q758.4688,1152.5469 757.9688,1153.2969 Q757.4844,1154.0469 757.4844,1155.0781 L757.4844,1156.1719 Q757.4844,1157.4063 758.375,1158.2344 Q759.2656,1159.0469 760.8594,1159.0469 Q761.7969,1159.0469 762.4531,1158.7969 Q762.8438,1158.6406 763.2656,1158.2031 Q763.5313,1157.9375 763.6719,1157.8594 Q763.8281,1157.7813 764.0313,1157.7813 Q764.3594,1157.7813 764.6094,1158.0469 Q764.875,1158.2969 764.875,1158.6406 Q764.875,1158.9844 764.5313,1159.3906 Q764.0313,1159.9688 763.2344,1160.2969 Q762.1563,1160.75 760.8594,1160.75 Q759.3438,1160.75 758.1406,1160.125 Q757.1563,1159.625 756.4688,1158.5625 Q755.7813,1157.4844 755.7813,1156.2031 L755.7813,1155.0469 Q755.7813,1153.7188 756.3906,1152.5781 Q757.0156,1151.4219 758.1094,1150.8125 Q759.2031,1150.1875 760.4375,1150.1875 Q761.1719,1150.1875 761.8125,1150.3594 Q762.4688,1150.5156 763.0156,1150.875 Z " fill="#000000"/><text fill="#000000" font-family="FG Virgil" font-size="14" lengthAdjust="spacing" textLength="145" x="780.75" y="1160.7969">JPATeacherRepository</text><line style="stroke:#181818;stroke-width:0.5;" x1="688.5" x2="985.5" y1="1171" y2="1171"/><line style="stroke:#181818;stroke-width:0.5;" x1="688.5" x2="985.5" y1="1179" y2="1179"/><ellipse cx="698.5" cy="1193.8105" fill="#84BE84" rx="3" ry="3" style="stroke:#038048;stroke-width:1.0;"/><text fill="#000000" font-family="FG Virgil" font-size="14" lengthAdjust="spacing" textLength="273" x="707.5" y="1198.1074">findTeacherByEmail(email: string): Teacher</text></g><!--class JPACourseRepository--><g id="elem_JPACourseRepository"><rect codeLine="84" fill="#F1F1F1" height="66.6211" id="JPACourseRepository" rx="2.5" ry="2.5" style="stroke:#181818;stroke-width:0.5;" width="197" x="1021.5" y="1139"/><ellipse cx="1048.65" cy="1155" fill="#ADD1B2" rx="11" ry="11" style="stroke:#181818;stroke-width:1.0;"/><path d="M1051.4156,1150.875 Q1051.5719,1150.6563 1051.7594,1150.5469 Q1051.9469,1150.4375 1052.1656,1150.4375 Q1052.5406,1150.4375 1052.775,1150.7031 Q1053.0094,1150.9531 1053.0094,1151.5625 L1053.0094,1153.0156 Q1053.0094,1153.625 1052.775,1153.8906 Q1052.5406,1154.1563 1052.1656,1154.1563 Q1051.8219,1154.1563 1051.6188,1153.9531 Q1051.4156,1153.7656 1051.3063,1153.25 Q1051.2594,1152.8906 1051.0719,1152.7031 Q1050.7438,1152.3281 1050.1344,1152.1094 Q1049.525,1151.8906 1048.9,1151.8906 Q1048.1344,1151.8906 1047.4938,1152.2188 Q1046.8688,1152.5469 1046.3688,1153.2969 Q1045.8844,1154.0469 1045.8844,1155.0781 L1045.8844,1156.1719 Q1045.8844,1157.4063 1046.775,1158.2344 Q1047.6656,1159.0469 1049.2594,1159.0469 Q1050.1969,1159.0469 1050.8531,1158.7969 Q1051.2438,1158.6406 1051.6656,1158.2031 Q1051.9313,1157.9375 1052.0719,1157.8594 Q1052.2281,1157.7813 1052.4313,1157.7813 Q1052.7594,1157.7813 1053.0094,1158.0469 Q1053.275,1158.2969 1053.275,1158.6406 Q1053.275,1158.9844 1052.9313,1159.3906 Q1052.4313,1159.9688 1051.6344,1160.2969 Q1050.5563,1160.75 1049.2594,1160.75 Q1047.7438,1160.75 1046.5406,1160.125 Q1045.5563,1159.625 1044.8688,1158.5625 Q1044.1813,1157.4844 1044.1813,1156.2031 L1044.1813,1155.0469 Q1044.1813,1153.7188 1044.7906,1152.5781 Q1045.4156,1151.4219 1046.5094,1150.8125 Q1047.6031,1150.1875 1048.8375,1150.1875 Q1049.5719,1150.1875 1050.2125,1150.3594 Q1050.8688,1150.5156 1051.4156,1150.875 Z " fill="#000000"/><text fill="#000000" font-family="FG Virgil" font-size="14" lengthAdjust="spacing" textLength="138" x="1065.35" y="1160.7969">JPACourseRepository</text><line style="stroke:#181818;stroke-width:0.5;" x1="1022.5" x2="1217.5" y1="1171" y2="1171"/><line style="stroke:#181818;stroke-width:0.5;" x1="1022.5" x2="1217.5" y1="1179" y2="1179"/><ellipse cx="1032.5" cy="1193.8105" fill="#84BE84" rx="3" ry="3" style="stroke:#038048;stroke-width:1.0;"/><text fill="#000000" font-family="FG Virgil" font-size="14" lengthAdjust="spacing" textLength="171" x="1041.5" y="1198.1074">save(course: Course): void</text></g><!--link CreateExamUI to CreateExamController--><g id="link_CreateExamUI_CreateExamController"><path codeLine="88" d="M447,129.22 C447,146.56 447,165.68 447,183.78 " fill="none" id="CreateExamUI-to-CreateExamController" style="stroke:#181818;stroke-width:1.0;stroke-dasharray:7.0,7.0;"/><polygon fill="#181818" points="447,188.85,451,179.85,447,183.85,443,179.85,447,188.85" style="stroke:#181818;stroke-width:1.0;"/></g><!--link CreateExamController to ExamManagementService--><g id="link_CreateExamController_ExamManagementService"><path codeLine="89" d="M447,330.15 C447,347.42 447,366.3 447,384.79 " fill="none" id="CreateExamController-to-ExamManagementService" style="stroke:#181818;stroke-width:1.0;"/><polygon fill="#181818" points="447,389.99,451,380.99,447,384.99,443,380.99,447,389.99" style="stroke:#181818;stroke-width:1.0;"/></g><!--link ExamManagementService to AuthzRegistry--><g id="link_ExamManagementService_AuthzRegistry"><path codeLine="91" d="M360.16,587.09 C330.83,620.05 299.87,654.84 277.45,680.04 " fill="none" id="ExamManagementService-to-AuthzRegistry" style="stroke:#181818;stroke-width:1.0;"/><polygon fill="#181818" points="273.92,684,282.8976,679.9499,277.2498,680.2701,276.9297,674.6223,273.92,684" style="stroke:#181818;stroke-width:1.0;"/></g><!--link ExamManagementService to PersistenceContext--><g id="link_ExamManagementService_PersistenceContext"><path codeLine="92" d="M614.66,587.09 C672.34,620.66 733.28,656.13 776.75,681.43 " fill="none" id="ExamManagementService-to-PersistenceContext" style="stroke:#181818;stroke-width:1.0;"/><polygon fill="#181818" points="781.16,684,775.3867,676.0207,776.8365,681.4886,771.3685,682.9384,781.16,684" style="stroke:#181818;stroke-width:1.0;"/></g><!--link ExamManagementService to Course--><g id="link_ExamManagementService_Course"><path codeLine="94" d="M513.63,587.09 C533.41,616.05 554.15,646.42 570.56,670.45 " fill="none" id="ExamManagementService-to-Course" style="stroke:#181818;stroke-width:1.0;"/><polygon fill="#181818" points="573.57,674.86,571.8059,665.1704,570.7538,670.7286,565.1956,669.6764,573.57,674.86" style="stroke:#181818;stroke-width:1.0;"/></g><!--link ExamManagementService to Exam--><g id="link_ExamManagementService_Exam"><path codeLine="95" d="M447,587.09 C447,605.27 447,624.01 447,641.4 " fill="none" id="ExamManagementService-to-Exam" style="stroke:#181818;stroke-width:1.0;"/><polygon fill="#181818" points="447,646.74,451,637.74,447,641.74,443,637.74,447,646.74" style="stroke:#181818;stroke-width:1.0;"/></g><!--link ExamManagementService to Teacher--><g id="link_ExamManagementService_Teacher"><path codeLine="96" d="M227.78,585.67 C193.26,604.19 158.83,624.81 128,647 C121.71,651.52 115.48,656.64 109.48,661.99 " fill="none" id="ExamManagementService-to-Teacher" style="stroke:#181818;stroke-width:1.0;"/><polygon fill="#181818" points="105.78,665.35,115.1325,662.2629,109.4823,661.9895,109.7557,656.3392,105.78,665.35" style="stroke:#181818;stroke-width:1.0;"/></g><!--link PersistenceContext to RepositoryFactory--><g id="link_PersistenceContext_RepositoryFactory"><path codeLine="97" d="M837,751.19 C837,776.64 837,812.57 837,842.63 " fill="none" id="PersistenceContext-to-RepositoryFactory" style="stroke:#181818;stroke-width:1.0;"/><polygon fill="#181818" points="837,847.79,841,838.79,837,842.79,833,838.79,837,847.79" style="stroke:#181818;stroke-width:1.0;"/></g><!--link RepositoryFactory to ExamRepository--><g id="link_RepositoryFactory_ExamRepository"><path codeLine="99" d="M739.95,952.2 C704.04,971.15 664.16,992.19 631.56,1009.39 " fill="none" id="RepositoryFactory-to-ExamRepository" style="stroke:#181818;stroke-width:1.0;"/><polygon fill="#181818" points="626.8,1011.89,636.6275,1011.2419,631.2255,1009.563,632.9044,1004.161,626.8,1011.89" style="stroke:#181818;stroke-width:1.0;"/></g><!--link RepositoryFactory to TeacherRepository--><g id="link_RepositoryFactory_TeacherRepository"><path codeLine="100" d="M837,952.4 C837,970.33 837,990.11 837,1006.72 " fill="none" id="RepositoryFactory-to-TeacherRepository" style="stroke:#181818;stroke-width:1.0;"/><polygon fill="#181818" points="837,1011.77,841,1002.77,837,1006.77,833,1002.77,837,1011.77" style="stroke:#181818;stroke-width:1.0;"/></g><!--link RepositoryFactory to CourseRepository--><g id="link_RepositoryFactory_CourseRepository"><path codeLine="101" d="M937.97,952.2 C975.49,971.23 1017.17,992.36 1051.17,1009.6 " fill="none" id="RepositoryFactory-to-CourseRepository" style="stroke:#181818;stroke-width:1.0;"/><polygon fill="#181818" points="1055.7,1011.89,1049.478,1004.2554,1051.2394,1009.6311,1045.8637,1011.3925,1055.7,1011.89" style="stroke:#181818;stroke-width:1.0;"/></g><!--link ExamRepository to JPAExamRepository--><g id="link_ExamRepository_JPAExamRepository"><path codeLine="104" d="M565,1079.02 C565,1095.67 565,1116.04 565,1133.42 " fill="none" id="ExamRepository-to-JPAExamRepository" style="stroke:#181818;stroke-width:1.0;"/><polygon fill="#181818" points="565,1138.71,569,1129.71,565,1133.71,561,1129.71,565,1138.71" style="stroke:#181818;stroke-width:1.0;"/></g><!--link TeacherRepository to JPATeacherRepository--><g id="link_TeacherRepository_JPATeacherRepository"><path codeLine="105" d="M837,1079.02 C837,1095.67 837,1116.04 837,1133.42 " fill="none" id="TeacherRepository-to-JPATeacherRepository" style="stroke:#181818;stroke-width:1.0;"/><polygon fill="#181818" points="837,1138.71,841,1129.71,837,1133.71,833,1129.71,837,1138.71" style="stroke:#181818;stroke-width:1.0;"/></g><!--link CourseRepository to JPACourseRepository--><g id="link_CourseRepository_JPACourseRepository"><path codeLine="106" d="M1120,1079.02 C1120,1095.67 1120,1116.04 1120,1133.42 " fill="none" id="CourseRepository-to-JPACourseRepository" style="stroke:#181818;stroke-width:1.0;"/><polygon fill="#181818" points="1120,1138.71,1124,1129.71,1120,1133.71,1116,1129.71,1120,1138.71" style="stroke:#181818;stroke-width:1.0;"/></g><!--SRC=[pLNRZjiW47ttL_3erMxs0w8gqZPAggrwYR9ftwTuug1Yi814cwtwxuLW76FOL5tbeNbn6CuSvd86z4ycMb3Ga0gtiETcAONv0WsIvGVodQcQyQAW7BGc6mIwGqL-5SJ-9goQ4YQCNmZhCINQA2PgRy466EzDlmF9N24ON3n3y-snOxhbJ9kvt2kDkhoPaazs-SwlPnvm0CwgpgrimUm2hqN_a98Z20-aFVjIoMPbaH7yZcZaI0rMddvA_DVI72IhF0SJMwcQhoqgC4oADMfRbLBlAKMj-_E2IoQnkQsWafoVIuNM-Xa4rDYWC4-e3epQmnSvy_zO4Wq7Vr0UUqTSWZwVf2xP98U5MMChDJDI7Jt3UUqnnijk2DkCJHv9Jz4CWVEHvTh5jRMjbepZHZwTziVWmK2yfOZNQ63VY8UzsRsiiRRPgcCOFR16gTZBIUfTSyfi3xDZRuvjf-ED_HVwzMpYgu16WKLTxNiv6AGJwk-tZ7Lu50RL5goULgYqJGm5HJT-DeIGOOtctFybKFTn6IR6c33P3dnZaJcklCnYSJjSHjwtYRmTC1Lu55pC4o9p0YkpatZsJ8Y3yvQ9gjjyVroukxkCRl2Rg5Ddmd7gKJ3qiY8_hXx-DPFUyKg9z7nlooDwpUxlPzbNeCW-3PF9x9K7eCXVcSuXck4Bk7GSBh5sS_awmErSs0xrp0oXsqudhKYdAnmpa7mUb8v67fVCfA_0eCCEbKYmI8NLuTA34yrqoB7z3m00]--></g></svg>