<?xml version="1.0" encoding="UTF-8" standalone="no"?><svg xmlns="http://www.w3.org/2000/svg" xmlns:xlink="http://www.w3.org/1999/xlink" contentStyleType="text/css" height="964px" preserveAspectRatio="none" style="width:1451px;height:964px;background:#FFFFFF;" version="1.1" viewBox="0 0 1451 964" width="1451px" zoomAndPan="magnify"><defs/><g><!--MD5=[590bd9fd92c63f968d23f41cfec2f20e]
cluster <<Aggregate>> User--><g id="cluster_&lt;&lt;Aggregate&gt;&gt; User"><rect fill="#BBAABB" height="448" rx="2.5" ry="2.5" style="stroke:#181818;stroke-width:1.0;" width="284" x="1161" y="7"/><text fill="#000000" font-family="sans-serif" font-size="14" font-weight="bold" lengthAdjust="spacing" textLength="142" x="1232" y="24.1074">&lt;&lt;Aggregate&gt;&gt; User</text></g><!--MD5=[b3f9e672773be504bf67adee500319ac]
cluster <<Aggregate>> Cell--><g id="cluster_&lt;&lt;Aggregate&gt;&gt; Cell"><rect fill="#AAABBB" height="443" rx="2.5" ry="2.5" style="stroke:#181818;stroke-width:1.0;" width="434" x="7" y="515"/><text fill="#000000" font-family="sans-serif" font-size="14" font-weight="bold" lengthAdjust="spacing" textLength="136" x="156" y="532.1074">&lt;&lt;Aggregate&gt;&gt; Cell</text></g><!--MD5=[2c5ea5a4d8bb391c5b910b70eecbbbbd]
cluster <<Aggregate>> Shared Board--><g id="cluster_&lt;&lt;Aggregate&gt;&gt; Shared Board"><rect fill="#FFFFCC" height="451" rx="2.5" ry="2.5" style="stroke:#181818;stroke-width:1.0;" width="513" x="397" y="7"/><text fill="#000000" font-family="sans-serif" font-size="14" font-weight="bold" lengthAdjust="spacing" textLength="205" x="551" y="24.1074">&lt;&lt;Aggregate&gt;&gt; Shared Board</text></g><!--MD5=[4bf0a1724a47bcd309a0e031fb70e5b6]
cluster <<Aggregate>> PostIt--><g id="cluster_&lt;&lt;Aggregate&gt;&gt; PostIt"><rect fill="#FFD700" height="264" rx="2.5" ry="2.5" style="stroke:#181818;stroke-width:1.0;" width="388" x="465" y="694"/><text fill="#000000" font-family="sans-serif" font-size="14" font-weight="bold" lengthAdjust="spacing" textLength="149" x="584.5" y="711.1074">&lt;&lt;Aggregate&gt;&gt; PostIt</text></g><!--MD5=[514c2e21d7ee9c3140e1794303914189]
cluster <<Aggregate>> Permission--><g id="cluster_&lt;&lt;Aggregate&gt;&gt; Permission"><rect fill="#ADFF2F" height="298" rx="2.5" ry="2.5" style="stroke:#181818;stroke-width:1.0;" width="203" x="934" y="336"/><text fill="#000000" font-family="sans-serif" font-size="14" font-weight="bold" lengthAdjust="spacing" textLength="187" x="942" y="353.1074">&lt;&lt;Aggregate&gt;&gt; Permission</text></g><!--MD5=[3fd616f346a44cd59a91eb10b19e157c]
class User--><g id="elem_User"><rect codeLine="5" fill="#F1F1F1" height="92.5039" id="User" rx="2.5" ry="2.5" style="stroke:#181818;stroke-width:0.5;" width="87" x="1341.5" y="178"/><ellipse cx="1356.5" cy="216.252" fill="#ADD1B2" rx="11" ry="11" style="stroke:#181818;stroke-width:1.0;"/><path d="M1355.3594,217.0488 L1355.3594,219.5488 L1359.6875,219.5488 L1359.6875,218.627 Q1359.6875,218.0176 1359.9219,217.752 Q1360.1719,217.4863 1360.5469,217.4863 Q1360.9219,217.4863 1361.1563,217.752 Q1361.3906,218.0176 1361.3906,218.627 L1361.3906,221.252 L1353.3906,221.252 Q1352.7656,221.252 1352.5,221.0176 Q1352.25,220.7832 1352.25,220.3926 Q1352.25,220.0176 1352.5156,219.7832 Q1352.7813,219.5488 1353.3906,219.5488 L1353.6563,219.5488 L1353.6563,212.8926 L1353.3906,212.8926 Q1352.7656,212.8926 1352.5,212.6582 Q1352.25,212.4238 1352.25,212.0332 Q1352.25,211.6582 1352.5,211.4238 Q1352.7656,211.1895 1353.3906,211.1895 L1361.0156,211.1895 L1361.0156,213.7832 Q1361.0156,214.3926 1360.7813,214.6582 Q1360.5625,214.9082 1360.1719,214.9082 Q1359.7969,214.9082 1359.5625,214.6582 Q1359.3281,214.3926 1359.3281,213.7832 L1359.3281,212.8926 L1355.3594,212.8926 L1355.3594,215.3457 L1356.8438,215.3457 Q1356.8438,214.6895 1356.9688,214.502 Q1357.2344,214.0957 1357.7031,214.0957 Q1358.0781,214.0957 1358.3125,214.3613 Q1358.5469,214.6113 1358.5469,215.2207 L1358.5469,217.1895 Q1358.5469,217.7363 1358.4219,217.9238 Q1358.1563,218.3145 1357.7031,218.3145 Q1357.2344,218.3145 1356.9688,217.9082 Q1356.8438,217.7207 1356.8438,217.0488 L1355.3594,217.0488 Z " fill="#000000"/><text fill="#000000" font-family="sans-serif" font-size="12" font-style="italic" lengthAdjust="spacing" textLength="40" x="1378" y="195.9492">«Root»</text><text fill="#000000" font-family="sans-serif" font-size="12" font-style="italic" lengthAdjust="spacing" textLength="44" x="1376" y="211.9102">«Entity»</text><text fill="#000000" font-family="sans-serif" font-size="12" font-style="italic" lengthAdjust="spacing" textLength="59" x="1368.5" y="227.8711">«Strategy»</text><text fill="#000000" font-family="sans-serif" font-size="14" lengthAdjust="spacing" textLength="29" x="1383.5" y="245.9902">User</text><line style="stroke:#181818;stroke-width:0.5;" x1="1342.5" x2="1427.5" y1="254.5039" y2="254.5039"/><line style="stroke:#181818;stroke-width:0.5;" x1="1342.5" x2="1427.5" y1="262.5039" y2="262.5039"/></g><g id="elem_BirthDate"><rect fill="#F1F1F1" height="54.582" style="stroke:#181818;stroke-width:0.5;" width="95" x="1203.5" y="44"/><text fill="#000000" font-family="sans-serif" font-size="12" font-style="italic" lengthAdjust="spacing" textLength="85" x="1208.5" y="56.9492">«Value Object»</text><text fill="#000000" font-family="sans-serif" font-size="14" lengthAdjust="spacing" textLength="59" x="1221.5" y="77.0684">BirthDate</text><line style="stroke:#181818;stroke-width:0.5;" x1="1204.5" x2="1297.5" y1="82.582" y2="82.582"/></g><g id="elem_TaxNumber"><rect fill="#F1F1F1" height="70.543" style="stroke:#181818;stroke-width:0.5;" width="95" x="1177.5" y="189"/><text fill="#000000" font-family="sans-serif" font-size="12" font-style="italic" lengthAdjust="spacing" textLength="85" x="1182.5" y="201.9492">«Value Object»</text><text fill="#000000" font-family="sans-serif" font-size="12" font-style="italic" lengthAdjust="spacing" textLength="25" x="1212.5" y="217.9102">«Id»</text><text fill="#000000" font-family="sans-serif" font-size="14" lengthAdjust="spacing" textLength="72" x="1189" y="238.0293">TaxNumber</text><line style="stroke:#181818;stroke-width:0.5;" x1="1178.5" x2="1271.5" y1="243.543" y2="243.543"/></g><g id="elem_FullName"><rect fill="#F1F1F1" height="54.582" style="stroke:#181818;stroke-width:0.5;" width="95" x="1333.5" y="384"/><text fill="#000000" font-family="sans-serif" font-size="12" font-style="italic" lengthAdjust="spacing" textLength="85" x="1338.5" y="396.9492">«Value Object»</text><text fill="#000000" font-family="sans-serif" font-size="14" lengthAdjust="spacing" textLength="59" x="1351.5" y="417.0684">FullName</text><line style="stroke:#181818;stroke-width:0.5;" x1="1334.5" x2="1427.5" y1="422.582" y2="422.582"/></g><g id="elem_ShortName"><rect fill="#F1F1F1" height="54.582" style="stroke:#181818;stroke-width:0.5;" width="95" x="1333.5" y="44"/><text fill="#000000" font-family="sans-serif" font-size="12" font-style="italic" lengthAdjust="spacing" textLength="85" x="1338.5" y="56.9492">«Value Object»</text><text fill="#000000" font-family="sans-serif" font-size="14" lengthAdjust="spacing" textLength="70" x="1346" y="77.0684">ShortName</text><line style="stroke:#181818;stroke-width:0.5;" x1="1334.5" x2="1427.5" y1="82.582" y2="82.582"/></g><!--MD5=[fea3dc74c7473bae0133d22265a91e2f]
class Cell--><g id="elem_Cell"><rect codeLine="19" fill="#F1F1F1" height="76.543" id="Cell" rx="2.5" ry="2.5" style="stroke:#181818;stroke-width:0.5;" width="72" x="321" y="552"/><ellipse cx="336" cy="582.2715" fill="#ADD1B2" rx="11" ry="11" style="stroke:#181818;stroke-width:1.0;"/><path d="M334.8594,583.0684 L334.8594,585.5684 L339.1875,585.5684 L339.1875,584.6465 Q339.1875,584.0371 339.4219,583.7715 Q339.6719,583.5059 340.0469,583.5059 Q340.4219,583.5059 340.6563,583.7715 Q340.8906,584.0371 340.8906,584.6465 L340.8906,587.2715 L332.8906,587.2715 Q332.2656,587.2715 332,587.0371 Q331.75,586.8027 331.75,586.4121 Q331.75,586.0371 332.0156,585.8027 Q332.2813,585.5684 332.8906,585.5684 L333.1563,585.5684 L333.1563,578.9121 L332.8906,578.9121 Q332.2656,578.9121 332,578.6777 Q331.75,578.4434 331.75,578.0527 Q331.75,577.6777 332,577.4434 Q332.2656,577.209 332.8906,577.209 L340.5156,577.209 L340.5156,579.8027 Q340.5156,580.4121 340.2813,580.6777 Q340.0625,580.9277 339.6719,580.9277 Q339.2969,580.9277 339.0625,580.6777 Q338.8281,580.4121 338.8281,579.8027 L338.8281,578.9121 L334.8594,578.9121 L334.8594,581.3652 L336.3438,581.3652 Q336.3438,580.709 336.4688,580.5215 Q336.7344,580.1152 337.2031,580.1152 Q337.5781,580.1152 337.8125,580.3809 Q338.0469,580.6309 338.0469,581.2402 L338.0469,583.209 Q338.0469,583.7559 337.9219,583.9434 Q337.6563,584.334 337.2031,584.334 Q336.7344,584.334 336.4688,583.9277 Q336.3438,583.7402 336.3438,583.0684 L334.8594,583.0684 Z " fill="#000000"/><text fill="#000000" font-family="sans-serif" font-size="12" font-style="italic" lengthAdjust="spacing" textLength="44" x="348" y="569.9492">«Entity»</text><text fill="#000000" font-family="sans-serif" font-size="12" font-style="italic" lengthAdjust="spacing" textLength="40" x="350" y="585.9102">«Root»</text><text fill="#000000" font-family="sans-serif" font-size="14" lengthAdjust="spacing" textLength="24" x="358" y="604.0293">Cell</text><line style="stroke:#181818;stroke-width:0.5;" x1="322" x2="392" y1="612.543" y2="612.543"/><line style="stroke:#181818;stroke-width:0.5;" x1="322" x2="392" y1="620.543" y2="620.543"/></g><g id="elem_Number"><rect fill="#F1F1F1" height="54.582" style="stroke:#181818;stroke-width:0.5;" width="95" x="176.5" y="742"/><text fill="#000000" font-family="sans-serif" font-size="12" font-style="italic" lengthAdjust="spacing" textLength="85" x="181.5" y="754.9492">«Value Object»</text><text fill="#000000" font-family="sans-serif" font-size="14" lengthAdjust="spacing" textLength="49" x="199.5" y="775.0684">Number</text><line style="stroke:#181818;stroke-width:0.5;" x1="177.5" x2="270.5" y1="780.582" y2="780.582"/></g><g id="elem_Title"><rect fill="#F1F1F1" height="54.582" style="stroke:#181818;stroke-width:0.5;" width="95" x="115.5" y="887"/><text fill="#000000" font-family="sans-serif" font-size="12" font-style="italic" lengthAdjust="spacing" textLength="85" x="120.5" y="899.9492">«Value Object»</text><text fill="#000000" font-family="sans-serif" font-size="14" lengthAdjust="spacing" textLength="27" x="149.5" y="920.0684">Title</text><line style="stroke:#181818;stroke-width:0.5;" x1="116.5" x2="209.5" y1="925.582" y2="925.582"/></g><g id="elem_Column"><rect fill="#F1F1F1" height="54.582" style="stroke:#181818;stroke-width:0.5;" width="95" x="23.5" y="742"/><text fill="#000000" font-family="sans-serif" font-size="12" font-style="italic" lengthAdjust="spacing" textLength="85" x="28.5" y="754.9492">«Value Object»</text><text fill="#000000" font-family="sans-serif" font-size="14" lengthAdjust="spacing" textLength="48" x="47" y="775.0684">Column</text><line style="stroke:#181818;stroke-width:0.5;" x1="24.5" x2="117.5" y1="780.582" y2="780.582"/></g><g id="elem_Row"><rect fill="#F1F1F1" height="54.582" style="stroke:#181818;stroke-width:0.5;" width="95" x="329.5" y="742"/><text fill="#000000" font-family="sans-serif" font-size="12" font-style="italic" lengthAdjust="spacing" textLength="85" x="334.5" y="754.9492">«Value Object»</text><text fill="#000000" font-family="sans-serif" font-size="14" lengthAdjust="spacing" textLength="27" x="363.5" y="775.0684">Row</text><line style="stroke:#181818;stroke-width:0.5;" x1="330.5" x2="423.5" y1="780.582" y2="780.582"/></g><!--MD5=[3762909e135fb728396985e200594027]
class SharedBoard--><g id="elem_SharedBoard"><rect codeLine="36" fill="#F1F1F1" height="76.543" id="SharedBoard" rx="2.5" ry="2.5" style="stroke:#181818;stroke-width:0.5;" width="116" x="596" y="186"/><ellipse cx="611" cy="216.2715" fill="#ADD1B2" rx="11" ry="11" style="stroke:#181818;stroke-width:1.0;"/><path d="M609.8594,217.0684 L609.8594,219.5684 L614.1875,219.5684 L614.1875,218.6465 Q614.1875,218.0371 614.4219,217.7715 Q614.6719,217.5059 615.0469,217.5059 Q615.4219,217.5059 615.6563,217.7715 Q615.8906,218.0371 615.8906,218.6465 L615.8906,221.2715 L607.8906,221.2715 Q607.2656,221.2715 607,221.0371 Q606.75,220.8027 606.75,220.4121 Q606.75,220.0371 607.0156,219.8027 Q607.2813,219.5684 607.8906,219.5684 L608.1563,219.5684 L608.1563,212.9121 L607.8906,212.9121 Q607.2656,212.9121 607,212.6777 Q606.75,212.4434 606.75,212.0527 Q606.75,211.6777 607,211.4434 Q607.2656,211.209 607.8906,211.209 L615.5156,211.209 L615.5156,213.8027 Q615.5156,214.4121 615.2813,214.6777 Q615.0625,214.9277 614.6719,214.9277 Q614.2969,214.9277 614.0625,214.6777 Q613.8281,214.4121 613.8281,213.8027 L613.8281,212.9121 L609.8594,212.9121 L609.8594,215.3652 L611.3438,215.3652 Q611.3438,214.709 611.4688,214.5215 Q611.7344,214.1152 612.2031,214.1152 Q612.5781,214.1152 612.8125,214.3809 Q613.0469,214.6309 613.0469,215.2402 L613.0469,217.209 Q613.0469,217.7559 612.9219,217.9434 Q612.6563,218.334 612.2031,218.334 Q611.7344,218.334 611.4688,217.9277 Q611.3438,217.7402 611.3438,217.0684 L609.8594,217.0684 Z " fill="#000000"/><text fill="#000000" font-family="sans-serif" font-size="12" font-style="italic" lengthAdjust="spacing" textLength="40" x="647" y="203.9492">«Root»</text><text fill="#000000" font-family="sans-serif" font-size="12" font-style="italic" lengthAdjust="spacing" textLength="44" x="645" y="219.9102">«Entity»</text><text fill="#000000" font-family="sans-serif" font-size="14" lengthAdjust="spacing" textLength="84" x="625" y="238.0293">SharedBoard</text><line style="stroke:#181818;stroke-width:0.5;" x1="597" x2="711" y1="246.543" y2="246.543"/><line style="stroke:#181818;stroke-width:0.5;" x1="597" x2="711" y1="254.543" y2="254.543"/></g><!--MD5=[960723c1bf8f97a08b0f7c02db1c0cc7]
class SharedBoardLog--><g id="elem_SharedBoardLog"><rect codeLine="37" fill="#F1F1F1" height="60.582" id="SharedBoardLog" rx="2.5" ry="2.5" style="stroke:#181818;stroke-width:0.5;" width="140" x="413" y="381"/><ellipse cx="428" cy="403.291" fill="#ADD1B2" rx="11" ry="11" style="stroke:#181818;stroke-width:1.0;"/><path d="M426.8594,404.0879 L426.8594,406.5879 L431.1875,406.5879 L431.1875,405.666 Q431.1875,405.0566 431.4219,404.791 Q431.6719,404.5254 432.0469,404.5254 Q432.4219,404.5254 432.6563,404.791 Q432.8906,405.0566 432.8906,405.666 L432.8906,408.291 L424.8906,408.291 Q424.2656,408.291 424,408.0566 Q423.75,407.8223 423.75,407.4316 Q423.75,407.0566 424.0156,406.8223 Q424.2813,406.5879 424.8906,406.5879 L425.1563,406.5879 L425.1563,399.9316 L424.8906,399.9316 Q424.2656,399.9316 424,399.6973 Q423.75,399.4629 423.75,399.0723 Q423.75,398.6973 424,398.4629 Q424.2656,398.2285 424.8906,398.2285 L432.5156,398.2285 L432.5156,400.8223 Q432.5156,401.4316 432.2813,401.6973 Q432.0625,401.9473 431.6719,401.9473 Q431.2969,401.9473 431.0625,401.6973 Q430.8281,401.4316 430.8281,400.8223 L430.8281,399.9316 L426.8594,399.9316 L426.8594,402.3848 L428.3438,402.3848 Q428.3438,401.7285 428.4688,401.541 Q428.7344,401.1348 429.2031,401.1348 Q429.5781,401.1348 429.8125,401.4004 Q430.0469,401.6504 430.0469,402.2598 L430.0469,404.2285 Q430.0469,404.7754 429.9219,404.9629 Q429.6563,405.3535 429.2031,405.3535 Q428.7344,405.3535 428.4688,404.9473 Q428.3438,404.7598 428.3438,404.0879 L426.8594,404.0879 Z " fill="#000000"/><text fill="#000000" font-family="sans-serif" font-size="12" font-style="italic" lengthAdjust="spacing" textLength="44" x="474" y="398.9492">«Entity»</text><text fill="#000000" font-family="sans-serif" font-size="14" lengthAdjust="spacing" textLength="108" x="442" y="417.0684">SharedBoardLog</text><line style="stroke:#181818;stroke-width:0.5;" x1="414" x2="552" y1="425.582" y2="425.582"/><line style="stroke:#181818;stroke-width:0.5;" x1="414" x2="552" y1="433.582" y2="433.582"/></g><g id="elem_OwnerSharedBoard"><rect fill="#F1F1F1" height="54.582" style="stroke:#181818;stroke-width:0.5;" width="139" x="754.5" y="384"/><text fill="#000000" font-family="sans-serif" font-size="12" font-style="italic" lengthAdjust="spacing" textLength="85" x="781.5" y="396.9492">«Value Object»</text><text fill="#000000" font-family="sans-serif" font-size="14" lengthAdjust="spacing" textLength="125" x="761.5" y="417.0684">OwnerSharedBoard</text><line style="stroke:#181818;stroke-width:0.5;" x1="755.5" x2="892.5" y1="422.582" y2="422.582"/></g><g id="elem_SharedBoardTitle"><rect fill="#F1F1F1" height="54.582" style="stroke:#181818;stroke-width:0.5;" width="125" x="591.5" y="44"/><text fill="#000000" font-family="sans-serif" font-size="12" font-style="italic" lengthAdjust="spacing" textLength="85" x="611.5" y="56.9492">«Value Object»</text><text fill="#000000" font-family="sans-serif" font-size="14" lengthAdjust="spacing" textLength="111" x="598.5" y="77.0684">SharedBoardTitle</text><line style="stroke:#181818;stroke-width:0.5;" x1="592.5" x2="715.5" y1="82.582" y2="82.582"/></g><g id="elem_SharedBoardState"><rect fill="#F1F1F1" height="54.582" style="stroke:#181818;stroke-width:0.5;" width="131" x="588.5" y="384"/><text fill="#000000" font-family="sans-serif" font-size="12" font-style="italic" lengthAdjust="spacing" textLength="85" x="611.5" y="396.9492">«Value Object»</text><text fill="#000000" font-family="sans-serif" font-size="14" lengthAdjust="spacing" textLength="117" x="595.5" y="417.0684">SharedBoardState</text><line style="stroke:#181818;stroke-width:0.5;" x1="589.5" x2="718.5" y1="422.582" y2="422.582"/></g><g id="elem_Author"><rect fill="#F1F1F1" height="54.582" style="stroke:#181818;stroke-width:0.5;" width="95" x="741.5" y="887"/><text fill="#000000" font-family="sans-serif" font-size="12" font-style="italic" lengthAdjust="spacing" textLength="85" x="746.5" y="899.9492">«Value Object»</text><text fill="#000000" font-family="sans-serif" font-size="14" lengthAdjust="spacing" textLength="42" x="768" y="920.0684">Author</text><line style="stroke:#181818;stroke-width:0.5;" x1="742.5" x2="835.5" y1="925.582" y2="925.582"/></g><g id="elem_Content"><rect fill="#F1F1F1" height="54.582" style="stroke:#181818;stroke-width:0.5;" width="95" x="481.5" y="887"/><text fill="#000000" font-family="sans-serif" font-size="12" font-style="italic" lengthAdjust="spacing" textLength="85" x="486.5" y="899.9492">«Value Object»</text><text fill="#000000" font-family="sans-serif" font-size="14" lengthAdjust="spacing" textLength="50" x="504" y="920.0684">Content</text><line style="stroke:#181818;stroke-width:0.5;" x1="482.5" x2="575.5" y1="925.582" y2="925.582"/></g><g id="elem_TimeStamp"><rect fill="#F1F1F1" height="54.582" style="stroke:#181818;stroke-width:0.5;" width="95" x="611.5" y="887"/><text fill="#000000" font-family="sans-serif" font-size="12" font-style="italic" lengthAdjust="spacing" textLength="85" x="616.5" y="899.9492">«Value Object»</text><text fill="#000000" font-family="sans-serif" font-size="14" lengthAdjust="spacing" textLength="71" x="623.5" y="920.0684">TimeStamp</text><line style="stroke:#181818;stroke-width:0.5;" x1="612.5" x2="705.5" y1="925.582" y2="925.582"/></g><!--MD5=[458552462bbdcbc92793825846cc11c0]
class PostIt--><g id="elem_PostIt"><rect codeLine="64" fill="#F1F1F1" height="76.543" id="PostIt" rx="2.5" ry="2.5" style="stroke:#181818;stroke-width:0.5;" width="72" x="541" y="731"/><ellipse cx="556" cy="761.2715" fill="#ADD1B2" rx="11" ry="11" style="stroke:#181818;stroke-width:1.0;"/><path d="M554.8594,762.0684 L554.8594,764.5684 L559.1875,764.5684 L559.1875,763.6465 Q559.1875,763.0371 559.4219,762.7715 Q559.6719,762.5059 560.0469,762.5059 Q560.4219,762.5059 560.6563,762.7715 Q560.8906,763.0371 560.8906,763.6465 L560.8906,766.2715 L552.8906,766.2715 Q552.2656,766.2715 552,766.0371 Q551.75,765.8027 551.75,765.4121 Q551.75,765.0371 552.0156,764.8027 Q552.2813,764.5684 552.8906,764.5684 L553.1563,764.5684 L553.1563,757.9121 L552.8906,757.9121 Q552.2656,757.9121 552,757.6777 Q551.75,757.4434 551.75,757.0527 Q551.75,756.6777 552,756.4434 Q552.2656,756.209 552.8906,756.209 L560.5156,756.209 L560.5156,758.8027 Q560.5156,759.4121 560.2813,759.6777 Q560.0625,759.9277 559.6719,759.9277 Q559.2969,759.9277 559.0625,759.6777 Q558.8281,759.4121 558.8281,758.8027 L558.8281,757.9121 L554.8594,757.9121 L554.8594,760.3652 L556.3438,760.3652 Q556.3438,759.709 556.4688,759.5215 Q556.7344,759.1152 557.2031,759.1152 Q557.5781,759.1152 557.8125,759.3809 Q558.0469,759.6309 558.0469,760.2402 L558.0469,762.209 Q558.0469,762.7559 557.9219,762.9434 Q557.6563,763.334 557.2031,763.334 Q556.7344,763.334 556.4688,762.9277 Q556.3438,762.7402 556.3438,762.0684 L554.8594,762.0684 Z " fill="#000000"/><text fill="#000000" font-family="sans-serif" font-size="12" font-style="italic" lengthAdjust="spacing" textLength="44" x="568" y="748.9492">«Entity»</text><text fill="#000000" font-family="sans-serif" font-size="12" font-style="italic" lengthAdjust="spacing" textLength="40" x="570" y="764.9102">«Root»</text><text fill="#000000" font-family="sans-serif" font-size="14" lengthAdjust="spacing" textLength="35" x="572.5" y="783.0293">PostIt</text><line style="stroke:#181818;stroke-width:0.5;" x1="542" x2="612" y1="791.543" y2="791.543"/><line style="stroke:#181818;stroke-width:0.5;" x1="542" x2="612" y1="799.543" y2="799.543"/></g><!--MD5=[03da7ad6344b0b2c818a169ad3cc63fd]
class Permission--><g id="elem_Permission"><rect codeLine="74" fill="#F1F1F1" height="76.543" id="Permission" rx="2.5" ry="2.5" style="stroke:#181818;stroke-width:0.5;" width="101" x="984.5" y="373"/><ellipse cx="999.5" cy="403.2715" fill="#ADD1B2" rx="11" ry="11" style="stroke:#181818;stroke-width:1.0;"/><path d="M998.3594,404.0684 L998.3594,406.5684 L1002.6875,406.5684 L1002.6875,405.6465 Q1002.6875,405.0371 1002.9219,404.7715 Q1003.1719,404.5059 1003.5469,404.5059 Q1003.9219,404.5059 1004.1563,404.7715 Q1004.3906,405.0371 1004.3906,405.6465 L1004.3906,408.2715 L996.3906,408.2715 Q995.7656,408.2715 995.5,408.0371 Q995.25,407.8027 995.25,407.4121 Q995.25,407.0371 995.5156,406.8027 Q995.7813,406.5684 996.3906,406.5684 L996.6563,406.5684 L996.6563,399.9121 L996.3906,399.9121 Q995.7656,399.9121 995.5,399.6777 Q995.25,399.4434 995.25,399.0527 Q995.25,398.6777 995.5,398.4434 Q995.7656,398.209 996.3906,398.209 L1004.0156,398.209 L1004.0156,400.8027 Q1004.0156,401.4121 1003.7813,401.6777 Q1003.5625,401.9277 1003.1719,401.9277 Q1002.7969,401.9277 1002.5625,401.6777 Q1002.3281,401.4121 1002.3281,400.8027 L1002.3281,399.9121 L998.3594,399.9121 L998.3594,402.3652 L999.8438,402.3652 Q999.8438,401.709 999.9688,401.5215 Q1000.2344,401.1152 1000.7031,401.1152 Q1001.0781,401.1152 1001.3125,401.3809 Q1001.5469,401.6309 1001.5469,402.2402 L1001.5469,404.209 Q1001.5469,404.7559 1001.4219,404.9434 Q1001.1563,405.334 1000.7031,405.334 Q1000.2344,405.334 999.9688,404.9277 Q999.8438,404.7402 999.8438,404.0684 L998.3594,404.0684 Z " fill="#000000"/><text fill="#000000" font-family="sans-serif" font-size="12" font-style="italic" lengthAdjust="spacing" textLength="40" x="1028" y="390.9492">«Root»</text><text fill="#000000" font-family="sans-serif" font-size="12" font-style="italic" lengthAdjust="spacing" textLength="44" x="1026" y="406.9102">«Entity»</text><text fill="#000000" font-family="sans-serif" font-size="14" lengthAdjust="spacing" textLength="69" x="1013.5" y="425.0293">Permission</text><line style="stroke:#181818;stroke-width:0.5;" x1="985.5" x2="1084.5" y1="433.543" y2="433.543"/><line style="stroke:#181818;stroke-width:0.5;" x1="985.5" x2="1084.5" y1="441.543" y2="441.543"/></g><g id="elem_AccessLevel"><rect fill="#F1F1F1" height="54.582" style="stroke:#181818;stroke-width:0.5;" width="95" x="987.5" y="563"/><text fill="#000000" font-family="sans-serif" font-size="12" font-style="italic" lengthAdjust="spacing" textLength="85" x="992.5" y="575.9492">«Value Object»</text><text fill="#000000" font-family="sans-serif" font-size="14" lengthAdjust="spacing" textLength="79" x="995.5" y="596.0684">AccessLevel</text><line style="stroke:#181818;stroke-width:0.5;" x1="988.5" x2="1081.5" y1="601.582" y2="601.582"/></g><!--MD5=[5be8aaedb820ee9cf3ce759b5401d401]
reverse link BirthDate to User--><g id="link_BirthDate_User"><path codeLine="11" d="M1278.13,103.07 C1297.19,124.55 1323.02,153.66 1344.52,177.88 " fill="none" id="BirthDate-backto-User" style="stroke:#181818;stroke-width:1.0;"/><polygon fill="#181818" points="1274.65,99.15,1277.6218,108.5398,1277.9647,102.8933,1283.6112,103.2362,1274.65,99.15" style="stroke:#181818;stroke-width:1.0;"/><text fill="#000000" font-family="sans-serif" font-size="13" lengthAdjust="spacing" textLength="32" x="1319" y="144.0283">has a</text><text fill="#000000" font-family="sans-serif" font-size="13" lengthAdjust="spacing" textLength="7" x="1271.8059" y="120.7074">1</text><text fill="#000000" font-family="sans-serif" font-size="13" lengthAdjust="spacing" textLength="7" x="1331.0604" y="166.8704">1</text></g><!--MD5=[1dba526f95bd730ec4c849a0bc17cef7]
reverse link TaxNumber to User--><g id="link_TaxNumber_User"><path codeLine="12" d="M1277.76,224.5 C1298.39,224.5 1321.78,224.5 1341.43,224.5 " fill="none" id="TaxNumber-backto-User" style="stroke:#181818;stroke-width:1.0;"/><polygon fill="#181818" points="1272.57,224.5,1281.57,228.5,1277.57,224.5,1281.57,220.5,1272.57,224.5" style="stroke:#181818;stroke-width:1.0;"/><text fill="#000000" font-family="sans-serif" font-size="13" lengthAdjust="spacing" textLength="32" x="1291" y="217.5283">has a</text><text fill="#000000" font-family="sans-serif" font-size="13" lengthAdjust="spacing" textLength="7" x="1280.3901" y="220.284">1</text><text fill="#000000" font-family="sans-serif" font-size="13" lengthAdjust="spacing" textLength="7" x="1326.634" y="220.1857">1</text></g><!--MD5=[176e07b16b38b5978b9bc82adf5db4ba]
link User to FullName--><g id="link_User_FullName"><path codeLine="13" d="M1384.01,271.23 C1383.29,304.57 1382.33,348.92 1381.69,378.52 " fill="none" id="User-to-FullName" style="stroke:#181818;stroke-width:1.0;"/><polygon fill="#181818" points="1381.58,383.87,1385.7846,374.9638,1381.6943,378.8713,1377.7867,374.7809,1381.58,383.87" style="stroke:#181818;stroke-width:1.0;"/><text fill="#000000" font-family="sans-serif" font-size="13" lengthAdjust="spacing" textLength="32" x="1384" y="316.0283">has a</text><text fill="#000000" font-family="sans-serif" font-size="13" lengthAdjust="spacing" textLength="7" x="1376.4347" y="292.3851">1</text><text fill="#000000" font-family="sans-serif" font-size="13" lengthAdjust="spacing" textLength="7" x="1373.9048" y="372.6252">1</text></g><!--MD5=[090fafa15af9dc716b5d092066e89d17]
reverse link ShortName to User--><g id="link_ShortName_User"><path codeLine="14" d="M1381.85,104.41 C1382.41,125.76 1383.16,154.16 1383.79,177.88 " fill="none" id="ShortName-backto-User" style="stroke:#181818;stroke-width:1.0;"/><polygon fill="#181818" points="1381.71,99.15,1377.9427,108.2498,1381.8385,104.1483,1385.94,108.0442,1381.71,99.15" style="stroke:#181818;stroke-width:1.0;"/><text fill="#000000" font-family="sans-serif" font-size="13" lengthAdjust="spacing" textLength="32" x="1384" y="144.0283">has a</text><text fill="#000000" font-family="sans-serif" font-size="13" lengthAdjust="spacing" textLength="7" x="1374.1346" y="120.7074">1</text><text fill="#000000" font-family="sans-serif" font-size="13" lengthAdjust="spacing" textLength="7" x="1376.0982" y="166.8704">1</text></g><!--MD5=[21cd848471fadc4c62f5296cc5b64493]
link Column to Number--><g id="link_Column_Number"><path codeLine="25" d="M118.57,769.5 C135.27,769.5 154.12,769.5 171.21,769.5 " fill="none" id="Column-to-Number" style="stroke:#181818;stroke-width:1.0;"/><polygon fill="#181818" points="176.46,769.5,167.46,765.5,171.46,769.5,167.46,773.5,176.46,769.5" style="stroke:#181818;stroke-width:1.0;"/><text fill="#000000" font-family="sans-serif" font-size="13" lengthAdjust="spacing" textLength="21" x="137" y="762.5283">has</text><text fill="#000000" font-family="sans-serif" font-size="13" lengthAdjust="spacing" textLength="7" x="126.3901" y="765.281">1</text><text fill="#000000" font-family="sans-serif" font-size="13" lengthAdjust="spacing" textLength="7" x="161.6445" y="765.281">1</text></g><!--MD5=[e4fcdcc179b6046cd1484a21e20d6ff3]
link Column to Title--><g id="link_Column_Title"><path codeLine="26" d="M88.09,797.06 C103.61,821.19 126.52,856.8 142.91,882.28 " fill="none" id="Column-to-Title" style="stroke:#181818;stroke-width:1.0;"/><polygon fill="#181818" points="145.69,886.59,144.1796,876.8577,142.9826,882.3864,137.4538,881.1895,145.69,886.59" style="stroke:#181818;stroke-width:1.0;"/><text fill="#000000" font-family="sans-serif" font-size="13" lengthAdjust="spacing" textLength="21" x="127" y="853.0283">has</text><text fill="#000000" font-family="sans-serif" font-size="13" lengthAdjust="spacing" textLength="7" x="83.8929" y="818.5988">1</text><text fill="#000000" font-family="sans-serif" font-size="13" lengthAdjust="spacing" textLength="7" x="134.1378" y="875.7312">1</text></g><!--MD5=[bc5755af6ba3c94d99c39a43e8d2688b]
reverse link Number to Row--><g id="link_Number_Row"><path codeLine="27" d="M276.82,769.5 C293.92,769.5 312.77,769.5 329.46,769.5 " fill="none" id="Number-backto-Row" style="stroke:#181818;stroke-width:1.0;"/><polygon fill="#181818" points="271.57,769.5,280.57,773.5,276.57,769.5,280.57,765.5,271.57,769.5" style="stroke:#181818;stroke-width:1.0;"/><text fill="#000000" font-family="sans-serif" font-size="13" lengthAdjust="spacing" textLength="21" x="290" y="762.5283">has</text><text fill="#000000" font-family="sans-serif" font-size="13" lengthAdjust="spacing" textLength="7" x="279.3901" y="765.281">1</text><text fill="#000000" font-family="sans-serif" font-size="13" lengthAdjust="spacing" textLength="7" x="314.6445" y="765.281">1</text></g><!--MD5=[cb7f994e4681ceccb2e25c9fb9f1e058]
link Row to Title--><g id="link_Row_Title"><path codeLine="28" d="M337.25,797.06 C300.43,821.67 245.74,858.21 207.48,883.78 " fill="none" id="Row-to-Title" style="stroke:#181818;stroke-width:1.0;"/><polygon fill="#181818" points="202.9,886.84,212.6033,885.1528,207.0537,884.0566,208.1499,878.507,202.9,886.84" style="stroke:#181818;stroke-width:1.0;"/><text fill="#000000" font-family="sans-serif" font-size="13" lengthAdjust="spacing" textLength="21" x="271" y="853.0283">has</text><text fill="#000000" font-family="sans-serif" font-size="13" lengthAdjust="spacing" textLength="7" x="321.3297" y="818.5988">1</text><text fill="#000000" font-family="sans-serif" font-size="13" lengthAdjust="spacing" textLength="7" x="204.3175" y="875.5883">1</text></g><!--MD5=[af531668c4b2523acc4c83e34301bfb0]
link Cell to Row--><g id="link_Cell_Row"><path codeLine="29" d="M361.24,629.04 C364.86,661.08 370.01,706.64 373.42,736.86 " fill="none" id="Cell-to-Row" style="stroke:#181818;stroke-width:1.0;"/><polygon fill="#181818" points="374,741.94,376.9728,732.5505,373.4431,736.9711,369.0225,733.4415,374,741.94" style="stroke:#181818;stroke-width:1.0;"/><text fill="#000000" font-family="sans-serif" font-size="13" lengthAdjust="spacing" textLength="66" x="367" y="674.0283">has a Posx</text><text fill="#000000" font-family="sans-serif" font-size="13" lengthAdjust="spacing" textLength="7" x="354.3579" y="650.6249">1</text><text fill="#000000" font-family="sans-serif" font-size="13" lengthAdjust="spacing" textLength="7" x="365.4969" y="730.7114">1</text></g><!--MD5=[cf6099374887ae4fbefe86fb043b4b37]
link Cell to Column--><g id="link_Cell_Column"><path codeLine="30" d="M320.89,604.82 C279.78,620.84 211.53,650.12 159,686 C137.14,700.93 115.4,721.24 99,737.97 " fill="none" id="Cell-to-Column" style="stroke:#181818;stroke-width:1.0;"/><polygon fill="#181818" points="95.38,741.7,104.5215,738.0348,98.8652,738.1148,98.7852,732.4585,95.38,741.7" style="stroke:#181818;stroke-width:1.0;"/><text fill="#000000" font-family="sans-serif" font-size="13" lengthAdjust="spacing" textLength="66" x="201" y="674.0283">has a Posy</text><text fill="#000000" font-family="sans-serif" font-size="13" lengthAdjust="spacing" textLength="7" x="306.0918" y="603.0678">1</text><text fill="#000000" font-family="sans-serif" font-size="13" lengthAdjust="spacing" textLength="7" x="92.9475" y="730.8652">1</text></g><!--MD5=[fd9d09de42943e968c8caff5bcc36d98]
link SharedBoard to OwnerSharedBoard--><g id="link_SharedBoard_OwnerSharedBoard"><path codeLine="44" d="M688.81,263.38 C720.46,297.82 766.56,347.99 795.91,379.93 " fill="none" id="SharedBoard-to-OwnerSharedBoard" style="stroke:#181818;stroke-width:1.0;"/><polygon fill="#181818" points="799.41,383.74,796.2673,374.406,796.0275,380.0578,790.3757,379.818,799.41,383.74" style="stroke:#181818;stroke-width:1.0;"/><text fill="#000000" font-family="sans-serif" font-size="13" lengthAdjust="spacing" textLength="32" x="740" y="316.0283">has a</text><text fill="#000000" font-family="sans-serif" font-size="13" lengthAdjust="spacing" textLength="7" x="686.4087" y="284.4222">1</text><text fill="#000000" font-family="sans-serif" font-size="13" lengthAdjust="spacing" textLength="7" x="786.2653" y="372.914">1</text></g><!--MD5=[0c7034135bf30aac0fd35c2caf318c5e]
reverse link SharedBoardTitle to SharedBoard--><g id="link_SharedBoardTitle_SharedBoard"><path codeLine="45" d="M654,104.39 C654,128.16 654,160.72 654,185.79 " fill="none" id="SharedBoardTitle-backto-SharedBoard" style="stroke:#181818;stroke-width:1.0;"/><polygon fill="#181818" points="654,99.15,650,108.15,654,104.15,658,108.15,654,99.15" style="stroke:#181818;stroke-width:1.0;"/><text fill="#000000" font-family="sans-serif" font-size="13" lengthAdjust="spacing" textLength="32" x="655" y="144.0283">has a</text><text fill="#000000" font-family="sans-serif" font-size="13" lengthAdjust="spacing" textLength="7" x="646.2781" y="120.7074">1</text><text fill="#000000" font-family="sans-serif" font-size="13" lengthAdjust="spacing" textLength="7" x="646.3984" y="174.7684">1</text></g><!--MD5=[ff44edfb46421ddac99a9915c24bec82]
link SharedBoard to SharedBoardLog--><g id="link_SharedBoard_SharedBoardLog"><path codeLine="46" d="M618.98,263.38 C588.09,296.8 543.5,345.04 513.91,377.06 " fill="none" id="SharedBoard-to-SharedBoardLog" style="stroke:#181818;stroke-width:1.0;"/><polygon fill="#181818" points="510.38,380.88,519.43,376.9945,513.7773,377.2115,513.5604,371.5588,510.38,380.88" style="stroke:#181818;stroke-width:1.0;"/><text fill="#000000" font-family="sans-serif" font-size="13" lengthAdjust="spacing" textLength="32" x="584" y="316.0283">has a</text><text fill="#000000" font-family="sans-serif" font-size="13" lengthAdjust="spacing" textLength="7" x="606.3224" y="284.4222">1</text><text fill="#000000" font-family="sans-serif" font-size="13" lengthAdjust="spacing" textLength="7" x="508.3053" y="369.9129">1</text></g><!--MD5=[78b8b575354b14f7330c44f851538776]
link SharedBoard to SharedBoardState--><g id="link_SharedBoard_SharedBoardState"><path codeLine="47" d="M654,263.38 C654,297.26 654,346.36 654,378.36 " fill="none" id="SharedBoard-to-SharedBoardState" style="stroke:#181818;stroke-width:1.0;"/><polygon fill="#181818" points="654,383.74,658,374.74,654,378.74,650,374.74,654,383.74" style="stroke:#181818;stroke-width:1.0;"/><text fill="#000000" font-family="sans-serif" font-size="13" lengthAdjust="spacing" textLength="32" x="655" y="316.0283">has a</text><text fill="#000000" font-family="sans-serif" font-size="13" lengthAdjust="spacing" textLength="7" x="646.4859" y="284.4222">1</text><text fill="#000000" font-family="sans-serif" font-size="13" lengthAdjust="spacing" textLength="7" x="646.2344" y="372.914">1</text></g><!--MD5=[19fde73eac7f6e4484fe720d0d85387f]
link User to OwnerSharedBoard--><g id="link_User_OwnerSharedBoard"><path codeLine="49" d="M1341.08,249.6 C1325.35,257.4 1307.24,265.46 1290,271 C1151.63,315.47 1104.64,278.47 968,328 C931.75,341.14 894.04,363.09 866.31,381.05 " fill="none" id="User-to-OwnerSharedBoard" style="stroke:#181818;stroke-width:1.0;"/><polygon fill="#181818" points="861.95,383.89,871.6739,382.3261,866.1386,381.1595,867.3051,375.6243,861.95,383.89" style="stroke:#181818;stroke-width:1.0;"/><text fill="#000000" font-family="sans-serif" font-size="13" lengthAdjust="spacing" textLength="21" x="1078" y="316.0283">is a</text><text fill="#000000" font-family="sans-serif" font-size="13" lengthAdjust="spacing" textLength="7" x="1326.5224" y="249.3367">1</text><text fill="#000000" font-family="sans-serif" font-size="13" lengthAdjust="spacing" textLength="7" x="862.9166" y="372.6499">1</text></g><!--MD5=[d7b5bd00dc78842bc19c5ed9353a54c1]
link SharedBoard to Cell--><g id="link_SharedBoard_Cell"><path codeLine="51" d="M595.95,234.49 C507.81,249.47 346.89,282.42 313,328 C264.9,392.68 303.17,491.2 332.17,547.02 " fill="none" id="SharedBoard-to-Cell" style="stroke:#181818;stroke-width:1.0;"/><polygon fill="#181818" points="334.59,551.62,333.9419,541.7925,332.263,547.1945,326.861,545.5156,334.59,551.62" style="stroke:#181818;stroke-width:1.0;"/><text fill="#000000" font-family="sans-serif" font-size="13" lengthAdjust="spacing" textLength="81" x="314" y="417.0283">has a position</text><text fill="#000000" font-family="sans-serif" font-size="13" lengthAdjust="spacing" textLength="7" x="581.0639" y="231.7571">1</text><text fill="#000000" font-family="sans-serif" font-size="13" lengthAdjust="spacing" textLength="7" x="323.2987" y="540.863">1</text></g><!--MD5=[d8c4d290910f851961495b48243b1d5f]
link SharedBoardLog to Cell--><g id="link_SharedBoardLog_Cell"><path codeLine="52" d="M461.91,442.13 C441.39,470.95 410.03,515.01 386.93,547.45 " fill="none" id="SharedBoardLog-to-Cell" style="stroke:#181818;stroke-width:1.0;"/><polygon fill="#181818" points="383.87,551.75,392.3494,546.7401,386.7708,547.6775,385.8334,542.0988,383.87,551.75" style="stroke:#181818;stroke-width:1.0;"/><text fill="#000000" font-family="sans-serif" font-size="13" lengthAdjust="spacing" textLength="75" x="432" y="495.0283">has a logCell</text><text fill="#000000" font-family="sans-serif" font-size="13" lengthAdjust="spacing" textLength="7" x="450.2225" y="463.6851">1</text><text fill="#000000" font-family="sans-serif" font-size="13" lengthAdjust="spacing" textLength="7" x="380.8867" y="540.7215">1</text></g><!--MD5=[8fc0d941c4f907d9c52f2d7e2b89e7f7]
link PostIt to TimeStamp--><g id="link_PostIt_TimeStamp"><path codeLine="66" d="M598.54,808.07 C611.75,831.09 628.45,860.23 640.95,882.03 " fill="none" id="PostIt-to-TimeStamp" style="stroke:#181818;stroke-width:1.0;"/><polygon fill="#181818" points="643.56,886.57,642.5608,876.772,641.0762,882.2305,635.6177,880.746,643.56,886.57" style="stroke:#181818;stroke-width:1.0;"/><text fill="#000000" font-family="sans-serif" font-size="13" lengthAdjust="spacing" textLength="21" x="626" y="853.0283">has</text><text fill="#000000" font-family="sans-serif" font-size="13" lengthAdjust="spacing" textLength="7" x="594.4151" y="829.6597">1</text><text fill="#000000" font-family="sans-serif" font-size="13" lengthAdjust="spacing" textLength="7" x="632.4169" y="875.7068">1</text></g><!--MD5=[d169426e0fc7faeee53011ef1e88d799]
link PostIt to Content--><g id="link_PostIt_Content"><path codeLine="67" d="M564.39,808.07 C556.69,831 546.96,859.98 539.66,881.76 " fill="none" id="PostIt-to-Content" style="stroke:#181818;stroke-width:1.0;"/><polygon fill="#181818" points="538.04,886.57,544.6874,879.3028,539.6254,881.828,537.1002,876.7661,538.04,886.57" style="stroke:#181818;stroke-width:1.0;"/><text fill="#000000" font-family="sans-serif" font-size="13" lengthAdjust="spacing" textLength="21" x="554" y="853.0283">has</text><text fill="#000000" font-family="sans-serif" font-size="13" lengthAdjust="spacing" textLength="7" x="554.8225" y="829.6597">1</text><text fill="#000000" font-family="sans-serif" font-size="13" lengthAdjust="spacing" textLength="7" x="532.2519" y="875.7068">1</text></g><!--MD5=[7caf0f37e494c0ee2bd4dee9665613f7]
link PostIt to Author--><g id="link_PostIt_Author"><path codeLine="68" d="M613.44,795.08 C650,819.74 706.3,857.72 745.25,883.99 " fill="none" id="PostIt-to-Author" style="stroke:#181818;stroke-width:1.0;"/><polygon fill="#181818" points="749.44,886.81,744.2232,878.4563,745.2974,884.0102,739.7435,885.0844,749.44,886.81" style="stroke:#181818;stroke-width:1.0;"/><text fill="#000000" font-family="sans-serif" font-size="13" lengthAdjust="spacing" textLength="32" x="702" y="853.0283">has a</text><text fill="#000000" font-family="sans-serif" font-size="13" lengthAdjust="spacing" textLength="7" x="621.0536" y="795.4355">1</text><text fill="#000000" font-family="sans-serif" font-size="13" lengthAdjust="spacing" textLength="7" x="732.4824" y="875.5514">1</text></g><!--MD5=[5fc02342b073558faf3663735d41a666]
link Cell to PostIt--><g id="link_Cell_PostIt"><path codeLine="69" d="M393.05,619.99 C408.19,632 425.98,646.14 442,659 C474.08,684.75 510.27,714.12 537.09,735.95 " fill="none" id="Cell-to-PostIt" style="stroke:#181818;stroke-width:1.0;"/><polygon fill="#181818" points="540.98,739.12,536.5173,730.3402,537.0994,735.967,531.4726,736.5491,540.98,739.12" style="stroke:#181818;stroke-width:1.0;"/><text fill="#000000" font-family="sans-serif" font-size="13" lengthAdjust="spacing" textLength="50" x="465" y="674.0283">PosPost</text><text fill="#000000" font-family="sans-serif" font-size="13" lengthAdjust="spacing" textLength="7" x="401.2072" y="621.4247">1</text><text fill="#000000" font-family="sans-serif" font-size="13" lengthAdjust="spacing" textLength="7" x="525.829" y="728.2065">1</text></g><!--MD5=[3b16accea20cf6ab242e834435d47b10]
link Permission to AccessLevel--><g id="link_Permission_AccessLevel"><path codeLine="76" d="M1035,450.04 C1035,482.08 1035,527.64 1035,557.86 " fill="none" id="Permission-to-AccessLevel" style="stroke:#181818;stroke-width:1.0;"/><polygon fill="#181818" points="1035,562.94,1039,553.94,1035,557.94,1031,553.94,1035,562.94" style="stroke:#181818;stroke-width:1.0;"/><text fill="#000000" font-family="sans-serif" font-size="13" lengthAdjust="spacing" textLength="36" x="1036" y="495.0283">has  a</text><text fill="#000000" font-family="sans-serif" font-size="13" lengthAdjust="spacing" textLength="7" x="1027.4422" y="471.6249">1</text><text fill="#000000" font-family="sans-serif" font-size="13" lengthAdjust="spacing" textLength="7" x="1027.1906" y="551.7114">1</text></g><!--MD5=[6e1de6b77afeef35224a18b2663f142c]
link SharedBoard to Permission--><g id="link_SharedBoard_Permission"><path codeLine="79" d="M712.37,250.87 C758.78,270.67 825.55,298.37 885,320 C895.96,323.99 899.48,322.96 910,328 C934.3,339.63 959.4,355.36 980.67,369.96 " fill="none" id="SharedBoard-to-Permission" style="stroke:#181818;stroke-width:1.0;"/><polygon fill="#181818" points="984.88,372.87,979.7632,364.4546,980.7711,370.021,975.2048,371.0289,984.88,372.87" style="stroke:#181818;stroke-width:1.0;"/><text fill="#000000" font-family="sans-serif" font-size="13" lengthAdjust="spacing" textLength="29" x="886" y="316.0283">gives</text><text fill="#000000" font-family="sans-serif" font-size="13" lengthAdjust="spacing" textLength="7" x="719.9104" y="250.1218">1</text><text fill="#000000" font-family="sans-serif" font-size="13" lengthAdjust="spacing" textLength="7" x="969.3343" y="362.4466">1</text></g><!--MD5=[30c50e7fb5211c4573ede036583df2ee]
reverse link User to Permission--><g id="link_User_Permission"><path codeLine="80" d="M1336.58,249.04 C1321.68,256.19 1305.21,264 1290,271 C1233.06,297.21 1216.07,298.07 1161,328 C1135.39,341.92 1108.18,359.37 1085.63,374.63 " fill="none" id="User-backto-Permission" style="stroke:#181818;stroke-width:1.0;"/><polygon fill="#181818" points="1341.15,246.85,1331.306,247.1588,1336.6469,249.0229,1334.7827,254.3638,1341.15,246.85" style="stroke:#181818;stroke-width:1.0;"/><text fill="#000000" font-family="sans-serif" font-size="13" lengthAdjust="spacing" textLength="92" x="1217" y="316.0283">is associated to</text><text fill="#000000" font-family="sans-serif" font-size="13" lengthAdjust="spacing" textLength="24" x="1309.6452" y="265.0767">1...*</text><text fill="#000000" font-family="sans-serif" font-size="13" lengthAdjust="spacing" textLength="7" x="1093.5803" y="365.0495">1</text></g><!--MD5=[c8ec8364d761f4ac1f254599c8d1d000]
@startuml
'https://plantuml.com/class-diagram

rectangle "<<Aggregate>> User" #bbaabb{

    entity User<<Root>><<Entity>><<Strategy>>
    object BirthDate<<Value Object>>
    object TaxNumber<<Value Object>><<Id>>
    object FullName<<Value Object>>
    object ShortName<<Value Object>>

    User"1" -up-> "1"BirthDate : has a
    User"1" -left-> "1"TaxNumber : has a
    User"1" - -> "1" FullName : has a
    User "1" -up->"1"ShortName : has a
}


rectangle "<<Aggregate>> Cell" #aaabbb{
     entity Cell <<Entity>><<Root>>
     object Number <<Value Object>>
     object Title <<Value Object>>
     object Column <<Value Object>>
     object Row <<Value Object>>

         Column "1"-right->"1" Number : has
         Column "1"- ->"1" Title : has
         Row "1"-left->"1" Number : has
         Row "1"- ->"1" Title : has
             Cell"1"- ->"1" Row : has a Posx
             Cell"1"- ->"1"Column : has a Posy
}


rectangle "<<Aggregate>> Shared Board" #business{

    entity SharedBoard<<Root>><<Entity>>
    entity SharedBoardLog<<Entity>>
    object OwnerSharedBoard <<Value Object>>
    object SharedBoardTitle <<Value Object>>

    object SharedBoardState <<Value Object>>


    SharedBoard"1"- ->"1"OwnerSharedBoard: has a
    SharedBoard"1"-up->"1"SharedBoardTitle : has a
    SharedBoard"1"- ->"1" SharedBoardLog : has a
    SharedBoard"1"- ->"1" SharedBoardState : has a

    User"1"->"1"OwnerSharedBoard: is a

    SharedBoard"1"- ->"1"Cell : has a position
    SharedBoardLog"1"- ->"1"Cell : has a logCell

}




rectangle "<<Aggregate>> PostIt" #gold{

    object Author <<Value Object>>
    object Content <<Value Object>>
    object TimeStamp <<Value Object>>
    entity PostIt <<Entity>><<Root>>

     PostIt"1"- ->"1"TimeStamp: has
     PostIt"1"- ->"1"Content : has
     PostIt"1"- ->"1"Author : has a
     Cell"1"- ->"1"PostIt : PosPost
}

rectangle "<<Aggregate>> Permission" #greenyellow{

    entity Permission<<Root>><<Entity>>
    object AccessLevel<<Value Object>>
    Permission"1"- ->"1"AccessLevel :  has  a
}

    SharedBoard"1"- ->"1"Permission : gives
    Permission "1"-up->"1...*" User : is associated to


@enduml

@startuml

rectangle "<<Aggregate>> User" #bbaabb{

    entity User<<Root>><<Entity>><<Strategy>>
    object BirthDate<<Value Object>>
    object TaxNumber<<Value Object>><<Id>>
    object FullName<<Value Object>>
    object ShortName<<Value Object>>

    User"1" -up-> "1"BirthDate : has a
    User"1" -left-> "1"TaxNumber : has a
    User"1" - -> "1" FullName : has a
    User "1" -up->"1"ShortName : has a
}


rectangle "<<Aggregate>> Cell" #aaabbb{
     entity Cell <<Entity>><<Root>>
     object Number <<Value Object>>
     object Title <<Value Object>>
     object Column <<Value Object>>
     object Row <<Value Object>>

         Column "1"-right->"1" Number : has
         Column "1"- ->"1" Title : has
         Row "1"-left->"1" Number : has
         Row "1"- ->"1" Title : has
             Cell"1"- ->"1" Row : has a Posx
             Cell"1"- ->"1"Column : has a Posy
}


rectangle "<<Aggregate>> Shared Board" #business{

    entity SharedBoard<<Root>><<Entity>>
    entity SharedBoardLog<<Entity>>
    object OwnerSharedBoard <<Value Object>>
    object SharedBoardTitle <<Value Object>>

    object SharedBoardState <<Value Object>>


    SharedBoard"1"- ->"1"OwnerSharedBoard: has a
    SharedBoard"1"-up->"1"SharedBoardTitle : has a
    SharedBoard"1"- ->"1" SharedBoardLog : has a
    SharedBoard"1"- ->"1" SharedBoardState : has a

    User"1"->"1"OwnerSharedBoard: is a

    SharedBoard"1"- ->"1"Cell : has a position
    SharedBoardLog"1"- ->"1"Cell : has a logCell

}




rectangle "<<Aggregate>> PostIt" #gold{

    object Author <<Value Object>>
    object Content <<Value Object>>
    object TimeStamp <<Value Object>>
    entity PostIt <<Entity>><<Root>>

     PostIt"1"- ->"1"TimeStamp: has
     PostIt"1"- ->"1"Content : has
     PostIt"1"- ->"1"Author : has a
     Cell"1"- ->"1"PostIt : PosPost
}

rectangle "<<Aggregate>> Permission" #greenyellow{

    entity Permission<<Root>><<Entity>>
    object AccessLevel<<Value Object>>
    Permission"1"- ->"1"AccessLevel :  has  a
}

    SharedBoard"1"- ->"1"Permission : gives
    Permission "1"-up->"1...*" User : is associated to


@enduml

PlantUML version 1.2022.12(Sun Oct 23 19:12:26 WEST 2022)
(GPL source distribution)
Java Runtime: OpenJDK Runtime Environment
JVM: OpenJDK 64-Bit Server VM
Default Encoding: Cp1252
Language: pt
Country: PT
--></g></svg>