<?xml version="1.0" encoding="UTF-8" standalone="no"?><svg xmlns="http://www.w3.org/2000/svg" xmlns:xlink="http://www.w3.org/1999/xlink" contentStyleType="text/css" height="1286px" preserveAspectRatio="none" style="width:762px;height:1286px;background:#FFFFFF;" version="1.1" viewBox="0 0 762 1286" width="762px" zoomAndPan="magnify"><defs/><g><!--MD5=[3dcf69e4e87a10af00fce8354034ba4c]
cluster presentation--><g id="cluster_presentation"><path d="M170.5,144 L261.5,144 A3.75,3.75 0 0 1 264,146.5 L271,168.6211 L343.5,168.6211 A2.5,2.5 0 0 1 346,171.1211 L346,279.5 A2.5,2.5 0 0 1 343.5,282 L170.5,282 A2.5,2.5 0 0 1 168,279.5 L168,146.5 A2.5,2.5 0 0 1 170.5,144 " fill="none" style="stroke:#000000;stroke-width:1.5;"/><line style="stroke:#000000;stroke-width:1.5;" x1="168" x2="271" y1="168.6211" y2="168.6211"/><text fill="#000000" font-family="sans-serif" font-size="14" font-weight="bold" lengthAdjust="spacing" textLength="90" x="172" y="161.1074">presentation</text></g><!--MD5=[3ff016c1aa5003d713567a073e2181a6]
cluster application--><g id="cluster_application"><path d="M8.5,359 L86.5,359 A3.75,3.75 0 0 1 89,361.5 L96,383.6211 L411.5,383.6211 A2.5,2.5 0 0 1 414,386.1211 L414,513.5 A2.5,2.5 0 0 1 411.5,516 L8.5,516 A2.5,2.5 0 0 1 6,513.5 L6,361.5 A2.5,2.5 0 0 1 8.5,359 " fill="none" style="stroke:#000000;stroke-width:1.5;"/><line style="stroke:#000000;stroke-width:1.5;" x1="6" x2="96" y1="383.6211" y2="383.6211"/><text fill="#000000" font-family="sans-serif" font-size="14" font-weight="bold" lengthAdjust="spacing" textLength="77" x="10" y="376.1074">application</text></g><!--MD5=[7579d5565d2521d5936cec86ed3dadee]
cluster service--><g id="cluster_service"><path d="M8.5,567 L62.5,567 A3.75,3.75 0 0 1 65,569.5 L72,591.6211 L411.5,591.6211 A2.5,2.5 0 0 1 414,594.1211 L414,721.5 A2.5,2.5 0 0 1 411.5,724 L8.5,724 A2.5,2.5 0 0 1 6,721.5 L6,569.5 A2.5,2.5 0 0 1 8.5,567 " fill="none" style="stroke:#000000;stroke-width:1.5;"/><line style="stroke:#000000;stroke-width:1.5;" x1="6" x2="72" y1="591.6211" y2="591.6211"/><text fill="#000000" font-family="sans-serif" font-size="14" font-weight="bold" lengthAdjust="spacing" textLength="53" x="10" y="584.1074">service</text></g><!--MD5=[0334151241c2df87d13997940bbf650c]
cluster persistence--><g id="cluster_persistence"><path d="M16.5,757 L101.5,757 A3.75,3.75 0 0 1 104,759.5 L111,781.6211 L506.5,781.6211 A2.5,2.5 0 0 1 509,784.1211 L509,1276.5 A2.5,2.5 0 0 1 506.5,1279 L16.5,1279 A2.5,2.5 0 0 1 14,1276.5 L14,759.5 A2.5,2.5 0 0 1 16.5,757 " fill="none" style="stroke:#000000;stroke-width:1.5;"/><line style="stroke:#000000;stroke-width:1.5;" x1="14" x2="111" y1="781.6211" y2="781.6211"/><text fill="#000000" font-family="sans-serif" font-size="14" font-weight="bold" lengthAdjust="spacing" textLength="84" x="18" y="774.1074">persistence</text></g><!--MD5=[7035c2ddab02ef456bacf540815747dc]
class ShareBoardUI--><g id="elem_ShareBoardUI"><rect codeLine="3" fill="#F1F1F1" height="85.2422" id="ShareBoardUI" rx="2.5" ry="2.5" style="stroke:#181818;stroke-width:0.5;" width="145" x="184.5" y="181"/><ellipse cx="210.75" cy="197" fill="#ADD1B2" rx="11" ry="11" style="stroke:#181818;stroke-width:1.0;"/><path d="M213.5156,192.875 Q213.6719,192.6563 213.8594,192.5469 Q214.0469,192.4375 214.2656,192.4375 Q214.6406,192.4375 214.875,192.7031 Q215.1094,192.9531 215.1094,193.5625 L215.1094,195.0156 Q215.1094,195.625 214.875,195.8906 Q214.6406,196.1563 214.2656,196.1563 Q213.9219,196.1563 213.7188,195.9531 Q213.5156,195.7656 213.4063,195.25 Q213.3594,194.8906 213.1719,194.7031 Q212.8438,194.3281 212.2344,194.1094 Q211.625,193.8906 211,193.8906 Q210.2344,193.8906 209.5938,194.2188 Q208.9688,194.5469 208.4688,195.2969 Q207.9844,196.0469 207.9844,197.0781 L207.9844,198.1719 Q207.9844,199.4063 208.875,200.2344 Q209.7656,201.0469 211.3594,201.0469 Q212.2969,201.0469 212.9531,200.7969 Q213.3438,200.6406 213.7656,200.2031 Q214.0313,199.9375 214.1719,199.8594 Q214.3281,199.7813 214.5313,199.7813 Q214.8594,199.7813 215.1094,200.0469 Q215.375,200.2969 215.375,200.6406 Q215.375,200.9844 215.0313,201.3906 Q214.5313,201.9688 213.7344,202.2969 Q212.6563,202.75 211.3594,202.75 Q209.8438,202.75 208.6406,202.125 Q207.6563,201.625 206.9688,200.5625 Q206.2813,199.4844 206.2813,198.2031 L206.2813,197.0469 Q206.2813,195.7188 206.8906,194.5781 Q207.5156,193.4219 208.6094,192.8125 Q209.7031,192.1875 210.9375,192.1875 Q211.6719,192.1875 212.3125,192.3594 Q212.9688,192.5156 213.5156,192.875 Z " fill="#000000"/><text fill="#000000" font-family="sans-serif" font-size="14" lengthAdjust="spacing" textLength="88" x="227.25" y="202.7969">ShareBoardUI</text><line style="stroke:#181818;stroke-width:0.5;" x1="185.5" x2="328.5" y1="213" y2="213"/><line style="stroke:#181818;stroke-width:0.5;" x1="185.5" x2="328.5" y1="221" y2="221"/><ellipse cx="195.5" cy="235.8105" fill="#84BE84" rx="3" ry="3" style="stroke:#038048;stroke-width:1.0;"/><text fill="#000000" font-family="sans-serif" font-size="14" lengthAdjust="spacing" textLength="119" x="204.5" y="240.1074">doShow(): boolean</text><ellipse cx="195.5" cy="254.4316" fill="#84BE84" rx="3" ry="3" style="stroke:#038048;stroke-width:1.0;"/><text fill="#000000" font-family="sans-serif" font-size="14" lengthAdjust="spacing" textLength="109" x="204.5" y="258.7285">headline(): String</text></g><!--MD5=[5853e3d0195ea269c9eb4f3796e6d249]
class ShareBoardController--><g id="elem_ShareBoardController"><rect codeLine="10" fill="#F1F1F1" height="103.8633" id="ShareBoardController" rx="2.5" ry="2.5" style="stroke:#181818;stroke-width:0.5;" width="375" x="22.5" y="396"/><ellipse cx="136.75" cy="412" fill="#ADD1B2" rx="11" ry="11" style="stroke:#181818;stroke-width:1.0;"/><path d="M139.5156,407.875 Q139.6719,407.6563 139.8594,407.5469 Q140.0469,407.4375 140.2656,407.4375 Q140.6406,407.4375 140.875,407.7031 Q141.1094,407.9531 141.1094,408.5625 L141.1094,410.0156 Q141.1094,410.625 140.875,410.8906 Q140.6406,411.1563 140.2656,411.1563 Q139.9219,411.1563 139.7188,410.9531 Q139.5156,410.7656 139.4063,410.25 Q139.3594,409.8906 139.1719,409.7031 Q138.8438,409.3281 138.2344,409.1094 Q137.625,408.8906 137,408.8906 Q136.2344,408.8906 135.5938,409.2188 Q134.9688,409.5469 134.4688,410.2969 Q133.9844,411.0469 133.9844,412.0781 L133.9844,413.1719 Q133.9844,414.4063 134.875,415.2344 Q135.7656,416.0469 137.3594,416.0469 Q138.2969,416.0469 138.9531,415.7969 Q139.3438,415.6406 139.7656,415.2031 Q140.0313,414.9375 140.1719,414.8594 Q140.3281,414.7813 140.5313,414.7813 Q140.8594,414.7813 141.1094,415.0469 Q141.375,415.2969 141.375,415.6406 Q141.375,415.9844 141.0313,416.3906 Q140.5313,416.9688 139.7344,417.2969 Q138.6563,417.75 137.3594,417.75 Q135.8438,417.75 134.6406,417.125 Q133.6563,416.625 132.9688,415.5625 Q132.2813,414.4844 132.2813,413.2031 L132.2813,412.0469 Q132.2813,410.7188 132.8906,409.5781 Q133.5156,408.4219 134.6094,407.8125 Q135.7031,407.1875 136.9375,407.1875 Q137.6719,407.1875 138.3125,407.3594 Q138.9688,407.5156 139.5156,407.875 Z " fill="#000000"/><text fill="#000000" font-family="sans-serif" font-size="14" lengthAdjust="spacing" textLength="138" x="157.25" y="417.7969">ShareBoardController</text><line style="stroke:#181818;stroke-width:0.5;" x1="23.5" x2="396.5" y1="428" y2="428"/><line style="stroke:#181818;stroke-width:0.5;" x1="23.5" x2="396.5" y1="436" y2="436"/><ellipse cx="33.5" cy="450.8105" fill="#84BE84" rx="3" ry="3" style="stroke:#038048;stroke-width:1.0;"/><text fill="#000000" font-family="sans-serif" font-size="14" lengthAdjust="spacing" textLength="271" x="42.5" y="455.1074">listOwnedBoards(): Iterable&lt;SharedBoard&gt;</text><ellipse cx="33.5" cy="469.4316" fill="#84BE84" rx="3" ry="3" style="stroke:#038048;stroke-width:1.0;"/><text fill="#000000" font-family="sans-serif" font-size="14" lengthAdjust="spacing" textLength="349" x="42.5" y="473.7285">readPermission(SharedBoard board, String email): void</text><ellipse cx="33.5" cy="488.0527" fill="#84BE84" rx="3" ry="3" style="stroke:#038048;stroke-width:1.0;"/><text fill="#000000" font-family="sans-serif" font-size="14" lengthAdjust="spacing" textLength="349" x="42.5" y="492.3496">writePermission(SharedBoard board, String email): void</text></g><!--MD5=[ee50cf03cb43d1e3bb4c82fb573b0046]
class ShareBoardManagementService--><g id="elem_ShareBoardManagementService"><rect codeLine="18" fill="#F1F1F1" height="103.8633" id="ShareBoardManagementService" rx="2.5" ry="2.5" style="stroke:#181818;stroke-width:0.5;" width="375" x="22.5" y="604"/><ellipse cx="103.25" cy="620" fill="#ADD1B2" rx="11" ry="11" style="stroke:#181818;stroke-width:1.0;"/><path d="M106.0156,615.875 Q106.1719,615.6563 106.3594,615.5469 Q106.5469,615.4375 106.7656,615.4375 Q107.1406,615.4375 107.375,615.7031 Q107.6094,615.9531 107.6094,616.5625 L107.6094,618.0156 Q107.6094,618.625 107.375,618.8906 Q107.1406,619.1563 106.7656,619.1563 Q106.4219,619.1563 106.2188,618.9531 Q106.0156,618.7656 105.9063,618.25 Q105.8594,617.8906 105.6719,617.7031 Q105.3438,617.3281 104.7344,617.1094 Q104.125,616.8906 103.5,616.8906 Q102.7344,616.8906 102.0938,617.2188 Q101.4688,617.5469 100.9688,618.2969 Q100.4844,619.0469 100.4844,620.0781 L100.4844,621.1719 Q100.4844,622.4063 101.375,623.2344 Q102.2656,624.0469 103.8594,624.0469 Q104.7969,624.0469 105.4531,623.7969 Q105.8438,623.6406 106.2656,623.2031 Q106.5313,622.9375 106.6719,622.8594 Q106.8281,622.7813 107.0313,622.7813 Q107.3594,622.7813 107.6094,623.0469 Q107.875,623.2969 107.875,623.6406 Q107.875,623.9844 107.5313,624.3906 Q107.0313,624.9688 106.2344,625.2969 Q105.1563,625.75 103.8594,625.75 Q102.3438,625.75 101.1406,625.125 Q100.1563,624.625 99.4688,623.5625 Q98.7813,622.4844 98.7813,621.2031 L98.7813,620.0469 Q98.7813,618.7188 99.3906,617.5781 Q100.0156,616.4219 101.1094,615.8125 Q102.2031,615.1875 103.4375,615.1875 Q104.1719,615.1875 104.8125,615.3594 Q105.4688,615.5156 106.0156,615.875 Z " fill="#000000"/><text fill="#000000" font-family="sans-serif" font-size="14" lengthAdjust="spacing" textLength="205" x="123.75" y="625.7969">ShareBoardManagementService</text><line style="stroke:#181818;stroke-width:0.5;" x1="23.5" x2="396.5" y1="636" y2="636"/><line style="stroke:#181818;stroke-width:0.5;" x1="23.5" x2="396.5" y1="644" y2="644"/><ellipse cx="33.5" cy="658.8105" fill="#84BE84" rx="3" ry="3" style="stroke:#038048;stroke-width:1.0;"/><text fill="#000000" font-family="sans-serif" font-size="14" lengthAdjust="spacing" textLength="271" x="42.5" y="663.1074">listOwnedBoards(): Iterable&lt;SharedBoard&gt;</text><ellipse cx="33.5" cy="677.4316" fill="#84BE84" rx="3" ry="3" style="stroke:#038048;stroke-width:1.0;"/><text fill="#000000" font-family="sans-serif" font-size="14" lengthAdjust="spacing" textLength="349" x="42.5" y="681.7285">readPermission(SharedBoard board, String email): void</text><ellipse cx="33.5" cy="696.0527" fill="#84BE84" rx="3" ry="3" style="stroke:#038048;stroke-width:1.0;"/><text fill="#000000" font-family="sans-serif" font-size="14" lengthAdjust="spacing" textLength="349" x="42.5" y="700.3496">writePermission(SharedBoard board, String email): void</text></g><!--MD5=[e8c189551b7885b999ad7cefb30fc2a3]
class PersistenceContext--><g id="elem_PersistenceContext"><rect codeLine="26" fill="#F1F1F1" height="66.6211" id="PersistenceContext" rx="2.5" ry="2.5" style="stroke:#181818;stroke-width:0.5;" width="234" x="93" y="794"/><ellipse cx="144.75" cy="810" fill="#ADD1B2" rx="11" ry="11" style="stroke:#181818;stroke-width:1.0;"/><path d="M147.5156,805.875 Q147.6719,805.6563 147.8594,805.5469 Q148.0469,805.4375 148.2656,805.4375 Q148.6406,805.4375 148.875,805.7031 Q149.1094,805.9531 149.1094,806.5625 L149.1094,808.0156 Q149.1094,808.625 148.875,808.8906 Q148.6406,809.1563 148.2656,809.1563 Q147.9219,809.1563 147.7188,808.9531 Q147.5156,808.7656 147.4063,808.25 Q147.3594,807.8906 147.1719,807.7031 Q146.8438,807.3281 146.2344,807.1094 Q145.625,806.8906 145,806.8906 Q144.2344,806.8906 143.5938,807.2188 Q142.9688,807.5469 142.4688,808.2969 Q141.9844,809.0469 141.9844,810.0781 L141.9844,811.1719 Q141.9844,812.4063 142.875,813.2344 Q143.7656,814.0469 145.3594,814.0469 Q146.2969,814.0469 146.9531,813.7969 Q147.3438,813.6406 147.7656,813.2031 Q148.0313,812.9375 148.1719,812.8594 Q148.3281,812.7813 148.5313,812.7813 Q148.8594,812.7813 149.1094,813.0469 Q149.375,813.2969 149.375,813.6406 Q149.375,813.9844 149.0313,814.3906 Q148.5313,814.9688 147.7344,815.2969 Q146.6563,815.75 145.3594,815.75 Q143.8438,815.75 142.6406,815.125 Q141.6563,814.625 140.9688,813.5625 Q140.2813,812.4844 140.2813,811.2031 L140.2813,810.0469 Q140.2813,808.7188 140.8906,807.5781 Q141.5156,806.4219 142.6094,805.8125 Q143.7031,805.1875 144.9375,805.1875 Q145.6719,805.1875 146.3125,805.3594 Q146.9688,805.5156 147.5156,805.875 Z " fill="#000000"/><text fill="#000000" font-family="sans-serif" font-size="14" lengthAdjust="spacing" textLength="122" x="165.25" y="815.7969">PersistenceContext</text><line style="stroke:#181818;stroke-width:0.5;" x1="94" x2="326" y1="826" y2="826"/><line style="stroke:#181818;stroke-width:0.5;" x1="94" x2="326" y1="834" y2="834"/><ellipse cx="104" cy="848.8105" fill="#84BE84" rx="3" ry="3" style="stroke:#038048;stroke-width:1.0;"/><text fill="#000000" font-family="sans-serif" font-size="14" lengthAdjust="spacing" textLength="208" x="113" y="853.1074">repositories(): RepositoryFactory</text></g><!--MD5=[48590afff58a68e2fcba47824d6f8a11]
class RepositoryFactory--><g id="elem_RepositoryFactory"><rect codeLine="30" fill="#F1F1F1" height="85.2422" id="RepositoryFactory" rx="2.5" ry="2.5" style="stroke:#181818;stroke-width:0.5;" width="346" x="37" y="922"/><ellipse cx="147.75" cy="938" fill="#B4A7E5" rx="11" ry="11" style="stroke:#181818;stroke-width:1.0;"/><path d="M148.7031,934.6406 L148.7031,941.2969 L150.4219,941.2969 Q151.0313,941.2969 151.2969,941.5313 Q151.5625,941.7656 151.5625,942.1563 Q151.5625,942.5313 151.2969,942.7656 Q151.0313,943 150.4219,943 L145.2813,943 Q144.6719,943 144.4063,942.7656 Q144.1406,942.5313 144.1406,942.1406 Q144.1406,941.7656 144.4063,941.5313 Q144.6719,941.2969 145.2813,941.2969 L147,941.2969 L147,934.6406 L145.2813,934.6406 Q144.6719,934.6406 144.4063,934.4063 Q144.1406,934.1719 144.1406,933.7813 Q144.1406,933.4063 144.4063,933.1719 Q144.6719,932.9375 145.2813,932.9375 L150.4219,932.9375 Q151.0313,932.9375 151.2969,933.1719 Q151.5625,933.4063 151.5625,933.7813 Q151.5625,934.1719 151.2969,934.4063 Q151.0313,934.6406 150.4219,934.6406 L148.7031,934.6406 Z " fill="#000000"/><text fill="#000000" font-family="sans-serif" font-size="14" font-style="italic" lengthAdjust="spacing" textLength="116" x="168.25" y="943.7969">RepositoryFactory</text><line style="stroke:#181818;stroke-width:0.5;" x1="38" x2="382" y1="954" y2="954"/><line style="stroke:#181818;stroke-width:0.5;" x1="38" x2="382" y1="962" y2="962"/><ellipse cx="48" cy="976.8105" fill="#84BE84" rx="3" ry="3" style="stroke:#038048;stroke-width:1.0;"/><text fill="#000000" font-family="sans-serif" font-size="14" lengthAdjust="spacing" textLength="320" x="57" y="981.1074">sharedBoardRepository(): SharedBoardRepository</text><ellipse cx="48" cy="995.4316" fill="#84BE84" rx="3" ry="3" style="stroke:#038048;stroke-width:1.0;"/><text fill="#000000" font-family="sans-serif" font-size="14" lengthAdjust="spacing" textLength="199" x="57" y="999.7285">cellRepository(): CellRepository</text></g><!--MD5=[6e84673ea0e0779ac9797c6daf6a3606]
class SharedBoardRepository--><g id="elem_SharedBoardRepository"><rect codeLine="35" fill="#F1F1F1" height="66.6211" id="SharedBoardRepository" rx="2.5" ry="2.5" style="stroke:#181818;stroke-width:0.5;" width="274" x="219" y="1068"/><ellipse cx="275.75" cy="1084" fill="#B4A7E5" rx="11" ry="11" style="stroke:#181818;stroke-width:1.0;"/><path d="M276.7031,1080.6406 L276.7031,1087.2969 L278.4219,1087.2969 Q279.0313,1087.2969 279.2969,1087.5313 Q279.5625,1087.7656 279.5625,1088.1563 Q279.5625,1088.5313 279.2969,1088.7656 Q279.0313,1089 278.4219,1089 L273.2813,1089 Q272.6719,1089 272.4063,1088.7656 Q272.1406,1088.5313 272.1406,1088.1406 Q272.1406,1087.7656 272.4063,1087.5313 Q272.6719,1087.2969 273.2813,1087.2969 L275,1087.2969 L275,1080.6406 L273.2813,1080.6406 Q272.6719,1080.6406 272.4063,1080.4063 Q272.1406,1080.1719 272.1406,1079.7813 Q272.1406,1079.4063 272.4063,1079.1719 Q272.6719,1078.9375 273.2813,1078.9375 L278.4219,1078.9375 Q279.0313,1078.9375 279.2969,1079.1719 Q279.5625,1079.4063 279.5625,1079.7813 Q279.5625,1080.1719 279.2969,1080.4063 Q279.0313,1080.6406 278.4219,1080.6406 L276.7031,1080.6406 Z " fill="#000000"/><text fill="#000000" font-family="sans-serif" font-size="14" font-style="italic" lengthAdjust="spacing" textLength="152" x="296.25" y="1089.7969">SharedBoardRepository</text><line style="stroke:#181818;stroke-width:0.5;" x1="220" x2="492" y1="1100" y2="1100"/><line style="stroke:#181818;stroke-width:0.5;" x1="220" x2="492" y1="1108" y2="1108"/><ellipse cx="230" cy="1122.8105" fill="#84BE84" rx="3" ry="3" style="stroke:#038048;stroke-width:1.0;"/><text fill="#000000" font-family="sans-serif" font-size="14" lengthAdjust="spacing" textLength="248" x="239" y="1127.1074">save(sharedBoard: SharedBoard): void</text></g><!--MD5=[011fabc23896c940e74e5210d6f1b1d2]
class JpaSharedBoardRepository--><g id="elem_JpaSharedBoardRepository"><rect codeLine="39" fill="#F1F1F1" height="66.6211" id="JpaSharedBoardRepository" rx="2.5" ry="2.5" style="stroke:#181818;stroke-width:0.5;" width="274" x="219" y="1196"/><ellipse cx="264.75" cy="1212" fill="#ADD1B2" rx="11" ry="11" style="stroke:#181818;stroke-width:1.0;"/><path d="M267.5156,1207.875 Q267.6719,1207.6563 267.8594,1207.5469 Q268.0469,1207.4375 268.2656,1207.4375 Q268.6406,1207.4375 268.875,1207.7031 Q269.1094,1207.9531 269.1094,1208.5625 L269.1094,1210.0156 Q269.1094,1210.625 268.875,1210.8906 Q268.6406,1211.1563 268.2656,1211.1563 Q267.9219,1211.1563 267.7188,1210.9531 Q267.5156,1210.7656 267.4063,1210.25 Q267.3594,1209.8906 267.1719,1209.7031 Q266.8438,1209.3281 266.2344,1209.1094 Q265.625,1208.8906 265,1208.8906 Q264.2344,1208.8906 263.5938,1209.2188 Q262.9688,1209.5469 262.4688,1210.2969 Q261.9844,1211.0469 261.9844,1212.0781 L261.9844,1213.1719 Q261.9844,1214.4063 262.875,1215.2344 Q263.7656,1216.0469 265.3594,1216.0469 Q266.2969,1216.0469 266.9531,1215.7969 Q267.3438,1215.6406 267.7656,1215.2031 Q268.0313,1214.9375 268.1719,1214.8594 Q268.3281,1214.7813 268.5313,1214.7813 Q268.8594,1214.7813 269.1094,1215.0469 Q269.375,1215.2969 269.375,1215.6406 Q269.375,1215.9844 269.0313,1216.3906 Q268.5313,1216.9688 267.7344,1217.2969 Q266.6563,1217.75 265.3594,1217.75 Q263.8438,1217.75 262.6406,1217.125 Q261.6563,1216.625 260.9688,1215.5625 Q260.2813,1214.4844 260.2813,1213.2031 L260.2813,1212.0469 Q260.2813,1210.7188 260.8906,1209.5781 Q261.5156,1208.4219 262.6094,1207.8125 Q263.7031,1207.1875 264.9375,1207.1875 Q265.6719,1207.1875 266.3125,1207.3594 Q266.9688,1207.5156 267.5156,1207.875 Z " fill="#000000"/><text fill="#000000" font-family="sans-serif" font-size="14" lengthAdjust="spacing" textLength="174" x="285.25" y="1217.7969">JpaSharedBoardRepository</text><line style="stroke:#181818;stroke-width:0.5;" x1="220" x2="492" y1="1228" y2="1228"/><line style="stroke:#181818;stroke-width:0.5;" x1="220" x2="492" y1="1236" y2="1236"/><ellipse cx="230" cy="1250.8105" fill="#84BE84" rx="3" ry="3" style="stroke:#038048;stroke-width:1.0;"/><text fill="#000000" font-family="sans-serif" font-size="14" lengthAdjust="spacing" textLength="248" x="239" y="1255.1074">save(sharedBoard: SharedBoard): void</text></g><!--MD5=[678b9909c6262853d50a84df8a52a998]
class CellRepository--><g id="elem_CellRepository"><rect codeLine="43" fill="#F1F1F1" height="66.6211" id="CellRepository" rx="2.5" ry="2.5" style="stroke:#181818;stroke-width:0.5;" width="153" x="30.5" y="1068"/><ellipse cx="58.55" cy="1084" fill="#B4A7E5" rx="11" ry="11" style="stroke:#181818;stroke-width:1.0;"/><path d="M59.5031,1080.6406 L59.5031,1087.2969 L61.2219,1087.2969 Q61.8313,1087.2969 62.0969,1087.5313 Q62.3625,1087.7656 62.3625,1088.1563 Q62.3625,1088.5313 62.0969,1088.7656 Q61.8313,1089 61.2219,1089 L56.0813,1089 Q55.4719,1089 55.2063,1088.7656 Q54.9406,1088.5313 54.9406,1088.1406 Q54.9406,1087.7656 55.2063,1087.5313 Q55.4719,1087.2969 56.0813,1087.2969 L57.8,1087.2969 L57.8,1080.6406 L56.0813,1080.6406 Q55.4719,1080.6406 55.2063,1080.4063 Q54.9406,1080.1719 54.9406,1079.7813 Q54.9406,1079.4063 55.2063,1079.1719 Q55.4719,1078.9375 56.0813,1078.9375 L61.2219,1078.9375 Q61.8313,1078.9375 62.0969,1079.1719 Q62.3625,1079.4063 62.3625,1079.7813 Q62.3625,1080.1719 62.0969,1080.4063 Q61.8313,1080.6406 61.2219,1080.6406 L59.5031,1080.6406 Z " fill="#000000"/><text fill="#000000" font-family="sans-serif" font-size="14" font-style="italic" lengthAdjust="spacing" textLength="92" x="75.45" y="1089.7969">CellRepository</text><line style="stroke:#181818;stroke-width:0.5;" x1="31.5" x2="182.5" y1="1100" y2="1100"/><line style="stroke:#181818;stroke-width:0.5;" x1="31.5" x2="182.5" y1="1108" y2="1108"/><ellipse cx="41.5" cy="1122.8105" fill="#84BE84" rx="3" ry="3" style="stroke:#038048;stroke-width:1.0;"/><text fill="#000000" font-family="sans-serif" font-size="14" lengthAdjust="spacing" textLength="127" x="50.5" y="1127.1074">save(cell: Cell): void</text></g><!--MD5=[1fd0e6868e73ff390936fd0a4e38dbf2]
class JpaCellRepository--><g id="elem_JpaCellRepository"><rect codeLine="48" fill="#F1F1F1" height="66.6211" id="JpaCellRepository" rx="2.5" ry="2.5" style="stroke:#181818;stroke-width:0.5;" width="153" x="30.5" y="1196"/><ellipse cx="48.65" cy="1212" fill="#ADD1B2" rx="11" ry="11" style="stroke:#181818;stroke-width:1.0;"/><path d="M51.4156,1207.875 Q51.5719,1207.6563 51.7594,1207.5469 Q51.9469,1207.4375 52.1656,1207.4375 Q52.5406,1207.4375 52.775,1207.7031 Q53.0094,1207.9531 53.0094,1208.5625 L53.0094,1210.0156 Q53.0094,1210.625 52.775,1210.8906 Q52.5406,1211.1563 52.1656,1211.1563 Q51.8219,1211.1563 51.6188,1210.9531 Q51.4156,1210.7656 51.3063,1210.25 Q51.2594,1209.8906 51.0719,1209.7031 Q50.7438,1209.3281 50.1344,1209.1094 Q49.525,1208.8906 48.9,1208.8906 Q48.1344,1208.8906 47.4938,1209.2188 Q46.8688,1209.5469 46.3688,1210.2969 Q45.8844,1211.0469 45.8844,1212.0781 L45.8844,1213.1719 Q45.8844,1214.4063 46.775,1215.2344 Q47.6656,1216.0469 49.2594,1216.0469 Q50.1969,1216.0469 50.8531,1215.7969 Q51.2438,1215.6406 51.6656,1215.2031 Q51.9313,1214.9375 52.0719,1214.8594 Q52.2281,1214.7813 52.4313,1214.7813 Q52.7594,1214.7813 53.0094,1215.0469 Q53.275,1215.2969 53.275,1215.6406 Q53.275,1215.9844 52.9313,1216.3906 Q52.4313,1216.9688 51.6344,1217.2969 Q50.5563,1217.75 49.2594,1217.75 Q47.7438,1217.75 46.5406,1217.125 Q45.5563,1216.625 44.8688,1215.5625 Q44.1813,1214.4844 44.1813,1213.2031 L44.1813,1212.0469 Q44.1813,1210.7188 44.7906,1209.5781 Q45.4156,1208.4219 46.5094,1207.8125 Q47.6031,1207.1875 48.8375,1207.1875 Q49.5719,1207.1875 50.2125,1207.3594 Q50.8688,1207.5156 51.4156,1207.875 Z " fill="#000000"/><text fill="#000000" font-family="sans-serif" font-size="14" lengthAdjust="spacing" textLength="114" x="63.35" y="1217.7969">JpaCellRepository</text><line style="stroke:#181818;stroke-width:0.5;" x1="31.5" x2="182.5" y1="1228" y2="1228"/><line style="stroke:#181818;stroke-width:0.5;" x1="31.5" x2="182.5" y1="1236" y2="1236"/><ellipse cx="41.5" cy="1250.8105" fill="#84BE84" rx="3" ry="3" style="stroke:#038048;stroke-width:1.0;"/><text fill="#000000" font-family="sans-serif" font-size="14" lengthAdjust="spacing" textLength="127" x="50.5" y="1255.1074">save(cell: Cell): void</text></g><!--MD5=[ed6624c6556d5e7b1bd23032162d20b7]
class Client--><g id="elem_Client"><rect codeLine="57" fill="#F1F1F1" height="66.6211" id="Client" rx="2.5" ry="2.5" style="stroke:#181818;stroke-width:0.5;" width="437" x="38.5" y="7"/><ellipse cx="234.75" cy="23" fill="#ADD1B2" rx="11" ry="11" style="stroke:#181818;stroke-width:1.0;"/><path d="M237.5156,18.875 Q237.6719,18.6563 237.8594,18.5469 Q238.0469,18.4375 238.2656,18.4375 Q238.6406,18.4375 238.875,18.7031 Q239.1094,18.9531 239.1094,19.5625 L239.1094,21.0156 Q239.1094,21.625 238.875,21.8906 Q238.6406,22.1563 238.2656,22.1563 Q237.9219,22.1563 237.7188,21.9531 Q237.5156,21.7656 237.4063,21.25 Q237.3594,20.8906 237.1719,20.7031 Q236.8438,20.3281 236.2344,20.1094 Q235.625,19.8906 235,19.8906 Q234.2344,19.8906 233.5938,20.2188 Q232.9688,20.5469 232.4688,21.2969 Q231.9844,22.0469 231.9844,23.0781 L231.9844,24.1719 Q231.9844,25.4063 232.875,26.2344 Q233.7656,27.0469 235.3594,27.0469 Q236.2969,27.0469 236.9531,26.7969 Q237.3438,26.6406 237.7656,26.2031 Q238.0313,25.9375 238.1719,25.8594 Q238.3281,25.7813 238.5313,25.7813 Q238.8594,25.7813 239.1094,26.0469 Q239.375,26.2969 239.375,26.6406 Q239.375,26.9844 239.0313,27.3906 Q238.5313,27.9688 237.7344,28.2969 Q236.6563,28.75 235.3594,28.75 Q233.8438,28.75 232.6406,28.125 Q231.6563,27.625 230.9688,26.5625 Q230.2813,25.4844 230.2813,24.2031 L230.2813,23.0469 Q230.2813,21.7188 230.8906,20.5781 Q231.5156,19.4219 232.6094,18.8125 Q233.7031,18.1875 234.9375,18.1875 Q235.6719,18.1875 236.3125,18.3594 Q236.9688,18.5156 237.5156,18.875 Z " fill="#000000"/><text fill="#000000" font-family="sans-serif" font-size="14" lengthAdjust="spacing" textLength="36" x="255.25" y="28.7969">Client</text><line style="stroke:#181818;stroke-width:0.5;" x1="39.5" x2="474.5" y1="39" y2="39"/><line style="stroke:#181818;stroke-width:0.5;" x1="39.5" x2="474.5" y1="47" y2="47"/><ellipse cx="49.5" cy="61.8105" fill="#84BE84" rx="3" ry="3" style="stroke:#038048;stroke-width:1.0;"/><text fill="#000000" font-family="sans-serif" font-size="14" lengthAdjust="spacing" textLength="411" x="58.5" y="66.1074">createPostIt(socket, inputStream, outputStream, bufferedReader)</text></g><!--MD5=[5011627591ee4f7a3d58490c0e7112ca]
class ClientHandler--><g id="elem_ClientHandler"><rect codeLine="61" fill="#F1F1F1" height="141.1055" id="ClientHandler" rx="2.5" ry="2.5" style="stroke:#181818;stroke-width:0.5;" width="245" x="471.5" y="153"/><ellipse cx="547.25" cy="169" fill="#ADD1B2" rx="11" ry="11" style="stroke:#181818;stroke-width:1.0;"/><path d="M550.0156,164.875 Q550.1719,164.6563 550.3594,164.5469 Q550.5469,164.4375 550.7656,164.4375 Q551.1406,164.4375 551.375,164.7031 Q551.6094,164.9531 551.6094,165.5625 L551.6094,167.0156 Q551.6094,167.625 551.375,167.8906 Q551.1406,168.1563 550.7656,168.1563 Q550.4219,168.1563 550.2188,167.9531 Q550.0156,167.7656 549.9063,167.25 Q549.8594,166.8906 549.6719,166.7031 Q549.3438,166.3281 548.7344,166.1094 Q548.125,165.8906 547.5,165.8906 Q546.7344,165.8906 546.0938,166.2188 Q545.4688,166.5469 544.9688,167.2969 Q544.4844,168.0469 544.4844,169.0781 L544.4844,170.1719 Q544.4844,171.4063 545.375,172.2344 Q546.2656,173.0469 547.8594,173.0469 Q548.7969,173.0469 549.4531,172.7969 Q549.8438,172.6406 550.2656,172.2031 Q550.5313,171.9375 550.6719,171.8594 Q550.8281,171.7813 551.0313,171.7813 Q551.3594,171.7813 551.6094,172.0469 Q551.875,172.2969 551.875,172.6406 Q551.875,172.9844 551.5313,173.3906 Q551.0313,173.9688 550.2344,174.2969 Q549.1563,174.75 547.8594,174.75 Q546.3438,174.75 545.1406,174.125 Q544.1563,173.625 543.4688,172.5625 Q542.7813,171.4844 542.7813,170.2031 L542.7813,169.0469 Q542.7813,167.7188 543.3906,166.5781 Q544.0156,165.4219 545.1094,164.8125 Q546.2031,164.1875 547.4375,164.1875 Q548.1719,164.1875 548.8125,164.3594 Q549.4688,164.5156 550.0156,164.875 Z " fill="#000000"/><text fill="#000000" font-family="sans-serif" font-size="14" lengthAdjust="spacing" textLength="85" x="567.75" y="174.7969">ClientHandler</text><line style="stroke:#181818;stroke-width:0.5;" x1="472.5" x2="715.5" y1="185" y2="185"/><line style="stroke:#181818;stroke-width:0.5;" x1="472.5" x2="715.5" y1="193" y2="193"/><ellipse cx="482.5" cy="207.8105" fill="#84BE84" rx="3" ry="3" style="stroke:#038048;stroke-width:1.0;"/><text fill="#000000" font-family="sans-serif" font-size="14" lengthAdjust="spacing" textLength="147" x="491.5" y="212.1074">createPostIT(message)</text><ellipse cx="482.5" cy="226.4316" fill="#84BE84" rx="3" ry="3" style="stroke:#038048;stroke-width:1.0;"/><text fill="#000000" font-family="sans-serif" font-size="14" lengthAdjust="spacing" textLength="219" x="491.5" y="230.7285">findWriteAdminPermissionBoards()</text><ellipse cx="482.5" cy="245.0527" fill="#84BE84" rx="3" ry="3" style="stroke:#038048;stroke-width:1.0;"/><text fill="#000000" font-family="sans-serif" font-size="14" lengthAdjust="spacing" textLength="211" x="491.5" y="249.3496">findSharedBoardString(message)</text><ellipse cx="482.5" cy="263.6738" fill="#84BE84" rx="3" ry="3" style="stroke:#038048;stroke-width:1.0;"/><text fill="#000000" font-family="sans-serif" font-size="14" lengthAdjust="spacing" textLength="185" x="491.5" y="267.9707">findEmptyCells(sharedBoard)</text><ellipse cx="482.5" cy="282.2949" fill="#84BE84" rx="3" ry="3" style="stroke:#038048;stroke-width:1.0;"/><text fill="#000000" font-family="sans-serif" font-size="14" lengthAdjust="spacing" textLength="213" x="491.5" y="286.5918">createPostIt(cell, title, description)</text></g><!--MD5=[90a2bbef8b0803d85099380473200cfa]
class RcompService--><g id="elem_RcompService"><rect codeLine="69" fill="#F1F1F1" height="85.2422" id="RcompService" rx="2.5" ry="2.5" style="stroke:#181818;stroke-width:0.5;" width="323" x="432.5" y="405.5"/><ellipse cx="544.25" cy="421.5" fill="#ADD1B2" rx="11" ry="11" style="stroke:#181818;stroke-width:1.0;"/><path d="M547.0156,417.375 Q547.1719,417.1563 547.3594,417.0469 Q547.5469,416.9375 547.7656,416.9375 Q548.1406,416.9375 548.375,417.2031 Q548.6094,417.4531 548.6094,418.0625 L548.6094,419.5156 Q548.6094,420.125 548.375,420.3906 Q548.1406,420.6563 547.7656,420.6563 Q547.4219,420.6563 547.2188,420.4531 Q547.0156,420.2656 546.9063,419.75 Q546.8594,419.3906 546.6719,419.2031 Q546.3438,418.8281 545.7344,418.6094 Q545.125,418.3906 544.5,418.3906 Q543.7344,418.3906 543.0938,418.7188 Q542.4688,419.0469 541.9688,419.7969 Q541.4844,420.5469 541.4844,421.5781 L541.4844,422.6719 Q541.4844,423.9063 542.375,424.7344 Q543.2656,425.5469 544.8594,425.5469 Q545.7969,425.5469 546.4531,425.2969 Q546.8438,425.1406 547.2656,424.7031 Q547.5313,424.4375 547.6719,424.3594 Q547.8281,424.2813 548.0313,424.2813 Q548.3594,424.2813 548.6094,424.5469 Q548.875,424.7969 548.875,425.1406 Q548.875,425.4844 548.5313,425.8906 Q548.0313,426.4688 547.2344,426.7969 Q546.1563,427.25 544.8594,427.25 Q543.3438,427.25 542.1406,426.625 Q541.1563,426.125 540.4688,425.0625 Q539.7813,423.9844 539.7813,422.7031 L539.7813,421.5469 Q539.7813,420.2188 540.3906,419.0781 Q541.0156,417.9219 542.1094,417.3125 Q543.2031,416.6875 544.4375,416.6875 Q545.1719,416.6875 545.8125,416.8594 Q546.4688,417.0156 547.0156,417.375 Z " fill="#000000"/><text fill="#000000" font-family="sans-serif" font-size="14" lengthAdjust="spacing" textLength="91" x="564.75" y="427.2969">RcompService</text><line style="stroke:#181818;stroke-width:0.5;" x1="433.5" x2="754.5" y1="437.5" y2="437.5"/><line style="stroke:#181818;stroke-width:0.5;" x1="433.5" x2="754.5" y1="445.5" y2="445.5"/><ellipse cx="443.5" cy="460.3105" fill="#84BE84" rx="3" ry="3" style="stroke:#038048;stroke-width:1.0;"/><text fill="#000000" font-family="sans-serif" font-size="14" lengthAdjust="spacing" textLength="297" x="452.5" y="464.6074">sendMessage(socket, message, outputStream)</text><ellipse cx="443.5" cy="478.9316" fill="#84BE84" rx="3" ry="3" style="stroke:#038048;stroke-width:1.0;"/><text fill="#000000" font-family="sans-serif" font-size="14" lengthAdjust="spacing" textLength="194" x="452.5" y="483.2285">readData(socket, inputStream)</text></g><!--MD5=[f2b0eeb9c119b3896168a7397a71839e]
class FormatMessage--><g id="elem_FormatMessage"><rect codeLine="74" fill="#F1F1F1" height="48" id="FormatMessage" rx="2.5" ry="2.5" style="stroke:#181818;stroke-width:0.5;" width="134" x="527" y="632"/><ellipse cx="542" cy="648" fill="#ADD1B2" rx="11" ry="11" style="stroke:#181818;stroke-width:1.0;"/><path d="M544.7656,643.875 Q544.9219,643.6563 545.1094,643.5469 Q545.2969,643.4375 545.5156,643.4375 Q545.8906,643.4375 546.125,643.7031 Q546.3594,643.9531 546.3594,644.5625 L546.3594,646.0156 Q546.3594,646.625 546.125,646.8906 Q545.8906,647.1563 545.5156,647.1563 Q545.1719,647.1563 544.9688,646.9531 Q544.7656,646.7656 544.6563,646.25 Q544.6094,645.8906 544.4219,645.7031 Q544.0938,645.3281 543.4844,645.1094 Q542.875,644.8906 542.25,644.8906 Q541.4844,644.8906 540.8438,645.2188 Q540.2188,645.5469 539.7188,646.2969 Q539.2344,647.0469 539.2344,648.0781 L539.2344,649.1719 Q539.2344,650.4063 540.125,651.2344 Q541.0156,652.0469 542.6094,652.0469 Q543.5469,652.0469 544.2031,651.7969 Q544.5938,651.6406 545.0156,651.2031 Q545.2813,650.9375 545.4219,650.8594 Q545.5781,650.7813 545.7813,650.7813 Q546.1094,650.7813 546.3594,651.0469 Q546.625,651.2969 546.625,651.6406 Q546.625,651.9844 546.2813,652.3906 Q545.7813,652.9688 544.9844,653.2969 Q543.9063,653.75 542.6094,653.75 Q541.0938,653.75 539.8906,653.125 Q538.9063,652.625 538.2188,651.5625 Q537.5313,650.4844 537.5313,649.2031 L537.5313,648.0469 Q537.5313,646.7188 538.1406,645.5781 Q538.7656,644.4219 539.8594,643.8125 Q540.9531,643.1875 542.1875,643.1875 Q542.9219,643.1875 543.5625,643.3594 Q544.2188,643.5156 544.7656,643.875 Z " fill="#000000"/><text fill="#000000" font-family="sans-serif" font-size="14" lengthAdjust="spacing" textLength="102" x="556" y="653.7969">FormatMessage</text><line style="stroke:#181818;stroke-width:0.5;" x1="528" x2="660" y1="664" y2="664"/><line style="stroke:#181818;stroke-width:0.5;" x1="528" x2="660" y1="672" y2="672"/></g><!--MD5=[c60af77fe5573b84a4aa4bce89659574]
class Server--><g id="elem_Server"><rect fill="#F1F1F1" height="48" id="Server" rx="2.5" ry="2.5" style="stroke:#181818;stroke-width:0.5;" width="74" x="557" y="16.5"/><ellipse cx="572" cy="32.5" fill="#ADD1B2" rx="11" ry="11" style="stroke:#181818;stroke-width:1.0;"/><path d="M574.7656,28.375 Q574.9219,28.1563 575.1094,28.0469 Q575.2969,27.9375 575.5156,27.9375 Q575.8906,27.9375 576.125,28.2031 Q576.3594,28.4531 576.3594,29.0625 L576.3594,30.5156 Q576.3594,31.125 576.125,31.3906 Q575.8906,31.6563 575.5156,31.6563 Q575.1719,31.6563 574.9688,31.4531 Q574.7656,31.2656 574.6563,30.75 Q574.6094,30.3906 574.4219,30.2031 Q574.0938,29.8281 573.4844,29.6094 Q572.875,29.3906 572.25,29.3906 Q571.4844,29.3906 570.8438,29.7188 Q570.2188,30.0469 569.7188,30.7969 Q569.2344,31.5469 569.2344,32.5781 L569.2344,33.6719 Q569.2344,34.9063 570.125,35.7344 Q571.0156,36.5469 572.6094,36.5469 Q573.5469,36.5469 574.2031,36.2969 Q574.5938,36.1406 575.0156,35.7031 Q575.2813,35.4375 575.4219,35.3594 Q575.5781,35.2813 575.7813,35.2813 Q576.1094,35.2813 576.3594,35.5469 Q576.625,35.7969 576.625,36.1406 Q576.625,36.4844 576.2813,36.8906 Q575.7813,37.4688 574.9844,37.7969 Q573.9063,38.25 572.6094,38.25 Q571.0938,38.25 569.8906,37.625 Q568.9063,37.125 568.2188,36.0625 Q567.5313,34.9844 567.5313,33.7031 L567.5313,32.5469 Q567.5313,31.2188 568.1406,30.0781 Q568.7656,28.9219 569.8594,28.3125 Q570.9531,27.6875 572.1875,27.6875 Q572.9219,27.6875 573.5625,27.8594 Q574.2188,28.0156 574.7656,28.375 Z " fill="#000000"/><text fill="#000000" font-family="sans-serif" font-size="14" lengthAdjust="spacing" textLength="42" x="586" y="38.2969">Server</text><line style="stroke:#181818;stroke-width:0.5;" x1="558" x2="630" y1="48.5" y2="48.5"/><line style="stroke:#181818;stroke-width:0.5;" x1="558" x2="630" y1="56.5" y2="56.5"/></g><!--MD5=[64378069abca8a10f8631d579d552afb]
reverse link SharedBoardRepository to JpaSharedBoardRepository--><g id="link_SharedBoardRepository_JpaSharedBoardRepository"><path codeLine="38" d="M356,1155.31 C356,1169.07 356,1183.51 356,1195.89 " fill="none" id="SharedBoardRepository-backto-JpaSharedBoardRepository" style="stroke:#181818;stroke-width:1.0;"/><polygon fill="none" points="349,1155.28,356,1135.28,363,1155.28,349,1155.28" style="stroke:#181818;stroke-width:1.0;"/></g><!--MD5=[f87c6af07e906fb12b29fd8747db28ae]
reverse link CellRepository to JpaCellRepository--><g id="link_CellRepository_JpaCellRepository"><path codeLine="46" d="M107,1155.31 C107,1169.07 107,1183.51 107,1195.89 " fill="none" id="CellRepository-backto-JpaCellRepository" style="stroke:#181818;stroke-width:1.0;"/><polygon fill="none" points="100,1155.28,107,1135.28,114,1155.28,100,1155.28" style="stroke:#181818;stroke-width:1.0;"/></g><!--MD5=[560d383acea1b5f7b5ac1a10f20615b4]
link Client to ShareBoardUI--><g id="link_Client_ShareBoardUI"><path codeLine="54" d="M257,74.28 C257,102.61 257,143.9 257,175.71 " fill="none" id="Client-to-ShareBoardUI" style="stroke:#181818;stroke-width:1.0;stroke-dasharray:7.0,7.0;"/><polygon fill="#181818" points="257,180.73,261,171.73,257,175.73,253,171.73,257,180.73" style="stroke:#181818;stroke-width:1.0;"/><text fill="#000000" font-family="sans-serif" font-size="13" lengthAdjust="spacing" textLength="30" x="258" y="119.0283">Uses</text></g><!--MD5=[44a538fd17c5a0d94b266533645b17eb]
link ClientHandler to RcompService--><g id="link_ClientHandler_RcompService"><path codeLine="77" d="M594,294.29 C594,328.75 594,369.39 594,400.09 " fill="none" id="ClientHandler-to-RcompService" style="stroke:#181818;stroke-width:1.0;"/><polygon fill="#181818" points="594,405.31,598,396.31,594,400.31,590,396.31,594,405.31" style="stroke:#181818;stroke-width:1.0;"/><text fill="#000000" font-family="sans-serif" font-size="13" lengthAdjust="spacing" textLength="157" x="595" y="339.0283">Sends/Receives Messages</text></g><!--MD5=[09cdeaddc8584ff028962441d42f257e]
link ShareBoardUI to RcompService--><g id="link_ShareBoardUI_RcompService"><path codeLine="78" d="M315.1,266.11 C347.71,289.18 389.3,318.15 427,343 C457.44,363.07 491.53,384.48 520.94,402.63 " fill="none" id="ShareBoardUI-to-RcompService" style="stroke:#181818;stroke-width:1.0;"/><polygon fill="#181818" points="525.24,405.29,519.6639,397.1717,520.9793,402.6735,515.4775,403.9889,525.24,405.29" style="stroke:#181818;stroke-width:1.0;"/><text fill="#000000" font-family="sans-serif" font-size="13" lengthAdjust="spacing" textLength="157" x="428" y="339.0283">Sends/Receives Messages</text></g><!--MD5=[8bb2b1d63001207dbd9fa67c9a0401be]
link Server to ClientHandler--><g id="link_Server_ClientHandler"><path codeLine="79" d="M594,64.79 C594,85.82 594,117.94 594,147.72 " fill="none" id="Server-to-ClientHandler" style="stroke:#181818;stroke-width:1.0;"/><polygon fill="#181818" points="594,152.87,598,143.87,594,147.87,590,143.87,594,152.87" style="stroke:#181818;stroke-width:1.0;"/><text fill="#000000" font-family="sans-serif" font-size="13" lengthAdjust="spacing" textLength="30" x="595" y="119.0283">Uses</text></g><!--MD5=[4514b216b9e40a81aea0a1b8e2bbdb35]
link RcompService to FormatMessage--><g id="link_RcompService_FormatMessage"><path codeLine="80" d="M594,490.69 C594,531.08 594,591.27 594,626.48 " fill="none" id="RcompService-to-FormatMessage" style="stroke:#181818;stroke-width:1.0;"/><polygon fill="#181818" points="594,631.91,598,622.91,594,626.91,590,622.91,594,631.91" style="stroke:#181818;stroke-width:1.0;"/><text fill="#000000" font-family="sans-serif" font-size="13" lengthAdjust="spacing" textLength="30" x="595" y="547.0283">Uses</text></g><!--MD5=[a968c633a08c2e88a66608b307b3c349]
link ShareBoardUI to ShareBoardController--><g id="link_ShareBoardUI_ShareBoardController"><path codeLine="85" d="M248.21,266.09 C240.79,301.24 230.09,351.91 221.89,390.69 " fill="none" id="ShareBoardUI-to-ShareBoardController" style="stroke:#181818;stroke-width:1.0;"/><polygon fill="#181818" points="220.81,395.84,226.5783,387.8571,221.8401,390.9473,218.7499,386.209,220.81,395.84" style="stroke:#181818;stroke-width:1.0;"/></g><!--MD5=[a10699439f2609b90020eb0ccfb9f983]
link ShareBoardController to ShareBoardManagementService--><g id="link_ShareBoardController_ShareBoardManagementService"><path codeLine="86" d="M210,500.19 C210,530.04 210,567.74 210,598.46 " fill="none" id="ShareBoardController-to-ShareBoardManagementService" style="stroke:#181818;stroke-width:1.0;"/><polygon fill="#181818" points="210,603.72,214,594.72,210,598.72,206,594.72,210,603.72" style="stroke:#181818;stroke-width:1.0;"/></g><!--MD5=[0931909ff5ee1df2ca77bfd7ef6b6bd8]
link ShareBoardManagementService to PersistenceContext--><g id="link_ShareBoardManagementService_PersistenceContext"><path codeLine="87" d="M210,708.32 C210,734.13 210,764.88 210,788.54 " fill="none" id="ShareBoardManagementService-to-PersistenceContext" style="stroke:#181818;stroke-width:1.0;"/><polygon fill="#181818" points="210,793.78,214,784.78,210,788.78,206,784.78,210,793.78" style="stroke:#181818;stroke-width:1.0;"/></g><!--MD5=[754b775031405e096442b27febffa290]
link PersistenceContext to RepositoryFactory--><g id="link_PersistenceContext_RepositoryFactory"><path codeLine="88" d="M210,861.18 C210,877.87 210,898.47 210,916.81 " fill="none" id="PersistenceContext-to-RepositoryFactory" style="stroke:#181818;stroke-width:1.0;"/><polygon fill="#181818" points="210,921.91,214,912.91,210,916.91,206,912.91,210,921.91" style="stroke:#181818;stroke-width:1.0;"/></g><!--MD5=[ec5ad66faac0add80430b7bc4ec38b87]
link RepositoryFactory to SharedBoardRepository--><g id="link_RepositoryFactory_SharedBoardRepository"><path codeLine="89" d="M255,1007.11 C274.79,1025.41 297.82,1046.71 316.89,1064.34 " fill="none" id="RepositoryFactory-to-SharedBoardRepository" style="stroke:#181818;stroke-width:1.0;"/><polygon fill="#181818" points="320.65,1067.81,316.7645,1058.76,316.9815,1064.4127,311.3288,1064.6296,320.65,1067.81" style="stroke:#181818;stroke-width:1.0;"/></g><!--MD5=[0b9241d2ede56e6cab43f1f7cb2e3efe]
link RepositoryFactory to CellRepository--><g id="link_RepositoryFactory_CellRepository"><path codeLine="90" d="M178.26,1007.11 C164.52,1025.1 148.58,1046 135.27,1063.45 " fill="none" id="RepositoryFactory-to-CellRepository" style="stroke:#181818;stroke-width:1.0;"/><polygon fill="#181818" points="131.94,1067.81,140.5782,1063.079,134.9719,1063.8342,134.2168,1058.2279,131.94,1067.81" style="stroke:#181818;stroke-width:1.0;"/></g><!--MD5=[94fca55c0691e9e6d4a7a2669dfe21d4]
@startuml

package presentation {
  class ShareBoardUI {
    + doShow(): boolean
     + headline(): String
  }
}

package application {
  class ShareBoardController {
    + listOwnedBoards(): Iterable<SharedBoard>
    + readPermission(SharedBoard board, String email): void
    + writePermission(SharedBoard board, String email): void
  }
}

package service {
  class ShareBoardManagementService {
    + listOwnedBoards(): Iterable<SharedBoard>
    + readPermission(SharedBoard board, String email): void
    + writePermission(SharedBoard board, String email): void
  }
}

package persistence {
  class PersistenceContext {
    + repositories(): RepositoryFactory
  }

  interface RepositoryFactory {
    + sharedBoardRepository(): SharedBoardRepository
    + cellRepository(): CellRepository
  }

  interface SharedBoardRepository {
    + save(sharedBoard: SharedBoard): void
  }
  JpaSharedBoardRepository -up-|> SharedBoardRepository
  class JpaSharedBoardRepository {
      + save(sharedBoard: SharedBoard): void
    }

  interface CellRepository {
    + save(cell: Cell): void
  }
  JpaCellRepository -up-|> CellRepository

  class JpaCellRepository {
      + save(cell: Cell): void
    }
}


Client .down.> ShareBoardUI : Uses


class Client {
  +createPostIt(socket, inputStream, outputStream, bufferedReader)
}

class ClientHandler {
  +createPostIT(message)
  +findWriteAdminPermissionBoards()
  +findSharedBoardString(message)
  +findEmptyCells(sharedBoard)
  +createPostIt(cell, title, description)
}

class RcompService {
  +sendMessage(socket, message, outputStream)
  +readData(socket, inputStream)
}

class FormatMessage


ClientHandler -down-> RcompService : Sends/Receives Messages
ShareBoardUI -down-> RcompService : Sends/Receives Messages
Server -down-> ClientHandler : Uses
RcompService -down-> FormatMessage : Uses




ShareBoardUI - -> ShareBoardController
ShareBoardController - -> ShareBoardManagementService
ShareBoardManagementService - -> PersistenceContext
PersistenceContext - ->RepositoryFactory
RepositoryFactory - -> SharedBoardRepository
RepositoryFactory - -> CellRepository
@enduml

PlantUML version 1.2022.12(Sun Oct 23 19:12:26 WEST 2022)
(GPL source distribution)
Java Runtime: OpenJDK Runtime Environment
JVM: OpenJDK 64-Bit Server VM
Default Encoding: Cp1252
Language: pt
Country: PT
--></g></svg>