<?xml version="1.0" encoding="UTF-8" standalone="no"?><svg xmlns="http://www.w3.org/2000/svg" xmlns:xlink="http://www.w3.org/1999/xlink" contentStyleType="text/css" height="1604px" preserveAspectRatio="none" style="width:1667px;height:1604px;background:#FFFFFF;" version="1.1" viewBox="0 0 1667 1604" width="1667px" zoomAndPan="magnify"><defs/><g><!--MD5=[3dcf69e4e87a10af00fce8354034ba4c]
cluster presentation--><g id="cluster_presentation"><path d="M270.5,139 L361.5,139 A3.75,3.75 0 0 1 364,141.5 L371,163.6211 L443.5,163.6211 A2.5,2.5 0 0 1 446,166.1211 L446,274.5 A2.5,2.5 0 0 1 443.5,277 L270.5,277 A2.5,2.5 0 0 1 268,274.5 L268,141.5 A2.5,2.5 0 0 1 270.5,139 " fill="none" style="stroke:#000000;stroke-width:1.5;"/><line style="stroke:#000000;stroke-width:1.5;" x1="268" x2="371" y1="163.6211" y2="163.6211"/><text fill="#000000" font-family="sans-serif" font-size="14" font-weight="bold" lengthAdjust="spacing" textLength="90" x="272" y="156.1074">presentation</text></g><!--MD5=[3ff016c1aa5003d713567a073e2181a6]
cluster application--><g id="cluster_application"><path d="M418.5,585 L496.5,585 A3.75,3.75 0 0 1 499,587.5 L506,609.6211 L843.5,609.6211 A2.5,2.5 0 0 1 846,612.1211 L846,776.5 A2.5,2.5 0 0 1 843.5,779 L418.5,779 A2.5,2.5 0 0 1 416,776.5 L416,587.5 A2.5,2.5 0 0 1 418.5,585 " fill="none" style="stroke:#000000;stroke-width:1.5;"/><line style="stroke:#000000;stroke-width:1.5;" x1="416" x2="506" y1="609.6211" y2="609.6211"/><text fill="#000000" font-family="sans-serif" font-size="14" font-weight="bold" lengthAdjust="spacing" textLength="77" x="420" y="602.1074">application</text></g><!--MD5=[7579d5565d2521d5936cec86ed3dadee]
cluster service--><g id="cluster_service"><path d="M524.5,830 L578.5,830 A3.75,3.75 0 0 1 581,832.5 L588,854.6211 L737.5,854.6211 A2.5,2.5 0 0 1 740,857.1211 L740,947.5 A2.5,2.5 0 0 1 737.5,950 L524.5,950 A2.5,2.5 0 0 1 522,947.5 L522,832.5 A2.5,2.5 0 0 1 524.5,830 " fill="none" style="stroke:#000000;stroke-width:1.5;"/><line style="stroke:#000000;stroke-width:1.5;" x1="522" x2="588" y1="854.6211" y2="854.6211"/><text fill="#000000" font-family="sans-serif" font-size="14" font-weight="bold" lengthAdjust="spacing" textLength="53" x="526" y="847.1074">service</text></g><!--MD5=[0334151241c2df87d13997940bbf650c]
cluster persistence--><g id="cluster_persistence"><path d="M8.5,983 L93.5,983 A3.75,3.75 0 0 1 96,985.5 L103,1007.6211 L1657.5,1007.6211 A2.5,2.5 0 0 1 1660,1010.1211 L1660,1594.5 A2.5,2.5 0 0 1 1657.5,1597 L8.5,1597 A2.5,2.5 0 0 1 6,1594.5 L6,985.5 A2.5,2.5 0 0 1 8.5,983 " fill="none" style="stroke:#000000;stroke-width:1.5;"/><line style="stroke:#000000;stroke-width:1.5;" x1="6" x2="103" y1="1007.6211" y2="1007.6211"/><text fill="#000000" font-family="sans-serif" font-size="14" font-weight="bold" lengthAdjust="spacing" textLength="84" x="10" y="1000.1074">persistence</text></g><!--MD5=[d7b663eadb68e6389ac5bb381837fadf]
class UndoPostItUI--><g id="elem_UndoPostItUI"><rect codeLine="3" fill="#F1F1F1" height="85.2422" id="UndoPostItUI" rx="2.5" ry="2.5" style="stroke:#181818;stroke-width:0.5;" width="145" x="284.5" y="176"/><ellipse cx="314.35" cy="192" fill="#ADD1B2" rx="11" ry="11" style="stroke:#181818;stroke-width:1.0;"/><path d="M317.1156,187.875 Q317.2719,187.6563 317.4594,187.5469 Q317.6469,187.4375 317.8656,187.4375 Q318.2406,187.4375 318.475,187.7031 Q318.7094,187.9531 318.7094,188.5625 L318.7094,190.0156 Q318.7094,190.625 318.475,190.8906 Q318.2406,191.1563 317.8656,191.1563 Q317.5219,191.1563 317.3188,190.9531 Q317.1156,190.7656 317.0063,190.25 Q316.9594,189.8906 316.7719,189.7031 Q316.4438,189.3281 315.8344,189.1094 Q315.225,188.8906 314.6,188.8906 Q313.8344,188.8906 313.1938,189.2188 Q312.5688,189.5469 312.0688,190.2969 Q311.5844,191.0469 311.5844,192.0781 L311.5844,193.1719 Q311.5844,194.4063 312.475,195.2344 Q313.3656,196.0469 314.9594,196.0469 Q315.8969,196.0469 316.5531,195.7969 Q316.9438,195.6406 317.3656,195.2031 Q317.6313,194.9375 317.7719,194.8594 Q317.9281,194.7813 318.1313,194.7813 Q318.4594,194.7813 318.7094,195.0469 Q318.975,195.2969 318.975,195.6406 Q318.975,195.9844 318.6313,196.3906 Q318.1313,196.9688 317.3344,197.2969 Q316.2563,197.75 314.9594,197.75 Q313.4438,197.75 312.2406,197.125 Q311.2563,196.625 310.5688,195.5625 Q309.8813,194.4844 309.8813,193.2031 L309.8813,192.0469 Q309.8813,190.7188 310.4906,189.5781 Q311.1156,188.4219 312.2094,187.8125 Q313.3031,187.1875 314.5375,187.1875 Q315.2719,187.1875 315.9125,187.3594 Q316.5688,187.5156 317.1156,187.875 Z " fill="#000000"/><text fill="#000000" font-family="sans-serif" font-size="14" lengthAdjust="spacing" textLength="80" x="331.65" y="197.7969">UndoPostItUI</text><line style="stroke:#181818;stroke-width:0.5;" x1="285.5" x2="428.5" y1="208" y2="208"/><line style="stroke:#181818;stroke-width:0.5;" x1="285.5" x2="428.5" y1="216" y2="216"/><ellipse cx="295.5" cy="230.8105" fill="#84BE84" rx="3" ry="3" style="stroke:#038048;stroke-width:1.0;"/><text fill="#000000" font-family="sans-serif" font-size="14" lengthAdjust="spacing" textLength="119" x="304.5" y="235.1074">doShow(): boolean</text><ellipse cx="295.5" cy="249.4316" fill="#84BE84" rx="3" ry="3" style="stroke:#038048;stroke-width:1.0;"/><text fill="#000000" font-family="sans-serif" font-size="14" lengthAdjust="spacing" textLength="109" x="304.5" y="253.7285">headline(): String</text></g><!--MD5=[65ab4bdf7ffeb7a691a898f7c5b06b64]
class UndoPostItController--><g id="elem_UndoPostItController"><rect codeLine="16" fill="#F1F1F1" height="141.1055" id="UndoPostItController" rx="2.5" ry="2.5" style="stroke:#181818;stroke-width:0.5;" width="398" x="432" y="622"/><ellipse cx="561.75" cy="638" fill="#ADD1B2" rx="11" ry="11" style="stroke:#181818;stroke-width:1.0;"/><path d="M564.5156,633.875 Q564.6719,633.6563 564.8594,633.5469 Q565.0469,633.4375 565.2656,633.4375 Q565.6406,633.4375 565.875,633.7031 Q566.1094,633.9531 566.1094,634.5625 L566.1094,636.0156 Q566.1094,636.625 565.875,636.8906 Q565.6406,637.1563 565.2656,637.1563 Q564.9219,637.1563 564.7188,636.9531 Q564.5156,636.7656 564.4063,636.25 Q564.3594,635.8906 564.1719,635.7031 Q563.8438,635.3281 563.2344,635.1094 Q562.625,634.8906 562,634.8906 Q561.2344,634.8906 560.5938,635.2188 Q559.9688,635.5469 559.4688,636.2969 Q558.9844,637.0469 558.9844,638.0781 L558.9844,639.1719 Q558.9844,640.4063 559.875,641.2344 Q560.7656,642.0469 562.3594,642.0469 Q563.2969,642.0469 563.9531,641.7969 Q564.3438,641.6406 564.7656,641.2031 Q565.0313,640.9375 565.1719,640.8594 Q565.3281,640.7813 565.5313,640.7813 Q565.8594,640.7813 566.1094,641.0469 Q566.375,641.2969 566.375,641.6406 Q566.375,641.9844 566.0313,642.3906 Q565.5313,642.9688 564.7344,643.2969 Q563.6563,643.75 562.3594,643.75 Q560.8438,643.75 559.6406,643.125 Q558.6563,642.625 557.9688,641.5625 Q557.2813,640.4844 557.2813,639.2031 L557.2813,638.0469 Q557.2813,636.7188 557.8906,635.5781 Q558.5156,634.4219 559.6094,633.8125 Q560.7031,633.1875 561.9375,633.1875 Q562.6719,633.1875 563.3125,633.3594 Q563.9688,633.5156 564.5156,633.875 Z " fill="#000000"/><text fill="#000000" font-family="sans-serif" font-size="14" lengthAdjust="spacing" textLength="130" x="582.25" y="643.7969">UndoPostItController</text><line style="stroke:#181818;stroke-width:0.5;" x1="433" x2="829" y1="654" y2="654"/><line style="stroke:#181818;stroke-width:0.5;" x1="433" x2="829" y1="662" y2="662"/><ellipse cx="443" cy="676.8105" fill="#84BE84" rx="3" ry="3" style="stroke:#038048;stroke-width:1.0;"/><text fill="#000000" font-family="sans-serif" font-size="14" lengthAdjust="spacing" textLength="372" x="452" y="681.1074">findUpdatedOccupiedCells(SharedBoard board): List&lt;Cell&gt;</text><ellipse cx="443" cy="695.4316" fill="#84BE84" rx="3" ry="3" style="stroke:#038048;stroke-width:1.0;"/><text fill="#000000" font-family="sans-serif" font-size="14" lengthAdjust="spacing" textLength="302" x="452" y="699.7285">findWriteAdminPermissionBoards(): List&lt;String&gt;</text><ellipse cx="443" cy="714.0527" fill="#84BE84" rx="3" ry="3" style="stroke:#038048;stroke-width:1.0;"/><text fill="#000000" font-family="sans-serif" font-size="14" lengthAdjust="spacing" textLength="235" x="452" y="718.3496">findAutenticatedUser(): EmailAddress</text><ellipse cx="443" cy="732.6738" fill="#84BE84" rx="3" ry="3" style="stroke:#038048;stroke-width:1.0;"/><text fill="#000000" font-family="sans-serif" font-size="14" lengthAdjust="spacing" textLength="160" x="452" y="736.9707">undoPostIt(Cell cell): void</text><ellipse cx="443" cy="751.2949" fill="#84BE84" rx="3" ry="3" style="stroke:#038048;stroke-width:1.0;"/><text fill="#000000" font-family="sans-serif" font-size="14" lengthAdjust="spacing" textLength="298" x="452" y="755.5918">findSharedBoardString(String id): SharedBoard</text></g><!--MD5=[4e8b0644cb5da2ed2dbbf71eecf48d83]
class PostItManagement--><g id="elem_PostItManagement"><rect codeLine="26" fill="#F1F1F1" height="66.6211" id="PostItManagement" rx="2.5" ry="2.5" style="stroke:#181818;stroke-width:0.5;" width="186" x="538" y="867"/><ellipse cx="569.65" cy="883" fill="#ADD1B2" rx="11" ry="11" style="stroke:#181818;stroke-width:1.0;"/><path d="M572.4156,878.875 Q572.5719,878.6563 572.7594,878.5469 Q572.9469,878.4375 573.1656,878.4375 Q573.5406,878.4375 573.775,878.7031 Q574.0094,878.9531 574.0094,879.5625 L574.0094,881.0156 Q574.0094,881.625 573.775,881.8906 Q573.5406,882.1563 573.1656,882.1563 Q572.8219,882.1563 572.6188,881.9531 Q572.4156,881.7656 572.3063,881.25 Q572.2594,880.8906 572.0719,880.7031 Q571.7438,880.3281 571.1344,880.1094 Q570.525,879.8906 569.9,879.8906 Q569.1344,879.8906 568.4938,880.2188 Q567.8688,880.5469 567.3688,881.2969 Q566.8844,882.0469 566.8844,883.0781 L566.8844,884.1719 Q566.8844,885.4063 567.775,886.2344 Q568.6656,887.0469 570.2594,887.0469 Q571.1969,887.0469 571.8531,886.7969 Q572.2438,886.6406 572.6656,886.2031 Q572.9313,885.9375 573.0719,885.8594 Q573.2281,885.7813 573.4313,885.7813 Q573.7594,885.7813 574.0094,886.0469 Q574.275,886.2969 574.275,886.6406 Q574.275,886.9844 573.9313,887.3906 Q573.4313,887.9688 572.6344,888.2969 Q571.5563,888.75 570.2594,888.75 Q568.7438,888.75 567.5406,888.125 Q566.5563,887.625 565.8688,886.5625 Q565.1813,885.4844 565.1813,884.2031 L565.1813,883.0469 Q565.1813,881.7188 565.7906,880.5781 Q566.4156,879.4219 567.5094,878.8125 Q568.6031,878.1875 569.8375,878.1875 Q570.5719,878.1875 571.2125,878.3594 Q571.8688,878.5156 572.4156,878.875 Z " fill="#000000"/><text fill="#000000" font-family="sans-serif" font-size="14" lengthAdjust="spacing" textLength="117" x="587.35" y="888.7969">PostItManagement</text><line style="stroke:#181818;stroke-width:0.5;" x1="539" x2="723" y1="899" y2="899"/><line style="stroke:#181818;stroke-width:0.5;" x1="539" x2="723" y1="907" y2="907"/><ellipse cx="549" cy="921.8105" fill="#84BE84" rx="3" ry="3" style="stroke:#038048;stroke-width:1.0;"/><text fill="#000000" font-family="sans-serif" font-size="14" lengthAdjust="spacing" textLength="160" x="558" y="926.1074">undoPostIt(Cell cell): void</text></g><!--MD5=[e8c189551b7885b999ad7cefb30fc2a3]
class PersistenceContext--><g id="elem_PersistenceContext"><rect codeLine="32" fill="#F1F1F1" height="66.6211" id="PersistenceContext" rx="2.5" ry="2.5" style="stroke:#181818;stroke-width:0.5;" width="234" x="514" y="1020"/><ellipse cx="565.75" cy="1036" fill="#ADD1B2" rx="11" ry="11" style="stroke:#181818;stroke-width:1.0;"/><path d="M568.5156,1031.875 Q568.6719,1031.6563 568.8594,1031.5469 Q569.0469,1031.4375 569.2656,1031.4375 Q569.6406,1031.4375 569.875,1031.7031 Q570.1094,1031.9531 570.1094,1032.5625 L570.1094,1034.0156 Q570.1094,1034.625 569.875,1034.8906 Q569.6406,1035.1563 569.2656,1035.1563 Q568.9219,1035.1563 568.7188,1034.9531 Q568.5156,1034.7656 568.4063,1034.25 Q568.3594,1033.8906 568.1719,1033.7031 Q567.8438,1033.3281 567.2344,1033.1094 Q566.625,1032.8906 566,1032.8906 Q565.2344,1032.8906 564.5938,1033.2188 Q563.9688,1033.5469 563.4688,1034.2969 Q562.9844,1035.0469 562.9844,1036.0781 L562.9844,1037.1719 Q562.9844,1038.4063 563.875,1039.2344 Q564.7656,1040.0469 566.3594,1040.0469 Q567.2969,1040.0469 567.9531,1039.7969 Q568.3438,1039.6406 568.7656,1039.2031 Q569.0313,1038.9375 569.1719,1038.8594 Q569.3281,1038.7813 569.5313,1038.7813 Q569.8594,1038.7813 570.1094,1039.0469 Q570.375,1039.2969 570.375,1039.6406 Q570.375,1039.9844 570.0313,1040.3906 Q569.5313,1040.9688 568.7344,1041.2969 Q567.6563,1041.75 566.3594,1041.75 Q564.8438,1041.75 563.6406,1041.125 Q562.6563,1040.625 561.9688,1039.5625 Q561.2813,1038.4844 561.2813,1037.2031 L561.2813,1036.0469 Q561.2813,1034.7188 561.8906,1033.5781 Q562.5156,1032.4219 563.6094,1031.8125 Q564.7031,1031.1875 565.9375,1031.1875 Q566.6719,1031.1875 567.3125,1031.3594 Q567.9688,1031.5156 568.5156,1031.875 Z " fill="#000000"/><text fill="#000000" font-family="sans-serif" font-size="14" lengthAdjust="spacing" textLength="122" x="586.25" y="1041.7969">PersistenceContext</text><line style="stroke:#181818;stroke-width:0.5;" x1="515" x2="747" y1="1052" y2="1052"/><line style="stroke:#181818;stroke-width:0.5;" x1="515" x2="747" y1="1060" y2="1060"/><ellipse cx="525" cy="1074.8105" fill="#84BE84" rx="3" ry="3" style="stroke:#038048;stroke-width:1.0;"/><text fill="#000000" font-family="sans-serif" font-size="14" lengthAdjust="spacing" textLength="208" x="534" y="1079.1074">repositories(): RepositoryFactory</text></g><!--MD5=[48590afff58a68e2fcba47824d6f8a11]
class RepositoryFactory--><g id="elem_RepositoryFactory"><rect codeLine="36" fill="#F1F1F1" height="141.1055" id="RepositoryFactory" rx="2.5" ry="2.5" style="stroke:#181818;stroke-width:0.5;" width="394" x="434" y="1148"/><ellipse cx="568.75" cy="1164" fill="#B4A7E5" rx="11" ry="11" style="stroke:#181818;stroke-width:1.0;"/><path d="M569.7031,1160.6406 L569.7031,1167.2969 L571.4219,1167.2969 Q572.0313,1167.2969 572.2969,1167.5313 Q572.5625,1167.7656 572.5625,1168.1563 Q572.5625,1168.5313 572.2969,1168.7656 Q572.0313,1169 571.4219,1169 L566.2813,1169 Q565.6719,1169 565.4063,1168.7656 Q565.1406,1168.5313 565.1406,1168.1406 Q565.1406,1167.7656 565.4063,1167.5313 Q565.6719,1167.2969 566.2813,1167.2969 L568,1167.2969 L568,1160.6406 L566.2813,1160.6406 Q565.6719,1160.6406 565.4063,1160.4063 Q565.1406,1160.1719 565.1406,1159.7813 Q565.1406,1159.4063 565.4063,1159.1719 Q565.6719,1158.9375 566.2813,1158.9375 L571.4219,1158.9375 Q572.0313,1158.9375 572.2969,1159.1719 Q572.5625,1159.4063 572.5625,1159.7813 Q572.5625,1160.1719 572.2969,1160.4063 Q572.0313,1160.6406 571.4219,1160.6406 L569.7031,1160.6406 Z " fill="#000000"/><text fill="#000000" font-family="sans-serif" font-size="14" font-style="italic" lengthAdjust="spacing" textLength="116" x="589.25" y="1169.7969">RepositoryFactory</text><line style="stroke:#181818;stroke-width:0.5;" x1="435" x2="827" y1="1180" y2="1180"/><line style="stroke:#181818;stroke-width:0.5;" x1="435" x2="827" y1="1188" y2="1188"/><ellipse cx="445" cy="1202.8105" fill="#84BE84" rx="3" ry="3" style="stroke:#038048;stroke-width:1.0;"/><text fill="#000000" font-family="sans-serif" font-size="14" lengthAdjust="spacing" textLength="368" x="454" y="1207.1074">sharedBoardLogRepository(): SharedBoardLogRepository</text><ellipse cx="445" cy="1221.4316" fill="#84BE84" rx="3" ry="3" style="stroke:#038048;stroke-width:1.0;"/><text fill="#000000" font-family="sans-serif" font-size="14" lengthAdjust="spacing" textLength="199" x="454" y="1225.7285">cellRepository(): CellRepository</text><ellipse cx="445" cy="1240.0527" fill="#84BE84" rx="3" ry="3" style="stroke:#038048;stroke-width:1.0;"/><text fill="#000000" font-family="sans-serif" font-size="14" lengthAdjust="spacing" textLength="247" x="454" y="1244.3496">cellLogRepository(): CellLogRepository</text><ellipse cx="445" cy="1258.6738" fill="#84BE84" rx="3" ry="3" style="stroke:#038048;stroke-width:1.0;"/><text fill="#000000" font-family="sans-serif" font-size="14" lengthAdjust="spacing" textLength="271" x="454" y="1262.9707">postItLogRepository(): PostItLogRepository</text><ellipse cx="445" cy="1277.2949" fill="#84BE84" rx="3" ry="3" style="stroke:#038048;stroke-width:1.0;"/><text fill="#000000" font-family="sans-serif" font-size="14" lengthAdjust="spacing" textLength="223" x="454" y="1281.5918">postItRepository(): PostItRepository</text></g><!--MD5=[bb580eb04de6decdb57a27296f210920]
class SharedBoardLogRepository--><g id="elem_SharedBoardLogRepository"><rect codeLine="44" fill="#F1F1F1" height="85.2422" id="SharedBoardLogRepository" rx="2.5" ry="2.5" style="stroke:#181818;stroke-width:0.5;" width="573" x="1070.5" y="1350"/><ellipse cx="1264.75" cy="1366" fill="#B4A7E5" rx="11" ry="11" style="stroke:#181818;stroke-width:1.0;"/><path d="M1265.7031,1362.6406 L1265.7031,1369.2969 L1267.4219,1369.2969 Q1268.0313,1369.2969 1268.2969,1369.5313 Q1268.5625,1369.7656 1268.5625,1370.1563 Q1268.5625,1370.5313 1268.2969,1370.7656 Q1268.0313,1371 1267.4219,1371 L1262.2813,1371 Q1261.6719,1371 1261.4063,1370.7656 Q1261.1406,1370.5313 1261.1406,1370.1406 Q1261.1406,1369.7656 1261.4063,1369.5313 Q1261.6719,1369.2969 1262.2813,1369.2969 L1264,1369.2969 L1264,1362.6406 L1262.2813,1362.6406 Q1261.6719,1362.6406 1261.4063,1362.4063 Q1261.1406,1362.1719 1261.1406,1361.7813 Q1261.1406,1361.4063 1261.4063,1361.1719 Q1261.6719,1360.9375 1262.2813,1360.9375 L1267.4219,1360.9375 Q1268.0313,1360.9375 1268.2969,1361.1719 Q1268.5625,1361.4063 1268.5625,1361.7813 Q1268.5625,1362.1719 1268.2969,1362.4063 Q1268.0313,1362.6406 1267.4219,1362.6406 L1265.7031,1362.6406 Z " fill="#000000"/><text fill="#000000" font-family="sans-serif" font-size="14" font-style="italic" lengthAdjust="spacing" textLength="176" x="1285.25" y="1371.7969">SharedBoardLogRepository</text><line style="stroke:#181818;stroke-width:0.5;" x1="1071.5" x2="1642.5" y1="1382" y2="1382"/><line style="stroke:#181818;stroke-width:0.5;" x1="1071.5" x2="1642.5" y1="1390" y2="1390"/><ellipse cx="1081.5" cy="1404.8105" fill="#84BE84" rx="3" ry="3" style="stroke:#038048;stroke-width:1.0;"/><text fill="#000000" font-family="sans-serif" font-size="14" lengthAdjust="spacing" textLength="248" x="1090.5" y="1409.1074">save(sharedBoard: SharedBoard): void</text><ellipse cx="1081.5" cy="1423.4316" fill="#84BE84" rx="3" ry="3" style="stroke:#038048;stroke-width:1.0;"/><text fill="#000000" font-family="sans-serif" font-size="14" lengthAdjust="spacing" textLength="547" x="1090.5" y="1427.7285">findSharedBoardLogContainsSharedBoard(sharedBoard: SharedBoard): SharedBoard</text></g><!--MD5=[509ec99f1271d40d8beb9e70240265a8]
class JpaSharedBoardLogRepository--><g id="elem_JpaSharedBoardLogRepository"><rect codeLine="49" fill="#F1F1F1" height="85.2422" id="JpaSharedBoardLogRepository" rx="2.5" ry="2.5" style="stroke:#181818;stroke-width:0.5;" width="569" x="1074.5" y="1496"/><ellipse cx="1255.75" cy="1512" fill="#ADD1B2" rx="11" ry="11" style="stroke:#181818;stroke-width:1.0;"/><path d="M1258.5156,1507.875 Q1258.6719,1507.6563 1258.8594,1507.5469 Q1259.0469,1507.4375 1259.2656,1507.4375 Q1259.6406,1507.4375 1259.875,1507.7031 Q1260.1094,1507.9531 1260.1094,1508.5625 L1260.1094,1510.0156 Q1260.1094,1510.625 1259.875,1510.8906 Q1259.6406,1511.1563 1259.2656,1511.1563 Q1258.9219,1511.1563 1258.7188,1510.9531 Q1258.5156,1510.7656 1258.4063,1510.25 Q1258.3594,1509.8906 1258.1719,1509.7031 Q1257.8438,1509.3281 1257.2344,1509.1094 Q1256.625,1508.8906 1256,1508.8906 Q1255.2344,1508.8906 1254.5938,1509.2188 Q1253.9688,1509.5469 1253.4688,1510.2969 Q1252.9844,1511.0469 1252.9844,1512.0781 L1252.9844,1513.1719 Q1252.9844,1514.4063 1253.875,1515.2344 Q1254.7656,1516.0469 1256.3594,1516.0469 Q1257.2969,1516.0469 1257.9531,1515.7969 Q1258.3438,1515.6406 1258.7656,1515.2031 Q1259.0313,1514.9375 1259.1719,1514.8594 Q1259.3281,1514.7813 1259.5313,1514.7813 Q1259.8594,1514.7813 1260.1094,1515.0469 Q1260.375,1515.2969 1260.375,1515.6406 Q1260.375,1515.9844 1260.0313,1516.3906 Q1259.5313,1516.9688 1258.7344,1517.2969 Q1257.6563,1517.75 1256.3594,1517.75 Q1254.8438,1517.75 1253.6406,1517.125 Q1252.6563,1516.625 1251.9688,1515.5625 Q1251.2813,1514.4844 1251.2813,1513.2031 L1251.2813,1512.0469 Q1251.2813,1510.7188 1251.8906,1509.5781 Q1252.5156,1508.4219 1253.6094,1507.8125 Q1254.7031,1507.1875 1255.9375,1507.1875 Q1256.6719,1507.1875 1257.3125,1507.3594 Q1257.9688,1507.5156 1258.5156,1507.875 Z " fill="#000000"/><text fill="#000000" font-family="sans-serif" font-size="14" lengthAdjust="spacing" textLength="198" x="1276.25" y="1517.7969">JpaSharedBoardLogRepository</text><line style="stroke:#181818;stroke-width:0.5;" x1="1075.5" x2="1642.5" y1="1528" y2="1528"/><line style="stroke:#181818;stroke-width:0.5;" x1="1075.5" x2="1642.5" y1="1536" y2="1536"/><ellipse cx="1085.5" cy="1550.8105" fill="#84BE84" rx="3" ry="3" style="stroke:#038048;stroke-width:1.0;"/><text fill="#000000" font-family="sans-serif" font-size="14" lengthAdjust="spacing" textLength="248" x="1094.5" y="1555.1074">save(sharedBoard: SharedBoard): void</text><ellipse cx="1085.5" cy="1569.4316" fill="#84BE84" rx="3" ry="3" style="stroke:#038048;stroke-width:1.0;"/><text fill="#000000" font-family="sans-serif" font-size="14" lengthAdjust="spacing" textLength="543" x="1094.5" y="1573.7285">findSharedBoardLogContainsSharedBoard(SharedBoard sharedBoard): SharedBoard</text></g><!--MD5=[a1f606bcd6b71bd4e44e3021e9ea833f]
class CellLogRepository--><g id="elem_CellLogRepository"><rect codeLine="54" fill="#F1F1F1" height="85.2422" id="CellLogRepository" rx="2.5" ry="2.5" style="stroke:#181818;stroke-width:0.5;" width="292" x="743" y="1350"/><ellipse cx="826.75" cy="1366" fill="#B4A7E5" rx="11" ry="11" style="stroke:#181818;stroke-width:1.0;"/><path d="M827.7031,1362.6406 L827.7031,1369.2969 L829.4219,1369.2969 Q830.0313,1369.2969 830.2969,1369.5313 Q830.5625,1369.7656 830.5625,1370.1563 Q830.5625,1370.5313 830.2969,1370.7656 Q830.0313,1371 829.4219,1371 L824.2813,1371 Q823.6719,1371 823.4063,1370.7656 Q823.1406,1370.5313 823.1406,1370.1406 Q823.1406,1369.7656 823.4063,1369.5313 Q823.6719,1369.2969 824.2813,1369.2969 L826,1369.2969 L826,1362.6406 L824.2813,1362.6406 Q823.6719,1362.6406 823.4063,1362.4063 Q823.1406,1362.1719 823.1406,1361.7813 Q823.1406,1361.4063 823.4063,1361.1719 Q823.6719,1360.9375 824.2813,1360.9375 L829.4219,1360.9375 Q830.0313,1360.9375 830.2969,1361.1719 Q830.5625,1361.4063 830.5625,1361.7813 Q830.5625,1362.1719 830.2969,1362.4063 Q830.0313,1362.6406 829.4219,1362.6406 L827.7031,1362.6406 Z " fill="#000000"/><text fill="#000000" font-family="sans-serif" font-size="14" font-style="italic" lengthAdjust="spacing" textLength="116" x="847.25" y="1371.7969">CellLogRepository</text><line style="stroke:#181818;stroke-width:0.5;" x1="744" x2="1034" y1="1382" y2="1382"/><line style="stroke:#181818;stroke-width:0.5;" x1="744" x2="1034" y1="1390" y2="1390"/><ellipse cx="754" cy="1404.8105" fill="#84BE84" rx="3" ry="3" style="stroke:#038048;stroke-width:1.0;"/><text fill="#000000" font-family="sans-serif" font-size="14" lengthAdjust="spacing" textLength="127" x="763" y="1409.1074">save(cell: Cell): void</text><ellipse cx="754" cy="1423.4316" fill="#84BE84" rx="3" ry="3" style="stroke:#038048;stroke-width:1.0;"/><text fill="#000000" font-family="sans-serif" font-size="14" lengthAdjust="spacing" textLength="266" x="763" y="1427.7285">findCellLogContainsCell(Cell cell): CellLog</text></g><!--MD5=[ea59c2e6a462389410524c1ab9bc7b65]
class JpaCellLogRepository--><g id="elem_JpaCellLogRepository"><rect codeLine="59" fill="#F1F1F1" height="85.2422" id="JpaCellLogRepository" rx="2.5" ry="2.5" style="stroke:#181818;stroke-width:0.5;" width="292" x="747" y="1496"/><ellipse cx="819.75" cy="1512" fill="#ADD1B2" rx="11" ry="11" style="stroke:#181818;stroke-width:1.0;"/><path d="M822.5156,1507.875 Q822.6719,1507.6563 822.8594,1507.5469 Q823.0469,1507.4375 823.2656,1507.4375 Q823.6406,1507.4375 823.875,1507.7031 Q824.1094,1507.9531 824.1094,1508.5625 L824.1094,1510.0156 Q824.1094,1510.625 823.875,1510.8906 Q823.6406,1511.1563 823.2656,1511.1563 Q822.9219,1511.1563 822.7188,1510.9531 Q822.5156,1510.7656 822.4063,1510.25 Q822.3594,1509.8906 822.1719,1509.7031 Q821.8438,1509.3281 821.2344,1509.1094 Q820.625,1508.8906 820,1508.8906 Q819.2344,1508.8906 818.5938,1509.2188 Q817.9688,1509.5469 817.4688,1510.2969 Q816.9844,1511.0469 816.9844,1512.0781 L816.9844,1513.1719 Q816.9844,1514.4063 817.875,1515.2344 Q818.7656,1516.0469 820.3594,1516.0469 Q821.2969,1516.0469 821.9531,1515.7969 Q822.3438,1515.6406 822.7656,1515.2031 Q823.0313,1514.9375 823.1719,1514.8594 Q823.3281,1514.7813 823.5313,1514.7813 Q823.8594,1514.7813 824.1094,1515.0469 Q824.375,1515.2969 824.375,1515.6406 Q824.375,1515.9844 824.0313,1516.3906 Q823.5313,1516.9688 822.7344,1517.2969 Q821.6563,1517.75 820.3594,1517.75 Q818.8438,1517.75 817.6406,1517.125 Q816.6563,1516.625 815.9688,1515.5625 Q815.2813,1514.4844 815.2813,1513.2031 L815.2813,1512.0469 Q815.2813,1510.7188 815.8906,1509.5781 Q816.5156,1508.4219 817.6094,1507.8125 Q818.7031,1507.1875 819.9375,1507.1875 Q820.6719,1507.1875 821.3125,1507.3594 Q821.9688,1507.5156 822.5156,1507.875 Z " fill="#000000"/><text fill="#000000" font-family="sans-serif" font-size="14" lengthAdjust="spacing" textLength="138" x="840.25" y="1517.7969">JpaCellLogRepository</text><line style="stroke:#181818;stroke-width:0.5;" x1="748" x2="1038" y1="1528" y2="1528"/><line style="stroke:#181818;stroke-width:0.5;" x1="748" x2="1038" y1="1536" y2="1536"/><ellipse cx="758" cy="1550.8105" fill="#84BE84" rx="3" ry="3" style="stroke:#038048;stroke-width:1.0;"/><text fill="#000000" font-family="sans-serif" font-size="14" lengthAdjust="spacing" textLength="127" x="767" y="1555.1074">save(cell: Cell): void</text><ellipse cx="758" cy="1569.4316" fill="#84BE84" rx="3" ry="3" style="stroke:#038048;stroke-width:1.0;"/><text fill="#000000" font-family="sans-serif" font-size="14" lengthAdjust="spacing" textLength="266" x="767" y="1573.7285">findCellLogContainsCell(Cell cell): CellLog</text></g><!--MD5=[678b9909c6262853d50a84df8a52a998]
class CellRepository--><g id="elem_CellRepository"><rect codeLine="64" fill="#F1F1F1" height="66.6211" id="CellRepository" rx="2.5" ry="2.5" style="stroke:#181818;stroke-width:0.5;" width="153" x="554.5" y="1359"/><ellipse cx="582.55" cy="1375" fill="#B4A7E5" rx="11" ry="11" style="stroke:#181818;stroke-width:1.0;"/><path d="M583.5031,1371.6406 L583.5031,1378.2969 L585.2219,1378.2969 Q585.8313,1378.2969 586.0969,1378.5313 Q586.3625,1378.7656 586.3625,1379.1563 Q586.3625,1379.5313 586.0969,1379.7656 Q585.8313,1380 585.2219,1380 L580.0813,1380 Q579.4719,1380 579.2063,1379.7656 Q578.9406,1379.5313 578.9406,1379.1406 Q578.9406,1378.7656 579.2063,1378.5313 Q579.4719,1378.2969 580.0813,1378.2969 L581.8,1378.2969 L581.8,1371.6406 L580.0813,1371.6406 Q579.4719,1371.6406 579.2063,1371.4063 Q578.9406,1371.1719 578.9406,1370.7813 Q578.9406,1370.4063 579.2063,1370.1719 Q579.4719,1369.9375 580.0813,1369.9375 L585.2219,1369.9375 Q585.8313,1369.9375 586.0969,1370.1719 Q586.3625,1370.4063 586.3625,1370.7813 Q586.3625,1371.1719 586.0969,1371.4063 Q585.8313,1371.6406 585.2219,1371.6406 L583.5031,1371.6406 Z " fill="#000000"/><text fill="#000000" font-family="sans-serif" font-size="14" font-style="italic" lengthAdjust="spacing" textLength="92" x="599.45" y="1380.7969">CellRepository</text><line style="stroke:#181818;stroke-width:0.5;" x1="555.5" x2="706.5" y1="1391" y2="1391"/><line style="stroke:#181818;stroke-width:0.5;" x1="555.5" x2="706.5" y1="1399" y2="1399"/><ellipse cx="565.5" cy="1413.8105" fill="#84BE84" rx="3" ry="3" style="stroke:#038048;stroke-width:1.0;"/><text fill="#000000" font-family="sans-serif" font-size="14" lengthAdjust="spacing" textLength="127" x="574.5" y="1418.1074">save(cell: Cell): void</text></g><!--MD5=[1fd0e6868e73ff390936fd0a4e38dbf2]
class JpaCellRepository--><g id="elem_JpaCellRepository"><rect codeLine="68" fill="#F1F1F1" height="66.6211" id="JpaCellRepository" rx="2.5" ry="2.5" style="stroke:#181818;stroke-width:0.5;" width="153" x="558.5" y="1505"/><ellipse cx="576.65" cy="1521" fill="#ADD1B2" rx="11" ry="11" style="stroke:#181818;stroke-width:1.0;"/><path d="M579.4156,1516.875 Q579.5719,1516.6563 579.7594,1516.5469 Q579.9469,1516.4375 580.1656,1516.4375 Q580.5406,1516.4375 580.775,1516.7031 Q581.0094,1516.9531 581.0094,1517.5625 L581.0094,1519.0156 Q581.0094,1519.625 580.775,1519.8906 Q580.5406,1520.1563 580.1656,1520.1563 Q579.8219,1520.1563 579.6188,1519.9531 Q579.4156,1519.7656 579.3063,1519.25 Q579.2594,1518.8906 579.0719,1518.7031 Q578.7438,1518.3281 578.1344,1518.1094 Q577.525,1517.8906 576.9,1517.8906 Q576.1344,1517.8906 575.4938,1518.2188 Q574.8688,1518.5469 574.3688,1519.2969 Q573.8844,1520.0469 573.8844,1521.0781 L573.8844,1522.1719 Q573.8844,1523.4063 574.775,1524.2344 Q575.6656,1525.0469 577.2594,1525.0469 Q578.1969,1525.0469 578.8531,1524.7969 Q579.2438,1524.6406 579.6656,1524.2031 Q579.9313,1523.9375 580.0719,1523.8594 Q580.2281,1523.7813 580.4313,1523.7813 Q580.7594,1523.7813 581.0094,1524.0469 Q581.275,1524.2969 581.275,1524.6406 Q581.275,1524.9844 580.9313,1525.3906 Q580.4313,1525.9688 579.6344,1526.2969 Q578.5563,1526.75 577.2594,1526.75 Q575.7438,1526.75 574.5406,1526.125 Q573.5563,1525.625 572.8688,1524.5625 Q572.1813,1523.4844 572.1813,1522.2031 L572.1813,1521.0469 Q572.1813,1519.7188 572.7906,1518.5781 Q573.4156,1517.4219 574.5094,1516.8125 Q575.6031,1516.1875 576.8375,1516.1875 Q577.5719,1516.1875 578.2125,1516.3594 Q578.8688,1516.5156 579.4156,1516.875 Z " fill="#000000"/><text fill="#000000" font-family="sans-serif" font-size="14" lengthAdjust="spacing" textLength="114" x="591.35" y="1526.7969">JpaCellRepository</text><line style="stroke:#181818;stroke-width:0.5;" x1="559.5" x2="710.5" y1="1537" y2="1537"/><line style="stroke:#181818;stroke-width:0.5;" x1="559.5" x2="710.5" y1="1545" y2="1545"/><ellipse cx="569.5" cy="1559.8105" fill="#84BE84" rx="3" ry="3" style="stroke:#038048;stroke-width:1.0;"/><text fill="#000000" font-family="sans-serif" font-size="14" lengthAdjust="spacing" textLength="127" x="578.5" y="1564.1074">save(cell: Cell): void</text></g><!--MD5=[b811d369f5fe8f7026de19800280154a]
class PostItLogRepository--><g id="elem_PostItLogRepository"><rect codeLine="72" fill="#F1F1F1" height="85.2422" id="PostItLogRepository" rx="2.5" ry="2.5" style="stroke:#181818;stroke-width:0.5;" width="309" x="210.5" y="1350"/><ellipse cx="296.75" cy="1366" fill="#B4A7E5" rx="11" ry="11" style="stroke:#181818;stroke-width:1.0;"/><path d="M297.7031,1362.6406 L297.7031,1369.2969 L299.4219,1369.2969 Q300.0313,1369.2969 300.2969,1369.5313 Q300.5625,1369.7656 300.5625,1370.1563 Q300.5625,1370.5313 300.2969,1370.7656 Q300.0313,1371 299.4219,1371 L294.2813,1371 Q293.6719,1371 293.4063,1370.7656 Q293.1406,1370.5313 293.1406,1370.1406 Q293.1406,1369.7656 293.4063,1369.5313 Q293.6719,1369.2969 294.2813,1369.2969 L296,1369.2969 L296,1362.6406 L294.2813,1362.6406 Q293.6719,1362.6406 293.4063,1362.4063 Q293.1406,1362.1719 293.1406,1361.7813 Q293.1406,1361.4063 293.4063,1361.1719 Q293.6719,1360.9375 294.2813,1360.9375 L299.4219,1360.9375 Q300.0313,1360.9375 300.2969,1361.1719 Q300.5625,1361.4063 300.5625,1361.7813 Q300.5625,1362.1719 300.2969,1362.4063 Q300.0313,1362.6406 299.4219,1362.6406 L297.7031,1362.6406 Z " fill="#000000"/><text fill="#000000" font-family="sans-serif" font-size="14" font-style="italic" lengthAdjust="spacing" textLength="128" x="317.25" y="1371.7969">PostItLogRepository</text><line style="stroke:#181818;stroke-width:0.5;" x1="211.5" x2="518.5" y1="1382" y2="1382"/><line style="stroke:#181818;stroke-width:0.5;" x1="211.5" x2="518.5" y1="1390" y2="1390"/><ellipse cx="221.5" cy="1404.8105" fill="#84BE84" rx="3" ry="3" style="stroke:#038048;stroke-width:1.0;"/><text fill="#000000" font-family="sans-serif" font-size="14" lengthAdjust="spacing" textLength="127" x="230.5" y="1409.1074">save(cell: Cell): void</text><ellipse cx="221.5" cy="1423.4316" fill="#84BE84" rx="3" ry="3" style="stroke:#038048;stroke-width:1.0;"/><text fill="#000000" font-family="sans-serif" font-size="14" lengthAdjust="spacing" textLength="283" x="230.5" y="1427.7285">findLastPostItLog(PostIt postItLog): PostItLog</text></g><!--MD5=[aa0f7c30d6d97512bf75f620a13f0100]
class JpaPostItLogRepository--><g id="elem_JpaPostItLogRepository"><rect codeLine="77" fill="#F1F1F1" height="85.2422" id="JpaPostItLogRepository" rx="2.5" ry="2.5" style="stroke:#181818;stroke-width:0.5;" width="309" x="214.5" y="1496"/><ellipse cx="290.25" cy="1512" fill="#ADD1B2" rx="11" ry="11" style="stroke:#181818;stroke-width:1.0;"/><path d="M293.0156,1507.875 Q293.1719,1507.6563 293.3594,1507.5469 Q293.5469,1507.4375 293.7656,1507.4375 Q294.1406,1507.4375 294.375,1507.7031 Q294.6094,1507.9531 294.6094,1508.5625 L294.6094,1510.0156 Q294.6094,1510.625 294.375,1510.8906 Q294.1406,1511.1563 293.7656,1511.1563 Q293.4219,1511.1563 293.2188,1510.9531 Q293.0156,1510.7656 292.9063,1510.25 Q292.8594,1509.8906 292.6719,1509.7031 Q292.3438,1509.3281 291.7344,1509.1094 Q291.125,1508.8906 290.5,1508.8906 Q289.7344,1508.8906 289.0938,1509.2188 Q288.4688,1509.5469 287.9688,1510.2969 Q287.4844,1511.0469 287.4844,1512.0781 L287.4844,1513.1719 Q287.4844,1514.4063 288.375,1515.2344 Q289.2656,1516.0469 290.8594,1516.0469 Q291.7969,1516.0469 292.4531,1515.7969 Q292.8438,1515.6406 293.2656,1515.2031 Q293.5313,1514.9375 293.6719,1514.8594 Q293.8281,1514.7813 294.0313,1514.7813 Q294.3594,1514.7813 294.6094,1515.0469 Q294.875,1515.2969 294.875,1515.6406 Q294.875,1515.9844 294.5313,1516.3906 Q294.0313,1516.9688 293.2344,1517.2969 Q292.1563,1517.75 290.8594,1517.75 Q289.3438,1517.75 288.1406,1517.125 Q287.1563,1516.625 286.4688,1515.5625 Q285.7813,1514.4844 285.7813,1513.2031 L285.7813,1512.0469 Q285.7813,1510.7188 286.3906,1509.5781 Q287.0156,1508.4219 288.1094,1507.8125 Q289.2031,1507.1875 290.4375,1507.1875 Q291.1719,1507.1875 291.8125,1507.3594 Q292.4688,1507.5156 293.0156,1507.875 Z " fill="#000000"/><text fill="#000000" font-family="sans-serif" font-size="14" lengthAdjust="spacing" textLength="149" x="310.75" y="1517.7969">JpaPostItLogRepository</text><line style="stroke:#181818;stroke-width:0.5;" x1="215.5" x2="522.5" y1="1528" y2="1528"/><line style="stroke:#181818;stroke-width:0.5;" x1="215.5" x2="522.5" y1="1536" y2="1536"/><ellipse cx="225.5" cy="1550.8105" fill="#84BE84" rx="3" ry="3" style="stroke:#038048;stroke-width:1.0;"/><text fill="#000000" font-family="sans-serif" font-size="14" lengthAdjust="spacing" textLength="127" x="234.5" y="1555.1074">save(cell: Cell): void</text><ellipse cx="225.5" cy="1569.4316" fill="#84BE84" rx="3" ry="3" style="stroke:#038048;stroke-width:1.0;"/><text fill="#000000" font-family="sans-serif" font-size="14" lengthAdjust="spacing" textLength="283" x="234.5" y="1573.7285">findLastPostItLog(PostIt postItLog): PostItLog</text></g><!--MD5=[d98fa60e7e29446a1b02022748feb6fd]
class PostItRepository--><g id="elem_PostItRepository"><rect codeLine="82" fill="#F1F1F1" height="66.6211" id="PostItRepository" rx="2.5" ry="2.5" style="stroke:#181818;stroke-width:0.5;" width="153" x="22.5" y="1359"/><ellipse cx="45.15" cy="1375" fill="#B4A7E5" rx="11" ry="11" style="stroke:#181818;stroke-width:1.0;"/><path d="M46.1031,1371.6406 L46.1031,1378.2969 L47.8219,1378.2969 Q48.4313,1378.2969 48.6969,1378.5313 Q48.9625,1378.7656 48.9625,1379.1563 Q48.9625,1379.5313 48.6969,1379.7656 Q48.4313,1380 47.8219,1380 L42.6813,1380 Q42.0719,1380 41.8063,1379.7656 Q41.5406,1379.5313 41.5406,1379.1406 Q41.5406,1378.7656 41.8063,1378.5313 Q42.0719,1378.2969 42.6813,1378.2969 L44.4,1378.2969 L44.4,1371.6406 L42.6813,1371.6406 Q42.0719,1371.6406 41.8063,1371.4063 Q41.5406,1371.1719 41.5406,1370.7813 Q41.5406,1370.4063 41.8063,1370.1719 Q42.0719,1369.9375 42.6813,1369.9375 L47.8219,1369.9375 Q48.4313,1369.9375 48.6969,1370.1719 Q48.9625,1370.4063 48.9625,1370.7813 Q48.9625,1371.1719 48.6969,1371.4063 Q48.4313,1371.6406 47.8219,1371.6406 L46.1031,1371.6406 Z " fill="#000000"/><text fill="#000000" font-family="sans-serif" font-size="14" font-style="italic" lengthAdjust="spacing" textLength="104" x="60.85" y="1380.7969">PostItRepository</text><line style="stroke:#181818;stroke-width:0.5;" x1="23.5" x2="174.5" y1="1391" y2="1391"/><line style="stroke:#181818;stroke-width:0.5;" x1="23.5" x2="174.5" y1="1399" y2="1399"/><ellipse cx="33.5" cy="1413.8105" fill="#84BE84" rx="3" ry="3" style="stroke:#038048;stroke-width:1.0;"/><text fill="#000000" font-family="sans-serif" font-size="14" lengthAdjust="spacing" textLength="127" x="42.5" y="1418.1074">save(cell: Cell): void</text></g><!--MD5=[b33d50c2272d001cda78fb22e2a3529a]
class JpaPostItRepository--><g id="elem_JpaPostItRepository"><rect codeLine="86" fill="#F1F1F1" height="66.6211" id="JpaPostItRepository" rx="2.5" ry="2.5" style="stroke:#181818;stroke-width:0.5;" width="157" x="22.5" y="1505"/><ellipse cx="37.5" cy="1521" fill="#ADD1B2" rx="11" ry="11" style="stroke:#181818;stroke-width:1.0;"/><path d="M40.2656,1516.875 Q40.4219,1516.6563 40.6094,1516.5469 Q40.7969,1516.4375 41.0156,1516.4375 Q41.3906,1516.4375 41.625,1516.7031 Q41.8594,1516.9531 41.8594,1517.5625 L41.8594,1519.0156 Q41.8594,1519.625 41.625,1519.8906 Q41.3906,1520.1563 41.0156,1520.1563 Q40.6719,1520.1563 40.4688,1519.9531 Q40.2656,1519.7656 40.1563,1519.25 Q40.1094,1518.8906 39.9219,1518.7031 Q39.5938,1518.3281 38.9844,1518.1094 Q38.375,1517.8906 37.75,1517.8906 Q36.9844,1517.8906 36.3438,1518.2188 Q35.7188,1518.5469 35.2188,1519.2969 Q34.7344,1520.0469 34.7344,1521.0781 L34.7344,1522.1719 Q34.7344,1523.4063 35.625,1524.2344 Q36.5156,1525.0469 38.1094,1525.0469 Q39.0469,1525.0469 39.7031,1524.7969 Q40.0938,1524.6406 40.5156,1524.2031 Q40.7813,1523.9375 40.9219,1523.8594 Q41.0781,1523.7813 41.2813,1523.7813 Q41.6094,1523.7813 41.8594,1524.0469 Q42.125,1524.2969 42.125,1524.6406 Q42.125,1524.9844 41.7813,1525.3906 Q41.2813,1525.9688 40.4844,1526.2969 Q39.4063,1526.75 38.1094,1526.75 Q36.5938,1526.75 35.3906,1526.125 Q34.4063,1525.625 33.7188,1524.5625 Q33.0313,1523.4844 33.0313,1522.2031 L33.0313,1521.0469 Q33.0313,1519.7188 33.6406,1518.5781 Q34.2656,1517.4219 35.3594,1516.8125 Q36.4531,1516.1875 37.6875,1516.1875 Q38.4219,1516.1875 39.0625,1516.3594 Q39.7188,1516.5156 40.2656,1516.875 Z " fill="#000000"/><text fill="#000000" font-family="sans-serif" font-size="14" lengthAdjust="spacing" textLength="125" x="51.5" y="1526.7969">JpaPostItRepository</text><line style="stroke:#181818;stroke-width:0.5;" x1="23.5" x2="178.5" y1="1537" y2="1537"/><line style="stroke:#181818;stroke-width:0.5;" x1="23.5" x2="178.5" y1="1545" y2="1545"/><ellipse cx="33.5" cy="1559.8105" fill="#84BE84" rx="3" ry="3" style="stroke:#038048;stroke-width:1.0;"/><text fill="#000000" font-family="sans-serif" font-size="14" lengthAdjust="spacing" textLength="127" x="42.5" y="1564.1074">save(cell: Cell): void</text></g><!--MD5=[5011627591ee4f7a3d58490c0e7112ca]
class ClientHandler--><g id="elem_ClientHandler"><rect codeLine="102" fill="#F1F1F1" height="178.3477" id="ClientHandler" rx="2.5" ry="2.5" style="stroke:#181818;stroke-width:0.5;" width="305" x="429.5" y="342"/><ellipse cx="535.25" cy="358" fill="#ADD1B2" rx="11" ry="11" style="stroke:#181818;stroke-width:1.0;"/><path d="M538.0156,353.875 Q538.1719,353.6563 538.3594,353.5469 Q538.5469,353.4375 538.7656,353.4375 Q539.1406,353.4375 539.375,353.7031 Q539.6094,353.9531 539.6094,354.5625 L539.6094,356.0156 Q539.6094,356.625 539.375,356.8906 Q539.1406,357.1563 538.7656,357.1563 Q538.4219,357.1563 538.2188,356.9531 Q538.0156,356.7656 537.9063,356.25 Q537.8594,355.8906 537.6719,355.7031 Q537.3438,355.3281 536.7344,355.1094 Q536.125,354.8906 535.5,354.8906 Q534.7344,354.8906 534.0938,355.2188 Q533.4688,355.5469 532.9688,356.2969 Q532.4844,357.0469 532.4844,358.0781 L532.4844,359.1719 Q532.4844,360.4063 533.375,361.2344 Q534.2656,362.0469 535.8594,362.0469 Q536.7969,362.0469 537.4531,361.7969 Q537.8438,361.6406 538.2656,361.2031 Q538.5313,360.9375 538.6719,360.8594 Q538.8281,360.7813 539.0313,360.7813 Q539.3594,360.7813 539.6094,361.0469 Q539.875,361.2969 539.875,361.6406 Q539.875,361.9844 539.5313,362.3906 Q539.0313,362.9688 538.2344,363.2969 Q537.1563,363.75 535.8594,363.75 Q534.3438,363.75 533.1406,363.125 Q532.1563,362.625 531.4688,361.5625 Q530.7813,360.4844 530.7813,359.2031 L530.7813,358.0469 Q530.7813,356.7188 531.3906,355.5781 Q532.0156,354.4219 533.1094,353.8125 Q534.2031,353.1875 535.4375,353.1875 Q536.1719,353.1875 536.8125,353.3594 Q537.4688,353.5156 538.0156,353.875 Z " fill="#000000"/><text fill="#000000" font-family="sans-serif" font-size="14" lengthAdjust="spacing" textLength="85" x="555.75" y="363.7969">ClientHandler</text><line style="stroke:#181818;stroke-width:0.5;" x1="430.5" x2="733.5" y1="374" y2="374"/><line style="stroke:#181818;stroke-width:0.5;" x1="430.5" x2="733.5" y1="382" y2="382"/><ellipse cx="440.5" cy="396.8105" fill="#84BE84" rx="3" ry="3" style="stroke:#038048;stroke-width:1.0;"/><text fill="#000000" font-family="sans-serif" font-size="14" lengthAdjust="spacing" textLength="65" x="449.5" y="401.1074">run(): void</text><ellipse cx="440.5" cy="415.4316" fill="#84BE84" rx="3" ry="3" style="stroke:#038048;stroke-width:1.0;"/><text fill="#000000" font-family="sans-serif" font-size="14" lengthAdjust="spacing" textLength="279" x="449.5" y="419.7285">undoPostIT(FormatMessage message): void</text><ellipse cx="440.5" cy="434.0527" fill="#84BE84" rx="3" ry="3" style="stroke:#038048;stroke-width:1.0;"/><text fill="#000000" font-family="sans-serif" font-size="14" lengthAdjust="spacing" textLength="147" x="449.5" y="438.3496">createPostIT(message)</text><ellipse cx="440.5" cy="452.6738" fill="#84BE84" rx="3" ry="3" style="stroke:#038048;stroke-width:1.0;"/><text fill="#000000" font-family="sans-serif" font-size="14" lengthAdjust="spacing" textLength="219" x="449.5" y="456.9707">findWriteAdminPermissionBoards()</text><ellipse cx="440.5" cy="471.2949" fill="#84BE84" rx="3" ry="3" style="stroke:#038048;stroke-width:1.0;"/><text fill="#000000" font-family="sans-serif" font-size="14" lengthAdjust="spacing" textLength="211" x="449.5" y="475.5918">findSharedBoardString(message)</text><ellipse cx="440.5" cy="489.916" fill="#84BE84" rx="3" ry="3" style="stroke:#038048;stroke-width:1.0;"/><text fill="#000000" font-family="sans-serif" font-size="14" lengthAdjust="spacing" textLength="185" x="449.5" y="494.2129">findEmptyCells(sharedBoard)</text><ellipse cx="440.5" cy="508.5371" fill="#84BE84" rx="3" ry="3" style="stroke:#038048;stroke-width:1.0;"/><text fill="#000000" font-family="sans-serif" font-size="14" lengthAdjust="spacing" textLength="213" x="449.5" y="512.834">createPostIt(cell, title, description)</text></g><!--MD5=[ed6624c6556d5e7b1bd23032162d20b7]
class Client--><g id="elem_Client"><rect codeLine="98" fill="#F1F1F1" height="66.6211" id="Client" rx="2.5" ry="2.5" style="stroke:#181818;stroke-width:0.5;" width="437" x="138.5" y="7"/><ellipse cx="334.75" cy="23" fill="#ADD1B2" rx="11" ry="11" style="stroke:#181818;stroke-width:1.0;"/><path d="M337.5156,18.875 Q337.6719,18.6563 337.8594,18.5469 Q338.0469,18.4375 338.2656,18.4375 Q338.6406,18.4375 338.875,18.7031 Q339.1094,18.9531 339.1094,19.5625 L339.1094,21.0156 Q339.1094,21.625 338.875,21.8906 Q338.6406,22.1563 338.2656,22.1563 Q337.9219,22.1563 337.7188,21.9531 Q337.5156,21.7656 337.4063,21.25 Q337.3594,20.8906 337.1719,20.7031 Q336.8438,20.3281 336.2344,20.1094 Q335.625,19.8906 335,19.8906 Q334.2344,19.8906 333.5938,20.2188 Q332.9688,20.5469 332.4688,21.2969 Q331.9844,22.0469 331.9844,23.0781 L331.9844,24.1719 Q331.9844,25.4063 332.875,26.2344 Q333.7656,27.0469 335.3594,27.0469 Q336.2969,27.0469 336.9531,26.7969 Q337.3438,26.6406 337.7656,26.2031 Q338.0313,25.9375 338.1719,25.8594 Q338.3281,25.7813 338.5313,25.7813 Q338.8594,25.7813 339.1094,26.0469 Q339.375,26.2969 339.375,26.6406 Q339.375,26.9844 339.0313,27.3906 Q338.5313,27.9688 337.7344,28.2969 Q336.6563,28.75 335.3594,28.75 Q333.8438,28.75 332.6406,28.125 Q331.6563,27.625 330.9688,26.5625 Q330.2813,25.4844 330.2813,24.2031 L330.2813,23.0469 Q330.2813,21.7188 330.8906,20.5781 Q331.5156,19.4219 332.6094,18.8125 Q333.7031,18.1875 334.9375,18.1875 Q335.6719,18.1875 336.3125,18.3594 Q336.9688,18.5156 337.5156,18.875 Z " fill="#000000"/><text fill="#000000" font-family="sans-serif" font-size="14" lengthAdjust="spacing" textLength="36" x="355.25" y="28.7969">Client</text><line style="stroke:#181818;stroke-width:0.5;" x1="139.5" x2="574.5" y1="39" y2="39"/><line style="stroke:#181818;stroke-width:0.5;" x1="139.5" x2="574.5" y1="47" y2="47"/><ellipse cx="149.5" cy="61.8105" fill="#84BE84" rx="3" ry="3" style="stroke:#038048;stroke-width:1.0;"/><text fill="#000000" font-family="sans-serif" font-size="14" lengthAdjust="spacing" textLength="411" x="158.5" y="66.1074">createPostIt(socket, inputStream, outputStream, bufferedReader)</text></g><!--MD5=[90a2bbef8b0803d85099380473200cfa]
class RcompService--><g id="elem_RcompService"><rect codeLine="110" fill="#F1F1F1" height="85.2422" id="RcompService" rx="2.5" ry="2.5" style="stroke:#181818;stroke-width:0.5;" width="323" x="73.5" y="650"/><ellipse cx="185.25" cy="666" fill="#ADD1B2" rx="11" ry="11" style="stroke:#181818;stroke-width:1.0;"/><path d="M188.0156,661.875 Q188.1719,661.6563 188.3594,661.5469 Q188.5469,661.4375 188.7656,661.4375 Q189.1406,661.4375 189.375,661.7031 Q189.6094,661.9531 189.6094,662.5625 L189.6094,664.0156 Q189.6094,664.625 189.375,664.8906 Q189.1406,665.1563 188.7656,665.1563 Q188.4219,665.1563 188.2188,664.9531 Q188.0156,664.7656 187.9063,664.25 Q187.8594,663.8906 187.6719,663.7031 Q187.3438,663.3281 186.7344,663.1094 Q186.125,662.8906 185.5,662.8906 Q184.7344,662.8906 184.0938,663.2188 Q183.4688,663.5469 182.9688,664.2969 Q182.4844,665.0469 182.4844,666.0781 L182.4844,667.1719 Q182.4844,668.4063 183.375,669.2344 Q184.2656,670.0469 185.8594,670.0469 Q186.7969,670.0469 187.4531,669.7969 Q187.8438,669.6406 188.2656,669.2031 Q188.5313,668.9375 188.6719,668.8594 Q188.8281,668.7813 189.0313,668.7813 Q189.3594,668.7813 189.6094,669.0469 Q189.875,669.2969 189.875,669.6406 Q189.875,669.9844 189.5313,670.3906 Q189.0313,670.9688 188.2344,671.2969 Q187.1563,671.75 185.8594,671.75 Q184.3438,671.75 183.1406,671.125 Q182.1563,670.625 181.4688,669.5625 Q180.7813,668.4844 180.7813,667.2031 L180.7813,666.0469 Q180.7813,664.7188 181.3906,663.5781 Q182.0156,662.4219 183.1094,661.8125 Q184.2031,661.1875 185.4375,661.1875 Q186.1719,661.1875 186.8125,661.3594 Q187.4688,661.5156 188.0156,661.875 Z " fill="#000000"/><text fill="#000000" font-family="sans-serif" font-size="14" lengthAdjust="spacing" textLength="91" x="205.75" y="671.7969">RcompService</text><line style="stroke:#181818;stroke-width:0.5;" x1="74.5" x2="395.5" y1="682" y2="682"/><line style="stroke:#181818;stroke-width:0.5;" x1="74.5" x2="395.5" y1="690" y2="690"/><ellipse cx="84.5" cy="704.8105" fill="#84BE84" rx="3" ry="3" style="stroke:#038048;stroke-width:1.0;"/><text fill="#000000" font-family="sans-serif" font-size="14" lengthAdjust="spacing" textLength="297" x="93.5" y="709.1074">sendMessage(socket, message, outputStream)</text><ellipse cx="84.5" cy="723.4316" fill="#84BE84" rx="3" ry="3" style="stroke:#038048;stroke-width:1.0;"/><text fill="#000000" font-family="sans-serif" font-size="14" lengthAdjust="spacing" textLength="194" x="93.5" y="727.7285">readData(socket, inputStream)</text></g><!--MD5=[f2b0eeb9c119b3896168a7397a71839e]
class FormatMessage--><g id="elem_FormatMessage"><rect codeLine="115" fill="#F1F1F1" height="48" id="FormatMessage" rx="2.5" ry="2.5" style="stroke:#181818;stroke-width:0.5;" width="134" x="168" y="876.5"/><ellipse cx="183" cy="892.5" fill="#ADD1B2" rx="11" ry="11" style="stroke:#181818;stroke-width:1.0;"/><path d="M185.7656,888.375 Q185.9219,888.1563 186.1094,888.0469 Q186.2969,887.9375 186.5156,887.9375 Q186.8906,887.9375 187.125,888.2031 Q187.3594,888.4531 187.3594,889.0625 L187.3594,890.5156 Q187.3594,891.125 187.125,891.3906 Q186.8906,891.6563 186.5156,891.6563 Q186.1719,891.6563 185.9688,891.4531 Q185.7656,891.2656 185.6563,890.75 Q185.6094,890.3906 185.4219,890.2031 Q185.0938,889.8281 184.4844,889.6094 Q183.875,889.3906 183.25,889.3906 Q182.4844,889.3906 181.8438,889.7188 Q181.2188,890.0469 180.7188,890.7969 Q180.2344,891.5469 180.2344,892.5781 L180.2344,893.6719 Q180.2344,894.9063 181.125,895.7344 Q182.0156,896.5469 183.6094,896.5469 Q184.5469,896.5469 185.2031,896.2969 Q185.5938,896.1406 186.0156,895.7031 Q186.2813,895.4375 186.4219,895.3594 Q186.5781,895.2813 186.7813,895.2813 Q187.1094,895.2813 187.3594,895.5469 Q187.625,895.7969 187.625,896.1406 Q187.625,896.4844 187.2813,896.8906 Q186.7813,897.4688 185.9844,897.7969 Q184.9063,898.25 183.6094,898.25 Q182.0938,898.25 180.8906,897.625 Q179.9063,897.125 179.2188,896.0625 Q178.5313,894.9844 178.5313,893.7031 L178.5313,892.5469 Q178.5313,891.2188 179.1406,890.0781 Q179.7656,888.9219 180.8594,888.3125 Q181.9531,887.6875 183.1875,887.6875 Q183.9219,887.6875 184.5625,887.8594 Q185.2188,888.0156 185.7656,888.375 Z " fill="#000000"/><text fill="#000000" font-family="sans-serif" font-size="14" lengthAdjust="spacing" textLength="102" x="197" y="898.2969">FormatMessage</text><line style="stroke:#181818;stroke-width:0.5;" x1="169" x2="301" y1="908.5" y2="908.5"/><line style="stroke:#181818;stroke-width:0.5;" x1="169" x2="301" y1="916.5" y2="916.5"/></g><!--MD5=[c60af77fe5573b84a4aa4bce89659574]
class Server--><g id="elem_Server"><rect fill="#F1F1F1" height="48" id="Server" rx="2.5" ry="2.5" style="stroke:#181818;stroke-width:0.5;" width="74" x="545" y="194.5"/><ellipse cx="560" cy="210.5" fill="#ADD1B2" rx="11" ry="11" style="stroke:#181818;stroke-width:1.0;"/><path d="M562.7656,206.375 Q562.9219,206.1563 563.1094,206.0469 Q563.2969,205.9375 563.5156,205.9375 Q563.8906,205.9375 564.125,206.2031 Q564.3594,206.4531 564.3594,207.0625 L564.3594,208.5156 Q564.3594,209.125 564.125,209.3906 Q563.8906,209.6563 563.5156,209.6563 Q563.1719,209.6563 562.9688,209.4531 Q562.7656,209.2656 562.6563,208.75 Q562.6094,208.3906 562.4219,208.2031 Q562.0938,207.8281 561.4844,207.6094 Q560.875,207.3906 560.25,207.3906 Q559.4844,207.3906 558.8438,207.7188 Q558.2188,208.0469 557.7188,208.7969 Q557.2344,209.5469 557.2344,210.5781 L557.2344,211.6719 Q557.2344,212.9063 558.125,213.7344 Q559.0156,214.5469 560.6094,214.5469 Q561.5469,214.5469 562.2031,214.2969 Q562.5938,214.1406 563.0156,213.7031 Q563.2813,213.4375 563.4219,213.3594 Q563.5781,213.2813 563.7813,213.2813 Q564.1094,213.2813 564.3594,213.5469 Q564.625,213.7969 564.625,214.1406 Q564.625,214.4844 564.2813,214.8906 Q563.7813,215.4688 562.9844,215.7969 Q561.9063,216.25 560.6094,216.25 Q559.0938,216.25 557.8906,215.625 Q556.9063,215.125 556.2188,214.0625 Q555.5313,212.9844 555.5313,211.7031 L555.5313,210.5469 Q555.5313,209.2188 556.1406,208.0781 Q556.7656,206.9219 557.8594,206.3125 Q558.9531,205.6875 560.1875,205.6875 Q560.9219,205.6875 561.5625,205.8594 Q562.2188,206.0156 562.7656,206.375 Z " fill="#000000"/><text fill="#000000" font-family="sans-serif" font-size="14" lengthAdjust="spacing" textLength="42" x="574" y="216.2969">Server</text><line style="stroke:#181818;stroke-width:0.5;" x1="546" x2="618" y1="226.5" y2="226.5"/><line style="stroke:#181818;stroke-width:0.5;" x1="546" x2="618" y1="234.5" y2="234.5"/></g><!--MD5=[f7a2e02df90f8c03c5eef9a3e1e1374c]
reverse link SharedBoardLogRepository to JpaSharedBoardLogRepository--><g id="link_SharedBoardLogRepository_JpaSharedBoardLogRepository"><path codeLine="48" d="M1357.86,1455.32 C1358.05,1469.04 1358.25,1483.26 1358.42,1495.94 " fill="none" id="SharedBoardLogRepository-backto-JpaSharedBoardLogRepository" style="stroke:#181818;stroke-width:1.0;"/><polygon fill="none" points="1350.86,1455.25,1357.58,1435.15,1364.86,1455.05,1350.86,1455.25" style="stroke:#181818;stroke-width:1.0;"/></g><!--MD5=[bc2e29f9f039ab118ab15d51779e70f5]
reverse link CellLogRepository to JpaCellLogRepository--><g id="link_CellLogRepository_JpaCellLogRepository"><path codeLine="58" d="M890.72,1455.32 C891.1,1469.04 891.49,1483.26 891.85,1495.94 " fill="none" id="CellLogRepository-backto-JpaCellLogRepository" style="stroke:#181818;stroke-width:1.0;"/><polygon fill="none" points="883.72,1455.34,890.16,1435.15,897.71,1454.95,883.72,1455.34" style="stroke:#181818;stroke-width:1.0;"/></g><!--MD5=[f87c6af07e906fb12b29fd8747db28ae]
reverse link CellRepository to JpaCellRepository--><g id="link_CellRepository_JpaCellRepository"><path codeLine="67" d="M632.47,1446.37 C633.01,1466 633.62,1487.67 634.1,1504.95 " fill="none" id="CellRepository-backto-JpaCellRepository" style="stroke:#181818;stroke-width:1.0;"/><polygon fill="none" points="625.47,1446.36,631.91,1426.18,639.46,1445.97,625.47,1446.36" style="stroke:#181818;stroke-width:1.0;"/></g><!--MD5=[fb253a51314d7f79f19b7ecd2c9158aa]
reverse link PostItLogRepository to JpaPostItLogRepository--><g id="link_PostItLogRepository_JpaPostItLogRepository"><path codeLine="76" d="M366.72,1455.32 C367.1,1469.04 367.49,1483.26 367.85,1495.94 " fill="none" id="PostItLogRepository-backto-JpaPostItLogRepository" style="stroke:#181818;stroke-width:1.0;"/><polygon fill="none" points="359.72,1455.34,366.16,1435.15,373.71,1454.95,359.72,1455.34" style="stroke:#181818;stroke-width:1.0;"/></g><!--MD5=[d0125a0d00610a903099170a5b294c99]
reverse link PostItRepository to JpaPostItRepository--><g id="link_PostItRepository_JpaPostItRepository"><path codeLine="85" d="M99.73,1446.37 C100.01,1466 100.31,1487.67 100.55,1504.95 " fill="none" id="PostItRepository-backto-JpaPostItRepository" style="stroke:#181818;stroke-width:1.0;"/><polygon fill="none" points="92.73,1446.27,99.45,1426.18,106.73,1446.08,92.73,1446.27" style="stroke:#181818;stroke-width:1.0;"/></g><!--MD5=[a71b78036454dd682acc5cccb18fe3d1]
link Client to UndoPostItUI--><g id="link_Client_UndoPostItUI"><path codeLine="95" d="M357,74.19 C357,101.35 357,140.33 357,170.78 " fill="none" id="Client-to-UndoPostItUI" style="stroke:#181818;stroke-width:1.0;stroke-dasharray:7.0,7.0;"/><polygon fill="#181818" points="357,175.97,361,166.97,357,170.97,353,166.97,357,175.97" style="stroke:#181818;stroke-width:1.0;"/><text fill="#000000" font-family="sans-serif" font-size="13" lengthAdjust="spacing" textLength="30" x="358" y="119.0283">Uses</text></g><!--MD5=[44a538fd17c5a0d94b266533645b17eb]
link ClientHandler to RcompService--><g id="link_ClientHandler_RcompService"><path codeLine="118" d="M464.04,520.22 C407.2,562.72 341.48,611.87 295.05,646.59 " fill="none" id="ClientHandler-to-RcompService" style="stroke:#181818;stroke-width:1.0;"/><polygon fill="#181818" points="290.9,649.69,300.5,647.49,294.9,646.69,295.7,641.09,290.9,649.69" style="stroke:#181818;stroke-width:1.0;"/><text fill="#000000" font-family="sans-serif" font-size="13" lengthAdjust="spacing" textLength="157" x="419" y="565.0283">Sends/Receives Messages</text></g><!--MD5=[8008ca95d567eb28c6ba5e739020aac1]
link UndoPostItUI to RcompService--><g id="link_UndoPostItUI_RcompService"><path codeLine="119" d="M309.5,261.24 C288.18,282.98 265.14,311.4 253,342 C212.6,443.83 220.18,575.59 228.19,644.61 " fill="none" id="UndoPostItUI-to-RcompService" style="stroke:#181818;stroke-width:1.0;"/><polygon fill="#181818" points="228.82,649.87,231.7395,640.4638,228.235,644.9043,223.7944,641.3998,228.82,649.87" style="stroke:#181818;stroke-width:1.0;"/><text fill="#000000" font-family="sans-serif" font-size="13" lengthAdjust="spacing" textLength="157" x="254" y="436.5283">Sends/Receives Messages</text></g><!--MD5=[8bb2b1d63001207dbd9fa67c9a0401be]
link Server to ClientHandler--><g id="link_Server_ClientHandler"><path codeLine="120" d="M582,242.83 C582,265.69 582,302.02 582,336.63 " fill="none" id="Server-to-ClientHandler" style="stroke:#181818;stroke-width:1.0;"/><polygon fill="#181818" points="582,341.72,586,332.72,582,336.72,578,332.72,582,341.72" style="stroke:#181818;stroke-width:1.0;"/><text fill="#000000" font-family="sans-serif" font-size="13" lengthAdjust="spacing" textLength="30" x="583" y="308.0283">Uses</text></g><!--MD5=[4514b216b9e40a81aea0a1b8e2bbdb35]
link RcompService to FormatMessage--><g id="link_RcompService_FormatMessage"><path codeLine="121" d="M235,735.19 C235,775.58 235,835.77 235,870.98 " fill="none" id="RcompService-to-FormatMessage" style="stroke:#181818;stroke-width:1.0;"/><polygon fill="#181818" points="235,876.41,239,867.41,235,871.41,231,867.41,235,876.41" style="stroke:#181818;stroke-width:1.0;"/><text fill="#000000" font-family="sans-serif" font-size="13" lengthAdjust="spacing" textLength="30" x="236" y="810.0283">Uses</text></g><!--MD5=[1129707768b67e77c608a79f5e0498cb]
link UndoPostItUI to ClientHandler--><g id="link_UndoPostItUI_ClientHandler"><path codeLine="125" d="M401.45,261.09 C425.11,283.22 455.19,311.37 483.99,338.31 " fill="none" id="UndoPostItUI-to-ClientHandler" style="stroke:#181818;stroke-width:1.0;"/><polygon fill="#181818" points="487.86,341.93,484.011,332.8644,484.2052,338.5179,478.5517,338.7121,487.86,341.93" style="stroke:#181818;stroke-width:1.0;"/></g><!--MD5=[7792d0302c9d9c822f0403c4f2bf670d]
link ClientHandler to UndoPostItController--><g id="link_ClientHandler_UndoPostItController"><path codeLine="126" d="M598.66,520.22 C604.58,551.61 611.2,586.62 616.89,616.78 " fill="none" id="ClientHandler-to-UndoPostItController" style="stroke:#181818;stroke-width:1.0;"/><polygon fill="#181818" points="617.87,621.96,620.1294,612.3738,616.9417,617.0469,612.2685,613.8592,617.87,621.96" style="stroke:#181818;stroke-width:1.0;"/></g><!--MD5=[635f2df650c307a72d3008a65e5b4515]
link UndoPostItController to PostItManagement--><g id="link_UndoPostItController_PostItManagement"><path codeLine="127" d="M631,763.24 C631,796.21 631,834.26 631,861.76 " fill="none" id="UndoPostItController-to-PostItManagement" style="stroke:#181818;stroke-width:1.0;"/><polygon fill="#181818" points="631,866.77,635,857.77,631,861.77,627,857.77,631,866.77" style="stroke:#181818;stroke-width:1.0;"/></g><!--MD5=[3a63439700d21ec4f247d06d415aeda1]
link PostItManagement to PersistenceContext--><g id="link_PostItManagement_PersistenceContext"><path codeLine="128" d="M631,934.26 C631,957.91 631,989.9 631,1014.64 " fill="none" id="PostItManagement-to-PersistenceContext" style="stroke:#181818;stroke-width:1.0;"/><polygon fill="#181818" points="631,1019.8,635,1010.8,631,1014.8,627,1010.8,631,1019.8" style="stroke:#181818;stroke-width:1.0;"/></g><!--MD5=[754b775031405e096442b27febffa290]
link PersistenceContext to RepositoryFactory--><g id="link_PersistenceContext_RepositoryFactory"><path codeLine="129" d="M631,1087.09 C631,1103.06 631,1123 631,1142.44 " fill="none" id="PersistenceContext-to-RepositoryFactory" style="stroke:#181818;stroke-width:1.0;"/><polygon fill="#181818" points="631,1147.91,635,1138.91,631,1142.91,627,1138.91,631,1147.91" style="stroke:#181818;stroke-width:1.0;"/></g><!--MD5=[be061a2fdf2cc1214b51499f121703de]
link RepositoryFactory to SharedBoardLogRepository--><g id="link_RepositoryFactory_SharedBoardLogRepository"><path codeLine="130" d="M828.42,1266.27 C937.03,1292 1070.79,1323.69 1176.58,1348.76 " fill="none" id="RepositoryFactory-to-SharedBoardLogRepository" style="stroke:#181818;stroke-width:1.0;"/><polygon fill="#181818" points="1181.6,1349.95,1173.7681,1343.9783,1176.7354,1348.7945,1171.9192,1351.7618,1181.6,1349.95" style="stroke:#181818;stroke-width:1.0;"/></g><!--MD5=[8a14bffe6a462284f1b59ce4a8437f8f]
link RepositoryFactory to CellLogRepository--><g id="link_RepositoryFactory_CellLogRepository"><path codeLine="131" d="M735.57,1289.21 C764.87,1308.75 795.92,1329.44 822.36,1347.07 " fill="none" id="RepositoryFactory-to-CellLogRepository" style="stroke:#181818;stroke-width:1.0;"/><polygon fill="#181818" points="826.56,1349.88,821.2903,1341.5595,822.3997,1347.1065,816.8527,1348.2159,826.56,1349.88" style="stroke:#181818;stroke-width:1.0;"/></g><!--MD5=[0b9241d2ede56e6cab43f1f7cb2e3efe]
link RepositoryFactory to CellRepository--><g id="link_RepositoryFactory_CellRepository"><path codeLine="132" d="M631,1289.46 C631,1311.39 631,1334.77 631,1353.61 " fill="none" id="RepositoryFactory-to-CellRepository" style="stroke:#181818;stroke-width:1.0;"/><polygon fill="#181818" points="631,1358.79,635,1349.79,631,1353.79,627,1349.79,631,1358.79" style="stroke:#181818;stroke-width:1.0;"/></g><!--MD5=[0c387e482da272e1dbd092ac6a001a56]
link RepositoryFactory to PostItLogRepository--><g id="link_RepositoryFactory_PostItLogRepository"><path codeLine="133" d="M523.19,1289.21 C492.98,1308.75 460.97,1329.44 433.71,1347.07 " fill="none" id="RepositoryFactory-to-PostItLogRepository" style="stroke:#181818;stroke-width:1.0;"/><polygon fill="#181818" points="429.37,1349.88,439.1,1348.3545,433.5694,1347.1661,434.7578,1341.6355,429.37,1349.88" style="stroke:#181818;stroke-width:1.0;"/></g><!--MD5=[c2f3c452cf98ef45711d7aad2b0913e2]
link RepositoryFactory to PostItRepository--><g id="link_RepositoryFactory_PostItRepository"><path codeLine="134" d="M433.85,1272.51 C357.87,1294.42 270.72,1321.4 193,1350 C187.06,1352.18 180.97,1354.56 174.87,1357.03 " fill="none" id="RepositoryFactory-to-PostItRepository" style="stroke:#181818;stroke-width:1.0;"/><polygon fill="#181818" points="170.21,1358.94,180.054,1359.2487,174.8405,1357.0535,177.0356,1351.84,170.21,1358.94" style="stroke:#181818;stroke-width:1.0;"/></g><!--MD5=[8753896d717fd8895bdf9c4e35bb784f]
@startuml

package presentation {
  class UndoPostItUI {
    + doShow(): boolean
     + headline(): String
  }
}

  class ClientHandler {
    + run(): void
    + undoPostIT(FormatMessage message): void
  }


package application {
  class UndoPostItController {
    + findUpdatedOccupiedCells(SharedBoard board): List<Cell>
    + findWriteAdminPermissionBoards(): List<String>
    + findAutenticatedUser(): EmailAddress
    + undoPostIt(Cell cell): void
    + findSharedBoardString(String id): SharedBoard
  }
}

package service {
  class PostItManagement {
    + undoPostIt(Cell cell): void
  }
}

package persistence {
  class PersistenceContext {
    + repositories(): RepositoryFactory
  }

  interface RepositoryFactory {
    + sharedBoardLogRepository(): SharedBoardLogRepository
    + cellRepository(): CellRepository
    + cellLogRepository(): CellLogRepository
    + postItLogRepository(): PostItLogRepository
    + postItRepository(): PostItRepository
  }

  interface SharedBoardLogRepository {
    + save(sharedBoard: SharedBoard): void
    + findSharedBoardLogContainsSharedBoard(sharedBoard: SharedBoard): SharedBoard
  }
  JpaSharedBoardLogRepository -up-|> SharedBoardLogRepository
  class JpaSharedBoardLogRepository {
      + save(sharedBoard: SharedBoard): void
      + findSharedBoardLogContainsSharedBoard(SharedBoard sharedBoard): SharedBoard
    }

  interface CellLogRepository {
    + save(cell: Cell): void
    + findCellLogContainsCell(Cell cell): CellLog
  }
  JpaCellLogRepository -up-|> CellLogRepository
  class JpaCellLogRepository {
      + save(cell: Cell): void
      + findCellLogContainsCell(Cell cell): CellLog
    }

  interface CellRepository {
      + save(cell: Cell): void
  }
  JpaCellRepository -up-|> CellRepository
  class JpaCellRepository {
  + save(cell: Cell): void
  }

  interface PostItLogRepository {
    + save(cell: Cell): void
    + findLastPostItLog(PostIt postItLog): PostItLog
    }
    JpaPostItLogRepository -up-|> PostItLogRepository
    class JpaPostItLogRepository {
        + save(cell: Cell): void
        + findLastPostItLog(PostIt postItLog): PostItLog
      }

    interface PostItRepository {
        + save(cell: Cell): void
    }
    JpaPostItRepository -up-|> PostItRepository
    class JpaPostItRepository {
    + save(cell: Cell): void
    }


}



Client .down.> UndoPostItUI : Uses


class Client {
  +createPostIt(socket, inputStream, outputStream, bufferedReader)
}

class ClientHandler {
  +createPostIT(message)
  +findWriteAdminPermissionBoards()
  +findSharedBoardString(message)
  +findEmptyCells(sharedBoard)
  +createPostIt(cell, title, description)
}

class RcompService {
  +sendMessage(socket, message, outputStream)
  +readData(socket, inputStream)
}

class FormatMessage


ClientHandler -down-> RcompService : Sends/Receives Messages
UndoPostItUI -down-> RcompService : Sends/Receives Messages
Server -down-> ClientHandler : Uses
RcompService -down-> FormatMessage : Uses



UndoPostItUI - -> ClientHandler
ClientHandler - -> UndoPostItController
UndoPostItController - -> PostItManagement
PostItManagement - -> PersistenceContext
PersistenceContext - ->RepositoryFactory
RepositoryFactory - -> SharedBoardLogRepository
RepositoryFactory - -> CellLogRepository
RepositoryFactory - -> CellRepository
RepositoryFactory - -> PostItLogRepository
RepositoryFactory - -> PostItRepository
@enduml

PlantUML version 1.2022.12(Sun Oct 23 19:12:26 WEST 2022)
(GPL source distribution)
Java Runtime: OpenJDK Runtime Environment
JVM: OpenJDK 64-Bit Server VM
Default Encoding: Cp1252
Language: pt
Country: PT
--></g></svg>