<?xml version="1.0" encoding="us-ascii" standalone="no"?><svg xmlns="http://www.w3.org/2000/svg" xmlns:xlink="http://www.w3.org/1999/xlink" contentStyleType="text/css" height="874px" preserveAspectRatio="none" style="width:811px;height:874px;background:#FFFFFF;" version="1.1" viewBox="0 0 811 874" width="811px" zoomAndPan="magnify"><defs/><g><!--class ChangeLectureScheduleAction--><g id="elem_ChangeLectureScheduleAction"><rect codeLine="2" fill="#F1F1F1" height="64.4883" id="ChangeLectureScheduleAction" rx="2.5" ry="2.5" style="stroke:#181818;stroke-width:0.5;" width="241" x="165.5" y="7"/><ellipse cx="180.5" cy="23" fill="#ADD1B2" rx="11" ry="11" style="stroke:#181818;stroke-width:1.0;"/><path d="M183.4731,28.6431 Q182.8921,28.9419 182.2529,29.0913 Q181.6138,29.2407 180.9082,29.2407 Q178.4014,29.2407 177.0815,27.5889 Q175.7617,25.937 175.7617,22.8159 Q175.7617,19.6865 177.0815,18.0347 Q178.4014,16.3828 180.9082,16.3828 Q181.6138,16.3828 182.2612,16.5322 Q182.9087,16.6816 183.4731,16.9805 L183.4731,19.7031 Q182.8423,19.1221 182.2488,18.8523 Q181.6553,18.5825 181.0244,18.5825 Q179.6797,18.5825 178.9949,19.6492 Q178.3101,20.7158 178.3101,22.8159 Q178.3101,24.9077 178.9949,25.9744 Q179.6797,27.041 181.0244,27.041 Q181.6553,27.041 182.2488,26.7712 Q182.8423,26.5015 183.4731,25.9204 Z " fill="#000000"/><text fill="#000000" font-family="sans-serif" font-size="14" lengthAdjust="spacing" textLength="209" x="194.5" y="28.291">ChangeLectureScheduleAction</text><line style="stroke:#181818;stroke-width:0.5;" x1="166.5" x2="405.5" y1="39" y2="39"/><line style="stroke:#181818;stroke-width:0.5;" x1="166.5" x2="405.5" y1="47" y2="47"/><ellipse cx="176.5" cy="60.7441" fill="#84BE84" rx="3" ry="3" style="stroke:#038048;stroke-width:1.0;"/><text fill="#000000" font-family="sans-serif" font-size="14" lengthAdjust="spacing" textLength="46" x="185.5" y="64.5352">show()</text></g><!--class ChangeLectureScheduleUI--><g id="elem_ChangeLectureScheduleUI"><rect codeLine="5" fill="#F1F1F1" height="64.4883" id="ChangeLectureScheduleUI" rx="2.5" ry="2.5" style="stroke:#181818;stroke-width:0.5;" width="211" x="180.5" y="131.49"/><ellipse cx="195.5" cy="147.49" fill="#ADD1B2" rx="11" ry="11" style="stroke:#181818;stroke-width:1.0;"/><path d="M198.4731,153.1331 Q197.8921,153.4319 197.2529,153.5813 Q196.6138,153.7307 195.9082,153.7307 Q193.4014,153.7307 192.0815,152.0789 Q190.7617,150.427 190.7617,147.3059 Q190.7617,144.1765 192.0815,142.5247 Q193.4014,140.8728 195.9082,140.8728 Q196.6138,140.8728 197.2612,141.0222 Q197.9087,141.1716 198.4731,141.4705 L198.4731,144.1931 Q197.8423,143.6121 197.2488,143.3423 Q196.6553,143.0725 196.0244,143.0725 Q194.6797,143.0725 193.9949,144.1392 Q193.3101,145.2058 193.3101,147.3059 Q193.3101,149.3977 193.9949,150.4644 Q194.6797,151.531 196.0244,151.531 Q196.6553,151.531 197.2488,151.2612 Q197.8423,150.9915 198.4731,150.4104 Z " fill="#000000"/><text fill="#000000" font-family="sans-serif" font-size="14" lengthAdjust="spacing" textLength="179" x="209.5" y="152.781">ChangeLectureScheduleUI</text><line style="stroke:#181818;stroke-width:0.5;" x1="181.5" x2="390.5" y1="163.49" y2="163.49"/><line style="stroke:#181818;stroke-width:0.5;" x1="181.5" x2="390.5" y1="171.49" y2="171.49"/><ellipse cx="191.5" cy="185.2341" fill="#84BE84" rx="3" ry="3" style="stroke:#038048;stroke-width:1.0;"/><text fill="#000000" font-family="sans-serif" font-size="14" lengthAdjust="spacing" textLength="65" x="200.5" y="189.0252">doShow()</text></g><!--class ChangeLectureScheduleController--><g id="elem_ChangeLectureScheduleController"><rect codeLine="9" fill="#F1F1F1" height="97.4648" id="ChangeLectureScheduleController" rx="2.5" ry="2.5" style="stroke:#181818;stroke-width:0.5;" width="267" x="152.5" y="255.97"/><ellipse cx="167.5" cy="271.97" fill="#ADD1B2" rx="11" ry="11" style="stroke:#181818;stroke-width:1.0;"/><path d="M170.4731,277.6131 Q169.8921,277.9119 169.2529,278.0613 Q168.6138,278.2107 167.9082,278.2107 Q165.4014,278.2107 164.0815,276.5589 Q162.7617,274.907 162.7617,271.7859 Q162.7617,268.6565 164.0815,267.0047 Q165.4014,265.3528 167.9082,265.3528 Q168.6138,265.3528 169.2612,265.5022 Q169.9087,265.6516 170.4731,265.9505 L170.4731,268.6731 Q169.8423,268.0921 169.2488,267.8223 Q168.6553,267.5525 168.0244,267.5525 Q166.6797,267.5525 165.9949,268.6192 Q165.3101,269.6858 165.3101,271.7859 Q165.3101,273.8777 165.9949,274.9444 Q166.6797,276.011 168.0244,276.011 Q168.6553,276.011 169.2488,275.7412 Q169.8423,275.4715 170.4731,274.8904 Z " fill="#000000"/><text fill="#000000" font-family="sans-serif" font-size="14" lengthAdjust="spacing" textLength="235" x="181.5" y="277.261">ChangeLectureScheduleController</text><line style="stroke:#181818;stroke-width:0.5;" x1="153.5" x2="418.5" y1="287.97" y2="287.97"/><line style="stroke:#181818;stroke-width:0.5;" x1="153.5" x2="418.5" y1="295.97" y2="295.97"/><ellipse cx="163.5" cy="309.7141" fill="#84BE84" rx="3" ry="3" style="stroke:#038048;stroke-width:1.0;"/><text fill="#000000" font-family="sans-serif" font-size="14" lengthAdjust="spacing" textLength="87" x="172.5" y="313.5052">myLectures()</text><ellipse cx="163.5" cy="326.2024" fill="#84BE84" rx="3" ry="3" style="stroke:#038048;stroke-width:1.0;"/><text fill="#000000" font-family="sans-serif" font-size="14" lengthAdjust="spacing" textLength="76" x="172.5" y="329.9934">myDetails()</text><ellipse cx="163.5" cy="342.6907" fill="#84BE84" rx="3" ry="3" style="stroke:#038048;stroke-width:1.0;"/><text fill="#000000" font-family="sans-serif" font-size="14" lengthAdjust="spacing" textLength="172" x="172.5" y="346.4817">changeLectureSchedule()</text></g><!--class Lecture--><g id="elem_Lecture"><rect codeLine="15" fill="#F1F1F1" height="64.4883" id="Lecture" rx="2.5" ry="2.5" style="stroke:#181818;stroke-width:0.5;" width="120" x="7" y="421.68"/><ellipse cx="39.1" cy="437.68" fill="#ADD1B2" rx="11" ry="11" style="stroke:#181818;stroke-width:1.0;"/><path d="M42.0731,443.3231 Q41.4921,443.6219 40.8529,443.7713 Q40.2138,443.9207 39.5082,443.9207 Q37.0014,443.9207 35.6815,442.2689 Q34.3617,440.617 34.3617,437.4959 Q34.3617,434.3665 35.6815,432.7147 Q37.0014,431.0628 39.5082,431.0628 Q40.2138,431.0628 40.8612,431.2122 Q41.5087,431.3616 42.0731,431.6605 L42.0731,434.3831 Q41.4423,433.8021 40.8488,433.5323 Q40.2553,433.2625 39.6244,433.2625 Q38.2797,433.2625 37.5949,434.3292 Q36.9101,435.3958 36.9101,437.4959 Q36.9101,439.5877 37.5949,440.6544 Q38.2797,441.721 39.6244,441.721 Q40.2553,441.721 40.8488,441.4512 Q41.4423,441.1815 42.0731,440.6004 Z " fill="#000000"/><text fill="#000000" font-family="sans-serif" font-size="14" lengthAdjust="spacing" textLength="50" x="56.9" y="442.971">Lecture</text><line style="stroke:#181818;stroke-width:0.5;" x1="8" x2="126" y1="453.68" y2="453.68"/><line style="stroke:#181818;stroke-width:0.5;" x1="8" x2="126" y1="461.68" y2="461.68"/><ellipse cx="18" cy="475.4241" fill="#84BE84" rx="3" ry="3" style="stroke:#038048;stroke-width:1.0;"/><text fill="#000000" font-family="sans-serif" font-size="14" lengthAdjust="spacing" textLength="94" x="27" y="479.2152">getSchedule()</text></g><!--class Schedule--><g id="elem_Schedule"><rect codeLine="19" fill="#F1F1F1" height="80.9766" id="Schedule" rx="2.5" ry="2.5" style="stroke:#181818;stroke-width:0.5;" width="248" x="162" y="413.44"/><ellipse cx="250.75" cy="429.44" fill="#ADD1B2" rx="11" ry="11" style="stroke:#181818;stroke-width:1.0;"/><path d="M253.7231,435.0831 Q253.1421,435.3819 252.5029,435.5313 Q251.8638,435.6807 251.1582,435.6807 Q248.6514,435.6807 247.3315,434.0289 Q246.0117,432.377 246.0117,429.2559 Q246.0117,426.1265 247.3315,424.4747 Q248.6514,422.8228 251.1582,422.8228 Q251.8638,422.8228 252.5112,422.9722 Q253.1587,423.1216 253.7231,423.4205 L253.7231,426.1431 Q253.0923,425.5621 252.4988,425.2923 Q251.9053,425.0225 251.2744,425.0225 Q249.9297,425.0225 249.2449,426.0892 Q248.5601,427.1558 248.5601,429.2559 Q248.5601,431.3477 249.2449,432.4144 Q249.9297,433.481 251.2744,433.481 Q251.9053,433.481 252.4988,433.2112 Q253.0923,432.9415 253.7231,432.3604 Z " fill="#000000"/><text fill="#000000" font-family="sans-serif" font-size="14" lengthAdjust="spacing" textLength="62" x="271.25" y="434.731">Schedule</text><line style="stroke:#181818;stroke-width:0.5;" x1="163" x2="409" y1="445.44" y2="445.44"/><line style="stroke:#181818;stroke-width:0.5;" x1="163" x2="409" y1="453.44" y2="453.44"/><ellipse cx="173" cy="467.1841" fill="#84BE84" rx="3" ry="3" style="stroke:#038048;stroke-width:1.0;"/><text fill="#000000" font-family="sans-serif" font-size="14" lengthAdjust="spacing" textLength="222" x="182" y="470.9752">changeInitialDate(newDateTime)</text><ellipse cx="173" cy="483.6724" fill="#84BE84" rx="3" ry="3" style="stroke:#038048;stroke-width:1.0;"/><text fill="#000000" font-family="sans-serif" font-size="14" lengthAdjust="spacing" textLength="208" x="182" y="487.4634">changeDuration(newDuration)</text></g><!--class ListLecturesService--><g id="elem_ListLecturesService"><rect codeLine="24" fill="#F1F1F1" height="64.4883" id="ListLecturesService" rx="2.5" ry="2.5" style="stroke:#181818;stroke-width:0.5;" width="160" x="445" y="421.68"/><ellipse cx="460" cy="437.68" fill="#ADD1B2" rx="11" ry="11" style="stroke:#181818;stroke-width:1.0;"/><path d="M462.9731,443.3231 Q462.3921,443.6219 461.7529,443.7713 Q461.1138,443.9207 460.4082,443.9207 Q457.9014,443.9207 456.5815,442.2689 Q455.2617,440.617 455.2617,437.4959 Q455.2617,434.3665 456.5815,432.7147 Q457.9014,431.0628 460.4082,431.0628 Q461.1138,431.0628 461.7612,431.2122 Q462.4087,431.3616 462.9731,431.6605 L462.9731,434.3831 Q462.3423,433.8021 461.7488,433.5323 Q461.1553,433.2625 460.5244,433.2625 Q459.1797,433.2625 458.4949,434.3292 Q457.8101,435.3958 457.8101,437.4959 Q457.8101,439.5877 458.4949,440.6544 Q459.1797,441.721 460.5244,441.721 Q461.1553,441.721 461.7488,441.4512 Q462.3423,441.1815 462.9731,440.6004 Z " fill="#000000"/><text fill="#000000" font-family="sans-serif" font-size="14" lengthAdjust="spacing" textLength="128" x="474" y="442.971">ListLecturesService</text><line style="stroke:#181818;stroke-width:0.5;" x1="446" x2="604" y1="453.68" y2="453.68"/><line style="stroke:#181818;stroke-width:0.5;" x1="446" x2="604" y1="461.68" y2="461.68"/><ellipse cx="456" cy="475.4241" fill="#84BE84" rx="3" ry="3" style="stroke:#038048;stroke-width:1.0;"/><text fill="#000000" font-family="sans-serif" font-size="14" lengthAdjust="spacing" textLength="76" x="465" y="479.2152">myDetails()</text></g><!--class PersistenceContext--><g id="elem_PersistenceContext"><rect codeLine="28" fill="#F1F1F1" height="64.4883" id="PersistenceContext" rx="2.5" ry="2.5" style="stroke:#181818;stroke-width:0.5;" width="164" x="443" y="554.42"/><ellipse cx="458" cy="570.42" fill="#ADD1B2" rx="11" ry="11" style="stroke:#181818;stroke-width:1.0;"/><path d="M460.9731,576.0631 Q460.3921,576.3619 459.7529,576.5113 Q459.1138,576.6607 458.4082,576.6607 Q455.9014,576.6607 454.5815,575.0089 Q453.2617,573.357 453.2617,570.2359 Q453.2617,567.1065 454.5815,565.4547 Q455.9014,563.8028 458.4082,563.8028 Q459.1138,563.8028 459.7612,563.9522 Q460.4087,564.1016 460.9731,564.4005 L460.9731,567.1231 Q460.3423,566.5421 459.7488,566.2723 Q459.1553,566.0025 458.5244,566.0025 Q457.1797,566.0025 456.4949,567.0692 Q455.8101,568.1358 455.8101,570.2359 Q455.8101,572.3277 456.4949,573.3944 Q457.1797,574.461 458.5244,574.461 Q459.1553,574.461 459.7488,574.1912 Q460.3423,573.9215 460.9731,573.3404 Z " fill="#000000"/><text fill="#000000" font-family="sans-serif" font-size="14" lengthAdjust="spacing" textLength="132" x="472" y="575.711">PersistenceContext</text><line style="stroke:#181818;stroke-width:0.5;" x1="444" x2="606" y1="586.42" y2="586.42"/><line style="stroke:#181818;stroke-width:0.5;" x1="444" x2="606" y1="594.42" y2="594.42"/><ellipse cx="454" cy="608.1641" fill="#84BE84" rx="3" ry="3" style="stroke:#038048;stroke-width:1.0;"/><text fill="#000000" font-family="sans-serif" font-size="14" lengthAdjust="spacing" textLength="92" x="463" y="611.9552">repositories()</text></g><!--class RepositoryFactory--><g id="elem_RepositoryFactory"><rect codeLine="32" fill="#F1F1F1" height="64.4883" id="RepositoryFactory" rx="2.5" ry="2.5" style="stroke:#181818;stroke-width:0.5;" width="155" x="447.5" y="678.9"/><ellipse cx="462.5" cy="694.9" fill="#B4A7E5" rx="11" ry="11" style="stroke:#181818;stroke-width:1.0;"/><path d="M458.4277,690.6651 L458.4277,688.5069 L465.8071,688.5069 L465.8071,690.6651 L463.3418,690.6651 L463.3418,698.7418 L465.8071,698.7418 L465.8071,700.9 L458.4277,700.9 L458.4277,698.7418 L460.8931,698.7418 L460.8931,690.6651 Z " fill="#000000"/><text fill="#000000" font-family="sans-serif" font-size="14" font-style="italic" lengthAdjust="spacing" textLength="123" x="476.5" y="700.191">RepositoryFactory</text><line style="stroke:#181818;stroke-width:0.5;" x1="448.5" x2="601.5" y1="710.9" y2="710.9"/><line style="stroke:#181818;stroke-width:0.5;" x1="448.5" x2="601.5" y1="718.9" y2="718.9"/><ellipse cx="458.5" cy="732.6441" fill="#84BE84" rx="3" ry="3" style="stroke:#038048;stroke-width:1.0;"/><text fill="#000000" font-family="sans-serif" font-size="14" lengthAdjust="spacing" textLength="129" x="467.5" y="736.4352">courseRepository()</text></g><!--class TeacherRepository--><g id="elem_TeacherRepository"><rect codeLine="36" fill="#F1F1F1" height="64.4883" id="TeacherRepository" rx="2.5" ry="2.5" style="stroke:#181818;stroke-width:0.5;" width="160" x="252" y="803.39"/><ellipse cx="267" cy="819.39" fill="#B4A7E5" rx="11" ry="11" style="stroke:#181818;stroke-width:1.0;"/><path d="M262.9277,815.1551 L262.9277,812.9969 L270.3071,812.9969 L270.3071,815.1551 L267.8418,815.1551 L267.8418,823.2318 L270.3071,823.2318 L270.3071,825.39 L262.9277,825.39 L262.9277,823.2318 L265.3931,823.2318 L265.3931,815.1551 Z " fill="#000000"/><text fill="#000000" font-family="sans-serif" font-size="14" font-style="italic" lengthAdjust="spacing" textLength="128" x="281" y="824.681">TeacherRepository</text><line style="stroke:#181818;stroke-width:0.5;" x1="253" x2="411" y1="835.39" y2="835.39"/><line style="stroke:#181818;stroke-width:0.5;" x1="253" x2="411" y1="843.39" y2="843.39"/><ellipse cx="263" cy="857.1341" fill="#84BE84" rx="3" ry="3" style="stroke:#038048;stroke-width:1.0;"/><text fill="#000000" font-family="sans-serif" font-size="14" lengthAdjust="spacing" textLength="76" x="272" y="860.9252">myDetails()</text></g><!--class LectureRepository--><g id="elem_LectureRepository"><rect codeLine="40" fill="#F1F1F1" height="64.4883" id="LectureRepository" rx="2.5" ry="2.5" style="stroke:#181818;stroke-width:0.5;" width="155" x="447.5" y="803.39"/><ellipse cx="462.5" cy="819.39" fill="#B4A7E5" rx="11" ry="11" style="stroke:#181818;stroke-width:1.0;"/><path d="M458.4277,815.1551 L458.4277,812.9969 L465.8071,812.9969 L465.8071,815.1551 L463.3418,815.1551 L463.3418,823.2318 L465.8071,823.2318 L465.8071,825.39 L458.4277,825.39 L458.4277,823.2318 L460.8931,823.2318 L460.8931,815.1551 Z " fill="#000000"/><text fill="#000000" font-family="sans-serif" font-size="14" font-style="italic" lengthAdjust="spacing" textLength="123" x="476.5" y="824.681">LectureRepository</text><line style="stroke:#181818;stroke-width:0.5;" x1="448.5" x2="601.5" y1="835.39" y2="835.39"/><line style="stroke:#181818;stroke-width:0.5;" x1="448.5" x2="601.5" y1="843.39" y2="843.39"/><ellipse cx="458.5" cy="857.1341" fill="#84BE84" rx="3" ry="3" style="stroke:#038048;stroke-width:1.0;"/><text fill="#000000" font-family="sans-serif" font-size="14" lengthAdjust="spacing" textLength="40" x="467.5" y="860.9252">save()</text></g><!--class ScheduleRepository--><g id="elem_ScheduleRepository"><rect codeLine="44" fill="#F1F1F1" height="64.4883" id="ScheduleRepository" rx="2.5" ry="2.5" style="stroke:#181818;stroke-width:0.5;" width="167" x="637.5" y="803.39"/><ellipse cx="652.5" cy="819.39" fill="#B4A7E5" rx="11" ry="11" style="stroke:#181818;stroke-width:1.0;"/><path d="M648.4277,815.1551 L648.4277,812.9969 L655.8071,812.9969 L655.8071,815.1551 L653.3418,815.1551 L653.3418,823.2318 L655.8071,823.2318 L655.8071,825.39 L648.4277,825.39 L648.4277,823.2318 L650.8931,823.2318 L650.8931,815.1551 Z " fill="#000000"/><text fill="#000000" font-family="sans-serif" font-size="14" font-style="italic" lengthAdjust="spacing" textLength="135" x="666.5" y="824.681">ScheduleRepository</text><line style="stroke:#181818;stroke-width:0.5;" x1="638.5" x2="803.5" y1="835.39" y2="835.39"/><line style="stroke:#181818;stroke-width:0.5;" x1="638.5" x2="803.5" y1="843.39" y2="843.39"/><ellipse cx="648.5" cy="857.1341" fill="#84BE84" rx="3" ry="3" style="stroke:#038048;stroke-width:1.0;"/><text fill="#000000" font-family="sans-serif" font-size="14" lengthAdjust="spacing" textLength="40" x="657.5" y="860.9252">save()</text></g><!--link ChangeLectureScheduleAction to ChangeLectureScheduleUI--><g id="link_ChangeLectureScheduleAction_ChangeLectureScheduleUI"><path codeLine="48" d="M286,71.79 C286,88.22 286,108.41 286,125.59 " fill="none" id="ChangeLectureScheduleAction-to-ChangeLectureScheduleUI" style="stroke:#181818;stroke-width:1.0;stroke-dasharray:7.0,7.0;"/><polygon fill="#181818" points="286,130.29,290,121.29,286,125.29,282,121.29,286,130.29" style="stroke:#181818;stroke-width:1.0;"/></g><!--link ChangeLectureScheduleUI to ChangeLectureScheduleController--><g id="link_ChangeLectureScheduleUI_ChangeLectureScheduleController"><path codeLine="49" d="M286,196.27 C286,212.16 286,231.88 286,250.06 " fill="none" id="ChangeLectureScheduleUI-to-ChangeLectureScheduleController" style="stroke:#181818;stroke-width:1.0;stroke-dasharray:7.0,7.0;"/><polygon fill="#181818" points="286,254.65,290,245.65,286,249.65,282,245.65,286,254.65" style="stroke:#181818;stroke-width:1.0;"/></g><!--link ChangeLectureScheduleController to ListLecturesService--><g id="link_ChangeLectureScheduleController_ListLecturesService"><path codeLine="51" d="M364.26,353.91 C398.37,374.93 437.6,399.09 468.76,418.28 " fill="none" id="ChangeLectureScheduleController-to-ListLecturesService" style="stroke:#181818;stroke-width:1.0;"/><polygon fill="#181818" points="472.69,421.32,467.1139,413.2017,468.4293,418.7035,462.9275,420.0189,472.69,421.32" style="stroke:#181818;stroke-width:1.0;"/></g><!--link ChangeLectureScheduleController to Lecture--><g id="link_ChangeLectureScheduleController_Lecture"><path codeLine="52" d="M214.29,353.91 C183.16,374.84 147.38,398.89 118.89,418.05 " fill="none" id="ChangeLectureScheduleController-to-Lecture" style="stroke:#181818;stroke-width:1.0;"/><polygon fill="#181818" points="115.01,421.32,124.7106,419.6174,119.1592,418.53,120.2466,412.9787,115.01,421.32" style="stroke:#181818;stroke-width:1.0;"/></g><!--link ChangeLectureScheduleController to Schedule--><g id="link_ChangeLectureScheduleController_Schedule"><path codeLine="53" d="M286,353.91 C286,371.09 286,390.37 286,407.32 " fill="none" id="ChangeLectureScheduleController-to-Schedule" style="stroke:#181818;stroke-width:1.0;"/><polygon fill="#181818" points="286,411.98,290,402.98,286,406.98,282,402.98,286,411.98" style="stroke:#181818;stroke-width:1.0;"/></g><!--link ListLecturesService to PersistenceContext--><g id="link_ListLecturesService_PersistenceContext"><path codeLine="55" d="M525,486.57 C525,505.2 525,528.86 525,548.39 " fill="none" id="ListLecturesService-to-PersistenceContext" style="stroke:#181818;stroke-width:1.0;"/><polygon fill="#181818" points="525,553.3,529,544.3,525,548.3,521,544.3,525,553.3" style="stroke:#181818;stroke-width:1.0;"/></g><!--link PersistenceContext to RepositoryFactory--><g id="link_PersistenceContext_RepositoryFactory"><path codeLine="56" d="M525,619.2 C525,635.63 525,655.83 525,673.01 " fill="none" id="PersistenceContext-to-RepositoryFactory" style="stroke:#181818;stroke-width:1.0;"/><polygon fill="#181818" points="525,677.71,529,668.71,525,672.71,521,668.71,525,677.71" style="stroke:#181818;stroke-width:1.0;"/></g><!--link RepositoryFactory to TeacherRepository--><g id="link_RepositoryFactory_TeacherRepository"><path codeLine="57" d="M475.05,743.85 C447.91,761.07 414.32,782.39 386.51,800.04 " fill="none" id="RepositoryFactory-to-TeacherRepository" style="stroke:#181818;stroke-width:1.0;"/><polygon fill="#181818" points="382.74,803.07,392.483,801.6299,386.963,800.393,388.1999,794.8731,382.74,803.07" style="stroke:#181818;stroke-width:1.0;"/></g><!--link RepositoryFactory to LectureRepository--><g id="link_RepositoryFactory_LectureRepository"><path codeLine="58" d="M525,743.69 C525,760.12 525,780.32 525,797.5 " fill="none" id="RepositoryFactory-to-LectureRepository" style="stroke:#181818;stroke-width:1.0;"/><polygon fill="#181818" points="525,802.2,529,793.2,525,797.2,521,793.2,525,802.2" style="stroke:#181818;stroke-width:1.0;"/></g><!--link RepositoryFactory to ScheduleRepository--><g id="link_RepositoryFactory_ScheduleRepository"><path codeLine="59" d="M575.73,743.85 C603.29,761.07 637.4,782.39 665.64,800.04 " fill="none" id="RepositoryFactory-to-ScheduleRepository" style="stroke:#181818;stroke-width:1.0;"/><polygon fill="#181818" points="669.48,803.07,663.9557,794.9164,665.236,800.4264,659.7259,801.7068,669.48,803.07" style="stroke:#181818;stroke-width:1.0;"/></g><!--SRC=[ZPB1RiCW38RlF4MEdQRq4IfDZIPLsc5QkWT0n6kGA5I6DAkclVkWXP0LY9eBaVtzDZO_4rJhQjjJUO0tO6P0Q5aFtI3WXHckv0-fxFTSwLwDgoVoIrXPyRch0jwfDWYM55ib3IeX02VbyU8PRTKXr82XNCG8onMRT_EfgUe1J0uBiOcx5Tv9RZWL3JMmaZ2wSy-FyBzxCo1r6xeI_dz-0wvDcAG5F7C6indZG9FW7L1R3KXsNGjycub7E2dDZK8ENi8jW5_Krlm8kSihPUw8iwW1DSJylN8Fr8wF4IZTBqhyG1c9fcUufyDs5_45xrNhJerolIcvZPHSkAYBdYiqdvcoTeNgJUun7zVUY8Vva28aPw7Q4gbJICOyZapCGLAxE2wnGe5Bth_0fIzFo1y0]--></g></svg>