<?xml version="1.0" encoding="us-ascii" standalone="no"?><svg xmlns="http://www.w3.org/2000/svg" xmlns:xlink="http://www.w3.org/1999/xlink" contentStyleType="text/css" height="733px" preserveAspectRatio="none" style="width:2586px;height:733px;background:#FFFFFF;" version="1.1" viewBox="0 0 2586 733" width="2586px" zoomAndPan="magnify"><defs/><g><text fill="#000000" font-family="sans-serif" font-size="14" font-weight="bold" lengthAdjust="spacing" textLength="163" x="1204.5" y="23.5352">Domain Driven Design</text><!--cluster <<Aggregate>> Course--><g id="cluster_&lt;&lt;Aggregate&gt;&gt; Course"><rect fill="none" height="217.5" rx="2.5" ry="2.5" style="stroke:#181818;stroke-width:1.0;" width="1237" x="7" y="44.4883"/><text fill="#000000" font-family="sans-serif" font-size="14" font-weight="bold" lengthAdjust="spacing" textLength="144" x="553.5" y="60.0234">&#171;Aggregate&#187; Course</text></g><!--cluster <<Aggregate>> Teacher--><g id="cluster_&lt;&lt;Aggregate&gt;&gt; Teacher"><rect fill="none" height="214.51" rx="2.5" ry="2.5" style="stroke:#181818;stroke-width:1.0;" width="658" x="1268" y="159.2383"/><text fill="#000000" font-family="sans-serif" font-size="14" font-weight="bold" lengthAdjust="spacing" textLength="150" x="1522" y="174.7734">&#171;Aggregate&#187; Teacher</text></g><!--cluster <<Aggregate>> Lecture--><g id="cluster_&lt;&lt;Aggregate&gt;&gt; Lecture"><rect fill="none" height="214.51" rx="2.5" ry="2.5" style="stroke:#181818;stroke-width:1.0;" width="698" x="1882" y="512.4983"/><text fill="#000000" font-family="sans-serif" font-size="14" font-weight="bold" lengthAdjust="spacing" textLength="146" x="2158" y="528.0334">&#171;Aggregate&#187; Lecture</text></g><!--cluster <<Aggregate>> Schedule--><g id="cluster_&lt;&lt;Aggregate&gt;&gt; Schedule"><rect fill="none" height="217.51" rx="2.5" ry="2.5" style="stroke:#181818;stroke-width:1.0;" width="521" x="1337" y="397.7483"/><text fill="#000000" font-family="sans-serif" font-size="14" font-weight="bold" lengthAdjust="spacing" textLength="157" x="1519" y="413.2834">&#171;Aggregate&#187; Schedule</text></g><!--class Course--><g id="elem_Course"><rect codeLine="11" fill="#F1F1F1" height="54.7539" id="Course" rx="2.5" ry="2.5" style="stroke:#181818;stroke-width:0.5;" width="81" x="728.5" y="79.4883"/><ellipse cx="743.5" cy="106.8652" fill="#ADD1B2" rx="11" ry="11" style="stroke:#181818;stroke-width:1.0;"/><path d="M747.6143,112.8652 L739.8945,112.8652 L739.8945,100.4722 L747.6143,100.4722 L747.6143,102.6304 L742.3433,102.6304 L742.3433,105.3032 L747.1162,105.3032 L747.1162,107.4614 L742.3433,107.4614 L742.3433,110.707 L747.6143,110.707 Z " fill="#000000"/><text fill="#000000" font-family="sans-serif" font-size="12" font-style="italic" lengthAdjust="spacing" textLength="38" x="763" y="96.0898">&#171;Root&#187;</text><text fill="#000000" font-family="sans-serif" font-size="12" font-style="italic" lengthAdjust="spacing" textLength="43" x="760.5" y="110.2227">&#171;Entity&#187;</text><text fill="#000000" font-family="sans-serif" font-size="14" lengthAdjust="spacing" textLength="49" x="757.5" y="126.2891">Course</text></g><g id="elem_Id"><rect fill="#F1F1F1" height="48.7539" style="stroke:#181818;stroke-width:0.5;" width="96" x="23" y="197.2383"/><text fill="#000000" font-family="sans-serif" font-size="12" font-style="italic" lengthAdjust="spacing" textLength="86" x="28" y="208.8398">&#171;Value Object&#187;</text><text fill="#000000" font-family="sans-serif" font-size="12" font-style="italic" lengthAdjust="spacing" textLength="54" x="44" y="222.9727">&#171;Identify&#187;</text><text fill="#000000" font-family="sans-serif" font-size="14" lengthAdjust="spacing" textLength="13" x="64.5" y="241.0391">Id</text></g><g id="elem_CourseState"><rect fill="#F1F1F1" height="34.6211" style="stroke:#181818;stroke-width:0.5;" width="97" x="153.5" y="204.3083"/><text fill="#000000" font-family="sans-serif" font-size="12" font-style="italic" lengthAdjust="spacing" textLength="86" x="159" y="215.9098">&#171;Value Object&#187;</text><text fill="#000000" font-family="sans-serif" font-size="14" lengthAdjust="spacing" textLength="83" x="160.5" y="233.9762">CourseState</text></g><g id="elem_CourseEnrollmentState"><rect fill="#F1F1F1" height="34.6211" style="stroke:#181818;stroke-width:0.5;" width="172" x="285" y="204.3083"/><text fill="#000000" font-family="sans-serif" font-size="12" font-style="italic" lengthAdjust="spacing" textLength="86" x="328" y="215.9098">&#171;Value Object&#187;</text><text fill="#000000" font-family="sans-serif" font-size="14" lengthAdjust="spacing" textLength="158" x="292" y="233.9762">CourseEnrollmentState</text></g><g id="elem_Edition"><rect fill="#F1F1F1" height="34.6211" style="stroke:#181818;stroke-width:0.5;" width="96" x="492" y="204.3083"/><text fill="#000000" font-family="sans-serif" font-size="12" font-style="italic" lengthAdjust="spacing" textLength="86" x="497" y="215.9098">&#171;Value Object&#187;</text><text fill="#000000" font-family="sans-serif" font-size="14" lengthAdjust="spacing" textLength="48" x="516" y="233.9762">Edition</text></g><g id="elem_CourseDescription"><rect fill="#F1F1F1" height="34.6211" style="stroke:#181818;stroke-width:0.5;" width="141" x="622.5" y="204.3083"/><text fill="#000000" font-family="sans-serif" font-size="12" font-style="italic" lengthAdjust="spacing" textLength="86" x="650" y="215.9098">&#171;Value Object&#187;</text><text fill="#000000" font-family="sans-serif" font-size="14" lengthAdjust="spacing" textLength="127" x="629.5" y="233.9762">CourseDescription</text></g><g id="elem_CourseTitle"><rect fill="#F1F1F1" height="34.6211" style="stroke:#181818;stroke-width:0.5;" width="96" x="798" y="204.3083"/><text fill="#000000" font-family="sans-serif" font-size="12" font-style="italic" lengthAdjust="spacing" textLength="86" x="803" y="215.9098">&#171;Value Object&#187;</text><text fill="#000000" font-family="sans-serif" font-size="14" lengthAdjust="spacing" textLength="79" x="806.5" y="233.9762">CourseTitle</text></g><g id="elem_ExamsList"><rect fill="#F1F1F1" height="34.6211" style="stroke:#181818;stroke-width:0.5;" width="96" x="929" y="204.3083"/><text fill="#000000" font-family="sans-serif" font-size="12" font-style="italic" lengthAdjust="spacing" textLength="86" x="934" y="215.9098">&#171;Value Object&#187;</text><text fill="#000000" font-family="sans-serif" font-size="14" lengthAdjust="spacing" textLength="68" x="943" y="233.9762">ExamsList</text></g><g id="elem_CourseEnrollmentsList"><rect fill="#F1F1F1" height="34.6211" style="stroke:#181818;stroke-width:0.5;" width="168" x="1060" y="204.3083"/><text fill="#000000" font-family="sans-serif" font-size="12" font-style="italic" lengthAdjust="spacing" textLength="86" x="1101" y="215.9098">&#171;Value Object&#187;</text><text fill="#000000" font-family="sans-serif" font-size="14" lengthAdjust="spacing" textLength="154" x="1067" y="233.9762">CourseEnrollmentsList</text></g><!--class Teacher--><g id="elem_Teacher"><rect codeLine="33" fill="#F1F1F1" height="54.7539" id="Teacher" rx="2.5" ry="2.5" style="stroke:#181818;stroke-width:0.5;" width="87" x="1489.5" y="194.2383"/><ellipse cx="1504.5" cy="221.6152" fill="#ADD1B2" rx="11" ry="11" style="stroke:#181818;stroke-width:1.0;"/><path d="M1508.6143,227.6152 L1500.8945,227.6152 L1500.8945,215.2222 L1508.6143,215.2222 L1508.6143,217.3804 L1503.3433,217.3804 L1503.3433,220.0532 L1508.1162,220.0532 L1508.1162,222.2114 L1503.3433,222.2114 L1503.3433,225.457 L1508.6143,225.457 Z " fill="#000000"/><text fill="#000000" font-family="sans-serif" font-size="12" font-style="italic" lengthAdjust="spacing" textLength="38" x="1527" y="210.8398">&#171;Root&#187;</text><text fill="#000000" font-family="sans-serif" font-size="12" font-style="italic" lengthAdjust="spacing" textLength="43" x="1524.5" y="224.9727">&#171;Entity&#187;</text><text fill="#000000" font-family="sans-serif" font-size="14" lengthAdjust="spacing" textLength="55" x="1518.5" y="241.0391">Teacher</text></g><g id="elem_Acronym"><rect fill="#F1F1F1" height="48.7539" style="stroke:#181818;stroke-width:0.5;" width="96" x="1284" y="308.9883"/><text fill="#000000" font-family="sans-serif" font-size="12" font-style="italic" lengthAdjust="spacing" textLength="86" x="1289" y="320.5898">&#171;Value Object&#187;</text><text fill="#000000" font-family="sans-serif" font-size="12" font-style="italic" lengthAdjust="spacing" textLength="54" x="1305" y="334.7227">&#171;Identify&#187;</text><text fill="#000000" font-family="sans-serif" font-size="14" lengthAdjust="spacing" textLength="61" x="1301.5" y="352.7891">Acronym</text></g><g id="elem_ECourseUser"><rect fill="#F1F1F1" height="34.6211" style="stroke:#181818;stroke-width:0.5;" width="102" x="1415" y="316.0583"/><text fill="#000000" font-family="sans-serif" font-size="12" font-style="italic" lengthAdjust="spacing" textLength="86" x="1423" y="327.6598">&#171;Value Object&#187;</text><text fill="#000000" font-family="sans-serif" font-size="14" lengthAdjust="spacing" textLength="88" x="1422" y="345.7263">ECourseUser</text></g><g id="elem_SystemUser"><rect fill="#F1F1F1" height="34.6211" style="stroke:#181818;stroke-width:0.5;" width="96" x="1552" y="316.0583"/><text fill="#000000" font-family="sans-serif" font-size="12" font-style="italic" lengthAdjust="spacing" textLength="86" x="1557" y="327.6598">&#171;Value Object&#187;</text><text fill="#000000" font-family="sans-serif" font-size="14" lengthAdjust="spacing" textLength="79" x="1560.5" y="345.7263">SystemUser</text></g><g id="elem_TimeTable"><rect fill="#F1F1F1" height="34.6211" style="stroke:#181818;stroke-width:0.5;" width="96" x="1683" y="316.0583"/><text fill="#000000" font-family="sans-serif" font-size="12" font-style="italic" lengthAdjust="spacing" textLength="86" x="1688" y="327.6598">&#171;Value Object&#187;</text><text fill="#000000" font-family="sans-serif" font-size="14" lengthAdjust="spacing" textLength="72" x="1695" y="345.7263">TimeTable</text></g><g id="elem_CourseList"><rect fill="#F1F1F1" height="34.6211" style="stroke:#181818;stroke-width:0.5;" width="96" x="1814" y="316.0583"/><text fill="#000000" font-family="sans-serif" font-size="12" font-style="italic" lengthAdjust="spacing" textLength="86" x="1819" y="327.6598">&#171;Value Object&#187;</text><text fill="#000000" font-family="sans-serif" font-size="14" lengthAdjust="spacing" textLength="72" x="1826" y="345.7263">CourseList</text></g><!--class Lecture--><g id="elem_Lecture"><rect codeLine="49" fill="#F1F1F1" height="54.7539" id="Lecture" rx="2.5" ry="2.5" style="stroke:#181818;stroke-width:0.5;" width="82" x="2036" y="547.4983"/><ellipse cx="2051" cy="574.8752" fill="#ADD1B2" rx="11" ry="11" style="stroke:#181818;stroke-width:1.0;"/><path d="M2055.1143,580.8752 L2047.3945,580.8752 L2047.3945,568.4822 L2055.1143,568.4822 L2055.1143,570.6404 L2049.8433,570.6404 L2049.8433,573.3132 L2054.6162,573.3132 L2054.6162,575.4714 L2049.8433,575.4714 L2049.8433,578.717 L2055.1143,578.717 Z " fill="#000000"/><text fill="#000000" font-family="sans-serif" font-size="12" font-style="italic" lengthAdjust="spacing" textLength="38" x="2071" y="564.0998">&#171;Root&#187;</text><text fill="#000000" font-family="sans-serif" font-size="12" font-style="italic" lengthAdjust="spacing" textLength="43" x="2068.5" y="578.2327">&#171;Entity&#187;</text><text fill="#000000" font-family="sans-serif" font-size="14" lengthAdjust="spacing" textLength="50" x="2065" y="594.2991">Lecture</text></g><g id="elem_LectureId"><rect fill="#F1F1F1" height="48.7539" style="stroke:#181818;stroke-width:0.5;" width="96" x="1898" y="662.2583"/><text fill="#000000" font-family="sans-serif" font-size="12" font-style="italic" lengthAdjust="spacing" textLength="86" x="1903" y="673.8598">&#171;Value Object&#187;</text><text fill="#000000" font-family="sans-serif" font-size="12" font-style="italic" lengthAdjust="spacing" textLength="54" x="1919" y="687.9927">&#171;Identify&#187;</text><text fill="#000000" font-family="sans-serif" font-size="14" lengthAdjust="spacing" textLength="63" x="1914.5" y="706.0591">LectureId</text></g><g id="elem_LectureTitle"><rect fill="#F1F1F1" height="34.6211" style="stroke:#181818;stroke-width:0.5;" width="96" x="2029" y="669.3183"/><text fill="#000000" font-family="sans-serif" font-size="12" font-style="italic" lengthAdjust="spacing" textLength="86" x="2034" y="680.9198">&#171;Value Object&#187;</text><text fill="#000000" font-family="sans-serif" font-size="14" lengthAdjust="spacing" textLength="80" x="2037" y="698.9862">LectureTitle</text></g><g id="elem_LectureType"><rect fill="#F1F1F1" height="34.6211" style="stroke:#181818;stroke-width:0.5;" width="97" x="2159.5" y="669.3183"/><text fill="#000000" font-family="sans-serif" font-size="12" font-style="italic" lengthAdjust="spacing" textLength="86" x="2165" y="680.9198">&#171;Value Object&#187;</text><text fill="#000000" font-family="sans-serif" font-size="14" lengthAdjust="spacing" textLength="83" x="2166.5" y="698.9862">LectureType</text></g><g id="elem_LectureSchedule"><rect fill="#F1F1F1" height="34.6211" style="stroke:#181818;stroke-width:0.5;" width="126" x="2291" y="669.3183"/><text fill="#000000" font-family="sans-serif" font-size="12" font-style="italic" lengthAdjust="spacing" textLength="86" x="2311" y="680.9198">&#171;Value Object&#187;</text><text fill="#000000" font-family="sans-serif" font-size="14" lengthAdjust="spacing" textLength="112" x="2298" y="698.9862">LectureSchedule</text></g><g id="elem_LectureCourse"><rect fill="#F1F1F1" height="34.6211" style="stroke:#181818;stroke-width:0.5;" width="113" x="2451.5" y="669.3183"/><text fill="#000000" font-family="sans-serif" font-size="12" font-style="italic" lengthAdjust="spacing" textLength="86" x="2465" y="680.9198">&#171;Value Object&#187;</text><text fill="#000000" font-family="sans-serif" font-size="14" lengthAdjust="spacing" textLength="99" x="2458.5" y="698.9862">LectureCourse</text></g><!--class Schedule--><g id="elem_Schedule"><rect codeLine="65" fill="#F1F1F1" height="54.7539" id="Schedule" rx="2.5" ry="2.5" style="stroke:#181818;stroke-width:0.5;" width="94" x="1639" y="432.7483"/><ellipse cx="1654" cy="460.1252" fill="#ADD1B2" rx="11" ry="11" style="stroke:#181818;stroke-width:1.0;"/><path d="M1658.1143,466.1252 L1650.3945,466.1252 L1650.3945,453.7322 L1658.1143,453.7322 L1658.1143,455.8904 L1652.8433,455.8904 L1652.8433,458.5632 L1657.6162,458.5632 L1657.6162,460.7214 L1652.8433,460.7214 L1652.8433,463.967 L1658.1143,463.967 Z " fill="#000000"/><text fill="#000000" font-family="sans-serif" font-size="12" font-style="italic" lengthAdjust="spacing" textLength="38" x="1680" y="449.3498">&#171;Root&#187;</text><text fill="#000000" font-family="sans-serif" font-size="12" font-style="italic" lengthAdjust="spacing" textLength="43" x="1677.5" y="463.4827">&#171;Entity&#187;</text><text fill="#000000" font-family="sans-serif" font-size="14" lengthAdjust="spacing" textLength="62" x="1668" y="479.5491">Schedule</text></g><g id="elem_ScheduleId"><rect fill="#F1F1F1" height="48.7539" style="stroke:#181818;stroke-width:0.5;" width="96" x="1353" y="550.4983"/><text fill="#000000" font-family="sans-serif" font-size="12" font-style="italic" lengthAdjust="spacing" textLength="86" x="1358" y="562.0998">&#171;Value Object&#187;</text><text fill="#000000" font-family="sans-serif" font-size="12" font-style="italic" lengthAdjust="spacing" textLength="54" x="1374" y="576.2327">&#171;Identify&#187;</text><text fill="#000000" font-family="sans-serif" font-size="14" lengthAdjust="spacing" textLength="75" x="1363.5" y="594.2991">ScheduleId</text></g><g id="elem_InitialDate"><rect fill="#F1F1F1" height="34.6211" style="stroke:#181818;stroke-width:0.5;" width="96" x="1484" y="557.5683"/><text fill="#000000" font-family="sans-serif" font-size="12" font-style="italic" lengthAdjust="spacing" textLength="86" x="1489" y="569.1698">&#171;Value Object&#187;</text><text fill="#000000" font-family="sans-serif" font-size="14" lengthAdjust="spacing" textLength="69" x="1497.5" y="587.2362">InitialDate</text></g><g id="elem_FinalDate"><rect fill="#F1F1F1" height="34.6211" style="stroke:#181818;stroke-width:0.5;" width="96" x="1615" y="557.5683"/><text fill="#000000" font-family="sans-serif" font-size="12" font-style="italic" lengthAdjust="spacing" textLength="86" x="1620" y="569.1698">&#171;Value Object&#187;</text><text fill="#000000" font-family="sans-serif" font-size="14" lengthAdjust="spacing" textLength="64" x="1631" y="587.2362">FinalDate</text></g><g id="elem_Duration"><rect fill="#F1F1F1" height="34.6211" style="stroke:#181818;stroke-width:0.5;" width="96" x="1746" y="557.5683"/><text fill="#000000" font-family="sans-serif" font-size="12" font-style="italic" lengthAdjust="spacing" textLength="86" x="1751" y="569.1698">&#171;Value Object&#187;</text><text fill="#000000" font-family="sans-serif" font-size="14" lengthAdjust="spacing" textLength="60" x="1764" y="587.2362">Duration</text></g><!--link Course to CourseTitle--><g id="link_Course_CourseTitle"><path codeLine="21" d="M801.83,134.6383 C801.83,134.6383 801.83,198.0783 801.83,198.0783 " fill="none" id="Course-to-CourseTitle" style="stroke:#181818;stroke-width:1.0;"/><polygon fill="#181818" points="801.83,203.0783,805.83,194.0783,801.83,198.0783,797.83,194.0783,801.83,203.0783" style="stroke:#181818;stroke-width:1.0;"/><text fill="#000000" font-family="sans-serif" font-size="13" lengthAdjust="spacing" textLength="33" x="767.83" y="162.9266">has a</text><text fill="#000000" font-family="sans-serif" font-size="13" lengthAdjust="spacing" textLength="8" x="800.1366" y="154.9566">1</text><text fill="#000000" font-family="sans-serif" font-size="13" lengthAdjust="spacing" textLength="8" x="782.0886" y="195.5809">1</text></g><!--link Course to Id--><g id="link_Course_Id"><path codeLine="22" d="M740.17,134.6383 C740.17,162.7183 740.17,202.0083 740.17,202.0083 C740.17,202.0083 125.39,202.0083 125.39,202.0083 " fill="none" id="Course-to-Id" style="stroke:#181818;stroke-width:1.0;"/><polygon fill="#181818" points="120.39,202.0083,129.39,206.0083,125.39,202.0083,129.39,198.0083,120.39,202.0083" style="stroke:#181818;stroke-width:1.0;"/><text fill="#000000" font-family="sans-serif" font-size="13" lengthAdjust="spacing" textLength="33" x="432.47" y="198.5766">has a</text><text fill="#000000" font-family="sans-serif" font-size="13" lengthAdjust="spacing" textLength="8" x="724.9884" y="154.9566">1</text><text fill="#000000" font-family="sans-serif" font-size="13" lengthAdjust="spacing" textLength="8" x="127.0848" y="195.6181">1</text></g><!--link Course to CourseDescription--><g id="link_Course_CourseDescription"><path codeLine="23" d="M751.83,134.6383 C751.83,134.6383 751.83,198.0783 751.83,198.0783 " fill="none" id="Course-to-CourseDescription" style="stroke:#181818;stroke-width:1.0;"/><polygon fill="#181818" points="751.83,203.0783,755.83,194.0783,751.83,198.0783,747.83,194.0783,751.83,203.0783" style="stroke:#181818;stroke-width:1.0;"/><text fill="#000000" font-family="sans-serif" font-size="13" lengthAdjust="spacing" textLength="33" x="717.83" y="162.9266">has a</text><text fill="#000000" font-family="sans-serif" font-size="13" lengthAdjust="spacing" textLength="8" x="739.1991" y="154.9566">1</text><text fill="#000000" font-family="sans-serif" font-size="13" lengthAdjust="spacing" textLength="8" x="761.3071" y="193.7145">1</text></g><!--link Course to CourseState--><g id="link_Course_CourseState"><path codeLine="24" d="M728.22,94.0083 C598.21,94.0083 202,94.0083 202,94.0083 C202,94.0083 202,197.8683 202,197.8683 " fill="none" id="Course-to-CourseState" style="stroke:#181818;stroke-width:1.0;"/><polygon fill="#181818" points="202,202.8683,206,193.8683,202,197.8683,198,193.8683,202,202.8683" style="stroke:#181818;stroke-width:1.0;"/><text fill="#000000" font-family="sans-serif" font-size="13" lengthAdjust="spacing" textLength="33" x="379.18" y="90.5766">has a</text><text fill="#000000" font-family="sans-serif" font-size="13" lengthAdjust="spacing" textLength="8" x="712.5234" y="88.1045">1</text><text fill="#000000" font-family="sans-serif" font-size="13" lengthAdjust="spacing" textLength="8" x="192.725" y="193.4375">1</text></g><!--link Course to CourseEnrollmentState--><g id="link_Course_CourseEnrollmentState"><path codeLine="25" d="M728.28,107.0083 C626.84,107.0083 371,107.0083 371,107.0083 C371,107.0083 371,198.2083 371,198.2083 " fill="none" id="Course-to-CourseEnrollmentState" style="stroke:#181818;stroke-width:1.0;"/><polygon fill="#181818" points="371,203.2083,375,194.2083,371,198.2083,367,194.2083,371,203.2083" style="stroke:#181818;stroke-width:1.0;"/><text fill="#000000" font-family="sans-serif" font-size="13" lengthAdjust="spacing" textLength="41" x="462.04" y="103.5766">has an</text><text fill="#000000" font-family="sans-serif" font-size="13" lengthAdjust="spacing" textLength="8" x="712.5938" y="120.917">1</text><text fill="#000000" font-family="sans-serif" font-size="13" lengthAdjust="spacing" textLength="8" x="361.675" y="193.5765">1</text></g><!--link Course to Edition--><g id="link_Course_Edition"><path codeLine="26" d="M728.06,121.0083 C662.19,121.0083 540,121.0083 540,121.0083 C540,121.0083 540,198.0883 540,198.0883 " fill="none" id="Course-to-Edition" style="stroke:#181818;stroke-width:1.0;"/><polygon fill="#181818" points="540,203.0883,544,194.0883,540,198.0883,536,194.0883,540,203.0883" style="stroke:#181818;stroke-width:1.0;"/><text fill="#000000" font-family="sans-serif" font-size="13" lengthAdjust="spacing" textLength="33" x="561.49" y="117.5766">has a</text><text fill="#000000" font-family="sans-serif" font-size="13" lengthAdjust="spacing" textLength="8" x="712.6168" y="137.187">1</text><text fill="#000000" font-family="sans-serif" font-size="13" lengthAdjust="spacing" textLength="8" x="530.675" y="193.4167">1</text></g><!--link Course to ExamsList--><g id="link_Course_ExamsList"><path codeLine="27" d="M809.6,121.0083 C870.13,121.0083 977,121.0083 977,121.0083 C977,121.0083 977,198.0883 977,198.0883 " fill="none" id="Course-to-ExamsList" style="stroke:#181818;stroke-width:1.0;"/><polygon fill="#181818" points="977,203.0883,981,194.0883,977,198.0883,973,194.0883,977,203.0883" style="stroke:#181818;stroke-width:1.0;"/><text fill="#000000" font-family="sans-serif" font-size="13" lengthAdjust="spacing" textLength="41" x="889.84" y="117.5766">has an</text><text fill="#000000" font-family="sans-serif" font-size="13" lengthAdjust="spacing" textLength="8" x="817.5444" y="137.4595">1</text><text fill="#000000" font-family="sans-serif" font-size="13" lengthAdjust="spacing" textLength="6" x="970.0063" y="193.4167">*</text></g><!--link Course to CourseEnrollmentsList--><g id="link_Course_CourseEnrollmentsList"><path codeLine="28" d="M809.85,107.0083 C907.04,107.0083 1144,107.0083 1144,107.0083 C1144,107.0083 1144,198.2083 1144,198.2083 " fill="none" id="Course-to-CourseEnrollmentsList" style="stroke:#181818;stroke-width:1.0;"/><polygon fill="#181818" points="1144,203.2083,1148,194.2083,1144,198.2083,1140,194.2083,1144,203.2083" style="stroke:#181818;stroke-width:1.0;"/><text fill="#000000" font-family="sans-serif" font-size="13" lengthAdjust="spacing" textLength="41" x="980.52" y="103.5766">has an</text><text fill="#000000" font-family="sans-serif" font-size="13" lengthAdjust="spacing" textLength="8" x="817.5586" y="103.3389">1</text><text fill="#000000" font-family="sans-serif" font-size="13" lengthAdjust="spacing" textLength="6" x="1137.0063" y="193.5765">*</text></g><!--link Teacher to Acronym--><g id="link_Teacher_Acronym"><path codeLine="40" d="M1498.67,249.0383 C1498.67,275.9583 1498.67,313.0083 1498.67,313.0083 C1498.67,313.0083 1386.21,313.0083 1386.21,313.0083 " fill="none" id="Teacher-to-Acronym" style="stroke:#181818;stroke-width:1.0;"/><polygon fill="#181818" points="1381.21,313.0083,1390.21,317.0083,1386.21,313.0083,1390.21,309.0083,1381.21,313.0083" style="stroke:#181818;stroke-width:1.0;"/><text fill="#000000" font-family="sans-serif" font-size="13" lengthAdjust="spacing" textLength="59" x="1414.42" y="309.5766">identifies</text><text fill="#000000" font-family="sans-serif" font-size="13" lengthAdjust="spacing" textLength="8" x="1481.8062" y="269.7185">1</text><text fill="#000000" font-family="sans-serif" font-size="13" lengthAdjust="spacing" textLength="8" x="1387.8783" y="306.508">1</text></g><!--link Teacher to ECourseUser--><g id="link_Teacher_ECourseUser"><path codeLine="41" d="M1507.83,249.2383 C1507.83,249.2383 1507.83,309.8083 1507.83,309.8083 " fill="none" id="Teacher-to-ECourseUser" style="stroke:#181818;stroke-width:1.0;"/><polygon fill="#181818" points="1507.83,314.8083,1511.83,305.8083,1507.83,309.8083,1503.83,305.8083,1507.83,314.8083" style="stroke:#181818;stroke-width:1.0;"/><text fill="#000000" font-family="sans-serif" font-size="13" lengthAdjust="spacing" textLength="22" x="1484.83" y="293.0966">is a</text><text fill="#000000" font-family="sans-serif" font-size="13" lengthAdjust="spacing" textLength="8" x="1493.4491" y="269.5238">1</text><text fill="#000000" font-family="sans-serif" font-size="13" lengthAdjust="spacing" textLength="8" x="1511.8883" y="305.4381">1</text></g><!--link Teacher to SystemUser--><g id="link_Teacher_SystemUser"><path codeLine="42" d="M1564.25,249.2383 C1564.25,249.2383 1564.25,309.8083 1564.25,309.8083 " fill="none" id="Teacher-to-SystemUser" style="stroke:#181818;stroke-width:1.0;"/><polygon fill="#181818" points="1564.25,314.8083,1568.25,305.8083,1564.25,309.8083,1560.25,305.8083,1564.25,314.8083" style="stroke:#181818;stroke-width:1.0;"/><text fill="#000000" font-family="sans-serif" font-size="13" lengthAdjust="spacing" textLength="22" x="1541.25" y="293.0966">is a</text><text fill="#000000" font-family="sans-serif" font-size="13" lengthAdjust="spacing" textLength="8" x="1562.2109" y="269.5238">1</text><text fill="#000000" font-family="sans-serif" font-size="13" lengthAdjust="spacing" textLength="8" x="1543.5797" y="305.4381">1</text></g><!--link Teacher to CourseList--><g id="link_Teacher_CourseList"><path codeLine="43" d="M1576.69,213.0083 C1666.18,213.0083 1862,213.0083 1862,213.0083 C1862,213.0083 1862,309.6083 1862,309.6083 " fill="none" id="Teacher-to-CourseList" style="stroke:#181818;stroke-width:1.0;"/><polygon fill="#181818" points="1862,314.6083,1866,305.6083,1862,309.6083,1858,305.6083,1862,314.6083" style="stroke:#181818;stroke-width:1.0;"/><text fill="#000000" font-family="sans-serif" font-size="13" lengthAdjust="spacing" textLength="41" x="1725.65" y="209.5766">has an</text><text fill="#000000" font-family="sans-serif" font-size="13" lengthAdjust="spacing" textLength="8" x="1584.5887" y="207.9346">1</text><text fill="#000000" font-family="sans-serif" font-size="13" lengthAdjust="spacing" textLength="6" x="1855.0438" y="305.1743">*</text></g><!--link Teacher to TimeTable--><g id="link_Teacher_TimeTable"><path codeLine="44" d="M1576.94,231.0083 C1635.28,231.0083 1731,231.0083 1731,231.0083 C1731,231.0083 1731,310.0083 1731,310.0083 " fill="none" id="Teacher-to-TimeTable" style="stroke:#181818;stroke-width:1.0;"/><polygon fill="#181818" points="1731,315.0083,1735,306.0083,1731,310.0083,1727,306.0083,1731,315.0083" style="stroke:#181818;stroke-width:1.0;"/><text fill="#000000" font-family="sans-serif" font-size="13" lengthAdjust="spacing" textLength="33" x="1659.47" y="227.5766">has a</text><text fill="#000000" font-family="sans-serif" font-size="13" lengthAdjust="spacing" textLength="8" x="1584.5804" y="228.9031">1</text><text fill="#000000" font-family="sans-serif" font-size="13" lengthAdjust="spacing" textLength="6" x="1724.0063" y="305.393">*</text></g><!--link Lecture to LectureId--><g id="link_Lecture_LectureId"><path codeLine="56" d="M2063.33,602.7183 C2063.33,629.5183 2063.33,666.0083 2063.33,666.0083 C2063.33,666.0083 2000.4,666.0083 2000.4,666.0083 " fill="none" id="Lecture-to-LectureId" style="stroke:#181818;stroke-width:1.0;"/><polygon fill="#181818" points="1995.4,666.0083,2004.4,670.0083,2000.4,666.0083,2004.4,662.0083,1995.4,666.0083" style="stroke:#181818;stroke-width:1.0;"/><text fill="#000000" font-family="sans-serif" font-size="13" lengthAdjust="spacing" textLength="59" x="2003.33" y="662.3966">identifies</text><text fill="#000000" font-family="sans-serif" font-size="13" lengthAdjust="spacing" textLength="8" x="2051.6856" y="622.6082">1</text><text fill="#000000" font-family="sans-serif" font-size="13" lengthAdjust="spacing" textLength="8" x="2002.0963" y="659.4683">1</text></g><!--link Lecture to LectureTitle--><g id="link_Lecture_LectureTitle"><path codeLine="57" d="M2090.67,602.4983 C2090.67,602.4983 2090.67,663.0683 2090.67,663.0683 " fill="none" id="Lecture-to-LectureTitle" style="stroke:#181818;stroke-width:1.0;"/><polygon fill="#181818" points="2090.67,668.0683,2094.67,659.0683,2090.67,663.0683,2086.67,659.0683,2090.67,668.0683" style="stroke:#181818;stroke-width:1.0;"/><text fill="#000000" font-family="sans-serif" font-size="13" lengthAdjust="spacing" textLength="33" x="2091.67" y="629.3566">has a</text><text fill="#000000" font-family="sans-serif" font-size="13" lengthAdjust="spacing" textLength="8" x="2084.7853" y="622.7838">1</text><text fill="#000000" font-family="sans-serif" font-size="13" lengthAdjust="spacing" textLength="8" x="2085.7523" y="658.6981">1</text></g><!--link Lecture to LectureType--><g id="link_Lecture_LectureType"><path codeLine="58" d="M2118.45,589.0083 C2156.83,589.0083 2208,589.0083 2208,589.0083 C2208,589.0083 2208,663.1783 2208,663.1783 " fill="none" id="Lecture-to-LectureType" style="stroke:#181818;stroke-width:1.0;"/><polygon fill="#181818" points="2208,668.1783,2212,659.1783,2208,663.1783,2204,659.1783,2208,668.1783" style="stroke:#181818;stroke-width:1.0;"/><text fill="#000000" font-family="sans-serif" font-size="13" lengthAdjust="spacing" textLength="33" x="2166.31" y="585.5766">has a</text><text fill="#000000" font-family="sans-serif" font-size="13" lengthAdjust="spacing" textLength="8" x="2125.9777" y="605.1853">1</text><text fill="#000000" font-family="sans-serif" font-size="13" lengthAdjust="spacing" textLength="8" x="2198.675" y="658.5332">1</text></g><!--link Lecture to LectureSchedule--><g id="link_Lecture_LectureSchedule"><path codeLine="59" d="M2118.47,575.0083 C2195.74,575.0083 2354,575.0083 2354,575.0083 C2354,575.0083 2354,663.1883 2354,663.1883 " fill="none" id="Lecture-to-LectureSchedule" style="stroke:#181818;stroke-width:1.0;"/><polygon fill="#181818" points="2354,668.1883,2358,659.1883,2354,663.1883,2350,659.1883,2354,668.1883" style="stroke:#181818;stroke-width:1.0;"/><text fill="#000000" font-family="sans-serif" font-size="13" lengthAdjust="spacing" textLength="33" x="2246.33" y="571.5766">has a</text><text fill="#000000" font-family="sans-serif" font-size="13" lengthAdjust="spacing" textLength="8" x="2126.001" y="571.3822">1</text><text fill="#000000" font-family="sans-serif" font-size="13" lengthAdjust="spacing" textLength="8" x="2344.675" y="658.5465">1</text></g><!--link Lecture to LectureCourse--><g id="link_Lecture_LectureCourse"><path codeLine="60" d="M2118.33,562.0083 C2226.2,562.0083 2508,562.0083 2508,562.0083 C2508,562.0083 2508,663.0383 2508,663.0383 " fill="none" id="Lecture-to-LectureCourse" style="stroke:#181818;stroke-width:1.0;"/><polygon fill="#181818" points="2508,668.0383,2512,659.0383,2508,663.0383,2504,659.0383,2508,668.0383" style="stroke:#181818;stroke-width:1.0;"/><text fill="#000000" font-family="sans-serif" font-size="13" lengthAdjust="spacing" textLength="33" x="2329.68" y="558.5766">has a</text><text fill="#000000" font-family="sans-serif" font-size="13" lengthAdjust="spacing" textLength="8" x="2126.1211" y="556.1028">1</text><text fill="#000000" font-family="sans-serif" font-size="13" lengthAdjust="spacing" textLength="8" x="2498.725" y="658.6585">1</text></g><!--link Schedule to ScheduleId--><g id="link_Schedule_ScheduleId"><path codeLine="71" d="M1663,487.8583 C1663,516.1783 1663,556.0083 1663,556.0083 C1663,556.0083 1455.36,556.0083 1455.36,556.0083 " fill="none" id="Schedule-to-ScheduleId" style="stroke:#181818;stroke-width:1.0;"/><polygon fill="#181818" points="1450.36,556.0083,1459.36,560.0083,1455.36,556.0083,1459.36,552.0083,1450.36,556.0083" style="stroke:#181818;stroke-width:1.0;"/><text fill="#000000" font-family="sans-serif" font-size="13" lengthAdjust="spacing" textLength="59" x="1533.26" y="552.5766">identifies</text><text fill="#000000" font-family="sans-serif" font-size="13" lengthAdjust="spacing" textLength="8" x="1649.0938" y="508.1678">1</text><text fill="#000000" font-family="sans-serif" font-size="13" lengthAdjust="spacing" textLength="8" x="1457.0504" y="549.7268">1</text></g><!--link Schedule to InitialDate--><g id="link_Schedule_InitialDate"><path codeLine="72" d="M1638.57,461.0083 C1605.03,461.0083 1566,461.0083 1566,461.0083 C1566,461.0083 1566,551.0883 1566,551.0883 " fill="none" id="Schedule-to-InitialDate" style="stroke:#181818;stroke-width:1.0;"/><polygon fill="#181818" points="1566,556.0883,1570,547.0883,1566,551.0883,1562,547.0883,1566,556.0883" style="stroke:#181818;stroke-width:1.0;"/><text fill="#000000" font-family="sans-serif" font-size="13" lengthAdjust="spacing" textLength="33" x="1532" y="466.3266">has a</text><text fill="#000000" font-family="sans-serif" font-size="13" lengthAdjust="spacing" textLength="8" x="1623.0162" y="457.6276">1</text><text fill="#000000" font-family="sans-serif" font-size="13" lengthAdjust="spacing" textLength="8" x="1567.1875" y="546.959">1</text></g><!--link Schedule to FinalDate--><g id="link_Schedule_FinalDate"><path codeLine="73" d="M1687,487.8983 C1687,487.8983 1687,551.3483 1687,551.3483 " fill="none" id="Schedule-to-FinalDate" style="stroke:#181818;stroke-width:1.0;"/><polygon fill="#181818" points="1687,556.3483,1691,547.3483,1687,551.3483,1683,547.3483,1687,556.3483" style="stroke:#181818;stroke-width:1.0;"/><text fill="#000000" font-family="sans-serif" font-size="13" lengthAdjust="spacing" textLength="33" x="1653" y="516.1866">has a</text><text fill="#000000" font-family="sans-serif" font-size="13" lengthAdjust="spacing" textLength="8" x="1678.3438" y="508.2166">1</text><text fill="#000000" font-family="sans-serif" font-size="13" lengthAdjust="spacing" textLength="8" x="1685.625" y="546.6767">1</text></g><!--link Schedule to Duration--><g id="link_Schedule_Duration"><path codeLine="74" d="M1718.33,487.9383 C1718.33,521.9383 1718.33,575.0083 1718.33,575.0083 C1718.33,575.0083 1739.65,575.0083 1739.65,575.0083 " fill="none" id="Schedule-to-Duration" style="stroke:#181818;stroke-width:1.0;"/><polygon fill="#181818" points="1744.65,575.0083,1735.65,571.0083,1739.65,575.0083,1735.65,579.0083,1744.65,575.0083" style="stroke:#181818;stroke-width:1.0;"/><text fill="#000000" font-family="sans-serif" font-size="13" lengthAdjust="spacing" textLength="33" x="1684.33" y="538.6966">has a</text><text fill="#000000" font-family="sans-serif" font-size="13" lengthAdjust="spacing" textLength="8" x="1716.5272" y="508.2653">1</text><text fill="#000000" font-family="sans-serif" font-size="13" lengthAdjust="spacing" textLength="8" x="1729.9611" y="571.5169">1</text></g><!--link Course to Teacher--><g id="link_Course_Teacher"><path codeLine="77" d="M805.67,134.5583 C805.67,162.0183 805.67,200.0083 805.67,200.0083 C805.67,200.0083 1483.14,200.0083 1483.14,200.0083 " fill="none" id="Course-to-Teacher" style="stroke:#181818;stroke-width:1.0;"/><polygon fill="#181818" points="1488.14,200.0083,1479.14,196.0083,1483.14,200.0083,1479.14,204.0083,1488.14,200.0083" style="stroke:#181818;stroke-width:1.0;"/><text fill="#000000" font-family="sans-serif" font-size="13" lengthAdjust="spacing" textLength="22" x="1088.68" y="196.5766">has</text><text fill="#000000" font-family="sans-serif" font-size="13" lengthAdjust="spacing" textLength="8" x="809.6916" y="154.8591">1</text><text fill="#000000" font-family="sans-serif" font-size="13" lengthAdjust="spacing" textLength="6" x="1475.3788" y="192.7815">*</text></g><!--link Course to Lecture--><g id="link_Course_Lecture"><path codeLine="78" d="M809.94,94.0083 C1031.5,94.0083 2077,94.0083 2077,94.0083 C2077,94.0083 2077,541.2983 2077,541.2983 " fill="none" id="Course-to-Lecture" style="stroke:#181818;stroke-width:1.0;"/><polygon fill="#181818" points="2077,546.2983,2081,537.2983,2077,541.2983,2073,537.2983,2077,546.2983" style="stroke:#181818;stroke-width:1.0;"/><text fill="#000000" font-family="sans-serif" font-size="13" lengthAdjust="spacing" textLength="22" x="1644.12" y="90.5766">has</text><text fill="#000000" font-family="sans-serif" font-size="13" lengthAdjust="spacing" textLength="8" x="817.3832" y="88.2307">1</text><text fill="#000000" font-family="sans-serif" font-size="13" lengthAdjust="spacing" textLength="6" x="2070.3063" y="536.791">*</text></g><!--link TimeTable to Schedule--><g id="link_TimeTable_Schedule"><path codeLine="79" d="M1708,350.9983 C1708,350.9983 1708,426.4183 1708,426.4183 " fill="none" id="TimeTable-to-Schedule" style="stroke:#181818;stroke-width:1.0;"/><polygon fill="#181818" points="1708,431.4183,1712,422.4183,1708,426.4183,1704,422.4183,1708,431.4183" style="stroke:#181818;stroke-width:1.0;"/><text fill="#000000" font-family="sans-serif" font-size="13" lengthAdjust="spacing" textLength="22" x="1685" y="385.2766">has</text><text fill="#000000" font-family="sans-serif" font-size="13" lengthAdjust="spacing" textLength="8" x="1691.7313" y="371.3101">1</text><text fill="#000000" font-family="sans-serif" font-size="13" lengthAdjust="spacing" textLength="22" x="1688.5438" y="421.8809">1..*</text></g><!--link Schedule to Lecture--><g id="link_Schedule_Lecture"><path codeLine="80" d="M1725.67,487.9883 C1725.67,515.3483 1725.67,553.0083 1725.67,553.0083 C1725.67,553.0083 2029.66,553.0083 2029.66,553.0083 " fill="none" id="Schedule-to-Lecture" style="stroke:#181818;stroke-width:1.0;"/><polygon fill="#181818" points="2034.66,553.0083,2025.66,549.0083,2029.66,553.0083,2025.66,557.0083,2034.66,553.0083" style="stroke:#181818;stroke-width:1.0;"/><text fill="#000000" font-family="sans-serif" font-size="13" lengthAdjust="spacing" textLength="113" x="1731.16" y="549.5766">is associated with</text><text fill="#000000" font-family="sans-serif" font-size="13" lengthAdjust="spacing" textLength="8" x="1725.0269" y="507.8823">1</text><text fill="#000000" font-family="sans-serif" font-size="13" lengthAdjust="spacing" textLength="8" x="2019.8672" y="545.5559">1</text></g><!--SRC=[bPLDRvmm48Rl_XKZZYibKgyHGegwMscbI9MoszmTc81Ri5UsIREAyjzhi0qi7uRcGjOyCvvtth4fM8Rmnh3CID7yMw4kHAO8qKoN27jHKSPXBzaxcWSgbdD2r1_6BrJI2ah6KLyl24AQE48affhot4H6SVoOvn9pgZ59uBkefS88FWa1yuVSvB-wrJX-5a8dIHmVskKaQHdn-jjaWsCMno-qh15-jWiDTyoQ16yZqcOxQRFZE6IA7RWKPLcPF6q0X28E6TDCS5ZFQZgKIdRPI9_R7WTt_g2LUc9Am_yeMeXeGvmHtoAukql0F0UbF4115T1vxfX1yFsq0REueJlOTduL6rdbU3ujmpoyLOkbHhkeRseWrIwQxseNyXMOzZFIj40v7dUt79xtnrGAVgss3lt1blbBDNcNH-HqLHghXWfEqfbLUAQlArDfjmmCcTVVJuTJzG3Cgc2e5iY18DDivasSWWD90SxxEFMx9wtVlNO_F26BdyoBMavkDBSSjjX1ssys5z0Uqf0ndcjkv0tSoUZFwd8JQxkuuBTlHczE9t7Y-29hRyFXmLr66u6Ro4xYF6qlZLk9MzptQSVs-_Mm_vxQFW17RgurMkvNFcq_6BTGqD5zBUdy5wgbEcs3ezOLFB5pXXuKUzFs6RGlU0NiQXwuC_e4xI9_f2tatiCGS4uxe3ln_KRtzuQw7HhI_RG3qoRi4pKtZr8YPKP51d-PBiW_]--></g></svg>