<?xml version="1.0" encoding="us-ascii" standalone="no"?><svg xmlns="http://www.w3.org/2000/svg" xmlns:xlink="http://www.w3.org/1999/xlink" contentStyleType="text/css" height="977px" preserveAspectRatio="none" style="width:1949px;height:977px;background:#FFFFFF;" version="1.1" viewBox="0 0 1949 977" width="1949px" zoomAndPan="magnify"><defs/><g><text fill="#000000" font-family="sans-serif" font-size="14" font-weight="bold" lengthAdjust="spacing" textLength="178" x="887" y="28.5352">Change Lecture Schedule</text><rect fill="#FFFFFF" height="727.832" style="stroke:#181818;stroke-width:1.0;" width="10" x="340.5" y="150.2871"/><rect fill="#FFFFFF" height="234.4844" style="stroke:#181818;stroke-width:1.0;" width="10" x="745.5" y="221.9082"/><rect fill="#FFFFFF" height="245.8633" style="stroke:#181818;stroke-width:1.0;" width="10" x="745.5" y="602.9453"/><rect fill="#FFFFFF" height="58.6211" style="stroke:#181818;stroke-width:1.0;" width="10" x="955" y="251.2188"/><rect fill="#FFFFFF" height="29.3105" style="stroke:#181818;stroke-width:1.0;" width="10" x="1107" y="280.5293"/><rect fill="#FFFFFF" height="29.3105" style="stroke:#181818;stroke-width:1.0;" width="10" x="1354.5" y="339.1504"/><rect fill="#FFFFFF" height="29.3105" style="stroke:#181818;stroke-width:1.0;" width="10" x="1442" y="397.7715"/><rect fill="#FFFFFF" height="14" style="stroke:#181818;stroke-width:1.0;" width="10" x="1533" y="690.877"/><rect fill="#FFFFFF" height="14" style="stroke:#181818;stroke-width:1.0;" width="10" x="1533" y="734.1875"/><rect fill="#FFFFFF" height="29.3105" style="stroke:#181818;stroke-width:1.0;" width="10" x="1613" y="632.2559"/><rect fill="#FFFFFF" height="14" style="stroke:#181818;stroke-width:1.0;" width="10" x="1727.5" y="777.498"/><rect fill="#FFFFFF" height="14" style="stroke:#181818;stroke-width:1.0;" width="10" x="1876.5" y="820.8086"/><line style="stroke:#181818;stroke-width:0.5;stroke-dasharray:5.0,5.0;" x1="35" x2="35" y1="118.9766" y2="896.1191"/><line style="stroke:#181818;stroke-width:0.5;stroke-dasharray:5.0,5.0;" x1="345" x2="345" y1="118.9766" y2="896.1191"/><line style="stroke:#181818;stroke-width:0.5;stroke-dasharray:5.0,5.0;" x1="750" x2="750" y1="118.9766" y2="896.1191"/><line style="stroke:#181818;stroke-width:0.5;stroke-dasharray:5.0,5.0;" x1="960" x2="960" y1="118.9766" y2="896.1191"/><line style="stroke:#181818;stroke-width:0.5;stroke-dasharray:5.0,5.0;" x1="1112" x2="1112" y1="118.9766" y2="896.1191"/><line style="stroke:#181818;stroke-width:0.5;stroke-dasharray:5.0,5.0;" x1="1253" x2="1253" y1="118.9766" y2="896.1191"/><line style="stroke:#181818;stroke-width:0.5;stroke-dasharray:5.0,5.0;" x1="1359" x2="1359" y1="118.9766" y2="896.1191"/><line style="stroke:#181818;stroke-width:0.5;stroke-dasharray:5.0,5.0;" x1="1447" x2="1447" y1="118.9766" y2="896.1191"/><line style="stroke:#181818;stroke-width:0.5;stroke-dasharray:5.0,5.0;" x1="1538" x2="1538" y1="118.9766" y2="896.1191"/><line style="stroke:#181818;stroke-width:0.5;stroke-dasharray:5.0,5.0;" x1="1618" x2="1618" y1="118.9766" y2="896.1191"/><line style="stroke:#181818;stroke-width:0.5;stroke-dasharray:5.0,5.0;" x1="1732" x2="1732" y1="118.9766" y2="896.1191"/><line style="stroke:#181818;stroke-width:0.5;stroke-dasharray:5.0,5.0;" x1="1881" x2="1881" y1="118.9766" y2="896.1191"/><text fill="#000000" font-family="sans-serif" font-size="14" lengthAdjust="spacing" textLength="55" x="5" y="116.0234">Teacher</text><ellipse cx="35.5" cy="50.9883" fill="#E2E2F0" rx="8" ry="8" style="stroke:#181818;stroke-width:0.5;"/><path d="M35.5,58.9883 L35.5,85.9883 M22.5,66.9883 L48.5,66.9883 M35.5,85.9883 L22.5,100.9883 M35.5,85.9883 L48.5,100.9883 " fill="none" style="stroke:#181818;stroke-width:0.5;"/><text fill="#000000" font-family="sans-serif" font-size="14" lengthAdjust="spacing" textLength="55" x="5" y="908.6543">Teacher</text><ellipse cx="35.5" cy="920.1074" fill="#E2E2F0" rx="8" ry="8" style="stroke:#181818;stroke-width:0.5;"/><path d="M35.5,928.1074 L35.5,955.1074 M22.5,936.1074 L48.5,936.1074 M35.5,955.1074 L22.5,970.1074 M35.5,955.1074 L48.5,970.1074 " fill="none" style="stroke:#181818;stroke-width:0.5;"/><rect fill="#E2E2F0" height="30.4883" rx="2.5" ry="2.5" style="stroke:#181818;stroke-width:0.5;" width="197" x="247" y="87.4883"/><text fill="#000000" font-family="sans-serif" font-size="14" lengthAdjust="spacing" textLength="183" x="254" y="108.0234">:ChangeLectureScheduleUI</text><rect fill="#E2E2F0" height="30.4883" rx="2.5" ry="2.5" style="stroke:#181818;stroke-width:0.5;" width="197" x="247" y="895.1191"/><text fill="#000000" font-family="sans-serif" font-size="14" lengthAdjust="spacing" textLength="183" x="254" y="915.6543">:ChangeLectureScheduleUI</text><rect fill="#E2E2F0" height="30.4883" rx="2.5" ry="2.5" style="stroke:#181818;stroke-width:0.5;" width="253" x="624" y="87.4883"/><text fill="#000000" font-family="sans-serif" font-size="14" lengthAdjust="spacing" textLength="239" x="631" y="108.0234">:ChangeLectureScheduleController</text><rect fill="#E2E2F0" height="30.4883" rx="2.5" ry="2.5" style="stroke:#181818;stroke-width:0.5;" width="253" x="624" y="895.1191"/><text fill="#000000" font-family="sans-serif" font-size="14" lengthAdjust="spacing" textLength="239" x="631" y="915.6543">:ChangeLectureScheduleController</text><rect fill="#E2E2F0" height="30.4883" rx="2.5" ry="2.5" style="stroke:#181818;stroke-width:0.5;" width="146" x="887" y="87.4883"/><text fill="#000000" font-family="sans-serif" font-size="14" lengthAdjust="spacing" textLength="132" x="894" y="108.0234">:ListLecturesService</text><rect fill="#E2E2F0" height="30.4883" rx="2.5" ry="2.5" style="stroke:#181818;stroke-width:0.5;" width="146" x="887" y="895.1191"/><text fill="#000000" font-family="sans-serif" font-size="14" lengthAdjust="spacing" textLength="132" x="894" y="915.6543">:ListLecturesService</text><text fill="#000000" font-family="sans-serif" font-size="14" lengthAdjust="spacing" textLength="132" x="1043" y="116.0234">:TeacherRepository</text><path d="M1094,66.4883 C1094,56.4883 1112,56.4883 1112,56.4883 C1112,56.4883 1130,56.4883 1130,66.4883 L1130,92.4883 C1130,102.4883 1112,102.4883 1112,102.4883 C1112,102.4883 1094,102.4883 1094,92.4883 L1094,66.4883 " fill="#E2E2F0" style="stroke:#181818;stroke-width:1.5;"/><path d="M1094,66.4883 C1094,76.4883 1112,76.4883 1112,76.4883 C1112,76.4883 1130,76.4883 1130,66.4883 " fill="none" style="stroke:#181818;stroke-width:1.5;"/><text fill="#000000" font-family="sans-serif" font-size="14" lengthAdjust="spacing" textLength="132" x="1043" y="908.6543">:TeacherRepository</text><path d="M1094,921.6074 C1094,911.6074 1112,911.6074 1112,911.6074 C1112,911.6074 1130,911.6074 1130,921.6074 L1130,947.6074 C1130,957.6074 1112,957.6074 1112,957.6074 C1112,957.6074 1094,957.6074 1094,947.6074 L1094,921.6074 " fill="#E2E2F0" style="stroke:#181818;stroke-width:1.5;"/><path d="M1094,921.6074 C1094,931.6074 1112,931.6074 1112,931.6074 C1112,931.6074 1130,931.6074 1130,921.6074 " fill="none" style="stroke:#181818;stroke-width:1.5;"/><rect fill="#E2E2F0" height="30.4883" rx="2.5" ry="2.5" style="stroke:#181818;stroke-width:0.5;" width="124" x="1191" y="87.4883"/><text fill="#000000" font-family="sans-serif" font-size="14" lengthAdjust="spacing" textLength="110" x="1198" y="108.0234">:selectedLecture</text><rect fill="#E2E2F0" height="30.4883" rx="2.5" ry="2.5" style="stroke:#181818;stroke-width:0.5;" width="124" x="1191" y="895.1191"/><text fill="#000000" font-family="sans-serif" font-size="14" lengthAdjust="spacing" textLength="110" x="1198" y="915.6543">:selectedLecture</text><rect fill="#E2E2F0" height="30.4883" rx="2.5" ry="2.5" style="stroke:#181818;stroke-width:0.5;" width="69" x="1325" y="87.4883"/><text fill="#000000" font-family="sans-serif" font-size="14" lengthAdjust="spacing" textLength="55" x="1332" y="108.0234">Teacher</text><rect fill="#E2E2F0" height="30.4883" rx="2.5" ry="2.5" style="stroke:#181818;stroke-width:0.5;" width="69" x="1325" y="895.1191"/><text fill="#000000" font-family="sans-serif" font-size="14" lengthAdjust="spacing" textLength="55" x="1332" y="915.6543">Teacher</text><rect fill="#E2E2F0" height="30.4883" rx="2.5" ry="2.5" style="stroke:#181818;stroke-width:0.5;" width="86" x="1404" y="87.4883"/><text fill="#000000" font-family="sans-serif" font-size="14" lengthAdjust="spacing" textLength="72" x="1411" y="108.0234">TimeTable</text><rect fill="#E2E2F0" height="30.4883" rx="2.5" ry="2.5" style="stroke:#181818;stroke-width:0.5;" width="86" x="1404" y="895.1191"/><text fill="#000000" font-family="sans-serif" font-size="14" lengthAdjust="spacing" textLength="72" x="1411" y="915.6543">TimeTable</text><rect fill="#E2E2F0" height="30.4883" rx="2.5" ry="2.5" style="stroke:#181818;stroke-width:0.5;" width="76" x="1500" y="87.4883"/><text fill="#000000" font-family="sans-serif" font-size="14" lengthAdjust="spacing" textLength="62" x="1507" y="108.0234">Schedule</text><rect fill="#E2E2F0" height="30.4883" rx="2.5" ry="2.5" style="stroke:#181818;stroke-width:0.5;" width="76" x="1500" y="895.1191"/><text fill="#000000" font-family="sans-serif" font-size="14" lengthAdjust="spacing" textLength="62" x="1507" y="915.6543">Schedule</text><rect fill="#E2E2F0" height="30.4883" rx="2.5" ry="2.5" style="stroke:#181818;stroke-width:0.5;" width="64" x="1586" y="87.4883"/><text fill="#000000" font-family="sans-serif" font-size="14" lengthAdjust="spacing" textLength="50" x="1593" y="108.0234">Lecture</text><rect fill="#E2E2F0" height="30.4883" rx="2.5" ry="2.5" style="stroke:#181818;stroke-width:0.5;" width="64" x="1586" y="895.1191"/><text fill="#000000" font-family="sans-serif" font-size="14" lengthAdjust="spacing" textLength="50" x="1593" y="915.6543">Lecture</text><text fill="#000000" font-family="sans-serif" font-size="14" lengthAdjust="spacing" textLength="139" x="1660" y="116.0234">:ScheduleRepository</text><path d="M1714.5,66.4883 C1714.5,56.4883 1732.5,56.4883 1732.5,56.4883 C1732.5,56.4883 1750.5,56.4883 1750.5,66.4883 L1750.5,92.4883 C1750.5,102.4883 1732.5,102.4883 1732.5,102.4883 C1732.5,102.4883 1714.5,102.4883 1714.5,92.4883 L1714.5,66.4883 " fill="#E2E2F0" style="stroke:#181818;stroke-width:1.5;"/><path d="M1714.5,66.4883 C1714.5,76.4883 1732.5,76.4883 1732.5,76.4883 C1732.5,76.4883 1750.5,76.4883 1750.5,66.4883 " fill="none" style="stroke:#181818;stroke-width:1.5;"/><text fill="#000000" font-family="sans-serif" font-size="14" lengthAdjust="spacing" textLength="139" x="1660" y="908.6543">:ScheduleRepository</text><path d="M1714.5,921.6074 C1714.5,911.6074 1732.5,911.6074 1732.5,911.6074 C1732.5,911.6074 1750.5,911.6074 1750.5,921.6074 L1750.5,947.6074 C1750.5,957.6074 1732.5,957.6074 1732.5,957.6074 C1732.5,957.6074 1714.5,957.6074 1714.5,947.6074 L1714.5,921.6074 " fill="#E2E2F0" style="stroke:#181818;stroke-width:1.5;"/><path d="M1714.5,921.6074 C1714.5,931.6074 1732.5,931.6074 1732.5,931.6074 C1732.5,931.6074 1750.5,931.6074 1750.5,921.6074 " fill="none" style="stroke:#181818;stroke-width:1.5;"/><text fill="#000000" font-family="sans-serif" font-size="14" lengthAdjust="spacing" textLength="127" x="1815" y="116.0234">:LectureRepository</text><path d="M1863.5,66.4883 C1863.5,56.4883 1881.5,56.4883 1881.5,56.4883 C1881.5,56.4883 1899.5,56.4883 1899.5,66.4883 L1899.5,92.4883 C1899.5,102.4883 1881.5,102.4883 1881.5,102.4883 C1881.5,102.4883 1863.5,102.4883 1863.5,92.4883 L1863.5,66.4883 " fill="#E2E2F0" style="stroke:#181818;stroke-width:1.5;"/><path d="M1863.5,66.4883 C1863.5,76.4883 1881.5,76.4883 1881.5,76.4883 C1881.5,76.4883 1899.5,76.4883 1899.5,66.4883 " fill="none" style="stroke:#181818;stroke-width:1.5;"/><text fill="#000000" font-family="sans-serif" font-size="14" lengthAdjust="spacing" textLength="127" x="1815" y="908.6543">:LectureRepository</text><path d="M1863.5,921.6074 C1863.5,911.6074 1881.5,911.6074 1881.5,911.6074 C1881.5,911.6074 1899.5,911.6074 1899.5,921.6074 L1899.5,947.6074 C1899.5,957.6074 1881.5,957.6074 1881.5,957.6074 C1881.5,957.6074 1863.5,957.6074 1863.5,947.6074 L1863.5,921.6074 " fill="#E2E2F0" style="stroke:#181818;stroke-width:1.5;"/><path d="M1863.5,921.6074 C1863.5,931.6074 1881.5,931.6074 1881.5,931.6074 C1881.5,931.6074 1899.5,931.6074 1899.5,921.6074 " fill="none" style="stroke:#181818;stroke-width:1.5;"/><rect fill="#FFFFFF" height="727.832" style="stroke:#181818;stroke-width:1.0;" width="10" x="340.5" y="150.2871"/><rect fill="#FFFFFF" height="234.4844" style="stroke:#181818;stroke-width:1.0;" width="10" x="745.5" y="221.9082"/><rect fill="#FFFFFF" height="245.8633" style="stroke:#181818;stroke-width:1.0;" width="10" x="745.5" y="602.9453"/><rect fill="#FFFFFF" height="58.6211" style="stroke:#181818;stroke-width:1.0;" width="10" x="955" y="251.2188"/><rect fill="#FFFFFF" height="29.3105" style="stroke:#181818;stroke-width:1.0;" width="10" x="1107" y="280.5293"/><rect fill="#FFFFFF" height="29.3105" style="stroke:#181818;stroke-width:1.0;" width="10" x="1354.5" y="339.1504"/><rect fill="#FFFFFF" height="29.3105" style="stroke:#181818;stroke-width:1.0;" width="10" x="1442" y="397.7715"/><rect fill="#FFFFFF" height="14" style="stroke:#181818;stroke-width:1.0;" width="10" x="1533" y="690.877"/><rect fill="#FFFFFF" height="14" style="stroke:#181818;stroke-width:1.0;" width="10" x="1533" y="734.1875"/><rect fill="#FFFFFF" height="29.3105" style="stroke:#181818;stroke-width:1.0;" width="10" x="1613" y="632.2559"/><rect fill="#FFFFFF" height="14" style="stroke:#181818;stroke-width:1.0;" width="10" x="1727.5" y="777.498"/><rect fill="#FFFFFF" height="14" style="stroke:#181818;stroke-width:1.0;" width="10" x="1876.5" y="820.8086"/><polygon fill="#181818" points="328.5,146.2871,338.5,150.2871,328.5,154.2871,332.5,150.2871" style="stroke:#181818;stroke-width:1.0;"/><line style="stroke:#181818;stroke-width:1.0;" x1="35.5" x2="334.5" y1="150.2871" y2="150.2871"/><text fill="#000000" font-family="sans-serif" font-size="13" lengthAdjust="spacing" textLength="41" x="42.5" y="145.5449">show()</text><line style="stroke:#181818;stroke-width:1.0;" x1="350.5" x2="392.5" y1="179.5977" y2="179.5977"/><line style="stroke:#181818;stroke-width:1.0;" x1="392.5" x2="392.5" y1="179.5977" y2="192.5977"/><line style="stroke:#181818;stroke-width:1.0;" x1="351.5" x2="392.5" y1="192.5977" y2="192.5977"/><polygon fill="#181818" points="361.5,188.5977,351.5,192.5977,361.5,196.5977,357.5,192.5977" style="stroke:#181818;stroke-width:1.0;"/><text fill="#000000" font-family="sans-serif" font-size="13" lengthAdjust="spacing" textLength="57" x="357.5" y="174.8555">doShow()</text><polygon fill="#181818" points="733.5,217.9082,743.5,221.9082,733.5,225.9082,737.5,221.9082" style="stroke:#181818;stroke-width:1.0;"/><line style="stroke:#181818;stroke-width:1.0;" x1="350.5" x2="739.5" y1="221.9082" y2="221.9082"/><text fill="#000000" font-family="sans-serif" font-size="13" lengthAdjust="spacing" textLength="71" x="357.5" y="217.166">myDetails()</text><polygon fill="#181818" points="943,247.2188,953,251.2188,943,255.2188,947,251.2188" style="stroke:#181818;stroke-width:1.0;"/><line style="stroke:#181818;stroke-width:1.0;" x1="755.5" x2="949" y1="251.2188" y2="251.2188"/><text fill="#000000" font-family="sans-serif" font-size="13" lengthAdjust="spacing" textLength="144" x="762.5" y="246.4766">myDetails(systemUser)</text><polygon fill="#181818" points="1095,276.5293,1105,280.5293,1095,284.5293,1099,280.5293" style="stroke:#181818;stroke-width:1.0;"/><line style="stroke:#181818;stroke-width:1.0;" x1="965" x2="1101" y1="280.5293" y2="280.5293"/><text fill="#000000" font-family="sans-serif" font-size="13" lengthAdjust="spacing" textLength="71" x="972" y="275.7871">myDetails()</text><polygon fill="#181818" points="766.5,305.8398,756.5,309.8398,766.5,313.8398,762.5,309.8398" style="stroke:#181818;stroke-width:1.0;"/><line style="stroke:#181818;stroke-width:1.0;stroke-dasharray:2.0,2.0;" x1="760.5" x2="1111" y1="309.8398" y2="309.8398"/><text fill="#000000" font-family="sans-serif" font-size="13" lengthAdjust="spacing" textLength="49" x="772.5" y="305.0977">Teacher</text><polygon fill="#181818" points="1342.5,335.1504,1352.5,339.1504,1342.5,343.1504,1346.5,339.1504" style="stroke:#181818;stroke-width:1.0;"/><line style="stroke:#181818;stroke-width:1.0;" x1="755.5" x2="1348.5" y1="339.1504" y2="339.1504"/><text fill="#000000" font-family="sans-serif" font-size="13" lengthAdjust="spacing" textLength="93" x="762.5" y="334.4082">getTimeTable()</text><polygon fill="#181818" points="766.5,364.4609,756.5,368.4609,766.5,372.4609,762.5,368.4609" style="stroke:#181818;stroke-width:1.0;"/><line style="stroke:#181818;stroke-width:1.0;stroke-dasharray:2.0,2.0;" x1="760.5" x2="1358.5" y1="368.4609" y2="368.4609"/><text fill="#000000" font-family="sans-serif" font-size="13" lengthAdjust="spacing" textLength="65" x="772.5" y="363.7188">TimeTable</text><polygon fill="#181818" points="1430,393.7715,1440,397.7715,1430,401.7715,1434,397.7715" style="stroke:#181818;stroke-width:1.0;"/><line style="stroke:#181818;stroke-width:1.0;" x1="755.5" x2="1436" y1="397.7715" y2="397.7715"/><text fill="#000000" font-family="sans-serif" font-size="13" lengthAdjust="spacing" textLength="144" x="762.5" y="393.0293">getLecturesSchedules()</text><polygon fill="#181818" points="766.5,423.082,756.5,427.082,766.5,431.082,762.5,427.082" style="stroke:#181818;stroke-width:1.0;"/><line style="stroke:#181818;stroke-width:1.0;stroke-dasharray:2.0,2.0;" x1="760.5" x2="1446" y1="427.082" y2="427.082"/><text fill="#000000" font-family="sans-serif" font-size="13" lengthAdjust="spacing" textLength="80" x="772.5" y="422.3398">Lectures List</text><polygon fill="#181818" points="361.5,452.3926,351.5,456.3926,361.5,460.3926,357.5,456.3926" style="stroke:#181818;stroke-width:1.0;"/><line style="stroke:#181818;stroke-width:1.0;stroke-dasharray:2.0,2.0;" x1="355.5" x2="749.5" y1="456.3926" y2="456.3926"/><text fill="#000000" font-family="sans-serif" font-size="13" lengthAdjust="spacing" textLength="80" x="367.5" y="451.6504">Lectures List</text><polygon fill="#181818" points="46.5,481.7031,36.5,485.7031,46.5,489.7031,42.5,485.7031" style="stroke:#181818;stroke-width:1.0;"/><line style="stroke:#181818;stroke-width:1.0;stroke-dasharray:2.0,2.0;" x1="40.5" x2="339.5" y1="485.7031" y2="485.7031"/><text fill="#000000" font-family="sans-serif" font-size="13" lengthAdjust="spacing" textLength="213" x="52.5" y="480.9609">asks the user to select the lecture</text><polygon fill="#181818" points="328.5,511.0137,338.5,515.0137,328.5,519.0137,332.5,515.0137" style="stroke:#181818;stroke-width:1.0;"/><line style="stroke:#181818;stroke-width:1.0;" x1="35.5" x2="334.5" y1="515.0137" y2="515.0137"/><text fill="#000000" font-family="sans-serif" font-size="13" lengthAdjust="spacing" textLength="91" x="42.5" y="510.2715">selects lecture</text><polygon fill="#181818" points="46.5,540.3242,36.5,544.3242,46.5,548.3242,42.5,544.3242" style="stroke:#181818;stroke-width:1.0;"/><line style="stroke:#181818;stroke-width:1.0;stroke-dasharray:2.0,2.0;" x1="40.5" x2="339.5" y1="544.3242" y2="544.3242"/><text fill="#000000" font-family="sans-serif" font-size="13" lengthAdjust="spacing" textLength="281" x="52.5" y="539.582">asks the user to enter new date and duration</text><polygon fill="#181818" points="328.5,569.6348,338.5,573.6348,328.5,577.6348,332.5,573.6348" style="stroke:#181818;stroke-width:1.0;"/><line style="stroke:#181818;stroke-width:1.0;" x1="35.5" x2="334.5" y1="573.6348" y2="573.6348"/><text fill="#000000" font-family="sans-serif" font-size="13" lengthAdjust="spacing" textLength="94" x="42.5" y="568.8926">enters the data</text><polygon fill="#181818" points="733.5,598.9453,743.5,602.9453,733.5,606.9453,737.5,602.9453" style="stroke:#181818;stroke-width:1.0;"/><line style="stroke:#181818;stroke-width:1.0;" x1="350.5" x2="739.5" y1="602.9453" y2="602.9453"/><text fill="#000000" font-family="sans-serif" font-size="13" lengthAdjust="spacing" textLength="376" x="357.5" y="598.2031">changeSchedule(selectedClass, newDateTime, newDuration)</text><polygon fill="#181818" points="1601,628.2559,1611,632.2559,1601,636.2559,1605,632.2559" style="stroke:#181818;stroke-width:1.0;"/><line style="stroke:#181818;stroke-width:1.0;" x1="755.5" x2="1607" y1="632.2559" y2="632.2559"/><text fill="#000000" font-family="sans-serif" font-size="13" lengthAdjust="spacing" textLength="84" x="762.5" y="627.5137">getSchedule()</text><polygon fill="#181818" points="766.5,657.5664,756.5,661.5664,766.5,665.5664,762.5,661.5664" style="stroke:#181818;stroke-width:1.0;"/><line style="stroke:#181818;stroke-width:1.0;stroke-dasharray:2.0,2.0;" x1="760.5" x2="1617" y1="661.5664" y2="661.5664"/><text fill="#000000" font-family="sans-serif" font-size="13" lengthAdjust="spacing" textLength="56" x="772.5" y="656.8242">Schedule</text><polygon fill="#181818" points="1521,686.877,1531,690.877,1521,694.877,1525,690.877" style="stroke:#181818;stroke-width:1.0;"/><line style="stroke:#181818;stroke-width:1.0;" x1="755.5" x2="1527" y1="690.877" y2="690.877"/><text fill="#000000" font-family="sans-serif" font-size="13" lengthAdjust="spacing" textLength="203" x="762.5" y="686.1348">changeInitialDate(newDateTime)</text><polygon fill="#181818" points="766.5,700.877,756.5,704.877,766.5,708.877,762.5,704.877" style="stroke:#181818;stroke-width:1.0;"/><line style="stroke:#181818;stroke-width:1.0;stroke-dasharray:2.0,2.0;" x1="760.5" x2="1537" y1="704.877" y2="704.877"/><polygon fill="#181818" points="1521,730.1875,1531,734.1875,1521,738.1875,1525,734.1875" style="stroke:#181818;stroke-width:1.0;"/><line style="stroke:#181818;stroke-width:1.0;" x1="755.5" x2="1527" y1="734.1875" y2="734.1875"/><text fill="#000000" font-family="sans-serif" font-size="13" lengthAdjust="spacing" textLength="188" x="762.5" y="729.4453">changeDuration(newDuration)</text><polygon fill="#181818" points="766.5,744.1875,756.5,748.1875,766.5,752.1875,762.5,748.1875" style="stroke:#181818;stroke-width:1.0;"/><line style="stroke:#181818;stroke-width:1.0;stroke-dasharray:2.0,2.0;" x1="760.5" x2="1537" y1="748.1875" y2="748.1875"/><polygon fill="#181818" points="1715.5,773.498,1725.5,777.498,1715.5,781.498,1719.5,777.498" style="stroke:#181818;stroke-width:1.0;"/><line style="stroke:#181818;stroke-width:1.0;" x1="755.5" x2="1721.5" y1="777.498" y2="777.498"/><text fill="#000000" font-family="sans-serif" font-size="13" lengthAdjust="spacing" textLength="144" x="762.5" y="772.7559">save(selectedSchedule)</text><polygon fill="#181818" points="766.5,787.498,756.5,791.498,766.5,795.498,762.5,791.498" style="stroke:#181818;stroke-width:1.0;"/><line style="stroke:#181818;stroke-width:1.0;stroke-dasharray:2.0,2.0;" x1="760.5" x2="1731.5" y1="791.498" y2="791.498"/><polygon fill="#181818" points="1864.5,816.8086,1874.5,820.8086,1864.5,824.8086,1868.5,820.8086" style="stroke:#181818;stroke-width:1.0;"/><line style="stroke:#181818;stroke-width:1.0;" x1="755.5" x2="1870.5" y1="820.8086" y2="820.8086"/><text fill="#000000" font-family="sans-serif" font-size="13" lengthAdjust="spacing" textLength="134" x="762.5" y="816.0664">save(selectedLecture)</text><polygon fill="#181818" points="766.5,830.8086,756.5,834.8086,766.5,838.8086,762.5,834.8086" style="stroke:#181818;stroke-width:1.0;"/><line style="stroke:#181818;stroke-width:1.0;stroke-dasharray:2.0,2.0;" x1="760.5" x2="1880.5" y1="834.8086" y2="834.8086"/><polygon fill="#181818" points="361.5,844.8086,351.5,848.8086,361.5,852.8086,357.5,848.8086" style="stroke:#181818;stroke-width:1.0;"/><line style="stroke:#181818;stroke-width:1.0;stroke-dasharray:2.0,2.0;" x1="355.5" x2="749.5" y1="848.8086" y2="848.8086"/><polygon fill="#181818" points="46.5,874.1191,36.5,878.1191,46.5,882.1191,42.5,878.1191" style="stroke:#181818;stroke-width:1.0;"/><line style="stroke:#181818;stroke-width:1.0;stroke-dasharray:2.0,2.0;" x1="40.5" x2="344.5" y1="878.1191" y2="878.1191"/><text fill="#000000" font-family="sans-serif" font-size="13" lengthAdjust="spacing" textLength="167" x="52.5" y="873.377">informs operation success</text><!--SRC=[dPJFRjim3CRlVWgXfmpONY27NT9BWPwMzW5OcMk4ALOWqYdozgF-cawJOjZDfZx-I7-ap8uzcjq1fdSqpsXvZcZsze3Zx74Om7A8vWL18j40cPdYS8B8pheJJ6mUjYMtfhRCrwU7h7R_8jw5YMFm7cDEidnTujaHrnpQOpmxYrb9PpkCmF06X2AhRVx2Ko0dVL-ow1EDq0iBnqei9ByILT8wvexu0c_YYevsgtImadLlJNVLdBYfH3NlIkFZC8ZjviTFyTDi3Ht2n-PR6eqx0sCoMUBjT0pxSbvYOgO4ZvT7P72UT5xoEHsBIenSgUX2ZCTNmgZqoUqa5Frzg30JibTkJewe9UejKMiNRSssvXsvswtfZTQKgawVZc8tUUKlebAYhrITpUf35k2IjPHhgIQjvgfaJxFLXpoLk_eqX3If9AH41leZEtkGiOhxXeCfwvf3lkxLQXloCIrdNy9mOdcOyCECgJfCendd2Ep2jA9cNKbD-xbQ9fllS3DjqwxJpWFHzyH-57JoeRnK_Et5Qt-SF8-ELDfsbPfm6K6_UShDfgxq9kbDFqsE7VZKu4OrgkfrQi-j5NMPBhfNfttqvhO1_rKa3vJWl3ZU5FgEne7YBHfro_qdJdLDOUINuszYV5Hx_UKUk-btY4SouOJb-mtDrYAHpXB6Nm00]--></g></svg>