<?xml version="1.0" encoding="UTF-8" standalone="no"?><svg xmlns="http://www.w3.org/2000/svg" xmlns:xlink="http://www.w3.org/1999/xlink" contentStyleType="text/css" height="957px" preserveAspectRatio="none" style="width:1255px;height:957px;background:#FFFFFF;" version="1.1" viewBox="0 0 1255 957" width="1255px" zoomAndPan="magnify"><defs/><g><!--MD5=[bc6b40dadbf86ab6a0c8405a467a48af]
cluster Persistence--><g id="cluster_Persistence"><path d="M8.5,524 L93.5,524 A3.75,3.75 0 0 1 96,526.5 L103,545.6406 L1245.5,545.6406 A2.5,2.5 0 0 1 1248,548.1406 L1248,947.5 A2.5,2.5 0 0 1 1245.5,950 L8.5,950 A2.5,2.5 0 0 1 6,947.5 L6,526.5 A2.5,2.5 0 0 1 8.5,524 " fill="none" style="stroke:#000000;stroke-width:1.5;"/><line style="stroke:#000000;stroke-width:1.5;" x1="6" x2="103" y1="545.6406" y2="545.6406"/><text fill="#000000" font-family="sans-serif" font-size="14" font-weight="bold" lengthAdjust="spacing" textLength="84" x="10" y="538.6738">Persistence</text></g><!--MD5=[9dd75fd92da113d30380b27734fd2f01]
cluster Service--><g id="cluster_Service"><path d="M539.5,330 L594.5,330 A3.75,3.75 0 0 1 597,332.5 L604,351.6406 L1203.5,351.6406 A2.5,2.5 0 0 1 1206,354.1406 L1206,488.5 A2.5,2.5 0 0 1 1203.5,491 L539.5,491 A2.5,2.5 0 0 1 537,488.5 L537,332.5 A2.5,2.5 0 0 1 539.5,330 " fill="none" style="stroke:#000000;stroke-width:1.5;"/><line style="stroke:#000000;stroke-width:1.5;" x1="537" x2="604" y1="351.6406" y2="351.6406"/><text fill="#000000" font-family="sans-serif" font-size="14" font-weight="bold" lengthAdjust="spacing" textLength="54" x="541" y="344.6738">Service</text></g><!--MD5=[d64883541e3d62e3241c4d12decf100d]
cluster Application--><g id="cluster_Application"><path d="M615.5,168 L694.5,168 A3.75,3.75 0 0 1 697,170.5 L704,189.6406 L878.5,189.6406 A2.5,2.5 0 0 1 881,192.1406 L881,279.5 A2.5,2.5 0 0 1 878.5,282 L615.5,282 A2.5,2.5 0 0 1 613,279.5 L613,170.5 A2.5,2.5 0 0 1 615.5,168 " fill="none" style="stroke:#000000;stroke-width:1.5;"/><line style="stroke:#000000;stroke-width:1.5;" x1="613" x2="704" y1="189.6406" y2="189.6406"/><text fill="#000000" font-family="sans-serif" font-size="14" font-weight="bold" lengthAdjust="spacing" textLength="78" x="617" y="182.6738">Application</text></g><!--MD5=[8fd473fd151a2794da4f2c8684676405]
cluster Presentation--><g id="cluster_Presentation"><path d="M660.5,6 L751.5,6 A3.75,3.75 0 0 1 754,8.5 L761,27.6406 L833.5,27.6406 A2.5,2.5 0 0 1 836,30.1406 L836,117.5 A2.5,2.5 0 0 1 833.5,120 L660.5,120 A2.5,2.5 0 0 1 658,117.5 L658,8.5 A2.5,2.5 0 0 1 660.5,6 " fill="none" style="stroke:#000000;stroke-width:1.5;"/><line style="stroke:#000000;stroke-width:1.5;" x1="658" x2="761" y1="27.6406" y2="27.6406"/><text fill="#000000" font-family="sans-serif" font-size="14" font-weight="bold" lengthAdjust="spacing" textLength="90" x="662" y="20.6738">Presentation</text></g><!--MD5=[e8c189551b7885b999ad7cefb30fc2a3]
class PersistenceContext--><g id="elem_PersistenceContext"><rect codeLine="2" fill="#F1F1F1" height="63.6406" id="PersistenceContext" rx="2.5" ry="2.5" style="stroke:#181818;stroke-width:0.5;" width="234" x="504" y="558"/><ellipse cx="555.75" cy="574" fill="#ADD1B2" rx="11" ry="11" style="stroke:#181818;stroke-width:1.0;"/><path d="M557.75,570.5 Q557.9531,570 558.1875,569.75 Q558.4219,569.5 558.6875,569.5 Q559.1563,569.5 559.4531,569.7813 Q559.75,570.0625 559.75,570.7188 L559.75,572.2813 Q559.75,572.9375 559.4688,573.2188 Q559.1875,573.5 558.75,573.5 Q558.3594,573.5 558.1094,573.3281 Q557.8594,573.1563 557.75,572.7031 Q557.7031,572.3906 557.5313,572.2188 Q557.2188,571.8906 556.6563,571.7031 Q556.0938,571.5 555.5313,571.5 Q554.8281,571.5 554.2344,571.7813 Q553.6563,572.0625 553.2031,572.6875 Q552.75,573.3125 552.75,574.1719 L552.75,575.0938 Q552.75,576.125 553.5938,576.8125 Q554.4375,577.5 555.9375,577.5 Q556.8281,577.5 557.4531,577.2969 Q557.8125,577.1875 558.2188,576.8281 Q558.4844,576.625 558.625,576.5625 Q558.7656,576.5 558.9375,576.5 Q559.2656,576.5 559.5,576.7656 Q559.75,577.0156 559.75,577.375 Q559.75,577.7188 559.4063,578.125 Q558.9063,578.7188 558.1094,579.0469 Q557.0625,579.5 555.7813,579.5 Q554.2813,579.5 553.0781,578.9063 Q552.1094,578.4375 551.4219,577.4219 Q550.75,576.4063 550.75,575.2031 L550.75,574.1094 Q550.75,572.8594 551.3438,571.7656 Q551.9531,570.6719 553,570.0938 Q554.0625,569.5 555.25,569.5 Q555.9688,569.5 556.5938,569.75 Q557.2188,570 557.75,570.5 Z " fill="#000000"/><text fill="#000000" font-family="sans-serif" font-size="14" lengthAdjust="spacing" textLength="122" x="576.25" y="578.8535">PersistenceContext</text><line style="stroke:#181818;stroke-width:0.5;" x1="505" x2="737" y1="590" y2="590"/><line style="stroke:#181818;stroke-width:0.5;" x1="505" x2="737" y1="598" y2="598"/><ellipse cx="515" cy="611.3203" fill="#84BE84" rx="3" ry="3" style="stroke:#038048;stroke-width:1.0;"/><text fill="#000000" font-family="sans-serif" font-size="14" lengthAdjust="spacing" textLength="208" x="524" y="614.6738">repositories(): RepositoryFactory</text></g><!--MD5=[48590afff58a68e2fcba47824d6f8a11]
class RepositoryFactory--><g id="elem_RepositoryFactory"><rect codeLine="5" fill="#F1F1F1" height="94.9219" id="RepositoryFactory" rx="2.5" ry="2.5" style="stroke:#181818;stroke-width:0.5;" width="276" x="483" y="683"/><ellipse cx="558.75" cy="699" fill="#ADD1B2" rx="11" ry="11" style="stroke:#181818;stroke-width:1.0;"/><path d="M560.75,695.5 Q560.9531,695 561.1875,694.75 Q561.4219,694.5 561.6875,694.5 Q562.1563,694.5 562.4531,694.7813 Q562.75,695.0625 562.75,695.7188 L562.75,697.2813 Q562.75,697.9375 562.4688,698.2188 Q562.1875,698.5 561.75,698.5 Q561.3594,698.5 561.1094,698.3281 Q560.8594,698.1563 560.75,697.7031 Q560.7031,697.3906 560.5313,697.2188 Q560.2188,696.8906 559.6563,696.7031 Q559.0938,696.5 558.5313,696.5 Q557.8281,696.5 557.2344,696.7813 Q556.6563,697.0625 556.2031,697.6875 Q555.75,698.3125 555.75,699.1719 L555.75,700.0938 Q555.75,701.125 556.5938,701.8125 Q557.4375,702.5 558.9375,702.5 Q559.8281,702.5 560.4531,702.2969 Q560.8125,702.1875 561.2188,701.8281 Q561.4844,701.625 561.625,701.5625 Q561.7656,701.5 561.9375,701.5 Q562.2656,701.5 562.5,701.7656 Q562.75,702.0156 562.75,702.375 Q562.75,702.7188 562.4063,703.125 Q561.9063,703.7188 561.1094,704.0469 Q560.0625,704.5 558.7813,704.5 Q557.2813,704.5 556.0781,703.9063 Q555.1094,703.4375 554.4219,702.4219 Q553.75,701.4063 553.75,700.2031 L553.75,699.1094 Q553.75,697.8594 554.3438,696.7656 Q554.9531,695.6719 556,695.0938 Q557.0625,694.5 558.25,694.5 Q558.9688,694.5 559.5938,694.75 Q560.2188,695 560.75,695.5 Z " fill="#000000"/><text fill="#000000" font-family="sans-serif" font-size="14" lengthAdjust="spacing" textLength="116" x="579.25" y="703.8535">RepositoryFactory</text><line style="stroke:#181818;stroke-width:0.5;" x1="484" x2="758" y1="715" y2="715"/><line style="stroke:#181818;stroke-width:0.5;" x1="484" x2="758" y1="723" y2="723"/><ellipse cx="494" cy="736.3203" fill="#84BE84" rx="3" ry="3" style="stroke:#038048;stroke-width:1.0;"/><text fill="#000000" font-family="sans-serif" font-size="14" lengthAdjust="spacing" textLength="243" x="503" y="739.6738">courseRepository(): CourseRepository</text><ellipse cx="494" cy="751.9609" fill="#84BE84" rx="3" ry="3" style="stroke:#038048;stroke-width:1.0;"/><text fill="#000000" font-family="sans-serif" font-size="14" lengthAdjust="spacing" textLength="248" x="503" y="755.3145">studentRepository(): studentRepository</text><ellipse cx="494" cy="767.6016" fill="#84BE84" rx="3" ry="3" style="stroke:#038048;stroke-width:1.0;"/><text fill="#000000" font-family="sans-serif" font-size="14" lengthAdjust="spacing" textLength="250" x="503" y="770.9551">teacherRepository(): teacherRepository</text></g><!--MD5=[e357f1fd68df466d60efd00f0c47fbc0]
class CourseRepository--><g id="elem_CourseRepository"><rect codeLine="10" fill="#F1F1F1" height="94.9219" id="CourseRepository" rx="2.5" ry="2.5" style="stroke:#181818;stroke-width:0.5;" width="374" x="22" y="839"/><ellipse cx="147.75" cy="855" fill="#ADD1B2" rx="11" ry="11" style="stroke:#181818;stroke-width:1.0;"/><path d="M149.75,851.5 Q149.9531,851 150.1875,850.75 Q150.4219,850.5 150.6875,850.5 Q151.1563,850.5 151.4531,850.7813 Q151.75,851.0625 151.75,851.7188 L151.75,853.2813 Q151.75,853.9375 151.4688,854.2188 Q151.1875,854.5 150.75,854.5 Q150.3594,854.5 150.1094,854.3281 Q149.8594,854.1563 149.75,853.7031 Q149.7031,853.3906 149.5313,853.2188 Q149.2188,852.8906 148.6563,852.7031 Q148.0938,852.5 147.5313,852.5 Q146.8281,852.5 146.2344,852.7813 Q145.6563,853.0625 145.2031,853.6875 Q144.75,854.3125 144.75,855.1719 L144.75,856.0938 Q144.75,857.125 145.5938,857.8125 Q146.4375,858.5 147.9375,858.5 Q148.8281,858.5 149.4531,858.2969 Q149.8125,858.1875 150.2188,857.8281 Q150.4844,857.625 150.625,857.5625 Q150.7656,857.5 150.9375,857.5 Q151.2656,857.5 151.5,857.7656 Q151.75,858.0156 151.75,858.375 Q151.75,858.7188 151.4063,859.125 Q150.9063,859.7188 150.1094,860.0469 Q149.0625,860.5 147.7813,860.5 Q146.2813,860.5 145.0781,859.9063 Q144.1094,859.4375 143.4219,858.4219 Q142.75,857.4063 142.75,856.2031 L142.75,855.1094 Q142.75,853.8594 143.3438,852.7656 Q143.9531,851.6719 145,851.0938 Q146.0625,850.5 147.25,850.5 Q147.9688,850.5 148.5938,850.75 Q149.2188,851 149.75,851.5 Z " fill="#000000"/><text fill="#000000" font-family="sans-serif" font-size="14" lengthAdjust="spacing" textLength="114" x="168.25" y="859.8535">CourseRepository</text><line style="stroke:#181818;stroke-width:0.5;" x1="23" x2="395" y1="871" y2="871"/><line style="stroke:#181818;stroke-width:0.5;" x1="23" x2="395" y1="879" y2="879"/><ellipse cx="33" cy="892.3203" fill="#84BE84" rx="3" ry="3" style="stroke:#038048;stroke-width:1.0;"/><text fill="#000000" font-family="sans-serif" font-size="14" lengthAdjust="spacing" textLength="348" x="42" y="895.6738">coursesByTeacher(email: EmailAddress): List&lt;Course&gt;</text><ellipse cx="33" cy="907.9609" fill="#84BE84" rx="3" ry="3" style="stroke:#038048;stroke-width:1.0;"/><text fill="#000000" font-family="sans-serif" font-size="14" lengthAdjust="spacing" textLength="344" x="42" y="911.3145">coursesByStudent(email: EmailAddress): List&lt;Course&gt;</text><ellipse cx="33" cy="923.6016" fill="#84BE84" rx="3" ry="3" style="stroke:#038048;stroke-width:1.0;"/><text fill="#000000" font-family="sans-serif" font-size="14" lengthAdjust="spacing" textLength="172" x="42" y="926.9551">listCourses(): List&lt;Course&gt;</text></g><!--MD5=[fa3e5eb5fedffd174e4201d687b4ebcf]
class StudentRepository--><g id="elem_StudentRepository"><rect codeLine="16" fill="#F1F1F1" height="63.6406" id="StudentRepository" rx="2.5" ry="2.5" style="stroke:#181818;stroke-width:0.5;" width="380" x="431" y="854.5"/><ellipse cx="558.25" cy="870.5" fill="#ADD1B2" rx="11" ry="11" style="stroke:#181818;stroke-width:1.0;"/><path d="M560.25,867 Q560.4531,866.5 560.6875,866.25 Q560.9219,866 561.1875,866 Q561.6563,866 561.9531,866.2813 Q562.25,866.5625 562.25,867.2188 L562.25,868.7813 Q562.25,869.4375 561.9688,869.7188 Q561.6875,870 561.25,870 Q560.8594,870 560.6094,869.8281 Q560.3594,869.6563 560.25,869.2031 Q560.2031,868.8906 560.0313,868.7188 Q559.7188,868.3906 559.1563,868.2031 Q558.5938,868 558.0313,868 Q557.3281,868 556.7344,868.2813 Q556.1563,868.5625 555.7031,869.1875 Q555.25,869.8125 555.25,870.6719 L555.25,871.5938 Q555.25,872.625 556.0938,873.3125 Q556.9375,874 558.4375,874 Q559.3281,874 559.9531,873.7969 Q560.3125,873.6875 560.7188,873.3281 Q560.9844,873.125 561.125,873.0625 Q561.2656,873 561.4375,873 Q561.7656,873 562,873.2656 Q562.25,873.5156 562.25,873.875 Q562.25,874.2188 561.9063,874.625 Q561.4063,875.2188 560.6094,875.5469 Q559.5625,876 558.2813,876 Q556.7813,876 555.5781,875.4063 Q554.6094,874.9375 553.9219,873.9219 Q553.25,872.9063 553.25,871.7031 L553.25,870.6094 Q553.25,869.3594 553.8438,868.2656 Q554.4531,867.1719 555.5,866.5938 Q556.5625,866 557.75,866 Q558.4688,866 559.0938,866.25 Q559.7188,866.5 560.25,867 Z " fill="#000000"/><text fill="#000000" font-family="sans-serif" font-size="14" lengthAdjust="spacing" textLength="117" x="578.75" y="875.3535">StudentRepository</text><line style="stroke:#181818;stroke-width:0.5;" x1="432" x2="810" y1="886.5" y2="886.5"/><line style="stroke:#181818;stroke-width:0.5;" x1="432" x2="810" y1="894.5" y2="894.5"/><ellipse cx="442" cy="907.8203" fill="#84BE84" rx="3" ry="3" style="stroke:#038048;stroke-width:1.0;"/><text fill="#000000" font-family="sans-serif" font-size="14" lengthAdjust="spacing" textLength="354" x="451" y="911.1738">studentByEmail(email: EmailAddress): Iterable&lt;Student&gt;</text></g><!--MD5=[713d3355b50d800759ae0fcd65e0b94d]
class TeacherRepository--><g id="elem_TeacherRepository"><rect codeLine="19" fill="#F1F1F1" height="63.6406" id="TeacherRepository" rx="2.5" ry="2.5" style="stroke:#181818;stroke-width:0.5;" width="385" x="846.5" y="854.5"/><ellipse cx="974.25" cy="870.5" fill="#ADD1B2" rx="11" ry="11" style="stroke:#181818;stroke-width:1.0;"/><path d="M976.25,867 Q976.4531,866.5 976.6875,866.25 Q976.9219,866 977.1875,866 Q977.6563,866 977.9531,866.2813 Q978.25,866.5625 978.25,867.2188 L978.25,868.7813 Q978.25,869.4375 977.9688,869.7188 Q977.6875,870 977.25,870 Q976.8594,870 976.6094,869.8281 Q976.3594,869.6563 976.25,869.2031 Q976.2031,868.8906 976.0313,868.7188 Q975.7188,868.3906 975.1563,868.2031 Q974.5938,868 974.0313,868 Q973.3281,868 972.7344,868.2813 Q972.1563,868.5625 971.7031,869.1875 Q971.25,869.8125 971.25,870.6719 L971.25,871.5938 Q971.25,872.625 972.0938,873.3125 Q972.9375,874 974.4375,874 Q975.3281,874 975.9531,873.7969 Q976.3125,873.6875 976.7188,873.3281 Q976.9844,873.125 977.125,873.0625 Q977.2656,873 977.4375,873 Q977.7656,873 978,873.2656 Q978.25,873.5156 978.25,873.875 Q978.25,874.2188 977.9063,874.625 Q977.4063,875.2188 976.6094,875.5469 Q975.5625,876 974.2813,876 Q972.7813,876 971.5781,875.4063 Q970.6094,874.9375 969.9219,873.9219 Q969.25,872.9063 969.25,871.7031 L969.25,870.6094 Q969.25,869.3594 969.8438,868.2656 Q970.4531,867.1719 971.5,866.5938 Q972.5625,866 973.75,866 Q974.4688,866 975.0938,866.25 Q975.7188,866.5 976.25,867 Z " fill="#000000"/><text fill="#000000" font-family="sans-serif" font-size="14" lengthAdjust="spacing" textLength="121" x="994.75" y="875.3535">TeacherRepository</text><line style="stroke:#181818;stroke-width:0.5;" x1="847.5" x2="1230.5" y1="886.5" y2="886.5"/><line style="stroke:#181818;stroke-width:0.5;" x1="847.5" x2="1230.5" y1="894.5" y2="894.5"/><ellipse cx="857.5" cy="907.8203" fill="#84BE84" rx="3" ry="3" style="stroke:#038048;stroke-width:1.0;"/><text fill="#000000" font-family="sans-serif" font-size="14" lengthAdjust="spacing" textLength="359" x="866.5" y="911.1738">teacherByEmail(email: EmailAddress): Iterable&lt;Teacher&gt;</text></g><!--MD5=[a119aa640d4807ca3829e999773a2ac0]
class ListUserCoursesService--><g id="elem_ListUserCoursesService"><rect codeLine="26" fill="#F1F1F1" height="110.5625" id="ListUserCoursesService" rx="2.5" ry="2.5" style="stroke:#181818;stroke-width:0.5;" width="387" x="553.5" y="364"/><ellipse cx="667.25" cy="380" fill="#ADD1B2" rx="11" ry="11" style="stroke:#181818;stroke-width:1.0;"/><path d="M669.25,376.5 Q669.4531,376 669.6875,375.75 Q669.9219,375.5 670.1875,375.5 Q670.6563,375.5 670.9531,375.7813 Q671.25,376.0625 671.25,376.7188 L671.25,378.2813 Q671.25,378.9375 670.9688,379.2188 Q670.6875,379.5 670.25,379.5 Q669.8594,379.5 669.6094,379.3281 Q669.3594,379.1563 669.25,378.7031 Q669.2031,378.3906 669.0313,378.2188 Q668.7188,377.8906 668.1563,377.7031 Q667.5938,377.5 667.0313,377.5 Q666.3281,377.5 665.7344,377.7813 Q665.1563,378.0625 664.7031,378.6875 Q664.25,379.3125 664.25,380.1719 L664.25,381.0938 Q664.25,382.125 665.0938,382.8125 Q665.9375,383.5 667.4375,383.5 Q668.3281,383.5 668.9531,383.2969 Q669.3125,383.1875 669.7188,382.8281 Q669.9844,382.625 670.125,382.5625 Q670.2656,382.5 670.4375,382.5 Q670.7656,382.5 671,382.7656 Q671.25,383.0156 671.25,383.375 Q671.25,383.7188 670.9063,384.125 Q670.4063,384.7188 669.6094,385.0469 Q668.5625,385.5 667.2813,385.5 Q665.7813,385.5 664.5781,384.9063 Q663.6094,384.4375 662.9219,383.4219 Q662.25,382.4063 662.25,381.2031 L662.25,380.1094 Q662.25,378.8594 662.8438,377.7656 Q663.4531,376.6719 664.5,376.0938 Q665.5625,375.5 666.75,375.5 Q667.4688,375.5 668.0938,375.75 Q668.7188,376 669.25,376.5 Z " fill="#000000"/><text fill="#000000" font-family="sans-serif" font-size="14" lengthAdjust="spacing" textLength="151" x="687.75" y="384.8535">ListUserCoursesService</text><line style="stroke:#181818;stroke-width:0.5;" x1="554.5" x2="939.5" y1="396" y2="396"/><line style="stroke:#181818;stroke-width:0.5;" x1="554.5" x2="939.5" y1="404" y2="404"/><ellipse cx="564.5" cy="417.3203" fill="#84BE84" rx="3" ry="3" style="stroke:#038048;stroke-width:1.0;"/><text fill="#000000" font-family="sans-serif" font-size="14" lengthAdjust="spacing" textLength="361" x="573.5" y="420.6738">listCourseByTeacher(email: EmailAddress): List&lt;Course&gt;</text><ellipse cx="564.5" cy="432.9609" fill="#84BE84" rx="3" ry="3" style="stroke:#038048;stroke-width:1.0;"/><text fill="#000000" font-family="sans-serif" font-size="14" lengthAdjust="spacing" textLength="344" x="573.5" y="436.3145">listCourseEnrolled(email: EmailAddress): List&lt;Course&gt;</text><ellipse cx="564.5" cy="448.6016" fill="#84BE84" rx="3" ry="3" style="stroke:#038048;stroke-width:1.0;"/><text fill="#000000" font-family="sans-serif" font-size="14" lengthAdjust="spacing" textLength="222" x="573.5" y="451.9551">listCourseAvailable(): List&lt;Course&gt;</text><ellipse cx="564.5" cy="464.2422" fill="#84BE84" rx="3" ry="3" style="stroke:#038048;stroke-width:1.0;"/><text fill="#000000" font-family="sans-serif" font-size="14" lengthAdjust="spacing" textLength="299" x="573.5" y="467.5957">listCourses(email: EmailAddress): List&lt;Course&gt;</text></g><!--MD5=[b07be2b600772d055921457a51a4b081]
class AuthenticationService--><g id="elem_AuthenticationService"><rect codeLine="32" fill="#F1F1F1" height="63.6406" id="AuthenticationService" rx="2.5" ry="2.5" style="stroke:#181818;stroke-width:0.5;" width="214" x="976" y="387.5"/><ellipse cx="1011.25" cy="403.5" fill="#ADD1B2" rx="11" ry="11" style="stroke:#181818;stroke-width:1.0;"/><path d="M1013.25,400 Q1013.4531,399.5 1013.6875,399.25 Q1013.9219,399 1014.1875,399 Q1014.6563,399 1014.9531,399.2813 Q1015.25,399.5625 1015.25,400.2188 L1015.25,401.7813 Q1015.25,402.4375 1014.9688,402.7188 Q1014.6875,403 1014.25,403 Q1013.8594,403 1013.6094,402.8281 Q1013.3594,402.6563 1013.25,402.2031 Q1013.2031,401.8906 1013.0313,401.7188 Q1012.7188,401.3906 1012.1563,401.2031 Q1011.5938,401 1011.0313,401 Q1010.3281,401 1009.7344,401.2813 Q1009.1563,401.5625 1008.7031,402.1875 Q1008.25,402.8125 1008.25,403.6719 L1008.25,404.5938 Q1008.25,405.625 1009.0938,406.3125 Q1009.9375,407 1011.4375,407 Q1012.3281,407 1012.9531,406.7969 Q1013.3125,406.6875 1013.7188,406.3281 Q1013.9844,406.125 1014.125,406.0625 Q1014.2656,406 1014.4375,406 Q1014.7656,406 1015,406.2656 Q1015.25,406.5156 1015.25,406.875 Q1015.25,407.2188 1014.9063,407.625 Q1014.4063,408.2188 1013.6094,408.5469 Q1012.5625,409 1011.2813,409 Q1009.7813,409 1008.5781,408.4063 Q1007.6094,407.9375 1006.9219,406.9219 Q1006.25,405.9063 1006.25,404.7031 L1006.25,403.6094 Q1006.25,402.3594 1006.8438,401.2656 Q1007.4531,400.1719 1008.5,399.5938 Q1009.5625,399 1010.75,399 Q1011.4688,399 1012.0938,399.25 Q1012.7188,399.5 1013.25,400 Z " fill="#000000"/><text fill="#000000" font-family="sans-serif" font-size="14" lengthAdjust="spacing" textLength="137" x="1029.75" y="408.3535">AuthenticationService</text><line style="stroke:#181818;stroke-width:0.5;" x1="977" x2="1189" y1="419.5" y2="419.5"/><line style="stroke:#181818;stroke-width:0.5;" x1="977" x2="1189" y1="427.5" y2="427.5"/><ellipse cx="987" cy="440.8203" fill="#84BE84" rx="3" ry="3" style="stroke:#038048;stroke-width:1.0;"/><text fill="#000000" font-family="sans-serif" font-size="14" lengthAdjust="spacing" textLength="188" x="996" y="444.1738">getSystemUser(): SystemUser</text></g><!--MD5=[c12f982c0549b3dad16b1ceefe3fad49]
class ListCoursesController--><g id="elem_ListCoursesController"><rect codeLine="38" fill="#F1F1F1" height="63.6406" id="ListCoursesController" rx="2.5" ry="2.5" style="stroke:#181818;stroke-width:0.5;" width="236" x="629" y="202"/><ellipse cx="674.25" cy="218" fill="#ADD1B2" rx="11" ry="11" style="stroke:#181818;stroke-width:1.0;"/><path d="M676.25,214.5 Q676.4531,214 676.6875,213.75 Q676.9219,213.5 677.1875,213.5 Q677.6563,213.5 677.9531,213.7813 Q678.25,214.0625 678.25,214.7188 L678.25,216.2813 Q678.25,216.9375 677.9688,217.2188 Q677.6875,217.5 677.25,217.5 Q676.8594,217.5 676.6094,217.3281 Q676.3594,217.1563 676.25,216.7031 Q676.2031,216.3906 676.0313,216.2188 Q675.7188,215.8906 675.1563,215.7031 Q674.5938,215.5 674.0313,215.5 Q673.3281,215.5 672.7344,215.7813 Q672.1563,216.0625 671.7031,216.6875 Q671.25,217.3125 671.25,218.1719 L671.25,219.0938 Q671.25,220.125 672.0938,220.8125 Q672.9375,221.5 674.4375,221.5 Q675.3281,221.5 675.9531,221.2969 Q676.3125,221.1875 676.7188,220.8281 Q676.9844,220.625 677.125,220.5625 Q677.2656,220.5 677.4375,220.5 Q677.7656,220.5 678,220.7656 Q678.25,221.0156 678.25,221.375 Q678.25,221.7188 677.9063,222.125 Q677.4063,222.7188 676.6094,223.0469 Q675.5625,223.5 674.2813,223.5 Q672.7813,223.5 671.5781,222.9063 Q670.6094,222.4375 669.9219,221.4219 Q669.25,220.4063 669.25,219.2031 L669.25,218.1094 Q669.25,216.8594 669.8438,215.7656 Q670.4531,214.6719 671.5,214.0938 Q672.5625,213.5 673.75,213.5 Q674.4688,213.5 675.0938,213.75 Q675.7188,214 676.25,214.5 Z " fill="#000000"/><text fill="#000000" font-family="sans-serif" font-size="14" lengthAdjust="spacing" textLength="137" x="694.75" y="222.8535">ListCoursesController</text><line style="stroke:#181818;stroke-width:0.5;" x1="630" x2="864" y1="234" y2="234"/><line style="stroke:#181818;stroke-width:0.5;" x1="630" x2="864" y1="242" y2="242"/><ellipse cx="640" cy="255.3203" fill="#84BE84" rx="3" ry="3" style="stroke:#038048;stroke-width:1.0;"/><text fill="#000000" font-family="sans-serif" font-size="14" lengthAdjust="spacing" textLength="210" x="649" y="258.6738">listCourseByUser(): List&lt;Course&gt;</text></g><!--MD5=[e2a32e70ee4dea522d2c0e0358246209]
class ListCoursesUI--><g id="elem_ListCoursesUI"><rect codeLine="43" fill="#F1F1F1" height="63.6406" id="ListCoursesUI" rx="2.5" ry="2.5" style="stroke:#181818;stroke-width:0.5;" width="145" x="674.5" y="40"/><ellipse cx="701.2" cy="56" fill="#ADD1B2" rx="11" ry="11" style="stroke:#181818;stroke-width:1.0;"/><path d="M703.2,52.5 Q703.4031,52 703.6375,51.75 Q703.8719,51.5 704.1375,51.5 Q704.6063,51.5 704.9031,51.7813 Q705.2,52.0625 705.2,52.7188 L705.2,54.2813 Q705.2,54.9375 704.9188,55.2188 Q704.6375,55.5 704.2,55.5 Q703.8094,55.5 703.5594,55.3281 Q703.3094,55.1563 703.2,54.7031 Q703.1531,54.3906 702.9813,54.2188 Q702.6688,53.8906 702.1063,53.7031 Q701.5438,53.5 700.9813,53.5 Q700.2781,53.5 699.6844,53.7813 Q699.1063,54.0625 698.6531,54.6875 Q698.2,55.3125 698.2,56.1719 L698.2,57.0938 Q698.2,58.125 699.0438,58.8125 Q699.8875,59.5 701.3875,59.5 Q702.2781,59.5 702.9031,59.2969 Q703.2625,59.1875 703.6688,58.8281 Q703.9344,58.625 704.075,58.5625 Q704.2156,58.5 704.3875,58.5 Q704.7156,58.5 704.95,58.7656 Q705.2,59.0156 705.2,59.375 Q705.2,59.7188 704.8563,60.125 Q704.3563,60.7188 703.5594,61.0469 Q702.5125,61.5 701.2313,61.5 Q699.7313,61.5 698.5281,60.9063 Q697.5594,60.4375 696.8719,59.4219 Q696.2,58.4063 696.2,57.2031 L696.2,56.1094 Q696.2,54.8594 696.7938,53.7656 Q697.4031,52.6719 698.45,52.0938 Q699.5125,51.5 700.7,51.5 Q701.4188,51.5 702.0438,51.75 Q702.6688,52 703.2,52.5 Z " fill="#000000"/><text fill="#000000" font-family="sans-serif" font-size="14" lengthAdjust="spacing" textLength="87" x="717.8" y="60.8535">ListCoursesUI</text><line style="stroke:#181818;stroke-width:0.5;" x1="675.5" x2="818.5" y1="72" y2="72"/><line style="stroke:#181818;stroke-width:0.5;" x1="675.5" x2="818.5" y1="80" y2="80"/><ellipse cx="685.5" cy="93.3203" fill="#84BE84" rx="3" ry="3" style="stroke:#038048;stroke-width:1.0;"/><text fill="#000000" font-family="sans-serif" font-size="14" lengthAdjust="spacing" textLength="119" x="694.5" y="96.6738">doShow(): boolean</text></g><!--MD5=[00d375f75e62bf4c98920aa05ca544f7]
link ListCoursesUI to ListCoursesController--><g id="link_ListCoursesUI_ListCoursesController"><path codeLine="49" d="M747,104.23 C747,130.77 747,168.89 747,196.77 " fill="none" id="ListCoursesUI-to-ListCoursesController" style="stroke:#181818;stroke-width:1.0;"/><polygon fill="#181818" points="747,201.85,751,192.85,747,196.85,743,192.85,747,201.85" style="stroke:#181818;stroke-width:1.0;"/><text fill="#000000" font-family="sans-serif" font-size="13" lengthAdjust="spacing" textLength="75" x="748" y="148.7686">the controller</text></g><!--MD5=[c07313b278d4135019fb0015adbbe178]
link ListCoursesController to ListUserCoursesService--><g id="link_ListCoursesController_ListUserCoursesService"><path codeLine="50" d="M747,266.13 C747,291.36 747,327.65 747,358.49 " fill="none" id="ListCoursesController-to-ListUserCoursesService" style="stroke:#181818;stroke-width:1.0;"/><polygon fill="#181818" points="747,363.79,751,354.79,747,358.79,743,354.79,747,363.79" style="stroke:#181818;stroke-width:1.0;"/><text fill="#000000" font-family="sans-serif" font-size="13" lengthAdjust="spacing" textLength="40" x="748" y="310.7686">service</text></g><!--MD5=[996f7c290a04f07fc8315497e61b9fda]
link ListUserCoursesService to PersistenceContext--><g id="link_ListUserCoursesService_PersistenceContext"><path codeLine="51" d="M706.09,475.21 C686.88,500.9 664.53,530.79 647.56,553.48 " fill="none" id="ListUserCoursesService-to-PersistenceContext" style="stroke:#181818;stroke-width:1.0;"/><polygon fill="#181818" points="644.45,557.64,653.05,552.84,647.45,553.64,646.65,548.04,644.45,557.64" style="stroke:#181818;stroke-width:1.0;"/></g><!--MD5=[754b775031405e096442b27febffa290]
link PersistenceContext to RepositoryFactory--><g id="link_PersistenceContext_RepositoryFactory"><path codeLine="52" d="M621,622.08 C621,638.48 621,659.04 621,677.77 " fill="none" id="PersistenceContext-to-RepositoryFactory" style="stroke:#181818;stroke-width:1.0;"/><polygon fill="#181818" points="621,683,625,674,621,678,617,674,621,683" style="stroke:#181818;stroke-width:1.0;"/></g><!--MD5=[0795949389f741c11f20948df9d921bb]
link RepositoryFactory to CourseRepository--><g id="link_RepositoryFactory_CourseRepository"><path codeLine="53" d="M496.55,778.02 C446.52,796.72 388.84,818.28 338.33,837.16 " fill="none" id="RepositoryFactory-to-CourseRepository" style="stroke:#181818;stroke-width:1.0;"/><polygon fill="#181818" points="333.47,838.98,343.3005,839.5817,338.1546,837.2322,340.504,832.0864,333.47,838.98" style="stroke:#181818;stroke-width:1.0;"/></g><!--MD5=[02f2aec9ae17e782bb5cf9c0b03879cb]
link RepositoryFactory to StudentRepository--><g id="link_RepositoryFactory_StudentRepository"><path codeLine="54" d="M621,778.12 C621,800.81 621,827.69 621,848.88 " fill="none" id="RepositoryFactory-to-StudentRepository" style="stroke:#181818;stroke-width:1.0;"/><polygon fill="#181818" points="621,854.14,625,845.14,621,849.14,617,845.14,621,854.14" style="stroke:#181818;stroke-width:1.0;"/></g><!--MD5=[deda73ed466edca82d22ddaade62a594]
link RepositoryFactory to TeacherRepository--><g id="link_RepositoryFactory_TeacherRepository"><path codeLine="55" d="M747.26,778.02 C812.6,802.09 890.8,830.9 949.79,852.63 " fill="none" id="RepositoryFactory-to-TeacherRepository" style="stroke:#181818;stroke-width:1.0;"/><polygon fill="#181818" points="954.72,854.45,947.6606,847.5823,950.029,852.7195,944.8918,855.0879,954.72,854.45" style="stroke:#181818;stroke-width:1.0;"/></g><!--MD5=[088110cad247784e9c25352f7532180a]
link ListCoursesController to PersistenceContext--><g id="link_ListCoursesController_PersistenceContext"><path codeLine="56" d="M628.94,257.26 C593.38,270.08 558.21,290.25 537,322 C493.3,387.41 508.15,425.81 537,499 C545.31,520.08 561.14,539.14 576.84,554.23 " fill="none" id="ListCoursesController-to-PersistenceContext" style="stroke:#181818;stroke-width:1.0;"/><polygon fill="#181818" points="580.83,557.98,577.0177,548.8989,577.189,554.5532,571.5347,554.7245,580.83,557.98" style="stroke:#181818;stroke-width:1.0;"/></g><!--MD5=[c06b2782232703433aafc7e0ff436a18]
link ListCoursesController to AuthenticationService--><g id="link_ListCoursesController_AuthenticationService"><path codeLine="57" d="M837.01,266.03 C875.4,280.79 920.01,300.03 958,322 C988.62,339.71 1020.13,364.08 1043.86,383.9 " fill="none" id="ListCoursesController-to-AuthenticationService" style="stroke:#181818;stroke-width:1.0;"/><polygon fill="#181818" points="1047.89,387.29,1043.5691,378.4396,1044.0606,384.075,1038.4252,384.5666,1047.89,387.29" style="stroke:#181818;stroke-width:1.0;"/></g><!--MD5=[91779817f4f9f8468269f656c61e017e]
@startuml
package "Persistence"{
class PersistenceContext {
    + repositories(): RepositoryFactory
}
class RepositoryFactory {
     + courseRepository(): CourseRepository
     + studentRepository(): studentRepository
     + teacherRepository(): teacherRepository
}
class CourseRepository {
    + coursesByTeacher(email: EmailAddress): List<Course>
    + coursesByStudent(email: EmailAddress): List<Course>
    + listCourses(): List<Course>
}

class StudentRepository {
    + studentByEmail(email: EmailAddress): Iterable<Student>
}
class TeacherRepository{
 + teacherByEmail(email: EmailAddress): Iterable<Teacher>
}
}


package "Service"{
class ListUserCoursesService {
    + listCourseByTeacher(email: EmailAddress): List<Course>
    + listCourseEnrolled(email: EmailAddress): List<Course>
    + listCourseAvailable(): List<Course>
    + listCourses(email: EmailAddress): List<Course>
}
class AuthenticationService{
 + getSystemUser(): SystemUser
}
}

package "Application" {
class ListCoursesController {
    + listCourseByUser(): List<Course>
}
}
package "Presentation"  {
class ListCoursesUI {
    +doShow(): boolean
}
}


ListCoursesUI - -> ListCoursesController : the controller
ListCoursesController - -> ListUserCoursesService :service
ListUserCoursesService - -> PersistenceContext
PersistenceContext - -> RepositoryFactory
RepositoryFactory - -> CourseRepository
RepositoryFactory - -> StudentRepository
RepositoryFactory - -> TeacherRepository
ListCoursesController - -> PersistenceContext
ListCoursesController - -> AuthenticationService






@enduml

PlantUML version 1.2022.12(Sun Oct 23 19:12:26 WEST 2022)
(GPL source distribution)
Java Runtime: OpenJDK Runtime Environment
JVM: OpenJDK 64-Bit Server VM
Default Encoding: Cp1252
Language: pt
Country: PT
--></g></svg>