<?xml version="1.0" encoding="UTF-8" standalone="no"?><svg xmlns="http://www.w3.org/2000/svg" xmlns:xlink="http://www.w3.org/1999/xlink" contentStyleType="text/css" height="463px" preserveAspectRatio="none" style="width:1631px;height:463px;background:#FFFFFF;" version="1.1" viewBox="0 0 1631 463" width="1631px" zoomAndPan="magnify"><defs/><g><!--MD5=[deb3c567b76d5af232f48dd7a6f0234b]
cluster <<Aggregate>> Course--><g id="cluster_&lt;&lt;Aggregate&gt;&gt; Course"><rect fill="#87CEFA" height="315" rx="2.5" ry="2.5" style="stroke:#181818;stroke-width:1.0;" width="880" x="315" y="7"/><text fill="#000000" font-family="sans-serif" font-size="14" font-weight="bold" lengthAdjust="spacing" textLength="160" x="675" y="21.6738">&lt;&lt;Aggregate&gt;&gt; Course</text></g><!--MD5=[365bb2d02e6d505c6ef6f7faee131378]
cluster <<Aggregate>> Personal Information--><g id="cluster_&lt;&lt;Aggregate&gt;&gt; Personal Information"><rect fill="#BBAABB" height="440.5" rx="2.5" ry="2.5" style="stroke:#181818;stroke-width:1.0;" width="284" x="7" y="16.5"/><text fill="#000000" font-family="sans-serif" font-size="14" font-weight="bold" lengthAdjust="spacing" textLength="255" x="21.5" y="31.1738">&lt;&lt;Aggregate&gt;&gt; Personal Information</text></g><!--MD5=[3aaef798d2653a4ecdb246548fe95bec]
cluster <<Aggregate>> Teacher--><g id="cluster_&lt;&lt;Aggregate&gt;&gt; Teacher"><rect fill="#8A2BE2" height="268" rx="2.5" ry="2.5" style="stroke:#181818;stroke-width:1.0;" width="182" x="1219" y="189"/><text fill="#000000" font-family="sans-serif" font-size="14" font-weight="bold" lengthAdjust="spacing" textLength="166" x="1227" y="203.6738">&lt;&lt;Aggregate&gt;&gt; Teacher</text></g><!--MD5=[b645c19d3073beb2fc9f71ee976e8626]
cluster <<Aggregate>> Student--><g id="cluster_&lt;&lt;Aggregate&gt;&gt; Student"><rect fill="#FF69B4" height="268" rx="2.5" ry="2.5" style="stroke:#181818;stroke-width:1.0;" width="200" x="1425" y="189"/><text fill="#000000" font-family="sans-serif" font-size="14" font-weight="bold" lengthAdjust="spacing" textLength="164" x="1443" y="203.6738">&lt;&lt;Aggregate&gt;&gt; Student</text></g><!--MD5=[4066b0363c5a91ff3b6e03e0428953a9]
class Course--><g id="elem_Course"><rect codeLine="5" fill="#F1F1F1" height="68.4531" id="Course" rx="2.5" ry="2.5" style="stroke:#181818;stroke-width:0.5;" width="78" x="796" y="59"/><ellipse cx="811" cy="85.2266" fill="#ADD1B2" rx="11" ry="11" style="stroke:#181818;stroke-width:1.0;"/><path d="M809.5,86.2266 L809.5,88.2266 L813.5,88.2266 L813.5,87.2266 L813.5,86.7422 L814.125,86.2266 L814.5,86.2266 L814.875,86.2266 L815.5,86.7422 L815.5,87.2266 L815.5,90.2266 L807.5,90.2266 L807.0156,90.2266 L806.5,89.6016 L806.5,89.2266 L806.5,88.8516 L807.0156,88.2266 L807.5,88.2266 L807.5,88.2266 L807.5,82.2266 L807.5,82.2266 L807.0156,82.2266 L806.5,81.6016 L806.5,81.2266 L806.5,80.8516 L807.0156,80.2266 L807.5,80.2266 L815.5,80.2266 L815.5,83.2266 L815.5,83.7109 L814.875,84.2266 L814.5,84.2266 L814.125,84.2266 L813.5,83.7109 L813.5,83.2266 L813.5,82.2266 L809.5,82.2266 L809.5,84.2266 L810.5,84.2266 L810.5,83.7422 L810.5,83.7422 L811.125,83.2266 L811.5,83.2266 L811.875,83.2266 L812.5,83.7422 L812.5,84.2266 L812.5,86.2266 L812.5,86.7109 L811.875,87.2266 L811.875,87.2266 L811.5,87.2266 L811.125,87.2266 L810.5,86.7109 L810.5,86.7109 L810.5,86.2266 L809.5,86.2266 Z " fill="#000000"/><text fill="#000000" font-family="sans-serif" font-size="12" font-style="italic" lengthAdjust="spacing" textLength="40" x="828" y="74.8633">«Root»</text><text fill="#000000" font-family="sans-serif" font-size="12" font-style="italic" lengthAdjust="spacing" textLength="44" x="826" y="88.2695">«Entity»</text><text fill="#000000" font-family="sans-serif" font-size="14" lengthAdjust="spacing" textLength="46" x="825" y="103.4863">Course</text><line style="stroke:#181818;stroke-width:0.5;" x1="797" x2="873" y1="111.4531" y2="111.4531"/><line style="stroke:#181818;stroke-width:0.5;" x1="797" x2="873" y1="119.4531" y2="119.4531"/></g><g id="elem_Id"><rect fill="#F1F1F1" height="62.4531" style="stroke:#181818;stroke-width:0.5;" width="95" x="331.5" y="244"/><text fill="#000000" font-family="sans-serif" font-size="12" font-style="italic" lengthAdjust="spacing" textLength="85" x="336.5" y="254.8633">«Value Object»</text><text fill="#000000" font-family="sans-serif" font-size="12" font-style="italic" lengthAdjust="spacing" textLength="54" x="352" y="268.2695">«Identify»</text><text fill="#000000" font-family="sans-serif" font-size="14" lengthAdjust="spacing" textLength="11" x="373.5" y="285.4863">Id</text><line style="stroke:#181818;stroke-width:0.5;" x1="332.5" x2="425.5" y1="290.4531" y2="290.4531"/></g><g id="elem_CourseState"><rect fill="#F1F1F1" height="49.0469" style="stroke:#181818;stroke-width:0.5;" width="95" x="461.5" y="250.5"/><text fill="#000000" font-family="sans-serif" font-size="12" font-style="italic" lengthAdjust="spacing" textLength="85" x="466.5" y="261.3633">«Value Object»</text><text fill="#000000" font-family="sans-serif" font-size="14" lengthAdjust="spacing" textLength="79" x="469.5" y="278.5801">CourseState</text><line style="stroke:#181818;stroke-width:0.5;" x1="462.5" x2="555.5" y1="283.5469" y2="283.5469"/></g><g id="elem_CourseEnrollmentState"><rect fill="#F1F1F1" height="49.0469" style="stroke:#181818;stroke-width:0.5;" width="160" x="592" y="250.5"/><text fill="#000000" font-family="sans-serif" font-size="12" font-style="italic" lengthAdjust="spacing" textLength="85" x="629.5" y="261.3633">«Value Object»</text><text fill="#000000" font-family="sans-serif" font-size="14" lengthAdjust="spacing" textLength="146" x="599" y="278.5801">CourseEnrollmentState</text><line style="stroke:#181818;stroke-width:0.5;" x1="593" x2="751" y1="283.5469" y2="283.5469"/></g><g id="elem_Edition"><rect fill="#F1F1F1" height="49.0469" style="stroke:#181818;stroke-width:0.5;" width="95" x="787.5" y="250.5"/><text fill="#000000" font-family="sans-serif" font-size="12" font-style="italic" lengthAdjust="spacing" textLength="85" x="792.5" y="261.3633">«Value Object»</text><text fill="#000000" font-family="sans-serif" font-size="14" lengthAdjust="spacing" textLength="43" x="813.5" y="278.5801">Edition</text><line style="stroke:#181818;stroke-width:0.5;" x1="788.5" x2="881.5" y1="283.5469" y2="283.5469"/></g><g id="elem_CourseDescription"><rect fill="#F1F1F1" height="49.0469" style="stroke:#181818;stroke-width:0.5;" width="131" x="917.5" y="250.5"/><text fill="#000000" font-family="sans-serif" font-size="12" font-style="italic" lengthAdjust="spacing" textLength="85" x="940.5" y="261.3633">«Value Object»</text><text fill="#000000" font-family="sans-serif" font-size="14" lengthAdjust="spacing" textLength="117" x="924.5" y="278.5801">CourseDescription</text><line style="stroke:#181818;stroke-width:0.5;" x1="918.5" x2="1047.5" y1="283.5469" y2="283.5469"/></g><g id="elem_CourseTitle"><rect fill="#F1F1F1" height="49.0469" style="stroke:#181818;stroke-width:0.5;" width="95" x="1083.5" y="250.5"/><text fill="#000000" font-family="sans-serif" font-size="12" font-style="italic" lengthAdjust="spacing" textLength="85" x="1088.5" y="261.3633">«Value Object»</text><text fill="#000000" font-family="sans-serif" font-size="14" lengthAdjust="spacing" textLength="73" x="1094.5" y="278.5801">CourseTitle</text><line style="stroke:#181818;stroke-width:0.5;" x1="1084.5" x2="1177.5" y1="283.5469" y2="283.5469"/></g><!--MD5=[3fd616f346a44cd59a91eb10b19e157c]
class User--><g id="elem_User"><rect codeLine="23" fill="#F1F1F1" height="81.8594" id="User" rx="2.5" ry="2.5" style="stroke:#181818;stroke-width:0.5;" width="87" x="187.5" y="234"/><ellipse cx="202.5" cy="266.9297" fill="#ADD1B2" rx="11" ry="11" style="stroke:#181818;stroke-width:1.0;"/><path d="M201,267.9297 L201,269.9297 L205,269.9297 L205,268.9297 L205,268.4453 L205.625,267.9297 L206,267.9297 L206.375,267.9297 L207,268.4453 L207,268.9297 L207,271.9297 L199,271.9297 L198.5156,271.9297 L198,271.3047 L198,270.9297 L198,270.5547 L198.5156,269.9297 L199,269.9297 L199,269.9297 L199,263.9297 L199,263.9297 L198.5156,263.9297 L198,263.3047 L198,262.9297 L198,262.5547 L198.5156,261.9297 L199,261.9297 L207,261.9297 L207,264.9297 L207,265.4141 L206.375,265.9297 L206,265.9297 L205.625,265.9297 L205,265.4141 L205,264.9297 L205,263.9297 L201,263.9297 L201,265.9297 L202,265.9297 L202,265.4453 L202,265.4453 L202.625,264.9297 L203,264.9297 L203.375,264.9297 L204,265.4453 L204,265.9297 L204,267.9297 L204,268.4141 L203.375,268.9297 L203.375,268.9297 L203,268.9297 L202.625,268.9297 L202,268.4141 L202,268.4141 L202,267.9297 L201,267.9297 Z " fill="#000000"/><text fill="#000000" font-family="sans-serif" font-size="12" font-style="italic" lengthAdjust="spacing" textLength="40" x="224" y="249.8633">«Root»</text><text fill="#000000" font-family="sans-serif" font-size="12" font-style="italic" lengthAdjust="spacing" textLength="44" x="222" y="263.2695">«Entity»</text><text fill="#000000" font-family="sans-serif" font-size="12" font-style="italic" lengthAdjust="spacing" textLength="59" x="214.5" y="276.6758">«Strategy»</text><text fill="#000000" font-family="sans-serif" font-size="14" lengthAdjust="spacing" textLength="29" x="229.5" y="291.8926">User</text><line style="stroke:#181818;stroke-width:0.5;" x1="188.5" x2="273.5" y1="299.8594" y2="299.8594"/><line style="stroke:#181818;stroke-width:0.5;" x1="188.5" x2="273.5" y1="307.8594" y2="307.8594"/></g><g id="elem_BirthDate"><rect fill="#F1F1F1" height="49.0469" style="stroke:#181818;stroke-width:0.5;" width="95" x="49.5" y="68.5"/><text fill="#000000" font-family="sans-serif" font-size="12" font-style="italic" lengthAdjust="spacing" textLength="85" x="54.5" y="79.3633">«Value Object»</text><text fill="#000000" font-family="sans-serif" font-size="14" lengthAdjust="spacing" textLength="59" x="67.5" y="96.5801">BirthDate</text><line style="stroke:#181818;stroke-width:0.5;" x1="50.5" x2="143.5" y1="101.5469" y2="101.5469"/></g><g id="elem_TaxNumber"><rect fill="#F1F1F1" height="62.4531" style="stroke:#181818;stroke-width:0.5;" width="95" x="23.5" y="244"/><text fill="#000000" font-family="sans-serif" font-size="12" font-style="italic" lengthAdjust="spacing" textLength="85" x="28.5" y="254.8633">«Value Object»</text><text fill="#000000" font-family="sans-serif" font-size="12" font-style="italic" lengthAdjust="spacing" textLength="25" x="58.5" y="268.2695">«Id»</text><text fill="#000000" font-family="sans-serif" font-size="14" lengthAdjust="spacing" textLength="72" x="35" y="285.4863">TaxNumber</text><line style="stroke:#181818;stroke-width:0.5;" x1="24.5" x2="117.5" y1="290.4531" y2="290.4531"/></g><g id="elem_FullName"><rect fill="#F1F1F1" height="49.0469" style="stroke:#181818;stroke-width:0.5;" width="95" x="179.5" y="392"/><text fill="#000000" font-family="sans-serif" font-size="12" font-style="italic" lengthAdjust="spacing" textLength="85" x="184.5" y="402.8633">«Value Object»</text><text fill="#000000" font-family="sans-serif" font-size="14" lengthAdjust="spacing" textLength="59" x="197.5" y="420.0801">FullName</text><line style="stroke:#181818;stroke-width:0.5;" x1="180.5" x2="273.5" y1="425.0469" y2="425.0469"/></g><g id="elem_ShortName"><rect fill="#F1F1F1" height="49.0469" style="stroke:#181818;stroke-width:0.5;" width="95" x="179.5" y="68.5"/><text fill="#000000" font-family="sans-serif" font-size="12" font-style="italic" lengthAdjust="spacing" textLength="85" x="184.5" y="79.3633">«Value Object»</text><text fill="#000000" font-family="sans-serif" font-size="14" lengthAdjust="spacing" textLength="70" x="192" y="96.5801">ShortName</text><line style="stroke:#181818;stroke-width:0.5;" x1="180.5" x2="273.5" y1="101.5469" y2="101.5469"/></g><!--MD5=[61a83f88cb8b7d3a80bc8c481f3736bf]
class Teacher--><g id="elem_Teacher"><rect codeLine="38" fill="#F1F1F1" height="68.4531" id="Teacher" rx="2.5" ry="2.5" style="stroke:#181818;stroke-width:0.5;" width="85" x="1235.5" y="241"/><ellipse cx="1250.5" cy="267.2266" fill="#ADD1B2" rx="11" ry="11" style="stroke:#181818;stroke-width:1.0;"/><path d="M1249,268.2266 L1249,270.2266 L1253,270.2266 L1253,269.2266 L1253,268.7422 L1253.625,268.2266 L1254,268.2266 L1254.375,268.2266 L1255,268.7422 L1255,269.2266 L1255,272.2266 L1247,272.2266 L1246.5156,272.2266 L1246,271.6016 L1246,271.2266 L1246,270.8516 L1246.5156,270.2266 L1247,270.2266 L1247,270.2266 L1247,264.2266 L1247,264.2266 L1246.5156,264.2266 L1246,263.6016 L1246,263.2266 L1246,262.8516 L1246.5156,262.2266 L1247,262.2266 L1255,262.2266 L1255,265.2266 L1255,265.7109 L1254.375,266.2266 L1254,266.2266 L1253.625,266.2266 L1253,265.7109 L1253,265.2266 L1253,264.2266 L1249,264.2266 L1249,266.2266 L1250,266.2266 L1250,265.7422 L1250,265.7422 L1250.625,265.2266 L1251,265.2266 L1251.375,265.2266 L1252,265.7422 L1252,266.2266 L1252,268.2266 L1252,268.7109 L1251.375,269.2266 L1251.375,269.2266 L1251,269.2266 L1250.625,269.2266 L1250,268.7109 L1250,268.7109 L1250,268.2266 L1249,268.2266 Z " fill="#000000"/><text fill="#000000" font-family="sans-serif" font-size="12" font-style="italic" lengthAdjust="spacing" textLength="44" x="1269" y="256.8633">«Entity»</text><text fill="#000000" font-family="sans-serif" font-size="12" font-style="italic" lengthAdjust="spacing" textLength="40" x="1271" y="270.2695">«Root»</text><text fill="#000000" font-family="sans-serif" font-size="14" lengthAdjust="spacing" textLength="53" x="1264.5" y="285.4863">Teacher</text><line style="stroke:#181818;stroke-width:0.5;" x1="1236.5" x2="1319.5" y1="293.4531" y2="293.4531"/><line style="stroke:#181818;stroke-width:0.5;" x1="1236.5" x2="1319.5" y1="301.4531" y2="301.4531"/></g><g id="elem_Acronym"><rect fill="#F1F1F1" height="49.0469" style="stroke:#181818;stroke-width:0.5;" width="95" x="1235.5" y="392"/><text fill="#000000" font-family="sans-serif" font-size="12" font-style="italic" lengthAdjust="spacing" textLength="85" x="1240.5" y="402.8633">«Value Object»</text><text fill="#000000" font-family="sans-serif" font-size="14" lengthAdjust="spacing" textLength="55" x="1255.5" y="420.0801">Acronym</text><line style="stroke:#181818;stroke-width:0.5;" x1="1236.5" x2="1329.5" y1="425.0469" y2="425.0469"/></g><!--MD5=[d6181cb537bdc20c0a3007a98a56832d]
class Student--><g id="elem_Student"><rect codeLine="47" fill="#F1F1F1" height="68.4531" id="Student" rx="2.5" ry="2.5" style="stroke:#181818;stroke-width:0.5;" width="81" x="1441.5" y="241"/><ellipse cx="1456.5" cy="267.2266" fill="#ADD1B2" rx="11" ry="11" style="stroke:#181818;stroke-width:1.0;"/><path d="M1455,268.2266 L1455,270.2266 L1459,270.2266 L1459,269.2266 L1459,268.7422 L1459.625,268.2266 L1460,268.2266 L1460.375,268.2266 L1461,268.7422 L1461,269.2266 L1461,272.2266 L1453,272.2266 L1452.5156,272.2266 L1452,271.6016 L1452,271.2266 L1452,270.8516 L1452.5156,270.2266 L1453,270.2266 L1453,270.2266 L1453,264.2266 L1453,264.2266 L1452.5156,264.2266 L1452,263.6016 L1452,263.2266 L1452,262.8516 L1452.5156,262.2266 L1453,262.2266 L1461,262.2266 L1461,265.2266 L1461,265.7109 L1460.375,266.2266 L1460,266.2266 L1459.625,266.2266 L1459,265.7109 L1459,265.2266 L1459,264.2266 L1455,264.2266 L1455,266.2266 L1456,266.2266 L1456,265.7422 L1456,265.7422 L1456.625,265.2266 L1457,265.2266 L1457.375,265.2266 L1458,265.7422 L1458,266.2266 L1458,268.2266 L1458,268.7109 L1457.375,269.2266 L1457.375,269.2266 L1457,269.2266 L1456.625,269.2266 L1456,268.7109 L1456,268.7109 L1456,268.2266 L1455,268.2266 Z " fill="#000000"/><text fill="#000000" font-family="sans-serif" font-size="12" font-style="italic" lengthAdjust="spacing" textLength="44" x="1473" y="256.8633">«Entity»</text><text fill="#000000" font-family="sans-serif" font-size="12" font-style="italic" lengthAdjust="spacing" textLength="40" x="1475" y="270.2695">«Root»</text><text fill="#000000" font-family="sans-serif" font-size="14" lengthAdjust="spacing" textLength="49" x="1470.5" y="285.4863">Student</text><line style="stroke:#181818;stroke-width:0.5;" x1="1442.5" x2="1521.5" y1="293.4531" y2="293.4531"/><line style="stroke:#181818;stroke-width:0.5;" x1="1442.5" x2="1521.5" y1="301.4531" y2="301.4531"/></g><g id="elem_MechanographicNumber"><rect fill="#F1F1F1" height="49.0469" style="stroke:#181818;stroke-width:0.5;" width="168" x="1441" y="392"/><text fill="#000000" font-family="sans-serif" font-size="12" font-style="italic" lengthAdjust="spacing" textLength="85" x="1482.5" y="402.8633">«Value Object»</text><text fill="#000000" font-family="sans-serif" font-size="14" lengthAdjust="spacing" textLength="154" x="1448" y="420.0801">MechanographicNumber</text><line style="stroke:#181818;stroke-width:0.5;" x1="1442" x2="1608" y1="425.0469" y2="425.0469"/></g><!--MD5=[b3919203e0fc33882323d71b139d4648]
link Course to CourseTitle--><g id="link_Course_CourseTitle"><path codeLine="13" d="M874.06,101.25 C923.03,111.91 1007.62,135.65 1066,181 C1088.27,198.3 1105.96,225.34 1117.23,245.81 " fill="none" id="Course-to-CourseTitle" style="stroke:#181818;stroke-width:1.0;"/><polygon fill="#181818" points="1119.68,250.34,1118.9312,240.5196,1117.3078,245.9386,1111.8889,244.3152,1119.68,250.34" style="stroke:#181818;stroke-width:1.0;"/><text fill="#000000" font-family="sans-serif" font-size="13" lengthAdjust="spacing" textLength="32" x="1050" y="169.7686">has a</text><text fill="#000000" font-family="sans-serif" font-size="13" lengthAdjust="spacing" textLength="7" x="881.7285" y="99.5487">1</text><text fill="#000000" font-family="sans-serif" font-size="13" lengthAdjust="spacing" textLength="7" x="1108.6971" y="239.664">1</text></g><!--MD5=[11de04e271b5730d591139d5c3a29f06]
link Course to Id--><g id="link_Course_Id"><path codeLine="14" d="M795.78,93.5 C720.87,94.41 555,105.54 444,181 C422.8,195.41 406.35,219.21 395.31,239.12 " fill="none" id="Course-to-Id" style="stroke:#181818;stroke-width:1.0;"/><polygon fill="#181818" points="392.89,243.57,400.6962,237.5648,395.2733,239.1745,393.6635,233.7516,392.89,243.57" style="stroke:#181818;stroke-width:1.0;"/><text fill="#000000" font-family="sans-serif" font-size="13" lengthAdjust="spacing" textLength="32" x="483" y="169.7686">has a</text><text fill="#000000" font-family="sans-serif" font-size="13" lengthAdjust="spacing" textLength="7" x="780.9035" y="90.0766">1</text><text fill="#000000" font-family="sans-serif" font-size="13" lengthAdjust="spacing" textLength="7" x="388.0329" y="233.4196">1</text></g><!--MD5=[fb1b11975120a3eff39f2a5b357f0d9b]
link Course to CourseDescription--><g id="link_Course_CourseDescription"><path codeLine="15" d="M874.36,114.21 C892.47,125.01 913.17,139.66 928,157 C950.43,183.23 965.75,220.15 974.42,245.47 " fill="none" id="Course-to-CourseDescription" style="stroke:#181818;stroke-width:1.0;"/><polygon fill="#181818" points="976.06,250.37,976.9733,240.5636,974.4617,245.6323,969.393,243.1208,976.06,250.37" style="stroke:#181818;stroke-width:1.0;"/><text fill="#000000" font-family="sans-serif" font-size="13" lengthAdjust="spacing" textLength="32" x="939" y="169.7686">has a</text><text fill="#000000" font-family="sans-serif" font-size="13" lengthAdjust="spacing" textLength="7" x="881.9944" y="114.516">1</text><text fill="#000000" font-family="sans-serif" font-size="13" lengthAdjust="spacing" textLength="7" x="966.2543" y="239.702">1</text></g><!--MD5=[e64f2b7cf82963464778f39ca9b22dac]
link Course to CourseState--><g id="link_Course_CourseState"><path codeLine="16" d="M795.59,99.22 C741.14,108.07 641.94,130.28 574,181 C551.4,197.87 533.75,224.96 522.58,245.56 " fill="none" id="Course-to-CourseState" style="stroke:#181818;stroke-width:1.0;"/><polygon fill="#181818" points="520.16,250.12,527.9125,244.0455,522.504,245.7035,520.8461,240.2951,520.16,250.12" style="stroke:#181818;stroke-width:1.0;"/><text fill="#000000" font-family="sans-serif" font-size="13" lengthAdjust="spacing" textLength="32" x="613" y="169.7686">has a</text><text fill="#000000" font-family="sans-serif" font-size="13" lengthAdjust="spacing" textLength="7" x="780.9467" y="113.3496">1</text><text fill="#000000" font-family="sans-serif" font-size="13" lengthAdjust="spacing" textLength="7" x="515.1229" y="239.7804">1</text></g><!--MD5=[09c0d6e916d1d63ced58e522345ec4eb]
link Course to CourseEnrollmentState--><g id="link_Course_CourseEnrollmentState"><path codeLine="17" d="M795.71,104.64 C767.85,114.09 731.55,130.59 709,157 C687.6,182.06 678.55,219.56 674.74,245.31 " fill="none" id="Course-to-CourseEnrollmentState" style="stroke:#181818;stroke-width:1.0;"/><polygon fill="#181818" points="674.05,250.29,679.2488,241.925,674.7371,245.3374,671.3247,240.8257,674.05,250.29" style="stroke:#181818;stroke-width:1.0;"/><text fill="#000000" font-family="sans-serif" font-size="13" lengthAdjust="spacing" textLength="39" x="710" y="169.7686">has an</text><text fill="#000000" font-family="sans-serif" font-size="13" lengthAdjust="spacing" textLength="7" x="781.088" y="103.2413">1</text><text fill="#000000" font-family="sans-serif" font-size="13" lengthAdjust="spacing" textLength="7" x="666.6603" y="239.6005">1</text></g><!--MD5=[12435fc97d44de943be48564a2294445]
link Course to Edition--><g id="link_Course_Edition"><path codeLine="18" d="M835,127.01 C835,160.79 835,212.74 835,244.99 " fill="none" id="Course-to-Edition" style="stroke:#181818;stroke-width:1.0;"/><polygon fill="#181818" points="835,250.38,839,241.38,835,245.38,831,241.38,835,250.38" style="stroke:#181818;stroke-width:1.0;"/><text fill="#000000" font-family="sans-serif" font-size="13" lengthAdjust="spacing" textLength="32" x="836" y="169.7686">has a</text><text fill="#000000" font-family="sans-serif" font-size="13" lengthAdjust="spacing" textLength="7" x="827.2781" y="147.2441">1</text><text fill="#000000" font-family="sans-serif" font-size="13" lengthAdjust="spacing" textLength="7" x="827.0594" y="239.7147">1</text></g><!--MD5=[5be8aaedb820ee9cf3ce759b5401d401]
reverse link BirthDate to User--><g id="link_BirthDate_User"><path codeLine="29" d="M117.71,121.82 C140.05,151.83 175.82,199.88 201.18,233.95 " fill="none" id="BirthDate-backto-User" style="stroke:#181818;stroke-width:1.0;"/><polygon fill="#181818" points="114.52,117.53,116.6816,127.1387,117.504,121.542,123.1007,122.3643,114.52,117.53" style="stroke:#181818;stroke-width:1.0;"/><text fill="#000000" font-family="sans-serif" font-size="13" lengthAdjust="spacing" textLength="32" x="153" y="169.7686">has a</text><text fill="#000000" font-family="sans-serif" font-size="13" lengthAdjust="spacing" textLength="7" x="111.1126" y="137.4392">1</text><text fill="#000000" font-family="sans-serif" font-size="13" lengthAdjust="spacing" textLength="7" x="188.2449" y="223.2188">1</text></g><!--MD5=[1dba526f95bd730ec4c849a0bc17cef7]
reverse link TaxNumber to User--><g id="link_TaxNumber_User"><path codeLine="30" d="M123.76,275 C144.39,275 167.78,275 187.43,275 " fill="none" id="TaxNumber-backto-User" style="stroke:#181818;stroke-width:1.0;"/><polygon fill="#181818" points="118.57,275,127.57,279,123.57,275,127.57,271,118.57,275" style="stroke:#181818;stroke-width:1.0;"/><text fill="#000000" font-family="sans-serif" font-size="13" lengthAdjust="spacing" textLength="32" x="137" y="268.7686">has a</text><text fill="#000000" font-family="sans-serif" font-size="13" lengthAdjust="spacing" textLength="7" x="126.3901" y="271.7021">1</text><text fill="#000000" font-family="sans-serif" font-size="13" lengthAdjust="spacing" textLength="7" x="172.634" y="271.6642">1</text></g><!--MD5=[176e07b16b38b5978b9bc82adf5db4ba]
link User to FullName--><g id="link_User_FullName"><path codeLine="31" d="M229.84,316.35 C229.2,338.9 228.41,366.47 227.82,386.81 " fill="none" id="User-to-FullName" style="stroke:#181818;stroke-width:1.0;"/><polygon fill="#181818" points="227.68,391.82,231.9354,382.9379,227.8228,386.822,223.9387,382.7094,227.68,391.82" style="stroke:#181818;stroke-width:1.0;"/><text fill="#000000" font-family="sans-serif" font-size="13" lengthAdjust="spacing" textLength="32" x="230" y="358.7686">has a</text><text fill="#000000" font-family="sans-serif" font-size="13" lengthAdjust="spacing" textLength="7" x="222.1264" y="335.573">1</text><text fill="#000000" font-family="sans-serif" font-size="13" lengthAdjust="spacing" textLength="7" x="219.9221" y="381.1386">1</text></g><!--MD5=[090fafa15af9dc716b5d092066e89d17]
reverse link ShortName to User--><g id="link_ShortName_User"><path codeLine="32" d="M227.63,122.57 C228.3,152.62 229.36,200.16 230.11,233.95 " fill="none" id="ShortName-backto-User" style="stroke:#181818;stroke-width:1.0;"/><polygon fill="#181818" points="227.52,117.53,223.7267,126.6191,227.6343,122.5287,231.7246,126.4362,227.52,117.53" style="stroke:#181818;stroke-width:1.0;"/><text fill="#000000" font-family="sans-serif" font-size="13" lengthAdjust="spacing" textLength="32" x="230" y="169.7686">has a</text><text fill="#000000" font-family="sans-serif" font-size="13" lengthAdjust="spacing" textLength="7" x="219.7564" y="137.4392">1</text><text fill="#000000" font-family="sans-serif" font-size="13" lengthAdjust="spacing" textLength="7" x="222.328" y="223.2188">1</text></g><!--MD5=[0a356a4e09bd4fc4087bf5e4e9dbf72c]
link Teacher to User--><g id="link_Teacher_User"><path codeLine="41" d="M1258.49,240.9 C1244.05,219.32 1222.19,193.26 1195,181 C1150.43,160.9 359.62,161.03 315,181 C297.1,189.01 281.44,202.93 268.65,217.63 " fill="none" id="Teacher-to-User" style="stroke:#181818;stroke-width:1.0;"/><polygon fill="none" points="273.84,222.35,255.92,233.66,262.88,213.65,273.84,222.35" style="stroke:#181818;stroke-width:1.0;"/><text fill="#000000" font-family="sans-serif" font-size="13" lengthAdjust="spacing" textLength="21" x="759.5" y="169.7686">is a</text></g><!--MD5=[11f940fd4cae057b8e7923b67496b82a]
link Teacher to Acronym--><g id="link_Teacher_Acronym"><path codeLine="42" d="M1279.18,309.06 C1280.03,332.63 1281.15,364.02 1281.96,386.59 " fill="none" id="Teacher-to-Acronym" style="stroke:#181818;stroke-width:1.0;"/><polygon fill="#181818" points="1282.15,391.84,1285.8132,382.6977,1281.9644,386.8434,1277.8187,382.9947,1282.15,391.84" style="stroke:#181818;stroke-width:1.0;"/><text fill="#000000" font-family="sans-serif" font-size="13" lengthAdjust="spacing" textLength="32" x="1281" y="358.7686">has a</text><text fill="#000000" font-family="sans-serif" font-size="13" lengthAdjust="spacing" textLength="7" x="1271.7015" y="329.3044">1</text><text fill="#000000" font-family="sans-serif" font-size="13" lengthAdjust="spacing" textLength="7" x="1273.9809" y="381.164">1</text></g><!--MD5=[e7e4384c2e5b49218c5cd97f5ff6bc06]
link Student to User--><g id="link_Student_User"><path codeLine="50" d="M1446.08,240.78 C1420.63,219 1384.47,192.76 1347,181 C1292.3,163.83 367.33,157.58 315,181 C297.1,189.01 281.44,202.93 268.65,217.63 " fill="none" id="Student-to-User" style="stroke:#181818;stroke-width:1.0;"/><polygon fill="none" points="273.84,222.35,255.92,233.66,262.88,213.65,273.84,222.35" style="stroke:#181818;stroke-width:1.0;"/><text fill="#000000" font-family="sans-serif" font-size="13" lengthAdjust="spacing" textLength="21" x="897.5" y="169.7686">is a</text></g><!--MD5=[98c7668d4def7ca1b45538dfd0d209a2]
link Student to MechanographicNumber--><g id="link_Student_MechanographicNumber"><path codeLine="51" d="M1492.19,309.06 C1499.49,332.73 1509.21,364.28 1516.18,386.88 " fill="none" id="Student-to-MechanographicNumber" style="stroke:#181818;stroke-width:1.0;"/><polygon fill="#181818" points="1517.71,391.84,1518.8884,382.0619,1516.2406,387.0608,1511.2417,384.413,1517.71,391.84" style="stroke:#181818;stroke-width:1.0;"/><text fill="#000000" font-family="sans-serif" font-size="13" lengthAdjust="spacing" textLength="32" x="1508" y="358.7686">has a</text><text fill="#000000" font-family="sans-serif" font-size="13" lengthAdjust="spacing" textLength="7" x="1486.5698" y="329.3044">1</text><text fill="#000000" font-family="sans-serif" font-size="13" lengthAdjust="spacing" textLength="7" x="1507.8102" y="381.164">1</text></g><!--MD5=[879e79d9b9300cd2bae6192b9cbae86c]
link Course to Teacher--><g id="link_Course_Teacher"><path codeLine="56" d="M874.1,95.89 C943.43,100.8 1090.47,118.39 1195,181 C1218.13,194.85 1238.4,217.25 1253.12,236.59 " fill="none" id="Course-to-Teacher" style="stroke:#181818;stroke-width:1.0;"/><polygon fill="#181818" points="1256.37,240.92,1254.17,231.32,1253.37,236.92,1247.77,236.12,1256.37,240.92" style="stroke:#181818;stroke-width:1.0;"/><text fill="#000000" font-family="sans-serif" font-size="13" lengthAdjust="spacing" textLength="21" x="1178" y="169.7686">has</text><text fill="#000000" font-family="sans-serif" font-size="13" lengthAdjust="spacing" textLength="7" x="881.9544" y="92.9073">1</text><text fill="#000000" font-family="sans-serif" font-size="13" lengthAdjust="spacing" textLength="5" x="1246.3932" y="230.2231">*</text></g><!--MD5=[c7fbd687cf3d829660114deb858ee2c8]
@startuml
'https://plantuml.com/use-case-diagram

rectangle "<<Aggregate>> Course" #lightskyblue{

    entity Course<<Root>><<Entity>>
    object Id<<Value Object>><<Identify>>
    object CourseState<<Value Object>>
    object CourseEnrollmentState <<Value Object>>
    object Edition <<Value Object>>
    object CourseDescription <<Value Object>>
    object CourseTitle <<Value Object>>

    Course"1" - -> "1"CourseTitle: has a
    Course"1" - -> "1"Id : has a
    Course"1" - -> "1"CourseDescription : has a
    Course"1"- ->"1"CourseState : has a
    Course"1"- ->"1"CourseEnrollmentState: has an
    Course"1" - ->"1"Edition : has a
}

rectangle "<<Aggregate>> Personal Information" #bbaabb{

    entity User<<Root>><<Entity>><<Strategy>>
    object BirthDate<<Value Object>>
    object TaxNumber<<Value Object>><<Id>>
    object FullName<<Value Object>>
    object ShortName<<Value Object>>

    User"1" -up-> "1"BirthDate : has a
    User"1" -left-> "1"TaxNumber : has a
    User"1" - -> "1" FullName : has a
    User "1" -up->"1"ShortName : has a
}


rectangle "<<Aggregate>> Teacher" #blueviolet{

    entity Teacher<<Entity>><<Root>>
    object Acronym<<Value Object>>

    Teacher -|> User: is a
    Teacher"1" - -> "1"Acronym : has a
}

rectangle "<<Aggregate>> Student" #hotpink{

    entity Student<<Entity>><<Root>>
    object MechanographicNumber<<Value Object>>

    Student -|> User: is a
    Student "1" - ->"1"MechanographicNumber: has a
}



Course"1" - ->"*"Teacher: has

@enduml

@startuml

rectangle "<<Aggregate>> Course" #lightskyblue{

    entity Course<<Root>><<Entity>>
    object Id<<Value Object>><<Identify>>
    object CourseState<<Value Object>>
    object CourseEnrollmentState <<Value Object>>
    object Edition <<Value Object>>
    object CourseDescription <<Value Object>>
    object CourseTitle <<Value Object>>

    Course"1" - -> "1"CourseTitle: has a
    Course"1" - -> "1"Id : has a
    Course"1" - -> "1"CourseDescription : has a
    Course"1"- ->"1"CourseState : has a
    Course"1"- ->"1"CourseEnrollmentState: has an
    Course"1" - ->"1"Edition : has a
}

rectangle "<<Aggregate>> Personal Information" #bbaabb{

    entity User<<Root>><<Entity>><<Strategy>>
    object BirthDate<<Value Object>>
    object TaxNumber<<Value Object>><<Id>>
    object FullName<<Value Object>>
    object ShortName<<Value Object>>

    User"1" -up-> "1"BirthDate : has a
    User"1" -left-> "1"TaxNumber : has a
    User"1" - -> "1" FullName : has a
    User "1" -up->"1"ShortName : has a
}


rectangle "<<Aggregate>> Teacher" #blueviolet{

    entity Teacher<<Entity>><<Root>>
    object Acronym<<Value Object>>

    Teacher -|> User: is a
    Teacher"1" - -> "1"Acronym : has a
}

rectangle "<<Aggregate>> Student" #hotpink{

    entity Student<<Entity>><<Root>>
    object MechanographicNumber<<Value Object>>

    Student -|> User: is a
    Student "1" - ->"1"MechanographicNumber: has a
}



Course"1" - ->"*"Teacher: has

@enduml

PlantUML version 1.2022.12(Sun Oct 23 19:12:26 WEST 2022)
(GPL source distribution)
Java Runtime: OpenJDK Runtime Environment
JVM: OpenJDK 64-Bit Server VM
Default Encoding: Cp1252
Language: pt
Country: PT
--></g></svg>