<?xml version="1.0" encoding="UTF-8" standalone="no"?><svg xmlns="http://www.w3.org/2000/svg" xmlns:xlink="http://www.w3.org/1999/xlink" contentStyleType="text/css" height="1495px" preserveAspectRatio="none" style="width:2047px;height:1495px;background:#FFFFFF;" version="1.1" viewBox="0 0 2047 1495" width="2047px" zoomAndPan="magnify"><defs/><g><rect fill="#FFFFFF" height="1292.0156" style="stroke:#181818;stroke-width:1.0;" width="10" x="17.5" y="92.2813"/><rect fill="#FFFFFF" height="1292.0156" style="stroke:#181818;stroke-width:1.0;" width="10" x="259.5" y="92.2813"/><rect fill="#FFFFFF" height="1214.4453" style="stroke:#181818;stroke-width:1.0;" width="10" x="484.5" y="141.3281"/><rect fill="#FFFFFF" height="71.4531" style="stroke:#181818;stroke-width:1.0;" width="10" x="684.5" y="169.8516"/><rect fill="#FFFFFF" height="28.5234" style="stroke:#181818;stroke-width:1.0;" width="10" x="841" y="293.3516"/><rect fill="#FFFFFF" height="28.5234" style="stroke:#181818;stroke-width:1.0;" width="10" x="841" y="735.4922"/><rect fill="#FFFFFF" height="342.2813" style="stroke:#181818;stroke-width:1.0;" width="10" x="1035" y="350.3984"/><rect fill="#FFFFFF" height="285.2344" style="stroke:#181818;stroke-width:1.0;" width="10" x="1035" y="792.5391"/><rect fill="#FFFFFF" height="199.6641" style="stroke:#181818;stroke-width:1.0;" width="10" x="1035" y="1120.5859"/><rect fill="#FFFFFF" height="57.0469" style="stroke:#181818;stroke-width:1.0;" width="10" x="1226" y="407.4453"/><rect fill="#FFFFFF" height="57.0469" style="stroke:#181818;stroke-width:1.0;" width="10" x="1226" y="821.0625"/><rect fill="#FFFFFF" height="57.0469" style="stroke:#181818;stroke-width:1.0;" width="10" x="1226" y="1149.1094"/><rect fill="none" height="1071.9453" style="stroke:#000000;stroke-width:1.5;" width="1636" x="404" y="256.3047"/><line style="stroke:#181818;stroke-width:0.5;stroke-dasharray:5.0,5.0;" x1="22" x2="22" y1="82.2813" y2="1402.2969"/><line style="stroke:#181818;stroke-width:0.5;stroke-dasharray:5.0,5.0;" x1="264" x2="264" y1="82.2813" y2="1402.2969"/><line style="stroke:#181818;stroke-width:0.5;stroke-dasharray:5.0,5.0;" x1="489" x2="489" y1="82.2813" y2="1402.2969"/><line style="stroke:#181818;stroke-width:0.5;stroke-dasharray:5.0,5.0;" x1="689" x2="689" y1="82.2813" y2="1402.2969"/><line style="stroke:#181818;stroke-width:0.5;stroke-dasharray:5.0,5.0;" x1="846" x2="846" y1="82.2813" y2="1402.2969"/><line style="stroke:#181818;stroke-width:0.5;stroke-dasharray:5.0,5.0;" x1="1040" x2="1040" y1="82.2813" y2="1402.2969"/><line style="stroke:#181818;stroke-width:0.5;stroke-dasharray:5.0,5.0;" x1="1231" x2="1231" y1="82.2813" y2="1402.2969"/><line style="stroke:#181818;stroke-width:0.5;stroke-dasharray:5.0,5.0;" x1="1374" x2="1374" y1="82.2813" y2="1402.2969"/><line style="stroke:#181818;stroke-width:0.5;stroke-dasharray:5.0,5.0;" x1="1539" x2="1539" y1="82.2813" y2="1402.2969"/><line style="stroke:#181818;stroke-width:0.5;stroke-dasharray:5.0,5.0;" x1="1700" x2="1700" y1="82.2813" y2="1402.2969"/><line style="stroke:#181818;stroke-width:0.5;stroke-dasharray:5.0,5.0;" x1="1831" x2="1831" y1="82.2813" y2="1402.2969"/><line style="stroke:#181818;stroke-width:0.5;stroke-dasharray:5.0,5.0;" x1="1966" x2="1966" y1="82.2813" y2="1402.2969"/><text fill="#000000" font-family="sans-serif" font-size="14" lengthAdjust="spacing" textLength="29" x="5" y="79.3145">User</text><ellipse cx="22.5" cy="15.1406" fill="#E2E2F0" rx="8" ry="8" style="stroke:#181818;stroke-width:0.5;"/><path d="M22.5,23.1406 L22.5,50.1406 M9.5,31.1406 L35.5,31.1406 M22.5,50.1406 L9.5,65.1406 M22.5,50.1406 L35.5,65.1406 " fill="none" style="stroke:#181818;stroke-width:0.5;"/><text fill="#000000" font-family="sans-serif" font-size="14" lengthAdjust="spacing" textLength="29" x="5" y="1413.9707">User</text><ellipse cx="22.5" cy="1425.4375" fill="#E2E2F0" rx="8" ry="8" style="stroke:#181818;stroke-width:0.5;"/><path d="M22.5,1433.4375 L22.5,1460.4375 M9.5,1441.4375 L35.5,1441.4375 M22.5,1460.4375 L9.5,1475.4375 M22.5,1460.4375 L35.5,1475.4375 " fill="none" style="stroke:#181818;stroke-width:0.5;"/><rect fill="#E2E2F0" height="45.2813" rx="2.5" ry="2.5" style="stroke:#181818;stroke-width:0.5;" width="109" x="210" y="36"/><text fill="#000000" font-family="sans-serif" font-size="14" font-style="italic" lengthAdjust="spacing" textLength="95" x="217" y="55.6738">«presentation»</text><text fill="#000000" font-family="sans-serif" font-size="14" lengthAdjust="spacing" textLength="87" x="221" y="71.3145">ListCoursesUI</text><rect fill="#E2E2F0" height="45.2813" rx="2.5" ry="2.5" style="stroke:#181818;stroke-width:0.5;" width="109" x="210" y="1401.2969"/><text fill="#000000" font-family="sans-serif" font-size="14" font-style="italic" lengthAdjust="spacing" textLength="95" x="217" y="1420.9707">«presentation»</text><text fill="#000000" font-family="sans-serif" font-size="14" lengthAdjust="spacing" textLength="87" x="221" y="1436.6113">ListCoursesUI</text><rect fill="#E2E2F0" height="45.2813" rx="2.5" ry="2.5" style="stroke:#181818;stroke-width:0.5;" width="151" x="414" y="36"/><text fill="#000000" font-family="sans-serif" font-size="14" font-style="italic" lengthAdjust="spacing" textLength="84" x="447.5" y="55.6738">«application»</text><text fill="#000000" font-family="sans-serif" font-size="14" lengthAdjust="spacing" textLength="137" x="421" y="71.3145">ListCoursesController</text><rect fill="#E2E2F0" height="45.2813" rx="2.5" ry="2.5" style="stroke:#181818;stroke-width:0.5;" width="151" x="414" y="1401.2969"/><text fill="#000000" font-family="sans-serif" font-size="14" font-style="italic" lengthAdjust="spacing" textLength="84" x="447.5" y="1420.9707">«application»</text><text fill="#000000" font-family="sans-serif" font-size="14" lengthAdjust="spacing" textLength="137" x="421" y="1436.6113">ListCoursesController</text><rect fill="#E2E2F0" height="45.2813" rx="2.5" ry="2.5" style="stroke:#181818;stroke-width:0.5;" width="151" x="614" y="36"/><text fill="#000000" font-family="sans-serif" font-size="14" font-style="italic" lengthAdjust="spacing" textLength="60" x="659.5" y="55.6738">«service»</text><text fill="#000000" font-family="sans-serif" font-size="14" lengthAdjust="spacing" textLength="137" x="621" y="71.3145">AuthenticationService</text><rect fill="#E2E2F0" height="45.2813" rx="2.5" ry="2.5" style="stroke:#181818;stroke-width:0.5;" width="151" x="614" y="1401.2969"/><text fill="#000000" font-family="sans-serif" font-size="14" font-style="italic" lengthAdjust="spacing" textLength="60" x="659.5" y="1420.9707">«service»</text><text fill="#000000" font-family="sans-serif" font-size="14" lengthAdjust="spacing" textLength="137" x="621" y="1436.6113">AuthenticationService</text><rect fill="#E2E2F0" height="29.6406" rx="2.5" ry="2.5" style="stroke:#181818;stroke-width:0.5;" width="142" x="775" y="51.6406"/><text fill="#000000" font-family="sans-serif" font-size="14" lengthAdjust="spacing" textLength="128" x="782" y="71.3145">sysuser SystemUser</text><rect fill="#E2E2F0" height="29.6406" rx="2.5" ry="2.5" style="stroke:#181818;stroke-width:0.5;" width="142" x="775" y="1401.2969"/><text fill="#000000" font-family="sans-serif" font-size="14" lengthAdjust="spacing" textLength="128" x="782" y="1420.9707">sysuser SystemUser</text><rect fill="#E2E2F0" height="45.2813" rx="2.5" ry="2.5" style="stroke:#181818;stroke-width:0.5;" width="226" x="927" y="36"/><text fill="#000000" font-family="sans-serif" font-size="14" font-style="italic" lengthAdjust="spacing" textLength="60" x="1010" y="55.6738">«service»</text><text fill="#000000" font-family="sans-serif" font-size="14" lengthAdjust="spacing" textLength="212" x="934" y="71.3145">listService:ListUserCourseService</text><rect fill="#E2E2F0" height="45.2813" rx="2.5" ry="2.5" style="stroke:#181818;stroke-width:0.5;" width="226" x="927" y="1401.2969"/><text fill="#000000" font-family="sans-serif" font-size="14" font-style="italic" lengthAdjust="spacing" textLength="60" x="1010" y="1420.9707">«service»</text><text fill="#000000" font-family="sans-serif" font-size="14" lengthAdjust="spacing" textLength="212" x="934" y="1436.6113">listService:ListUserCourseService</text><rect fill="#E2E2F0" height="45.2813" rx="2.5" ry="2.5" style="stroke:#181818;stroke-width:0.5;" width="136" x="1163" y="36"/><text fill="#000000" font-family="sans-serif" font-size="14" font-style="italic" lengthAdjust="spacing" textLength="89" x="1186.5" y="55.6738">«persistence»</text><text fill="#000000" font-family="sans-serif" font-size="14" lengthAdjust="spacing" textLength="122" x="1170" y="71.3145">PersistenceContext</text><rect fill="#E2E2F0" height="45.2813" rx="2.5" ry="2.5" style="stroke:#181818;stroke-width:0.5;" width="136" x="1163" y="1401.2969"/><text fill="#000000" font-family="sans-serif" font-size="14" font-style="italic" lengthAdjust="spacing" textLength="89" x="1186.5" y="1420.9707">«persistence»</text><text fill="#000000" font-family="sans-serif" font-size="14" lengthAdjust="spacing" textLength="122" x="1170" y="1436.6113">PersistenceContext</text><rect fill="#E2E2F0" height="45.2813" rx="2.5" ry="2.5" style="stroke:#181818;stroke-width:0.5;" width="130" x="1309" y="36"/><text fill="#000000" font-family="sans-serif" font-size="14" font-style="italic" lengthAdjust="spacing" textLength="59" x="1344.5" y="55.6738">«factory»</text><text fill="#000000" font-family="sans-serif" font-size="14" lengthAdjust="spacing" textLength="116" x="1316" y="71.3145">RepositoryFactory</text><rect fill="#E2E2F0" height="45.2813" rx="2.5" ry="2.5" style="stroke:#181818;stroke-width:0.5;" width="130" x="1309" y="1401.2969"/><text fill="#000000" font-family="sans-serif" font-size="14" font-style="italic" lengthAdjust="spacing" textLength="59" x="1344.5" y="1420.9707">«factory»</text><text fill="#000000" font-family="sans-serif" font-size="14" lengthAdjust="spacing" textLength="116" x="1316" y="1436.6113">RepositoryFactory</text><rect fill="#E2E2F0" height="45.2813" rx="2.5" ry="2.5" style="stroke:#181818;stroke-width:0.5;" width="181" x="1449" y="36"/><text fill="#000000" font-family="sans-serif" font-size="14" font-style="italic" lengthAdjust="spacing" textLength="59" x="1510" y="55.6738">«factory»</text><text fill="#000000" font-family="sans-serif" font-size="14" lengthAdjust="spacing" textLength="167" x="1456" y="71.3145">factory :RepositoryFactory</text><rect fill="#E2E2F0" height="45.2813" rx="2.5" ry="2.5" style="stroke:#181818;stroke-width:0.5;" width="181" x="1449" y="1401.2969"/><text fill="#000000" font-family="sans-serif" font-size="14" font-style="italic" lengthAdjust="spacing" textLength="59" x="1510" y="1420.9707">«factory»</text><text fill="#000000" font-family="sans-serif" font-size="14" lengthAdjust="spacing" textLength="167" x="1456" y="1436.6113">factory :RepositoryFactory</text><text fill="#000000" font-family="sans-serif" font-size="14" font-style="italic" lengthAdjust="spacing" textLength="79" x="1657.5" y="63.6738">«repository»</text><text fill="#000000" font-family="sans-serif" font-size="14" lengthAdjust="spacing" textLength="114" x="1640" y="79.3145">CourseRepository</text><path d="M1682,15 C1682,5 1700,5 1700,5 C1700,5 1718,5 1718,15 L1718,41 C1718,51 1700,51 1700,51 C1700,51 1682,51 1682,41 L1682,15 " fill="#E2E2F0" style="stroke:#181818;stroke-width:1.5;"/><path d="M1682,15 C1682,25 1700,25 1700,25 C1700,25 1718,25 1718,15 " fill="none" style="stroke:#181818;stroke-width:1.5;"/><text fill="#000000" font-family="sans-serif" font-size="14" font-style="italic" lengthAdjust="spacing" textLength="79" x="1657.5" y="1413.9707">«repository»</text><text fill="#000000" font-family="sans-serif" font-size="14" lengthAdjust="spacing" textLength="114" x="1640" y="1429.6113">CourseRepository</text><path d="M1682,1442.5781 C1682,1432.5781 1700,1432.5781 1700,1432.5781 C1700,1432.5781 1718,1432.5781 1718,1442.5781 L1718,1468.5781 C1718,1478.5781 1700,1478.5781 1700,1478.5781 C1700,1478.5781 1682,1478.5781 1682,1468.5781 L1682,1442.5781 " fill="#E2E2F0" style="stroke:#181818;stroke-width:1.5;"/><path d="M1682,1442.5781 C1682,1452.5781 1700,1452.5781 1700,1452.5781 C1700,1452.5781 1718,1452.5781 1718,1442.5781 " fill="none" style="stroke:#181818;stroke-width:1.5;"/><text fill="#000000" font-family="sans-serif" font-size="14" font-style="italic" lengthAdjust="spacing" textLength="79" x="1789" y="63.6738">«repository»</text><text fill="#000000" font-family="sans-serif" font-size="14" lengthAdjust="spacing" textLength="117" x="1770" y="79.3145">StudentRepository</text><path d="M1813.5,15 C1813.5,5 1831.5,5 1831.5,5 C1831.5,5 1849.5,5 1849.5,15 L1849.5,41 C1849.5,51 1831.5,51 1831.5,51 C1831.5,51 1813.5,51 1813.5,41 L1813.5,15 " fill="#E2E2F0" style="stroke:#181818;stroke-width:1.5;"/><path d="M1813.5,15 C1813.5,25 1831.5,25 1831.5,25 C1831.5,25 1849.5,25 1849.5,15 " fill="none" style="stroke:#181818;stroke-width:1.5;"/><text fill="#000000" font-family="sans-serif" font-size="14" font-style="italic" lengthAdjust="spacing" textLength="79" x="1789" y="1413.9707">«repository»</text><text fill="#000000" font-family="sans-serif" font-size="14" lengthAdjust="spacing" textLength="117" x="1770" y="1429.6113">StudentRepository</text><path d="M1813.5,1442.5781 C1813.5,1432.5781 1831.5,1432.5781 1831.5,1432.5781 C1831.5,1432.5781 1849.5,1432.5781 1849.5,1442.5781 L1849.5,1468.5781 C1849.5,1478.5781 1831.5,1478.5781 1831.5,1478.5781 C1831.5,1478.5781 1813.5,1478.5781 1813.5,1468.5781 L1813.5,1442.5781 " fill="#E2E2F0" style="stroke:#181818;stroke-width:1.5;"/><path d="M1813.5,1442.5781 C1813.5,1452.5781 1831.5,1452.5781 1831.5,1452.5781 C1831.5,1452.5781 1849.5,1452.5781 1849.5,1442.5781 " fill="none" style="stroke:#181818;stroke-width:1.5;"/><text fill="#000000" font-family="sans-serif" font-size="14" font-style="italic" lengthAdjust="spacing" textLength="79" x="1924" y="63.6738">«repository»</text><text fill="#000000" font-family="sans-serif" font-size="14" lengthAdjust="spacing" textLength="121" x="1903" y="79.3145">TeacherRepository</text><path d="M1948.5,15 C1948.5,5 1966.5,5 1966.5,5 C1966.5,5 1984.5,5 1984.5,15 L1984.5,41 C1984.5,51 1966.5,51 1966.5,51 C1966.5,51 1948.5,51 1948.5,41 L1948.5,15 " fill="#E2E2F0" style="stroke:#181818;stroke-width:1.5;"/><path d="M1948.5,15 C1948.5,25 1966.5,25 1966.5,25 C1966.5,25 1984.5,25 1984.5,15 " fill="none" style="stroke:#181818;stroke-width:1.5;"/><text fill="#000000" font-family="sans-serif" font-size="14" font-style="italic" lengthAdjust="spacing" textLength="79" x="1924" y="1413.9707">«repository»</text><text fill="#000000" font-family="sans-serif" font-size="14" lengthAdjust="spacing" textLength="121" x="1903" y="1429.6113">TeacherRepository</text><path d="M1948.5,1442.5781 C1948.5,1432.5781 1966.5,1432.5781 1966.5,1432.5781 C1966.5,1432.5781 1984.5,1432.5781 1984.5,1442.5781 L1984.5,1468.5781 C1984.5,1478.5781 1966.5,1478.5781 1966.5,1478.5781 C1966.5,1478.5781 1948.5,1478.5781 1948.5,1468.5781 L1948.5,1442.5781 " fill="#E2E2F0" style="stroke:#181818;stroke-width:1.5;"/><path d="M1948.5,1442.5781 C1948.5,1452.5781 1966.5,1452.5781 1966.5,1452.5781 C1966.5,1452.5781 1984.5,1452.5781 1984.5,1442.5781 " fill="none" style="stroke:#181818;stroke-width:1.5;"/><rect fill="#FFFFFF" height="1292.0156" style="stroke:#181818;stroke-width:1.0;" width="10" x="17.5" y="92.2813"/><rect fill="#FFFFFF" height="1292.0156" style="stroke:#181818;stroke-width:1.0;" width="10" x="259.5" y="92.2813"/><rect fill="#FFFFFF" height="1214.4453" style="stroke:#181818;stroke-width:1.0;" width="10" x="484.5" y="141.3281"/><rect fill="#FFFFFF" height="71.4531" style="stroke:#181818;stroke-width:1.0;" width="10" x="684.5" y="169.8516"/><rect fill="#FFFFFF" height="28.5234" style="stroke:#181818;stroke-width:1.0;" width="10" x="841" y="293.3516"/><rect fill="#FFFFFF" height="28.5234" style="stroke:#181818;stroke-width:1.0;" width="10" x="841" y="735.4922"/><rect fill="#FFFFFF" height="342.2813" style="stroke:#181818;stroke-width:1.0;" width="10" x="1035" y="350.3984"/><rect fill="#FFFFFF" height="285.2344" style="stroke:#181818;stroke-width:1.0;" width="10" x="1035" y="792.5391"/><rect fill="#FFFFFF" height="199.6641" style="stroke:#181818;stroke-width:1.0;" width="10" x="1035" y="1120.5859"/><rect fill="#FFFFFF" height="57.0469" style="stroke:#181818;stroke-width:1.0;" width="10" x="1226" y="407.4453"/><rect fill="#FFFFFF" height="57.0469" style="stroke:#181818;stroke-width:1.0;" width="10" x="1226" y="821.0625"/><rect fill="#FFFFFF" height="57.0469" style="stroke:#181818;stroke-width:1.0;" width="10" x="1226" y="1149.1094"/><polygon fill="#181818" points="247.5,108.8047,257.5,112.8047,247.5,116.8047,251.5,112.8047" style="stroke:#181818;stroke-width:1.0;"/><line style="stroke:#181818;stroke-width:1.0;" x1="27.5" x2="253.5" y1="112.8047" y2="112.8047"/><text fill="#000000" font-family="sans-serif" font-size="13" font-weight="bold" lengthAdjust="spacing" textLength="7" x="34.5" y="108.0498">1</text><text fill="#000000" font-family="sans-serif" font-size="13" lengthAdjust="spacing" textLength="197" x="45.5" y="108.0498">selects listing of available courses</text><polygon fill="#181818" points="472.5,137.3281,482.5,141.3281,472.5,145.3281,476.5,141.3281" style="stroke:#181818;stroke-width:1.0;"/><line style="stroke:#181818;stroke-width:1.0;stroke-dasharray:2.0,2.0;" x1="269.5" x2="478.5" y1="141.3281" y2="141.3281"/><text fill="#000000" font-family="sans-serif" font-size="13" font-weight="bold" lengthAdjust="spacing" textLength="7" x="276.5" y="136.5732">2</text><text fill="#000000" font-family="sans-serif" font-size="13" lengthAdjust="spacing" textLength="185" x="287.5" y="136.5732">courseList = listCourseByUser()</text><polygon fill="#181818" points="672.5,165.8516,682.5,169.8516,672.5,173.8516,676.5,169.8516" style="stroke:#181818;stroke-width:1.0;"/><line style="stroke:#181818;stroke-width:1.0;" x1="494.5" x2="678.5" y1="169.8516" y2="169.8516"/><text fill="#000000" font-family="sans-serif" font-size="13" font-weight="bold" lengthAdjust="spacing" textLength="7" x="501.5" y="165.0967">3</text><text fill="#000000" font-family="sans-serif" font-size="13" lengthAdjust="spacing" textLength="160" x="512.5" y="165.0967">sysuser = getSystemUser()</text><rect fill="none" height="37.9297" style="stroke:#000000;stroke-width:1.5;" width="226" x="611" y="177.8516"/><path d="M611,177.8516 L673,177.8516 L673,183.8516 L663,193.8516 L611,193.8516 L611,177.8516 " fill="#EEEEEE" style="stroke:#000000;stroke-width:2.0;"/><text fill="#000000" font-family="sans-serif" font-size="13" font-weight="bold" lengthAdjust="spacing" textLength="17" x="624" y="191.6201">ref</text><text fill="#000000" font-family="sans-serif" font-size="12" lengthAdjust="spacing" textLength="218" x="615" y="208.7148">Sequence Diagram - SD_Authentication</text><polygon fill="#181818" points="505.5,237.3047,495.5,241.3047,505.5,245.3047,501.5,241.3047" style="stroke:#181818;stroke-width:1.0;"/><line style="stroke:#181818;stroke-width:1.0;stroke-dasharray:2.0,2.0;" x1="499.5" x2="688.5" y1="241.3047" y2="241.3047"/><text fill="#000000" font-family="sans-serif" font-size="13" font-weight="bold" lengthAdjust="spacing" textLength="7" x="511.5" y="236.5498">4</text><text fill="#000000" font-family="sans-serif" font-size="13" lengthAdjust="spacing" textLength="46" x="522.5" y="236.5498">sysuser</text><path d="M404,256.3047 L465,256.3047 L465,262.8281 L455,272.8281 L404,272.8281 L404,256.3047 " fill="#EEEEEE" style="stroke:#000000;stroke-width:1.5;"/><rect fill="none" height="1071.9453" style="stroke:#000000;stroke-width:1.5;" width="1636" x="404" y="256.3047"/><text fill="#000000" font-family="sans-serif" font-size="13" font-weight="bold" lengthAdjust="spacing" textLength="16" x="419" y="269.0732">alt</text><text fill="#000000" font-family="sans-serif" font-size="11" font-weight="bold" lengthAdjust="spacing" textLength="119" x="480" y="268.2627">[roleTypes = Student]</text><polygon fill="#181818" points="829,289.3516,839,293.3516,829,297.3516,833,293.3516" style="stroke:#181818;stroke-width:1.0;"/><line style="stroke:#181818;stroke-width:1.0;" x1="494.5" x2="835" y1="293.3516" y2="293.3516"/><text fill="#000000" font-family="sans-serif" font-size="13" font-weight="bold" lengthAdjust="spacing" textLength="7" x="501.5" y="288.5967">5</text><text fill="#000000" font-family="sans-serif" font-size="13" lengthAdjust="spacing" textLength="89" x="512.5" y="288.5967">sysuser.email()</text><polygon fill="#181818" points="505.5,317.875,495.5,321.875,505.5,325.875,501.5,321.875" style="stroke:#181818;stroke-width:1.0;"/><line style="stroke:#181818;stroke-width:1.0;stroke-dasharray:2.0,2.0;" x1="499.5" x2="845" y1="321.875" y2="321.875"/><text fill="#000000" font-family="sans-serif" font-size="13" font-weight="bold" lengthAdjust="spacing" textLength="7" x="511.5" y="317.1201">6</text><text fill="#000000" font-family="sans-serif" font-size="13" lengthAdjust="spacing" textLength="31" x="522.5" y="317.1201">email</text><polygon fill="#181818" points="1023,346.3984,1033,350.3984,1023,354.3984,1027,350.3984" style="stroke:#181818;stroke-width:1.0;"/><line style="stroke:#181818;stroke-width:1.0;" x1="494.5" x2="1029" y1="350.3984" y2="350.3984"/><text fill="#000000" font-family="sans-serif" font-size="13" font-weight="bold" lengthAdjust="spacing" textLength="7" x="501.5" y="345.6436">7</text><text fill="#000000" font-family="sans-serif" font-size="13" lengthAdjust="spacing" textLength="151" x="512.5" y="345.6436">listCoursesEnrolled(email)</text><polygon fill="#181818" points="1023,374.9219,1033,378.9219,1023,382.9219,1027,378.9219" style="stroke:#181818;stroke-width:1.0;"/><line style="stroke:#181818;stroke-width:1.0;" x1="494.5" x2="1029" y1="378.9219" y2="378.9219"/><text fill="#000000" font-family="sans-serif" font-size="13" font-weight="bold" lengthAdjust="spacing" textLength="7" x="501.5" y="374.167">8</text><text fill="#000000" font-family="sans-serif" font-size="13" lengthAdjust="spacing" textLength="124" x="512.5" y="374.167">listCoursesAvailable()</text><polygon fill="#181818" points="1214,403.4453,1224,407.4453,1214,411.4453,1218,407.4453" style="stroke:#181818;stroke-width:1.0;"/><line style="stroke:#181818;stroke-width:1.0;" x1="1045" x2="1220" y1="407.4453" y2="407.4453"/><text fill="#000000" font-family="sans-serif" font-size="13" font-weight="bold" lengthAdjust="spacing" textLength="7" x="1052" y="402.6904">9</text><text fill="#000000" font-family="sans-serif" font-size="13" lengthAdjust="spacing" textLength="130" x="1063" y="402.6904">factory = repositories()</text><polygon fill="#181818" points="1362,431.9688,1372,435.9688,1362,439.9688,1366,435.9688" style="stroke:#181818;stroke-width:1.0;"/><line style="stroke:#181818;stroke-width:1.0;" x1="1236" x2="1368" y1="435.9688" y2="435.9688"/><text fill="#000000" font-family="sans-serif" font-size="13" font-weight="bold" lengthAdjust="spacing" textLength="14" x="1243" y="431.2139">10</text><text fill="#000000" font-family="sans-serif" font-size="13" lengthAdjust="spacing" textLength="36" x="1261" y="431.2139">create</text><polygon fill="#181818" points="1056,460.4922,1046,464.4922,1056,468.4922,1052,464.4922" style="stroke:#181818;stroke-width:1.0;"/><line style="stroke:#181818;stroke-width:1.0;" x1="1050" x2="1230" y1="464.4922" y2="464.4922"/><text fill="#000000" font-family="sans-serif" font-size="13" font-weight="bold" lengthAdjust="spacing" textLength="14" x="1062" y="459.7373">11</text><text fill="#000000" font-family="sans-serif" font-size="13" lengthAdjust="spacing" textLength="39" x="1080" y="459.7373">factory</text><polygon fill="#181818" points="1527.5,489.0156,1537.5,493.0156,1527.5,497.0156,1531.5,493.0156" style="stroke:#181818;stroke-width:1.0;"/><line style="stroke:#181818;stroke-width:1.0;" x1="1045" x2="1533.5" y1="493.0156" y2="493.0156"/><text fill="#000000" font-family="sans-serif" font-size="13" font-weight="bold" lengthAdjust="spacing" textLength="14" x="1052" y="488.2607">12</text><text fill="#000000" font-family="sans-serif" font-size="13" lengthAdjust="spacing" textLength="199" x="1070" y="488.2607">repoStudent = studentRepository()</text><polygon fill="#181818" points="1056,517.5391,1046,521.5391,1056,525.5391,1052,521.5391" style="stroke:#181818;stroke-width:1.0;"/><line style="stroke:#181818;stroke-width:1.0;stroke-dasharray:2.0,2.0;" x1="1050" x2="1538.5" y1="521.5391" y2="521.5391"/><text fill="#000000" font-family="sans-serif" font-size="13" font-weight="bold" lengthAdjust="spacing" textLength="14" x="1062" y="516.7842">13</text><text fill="#000000" font-family="sans-serif" font-size="13" lengthAdjust="spacing" textLength="70" x="1080" y="516.7842">repoStudent</text><polygon fill="#181818" points="1819.5,546.0625,1829.5,550.0625,1819.5,554.0625,1823.5,550.0625" style="stroke:#181818;stroke-width:1.0;"/><line style="stroke:#181818;stroke-width:1.0;" x1="1045" x2="1825.5" y1="550.0625" y2="550.0625"/><text fill="#000000" font-family="sans-serif" font-size="13" font-weight="bold" lengthAdjust="spacing" textLength="14" x="1052" y="545.3076">14</text><text fill="#000000" font-family="sans-serif" font-size="13" lengthAdjust="spacing" textLength="153" x="1070" y="545.3076">findStudentByEmail(email)</text><polygon fill="#181818" points="1527.5,574.5859,1537.5,578.5859,1527.5,582.5859,1531.5,578.5859" style="stroke:#181818;stroke-width:1.0;"/><line style="stroke:#181818;stroke-width:1.0;" x1="1045" x2="1533.5" y1="578.5859" y2="578.5859"/><text fill="#000000" font-family="sans-serif" font-size="13" font-weight="bold" lengthAdjust="spacing" textLength="14" x="1052" y="573.8311">15</text><text fill="#000000" font-family="sans-serif" font-size="13" lengthAdjust="spacing" textLength="194" x="1070" y="573.8311">courseRepo = courseRepository()</text><polygon fill="#181818" points="1056,603.1094,1046,607.1094,1056,611.1094,1052,607.1094" style="stroke:#181818;stroke-width:1.0;"/><line style="stroke:#181818;stroke-width:1.0;stroke-dasharray:2.0,2.0;" x1="1050" x2="1538.5" y1="607.1094" y2="607.1094"/><text fill="#000000" font-family="sans-serif" font-size="13" font-weight="bold" lengthAdjust="spacing" textLength="14" x="1062" y="602.3545">16</text><text fill="#000000" font-family="sans-serif" font-size="13" lengthAdjust="spacing" textLength="69" x="1080" y="602.3545">courseRepo</text><polygon fill="#181818" points="1688,631.6328,1698,635.6328,1688,639.6328,1692,635.6328" style="stroke:#181818;stroke-width:1.0;"/><line style="stroke:#181818;stroke-width:1.0;" x1="1045" x2="1694" y1="635.6328" y2="635.6328"/><text fill="#000000" font-family="sans-serif" font-size="13" font-weight="bold" lengthAdjust="spacing" textLength="14" x="1052" y="630.8779">17</text><text fill="#000000" font-family="sans-serif" font-size="13" lengthAdjust="spacing" textLength="211" x="1070" y="630.8779">findEnrolledCoursesStudent(student)</text><polygon fill="#181818" points="1688,660.1563,1698,664.1563,1688,668.1563,1692,664.1563" style="stroke:#181818;stroke-width:1.0;"/><line style="stroke:#181818;stroke-width:1.0;" x1="1045" x2="1694" y1="664.1563" y2="664.1563"/><text fill="#000000" font-family="sans-serif" font-size="13" font-weight="bold" lengthAdjust="spacing" textLength="14" x="1052" y="659.4014">18</text><text fill="#000000" font-family="sans-serif" font-size="13" lengthAdjust="spacing" textLength="178" x="1070" y="659.4014">listCourseAvailableByStudent()</text><polygon fill="#181818" points="505.5,688.6797,495.5,692.6797,505.5,696.6797,501.5,692.6797" style="stroke:#181818;stroke-width:1.0;"/><line style="stroke:#181818;stroke-width:1.0;stroke-dasharray:2.0,2.0;" x1="499.5" x2="1039" y1="692.6797" y2="692.6797"/><text fill="#000000" font-family="sans-serif" font-size="13" font-weight="bold" lengthAdjust="spacing" textLength="14" x="511.5" y="687.9248">19</text><text fill="#000000" font-family="sans-serif" font-size="13" lengthAdjust="spacing" textLength="67" x="529.5" y="687.9248">coursesList</text><line style="stroke:#000000;stroke-width:1.0;stroke-dasharray:2.0,2.0;" x1="404" x2="2040" y1="701.6797" y2="701.6797"/><text fill="#000000" font-family="sans-serif" font-size="11" font-weight="bold" lengthAdjust="spacing" textLength="121" x="409" y="711.6377">[roleTypes = Teacher]</text><polygon fill="#181818" points="829,731.4922,839,735.4922,829,739.4922,833,735.4922" style="stroke:#181818;stroke-width:1.0;"/><line style="stroke:#181818;stroke-width:1.0;" x1="494.5" x2="835" y1="735.4922" y2="735.4922"/><text fill="#000000" font-family="sans-serif" font-size="13" font-weight="bold" lengthAdjust="spacing" textLength="14" x="501.5" y="730.7373">20</text><text fill="#000000" font-family="sans-serif" font-size="13" lengthAdjust="spacing" textLength="81" x="519.5" y="730.7373">sysuser.email</text><polygon fill="#181818" points="505.5,760.0156,495.5,764.0156,505.5,768.0156,501.5,764.0156" style="stroke:#181818;stroke-width:1.0;"/><line style="stroke:#181818;stroke-width:1.0;stroke-dasharray:2.0,2.0;" x1="499.5" x2="845" y1="764.0156" y2="764.0156"/><text fill="#000000" font-family="sans-serif" font-size="13" font-weight="bold" lengthAdjust="spacing" textLength="14" x="511.5" y="759.2607">21</text><text fill="#000000" font-family="sans-serif" font-size="13" lengthAdjust="spacing" textLength="31" x="529.5" y="759.2607">email</text><polygon fill="#181818" points="1023,788.5391,1033,792.5391,1023,796.5391,1027,792.5391" style="stroke:#181818;stroke-width:1.0;"/><line style="stroke:#181818;stroke-width:1.0;" x1="494.5" x2="1029" y1="792.5391" y2="792.5391"/><text fill="#000000" font-family="sans-serif" font-size="13" font-weight="bold" lengthAdjust="spacing" textLength="14" x="501.5" y="787.7842">22</text><text fill="#000000" font-family="sans-serif" font-size="13" lengthAdjust="spacing" textLength="159" x="519.5" y="787.7842">listCourseByTeacher(email)</text><polygon fill="#181818" points="1214,817.0625,1224,821.0625,1214,825.0625,1218,821.0625" style="stroke:#181818;stroke-width:1.0;"/><line style="stroke:#181818;stroke-width:1.0;" x1="1045" x2="1220" y1="821.0625" y2="821.0625"/><text fill="#000000" font-family="sans-serif" font-size="13" font-weight="bold" lengthAdjust="spacing" textLength="14" x="1052" y="816.3076">23</text><text fill="#000000" font-family="sans-serif" font-size="13" lengthAdjust="spacing" textLength="130" x="1070" y="816.3076">factory = repositories()</text><polygon fill="#181818" points="1362,845.5859,1372,849.5859,1362,853.5859,1366,849.5859" style="stroke:#181818;stroke-width:1.0;"/><line style="stroke:#181818;stroke-width:1.0;" x1="1236" x2="1368" y1="849.5859" y2="849.5859"/><text fill="#000000" font-family="sans-serif" font-size="13" font-weight="bold" lengthAdjust="spacing" textLength="14" x="1243" y="844.8311">24</text><text fill="#000000" font-family="sans-serif" font-size="13" lengthAdjust="spacing" textLength="36" x="1261" y="844.8311">create</text><polygon fill="#181818" points="1056,874.1094,1046,878.1094,1056,882.1094,1052,878.1094" style="stroke:#181818;stroke-width:1.0;"/><line style="stroke:#181818;stroke-width:1.0;" x1="1050" x2="1230" y1="878.1094" y2="878.1094"/><text fill="#000000" font-family="sans-serif" font-size="13" font-weight="bold" lengthAdjust="spacing" textLength="14" x="1062" y="873.3545">25</text><text fill="#000000" font-family="sans-serif" font-size="13" lengthAdjust="spacing" textLength="39" x="1080" y="873.3545">factory</text><polygon fill="#181818" points="1527.5,902.6328,1537.5,906.6328,1527.5,910.6328,1531.5,906.6328" style="stroke:#181818;stroke-width:1.0;"/><line style="stroke:#181818;stroke-width:1.0;" x1="1045" x2="1533.5" y1="906.6328" y2="906.6328"/><text fill="#000000" font-family="sans-serif" font-size="13" font-weight="bold" lengthAdjust="spacing" textLength="14" x="1052" y="901.8779">26</text><text fill="#000000" font-family="sans-serif" font-size="13" lengthAdjust="spacing" textLength="200" x="1070" y="901.8779">repoTeacher = teacherRepository()</text><polygon fill="#181818" points="1056,931.1563,1046,935.1563,1056,939.1563,1052,935.1563" style="stroke:#181818;stroke-width:1.0;"/><line style="stroke:#181818;stroke-width:1.0;stroke-dasharray:2.0,2.0;" x1="1050" x2="1538.5" y1="935.1563" y2="935.1563"/><text fill="#000000" font-family="sans-serif" font-size="13" font-weight="bold" lengthAdjust="spacing" textLength="14" x="1062" y="930.4014">27</text><text fill="#000000" font-family="sans-serif" font-size="13" lengthAdjust="spacing" textLength="71" x="1080" y="930.4014">repoTeacher</text><polygon fill="#181818" points="1954.5,959.6797,1964.5,963.6797,1954.5,967.6797,1958.5,963.6797" style="stroke:#181818;stroke-width:1.0;"/><line style="stroke:#181818;stroke-width:1.0;" x1="1045" x2="1960.5" y1="963.6797" y2="963.6797"/><text fill="#000000" font-family="sans-serif" font-size="13" font-weight="bold" lengthAdjust="spacing" textLength="14" x="1052" y="958.9248">28</text><text fill="#000000" font-family="sans-serif" font-size="13" lengthAdjust="spacing" textLength="131" x="1070" y="958.9248">teacherByEmail(email)</text><polygon fill="#181818" points="1527.5,988.2031,1537.5,992.2031,1527.5,996.2031,1531.5,992.2031" style="stroke:#181818;stroke-width:1.0;"/><line style="stroke:#181818;stroke-width:1.0;" x1="1045" x2="1533.5" y1="992.2031" y2="992.2031"/><text fill="#000000" font-family="sans-serif" font-size="13" font-weight="bold" lengthAdjust="spacing" textLength="14" x="1052" y="987.4482">29</text><text fill="#000000" font-family="sans-serif" font-size="13" lengthAdjust="spacing" textLength="194" x="1070" y="987.4482">courseRepo = courseRepository()</text><polygon fill="#181818" points="1056,1016.7266,1046,1020.7266,1056,1024.7266,1052,1020.7266" style="stroke:#181818;stroke-width:1.0;"/><line style="stroke:#181818;stroke-width:1.0;stroke-dasharray:2.0,2.0;" x1="1050" x2="1538.5" y1="1020.7266" y2="1020.7266"/><text fill="#000000" font-family="sans-serif" font-size="13" font-weight="bold" lengthAdjust="spacing" textLength="14" x="1062" y="1015.9717">30</text><text fill="#000000" font-family="sans-serif" font-size="13" lengthAdjust="spacing" textLength="69" x="1080" y="1015.9717">courseRepo</text><polygon fill="#181818" points="1688,1045.25,1698,1049.25,1688,1053.25,1692,1049.25" style="stroke:#181818;stroke-width:1.0;"/><line style="stroke:#181818;stroke-width:1.0;" x1="1045" x2="1694" y1="1049.25" y2="1049.25"/><text fill="#000000" font-family="sans-serif" font-size="13" font-weight="bold" lengthAdjust="spacing" textLength="14" x="1052" y="1044.4951">31</text><text fill="#000000" font-family="sans-serif" font-size="13" lengthAdjust="spacing" textLength="159" x="1070" y="1044.4951">coursesByTeacher(teacher)</text><polygon fill="#181818" points="505.5,1073.7734,495.5,1077.7734,505.5,1081.7734,501.5,1077.7734" style="stroke:#181818;stroke-width:1.0;"/><line style="stroke:#181818;stroke-width:1.0;stroke-dasharray:2.0,2.0;" x1="499.5" x2="1039" y1="1077.7734" y2="1077.7734"/><text fill="#000000" font-family="sans-serif" font-size="13" font-weight="bold" lengthAdjust="spacing" textLength="14" x="511.5" y="1073.0186">32</text><text fill="#000000" font-family="sans-serif" font-size="13" lengthAdjust="spacing" textLength="67" x="529.5" y="1073.0186">coursesList</text><line style="stroke:#000000;stroke-width:1.0;stroke-dasharray:2.0,2.0;" x1="404" x2="2040" y1="1086.7734" y2="1086.7734"/><text fill="#000000" font-family="sans-serif" font-size="11" font-weight="bold" lengthAdjust="spacing" textLength="124" x="409" y="1096.7314">[roleTypes = Manager]</text><polygon fill="#181818" points="1023,1116.5859,1033,1120.5859,1023,1124.5859,1027,1120.5859" style="stroke:#181818;stroke-width:1.0;"/><line style="stroke:#181818;stroke-width:1.0;" x1="494.5" x2="1029" y1="1120.5859" y2="1120.5859"/><text fill="#000000" font-family="sans-serif" font-size="13" font-weight="bold" lengthAdjust="spacing" textLength="14" x="501.5" y="1115.8311">33</text><text fill="#000000" font-family="sans-serif" font-size="13" lengthAdjust="spacing" textLength="73" x="519.5" y="1115.8311">listCourses()</text><polygon fill="#181818" points="1214,1145.1094,1224,1149.1094,1214,1153.1094,1218,1149.1094" style="stroke:#181818;stroke-width:1.0;"/><line style="stroke:#181818;stroke-width:1.0;" x1="1045" x2="1220" y1="1149.1094" y2="1149.1094"/><text fill="#000000" font-family="sans-serif" font-size="13" font-weight="bold" lengthAdjust="spacing" textLength="14" x="1052" y="1144.3545">34</text><text fill="#000000" font-family="sans-serif" font-size="13" lengthAdjust="spacing" textLength="130" x="1070" y="1144.3545">factory = repositories()</text><polygon fill="#181818" points="1362,1173.6328,1372,1177.6328,1362,1181.6328,1366,1177.6328" style="stroke:#181818;stroke-width:1.0;"/><line style="stroke:#181818;stroke-width:1.0;" x1="1236" x2="1368" y1="1177.6328" y2="1177.6328"/><text fill="#000000" font-family="sans-serif" font-size="13" font-weight="bold" lengthAdjust="spacing" textLength="14" x="1243" y="1172.8779">35</text><text fill="#000000" font-family="sans-serif" font-size="13" lengthAdjust="spacing" textLength="36" x="1261" y="1172.8779">create</text><polygon fill="#181818" points="1056,1202.1563,1046,1206.1563,1056,1210.1563,1052,1206.1563" style="stroke:#181818;stroke-width:1.0;"/><line style="stroke:#181818;stroke-width:1.0;" x1="1050" x2="1230" y1="1206.1563" y2="1206.1563"/><text fill="#000000" font-family="sans-serif" font-size="13" font-weight="bold" lengthAdjust="spacing" textLength="14" x="1062" y="1201.4014">36</text><text fill="#000000" font-family="sans-serif" font-size="13" lengthAdjust="spacing" textLength="39" x="1080" y="1201.4014">factory</text><polygon fill="#181818" points="1527.5,1230.6797,1537.5,1234.6797,1527.5,1238.6797,1531.5,1234.6797" style="stroke:#181818;stroke-width:1.0;"/><line style="stroke:#181818;stroke-width:1.0;" x1="1045" x2="1533.5" y1="1234.6797" y2="1234.6797"/><text fill="#000000" font-family="sans-serif" font-size="13" font-weight="bold" lengthAdjust="spacing" textLength="14" x="1052" y="1229.9248">37</text><text fill="#000000" font-family="sans-serif" font-size="13" lengthAdjust="spacing" textLength="194" x="1070" y="1229.9248">courseRepo = courseRepository()</text><polygon fill="#181818" points="1056,1259.2031,1046,1263.2031,1056,1267.2031,1052,1263.2031" style="stroke:#181818;stroke-width:1.0;"/><line style="stroke:#181818;stroke-width:1.0;stroke-dasharray:2.0,2.0;" x1="1050" x2="1538.5" y1="1263.2031" y2="1263.2031"/><text fill="#000000" font-family="sans-serif" font-size="13" font-weight="bold" lengthAdjust="spacing" textLength="14" x="1062" y="1258.4482">38</text><text fill="#000000" font-family="sans-serif" font-size="13" lengthAdjust="spacing" textLength="69" x="1080" y="1258.4482">courseRepo</text><polygon fill="#181818" points="1688,1287.7266,1698,1291.7266,1688,1295.7266,1692,1291.7266" style="stroke:#181818;stroke-width:1.0;"/><line style="stroke:#181818;stroke-width:1.0;" x1="1045" x2="1694" y1="1291.7266" y2="1291.7266"/><text fill="#000000" font-family="sans-serif" font-size="13" font-weight="bold" lengthAdjust="spacing" textLength="14" x="1052" y="1286.9717">39</text><text fill="#000000" font-family="sans-serif" font-size="13" lengthAdjust="spacing" textLength="73" x="1070" y="1286.9717">listCourses()</text><polygon fill="#181818" points="505.5,1316.25,495.5,1320.25,505.5,1324.25,501.5,1320.25" style="stroke:#181818;stroke-width:1.0;"/><line style="stroke:#181818;stroke-width:1.0;stroke-dasharray:2.0,2.0;" x1="499.5" x2="1039" y1="1320.25" y2="1320.25"/><text fill="#000000" font-family="sans-serif" font-size="13" font-weight="bold" lengthAdjust="spacing" textLength="14" x="511.5" y="1315.4951">40</text><text fill="#000000" font-family="sans-serif" font-size="13" lengthAdjust="spacing" textLength="67" x="529.5" y="1315.4951">coursesList</text><polygon fill="#181818" points="280.5,1351.7734,270.5,1355.7734,280.5,1359.7734,276.5,1355.7734" style="stroke:#181818;stroke-width:1.0;"/><line style="stroke:#181818;stroke-width:1.0;stroke-dasharray:2.0,2.0;" x1="274.5" x2="488.5" y1="1355.7734" y2="1355.7734"/><text fill="#000000" font-family="sans-serif" font-size="13" font-weight="bold" lengthAdjust="spacing" textLength="14" x="286.5" y="1351.0186">41</text><text fill="#000000" font-family="sans-serif" font-size="13" lengthAdjust="spacing" textLength="67" x="304.5" y="1351.0186">coursesList</text><polygon fill="#181818" points="33.5,1380.2969,23.5,1384.2969,33.5,1388.2969,29.5,1384.2969" style="stroke:#181818;stroke-width:1.0;"/><line style="stroke:#181818;stroke-width:1.0;stroke-dasharray:2.0,2.0;" x1="27.5" x2="263.5" y1="1384.2969" y2="1384.2969"/><text fill="#000000" font-family="sans-serif" font-size="13" font-weight="bold" lengthAdjust="spacing" textLength="14" x="39.5" y="1379.542">42</text><text fill="#000000" font-family="sans-serif" font-size="13" lengthAdjust="spacing" textLength="180" x="57.5" y="1379.542">presents available Courses List</text><!--MD5=[3f6f4770ae4fc881993a3e74135947f1]
@startuml

actor "User" as user
participant "ListCoursesUI" as UUI <<presentation>>
participant "ListCoursesController" as CCT <<application>>
participant "AuthenticationService" as auth <<service>>
participant "sysuser SystemUser" as sys
participant "listService:ListUserCourseService" as listS <<service>>
participant "PersistenceContext" as pc <<persistence>>
participant "RepositoryFactory" as repFac <<factory>>
participant "factory :RepositoryFactory" as fRepFac <<factory>>
database "CourseRepository" as courseRepo <<repository>>
database "StudentRepository" as studentRepo <<repository>>
database "TeacherRepository" as teacherRepo <<repository>>


autonumber
activate user

activate UUI
user -> UUI: selects listing of available courses
UUI - -> CCT: courseList = listCourseByUser()
activate CCT

CCT -> auth: sysuser = getSystemUser()
activate auth
ref over auth
Sequence Diagram - SD_Authentication
end
auth- -> CCT: sysuser
deactivate auth

alt roleTypes = Student
CCT->sys : sysuser.email()
activate sys
sys- ->CCT: email
deactivate sys
CCT -> listS: listCoursesEnrolled(email)
activate listS
CCT -> listS: listCoursesAvailable()
listS->pc: factory = repositories()
activate pc
pc->repFac: create
pc->listS: factory
deactivate pc
listS->fRepFac: repoStudent = studentRepository()
fRepFac- ->listS: repoStudent
listS->studentRepo: findStudentByEmail(email)
listS->fRepFac: courseRepo = courseRepository()
fRepFac- ->listS: courseRepo
listS->courseRepo: findEnrolledCoursesStudent(student)
listS->courseRepo: listCourseAvailableByStudent()
listS- ->CCT: coursesList
deactivate listS

else roleTypes = Teacher
CCT->sys : sysuser.email
activate sys
sys- ->CCT: email
deactivate sys
CCT -> listS: listCourseByTeacher(email)
activate listS
listS->pc: factory = repositories()
activate pc
pc->repFac: create
pc->listS: factory
deactivate pc
listS->fRepFac: repoTeacher = teacherRepository()
fRepFac- ->listS: repoTeacher
listS->teacherRepo: teacherByEmail(email)
listS->fRepFac: courseRepo = courseRepository()
fRepFac- ->listS: courseRepo
listS->courseRepo: coursesByTeacher(teacher)
listS- ->CCT: coursesList
deactivate listS

else roleTypes = Manager
CCT -> listS: listCourses()
activate listS
listS->pc: factory = repositories()
activate pc
pc->repFac: create
pc->listS: factory
deactivate pc

listS->fRepFac: courseRepo = courseRepository()
fRepFac- ->listS: courseRepo
listS->courseRepo: listCourses()
listS- ->CCT: coursesList
deactivate listS
end


deactivate courseRepo
CCT - -> UUI: coursesList
deactivate CCT
UUI - -> user: presents available Courses List
deactivate UUI
deactivate user
@enduml

PlantUML version 1.2022.12(Sun Oct 23 19:12:26 WEST 2022)
(GPL source distribution)
Java Runtime: OpenJDK Runtime Environment
JVM: OpenJDK 64-Bit Server VM
Default Encoding: Cp1252
Language: pt
Country: PT
--></g></svg>