<?xml version="1.0" encoding="UTF-8" standalone="no"?><svg xmlns="http://www.w3.org/2000/svg" xmlns:xlink="http://www.w3.org/1999/xlink" contentStyleType="text/css" height="964px" preserveAspectRatio="none" style="width:365px;height:964px;background:#FFFFFF;" version="1.1" viewBox="0 0 365 964" width="365px" zoomAndPan="magnify"><defs/><g><!--MD5=[3dcf69e4e87a10af00fce8354034ba4c]
cluster presentation--><g id="cluster_presentation"><path d="M95.5,6.0137 L186.5,6.0137 A3.75,3.75 0 0 1 189,8.5137 L196,30.6348 L268.5,30.6348 A2.5,2.5 0 0 1 271,33.1348 L271,141.5137 A2.5,2.5 0 0 1 268.5,144.0137 L95.5,144.0137 A2.5,2.5 0 0 1 93,141.5137 L93,8.5137 A2.5,2.5 0 0 1 95.5,6.0137 " fill="none" style="stroke:#000000;stroke-width:1.5;"/><line style="stroke:#000000;stroke-width:1.5;" x1="93" x2="196" y1="30.6348" y2="30.6348"/><text fill="#000000" font-family="sans-serif" font-size="14" font-weight="bold" lengthAdjust="spacing" textLength="90" x="97" y="23.1211">presentation</text></g><!--MD5=[3ff016c1aa5003d713567a073e2181a6]
cluster application--><g id="cluster_application"><path d="M50.5,168.0137 L128.5,168.0137 A3.75,3.75 0 0 1 131,170.5137 L138,192.6348 L313.5,192.6348 A2.5,2.5 0 0 1 316,195.1348 L316,285.5137 A2.5,2.5 0 0 1 313.5,288.0137 L50.5,288.0137 A2.5,2.5 0 0 1 48,285.5137 L48,170.5137 A2.5,2.5 0 0 1 50.5,168.0137 " fill="none" style="stroke:#000000;stroke-width:1.5;"/><line style="stroke:#000000;stroke-width:1.5;" x1="48" x2="138" y1="192.6348" y2="192.6348"/><text fill="#000000" font-family="sans-serif" font-size="14" font-weight="bold" lengthAdjust="spacing" textLength="77" x="52" y="185.1211">application</text></g><!--MD5=[7579d5565d2521d5936cec86ed3dadee]
cluster service--><g id="cluster_service"><path d="M50.5,312.0137 L104.5,312.0137 A3.75,3.75 0 0 1 107,314.5137 L114,336.6348 L313.5,336.6348 A2.5,2.5 0 0 1 316,339.1348 L316,429.5137 A2.5,2.5 0 0 1 313.5,432.0137 L50.5,432.0137 A2.5,2.5 0 0 1 48,429.5137 L48,314.5137 A2.5,2.5 0 0 1 50.5,312.0137 " fill="none" style="stroke:#000000;stroke-width:1.5;"/><line style="stroke:#000000;stroke-width:1.5;" x1="48" x2="114" y1="336.6348" y2="336.6348"/><text fill="#000000" font-family="sans-serif" font-size="14" font-weight="bold" lengthAdjust="spacing" textLength="53" x="52" y="329.1211">service</text></g><!--MD5=[0334151241c2df87d13997940bbf650c]
cluster persistence--><g id="cluster_persistence"><path d="M8.5,456.0137 L93.5,456.0137 A3.75,3.75 0 0 1 96,458.5137 L103,480.6348 L355.5,480.6348 A2.5,2.5 0 0 1 358,483.1348 L358,954.5137 A2.5,2.5 0 0 1 355.5,957.0137 L8.5,957.0137 A2.5,2.5 0 0 1 6,954.5137 L6,458.5137 A2.5,2.5 0 0 1 8.5,456.0137 " fill="none" style="stroke:#000000;stroke-width:1.5;"/><line style="stroke:#000000;stroke-width:1.5;" x1="6" x2="103" y1="480.6348" y2="480.6348"/><text fill="#000000" font-family="sans-serif" font-size="14" font-weight="bold" lengthAdjust="spacing" textLength="84" x="10" y="473.1211">persistence</text></g><!--MD5=[459e423f60aa8e047d3bce751b2e851d]
class StudentGradesUI--><g id="elem_StudentGradesUI"><rect codeLine="3" fill="#F1F1F1" height="85.2422" id="StudentGradesUI" rx="2.5" ry="2.5" style="stroke:#181818;stroke-width:0.5;" width="145" x="109.5" y="43.0137"/><ellipse cx="126.75" cy="59.0137" fill="#ADD1B2" rx="11" ry="11" style="stroke:#181818;stroke-width:1.0;"/><path d="M129.5156,54.8887 Q129.6719,54.6699 129.8594,54.5605 Q130.0469,54.4512 130.2656,54.4512 Q130.6406,54.4512 130.875,54.7168 Q131.1094,54.9668 131.1094,55.5762 L131.1094,57.0293 Q131.1094,57.6387 130.875,57.9043 Q130.6406,58.1699 130.2656,58.1699 Q129.9219,58.1699 129.7188,57.9668 Q129.5156,57.7793 129.4063,57.2637 Q129.3594,56.9043 129.1719,56.7168 Q128.8438,56.3418 128.2344,56.123 Q127.625,55.9043 127,55.9043 Q126.2344,55.9043 125.5938,56.2324 Q124.9688,56.5605 124.4688,57.3105 Q123.9844,58.0605 123.9844,59.0918 L123.9844,60.1855 Q123.9844,61.4199 124.875,62.248 Q125.7656,63.0605 127.3594,63.0605 Q128.2969,63.0605 128.9531,62.8105 Q129.3438,62.6543 129.7656,62.2168 Q130.0313,61.9512 130.1719,61.873 Q130.3281,61.7949 130.5313,61.7949 Q130.8594,61.7949 131.1094,62.0605 Q131.375,62.3105 131.375,62.6543 Q131.375,62.998 131.0313,63.4043 Q130.5313,63.9824 129.7344,64.3105 Q128.6563,64.7637 127.3594,64.7637 Q125.8438,64.7637 124.6406,64.1387 Q123.6563,63.6387 122.9688,62.5762 Q122.2813,61.498 122.2813,60.2168 L122.2813,59.0605 Q122.2813,57.7324 122.8906,56.5918 Q123.5156,55.4355 124.6094,54.8262 Q125.7031,54.2012 126.9375,54.2012 Q127.6719,54.2012 128.3125,54.373 Q128.9688,54.5293 129.5156,54.8887 Z " fill="#000000"/><text fill="#000000" font-family="sans-serif" font-size="14" lengthAdjust="spacing" textLength="108" x="141.25" y="64.8105">StudentGradesUI</text><line style="stroke:#181818;stroke-width:0.5;" x1="110.5" x2="253.5" y1="75.0137" y2="75.0137"/><line style="stroke:#181818;stroke-width:0.5;" x1="110.5" x2="253.5" y1="83.0137" y2="83.0137"/><ellipse cx="120.5" cy="97.8242" fill="#84BE84" rx="3" ry="3" style="stroke:#038048;stroke-width:1.0;"/><text fill="#000000" font-family="sans-serif" font-size="14" lengthAdjust="spacing" textLength="119" x="129.5" y="102.1211">doShow(): boolean</text><ellipse cx="120.5" cy="116.4453" fill="#84BE84" rx="3" ry="3" style="stroke:#038048;stroke-width:1.0;"/><text fill="#000000" font-family="sans-serif" font-size="14" lengthAdjust="spacing" textLength="109" x="129.5" y="120.7422">headline(): String</text></g><!--MD5=[887a20f6e70af302f37c8346884c4766]
class StudentGradeController--><g id="elem_StudentGradeController"><rect codeLine="10" fill="#F1F1F1" height="66.6211" id="StudentGradeController" rx="2.5" ry="2.5" style="stroke:#181818;stroke-width:0.5;" width="235" x="64.5" y="205.0137"/><ellipse cx="102.9" cy="221.0137" fill="#ADD1B2" rx="11" ry="11" style="stroke:#181818;stroke-width:1.0;"/><path d="M105.6656,216.8887 Q105.8219,216.6699 106.0094,216.5605 Q106.1969,216.4512 106.4156,216.4512 Q106.7906,216.4512 107.025,216.7168 Q107.2594,216.9668 107.2594,217.5762 L107.2594,219.0293 Q107.2594,219.6387 107.025,219.9043 Q106.7906,220.1699 106.4156,220.1699 Q106.0719,220.1699 105.8688,219.9668 Q105.6656,219.7793 105.5563,219.2637 Q105.5094,218.9043 105.3219,218.7168 Q104.9938,218.3418 104.3844,218.123 Q103.775,217.9043 103.15,217.9043 Q102.3844,217.9043 101.7438,218.2324 Q101.1188,218.5605 100.6188,219.3105 Q100.1344,220.0605 100.1344,221.0918 L100.1344,222.1855 Q100.1344,223.4199 101.025,224.248 Q101.9156,225.0605 103.5094,225.0605 Q104.4469,225.0605 105.1031,224.8105 Q105.4938,224.6543 105.9156,224.2168 Q106.1813,223.9512 106.3219,223.873 Q106.4781,223.7949 106.6813,223.7949 Q107.0094,223.7949 107.2594,224.0605 Q107.525,224.3105 107.525,224.6543 Q107.525,224.998 107.1813,225.4043 Q106.6813,225.9824 105.8844,226.3105 Q104.8063,226.7637 103.5094,226.7637 Q101.9938,226.7637 100.7906,226.1387 Q99.8063,225.6387 99.1188,224.5762 Q98.4313,223.498 98.4313,222.2168 L98.4313,221.0605 Q98.4313,219.7324 99.0406,218.5918 Q99.6656,217.4355 100.7594,216.8262 Q101.8531,216.2012 103.0875,216.2012 Q103.8219,216.2012 104.4625,216.373 Q105.1188,216.5293 105.6656,216.8887 Z " fill="#000000"/><text fill="#000000" font-family="sans-serif" font-size="14" lengthAdjust="spacing" textLength="151" x="122.1" y="226.8105">StudentGradeController</text><line style="stroke:#181818;stroke-width:0.5;" x1="65.5" x2="298.5" y1="237.0137" y2="237.0137"/><line style="stroke:#181818;stroke-width:0.5;" x1="65.5" x2="298.5" y1="245.0137" y2="245.0137"/><ellipse cx="75.5" cy="259.8242" fill="#84BE84" rx="3" ry="3" style="stroke:#038048;stroke-width:1.0;"/><text fill="#000000" font-family="sans-serif" font-size="14" lengthAdjust="spacing" textLength="209" x="84.5" y="264.1211">listStudentGrades(): List&lt;Grade&gt;</text></g><!--MD5=[036ebdf6a1be627257dc8957c09b1449]
class StudentManagementService--><g id="elem_StudentManagementService"><rect codeLine="16" fill="#F1F1F1" height="66.6211" id="StudentManagementService" rx="2.5" ry="2.5" style="stroke:#181818;stroke-width:0.5;" width="235" x="64.5" y="349.0137"/><ellipse cx="90.75" cy="365.0137" fill="#ADD1B2" rx="11" ry="11" style="stroke:#181818;stroke-width:1.0;"/><path d="M93.5156,360.8887 Q93.6719,360.6699 93.8594,360.5605 Q94.0469,360.4512 94.2656,360.4512 Q94.6406,360.4512 94.875,360.7168 Q95.1094,360.9668 95.1094,361.5762 L95.1094,363.0293 Q95.1094,363.6387 94.875,363.9043 Q94.6406,364.1699 94.2656,364.1699 Q93.9219,364.1699 93.7188,363.9668 Q93.5156,363.7793 93.4063,363.2637 Q93.3594,362.9043 93.1719,362.7168 Q92.8438,362.3418 92.2344,362.123 Q91.625,361.9043 91,361.9043 Q90.2344,361.9043 89.5938,362.2324 Q88.9688,362.5605 88.4688,363.3105 Q87.9844,364.0605 87.9844,365.0918 L87.9844,366.1855 Q87.9844,367.4199 88.875,368.248 Q89.7656,369.0605 91.3594,369.0605 Q92.2969,369.0605 92.9531,368.8105 Q93.3438,368.6543 93.7656,368.2168 Q94.0313,367.9512 94.1719,367.873 Q94.3281,367.7949 94.5313,367.7949 Q94.8594,367.7949 95.1094,368.0605 Q95.375,368.3105 95.375,368.6543 Q95.375,368.998 95.0313,369.4043 Q94.5313,369.9824 93.7344,370.3105 Q92.6563,370.7637 91.3594,370.7637 Q89.8438,370.7637 88.6406,370.1387 Q87.6563,369.6387 86.9688,368.5762 Q86.2813,367.498 86.2813,366.2168 L86.2813,365.0605 Q86.2813,363.7324 86.8906,362.5918 Q87.5156,361.4355 88.6094,360.8262 Q89.7031,360.2012 90.9375,360.2012 Q91.6719,360.2012 92.3125,360.373 Q92.9688,360.5293 93.5156,360.8887 Z " fill="#000000"/><text fill="#000000" font-family="sans-serif" font-size="14" lengthAdjust="spacing" textLength="178" x="107.25" y="370.8105">StudentManagementService</text><line style="stroke:#181818;stroke-width:0.5;" x1="65.5" x2="298.5" y1="381.0137" y2="381.0137"/><line style="stroke:#181818;stroke-width:0.5;" x1="65.5" x2="298.5" y1="389.0137" y2="389.0137"/><ellipse cx="75.5" cy="403.8242" fill="#84BE84" rx="3" ry="3" style="stroke:#038048;stroke-width:1.0;"/><text fill="#000000" font-family="sans-serif" font-size="14" lengthAdjust="spacing" textLength="209" x="84.5" y="408.1211">listStudentGrades(): List&lt;Grade&gt;</text></g><!--MD5=[e8c189551b7885b999ad7cefb30fc2a3]
class PersistenceContext--><g id="elem_PersistenceContext"><rect codeLine="22" fill="#F1F1F1" height="66.6211" id="PersistenceContext" rx="2.5" ry="2.5" style="stroke:#181818;stroke-width:0.5;" width="234" x="65" y="493.0137"/><ellipse cx="116.75" cy="509.0137" fill="#ADD1B2" rx="11" ry="11" style="stroke:#181818;stroke-width:1.0;"/><path d="M119.5156,504.8887 Q119.6719,504.6699 119.8594,504.5605 Q120.0469,504.4512 120.2656,504.4512 Q120.6406,504.4512 120.875,504.7168 Q121.1094,504.9668 121.1094,505.5762 L121.1094,507.0293 Q121.1094,507.6387 120.875,507.9043 Q120.6406,508.1699 120.2656,508.1699 Q119.9219,508.1699 119.7188,507.9668 Q119.5156,507.7793 119.4063,507.2637 Q119.3594,506.9043 119.1719,506.7168 Q118.8438,506.3418 118.2344,506.123 Q117.625,505.9043 117,505.9043 Q116.2344,505.9043 115.5938,506.2324 Q114.9688,506.5605 114.4688,507.3105 Q113.9844,508.0605 113.9844,509.0918 L113.9844,510.1855 Q113.9844,511.4199 114.875,512.248 Q115.7656,513.0605 117.3594,513.0605 Q118.2969,513.0605 118.9531,512.8105 Q119.3438,512.6543 119.7656,512.2168 Q120.0313,511.9512 120.1719,511.873 Q120.3281,511.7949 120.5313,511.7949 Q120.8594,511.7949 121.1094,512.0605 Q121.375,512.3105 121.375,512.6543 Q121.375,512.998 121.0313,513.4043 Q120.5313,513.9824 119.7344,514.3105 Q118.6563,514.7637 117.3594,514.7637 Q115.8438,514.7637 114.6406,514.1387 Q113.6563,513.6387 112.9688,512.5762 Q112.2813,511.498 112.2813,510.2168 L112.2813,509.0605 Q112.2813,507.7324 112.8906,506.5918 Q113.5156,505.4355 114.6094,504.8262 Q115.7031,504.2012 116.9375,504.2012 Q117.6719,504.2012 118.3125,504.373 Q118.9688,504.5293 119.5156,504.8887 Z " fill="#000000"/><text fill="#000000" font-family="sans-serif" font-size="14" lengthAdjust="spacing" textLength="122" x="137.25" y="514.8105">PersistenceContext</text><line style="stroke:#181818;stroke-width:0.5;" x1="66" x2="298" y1="525.0137" y2="525.0137"/><line style="stroke:#181818;stroke-width:0.5;" x1="66" x2="298" y1="533.0137" y2="533.0137"/><ellipse cx="76" cy="547.8242" fill="#84BE84" rx="3" ry="3" style="stroke:#038048;stroke-width:1.0;"/><text fill="#000000" font-family="sans-serif" font-size="14" lengthAdjust="spacing" textLength="208" x="85" y="552.1211">repositories(): RepositoryFactory</text></g><!--MD5=[48590afff58a68e2fcba47824d6f8a11]
class RepositoryFactory--><g id="elem_RepositoryFactory"><rect codeLine="26" fill="#F1F1F1" height="66.6211" id="RepositoryFactory" rx="2.5" ry="2.5" style="stroke:#181818;stroke-width:0.5;" width="276" x="44" y="620.0137"/><ellipse cx="119.75" cy="636.0137" fill="#B4A7E5" rx="11" ry="11" style="stroke:#181818;stroke-width:1.0;"/><path d="M120.7031,632.6543 L120.7031,639.3105 L122.4219,639.3105 Q123.0313,639.3105 123.2969,639.5449 Q123.5625,639.7793 123.5625,640.1699 Q123.5625,640.5449 123.2969,640.7793 Q123.0313,641.0137 122.4219,641.0137 L117.2813,641.0137 Q116.6719,641.0137 116.4063,640.7793 Q116.1406,640.5449 116.1406,640.1543 Q116.1406,639.7793 116.4063,639.5449 Q116.6719,639.3105 117.2813,639.3105 L119,639.3105 L119,632.6543 L117.2813,632.6543 Q116.6719,632.6543 116.4063,632.4199 Q116.1406,632.1855 116.1406,631.7949 Q116.1406,631.4199 116.4063,631.1855 Q116.6719,630.9512 117.2813,630.9512 L122.4219,630.9512 Q123.0313,630.9512 123.2969,631.1855 Q123.5625,631.4199 123.5625,631.7949 Q123.5625,632.1855 123.2969,632.4199 Q123.0313,632.6543 122.4219,632.6543 L120.7031,632.6543 Z " fill="#000000"/><text fill="#000000" font-family="sans-serif" font-size="14" font-style="italic" lengthAdjust="spacing" textLength="116" x="140.25" y="641.8105">RepositoryFactory</text><line style="stroke:#181818;stroke-width:0.5;" x1="45" x2="319" y1="652.0137" y2="652.0137"/><line style="stroke:#181818;stroke-width:0.5;" x1="45" x2="319" y1="660.0137" y2="660.0137"/><ellipse cx="55" cy="674.8242" fill="#84BE84" rx="3" ry="3" style="stroke:#038048;stroke-width:1.0;"/><text fill="#000000" font-family="sans-serif" font-size="14" lengthAdjust="spacing" textLength="250" x="64" y="679.1211">studentRepository(): StudentRepository</text></g><!--MD5=[fa3e5eb5fedffd174e4201d687b4ebcf]
class StudentRepository--><g id="elem_StudentRepository"><rect codeLine="30" fill="#F1F1F1" height="66.6211" id="StudentRepository" rx="2.5" ry="2.5" style="stroke:#181818;stroke-width:0.5;" width="319" x="22.5" y="747.0137"/><ellipse cx="119.25" cy="763.0137" fill="#B4A7E5" rx="11" ry="11" style="stroke:#181818;stroke-width:1.0;"/><path d="M120.2031,759.6543 L120.2031,766.3105 L121.9219,766.3105 Q122.5313,766.3105 122.7969,766.5449 Q123.0625,766.7793 123.0625,767.1699 Q123.0625,767.5449 122.7969,767.7793 Q122.5313,768.0137 121.9219,768.0137 L116.7813,768.0137 Q116.1719,768.0137 115.9063,767.7793 Q115.6406,767.5449 115.6406,767.1543 Q115.6406,766.7793 115.9063,766.5449 Q116.1719,766.3105 116.7813,766.3105 L118.5,766.3105 L118.5,759.6543 L116.7813,759.6543 Q116.1719,759.6543 115.9063,759.4199 Q115.6406,759.1855 115.6406,758.7949 Q115.6406,758.4199 115.9063,758.1855 Q116.1719,757.9512 116.7813,757.9512 L121.9219,757.9512 Q122.5313,757.9512 122.7969,758.1855 Q123.0625,758.4199 123.0625,758.7949 Q123.0625,759.1855 122.7969,759.4199 Q122.5313,759.6543 121.9219,759.6543 L120.2031,759.6543 Z " fill="#000000"/><text fill="#000000" font-family="sans-serif" font-size="14" font-style="italic" lengthAdjust="spacing" textLength="117" x="139.75" y="768.8105">StudentRepository</text><line style="stroke:#181818;stroke-width:0.5;" x1="23.5" x2="340.5" y1="779.0137" y2="779.0137"/><line style="stroke:#181818;stroke-width:0.5;" x1="23.5" x2="340.5" y1="787.0137" y2="787.0137"/><ellipse cx="33.5" cy="801.8242" fill="#84BE84" rx="3" ry="3" style="stroke:#038048;stroke-width:1.0;"/><text fill="#000000" font-family="sans-serif" font-size="14" lengthAdjust="spacing" textLength="293" x="42.5" y="806.1211">findStudentByEmail(Student: student): Student</text></g><!--MD5=[85c78933e1d70bbc9863a91271c01cb9]
class JpaStudentRepository--><g id="elem_JpaStudentRepository"><rect codeLine="34" fill="#F1F1F1" height="66.6211" id="JpaStudentRepository" rx="2.5" ry="2.5" style="stroke:#181818;stroke-width:0.5;" width="319" x="22.5" y="874.0137"/><ellipse cx="108.25" cy="890.0137" fill="#ADD1B2" rx="11" ry="11" style="stroke:#181818;stroke-width:1.0;"/><path d="M111.0156,885.8887 Q111.1719,885.6699 111.3594,885.5605 Q111.5469,885.4512 111.7656,885.4512 Q112.1406,885.4512 112.375,885.7168 Q112.6094,885.9668 112.6094,886.5762 L112.6094,888.0293 Q112.6094,888.6387 112.375,888.9043 Q112.1406,889.1699 111.7656,889.1699 Q111.4219,889.1699 111.2188,888.9668 Q111.0156,888.7793 110.9063,888.2637 Q110.8594,887.9043 110.6719,887.7168 Q110.3438,887.3418 109.7344,887.123 Q109.125,886.9043 108.5,886.9043 Q107.7344,886.9043 107.0938,887.2324 Q106.4688,887.5605 105.9688,888.3105 Q105.4844,889.0605 105.4844,890.0918 L105.4844,891.1855 Q105.4844,892.4199 106.375,893.248 Q107.2656,894.0605 108.8594,894.0605 Q109.7969,894.0605 110.4531,893.8105 Q110.8438,893.6543 111.2656,893.2168 Q111.5313,892.9512 111.6719,892.873 Q111.8281,892.7949 112.0313,892.7949 Q112.3594,892.7949 112.6094,893.0605 Q112.875,893.3105 112.875,893.6543 Q112.875,893.998 112.5313,894.4043 Q112.0313,894.9824 111.2344,895.3105 Q110.1563,895.7637 108.8594,895.7637 Q107.3438,895.7637 106.1406,895.1387 Q105.1563,894.6387 104.4688,893.5762 Q103.7813,892.498 103.7813,891.2168 L103.7813,890.0605 Q103.7813,888.7324 104.3906,887.5918 Q105.0156,886.4355 106.1094,885.8262 Q107.2031,885.2012 108.4375,885.2012 Q109.1719,885.2012 109.8125,885.373 Q110.4688,885.5293 111.0156,885.8887 Z " fill="#000000"/><text fill="#000000" font-family="sans-serif" font-size="14" lengthAdjust="spacing" textLength="139" x="128.75" y="895.8105">JpaStudentRepository</text><line style="stroke:#181818;stroke-width:0.5;" x1="23.5" x2="340.5" y1="906.0137" y2="906.0137"/><line style="stroke:#181818;stroke-width:0.5;" x1="23.5" x2="340.5" y1="914.0137" y2="914.0137"/><ellipse cx="33.5" cy="928.8242" fill="#84BE84" rx="3" ry="3" style="stroke:#038048;stroke-width:1.0;"/><text fill="#000000" font-family="sans-serif" font-size="14" lengthAdjust="spacing" textLength="293" x="42.5" y="933.1211">findStudentByEmail(Student: student): Student</text></g><!--MD5=[1c816c9a2ca8f93b4473fb8e20f53b6b]
reverse link StudentRepository to JpaStudentRepository--><g id="link_StudentRepository_JpaStudentRepository"><path codeLine="33" d="M182,834.2137 C182,847.6237 182,861.6437 182,873.7237 " fill="none" id="StudentRepository-backto-JpaStudentRepository" style="stroke:#181818;stroke-width:1.0;"/><polygon fill="none" points="175,834.0337,182,814.0337,189,834.0337,175,834.0337" style="stroke:#181818;stroke-width:1.0;"/></g><!--MD5=[8980141d5980ff4484cb14cd89ca8b02]
link StudentGradesUI to StudentGradeController--><g id="link_StudentGradesUI_StudentGradeController"><path codeLine="41" d="M182,128.1737 C182,150.4837 182,177.7537 182,199.4837 " fill="none" id="StudentGradesUI-to-StudentGradeController" style="stroke:#181818;stroke-width:1.0;"/><polygon fill="#181818" points="182,204.5937,186,195.5937,182,199.5937,178,195.5937,182,204.5937" style="stroke:#181818;stroke-width:1.0;"/></g><!--MD5=[7b2d423b7d997d04ab3c85fa1dced542]
link StudentGradeController to StudentManagementService--><g id="link_StudentGradeController_StudentManagementService"><path codeLine="42" d="M182,272.0937 C182,293.3137 182,321.0937 182,343.3537 " fill="none" id="StudentGradeController-to-StudentManagementService" style="stroke:#181818;stroke-width:1.0;"/><polygon fill="#181818" points="182,348.5937,186,339.5937,182,343.5937,178,339.5937,182,348.5937" style="stroke:#181818;stroke-width:1.0;"/></g><!--MD5=[8155b1deb1fad281637fdf4637722aa9]
link StudentManagementService to PersistenceContext--><g id="link_StudentManagementService_PersistenceContext"><path codeLine="43" d="M182,416.0937 C182,437.3137 182,465.0937 182,487.3537 " fill="none" id="StudentManagementService-to-PersistenceContext" style="stroke:#181818;stroke-width:1.0;"/><polygon fill="#181818" points="182,492.5937,186,483.5937,182,487.5937,178,483.5937,182,492.5937" style="stroke:#181818;stroke-width:1.0;"/></g><!--MD5=[754b775031405e096442b27febffa290]
link PersistenceContext to RepositoryFactory--><g id="link_PersistenceContext_RepositoryFactory"><path codeLine="44" d="M182,560.0337 C182,576.6837 182,597.0537 182,614.4337 " fill="none" id="PersistenceContext-to-RepositoryFactory" style="stroke:#181818;stroke-width:1.0;"/><polygon fill="#181818" points="182,619.7237,186,610.7237,182,614.7237,178,610.7237,182,619.7237" style="stroke:#181818;stroke-width:1.0;"/></g><!--MD5=[02f2aec9ae17e782bb5cf9c0b03879cb]
link RepositoryFactory to StudentRepository--><g id="link_RepositoryFactory_StudentRepository"><path codeLine="45" d="M182,687.0337 C182,703.6837 182,724.0537 182,741.4337 " fill="none" id="RepositoryFactory-to-StudentRepository" style="stroke:#181818;stroke-width:1.0;"/><polygon fill="#181818" points="182,746.7237,186,737.7237,182,741.7237,178,737.7237,182,746.7237" style="stroke:#181818;stroke-width:1.0;"/></g><!--MD5=[f6e1e5ae6d9c2e3a081cc08223fc7c31]
@startuml

package presentation {
  class StudentGradesUI {
    + doShow(): boolean
     + headline(): String
  }
}

package application {
  class StudentGradeController {
    + listStudentGrades(): List<Grade>
  }
}

package service {
  class StudentManagementService {
    + listStudentGrades(): List<Grade>
  }
}

package persistence {
  class PersistenceContext {
    + repositories(): RepositoryFactory
  }

  interface RepositoryFactory {
    + studentRepository(): StudentRepository
  }

  interface StudentRepository {
    + findStudentByEmail(Student: student): Student
  }
  JpaStudentRepository -up-|> StudentRepository
  class JpaStudentRepository {
      + findStudentByEmail(Student: student): Student
    }

}


StudentGradesUI - -> StudentGradeController
StudentGradeController - -> StudentManagementService
StudentManagementService - -> PersistenceContext
PersistenceContext - ->RepositoryFactory
RepositoryFactory - -> StudentRepository
@enduml

PlantUML version 1.2022.12(Sun Oct 23 19:12:26 WEST 2022)
(GPL source distribution)
Java Runtime: OpenJDK Runtime Environment
JVM: OpenJDK 64-Bit Server VM
Default Encoding: Cp1252
Language: pt
Country: PT
--></g></svg>