<?xml version="1.0" encoding="UTF-8" standalone="no"?><svg xmlns="http://www.w3.org/2000/svg" xmlns:xlink="http://www.w3.org/1999/xlink" contentStyleType="text/css" height="249px" preserveAspectRatio="none" style="width:253px;height:249px;background:#FFFFFF;" version="1.1" viewBox="0 0 253 249" width="253px" zoomAndPan="magnify"><defs/><g><line style="stroke:#181818;stroke-width:0.5;stroke-dasharray:5.0,5.0;" x1="32" x2="32" y1="83.6211" y2="166.2031"/><line style="stroke:#181818;stroke-width:0.5;stroke-dasharray:5.0,5.0;" x1="217.5" x2="217.5" y1="83.6211" y2="166.2031"/><text fill="#000000" font-family="sans-serif" font-size="14" lengthAdjust="spacing" textLength="49" x="5" y="80.1074">Student</text><ellipse cx="32.5" cy="13.5" fill="#E2E2F0" rx="8" ry="8" style="stroke:#181818;stroke-width:0.5;"/><path d="M32.5,21.5 L32.5,48.5 M19.5,29.5 L45.5,29.5 M32.5,48.5 L19.5,63.5 M32.5,48.5 L45.5,63.5 " fill="none" style="stroke:#181818;stroke-width:0.5;"/><text fill="#000000" font-family="sans-serif" font-size="14" lengthAdjust="spacing" textLength="49" x="5" y="180.3105">Student</text><ellipse cx="32.5" cy="192.3242" fill="#E2E2F0" rx="8" ry="8" style="stroke:#181818;stroke-width:0.5;"/><path d="M32.5,200.3242 L32.5,227.3242 M19.5,208.3242 L45.5,208.3242 M32.5,227.3242 L19.5,242.3242 M32.5,227.3242 L45.5,242.3242 " fill="none" style="stroke:#181818;stroke-width:0.5;"/><rect fill="#E2E2F0" height="32.6211" rx="2.5" ry="2.5" style="stroke:#181818;stroke-width:0.5;" width="60" x="187.5" y="50"/><text fill="#000000" font-family="sans-serif" font-size="14" lengthAdjust="spacing" textLength="46" x="194.5" y="72.1074">System</text><rect fill="#E2E2F0" height="32.6211" rx="2.5" ry="2.5" style="stroke:#181818;stroke-width:0.5;" width="60" x="187.5" y="165.2031"/><text fill="#000000" font-family="sans-serif" font-size="14" lengthAdjust="spacing" textLength="46" x="194.5" y="187.3105">System</text><polygon fill="#181818" points="205.5,112.9121,215.5,116.9121,205.5,120.9121,209.5,116.9121" style="stroke:#181818;stroke-width:1.0;"/><line style="stroke:#181818;stroke-width:1.0;" x1="32.5" x2="211.5" y1="116.9121" y2="116.9121"/><text fill="#000000" font-family="sans-serif" font-size="13" font-weight="bold" lengthAdjust="spacing" textLength="7" x="39.5" y="111.6494">1</text><text fill="#000000" font-family="sans-serif" font-size="13" lengthAdjust="spacing" textLength="150" x="50.5" y="111.6494">Requests listing of grades</text><polygon fill="#181818" points="43.5,144.2031,33.5,148.2031,43.5,152.2031,39.5,148.2031" style="stroke:#181818;stroke-width:1.0;"/><line style="stroke:#181818;stroke-width:1.0;stroke-dasharray:2.0,2.0;" x1="37.5" x2="216.5" y1="148.2031" y2="148.2031"/><text fill="#000000" font-family="sans-serif" font-size="13" font-weight="bold" lengthAdjust="spacing" textLength="7" x="49.5" y="142.9404">2</text><text fill="#000000" font-family="sans-serif" font-size="13" lengthAdjust="spacing" textLength="85" x="60.5" y="142.9404">Lists of grades</text><!--MD5=[587daf4d3292429bfa555f4a21662d45]
@startuml
'https://plantuml.com/sequence-diagram

actor Student as user
participant System as sys

autonumber

user -> sys: Requests listing of grades
sys - -> user: Lists of grades

@enduml

@startuml

actor Student as user
participant System as sys

autonumber

user -> sys: Requests listing of grades
sys - -> user: Lists of grades

@enduml

PlantUML version 1.2022.12(Sun Oct 23 19:12:26 WEST 2022)
(GPL source distribution)
Java Runtime: OpenJDK Runtime Environment
JVM: OpenJDK 64-Bit Server VM
Default Encoding: Cp1252
Language: pt
Country: PT
--></g></svg>