<?xml version="1.0" encoding="us-ascii" standalone="no"?><svg xmlns="http://www.w3.org/2000/svg" xmlns:xlink="http://www.w3.org/1999/xlink" contentStyleType="text/css" height="264px" preserveAspectRatio="none" style="width:1250px;height:264px;background:#FFFFFF;" version="1.1" viewBox="0 0 1250 264" width="1250px" zoomAndPan="magnify"><defs/><g><text fill="#000000" font-family="sans-serif" font-size="14" font-weight="bold" lengthAdjust="spacing" textLength="163" x="536.5" y="23.5352">Domain Driven Design</text><!--cluster <<Aggregate>> Course--><g id="cluster_&lt;&lt;Aggregate&gt;&gt; Course"><rect fill="none" height="214.51" rx="2.5" ry="2.5" style="stroke:#181818;stroke-width:1.0;" width="1237" x="7" y="44.4883"/><text fill="#000000" font-family="sans-serif" font-size="14" font-weight="bold" lengthAdjust="spacing" textLength="144" x="553.5" y="60.0234">&#171;Aggregate&#187; Course</text></g><!--class Course--><g id="elem_Course"><rect codeLine="11" fill="#F1F1F1" height="54.7539" id="Course" rx="2.5" ry="2.5" style="stroke:#181818;stroke-width:0.5;" width="81" x="575.5" y="79.4883"/><ellipse cx="590.5" cy="106.8652" fill="#ADD1B2" rx="11" ry="11" style="stroke:#181818;stroke-width:1.0;"/><path d="M594.6143,112.8652 L586.8945,112.8652 L586.8945,100.4722 L594.6143,100.4722 L594.6143,102.6304 L589.3433,102.6304 L589.3433,105.3032 L594.1162,105.3032 L594.1162,107.4614 L589.3433,107.4614 L589.3433,110.707 L594.6143,110.707 Z " fill="#000000"/><text fill="#000000" font-family="sans-serif" font-size="12" font-style="italic" lengthAdjust="spacing" textLength="38" x="610" y="96.0898">&#171;Root&#187;</text><text fill="#000000" font-family="sans-serif" font-size="12" font-style="italic" lengthAdjust="spacing" textLength="43" x="607.5" y="110.2227">&#171;Entity&#187;</text><text fill="#000000" font-family="sans-serif" font-size="14" lengthAdjust="spacing" textLength="49" x="604.5" y="126.2891">Course</text></g><g id="elem_Id"><rect fill="#F1F1F1" height="48.7539" style="stroke:#181818;stroke-width:0.5;" width="96" x="23" y="194.2483"/><text fill="#000000" font-family="sans-serif" font-size="12" font-style="italic" lengthAdjust="spacing" textLength="86" x="28" y="205.8498">&#171;Value Object&#187;</text><text fill="#000000" font-family="sans-serif" font-size="12" font-style="italic" lengthAdjust="spacing" textLength="54" x="44" y="219.9827">&#171;Identify&#187;</text><text fill="#000000" font-family="sans-serif" font-size="14" lengthAdjust="spacing" textLength="13" x="64.5" y="238.0491">Id</text></g><g id="elem_CourseState"><rect fill="#F1F1F1" height="34.6211" style="stroke:#181818;stroke-width:0.5;" width="97" x="153.5" y="201.3083"/><text fill="#000000" font-family="sans-serif" font-size="12" font-style="italic" lengthAdjust="spacing" textLength="86" x="159" y="212.9098">&#171;Value Object&#187;</text><text fill="#000000" font-family="sans-serif" font-size="14" lengthAdjust="spacing" textLength="83" x="160.5" y="230.9763">CourseState</text></g><g id="elem_CourseEnrollmentState"><rect fill="#F1F1F1" height="34.6211" style="stroke:#181818;stroke-width:0.5;" width="172" x="285" y="201.3083"/><text fill="#000000" font-family="sans-serif" font-size="12" font-style="italic" lengthAdjust="spacing" textLength="86" x="328" y="212.9098">&#171;Value Object&#187;</text><text fill="#000000" font-family="sans-serif" font-size="14" lengthAdjust="spacing" textLength="158" x="292" y="230.9763">CourseEnrollmentState</text></g><g id="elem_Edition"><rect fill="#F1F1F1" height="34.6211" style="stroke:#181818;stroke-width:0.5;" width="96" x="492" y="201.3083"/><text fill="#000000" font-family="sans-serif" font-size="12" font-style="italic" lengthAdjust="spacing" textLength="86" x="497" y="212.9098">&#171;Value Object&#187;</text><text fill="#000000" font-family="sans-serif" font-size="14" lengthAdjust="spacing" textLength="48" x="516" y="230.9763">Edition</text></g><g id="elem_CourseDescription"><rect fill="#F1F1F1" height="34.6211" style="stroke:#181818;stroke-width:0.5;" width="141" x="622.5" y="201.3083"/><text fill="#000000" font-family="sans-serif" font-size="12" font-style="italic" lengthAdjust="spacing" textLength="86" x="650" y="212.9098">&#171;Value Object&#187;</text><text fill="#000000" font-family="sans-serif" font-size="14" lengthAdjust="spacing" textLength="127" x="629.5" y="230.9763">CourseDescription</text></g><g id="elem_CourseTitle"><rect fill="#F1F1F1" height="34.6211" style="stroke:#181818;stroke-width:0.5;" width="96" x="798" y="201.3083"/><text fill="#000000" font-family="sans-serif" font-size="12" font-style="italic" lengthAdjust="spacing" textLength="86" x="803" y="212.9098">&#171;Value Object&#187;</text><text fill="#000000" font-family="sans-serif" font-size="14" lengthAdjust="spacing" textLength="79" x="806.5" y="230.9763">CourseTitle</text></g><g id="elem_ExamsList"><rect fill="#F1F1F1" height="34.6211" style="stroke:#181818;stroke-width:0.5;" width="96" x="929" y="201.3083"/><text fill="#000000" font-family="sans-serif" font-size="12" font-style="italic" lengthAdjust="spacing" textLength="86" x="934" y="212.9098">&#171;Value Object&#187;</text><text fill="#000000" font-family="sans-serif" font-size="14" lengthAdjust="spacing" textLength="68" x="943" y="230.9763">ExamsList</text></g><g id="elem_CourseEnrollmentsList"><rect fill="#F1F1F1" height="34.6211" style="stroke:#181818;stroke-width:0.5;" width="168" x="1060" y="201.3083"/><text fill="#000000" font-family="sans-serif" font-size="12" font-style="italic" lengthAdjust="spacing" textLength="86" x="1101" y="212.9098">&#171;Value Object&#187;</text><text fill="#000000" font-family="sans-serif" font-size="14" lengthAdjust="spacing" textLength="154" x="1067" y="230.9763">CourseEnrollmentsList</text></g><!--link Course to CourseTitle--><g id="link_Course_CourseTitle"><path codeLine="21" d="M656.85,120.9983 C722.95,120.9983 846,120.9983 846,120.9983 C846,120.9983 846,195.1683 846,195.1683 " fill="none" id="Course-to-CourseTitle" style="stroke:#181818;stroke-width:1.0;"/><polygon fill="#181818" points="846,200.1683,850,191.1683,846,195.1683,842,191.1683,846,200.1683" style="stroke:#181818;stroke-width:1.0;"/><text fill="#000000" font-family="sans-serif" font-size="13" lengthAdjust="spacing" textLength="33" x="754.51" y="117.5666">has a</text><text fill="#000000" font-family="sans-serif" font-size="13" lengthAdjust="spacing" textLength="8" x="664.5586" y="119.7334">1</text><text fill="#000000" font-family="sans-serif" font-size="13" lengthAdjust="spacing" textLength="8" x="836.675" y="190.5232">1</text></g><!--link Course to Id--><g id="link_Course_Id"><path codeLine="22" d="M579.67,134.7083 C579.67,161.5083 579.67,197.9983 579.67,197.9983 C579.67,197.9983 125.31,197.9983 125.31,197.9983 " fill="none" id="Course-to-Id" style="stroke:#181818;stroke-width:1.0;"/><polygon fill="#181818" points="120.31,197.9983,129.31,201.9983,125.31,197.9983,129.31,193.9983,120.31,197.9983" style="stroke:#181818;stroke-width:1.0;"/><text fill="#000000" font-family="sans-serif" font-size="13" lengthAdjust="spacing" textLength="33" x="350.14" y="194.5666">has a</text><text fill="#000000" font-family="sans-serif" font-size="13" lengthAdjust="spacing" textLength="8" x="563.3519" y="154.5982">1</text><text fill="#000000" font-family="sans-serif" font-size="13" lengthAdjust="spacing" textLength="8" x="126.993" y="191.4583">1</text></g><!--link Course to CourseDescription--><g id="link_Course_CourseDescription"><path codeLine="23" d="M639.5,134.4883 C639.5,134.4883 639.5,195.0583 639.5,195.0583 " fill="none" id="Course-to-CourseDescription" style="stroke:#181818;stroke-width:1.0;"/><polygon fill="#181818" points="639.5,200.0583,643.5,191.0583,639.5,195.0583,635.5,191.0583,639.5,200.0583" style="stroke:#181818;stroke-width:1.0;"/><text fill="#000000" font-family="sans-serif" font-size="13" lengthAdjust="spacing" textLength="33" x="605.5" y="178.3466">has a</text><text fill="#000000" font-family="sans-serif" font-size="13" lengthAdjust="spacing" textLength="8" x="635.7656" y="154.7738">1</text><text fill="#000000" font-family="sans-serif" font-size="13" lengthAdjust="spacing" textLength="8" x="613.1719" y="190.6881">1</text></g><!--link Course to CourseState--><g id="link_Course_CourseState"><path codeLine="24" d="M575.17,97.9983 C470.73,97.9983 202,97.9983 202,97.9983 C202,97.9983 202,194.8183 202,194.8183 " fill="none" id="Course-to-CourseState" style="stroke:#181818;stroke-width:1.0;"/><polygon fill="#181818" points="202,199.8183,206,190.8183,202,194.8183,198,190.8183,202,199.8183" style="stroke:#181818;stroke-width:1.0;"/><text fill="#000000" font-family="sans-serif" font-size="13" lengthAdjust="spacing" textLength="33" x="306.17" y="94.5666">has a</text><text fill="#000000" font-family="sans-serif" font-size="13" lengthAdjust="spacing" textLength="8" x="559.4648" y="92.7803">1</text><text fill="#000000" font-family="sans-serif" font-size="13" lengthAdjust="spacing" textLength="8" x="192.775" y="190.6859">1</text></g><!--link Course to CourseEnrollmentState--><g id="link_Course_CourseEnrollmentState"><path codeLine="25" d="M575.27,115.9983 C505.6,115.9983 371,115.9983 371,115.9983 C371,115.9983 371,195.2083 371,195.2083 " fill="none" id="Course-to-CourseEnrollmentState" style="stroke:#181818;stroke-width:1.0;"/><polygon fill="#181818" points="371,200.2083,375,191.2083,371,195.2083,367,191.2083,371,200.2083" style="stroke:#181818;stroke-width:1.0;"/><text fill="#000000" font-family="sans-serif" font-size="13" lengthAdjust="spacing" textLength="41" x="391.53" y="112.5666">has an</text><text fill="#000000" font-family="sans-serif" font-size="13" lengthAdjust="spacing" textLength="8" x="559.582" y="113.874">1</text><text fill="#000000" font-family="sans-serif" font-size="13" lengthAdjust="spacing" textLength="8" x="361.675" y="190.5765">1</text></g><!--link Course to Edition--><g id="link_Course_Edition"><path codeLine="26" d="M583.83,134.4883 C583.83,134.4883 583.83,195.0583 583.83,195.0583 " fill="none" id="Course-to-Edition" style="stroke:#181818;stroke-width:1.0;"/><polygon fill="#181818" points="583.83,200.0583,587.83,191.0583,583.83,195.0583,579.83,191.0583,583.83,200.0583" style="stroke:#181818;stroke-width:1.0;"/><text fill="#000000" font-family="sans-serif" font-size="13" lengthAdjust="spacing" textLength="33" x="549.83" y="178.3466">has a</text><text fill="#000000" font-family="sans-serif" font-size="13" lengthAdjust="spacing" textLength="8" x="577.6678" y="154.7738">1</text><text fill="#000000" font-family="sans-serif" font-size="13" lengthAdjust="spacing" textLength="8" x="588.5258" y="190.6881">1</text></g><!--link Course to ExamsList--><g id="link_Course_ExamsList"><path codeLine="27" d="M656.71,106.9983 C751.12,106.9983 977,106.9983 977,106.9983 C977,106.9983 977,195.1783 977,195.1783 " fill="none" id="Course-to-ExamsList" style="stroke:#181818;stroke-width:1.0;"/><polygon fill="#181818" points="977,200.1783,981,191.1783,977,195.1783,973,191.1783,977,200.1783" style="stroke:#181818;stroke-width:1.0;"/><text fill="#000000" font-family="sans-serif" font-size="13" lengthAdjust="spacing" textLength="41" x="818.95" y="103.5666">has an</text><text fill="#000000" font-family="sans-serif" font-size="13" lengthAdjust="spacing" textLength="8" x="664.3945" y="103.3271">1</text><text fill="#000000" font-family="sans-serif" font-size="13" lengthAdjust="spacing" textLength="6" x="970.0063" y="190.5365">*</text></g><!--link Course to CourseEnrollmentsList--><g id="link_Course_CourseEnrollmentsList"><path codeLine="28" d="M656.99,93.9983 C781.05,93.9983 1144,93.9983 1144,93.9983 C1144,93.9983 1144,195.0283 1144,195.0283 " fill="none" id="Course-to-CourseEnrollmentsList" style="stroke:#181818;stroke-width:1.0;"/><polygon fill="#181818" points="1144,200.0283,1148,191.0283,1144,195.0283,1140,191.0283,1144,200.0283" style="stroke:#181818;stroke-width:1.0;"/><text fill="#000000" font-family="sans-serif" font-size="13" lengthAdjust="spacing" textLength="41" x="909.01" y="90.5666">has an</text><text fill="#000000" font-family="sans-serif" font-size="13" lengthAdjust="spacing" textLength="8" x="664.4415" y="88.2191">1</text><text fill="#000000" font-family="sans-serif" font-size="13" lengthAdjust="spacing" textLength="6" x="1137.0438" y="190.6485">*</text></g><!--SRC=[bP51JyCm38Nl-HLMZvDsu8gYI8ZrC0bf4Y3kOV5QGvfKIOQO4FyTDoi3jLq7kJXol_VYFjTa47Q4reYwkpQOQc-Y48cIHLZvHfE3LQ0tv8AHAYT4V2NNwg0RiEGm7Le47rWdHC1jqgvYPI7bJLK5h7H2fU3MxqF40Zw403xesF_GTwMyzpuf9MMPsqfbnZ-_i1kiZPHFskuHDhdHSMlJ6Um6vD7j8V6BGyaOArtmrZRiamKmfoWD9V8EBhjoGjj0xH_fnvpnxCllkebt51Fyvu_EABAaNyHL0Skb0gw_Hhc6MaVGqzpQmEptSG2JEDCd-9ZyHMomgfvtup6uVA_gxAZ5elW9TSPgKKodUf9yYYy0]--></g></svg>