<?xml version="1.0" encoding="UTF-8" standalone="no"?><svg xmlns="http://www.w3.org/2000/svg" xmlns:xlink="http://www.w3.org/1999/xlink" contentStyleType="text/css" height="1017.6px" preserveAspectRatio="none" style="width:729px;height:1017px;background:#FFFFFF;" version="1.1" viewBox="0 0 729 1017" width="729.6px" zoomAndPan="magnify"><defs/><g><!--MD5=[3dcf69e4e87a10af00fce8354034ba4c]
cluster presentation--><g id="cluster_presentation"><path d="M9.2,111.2 L82,111.2 A3,3 0 0 1 84,113.2 L89.6,130.8969 L402,130.8969 A2,2 0 0 1 404,132.8969 L404,219.6 A2,2 0 0 1 402,221.6 L9.2,221.6 A2,2 0 0 1 7.2,219.6 L7.2,113.2 A2,2 0 0 1 9.2,111.2 " fill="none" style="stroke:#000000;stroke-width:1.2000000000000002;"/><line style="stroke:#000000;stroke-width:1.2000000000000002;" x1="7.2" x2="89.6" y1="130.8969" y2="130.8969"/><text fill="#000000" font-family="sans-serif" font-size="11.2" font-weight="bold" lengthAdjust="spacing" textLength="72" x="10.4" y="124.8859">presentation</text></g><!--MD5=[3ff016c1aa5003d713567a073e2181a6]
cluster application--><g id="cluster_application"><path d="M65.2,262.4 L127.6,262.4 A3,3 0 0 1 129.6,264.4 L135.2,282.0969 L346,282.0969 A2,2 0 0 1 348,284.0969 L348,386 A2,2 0 0 1 346,388 L65.2,388 A2,2 0 0 1 63.2,386 L63.2,264.4 A2,2 0 0 1 65.2,262.4 " fill="none" style="stroke:#000000;stroke-width:1.2000000000000002;"/><line style="stroke:#000000;stroke-width:1.2000000000000002;" x1="63.2" x2="135.2" y1="282.0969" y2="282.0969"/><text fill="#000000" font-family="sans-serif" font-size="11.2" font-weight="bold" lengthAdjust="spacing" textLength="61.6" x="66.4" y="276.0859">application</text></g><!--MD5=[7579d5565d2521d5936cec86ed3dadee]
cluster service--><g id="cluster_service"><path d="M6.8,428.8 L50,428.8 A3,3 0 0 1 52,430.8 L57.6,448.4969 L404.4,448.4969 A2,2 0 0 1 406.4,450.4969 L406.4,537.2 A2,2 0 0 1 404.4,539.2 L6.8,539.2 A2,2 0 0 1 4.8,537.2 L4.8,430.8 A2,2 0 0 1 6.8,428.8 " fill="none" style="stroke:#000000;stroke-width:1.2000000000000002;"/><line style="stroke:#000000;stroke-width:1.2000000000000002;" x1="4.8" x2="57.6" y1="448.4969" y2="448.4969"/><text fill="#000000" font-family="sans-serif" font-size="11.2" font-weight="bold" lengthAdjust="spacing" textLength="42.4" x="8" y="442.4859">service</text></g><!--MD5=[0334151241c2df87d13997940bbf650c]
cluster persistence--><g id="cluster_persistence"><path d="M11.6,565.6 L79.6,565.6 A3,3 0 0 1 81.6,567.6 L87.2,585.2969 L722,585.2969 A2,2 0 0 1 724,587.2969 L724,1010 A2,2 0 0 1 722,1012 L11.6,1012 A2,2 0 0 1 9.6,1010 L9.6,567.6 A2,2 0 0 1 11.6,565.6 " fill="none" style="stroke:#000000;stroke-width:1.2000000000000002;"/><line style="stroke:#000000;stroke-width:1.2000000000000002;" x1="9.6" x2="87.2" y1="585.2969" y2="585.2969"/><text fill="#000000" font-family="sans-serif" font-size="11.2" font-weight="bold" lengthAdjust="spacing" textLength="67.2" x="12.8" y="579.2859">persistence</text></g><!--MD5=[b4316771f416136129898e513d2461d9]
class ArchiveBoardUI--><g id="elem_ArchiveBoardUI"><rect codeLine="3" fill="#F1F1F1" height="68.1938" id="ArchiveBoardUI" rx="2" ry="2" style="stroke:#181818;stroke-width:0.4000000000000001;" width="371.2" x="20" y="140.8"/><ellipse cx="163.4" cy="153.6" fill="#ADD1B2" rx="8.8" ry="8.8" style="stroke:#181818;stroke-width:0.8000000000000002;"/><path d="M165.6125,150.3 Q165.7375,150.125 165.8875,150.0375 Q166.0375,149.95 166.2125,149.95 Q166.5125,149.95 166.7,150.1625 Q166.8875,150.3625 166.8875,150.85 L166.8875,152.0125 Q166.8875,152.5 166.7,152.7125 Q166.5125,152.925 166.2125,152.925 Q165.9375,152.925 165.775,152.7625 Q165.6125,152.6125 165.525,152.2 Q165.4875,151.9125 165.3375,151.7625 Q165.075,151.4625 164.5875,151.2875 Q164.1,151.1125 163.6,151.1125 Q162.9875,151.1125 162.475,151.375 Q161.975,151.6375 161.575,152.2375 Q161.1875,152.8375 161.1875,153.6625 L161.1875,154.5375 Q161.1875,155.525 161.9,156.1875 Q162.6125,156.8375 163.8875,156.8375 Q164.6375,156.8375 165.1625,156.6375 Q165.475,156.5125 165.8125,156.1625 Q166.025,155.95 166.1375,155.8875 Q166.2625,155.825 166.425,155.825 Q166.6875,155.825 166.8875,156.0375 Q167.1,156.2375 167.1,156.5125 Q167.1,156.7875 166.825,157.1125 Q166.425,157.575 165.7875,157.8375 Q164.925,158.2 163.8875,158.2 Q162.675,158.2 161.7125,157.7 Q160.925,157.3 160.375,156.45 Q159.825,155.5875 159.825,154.5625 L159.825,153.6375 Q159.825,152.575 160.3125,151.6625 Q160.8125,150.7375 161.6875,150.25 Q162.5625,149.75 163.55,149.75 Q164.1375,149.75 164.65,149.8875 Q165.175,150.0125 165.6125,150.3 Z " fill="#000000"/><text fill="#000000" font-family="sans-serif" font-size="11.2" lengthAdjust="spacing" textLength="77.6" x="179.8" y="158.2375">ArchiveBoardUI</text><line style="stroke:#181818;stroke-width:0.4000000000000001;" x1="20.8" x2="390.4" y1="166.4" y2="166.4"/><line style="stroke:#181818;stroke-width:0.4000000000000001;" x1="20.8" x2="390.4" y1="172.8" y2="172.8"/><ellipse cx="28.8" cy="192.0969" fill="#84BE84" rx="2.4" ry="2.4" style="stroke:#038048;stroke-width:0.8000000000000002;"/><text fill="#000000" font-family="sans-serif" font-size="11.2" lengthAdjust="spacing" textLength="326.4" x="36" y="188.0859">archiveBoardUI(Socket socket, DataOutputStream outputStream,</text><text fill="#000000" font-family="sans-serif" font-size="11.2" lengthAdjust="spacing" textLength="350.4" x="36" y="202.9828">DataInputStream inputStream, BufferedReader bufferedReader): void</text></g><!--MD5=[769c814aebb8ede09c01ad4358f74254]
class ArchiveBoardController--><g id="elem_ArchiveBoardController"><rect codeLine="9" fill="#F1F1F1" height="83.0906" id="ArchiveBoardController" rx="2" ry="2" style="stroke:#181818;stroke-width:0.4000000000000001;" width="258.4" x="76.4" y="292"/><ellipse cx="143.4" cy="304.8" fill="#ADD1B2" rx="8.8" ry="8.8" style="stroke:#181818;stroke-width:0.8000000000000002;"/><path d="M145.6125,301.5 Q145.7375,301.325 145.8875,301.2375 Q146.0375,301.15 146.2125,301.15 Q146.5125,301.15 146.7,301.3625 Q146.8875,301.5625 146.8875,302.05 L146.8875,303.2125 Q146.8875,303.7 146.7,303.9125 Q146.5125,304.125 146.2125,304.125 Q145.9375,304.125 145.775,303.9625 Q145.6125,303.8125 145.525,303.4 Q145.4875,303.1125 145.3375,302.9625 Q145.075,302.6625 144.5875,302.4875 Q144.1,302.3125 143.6,302.3125 Q142.9875,302.3125 142.475,302.575 Q141.975,302.8375 141.575,303.4375 Q141.1875,304.0375 141.1875,304.8625 L141.1875,305.7375 Q141.1875,306.725 141.9,307.3875 Q142.6125,308.0375 143.8875,308.0375 Q144.6375,308.0375 145.1625,307.8375 Q145.475,307.7125 145.8125,307.3625 Q146.025,307.15 146.1375,307.0875 Q146.2625,307.025 146.425,307.025 Q146.6875,307.025 146.8875,307.2375 Q147.1,307.4375 147.1,307.7125 Q147.1,307.9875 146.825,308.3125 Q146.425,308.775 145.7875,309.0375 Q144.925,309.4 143.8875,309.4 Q142.675,309.4 141.7125,308.9 Q140.925,308.5 140.375,307.65 Q139.825,306.7875 139.825,305.7625 L139.825,304.8375 Q139.825,303.775 140.3125,302.8625 Q140.8125,301.9375 141.6875,301.45 Q142.5625,300.95 143.55,300.95 Q144.1375,300.95 144.65,301.0875 Q145.175,301.2125 145.6125,301.5 Z " fill="#000000"/><text fill="#000000" font-family="sans-serif" font-size="11.2" lengthAdjust="spacing" textLength="117.6" x="159.8" y="309.4375">ArchiveBoardController</text><line style="stroke:#181818;stroke-width:0.4000000000000001;" x1="77.2" x2="334" y1="317.6" y2="317.6"/><line style="stroke:#181818;stroke-width:0.4000000000000001;" x1="77.2" x2="334" y1="324" y2="324"/><ellipse cx="85.2" cy="335.8484" fill="#84BE84" rx="2.4" ry="2.4" style="stroke:#038048;stroke-width:0.8000000000000002;"/><text fill="#000000" font-family="sans-serif" font-size="11.2" lengthAdjust="spacing" textLength="215.2" x="92.4" y="339.2859">findAdminPermissionBoards(): List&lt;String&gt;</text><ellipse cx="85.2" cy="350.7453" fill="#84BE84" rx="2.4" ry="2.4" style="stroke:#038048;stroke-width:0.8000000000000002;"/><text fill="#000000" font-family="sans-serif" font-size="11.2" lengthAdjust="spacing" textLength="188" x="92.4" y="354.1828">findAutenticatedUser(): EmailAddress</text><ellipse cx="85.2" cy="365.6422" fill="#84BE84" rx="2.4" ry="2.4" style="stroke:#038048;stroke-width:0.8000000000000002;"/><text fill="#000000" font-family="sans-serif" font-size="11.2" lengthAdjust="spacing" textLength="237.6" x="92.4" y="369.0797">archiveSharedBoard(String sharedBoard): void</text></g><!--MD5=[4e8b0644cb5da2ed2dbbf71eecf48d83]
class PostItManagement--><g id="elem_PostItManagement"><rect codeLine="17" fill="#F1F1F1" height="68.1938" id="PostItManagement" rx="2" ry="2" style="stroke:#181818;stroke-width:0.4000000000000001;" width="376" x="17.6" y="458.4"/><ellipse cx="155.4" cy="471.2" fill="#ADD1B2" rx="8.8" ry="8.8" style="stroke:#181818;stroke-width:0.8000000000000002;"/><path d="M157.6125,467.9 Q157.7375,467.725 157.8875,467.6375 Q158.0375,467.55 158.2125,467.55 Q158.5125,467.55 158.7,467.7625 Q158.8875,467.9625 158.8875,468.45 L158.8875,469.6125 Q158.8875,470.1 158.7,470.3125 Q158.5125,470.525 158.2125,470.525 Q157.9375,470.525 157.775,470.3625 Q157.6125,470.2125 157.525,469.8 Q157.4875,469.5125 157.3375,469.3625 Q157.075,469.0625 156.5875,468.8875 Q156.1,468.7125 155.6,468.7125 Q154.9875,468.7125 154.475,468.975 Q153.975,469.2375 153.575,469.8375 Q153.1875,470.4375 153.1875,471.2625 L153.1875,472.1375 Q153.1875,473.125 153.9,473.7875 Q154.6125,474.4375 155.8875,474.4375 Q156.6375,474.4375 157.1625,474.2375 Q157.475,474.1125 157.8125,473.7625 Q158.025,473.55 158.1375,473.4875 Q158.2625,473.425 158.425,473.425 Q158.6875,473.425 158.8875,473.6375 Q159.1,473.8375 159.1,474.1125 Q159.1,474.3875 158.825,474.7125 Q158.425,475.175 157.7875,475.4375 Q156.925,475.8 155.8875,475.8 Q154.675,475.8 153.7125,475.3 Q152.925,474.9 152.375,474.05 Q151.825,473.1875 151.825,472.1625 L151.825,471.2375 Q151.825,470.175 152.3125,469.2625 Q152.8125,468.3375 153.6875,467.85 Q154.5625,467.35 155.55,467.35 Q156.1375,467.35 156.65,467.4875 Q157.175,467.6125 157.6125,467.9 Z " fill="#000000"/><text fill="#000000" font-family="sans-serif" font-size="11.2" lengthAdjust="spacing" textLength="93.6" x="171.8" y="475.8375">PostItManagement</text><line style="stroke:#181818;stroke-width:0.4000000000000001;" x1="18.4" x2="392.8" y1="484" y2="484"/><line style="stroke:#181818;stroke-width:0.4000000000000001;" x1="18.4" x2="392.8" y1="490.4" y2="490.4"/><ellipse cx="26.4" cy="502.2484" fill="#84BE84" rx="2.4" ry="2.4" style="stroke:#038048;stroke-width:0.8000000000000002;"/><text fill="#000000" font-family="sans-serif" font-size="11.2" lengthAdjust="spacing" textLength="355.2" x="33.6" y="505.6859">findAdminPermissionBoards(EmailAddress emailAddress): List&lt;String&gt;</text><ellipse cx="26.4" cy="517.1453" fill="#84BE84" rx="2.4" ry="2.4" style="stroke:#038048;stroke-width:0.8000000000000002;"/><text fill="#000000" font-family="sans-serif" font-size="11.2" lengthAdjust="spacing" textLength="189.6" x="33.6" y="520.5828">archiveSharedBoard(String title): void</text></g><!--MD5=[e8c189551b7885b999ad7cefb30fc2a3]
class PersistenceContext--><g id="elem_PersistenceContext"><rect codeLine="24" fill="#F1F1F1" height="53.2969" id="PersistenceContext" rx="2" ry="2" style="stroke:#181818;stroke-width:0.4000000000000001;" width="187.2" x="112" y="595.2"/><ellipse cx="153.4" cy="608" fill="#ADD1B2" rx="8.8" ry="8.8" style="stroke:#181818;stroke-width:0.8000000000000002;"/><path d="M155.6125,604.7 Q155.7375,604.525 155.8875,604.4375 Q156.0375,604.35 156.2125,604.35 Q156.5125,604.35 156.7,604.5625 Q156.8875,604.7625 156.8875,605.25 L156.8875,606.4125 Q156.8875,606.9 156.7,607.1125 Q156.5125,607.325 156.2125,607.325 Q155.9375,607.325 155.775,607.1625 Q155.6125,607.0125 155.525,606.6 Q155.4875,606.3125 155.3375,606.1625 Q155.075,605.8625 154.5875,605.6875 Q154.1,605.5125 153.6,605.5125 Q152.9875,605.5125 152.475,605.775 Q151.975,606.0375 151.575,606.6375 Q151.1875,607.2375 151.1875,608.0625 L151.1875,608.9375 Q151.1875,609.925 151.9,610.5875 Q152.6125,611.2375 153.8875,611.2375 Q154.6375,611.2375 155.1625,611.0375 Q155.475,610.9125 155.8125,610.5625 Q156.025,610.35 156.1375,610.2875 Q156.2625,610.225 156.425,610.225 Q156.6875,610.225 156.8875,610.4375 Q157.1,610.6375 157.1,610.9125 Q157.1,611.1875 156.825,611.5125 Q156.425,611.975 155.7875,612.2375 Q154.925,612.6 153.8875,612.6 Q152.675,612.6 151.7125,612.1 Q150.925,611.7 150.375,610.85 Q149.825,609.9875 149.825,608.9625 L149.825,608.0375 Q149.825,606.975 150.3125,606.0625 Q150.8125,605.1375 151.6875,604.65 Q152.5625,604.15 153.55,604.15 Q154.1375,604.15 154.65,604.2875 Q155.175,604.4125 155.6125,604.7 Z " fill="#000000"/><text fill="#000000" font-family="sans-serif" font-size="11.2" lengthAdjust="spacing" textLength="97.6" x="169.8" y="612.6375">PersistenceContext</text><line style="stroke:#181818;stroke-width:0.4000000000000001;" x1="112.8" x2="298.4" y1="620.8" y2="620.8"/><line style="stroke:#181818;stroke-width:0.4000000000000001;" x1="112.8" x2="298.4" y1="627.2" y2="627.2"/><ellipse cx="120.8" cy="639.0484" fill="#84BE84" rx="2.4" ry="2.4" style="stroke:#038048;stroke-width:0.8000000000000002;"/><text fill="#000000" font-family="sans-serif" font-size="11.2" lengthAdjust="spacing" textLength="166.4" x="128" y="642.4859">repositories(): RepositoryFactory</text></g><!--MD5=[48590afff58a68e2fcba47824d6f8a11]
class RepositoryFactory--><g id="elem_RepositoryFactory"><rect codeLine="28" fill="#F1F1F1" height="68.1938" id="RepositoryFactory" rx="2" ry="2" style="stroke:#181818;stroke-width:0.4000000000000001;" width="276.8" x="67.2" y="697.6"/><ellipse cx="155.8" cy="710.4" fill="#B4A7E5" rx="8.8" ry="8.8" style="stroke:#181818;stroke-width:0.8000000000000002;"/><path d="M156.5625,707.7125 L156.5625,713.0375 L157.9375,713.0375 Q158.425,713.0375 158.6375,713.225 Q158.85,713.4125 158.85,713.725 Q158.85,714.025 158.6375,714.2125 Q158.425,714.4 157.9375,714.4 L153.825,714.4 Q153.3375,714.4 153.125,714.2125 Q152.9125,714.025 152.9125,713.7125 Q152.9125,713.4125 153.125,713.225 Q153.3375,713.0375 153.825,713.0375 L155.2,713.0375 L155.2,707.7125 L153.825,707.7125 Q153.3375,707.7125 153.125,707.525 Q152.9125,707.3375 152.9125,707.025 Q152.9125,706.725 153.125,706.5375 Q153.3375,706.35 153.825,706.35 L157.9375,706.35 Q158.425,706.35 158.6375,706.5375 Q158.85,706.725 158.85,707.025 Q158.85,707.3375 158.6375,707.525 Q158.425,707.7125 157.9375,707.7125 L156.5625,707.7125 Z " fill="#000000"/><text fill="#000000" font-family="sans-serif" font-size="11.2" font-style="italic" lengthAdjust="spacing" textLength="92.8" x="172.2" y="715.0375">RepositoryFactory</text><line style="stroke:#181818;stroke-width:0.4000000000000001;" x1="68" x2="343.2" y1="723.2" y2="723.2"/><line style="stroke:#181818;stroke-width:0.4000000000000001;" x1="68" x2="343.2" y1="729.6" y2="729.6"/><ellipse cx="76" cy="741.4484" fill="#84BE84" rx="2.4" ry="2.4" style="stroke:#038048;stroke-width:0.8000000000000002;"/><text fill="#000000" font-family="sans-serif" font-size="11.2" lengthAdjust="spacing" textLength="256" x="83.2" y="744.8859">sharedBoardRepository(): SharedBoardRepository</text><ellipse cx="76" cy="756.3453" fill="#84BE84" rx="2.4" ry="2.4" style="stroke:#038048;stroke-width:0.8000000000000002;"/><text fill="#000000" font-family="sans-serif" font-size="11.2" lengthAdjust="spacing" textLength="232.8" x="83.2" y="759.7828">permissionRepository(): PermissionRepository</text></g><!--MD5=[6e84673ea0e0779ac9797c6daf6a3606]
class SharedBoardRepository--><g id="elem_SharedBoardRepository"><rect codeLine="33" fill="#F1F1F1" height="68.1938" id="SharedBoardRepository" rx="2" ry="2" style="stroke:#181818;stroke-width:0.4000000000000001;" width="303.2" x="407.6" y="814.4"/><ellipse cx="495" cy="827.2" fill="#B4A7E5" rx="8.8" ry="8.8" style="stroke:#181818;stroke-width:0.8000000000000002;"/><path d="M495.7625,824.5125 L495.7625,829.8375 L497.1375,829.8375 Q497.625,829.8375 497.8375,830.025 Q498.05,830.2125 498.05,830.525 Q498.05,830.825 497.8375,831.0125 Q497.625,831.2 497.1375,831.2 L493.025,831.2 Q492.5375,831.2 492.325,831.0125 Q492.1125,830.825 492.1125,830.5125 Q492.1125,830.2125 492.325,830.025 Q492.5375,829.8375 493.025,829.8375 L494.4,829.8375 L494.4,824.5125 L493.025,824.5125 Q492.5375,824.5125 492.325,824.325 Q492.1125,824.1375 492.1125,823.825 Q492.1125,823.525 492.325,823.3375 Q492.5375,823.15 493.025,823.15 L497.1375,823.15 Q497.625,823.15 497.8375,823.3375 Q498.05,823.525 498.05,823.825 Q498.05,824.1375 497.8375,824.325 Q497.625,824.5125 497.1375,824.5125 L495.7625,824.5125 Z " fill="#000000"/><text fill="#000000" font-family="sans-serif" font-size="11.2" font-style="italic" lengthAdjust="spacing" textLength="121.6" x="511.4" y="831.8375">SharedBoardRepository</text><line style="stroke:#181818;stroke-width:0.4000000000000001;" x1="408.4" x2="710" y1="840" y2="840"/><line style="stroke:#181818;stroke-width:0.4000000000000001;" x1="408.4" x2="710" y1="846.4" y2="846.4"/><ellipse cx="416.4" cy="858.2484" fill="#84BE84" rx="2.4" ry="2.4" style="stroke:#038048;stroke-width:0.8000000000000002;"/><text fill="#000000" font-family="sans-serif" font-size="11.2" lengthAdjust="spacing" textLength="198.4" x="423.6" y="861.6859">save(sharedBoard: SharedBoard): void</text><ellipse cx="416.4" cy="873.1453" fill="#84BE84" rx="2.4" ry="2.4" style="stroke:#038048;stroke-width:0.8000000000000002;"/><text fill="#000000" font-family="sans-serif" font-size="11.2" lengthAdjust="spacing" textLength="282.4" x="423.6" y="876.5828">findSharedBoardByTitle(Designation title): SharedBoard</text></g><!--MD5=[011fabc23896c940e74e5210d6f1b1d2]
class JpaSharedBoardRepository--><g id="elem_JpaSharedBoardRepository"><rect codeLine="38" fill="#F1F1F1" height="68.1938" id="JpaSharedBoardRepository" rx="2" ry="2" style="stroke:#181818;stroke-width:0.4000000000000001;" width="303.2" x="407.6" y="931.2"/><ellipse cx="486.2" cy="944" fill="#ADD1B2" rx="8.8" ry="8.8" style="stroke:#181818;stroke-width:0.8000000000000002;"/><path d="M488.4125,940.7 Q488.5375,940.525 488.6875,940.4375 Q488.8375,940.35 489.0125,940.35 Q489.3125,940.35 489.5,940.5625 Q489.6875,940.7625 489.6875,941.25 L489.6875,942.4125 Q489.6875,942.9 489.5,943.1125 Q489.3125,943.325 489.0125,943.325 Q488.7375,943.325 488.575,943.1625 Q488.4125,943.0125 488.325,942.6 Q488.2875,942.3125 488.1375,942.1625 Q487.875,941.8625 487.3875,941.6875 Q486.9,941.5125 486.4,941.5125 Q485.7875,941.5125 485.275,941.775 Q484.775,942.0375 484.375,942.6375 Q483.9875,943.2375 483.9875,944.0625 L483.9875,944.9375 Q483.9875,945.925 484.7,946.5875 Q485.4125,947.2375 486.6875,947.2375 Q487.4375,947.2375 487.9625,947.0375 Q488.275,946.9125 488.6125,946.5625 Q488.825,946.35 488.9375,946.2875 Q489.0625,946.225 489.225,946.225 Q489.4875,946.225 489.6875,946.4375 Q489.9,946.6375 489.9,946.9125 Q489.9,947.1875 489.625,947.5125 Q489.225,947.975 488.5875,948.2375 Q487.725,948.6 486.6875,948.6 Q485.475,948.6 484.5125,948.1 Q483.725,947.7 483.175,946.85 Q482.625,945.9875 482.625,944.9625 L482.625,944.0375 Q482.625,942.975 483.1125,942.0625 Q483.6125,941.1375 484.4875,940.65 Q485.3625,940.15 486.35,940.15 Q486.9375,940.15 487.45,940.2875 Q487.975,940.4125 488.4125,940.7 Z " fill="#000000"/><text fill="#000000" font-family="sans-serif" font-size="11.2" lengthAdjust="spacing" textLength="139.2" x="502.6" y="948.6375">JpaSharedBoardRepository</text><line style="stroke:#181818;stroke-width:0.4000000000000001;" x1="408.4" x2="710" y1="956.8" y2="956.8"/><line style="stroke:#181818;stroke-width:0.4000000000000001;" x1="408.4" x2="710" y1="963.2" y2="963.2"/><ellipse cx="416.4" cy="975.0484" fill="#84BE84" rx="2.4" ry="2.4" style="stroke:#038048;stroke-width:0.8000000000000002;"/><text fill="#000000" font-family="sans-serif" font-size="11.2" lengthAdjust="spacing" textLength="198.4" x="423.6" y="978.4859">save(sharedBoard: SharedBoard): void</text><ellipse cx="416.4" cy="989.9453" fill="#84BE84" rx="2.4" ry="2.4" style="stroke:#038048;stroke-width:0.8000000000000002;"/><text fill="#000000" font-family="sans-serif" font-size="11.2" lengthAdjust="spacing" textLength="282.4" x="423.6" y="993.3828">findSharedBoardByTitle(Designation title): SharedBoard</text></g><!--MD5=[80da16d18d0d99ca94e8dc4b10b2fc58]
class PermissionRepository--><g id="elem_PermissionRepository"><rect codeLine="43" fill="#F1F1F1" height="53.2969" id="PermissionRepository" rx="2" ry="2" style="stroke:#181818;stroke-width:0.4000000000000001;" width="356.8" x="22.4" y="821.6"/><ellipse cx="142.6" cy="834.4" fill="#B4A7E5" rx="8.8" ry="8.8" style="stroke:#181818;stroke-width:0.8000000000000002;"/><path d="M143.3625,831.7125 L143.3625,837.0375 L144.7375,837.0375 Q145.225,837.0375 145.4375,837.225 Q145.65,837.4125 145.65,837.725 Q145.65,838.025 145.4375,838.2125 Q145.225,838.4 144.7375,838.4 L140.625,838.4 Q140.1375,838.4 139.925,838.2125 Q139.7125,838.025 139.7125,837.7125 Q139.7125,837.4125 139.925,837.225 Q140.1375,837.0375 140.625,837.0375 L142,837.0375 L142,831.7125 L140.625,831.7125 Q140.1375,831.7125 139.925,831.525 Q139.7125,831.3375 139.7125,831.025 Q139.7125,830.725 139.925,830.5375 Q140.1375,830.35 140.625,830.35 L144.7375,830.35 Q145.225,830.35 145.4375,830.5375 Q145.65,830.725 145.65,831.025 Q145.65,831.3375 145.4375,831.525 Q145.225,831.7125 144.7375,831.7125 L143.3625,831.7125 Z " fill="#000000"/><text fill="#000000" font-family="sans-serif" font-size="11.2" font-style="italic" lengthAdjust="spacing" textLength="109.6" x="159" y="839.0375">PermissionRepository</text><line style="stroke:#181818;stroke-width:0.4000000000000001;" x1="23.2" x2="378.4" y1="847.2" y2="847.2"/><line style="stroke:#181818;stroke-width:0.4000000000000001;" x1="23.2" x2="378.4" y1="853.6" y2="853.6"/><ellipse cx="31.2" cy="865.4484" fill="#84BE84" rx="2.4" ry="2.4" style="stroke:#038048;stroke-width:0.8000000000000002;"/><text fill="#000000" font-family="sans-serif" font-size="11.2" lengthAdjust="spacing" textLength="336" x="38.4" y="868.8859">findWriteAdmin(EmailAddress emailAddress): Iterable&lt;Permission&gt;</text></g><!--MD5=[b3ca8839ffa2e67380cfcccb361342b9]
class JpaPermissionRepository--><g id="elem_JpaPermissionRepository"><rect codeLine="48" fill="#F1F1F1" height="53.2969" id="JpaPermissionRepository" rx="2" ry="2" style="stroke:#181818;stroke-width:0.4000000000000001;" width="356.8" x="22.4" y="938.4"/><ellipse cx="133.8" cy="951.2" fill="#ADD1B2" rx="8.8" ry="8.8" style="stroke:#181818;stroke-width:0.8000000000000002;"/><path d="M136.0125,947.9 Q136.1375,947.725 136.2875,947.6375 Q136.4375,947.55 136.6125,947.55 Q136.9125,947.55 137.1,947.7625 Q137.2875,947.9625 137.2875,948.45 L137.2875,949.6125 Q137.2875,950.1 137.1,950.3125 Q136.9125,950.525 136.6125,950.525 Q136.3375,950.525 136.175,950.3625 Q136.0125,950.2125 135.925,949.8 Q135.8875,949.5125 135.7375,949.3625 Q135.475,949.0625 134.9875,948.8875 Q134.5,948.7125 134,948.7125 Q133.3875,948.7125 132.875,948.975 Q132.375,949.2375 131.975,949.8375 Q131.5875,950.4375 131.5875,951.2625 L131.5875,952.1375 Q131.5875,953.125 132.3,953.7875 Q133.0125,954.4375 134.2875,954.4375 Q135.0375,954.4375 135.5625,954.2375 Q135.875,954.1125 136.2125,953.7625 Q136.425,953.55 136.5375,953.4875 Q136.6625,953.425 136.825,953.425 Q137.0875,953.425 137.2875,953.6375 Q137.5,953.8375 137.5,954.1125 Q137.5,954.3875 137.225,954.7125 Q136.825,955.175 136.1875,955.4375 Q135.325,955.8 134.2875,955.8 Q133.075,955.8 132.1125,955.3 Q131.325,954.9 130.775,954.05 Q130.225,953.1875 130.225,952.1625 L130.225,951.2375 Q130.225,950.175 130.7125,949.2625 Q131.2125,948.3375 132.0875,947.85 Q132.9625,947.35 133.95,947.35 Q134.5375,947.35 135.05,947.4875 Q135.575,947.6125 136.0125,947.9 Z " fill="#000000"/><text fill="#000000" font-family="sans-serif" font-size="11.2" lengthAdjust="spacing" textLength="127.2" x="150.2" y="955.8375">JpaPermissionRepository</text><line style="stroke:#181818;stroke-width:0.4000000000000001;" x1="23.2" x2="378.4" y1="964" y2="964"/><line style="stroke:#181818;stroke-width:0.4000000000000001;" x1="23.2" x2="378.4" y1="970.4" y2="970.4"/><ellipse cx="31.2" cy="982.2484" fill="#84BE84" rx="2.4" ry="2.4" style="stroke:#038048;stroke-width:0.8000000000000002;"/><text fill="#000000" font-family="sans-serif" font-size="11.2" lengthAdjust="spacing" textLength="336" x="38.4" y="985.6859">findWriteAdmin(EmailAddress emailAddress): Iterable&lt;Permission&gt;</text></g><!--MD5=[ed6624c6556d5e7b1bd23032162d20b7]
class Client--><g id="elem_Client"><rect codeLine="57" fill="#F1F1F1" height="53.2969" id="Client" rx="2" ry="2" style="stroke:#181818;stroke-width:0.4000000000000001;" width="141.6" x="134.8" y="5.6"/><ellipse cx="187.8" cy="18.4" fill="#ADD1B2" rx="8.8" ry="8.8" style="stroke:#181818;stroke-width:0.8000000000000002;"/><path d="M190.0125,15.1 Q190.1375,14.925 190.2875,14.8375 Q190.4375,14.75 190.6125,14.75 Q190.9125,14.75 191.1,14.9625 Q191.2875,15.1625 191.2875,15.65 L191.2875,16.8125 Q191.2875,17.3 191.1,17.5125 Q190.9125,17.725 190.6125,17.725 Q190.3375,17.725 190.175,17.5625 Q190.0125,17.4125 189.925,17 Q189.8875,16.7125 189.7375,16.5625 Q189.475,16.2625 188.9875,16.0875 Q188.5,15.9125 188,15.9125 Q187.3875,15.9125 186.875,16.175 Q186.375,16.4375 185.975,17.0375 Q185.5875,17.6375 185.5875,18.4625 L185.5875,19.3375 Q185.5875,20.325 186.3,20.9875 Q187.0125,21.6375 188.2875,21.6375 Q189.0375,21.6375 189.5625,21.4375 Q189.875,21.3125 190.2125,20.9625 Q190.425,20.75 190.5375,20.6875 Q190.6625,20.625 190.825,20.625 Q191.0875,20.625 191.2875,20.8375 Q191.5,21.0375 191.5,21.3125 Q191.5,21.5875 191.225,21.9125 Q190.825,22.375 190.1875,22.6375 Q189.325,23 188.2875,23 Q187.075,23 186.1125,22.5 Q185.325,22.1 184.775,21.25 Q184.225,20.3875 184.225,19.3625 L184.225,18.4375 Q184.225,17.375 184.7125,16.4625 Q185.2125,15.5375 186.0875,15.05 Q186.9625,14.55 187.95,14.55 Q188.5375,14.55 189.05,14.6875 Q189.575,14.8125 190.0125,15.1 Z " fill="#000000"/><text fill="#000000" font-family="sans-serif" font-size="11.2" lengthAdjust="spacing" textLength="28.8" x="204.2" y="23.0375">Client</text><line style="stroke:#181818;stroke-width:0.4000000000000001;" x1="135.6" x2="275.6" y1="31.2" y2="31.2"/><line style="stroke:#181818;stroke-width:0.4000000000000001;" x1="135.6" x2="275.6" y1="37.6" y2="37.6"/><ellipse cx="143.6" cy="49.4484" fill="#84BE84" rx="2.4" ry="2.4" style="stroke:#038048;stroke-width:0.8000000000000002;"/><text fill="#000000" font-family="sans-serif" font-size="11.2" lengthAdjust="spacing" textLength="120.8" x="150.8" y="52.8859">main(String[] args): void</text></g><!--MD5=[5011627591ee4f7a3d58490c0e7112ca]
class ClientHandler--><g id="elem_ClientHandler"><rect codeLine="61" fill="#F1F1F1" height="53.2969" id="ClientHandler" rx="2" ry="2" style="stroke:#181818;stroke-width:0.4000000000000001;" width="290.4" x="419.6" y="148"/><ellipse cx="527.4" cy="160.8" fill="#ADD1B2" rx="8.8" ry="8.8" style="stroke:#181818;stroke-width:0.8000000000000002;"/><path d="M529.6125,157.5 Q529.7375,157.325 529.8875,157.2375 Q530.0375,157.15 530.2125,157.15 Q530.5125,157.15 530.7,157.3625 Q530.8875,157.5625 530.8875,158.05 L530.8875,159.2125 Q530.8875,159.7 530.7,159.9125 Q530.5125,160.125 530.2125,160.125 Q529.9375,160.125 529.775,159.9625 Q529.6125,159.8125 529.525,159.4 Q529.4875,159.1125 529.3375,158.9625 Q529.075,158.6625 528.5875,158.4875 Q528.1,158.3125 527.6,158.3125 Q526.9875,158.3125 526.475,158.575 Q525.975,158.8375 525.575,159.4375 Q525.1875,160.0375 525.1875,160.8625 L525.1875,161.7375 Q525.1875,162.725 525.9,163.3875 Q526.6125,164.0375 527.8875,164.0375 Q528.6375,164.0375 529.1625,163.8375 Q529.475,163.7125 529.8125,163.3625 Q530.025,163.15 530.1375,163.0875 Q530.2625,163.025 530.425,163.025 Q530.6875,163.025 530.8875,163.2375 Q531.1,163.4375 531.1,163.7125 Q531.1,163.9875 530.825,164.3125 Q530.425,164.775 529.7875,165.0375 Q528.925,165.4 527.8875,165.4 Q526.675,165.4 525.7125,164.9 Q524.925,164.5 524.375,163.65 Q523.825,162.7875 523.825,161.7625 L523.825,160.8375 Q523.825,159.775 524.3125,158.8625 Q524.8125,157.9375 525.6875,157.45 Q526.5625,156.95 527.55,156.95 Q528.1375,156.95 528.65,157.0875 Q529.175,157.2125 529.6125,157.5 Z " fill="#000000"/><text fill="#000000" font-family="sans-serif" font-size="11.2" lengthAdjust="spacing" textLength="68" x="543.8" y="165.4375">ClientHandler</text><line style="stroke:#181818;stroke-width:0.4000000000000001;" x1="420.4" x2="709.2" y1="173.6" y2="173.6"/><line style="stroke:#181818;stroke-width:0.4000000000000001;" x1="420.4" x2="709.2" y1="180" y2="180"/><ellipse cx="428.4" cy="191.8484" fill="#84BE84" rx="2.4" ry="2.4" style="stroke:#038048;stroke-width:0.8000000000000002;"/><text fill="#000000" font-family="sans-serif" font-size="11.2" lengthAdjust="spacing" textLength="269.6" x="435.6" y="195.2859">archiveSharedBoard(FormatMessage message): void</text></g><!--MD5=[90a2bbef8b0803d85099380473200cfa]
class RcompService--><g id="elem_RcompService"><rect codeLine="65" fill="#F1F1F1" height="68.1938" id="RcompService" rx="2" ry="2" style="stroke:#181818;stroke-width:0.4000000000000001;" width="258.4" x="398.8" y="299.6"/><ellipse cx="488.2" cy="312.4" fill="#ADD1B2" rx="8.8" ry="8.8" style="stroke:#181818;stroke-width:0.8000000000000002;"/><path d="M490.4125,309.1 Q490.5375,308.925 490.6875,308.8375 Q490.8375,308.75 491.0125,308.75 Q491.3125,308.75 491.5,308.9625 Q491.6875,309.1625 491.6875,309.65 L491.6875,310.8125 Q491.6875,311.3 491.5,311.5125 Q491.3125,311.725 491.0125,311.725 Q490.7375,311.725 490.575,311.5625 Q490.4125,311.4125 490.325,311 Q490.2875,310.7125 490.1375,310.5625 Q489.875,310.2625 489.3875,310.0875 Q488.9,309.9125 488.4,309.9125 Q487.7875,309.9125 487.275,310.175 Q486.775,310.4375 486.375,311.0375 Q485.9875,311.6375 485.9875,312.4625 L485.9875,313.3375 Q485.9875,314.325 486.7,314.9875 Q487.4125,315.6375 488.6875,315.6375 Q489.4375,315.6375 489.9625,315.4375 Q490.275,315.3125 490.6125,314.9625 Q490.825,314.75 490.9375,314.6875 Q491.0625,314.625 491.225,314.625 Q491.4875,314.625 491.6875,314.8375 Q491.9,315.0375 491.9,315.3125 Q491.9,315.5875 491.625,315.9125 Q491.225,316.375 490.5875,316.6375 Q489.725,317 488.6875,317 Q487.475,317 486.5125,316.5 Q485.725,316.1 485.175,315.25 Q484.625,314.3875 484.625,313.3625 L484.625,312.4375 Q484.625,311.375 485.1125,310.4625 Q485.6125,309.5375 486.4875,309.05 Q487.3625,308.55 488.35,308.55 Q488.9375,308.55 489.45,308.6875 Q489.975,308.8125 490.4125,309.1 Z " fill="#000000"/><text fill="#000000" font-family="sans-serif" font-size="11.2" lengthAdjust="spacing" textLength="72.8" x="504.6" y="317.0375">RcompService</text><line style="stroke:#181818;stroke-width:0.4000000000000001;" x1="399.6" x2="656.4" y1="325.2" y2="325.2"/><line style="stroke:#181818;stroke-width:0.4000000000000001;" x1="399.6" x2="656.4" y1="331.6" y2="331.6"/><ellipse cx="407.6" cy="343.4484" fill="#84BE84" rx="2.4" ry="2.4" style="stroke:#038048;stroke-width:0.8000000000000002;"/><text fill="#000000" font-family="sans-serif" font-size="11.2" lengthAdjust="spacing" textLength="237.6" x="414.8" y="346.8859">sendMessage(socket, message, outputStream)</text><ellipse cx="407.6" cy="358.3453" fill="#84BE84" rx="2.4" ry="2.4" style="stroke:#038048;stroke-width:0.8000000000000002;"/><text fill="#000000" font-family="sans-serif" font-size="11.2" lengthAdjust="spacing" textLength="155.2" x="414.8" y="361.7828">readData(socket, inputStream)</text></g><!--MD5=[f2b0eeb9c119b3896168a7397a71839e]
class FormatMessage--><g id="elem_FormatMessage"><rect codeLine="70" fill="#F1F1F1" height="38.4" id="FormatMessage" rx="2" ry="2" style="stroke:#181818;stroke-width:0.4000000000000001;" width="107.2" x="474.4" y="473.2"/><ellipse cx="486.4" cy="486" fill="#ADD1B2" rx="8.8" ry="8.8" style="stroke:#181818;stroke-width:0.8000000000000002;"/><path d="M488.6125,482.7 Q488.7375,482.525 488.8875,482.4375 Q489.0375,482.35 489.2125,482.35 Q489.5125,482.35 489.7,482.5625 Q489.8875,482.7625 489.8875,483.25 L489.8875,484.4125 Q489.8875,484.9 489.7,485.1125 Q489.5125,485.325 489.2125,485.325 Q488.9375,485.325 488.775,485.1625 Q488.6125,485.0125 488.525,484.6 Q488.4875,484.3125 488.3375,484.1625 Q488.075,483.8625 487.5875,483.6875 Q487.1,483.5125 486.6,483.5125 Q485.9875,483.5125 485.475,483.775 Q484.975,484.0375 484.575,484.6375 Q484.1875,485.2375 484.1875,486.0625 L484.1875,486.9375 Q484.1875,487.925 484.9,488.5875 Q485.6125,489.2375 486.8875,489.2375 Q487.6375,489.2375 488.1625,489.0375 Q488.475,488.9125 488.8125,488.5625 Q489.025,488.35 489.1375,488.2875 Q489.2625,488.225 489.425,488.225 Q489.6875,488.225 489.8875,488.4375 Q490.1,488.6375 490.1,488.9125 Q490.1,489.1875 489.825,489.5125 Q489.425,489.975 488.7875,490.2375 Q487.925,490.6 486.8875,490.6 Q485.675,490.6 484.7125,490.1 Q483.925,489.7 483.375,488.85 Q482.825,487.9875 482.825,486.9625 L482.825,486.0375 Q482.825,484.975 483.3125,484.0625 Q483.8125,483.1375 484.6875,482.65 Q485.5625,482.15 486.55,482.15 Q487.1375,482.15 487.65,482.2875 Q488.175,482.4125 488.6125,482.7 Z " fill="#000000"/><text fill="#000000" font-family="sans-serif" font-size="11.2" lengthAdjust="spacing" textLength="81.6" x="497.6" y="490.6375">FormatMessage</text><line style="stroke:#181818;stroke-width:0.4000000000000001;" x1="475.2" x2="580.8" y1="498.8" y2="498.8"/><line style="stroke:#181818;stroke-width:0.4000000000000001;" x1="475.2" x2="580.8" y1="505.2" y2="505.2"/></g><!--MD5=[c60af77fe5573b84a4aa4bce89659574]
class Server--><g id="elem_Server"><rect fill="#F1F1F1" height="38.4" id="Server" rx="2" ry="2" style="stroke:#181818;stroke-width:0.4000000000000001;" width="59.2" x="535.2" y="13.2"/><ellipse cx="547.2" cy="26" fill="#ADD1B2" rx="8.8" ry="8.8" style="stroke:#181818;stroke-width:0.8000000000000002;"/><path d="M549.4125,22.7 Q549.5375,22.525 549.6875,22.4375 Q549.8375,22.35 550.0125,22.35 Q550.3125,22.35 550.5,22.5625 Q550.6875,22.7625 550.6875,23.25 L550.6875,24.4125 Q550.6875,24.9 550.5,25.1125 Q550.3125,25.325 550.0125,25.325 Q549.7375,25.325 549.575,25.1625 Q549.4125,25.0125 549.325,24.6 Q549.2875,24.3125 549.1375,24.1625 Q548.875,23.8625 548.3875,23.6875 Q547.9,23.5125 547.4,23.5125 Q546.7875,23.5125 546.275,23.775 Q545.775,24.0375 545.375,24.6375 Q544.9875,25.2375 544.9875,26.0625 L544.9875,26.9375 Q544.9875,27.925 545.7,28.5875 Q546.4125,29.2375 547.6875,29.2375 Q548.4375,29.2375 548.9625,29.0375 Q549.275,28.9125 549.6125,28.5625 Q549.825,28.35 549.9375,28.2875 Q550.0625,28.225 550.225,28.225 Q550.4875,28.225 550.6875,28.4375 Q550.9,28.6375 550.9,28.9125 Q550.9,29.1875 550.625,29.5125 Q550.225,29.975 549.5875,30.2375 Q548.725,30.6 547.6875,30.6 Q546.475,30.6 545.5125,30.1 Q544.725,29.7 544.175,28.85 Q543.625,27.9875 543.625,26.9625 L543.625,26.0375 Q543.625,24.975 544.1125,24.0625 Q544.6125,23.1375 545.4875,22.65 Q546.3625,22.15 547.35,22.15 Q547.9375,22.15 548.45,22.2875 Q548.975,22.4125 549.4125,22.7 Z " fill="#000000"/><text fill="#000000" font-family="sans-serif" font-size="11.2" lengthAdjust="spacing" textLength="33.6" x="558.4" y="30.6375">Server</text><line style="stroke:#181818;stroke-width:0.4000000000000001;" x1="536" x2="593.6" y1="38.8" y2="38.8"/><line style="stroke:#181818;stroke-width:0.4000000000000001;" x1="536" x2="593.6" y1="45.2" y2="45.2"/></g><!--MD5=[64378069abca8a10f8631d579d552afb]
reverse link SharedBoardRepository to JpaSharedBoardRepository--><g id="link_SharedBoardRepository_JpaSharedBoardRepository"><path codeLine="37" d="M559.2,898.656 C559.2,909.632 559.2,921.008 559.2,931.152 " fill="none" id="SharedBoardRepository-backto-JpaSharedBoardRepository" style="stroke:#181818;stroke-width:0.8000000000000002;"/><polygon fill="none" points="553.6,898.52,559.2,882.52,564.8,898.52,553.6,898.52" style="stroke:#181818;stroke-width:0.8000000000000002;"/></g><!--MD5=[9d843a66e39f8b8e5b145b21f787032c]
reverse link PermissionRepository to JpaPermissionRepository--><g id="link_PermissionRepository_JpaPermissionRepository"><path codeLine="46" d="M200.8,891.496 C200.8,907.2 200.8,924.536 200.8,938.36 " fill="none" id="PermissionRepository-backto-JpaPermissionRepository" style="stroke:#181818;stroke-width:0.8000000000000002;"/><polygon fill="none" points="195.2,891.344,200.8,875.344,206.4,891.344,195.2,891.344" style="stroke:#181818;stroke-width:0.8000000000000002;"/></g><!--MD5=[791af1f22b3a34d447d8d6a6fccd0653]
link Client to ArchiveBoardUI--><g id="link_Client_ArchiveBoardUI"><path codeLine="54" d="M205.6,59.352 C205.6,81.08 205.6,112.264 205.6,136.624 " fill="none" id="Client-to-ArchiveBoardUI" style="stroke:#181818;stroke-width:0.8000000000000002;stroke-dasharray:7.0,7.0;"/><polygon fill="#181818" points="205.6,140.776,208.8,133.576,205.6,136.776,202.4,133.576,205.6,140.776" style="stroke:#181818;stroke-width:0.8000000000000002;"/><text fill="#000000" font-family="sans-serif" font-size="10.4" lengthAdjust="spacing" textLength="24" x="206.4" y="95.2227">Uses</text></g><!--MD5=[44a538fd17c5a0d94b266533645b17eb]
link ClientHandler to RcompService--><g id="link_ClientHandler_RcompService"><path codeLine="73" d="M558.64,201.912 C552.656,227.488 543.504,266.576 536.76,295.384 " fill="none" id="ClientHandler-to-RcompService" style="stroke:#181818;stroke-width:0.8000000000000002;"/><polygon fill="#181818" points="535.784,299.56,540.5439,293.2812,536.6976,295.6657,534.3131,291.8194,535.784,299.56" style="stroke:#181818;stroke-width:0.8000000000000002;"/><text fill="#000000" font-family="sans-serif" font-size="10.4" lengthAdjust="spacing" textLength="125.6" x="551.2" y="246.4227">Sends/Receives Messages</text></g><!--MD5=[eb2da12d92f9666b77fcec323ec63332]
link ArchiveBoardUI to RcompService--><g id="link_ArchiveBoardUI_RcompService"><path codeLine="74" d="M273.976,208.936 C327.4,234.992 401.472,271.104 455.848,297.616 " fill="none" id="ArchiveBoardUI-to-RcompService" style="stroke:#181818;stroke-width:0.8000000000000002;"/><polygon fill="#181818" points="459.728,299.512,454.6496,293.4879,456.13,297.7644,451.8534,299.2447,459.728,299.512" style="stroke:#181818;stroke-width:0.8000000000000002;"/><text fill="#000000" font-family="sans-serif" font-size="10.4" lengthAdjust="spacing" textLength="125.6" x="357.6" y="246.4227">Sends/Receives Messages</text></g><!--MD5=[8bb2b1d63001207dbd9fa67c9a0401be]
link Server to ClientHandler--><g id="link_Server_ClientHandler"><path codeLine="75" d="M564.8,51.608 C564.8,75.056 564.8,115.88 564.8,143.888 " fill="none" id="Server-to-ClientHandler" style="stroke:#181818;stroke-width:0.8000000000000002;"/><polygon fill="#181818" points="564.8,147.92,568,140.72,564.8,143.92,561.6,140.72,564.8,147.92" style="stroke:#181818;stroke-width:0.8000000000000002;"/><text fill="#000000" font-family="sans-serif" font-size="10.4" lengthAdjust="spacing" textLength="24" x="565.6" y="95.2227">Uses</text></g><!--MD5=[4514b216b9e40a81aea0a1b8e2bbdb35]
link RcompService to FormatMessage--><g id="link_RcompService_FormatMessage"><path codeLine="76" d="M528,367.736 C528,398.192 528,442.4 528,468.944 " fill="none" id="RcompService-to-FormatMessage" style="stroke:#181818;stroke-width:0.8000000000000002;"/><polygon fill="#181818" points="528,473.048,531.2,465.848,528,469.048,524.8,465.848,528,473.048" style="stroke:#181818;stroke-width:0.8000000000000002;"/><text fill="#000000" font-family="sans-serif" font-size="10.4" lengthAdjust="spacing" textLength="24" x="528.8" y="412.8227">Uses</text></g><!--MD5=[9104bec51afa797286a0e986d93325c2]
link ArchiveBoardUI to ArchiveBoardController--><g id="link_ArchiveBoardUI_ArchiveBoardController"><path codeLine="79" d="M205.6,208.936 C205.6,231.856 205.6,262.56 205.6,287.664 " fill="none" id="ArchiveBoardUI-to-ArchiveBoardController" style="stroke:#181818;stroke-width:0.8000000000000002;"/><polygon fill="#181818" points="205.6,291.968,208.8,284.768,205.6,287.968,202.4,284.768,205.6,291.968" style="stroke:#181818;stroke-width:0.8000000000000002;"/></g><!--MD5=[9687ccf6a35f6a8ae8f0de110a7fabdd]
link ArchiveBoardController to PostItManagement--><g id="link_ArchiveBoardController_PostItManagement"><path codeLine="80" d="M205.6,375.296 C205.6,399.712 205.6,430.504 205.6,454.264 " fill="none" id="ArchiveBoardController-to-PostItManagement" style="stroke:#181818;stroke-width:0.8000000000000002;"/><polygon fill="#181818" points="205.6,458.32,208.8,451.12,205.6,454.32,202.4,451.12,205.6,458.32" style="stroke:#181818;stroke-width:0.8000000000000002;"/></g><!--MD5=[3a63439700d21ec4f247d06d415aeda1]
link PostItManagement to PersistenceContext--><g id="link_PostItManagement_PersistenceContext"><path codeLine="81" d="M205.6,526.496 C205.6,546.48 205.6,571.704 205.6,591.088 " fill="none" id="PostItManagement-to-PersistenceContext" style="stroke:#181818;stroke-width:0.8000000000000002;"/><polygon fill="#181818" points="205.6,595.136,208.8,587.936,205.6,591.136,202.4,587.936,205.6,595.136" style="stroke:#181818;stroke-width:0.8000000000000002;"/></g><!--MD5=[754b775031405e096442b27febffa290]
link PersistenceContext to RepositoryFactory--><g id="link_PersistenceContext_RepositoryFactory"><path codeLine="82" d="M205.6,648.944 C205.6,662.296 205.6,678.776 205.6,693.448 " fill="none" id="PersistenceContext-to-RepositoryFactory" style="stroke:#181818;stroke-width:0.8000000000000002;"/><polygon fill="#181818" points="205.6,697.528,208.8,690.328,205.6,693.528,202.4,690.328,205.6,697.528" style="stroke:#181818;stroke-width:0.8000000000000002;"/></g><!--MD5=[ec5ad66faac0add80430b7bc4ec38b87]
link RepositoryFactory to SharedBoardRepository--><g id="link_RepositoryFactory_SharedBoardRepository"><path codeLine="83" d="M307.64,765.64 C353.272,780.512 407.056,798.032 453.152,813.048 " fill="none" id="RepositoryFactory-to-SharedBoardRepository" style="stroke:#181818;stroke-width:0.8000000000000002;"/><polygon fill="#181818" points="457.024,814.312,451.1814,809.0258,453.2236,813.0643,449.1851,815.1064,457.024,814.312" style="stroke:#181818;stroke-width:0.8000000000000002;"/></g><!--MD5=[771288ce90520aadb38b18d3eb0ba627]
link RepositoryFactory to PermissionRepository--><g id="link_RepositoryFactory_PermissionRepository"><path codeLine="84" d="M204.208,765.72 C203.536,781.944 202.728,801.32 202.072,817.144 " fill="none" id="RepositoryFactory-to-PermissionRepository" style="stroke:#181818;stroke-width:0.8000000000000002;"/><polygon fill="#181818" points="201.896,821.296,205.3812,814.2297,202.0559,817.2992,198.9863,813.9739,201.896,821.296" style="stroke:#181818;stroke-width:0.8000000000000002;"/></g><!--MD5=[9cd4d0a85f2609ce885583873d79608c]
@startuml

package presentation {
  class ArchiveBoardUI {
    + archiveBoardUI(Socket socket, DataOutputStream outputStream, \nDataInputStream inputStream, BufferedReader bufferedReader): void
  }
}

package application {
  class ArchiveBoardController {
    + findAdminPermissionBoards(): List<String>
    + findAutenticatedUser(): EmailAddress
    + archiveSharedBoard(String sharedBoard): void
  }
}

package service {
  class PostItManagement {
    + findAdminPermissionBoards(EmailAddress emailAddress): List<String>
    + archiveSharedBoard(String title): void
  }
}

package persistence {
  class PersistenceContext {
    + repositories(): RepositoryFactory
  }

  interface RepositoryFactory {
    + sharedBoardRepository(): SharedBoardRepository
    + permissionRepository(): PermissionRepository
  }

  interface SharedBoardRepository {
    + save(sharedBoard: SharedBoard): void
    + findSharedBoardByTitle(Designation title): SharedBoard
  }
  JpaSharedBoardRepository -up-|> SharedBoardRepository
  class JpaSharedBoardRepository {
      + save(sharedBoard: SharedBoard): void
      + findSharedBoardByTitle(Designation title): SharedBoard
    }

  interface PermissionRepository {
    + findWriteAdmin(EmailAddress emailAddress): Iterable<Permission>
  }
  JpaPermissionRepository -up-|> PermissionRepository

  class JpaPermissionRepository {
      + findWriteAdmin(EmailAddress emailAddress): Iterable<Permission>
    }
}


Client .down.> ArchiveBoardUI : Uses


class Client {
  + main(String[] args): void
}

class ClientHandler {
  + archiveSharedBoard(FormatMessage message): void
}

class RcompService {
  +sendMessage(socket, message, outputStream)
  +readData(socket, inputStream)
}

class FormatMessage


ClientHandler -down-> RcompService : Sends/Receives Messages
ArchiveBoardUI -down-> RcompService : Sends/Receives Messages
Server -down-> ClientHandler : Uses
RcompService -down-> FormatMessage : Uses


ArchiveBoardUI - -> ArchiveBoardController
ArchiveBoardController - -> PostItManagement
PostItManagement - -> PersistenceContext
PersistenceContext - ->RepositoryFactory
RepositoryFactory - -> SharedBoardRepository
RepositoryFactory - -> PermissionRepository
@enduml

PlantUML version 1.2022.12(Sun Oct 23 19:12:26 WEST 2022)
(GPL source distribution)
Java Runtime: OpenJDK Runtime Environment
JVM: OpenJDK 64-Bit Server VM
Default Encoding: Cp1252
Language: pt
Country: PT
--></g></svg>