<?xml version="1.0" encoding="UTF-8" standalone="no"?><svg xmlns="http://www.w3.org/2000/svg" xmlns:xlink="http://www.w3.org/1999/xlink" contentStyleType="text/css" height="1500px" preserveAspectRatio="none" style="width:3170px;height:1500px;background:#FFFFFF;" version="1.1" viewBox="0 0 3170 1500" width="3170px" zoomAndPan="magnify"><defs/><g><rect fill="#FFFFFF" height="1293.9316" style="stroke:#181818;stroke-width:1.0;" width="10" x="17.5" y="98.2422"/><rect fill="#FFFFFF" height="1222.0586" style="stroke:#181818;stroke-width:1.0;" width="10" x="566.5" y="170.1152"/><rect fill="#FFFFFF" height="530.6172" style="stroke:#181818;stroke-width:1.0;" width="10" x="683.5" y="232.6973"/><rect fill="#FFFFFF" height="400.8223" style="stroke:#181818;stroke-width:1.0;" width="10" x="683.5" y="919.7695"/><rect fill="#FFFFFF" height="31.291" style="stroke:#181818;stroke-width:1.0;" width="10" x="1041.5" y="201.4063"/><rect fill="#FFFFFF" height="31.291" style="stroke:#181818;stroke-width:1.0;" width="10" x="1041.5" y="763.3145"/><rect fill="#FFFFFF" height="31.291" style="stroke:#181818;stroke-width:1.0;" width="10" x="1041.5" y="888.4785"/><rect fill="#FFFFFF" height="31.291" style="stroke:#181818;stroke-width:1.0;" width="10" x="1041.5" y="1320.5918"/><rect fill="#FFFFFF" height="981.0215" style="stroke:#181818;stroke-width:1.0;" width="10" x="1188.5" y="308.2793"/><rect fill="#FFFFFF" height="918.4395" style="stroke:#181818;stroke-width:1.0;" width="10" x="1527.5" y="339.5703"/><rect fill="#FFFFFF" height="79.543" style="stroke:#181818;stroke-width:1.0;" width="10" x="1740.5" y="370.8613"/><rect fill="#FFFFFF" height="62.582" style="stroke:#181818;stroke-width:1.0;" width="10" x="2323.5" y="481.6953"/><rect fill="#FFFFFF" height="31.291" style="stroke:#181818;stroke-width:1.0;" width="10" x="2678" y="638.1504"/><rect fill="#FFFFFF" height="31.291" style="stroke:#181818;stroke-width:1.0;" width="10" x="2933" y="1120.5156"/><line style="stroke:#181818;stroke-width:0.5;stroke-dasharray:5.0,5.0;" x1="22" x2="22" y1="88.2422" y2="1401.1738"/><line style="stroke:#181818;stroke-width:0.5;stroke-dasharray:5.0,5.0;" x1="325.5" x2="325.5" y1="88.2422" y2="1401.1738"/><line style="stroke:#181818;stroke-width:0.5;stroke-dasharray:5.0,5.0;" x1="571" x2="571" y1="88.2422" y2="1401.1738"/><line style="stroke:#181818;stroke-width:0.5;stroke-dasharray:5.0,5.0;" x1="688" x2="688" y1="88.2422" y2="1401.1738"/><line style="stroke:#181818;stroke-width:0.5;stroke-dasharray:5.0,5.0;" x1="1046" x2="1046" y1="88.2422" y2="1401.1738"/><line style="stroke:#181818;stroke-width:0.5;stroke-dasharray:5.0,5.0;" x1="1193" x2="1193" y1="88.2422" y2="1401.1738"/><line style="stroke:#181818;stroke-width:0.5;stroke-dasharray:5.0,5.0;" x1="1532.5" x2="1532.5" y1="88.2422" y2="1401.1738"/><line style="stroke:#181818;stroke-width:0.5;stroke-dasharray:5.0,5.0;" x1="1745.5" x2="1745.5" y1="88.2422" y2="1401.1738"/><line style="stroke:#181818;stroke-width:0.5;stroke-dasharray:5.0,5.0;" x1="1940.5" x2="1940.5" y1="88.2422" y2="1401.1738"/><line style="stroke:#181818;stroke-width:0.5;stroke-dasharray:5.0,5.0;" x1="2135.5" x2="2135.5" y1="88.2422" y2="1401.1738"/><line style="stroke:#181818;stroke-width:0.5;stroke-dasharray:5.0,5.0;" x1="2328.5" x2="2328.5" y1="88.2422" y2="1401.1738"/><line style="stroke:#181818;stroke-width:0.5;stroke-dasharray:5.0,5.0;" x1="2477.5" x2="2477.5" y1="88.2422" y2="1401.1738"/><line style="stroke:#181818;stroke-width:0.5;stroke-dasharray:5.0,5.0;" x1="2682.5" x2="2682.5" y1="88.2422" y2="1401.1738"/><line style="stroke:#181818;stroke-width:0.5;stroke-dasharray:5.0,5.0;" x1="2937.5" x2="2937.5" y1="88.2422" y2="1401.1738"/><line style="stroke:#181818;stroke-width:0.5;stroke-dasharray:5.0,5.0;" x1="3115.5" x2="3115.5" y1="1191.6172" y2="1401.1738"/><text fill="#000000" font-family="sans-serif" font-size="14" lengthAdjust="spacing" textLength="29" x="5" y="84.7285">User</text><ellipse cx="22.5" cy="18.1211" fill="#E2E2F0" rx="8" ry="8" style="stroke:#181818;stroke-width:0.5;"/><path d="M22.5,26.1211 L22.5,53.1211 M9.5,34.1211 L35.5,34.1211 M22.5,53.1211 L9.5,68.1211 M22.5,53.1211 L35.5,68.1211 " fill="none" style="stroke:#181818;stroke-width:0.5;"/><text fill="#000000" font-family="sans-serif" font-size="14" lengthAdjust="spacing" textLength="29" x="5" y="1415.2813">User</text><ellipse cx="22.5" cy="1427.2949" fill="#E2E2F0" rx="8" ry="8" style="stroke:#181818;stroke-width:0.5;"/><path d="M22.5,1435.2949 L22.5,1462.2949 M9.5,1443.2949 L35.5,1443.2949 M22.5,1462.2949 L9.5,1477.2949 M22.5,1462.2949 L35.5,1477.2949 " fill="none" style="stroke:#181818;stroke-width:0.5;"/><rect fill="#E2E2F0" height="32.6211" rx="2.5" ry="2.5" style="stroke:#181818;stroke-width:0.5;" width="50" x="300.5" y="54.6211"/><text fill="#000000" font-family="sans-serif" font-size="14" lengthAdjust="spacing" textLength="36" x="307.5" y="76.7285">Client</text><rect fill="#E2E2F0" height="32.6211" rx="2.5" ry="2.5" style="stroke:#181818;stroke-width:0.5;" width="50" x="300.5" y="1400.1738"/><text fill="#000000" font-family="sans-serif" font-size="14" lengthAdjust="spacing" textLength="36" x="307.5" y="1422.2813">Client</text><rect fill="#E2E2F0" height="32.6211" rx="2.5" ry="2.5" style="stroke:#181818;stroke-width:0.5;" width="111" x="516" y="54.6211"/><text fill="#000000" font-family="sans-serif" font-size="14" lengthAdjust="spacing" textLength="97" x="523" y="76.7285">ArchiveBoardUI</text><rect fill="#E2E2F0" height="32.6211" rx="2.5" ry="2.5" style="stroke:#181818;stroke-width:0.5;" width="111" x="516" y="1400.1738"/><text fill="#000000" font-family="sans-serif" font-size="14" lengthAdjust="spacing" textLength="97" x="523" y="1422.2813">ArchiveBoardUI</text><rect fill="#E2E2F0" height="32.6211" rx="2.5" ry="2.5" style="stroke:#181818;stroke-width:0.5;" width="103" x="637" y="54.6211"/><text fill="#000000" font-family="sans-serif" font-size="14" lengthAdjust="spacing" textLength="89" x="644" y="76.7285">:ClientHandler</text><rect fill="#E2E2F0" height="32.6211" rx="2.5" ry="2.5" style="stroke:#181818;stroke-width:0.5;" width="103" x="637" y="1400.1738"/><text fill="#000000" font-family="sans-serif" font-size="14" lengthAdjust="spacing" textLength="89" x="644" y="1422.2813">:ClientHandler</text><rect fill="#E2E2F0" height="32.6211" rx="2.5" ry="2.5" style="stroke:#181818;stroke-width:0.5;" width="109" x="992" y="54.6211"/><text fill="#000000" font-family="sans-serif" font-size="14" lengthAdjust="spacing" textLength="95" x="999" y="76.7285">:RcompService</text><rect fill="#E2E2F0" height="32.6211" rx="2.5" ry="2.5" style="stroke:#181818;stroke-width:0.5;" width="109" x="992" y="1400.1738"/><text fill="#000000" font-family="sans-serif" font-size="14" lengthAdjust="spacing" textLength="95" x="999" y="1422.2813">:RcompService</text><rect fill="#E2E2F0" height="32.6211" rx="2.5" ry="2.5" style="stroke:#181818;stroke-width:0.5;" width="165" x="1111" y="54.6211"/><text fill="#000000" font-family="sans-serif" font-size="14" lengthAdjust="spacing" textLength="151" x="1118" y="76.7285">:ArchiveBoardController</text><rect fill="#E2E2F0" height="32.6211" rx="2.5" ry="2.5" style="stroke:#181818;stroke-width:0.5;" width="165" x="1111" y="1400.1738"/><text fill="#000000" font-family="sans-serif" font-size="14" lengthAdjust="spacing" textLength="151" x="1118" y="1422.2813">:ArchiveBoardController</text><rect fill="#E2E2F0" height="32.6211" rx="2.5" ry="2.5" style="stroke:#181818;stroke-width:0.5;" width="182" x="1441.5" y="54.6211"/><text fill="#000000" font-family="sans-serif" font-size="14" lengthAdjust="spacing" textLength="168" x="1448.5" y="76.7285">:PostItManagementService</text><rect fill="#E2E2F0" height="32.6211" rx="2.5" ry="2.5" style="stroke:#181818;stroke-width:0.5;" width="182" x="1441.5" y="1400.1738"/><text fill="#000000" font-family="sans-serif" font-size="14" lengthAdjust="spacing" textLength="168" x="1448.5" y="1422.2813">:PostItManagementService</text><rect fill="#E2E2F0" height="32.6211" rx="2.5" ry="2.5" style="stroke:#181818;stroke-width:0.5;" width="224" x="1633.5" y="54.6211"/><text fill="#000000" font-family="sans-serif" font-size="14" lengthAdjust="spacing" textLength="210" x="1640.5" y="76.7285">systemUser: AuthorizationService</text><rect fill="#E2E2F0" height="32.6211" rx="2.5" ry="2.5" style="stroke:#181818;stroke-width:0.5;" width="224" x="1633.5" y="1400.1738"/><text fill="#000000" font-family="sans-serif" font-size="14" lengthAdjust="spacing" textLength="210" x="1640.5" y="1422.2813">systemUser: AuthorizationService</text><rect fill="#E2E2F0" height="32.6211" rx="2.5" ry="2.5" style="stroke:#181818;stroke-width:0.5;" width="146" x="1867.5" y="54.6211"/><text fill="#000000" font-family="sans-serif" font-size="14" lengthAdjust="spacing" textLength="132" x="1874.5" y="76.7285">sysuser :SystemUser</text><rect fill="#E2E2F0" height="32.6211" rx="2.5" ry="2.5" style="stroke:#181818;stroke-width:0.5;" width="146" x="1867.5" y="1400.1738"/><text fill="#000000" font-family="sans-serif" font-size="14" lengthAdjust="spacing" textLength="132" x="1874.5" y="1422.2813">sysuser :SystemUser</text><rect fill="#E2E2F0" height="32.6211" rx="2.5" ry="2.5" style="stroke:#181818;stroke-width:0.5;" width="225" x="2023.5" y="54.6211"/><text fill="#000000" font-family="sans-serif" font-size="14" lengthAdjust="spacing" textLength="211" x="2030.5" y="76.7285">formatMessage:FormateMessage</text><rect fill="#E2E2F0" height="32.6211" rx="2.5" ry="2.5" style="stroke:#181818;stroke-width:0.5;" width="225" x="2023.5" y="1400.1738"/><text fill="#000000" font-family="sans-serif" font-size="14" lengthAdjust="spacing" textLength="211" x="2030.5" y="1422.2813">formatMessage:FormateMessage</text><rect fill="#E2E2F0" height="51.2422" rx="2.5" ry="2.5" style="stroke:#181818;stroke-width:0.5;" width="140" x="2258.5" y="36"/><text fill="#000000" font-family="sans-serif" font-size="14" font-style="italic" lengthAdjust="spacing" textLength="89" x="2284" y="58.1074">«persistence»</text><text fill="#000000" font-family="sans-serif" font-size="14" lengthAdjust="spacing" textLength="126" x="2265.5" y="76.7285">:PersistenceContext</text><rect fill="#E2E2F0" height="51.2422" rx="2.5" ry="2.5" style="stroke:#181818;stroke-width:0.5;" width="140" x="2258.5" y="1400.1738"/><text fill="#000000" font-family="sans-serif" font-size="14" font-style="italic" lengthAdjust="spacing" textLength="89" x="2284" y="1422.2813">«persistence»</text><text fill="#000000" font-family="sans-serif" font-size="14" lengthAdjust="spacing" textLength="126" x="2265.5" y="1440.9023">:PersistenceContext</text><rect fill="#E2E2F0" height="51.2422" rx="2.5" ry="2.5" style="stroke:#181818;stroke-width:0.5;" width="138" x="2408.5" y="36"/><text fill="#000000" font-family="sans-serif" font-size="14" font-style="italic" lengthAdjust="spacing" textLength="59" x="2448" y="58.1074">«factory»</text><text fill="#000000" font-family="sans-serif" font-size="14" lengthAdjust="spacing" textLength="120" x="2415.5" y="76.7285">:RepositoryFactory</text><rect fill="#E2E2F0" height="51.2422" rx="2.5" ry="2.5" style="stroke:#181818;stroke-width:0.5;" width="138" x="2408.5" y="1400.1738"/><text fill="#000000" font-family="sans-serif" font-size="14" font-style="italic" lengthAdjust="spacing" textLength="59" x="2448" y="1422.2813">«factory»</text><text fill="#000000" font-family="sans-serif" font-size="14" lengthAdjust="spacing" textLength="120" x="2415.5" y="1440.9023">:RepositoryFactory</text><text fill="#000000" font-family="sans-serif" font-size="14" font-style="italic" lengthAdjust="spacing" textLength="79" x="2640.5" y="66.1074">«repository»</text><text fill="#000000" font-family="sans-serif" font-size="14" lengthAdjust="spacing" textLength="247" x="2556.5" y="84.7285">permissionRepo: PermissionRepository</text><path d="M2665,15 C2665,5 2683,5 2683,5 C2683,5 2701,5 2701,15 L2701,41 C2701,51 2683,51 2683,51 C2683,51 2665,51 2665,41 L2665,15 " fill="#E2E2F0" style="stroke:#181818;stroke-width:1.5;"/><path d="M2665,15 C2665,25 2683,25 2683,25 C2683,25 2701,25 2701,15 " fill="none" style="stroke:#181818;stroke-width:1.5;"/><text fill="#000000" font-family="sans-serif" font-size="14" font-style="italic" lengthAdjust="spacing" textLength="79" x="2640.5" y="1415.2813">«repository»</text><text fill="#000000" font-family="sans-serif" font-size="14" lengthAdjust="spacing" textLength="247" x="2556.5" y="1433.9023">permissionRepo: PermissionRepository</text><path d="M2665,1447.416 C2665,1437.416 2683,1437.416 2683,1437.416 C2683,1437.416 2701,1437.416 2701,1447.416 L2701,1473.416 C2701,1483.416 2683,1483.416 2683,1483.416 C2683,1483.416 2665,1483.416 2665,1473.416 L2665,1447.416 " fill="#E2E2F0" style="stroke:#181818;stroke-width:1.5;"/><path d="M2665,1447.416 C2665,1457.416 2683,1457.416 2683,1457.416 C2683,1457.416 2701,1457.416 2701,1447.416 " fill="none" style="stroke:#181818;stroke-width:1.5;"/><text fill="#000000" font-family="sans-serif" font-size="14" font-style="italic" lengthAdjust="spacing" textLength="79" x="2895.5" y="66.1074">«repository»</text><text fill="#000000" font-family="sans-serif" font-size="14" lengthAdjust="spacing" textLength="231" x="2819.5" y="84.7285">boardRepo: SharedBoardRepository</text><path d="M2920,15 C2920,5 2938,5 2938,5 C2938,5 2956,5 2956,15 L2956,41 C2956,51 2938,51 2938,51 C2938,51 2920,51 2920,41 L2920,15 " fill="#E2E2F0" style="stroke:#181818;stroke-width:1.5;"/><path d="M2920,15 C2920,25 2938,25 2938,25 C2938,25 2956,25 2956,15 " fill="none" style="stroke:#181818;stroke-width:1.5;"/><text fill="#000000" font-family="sans-serif" font-size="14" font-style="italic" lengthAdjust="spacing" textLength="79" x="2895.5" y="1415.2813">«repository»</text><text fill="#000000" font-family="sans-serif" font-size="14" lengthAdjust="spacing" textLength="231" x="2819.5" y="1433.9023">boardRepo: SharedBoardRepository</text><path d="M2920,1447.416 C2920,1437.416 2938,1437.416 2938,1437.416 C2938,1437.416 2956,1437.416 2956,1447.416 L2956,1473.416 C2956,1483.416 2938,1483.416 2938,1483.416 C2938,1483.416 2920,1483.416 2920,1473.416 L2920,1447.416 " fill="#E2E2F0" style="stroke:#181818;stroke-width:1.5;"/><path d="M2920,1447.416 C2920,1457.416 2938,1457.416 2938,1457.416 C2938,1457.416 2956,1457.416 2956,1447.416 " fill="none" style="stroke:#181818;stroke-width:1.5;"/><rect fill="#E2E2F0" height="32.6211" rx="2.5" ry="2.5" style="stroke:#181818;stroke-width:0.5;" width="98" x="3066.5" y="1400.1738"/><text fill="#000000" font-family="sans-serif" font-size="14" lengthAdjust="spacing" textLength="84" x="3073.5" y="1422.2813">SharedBoard</text><rect fill="#FFFFFF" height="1293.9316" style="stroke:#181818;stroke-width:1.0;" width="10" x="17.5" y="98.2422"/><rect fill="#FFFFFF" height="1222.0586" style="stroke:#181818;stroke-width:1.0;" width="10" x="566.5" y="170.1152"/><rect fill="#FFFFFF" height="530.6172" style="stroke:#181818;stroke-width:1.0;" width="10" x="683.5" y="232.6973"/><rect fill="#FFFFFF" height="400.8223" style="stroke:#181818;stroke-width:1.0;" width="10" x="683.5" y="919.7695"/><rect fill="#FFFFFF" height="31.291" style="stroke:#181818;stroke-width:1.0;" width="10" x="1041.5" y="201.4063"/><rect fill="#FFFFFF" height="31.291" style="stroke:#181818;stroke-width:1.0;" width="10" x="1041.5" y="763.3145"/><rect fill="#FFFFFF" height="31.291" style="stroke:#181818;stroke-width:1.0;" width="10" x="1041.5" y="888.4785"/><rect fill="#FFFFFF" height="31.291" style="stroke:#181818;stroke-width:1.0;" width="10" x="1041.5" y="1320.5918"/><rect fill="#FFFFFF" height="981.0215" style="stroke:#181818;stroke-width:1.0;" width="10" x="1188.5" y="308.2793"/><rect fill="#FFFFFF" height="918.4395" style="stroke:#181818;stroke-width:1.0;" width="10" x="1527.5" y="339.5703"/><rect fill="#FFFFFF" height="79.543" style="stroke:#181818;stroke-width:1.0;" width="10" x="1740.5" y="370.8613"/><rect fill="#FFFFFF" height="62.582" style="stroke:#181818;stroke-width:1.0;" width="10" x="2323.5" y="481.6953"/><rect fill="#FFFFFF" height="31.291" style="stroke:#181818;stroke-width:1.0;" width="10" x="2678" y="638.1504"/><rect fill="#FFFFFF" height="31.291" style="stroke:#181818;stroke-width:1.0;" width="10" x="2933" y="1120.5156"/><polygon fill="#181818" points="313.5,117.5332,323.5,121.5332,313.5,125.5332,317.5,121.5332" style="stroke:#181818;stroke-width:1.0;"/><line style="stroke:#181818;stroke-width:1.0;" x1="27.5" x2="319.5" y1="121.5332" y2="121.5332"/><text fill="#000000" font-family="sans-serif" font-size="13" font-weight="bold" lengthAdjust="spacing" textLength="7" x="34.5" y="116.2705">1</text><text fill="#000000" font-family="sans-serif" font-size="13" lengthAdjust="spacing" textLength="263" x="45.5" y="116.2705">Requests to share a board owned by the user</text><polygon fill="#181818" points="554.5,166.1152,564.5,170.1152,554.5,174.1152,558.5,170.1152" style="stroke:#181818;stroke-width:1.0;"/><line style="stroke:#181818;stroke-width:1.0;" x1="325.5" x2="560.5" y1="170.1152" y2="170.1152"/><text fill="#000000" font-family="sans-serif" font-size="13" font-weight="bold" lengthAdjust="spacing" textLength="7" x="332.5" y="156.207">2</text><text fill="#000000" font-family="sans-serif" font-size="13" lengthAdjust="spacing" textLength="211" x="343.5" y="147.5615">archiveBoardUI(socket, inputStream,</text><text fill="#000000" font-family="sans-serif" font-size="13" lengthAdjust="spacing" textLength="176" x="347.5" y="164.8525">outputStream, bufferedReader)</text><polygon fill="#181818" points="1029.5,197.4063,1039.5,201.4063,1029.5,205.4063,1033.5,201.4063" style="stroke:#181818;stroke-width:1.0;"/><line style="stroke:#181818;stroke-width:1.0;" x1="576.5" x2="1035.5" y1="201.4063" y2="201.4063"/><text fill="#000000" font-family="sans-serif" font-size="13" font-weight="bold" lengthAdjust="spacing" textLength="7" x="583.5" y="196.1436">3</text><text fill="#000000" font-family="sans-serif" font-size="13" lengthAdjust="spacing" textLength="311" x="594.5" y="196.1436">sendMessage(socket, formatMessage, outputStream)</text><polygon fill="#181818" points="704.5,228.6973,694.5,232.6973,704.5,236.6973,700.5,232.6973" style="stroke:#181818;stroke-width:1.0;"/><line style="stroke:#181818;stroke-width:1.0;stroke-dasharray:2.0,2.0;" x1="698.5" x2="1045.5" y1="232.6973" y2="232.6973"/><text fill="#000000" font-family="sans-serif" font-size="13" font-weight="bold" lengthAdjust="spacing" textLength="7" x="710.5" y="227.4346">4</text><text fill="#000000" font-family="sans-serif" font-size="13" lengthAdjust="spacing" textLength="202" x="721.5" y="227.4346">readData(socket, dataInputStream)</text><line style="stroke:#181818;stroke-width:1.0;" x1="693.5" x2="735.5" y1="263.9883" y2="263.9883"/><line style="stroke:#181818;stroke-width:1.0;" x1="735.5" x2="735.5" y1="263.9883" y2="276.9883"/><line style="stroke:#181818;stroke-width:1.0;" x1="694.5" x2="735.5" y1="276.9883" y2="276.9883"/><polygon fill="#181818" points="704.5,272.9883,694.5,276.9883,704.5,280.9883,700.5,276.9883" style="stroke:#181818;stroke-width:1.0;"/><text fill="#000000" font-family="sans-serif" font-size="13" font-weight="bold" lengthAdjust="spacing" textLength="7" x="700.5" y="258.7256">5</text><text fill="#000000" font-family="sans-serif" font-size="13" lengthAdjust="spacing" textLength="176" x="711.5" y="258.7256">archiveSharedBoard(message)</text><polygon fill="#181818" points="1176.5,304.2793,1186.5,308.2793,1176.5,312.2793,1180.5,308.2793" style="stroke:#181818;stroke-width:1.0;"/><line style="stroke:#181818;stroke-width:1.0;" x1="693.5" x2="1182.5" y1="308.2793" y2="308.2793"/><text fill="#000000" font-family="sans-serif" font-size="13" font-weight="bold" lengthAdjust="spacing" textLength="7" x="700.5" y="303.0166">6</text><text fill="#000000" font-family="sans-serif" font-size="13" lengthAdjust="spacing" textLength="171" x="711.5" y="303.0166">findAdminPermissionBoards()</text><polygon fill="#181818" points="1515.5,335.5703,1525.5,339.5703,1515.5,343.5703,1519.5,339.5703" style="stroke:#181818;stroke-width:1.0;"/><line style="stroke:#181818;stroke-width:1.0;" x1="1198.5" x2="1521.5" y1="339.5703" y2="339.5703"/><text fill="#000000" font-family="sans-serif" font-size="13" font-weight="bold" lengthAdjust="spacing" textLength="7" x="1205.5" y="334.3076">7</text><text fill="#000000" font-family="sans-serif" font-size="13" lengthAdjust="spacing" textLength="299" x="1216.5" y="334.3076">findAdminPermissionBoards(findAutenticatedUser())</text><polygon fill="#181818" points="1728.5,366.8613,1738.5,370.8613,1728.5,374.8613,1732.5,370.8613" style="stroke:#181818;stroke-width:1.0;"/><line style="stroke:#181818;stroke-width:1.0;" x1="1537.5" x2="1734.5" y1="370.8613" y2="370.8613"/><text fill="#000000" font-family="sans-serif" font-size="13" font-weight="bold" lengthAdjust="spacing" textLength="7" x="1544.5" y="365.5986">8</text><text fill="#000000" font-family="sans-serif" font-size="13" lengthAdjust="spacing" textLength="128" x="1555.5" y="365.5986">findAutenticatedUser()</text><rect fill="none" height="43.252" style="stroke:#000000;stroke-width:1.5;" width="230" x="1630.5" y="378.8613"/><path d="M1630.5,378.8613 L1692.5,378.8613 L1692.5,387.8613 L1682.5,397.8613 L1630.5,397.8613 L1630.5,378.8613 " fill="#EEEEEE" style="stroke:#000000;stroke-width:2.0;"/><text fill="#000000" font-family="sans-serif" font-size="13" font-weight="bold" lengthAdjust="spacing" textLength="17" x="1643.5" y="394.8896">ref</text><text fill="#000000" font-family="sans-serif" font-size="12" lengthAdjust="spacing" textLength="218" x="1636.5" y="414.8105">Sequence Diagram - SD_Authentication</text><polygon fill="#181818" points="1548.5,446.4043,1538.5,450.4043,1548.5,454.4043,1544.5,450.4043" style="stroke:#181818;stroke-width:1.0;"/><line style="stroke:#181818;stroke-width:1.0;stroke-dasharray:2.0,2.0;" x1="1542.5" x2="1744.5" y1="450.4043" y2="450.4043"/><text fill="#000000" font-family="sans-serif" font-size="13" font-weight="bold" lengthAdjust="spacing" textLength="7" x="1554.5" y="445.1416">9</text><text fill="#000000" font-family="sans-serif" font-size="13" lengthAdjust="spacing" textLength="31" x="1565.5" y="445.1416">email</text><polygon fill="#181818" points="2311.5,477.6953,2321.5,481.6953,2311.5,485.6953,2315.5,481.6953" style="stroke:#181818;stroke-width:1.0;"/><line style="stroke:#181818;stroke-width:1.0;" x1="1537.5" x2="2317.5" y1="481.6953" y2="481.6953"/><text fill="#000000" font-family="sans-serif" font-size="13" font-weight="bold" lengthAdjust="spacing" textLength="14" x="1544.5" y="476.4326">10</text><text fill="#000000" font-family="sans-serif" font-size="13" lengthAdjust="spacing" textLength="130" x="1562.5" y="476.4326">factory = repositories()</text><polygon fill="#181818" points="2465.5,508.9863,2475.5,512.9863,2465.5,516.9863,2469.5,512.9863" style="stroke:#181818;stroke-width:1.0;"/><line style="stroke:#181818;stroke-width:1.0;" x1="2333.5" x2="2471.5" y1="512.9863" y2="512.9863"/><text fill="#000000" font-family="sans-serif" font-size="13" font-weight="bold" lengthAdjust="spacing" textLength="14" x="2340.5" y="507.7236">11</text><text fill="#000000" font-family="sans-serif" font-size="13" lengthAdjust="spacing" textLength="36" x="2358.5" y="507.7236">create</text><polygon fill="#181818" points="1548.5,540.2773,1538.5,544.2773,1548.5,548.2773,1544.5,544.2773" style="stroke:#181818;stroke-width:1.0;"/><line style="stroke:#181818;stroke-width:1.0;" x1="1542.5" x2="2327.5" y1="544.2773" y2="544.2773"/><text fill="#000000" font-family="sans-serif" font-size="13" font-weight="bold" lengthAdjust="spacing" textLength="14" x="1554.5" y="539.0146">12</text><text fill="#000000" font-family="sans-serif" font-size="13" lengthAdjust="spacing" textLength="39" x="1572.5" y="539.0146">factory</text><polygon fill="#181818" points="2671,571.5684,2681,575.5684,2671,579.5684,2675,575.5684" style="stroke:#181818;stroke-width:1.0;"/><line style="stroke:#181818;stroke-width:1.0;" x1="1537.5" x2="2677" y1="575.5684" y2="575.5684"/><text fill="#000000" font-family="sans-serif" font-size="13" font-weight="bold" lengthAdjust="spacing" textLength="14" x="1544.5" y="570.3057">13</text><text fill="#000000" font-family="sans-serif" font-size="13" lengthAdjust="spacing" textLength="236" x="1562.5" y="570.3057">permissionRepo = PermissionRepository</text><polygon fill="#181818" points="1548.5,602.8594,1538.5,606.8594,1548.5,610.8594,1544.5,606.8594" style="stroke:#181818;stroke-width:1.0;"/><line style="stroke:#181818;stroke-width:1.0;" x1="1542.5" x2="2682" y1="606.8594" y2="606.8594"/><text fill="#000000" font-family="sans-serif" font-size="13" font-weight="bold" lengthAdjust="spacing" textLength="14" x="1554.5" y="601.5967">14</text><text fill="#000000" font-family="sans-serif" font-size="13" lengthAdjust="spacing" textLength="93" x="1572.5" y="601.5967">permissionRepo</text><polygon fill="#181818" points="2666,634.1504,2676,638.1504,2666,642.1504,2670,638.1504" style="stroke:#181818;stroke-width:1.0;"/><line style="stroke:#181818;stroke-width:1.0;" x1="1537.5" x2="2672" y1="638.1504" y2="638.1504"/><text fill="#000000" font-family="sans-serif" font-size="13" font-weight="bold" lengthAdjust="spacing" textLength="14" x="1544.5" y="632.8877">15</text><text fill="#000000" font-family="sans-serif" font-size="13" lengthAdjust="spacing" textLength="127" x="1562.5" y="632.8877">findWriteAdmin(email)</text><polygon fill="#181818" points="1548.5,665.4414,1538.5,669.4414,1548.5,673.4414,1544.5,669.4414" style="stroke:#181818;stroke-width:1.0;"/><line style="stroke:#181818;stroke-width:1.0;stroke-dasharray:2.0,2.0;" x1="1542.5" x2="2682" y1="669.4414" y2="669.4414"/><text fill="#000000" font-family="sans-serif" font-size="13" font-weight="bold" lengthAdjust="spacing" textLength="14" x="1554.5" y="664.1787">16</text><text fill="#000000" font-family="sans-serif" font-size="13" lengthAdjust="spacing" textLength="99" x="1572.5" y="664.1787">ListAdminBoards</text><polygon fill="#181818" points="1209.5,696.7324,1199.5,700.7324,1209.5,704.7324,1205.5,700.7324" style="stroke:#181818;stroke-width:1.0;"/><line style="stroke:#181818;stroke-width:1.0;stroke-dasharray:2.0,2.0;" x1="1203.5" x2="1526.5" y1="700.7324" y2="700.7324"/><text fill="#000000" font-family="sans-serif" font-size="13" font-weight="bold" lengthAdjust="spacing" textLength="14" x="1215.5" y="695.4697">17</text><text fill="#000000" font-family="sans-serif" font-size="13" lengthAdjust="spacing" textLength="96" x="1233.5" y="695.4697">shared board list</text><polygon fill="#181818" points="704.5,728.0234,694.5,732.0234,704.5,736.0234,700.5,732.0234" style="stroke:#181818;stroke-width:1.0;"/><line style="stroke:#181818;stroke-width:1.0;stroke-dasharray:2.0,2.0;" x1="698.5" x2="1187.5" y1="732.0234" y2="732.0234"/><text fill="#000000" font-family="sans-serif" font-size="13" font-weight="bold" lengthAdjust="spacing" textLength="14" x="710.5" y="726.7607">18</text><text fill="#000000" font-family="sans-serif" font-size="13" lengthAdjust="spacing" textLength="89" x="728.5" y="726.7607">shared boar list</text><polygon fill="#181818" points="1029.5,759.3145,1039.5,763.3145,1029.5,767.3145,1033.5,763.3145" style="stroke:#181818;stroke-width:1.0;"/><line style="stroke:#181818;stroke-width:1.0;" x1="688.5" x2="1035.5" y1="763.3145" y2="763.3145"/><text fill="#000000" font-family="sans-serif" font-size="13" font-weight="bold" lengthAdjust="spacing" textLength="14" x="695.5" y="758.0518">19</text><text fill="#000000" font-family="sans-serif" font-size="13" lengthAdjust="spacing" textLength="311" x="713.5" y="758.0518">sendMessage(socket, formatMessage, outputStream)</text><polygon fill="#181818" points="587.5,790.6055,577.5,794.6055,587.5,798.6055,583.5,794.6055" style="stroke:#181818;stroke-width:1.0;"/><line style="stroke:#181818;stroke-width:1.0;stroke-dasharray:2.0,2.0;" x1="581.5" x2="1045.5" y1="794.6055" y2="794.6055"/><text fill="#000000" font-family="sans-serif" font-size="13" font-weight="bold" lengthAdjust="spacing" textLength="14" x="593.5" y="789.3428">20</text><text fill="#000000" font-family="sans-serif" font-size="13" lengthAdjust="spacing" textLength="202" x="611.5" y="789.3428">readData(socket, dataInputStream)</text><polygon fill="#181818" points="38.5,821.8965,28.5,825.8965,38.5,829.8965,34.5,825.8965" style="stroke:#181818;stroke-width:1.0;"/><line style="stroke:#181818;stroke-width:1.0;stroke-dasharray:2.0,2.0;" x1="32.5" x2="565.5" y1="825.8965" y2="825.8965"/><text fill="#000000" font-family="sans-serif" font-size="13" font-weight="bold" lengthAdjust="spacing" textLength="14" x="44.5" y="820.6338">21</text><text fill="#000000" font-family="sans-serif" font-size="13" lengthAdjust="spacing" textLength="233" x="62.5" y="820.6338">shows the list of shared boards available</text><polygon fill="#181818" points="554.5,853.1875,564.5,857.1875,554.5,861.1875,558.5,857.1875" style="stroke:#181818;stroke-width:1.0;"/><line style="stroke:#181818;stroke-width:1.0;stroke-dasharray:2.0,2.0;" x1="27.5" x2="560.5" y1="857.1875" y2="857.1875"/><text fill="#000000" font-family="sans-serif" font-size="13" font-weight="bold" lengthAdjust="spacing" textLength="14" x="34.5" y="851.9248">22</text><text fill="#000000" font-family="sans-serif" font-size="13" lengthAdjust="spacing" textLength="172" x="52.5" y="851.9248">inputs the shared board name</text><polygon fill="#181818" points="1029.5,884.4785,1039.5,888.4785,1029.5,892.4785,1033.5,888.4785" style="stroke:#181818;stroke-width:1.0;"/><line style="stroke:#181818;stroke-width:1.0;" x1="576.5" x2="1035.5" y1="888.4785" y2="888.4785"/><text fill="#000000" font-family="sans-serif" font-size="13" font-weight="bold" lengthAdjust="spacing" textLength="14" x="583.5" y="883.2158">23</text><text fill="#000000" font-family="sans-serif" font-size="13" lengthAdjust="spacing" textLength="311" x="601.5" y="883.2158">sendMessage(socket, formatMessage, outputStream)</text><polygon fill="#181818" points="704.5,915.7695,694.5,919.7695,704.5,923.7695,700.5,919.7695" style="stroke:#181818;stroke-width:1.0;"/><line style="stroke:#181818;stroke-width:1.0;stroke-dasharray:2.0,2.0;" x1="698.5" x2="1045.5" y1="919.7695" y2="919.7695"/><text fill="#000000" font-family="sans-serif" font-size="13" font-weight="bold" lengthAdjust="spacing" textLength="14" x="710.5" y="914.5068">24</text><text fill="#000000" font-family="sans-serif" font-size="13" lengthAdjust="spacing" textLength="202" x="728.5" y="914.5068">readData(socket, dataInputStream)</text><line style="stroke:#181818;stroke-width:1.0;" x1="693.5" x2="735.5" y1="951.0605" y2="951.0605"/><line style="stroke:#181818;stroke-width:1.0;" x1="735.5" x2="735.5" y1="951.0605" y2="964.0605"/><line style="stroke:#181818;stroke-width:1.0;" x1="694.5" x2="735.5" y1="964.0605" y2="964.0605"/><polygon fill="#181818" points="704.5,960.0605,694.5,964.0605,704.5,968.0605,700.5,964.0605" style="stroke:#181818;stroke-width:1.0;"/><text fill="#000000" font-family="sans-serif" font-size="13" font-weight="bold" lengthAdjust="spacing" textLength="14" x="700.5" y="945.7979">25</text><text fill="#000000" font-family="sans-serif" font-size="13" lengthAdjust="spacing" textLength="135" x="718.5" y="945.7979">archiveBoard(message)</text><polygon fill="#181818" points="1176.5,991.3516,1186.5,995.3516,1176.5,999.3516,1180.5,995.3516" style="stroke:#181818;stroke-width:1.0;"/><line style="stroke:#181818;stroke-width:1.0;" x1="693.5" x2="1182.5" y1="995.3516" y2="995.3516"/><text fill="#000000" font-family="sans-serif" font-size="13" font-weight="bold" lengthAdjust="spacing" textLength="14" x="700.5" y="990.0889">26</text><text fill="#000000" font-family="sans-serif" font-size="13" lengthAdjust="spacing" textLength="189" x="718.5" y="990.0889">archiveSharedBoard(boardName)</text><polygon fill="#181818" points="1515.5,1022.6426,1525.5,1026.6426,1515.5,1030.6426,1519.5,1026.6426" style="stroke:#181818;stroke-width:1.0;"/><line style="stroke:#181818;stroke-width:1.0;" x1="1198.5" x2="1521.5" y1="1026.6426" y2="1026.6426"/><text fill="#000000" font-family="sans-serif" font-size="13" font-weight="bold" lengthAdjust="spacing" textLength="14" x="1205.5" y="1021.3799">27</text><text fill="#000000" font-family="sans-serif" font-size="13" lengthAdjust="spacing" textLength="189" x="1223.5" y="1021.3799">archiveSharedBoard(boardName)</text><polygon fill="#181818" points="2926,1053.9336,2936,1057.9336,2926,1061.9336,2930,1057.9336" style="stroke:#181818;stroke-width:1.0;"/><line style="stroke:#181818;stroke-width:1.0;" x1="1537.5" x2="2932" y1="1057.9336" y2="1057.9336"/><text fill="#000000" font-family="sans-serif" font-size="13" font-weight="bold" lengthAdjust="spacing" textLength="14" x="1544.5" y="1052.6709">28</text><text fill="#000000" font-family="sans-serif" font-size="13" lengthAdjust="spacing" textLength="137" x="1562.5" y="1052.6709">SharedBoardRepository</text><polygon fill="#181818" points="1548.5,1085.2246,1538.5,1089.2246,1548.5,1093.2246,1544.5,1089.2246" style="stroke:#181818;stroke-width:1.0;"/><line style="stroke:#181818;stroke-width:1.0;" x1="1542.5" x2="2937" y1="1089.2246" y2="1089.2246"/><text fill="#000000" font-family="sans-serif" font-size="13" font-weight="bold" lengthAdjust="spacing" textLength="14" x="1554.5" y="1083.9619">29</text><text fill="#000000" font-family="sans-serif" font-size="13" lengthAdjust="spacing" textLength="62" x="1572.5" y="1083.9619">boardRepo</text><polygon fill="#181818" points="2921,1116.5156,2931,1120.5156,2921,1124.5156,2925,1120.5156" style="stroke:#181818;stroke-width:1.0;"/><line style="stroke:#181818;stroke-width:1.0;" x1="1537.5" x2="2927" y1="1120.5156" y2="1120.5156"/><text fill="#000000" font-family="sans-serif" font-size="13" font-weight="bold" lengthAdjust="spacing" textLength="14" x="1544.5" y="1115.2529">30</text><text fill="#000000" font-family="sans-serif" font-size="13" lengthAdjust="spacing" textLength="209" x="1562.5" y="1115.2529">findSharedBoardByTitle(boardName)</text><polygon fill="#181818" points="1548.5,1147.8066,1538.5,1151.8066,1548.5,1155.8066,1544.5,1151.8066" style="stroke:#181818;stroke-width:1.0;"/><line style="stroke:#181818;stroke-width:1.0;stroke-dasharray:2.0,2.0;" x1="1542.5" x2="2937" y1="1151.8066" y2="1151.8066"/><text fill="#000000" font-family="sans-serif" font-size="13" font-weight="bold" lengthAdjust="spacing" textLength="14" x="1554.5" y="1146.5439">31</text><text fill="#000000" font-family="sans-serif" font-size="13" lengthAdjust="spacing" textLength="75" x="1572.5" y="1146.5439">SharedBoard</text><polygon fill="#181818" points="3054.5,1179.0977,3064.5,1183.0977,3054.5,1187.0977,3058.5,1183.0977" style="stroke:#181818;stroke-width:1.0;"/><line style="stroke:#181818;stroke-width:1.0;" x1="1537.5" x2="3060.5" y1="1183.0977" y2="1183.0977"/><text fill="#000000" font-family="sans-serif" font-size="13" font-weight="bold" lengthAdjust="spacing" textLength="14" x="1544.5" y="1177.835">32</text><text fill="#000000" font-family="sans-serif" font-size="13" lengthAdjust="spacing" textLength="49" x="1562.5" y="1177.835">disable()</text><rect fill="#E2E2F0" height="32.6211" rx="2.5" ry="2.5" style="stroke:#181818;stroke-width:0.5;" width="98" x="3066.5" y="1159.8066"/><text fill="#000000" font-family="sans-serif" font-size="14" lengthAdjust="spacing" textLength="84" x="3073.5" y="1181.9141">SharedBoard</text><polygon fill="#181818" points="2926,1222.7188,2936,1226.7188,2926,1230.7188,2930,1226.7188" style="stroke:#181818;stroke-width:1.0;"/><line style="stroke:#181818;stroke-width:1.0;" x1="1537.5" x2="2932" y1="1226.7188" y2="1226.7188"/><text fill="#000000" font-family="sans-serif" font-size="13" font-weight="bold" lengthAdjust="spacing" textLength="14" x="1544.5" y="1221.4561">33</text><text fill="#000000" font-family="sans-serif" font-size="13" lengthAdjust="spacing" textLength="109" x="1562.5" y="1221.4561">save(SharedBoard)</text><polygon fill="#181818" points="1209.5,1254.0098,1199.5,1258.0098,1209.5,1262.0098,1205.5,1258.0098" style="stroke:#181818;stroke-width:1.0;"/><line style="stroke:#181818;stroke-width:1.0;stroke-dasharray:2.0,2.0;" x1="1203.5" x2="1531.5" y1="1258.0098" y2="1258.0098"/><text fill="#000000" font-family="sans-serif" font-size="13" font-weight="bold" lengthAdjust="spacing" textLength="14" x="1215.5" y="1252.7471">34</text><text fill="#000000" font-family="sans-serif" font-size="13" lengthAdjust="spacing" textLength="106" x="1233.5" y="1252.7471">operation success</text><polygon fill="#181818" points="704.5,1285.3008,694.5,1289.3008,704.5,1293.3008,700.5,1289.3008" style="stroke:#181818;stroke-width:1.0;"/><line style="stroke:#181818;stroke-width:1.0;stroke-dasharray:2.0,2.0;" x1="698.5" x2="1192.5" y1="1289.3008" y2="1289.3008"/><text fill="#000000" font-family="sans-serif" font-size="13" font-weight="bold" lengthAdjust="spacing" textLength="14" x="710.5" y="1284.0381">35</text><text fill="#000000" font-family="sans-serif" font-size="13" lengthAdjust="spacing" textLength="106" x="728.5" y="1284.0381">operation success</text><polygon fill="#181818" points="1029.5,1316.5918,1039.5,1320.5918,1029.5,1324.5918,1033.5,1320.5918" style="stroke:#181818;stroke-width:1.0;"/><line style="stroke:#181818;stroke-width:1.0;" x1="688.5" x2="1035.5" y1="1320.5918" y2="1320.5918"/><text fill="#000000" font-family="sans-serif" font-size="13" font-weight="bold" lengthAdjust="spacing" textLength="14" x="695.5" y="1315.3291">36</text><text fill="#000000" font-family="sans-serif" font-size="13" lengthAdjust="spacing" textLength="311" x="713.5" y="1315.3291">sendMessage(socket, formatMessage, outputStream)</text><polygon fill="#181818" points="587.5,1347.8828,577.5,1351.8828,587.5,1355.8828,583.5,1351.8828" style="stroke:#181818;stroke-width:1.0;"/><line style="stroke:#181818;stroke-width:1.0;stroke-dasharray:2.0,2.0;" x1="581.5" x2="1045.5" y1="1351.8828" y2="1351.8828"/><text fill="#000000" font-family="sans-serif" font-size="13" font-weight="bold" lengthAdjust="spacing" textLength="14" x="593.5" y="1346.6201">37</text><text fill="#000000" font-family="sans-serif" font-size="13" lengthAdjust="spacing" textLength="202" x="611.5" y="1346.6201">readData(socket, dataInputStream)</text><polygon fill="#181818" points="38.5,1379.1738,28.5,1383.1738,38.5,1387.1738,34.5,1383.1738" style="stroke:#181818;stroke-width:1.0;"/><line style="stroke:#181818;stroke-width:1.0;stroke-dasharray:2.0,2.0;" x1="32.5" x2="565.5" y1="1383.1738" y2="1383.1738"/><text fill="#000000" font-family="sans-serif" font-size="13" font-weight="bold" lengthAdjust="spacing" textLength="14" x="44.5" y="1377.9111">38</text><text fill="#000000" font-family="sans-serif" font-size="13" lengthAdjust="spacing" textLength="109" x="62.5" y="1377.9111">Operation success</text><!--MD5=[241aa0fb7e6dc9fc0d83648047320043]
@startuml

autonumber
actor "User" as user

participant "Client" as client
participant "ArchiveBoardUI" as ui
participant ":ClientHandler" as clientHandler
participant ":RcompService" as rcompService
participant ":ArchiveBoardController" as ctrl
participant ":PostItManagementService" as manageService
participant "systemUser: AuthorizationService" as auth
participant "sysuser :SystemUser" as sysuser
participant "formatMessage:FormateMessage" as msg
participant ":PersistenceContext" as pc <<persistence>>
participant ":RepositoryFactory " as repFac <<factory>>
database "permissionRepo: PermissionRepository" as permissionRepo <<repository>>
database "boardRepo: SharedBoardRepository" as boardRepo <<repository>>

activate user

user -> client : Requests to share a board owned by the user
client -> ui : archiveBoardUI(socket, inputStream,\n outputStream, bufferedReader)
deactivate client
activate ui

ui -> rcompService : sendMessage(socket, formatMessage, outputStream)
activate rcompService
rcompService - -> clientHandler: readData(socket, dataInputStream)
deactivate rcompService

activate clientHandler
clientHandler -> clientHandler : archiveSharedBoard(message)

clientHandler->ctrl: findAdminPermissionBoards()
activate ctrl
ctrl -> manageService: findAdminPermissionBoards(findAutenticatedUser())
activate manageService
manageService -> auth: findAutenticatedUser()
activate auth
ref over auth
Sequence Diagram - SD_Authentication
end
auth- -> manageService: email
deactivate auth
manageService->pc: factory = repositories()
activate pc
pc->repFac: create
pc->manageService: factory
deactivate pc
manageService -> permissionRepo: permissionRepo = PermissionRepository
permissionRepo -> manageService : permissionRepo
manageService -> permissionRepo: findWriteAdmin(email)
activate permissionRepo
permissionRepo - -> manageService: ListAdminBoards
deactivate permissionRepo

deactivate auth
manageService - -> ctrl: shared board list
ctrl - -> clientHandler: shared boar list

clientHandler -> rcompService : sendMessage(socket, formatMessage, outputStream)
deactivate clientHandler
activate rcompService
rcompService - -> ui: readData(socket, dataInputStream)
deactivate rcompService

ui- -> user: shows the list of shared boards available
user- ->ui: inputs the shared board name

ui -> rcompService : sendMessage(socket, formatMessage, outputStream)
activate rcompService
rcompService - -> clientHandler: readData(socket, dataInputStream)
deactivate rcompService
activate clientHandler
clientHandler -> clientHandler: archiveBoard(message)
clientHandler-> ctrl : archiveSharedBoard(boardName)
ctrl->manageService : archiveSharedBoard(boardName)

manageService -> boardRepo: SharedBoardRepository
boardRepo -> manageService : boardRepo
manageService -> boardRepo: findSharedBoardByTitle(boardName)
activate boardRepo
boardRepo - -> manageService: SharedBoard
deactivate boardRepo

manageService-> SharedBoard**: disable()

manageService-> boardRepo: save(SharedBoard)

manageService- ->ctrl: operation success
deactivate manageService
ctrl- ->clientHandler: operation success
deactivate ctrl

clientHandler -> rcompService : sendMessage(socket, formatMessage, outputStream)
deactivate clientHandler
activate rcompService
rcompService - -> ui: readData(socket, dataInputStream)
deactivate rcompService

ui- -> user: Operation success
@enduml

PlantUML version 1.2022.12(Sun Oct 23 19:12:26 WEST 2022)
(GPL source distribution)
Java Runtime: OpenJDK Runtime Environment
JVM: OpenJDK 64-Bit Server VM
Default Encoding: Cp1252
Language: pt
Country: PT
--></g></svg>