<?xml version="1.0" encoding="UTF-8" standalone="no"?><svg xmlns="http://www.w3.org/2000/svg" xmlns:xlink="http://www.w3.org/1999/xlink" contentStyleType="text/css" height="484.8px" preserveAspectRatio="none" style="width:849px;height:484px;background:#FFFFFF;" version="1.1" viewBox="0 0 849 484" width="849.6px" zoomAndPan="magnify"><defs/><g><!--MD5=[590bd9fd92c63f968d23f41cfec2f20e]
cluster <<Aggregate>> User--><g id="cluster_&lt;&lt;Aggregate&gt;&gt; User"><rect fill="#BBAABB" height="358.4" rx="2" ry="2" style="stroke:#181818;stroke-width:0.8000000000000002;" width="227.2" x="5.6" y="5.6"/><text fill="#000000" font-family="sans-serif" font-size="11.2" font-weight="bold" lengthAdjust="spacing" textLength="113.6" x="62.4" y="19.2859">&lt;&lt;Aggregate&gt;&gt; User</text></g><!--MD5=[2c5ea5a4d8bb391c5b910b70eecbbbbd]
cluster <<Aggregate>> Shared Board--><g id="cluster_&lt;&lt;Aggregate&gt;&gt; Shared Board"><rect fill="#FFFFCC" height="360.8" rx="2" ry="2" style="stroke:#181818;stroke-width:0.8000000000000002;" width="411.2" x="433.6" y="5.6"/><text fill="#000000" font-family="sans-serif" font-size="11.2" font-weight="bold" lengthAdjust="spacing" textLength="164" x="557.2" y="19.2859">&lt;&lt;Aggregate&gt;&gt; Shared Board</text></g><!--MD5=[514c2e21d7ee9c3140e1794303914189]
cluster <<Aggregate>> Permission--><g id="cluster_&lt;&lt;Aggregate&gt;&gt; Permission"><rect fill="#ADFF2F" height="211.2" rx="2" ry="2" style="stroke:#181818;stroke-width:0.8000000000000002;" width="162.4" x="252" y="268.8"/><text fill="#000000" font-family="sans-serif" font-size="11.2" font-weight="bold" lengthAdjust="spacing" textLength="149.6" x="258.4" y="282.4859">&lt;&lt;Aggregate&gt;&gt; Permission</text></g><!--MD5=[3fd616f346a44cd59a91eb10b19e157c]
class User--><g id="elem_User"><rect codeLine="5" fill="#F1F1F1" height="74.0031" id="User" rx="2" ry="2" style="stroke:#181818;stroke-width:0.4000000000000001;" width="69.6" x="150" y="142.4"/><ellipse cx="162" cy="173.0016" fill="#ADD1B2" rx="8.8" ry="8.8" style="stroke:#181818;stroke-width:0.8000000000000002;"/><path d="M161.0875,173.6391 L161.0875,175.6391 L164.55,175.6391 L164.55,174.9016 Q164.55,174.4141 164.7375,174.2016 Q164.9375,173.9891 165.2375,173.9891 Q165.5375,173.9891 165.725,174.2016 Q165.9125,174.4141 165.9125,174.9016 L165.9125,177.0016 L159.5125,177.0016 Q159.0125,177.0016 158.8,176.8141 Q158.6,176.6266 158.6,176.3141 Q158.6,176.0141 158.8125,175.8266 Q159.025,175.6391 159.5125,175.6391 L159.725,175.6391 L159.725,170.3141 L159.5125,170.3141 Q159.0125,170.3141 158.8,170.1266 Q158.6,169.9391 158.6,169.6266 Q158.6,169.3266 158.8,169.1391 Q159.0125,168.9516 159.5125,168.9516 L165.6125,168.9516 L165.6125,171.0266 Q165.6125,171.5141 165.425,171.7266 Q165.25,171.9266 164.9375,171.9266 Q164.6375,171.9266 164.45,171.7266 Q164.2625,171.5141 164.2625,171.0266 L164.2625,170.3141 L161.0875,170.3141 L161.0875,172.2766 L162.275,172.2766 Q162.275,171.7516 162.375,171.6016 Q162.5875,171.2766 162.9625,171.2766 Q163.2625,171.2766 163.45,171.4891 Q163.6375,171.6891 163.6375,172.1766 L163.6375,173.7516 Q163.6375,174.1891 163.5375,174.3391 Q163.325,174.6516 162.9625,174.6516 Q162.5875,174.6516 162.375,174.3266 Q162.275,174.1766 162.275,173.6391 L161.0875,173.6391 Z " fill="#000000"/><text fill="#000000" font-family="sans-serif" font-size="9.6" font-style="italic" lengthAdjust="spacing" textLength="32" x="179.2" y="156.7594">«Root»</text><text fill="#000000" font-family="sans-serif" font-size="9.6" font-style="italic" lengthAdjust="spacing" textLength="35.2" x="177.6" y="169.5281">«Entity»</text><text fill="#000000" font-family="sans-serif" font-size="9.6" font-style="italic" lengthAdjust="spacing" textLength="47.2" x="171.6" y="182.2969">«Strategy»</text><text fill="#000000" font-family="sans-serif" font-size="11.2" lengthAdjust="spacing" textLength="23.2" x="183.6" y="196.7922">User</text><line style="stroke:#181818;stroke-width:0.4000000000000001;" x1="150.8" x2="218.8" y1="203.6031" y2="203.6031"/><line style="stroke:#181818;stroke-width:0.4000000000000001;" x1="150.8" x2="218.8" y1="210.0031" y2="210.0031"/></g><g id="elem_BirthDate"><rect fill="#F1F1F1" height="43.6656" style="stroke:#181818;stroke-width:0.4000000000000001;" width="76" x="39.6" y="35.2"/><text fill="#000000" font-family="sans-serif" font-size="9.6" font-style="italic" lengthAdjust="spacing" textLength="68" x="43.6" y="45.5594">«Value Object»</text><text fill="#000000" font-family="sans-serif" font-size="11.2" lengthAdjust="spacing" textLength="47.2" x="54" y="61.6547">BirthDate</text><line style="stroke:#181818;stroke-width:0.4000000000000001;" x1="40.4" x2="114.8" y1="66.0656" y2="66.0656"/></g><g id="elem_TaxNumber"><rect fill="#F1F1F1" height="56.4344" style="stroke:#181818;stroke-width:0.4000000000000001;" width="76" x="18.8" y="151.2"/><text fill="#000000" font-family="sans-serif" font-size="9.6" font-style="italic" lengthAdjust="spacing" textLength="68" x="22.8" y="161.5594">«Value Object»</text><text fill="#000000" font-family="sans-serif" font-size="9.6" font-style="italic" lengthAdjust="spacing" textLength="20" x="46.8" y="174.3281">«Id»</text><text fill="#000000" font-family="sans-serif" font-size="11.2" lengthAdjust="spacing" textLength="57.6" x="28" y="190.4234">TaxNumber</text><line style="stroke:#181818;stroke-width:0.4000000000000001;" x1="19.6" x2="94" y1="194.8344" y2="194.8344"/></g><g id="elem_FullName"><rect fill="#F1F1F1" height="43.6656" style="stroke:#181818;stroke-width:0.4000000000000001;" width="76" x="143.6" y="307.2"/><text fill="#000000" font-family="sans-serif" font-size="9.6" font-style="italic" lengthAdjust="spacing" textLength="68" x="147.6" y="317.5594">«Value Object»</text><text fill="#000000" font-family="sans-serif" font-size="11.2" lengthAdjust="spacing" textLength="47.2" x="158" y="333.6547">FullName</text><line style="stroke:#181818;stroke-width:0.4000000000000001;" x1="144.4" x2="218.8" y1="338.0656" y2="338.0656"/></g><g id="elem_ShortName"><rect fill="#F1F1F1" height="43.6656" style="stroke:#181818;stroke-width:0.4000000000000001;" width="76" x="143.6" y="35.2"/><text fill="#000000" font-family="sans-serif" font-size="9.6" font-style="italic" lengthAdjust="spacing" textLength="68" x="147.6" y="45.5594">«Value Object»</text><text fill="#000000" font-family="sans-serif" font-size="11.2" lengthAdjust="spacing" textLength="56" x="153.6" y="61.6547">ShortName</text><line style="stroke:#181818;stroke-width:0.4000000000000001;" x1="144.4" x2="218.8" y1="66.0656" y2="66.0656"/></g><!--MD5=[3762909e135fb728396985e200594027]
class SharedBoard--><g id="elem_SharedBoard"><rect codeLine="22" fill="#F1F1F1" height="61.2344" id="SharedBoard" rx="2" ry="2" style="stroke:#181818;stroke-width:0.4000000000000001;" width="92.8" x="505.6" y="148.8"/><ellipse cx="517.6" cy="173.0172" fill="#ADD1B2" rx="8.8" ry="8.8" style="stroke:#181818;stroke-width:0.8000000000000002;"/><path d="M516.6875,173.6547 L516.6875,175.6547 L520.15,175.6547 L520.15,174.9172 Q520.15,174.4297 520.3375,174.2172 Q520.5375,174.0047 520.8375,174.0047 Q521.1375,174.0047 521.325,174.2172 Q521.5125,174.4297 521.5125,174.9172 L521.5125,177.0172 L515.1125,177.0172 Q514.6125,177.0172 514.4,176.8297 Q514.2,176.6422 514.2,176.3297 Q514.2,176.0297 514.4125,175.8422 Q514.625,175.6547 515.1125,175.6547 L515.325,175.6547 L515.325,170.3297 L515.1125,170.3297 Q514.6125,170.3297 514.4,170.1422 Q514.2,169.9547 514.2,169.6422 Q514.2,169.3422 514.4,169.1547 Q514.6125,168.9672 515.1125,168.9672 L521.2125,168.9672 L521.2125,171.0422 Q521.2125,171.5297 521.025,171.7422 Q520.85,171.9422 520.5375,171.9422 Q520.2375,171.9422 520.05,171.7422 Q519.8625,171.5297 519.8625,171.0422 L519.8625,170.3297 L516.6875,170.3297 L516.6875,172.2922 L517.875,172.2922 Q517.875,171.7672 517.975,171.6172 Q518.1875,171.2922 518.5625,171.2922 Q518.8625,171.2922 519.05,171.5047 Q519.2375,171.7047 519.2375,172.1922 L519.2375,173.7672 Q519.2375,174.2047 519.1375,174.3547 Q518.925,174.6672 518.5625,174.6672 Q518.1875,174.6672 517.975,174.3422 Q517.875,174.1922 517.875,173.6547 L516.6875,173.6547 Z " fill="#000000"/><text fill="#000000" font-family="sans-serif" font-size="9.6" font-style="italic" lengthAdjust="spacing" textLength="32" x="546.4" y="163.1594">«Root»</text><text fill="#000000" font-family="sans-serif" font-size="9.6" font-style="italic" lengthAdjust="spacing" textLength="35.2" x="544.8" y="175.9281">«Entity»</text><text fill="#000000" font-family="sans-serif" font-size="11.2" lengthAdjust="spacing" textLength="67.2" x="528.8" y="190.4234">SharedBoard</text><line style="stroke:#181818;stroke-width:0.4000000000000001;" x1="506.4" x2="597.6" y1="197.2344" y2="197.2344"/><line style="stroke:#181818;stroke-width:0.4000000000000001;" x1="506.4" x2="597.6" y1="203.6344" y2="203.6344"/></g><!--MD5=[960723c1bf8f97a08b0f7c02db1c0cc7]
class SharedBoardLog--><g id="elem_SharedBoardLog"><rect codeLine="23" fill="#F1F1F1" height="48.4656" id="SharedBoardLog" rx="2" ry="2" style="stroke:#181818;stroke-width:0.4000000000000001;" width="112" x="586.4" y="304.8"/><ellipse cx="598.4" cy="322.6328" fill="#ADD1B2" rx="8.8" ry="8.8" style="stroke:#181818;stroke-width:0.8000000000000002;"/><path d="M597.4875,323.2703 L597.4875,325.2703 L600.95,325.2703 L600.95,324.5328 Q600.95,324.0453 601.1375,323.8328 Q601.3375,323.6203 601.6375,323.6203 Q601.9375,323.6203 602.125,323.8328 Q602.3125,324.0453 602.3125,324.5328 L602.3125,326.6328 L595.9125,326.6328 Q595.4125,326.6328 595.2,326.4453 Q595,326.2578 595,325.9453 Q595,325.6453 595.2125,325.4578 Q595.425,325.2703 595.9125,325.2703 L596.125,325.2703 L596.125,319.9453 L595.9125,319.9453 Q595.4125,319.9453 595.2,319.7578 Q595,319.5703 595,319.2578 Q595,318.9578 595.2,318.7703 Q595.4125,318.5828 595.9125,318.5828 L602.0125,318.5828 L602.0125,320.6578 Q602.0125,321.1453 601.825,321.3578 Q601.65,321.5578 601.3375,321.5578 Q601.0375,321.5578 600.85,321.3578 Q600.6625,321.1453 600.6625,320.6578 L600.6625,319.9453 L597.4875,319.9453 L597.4875,321.9078 L598.675,321.9078 Q598.675,321.3828 598.775,321.2328 Q598.9875,320.9078 599.3625,320.9078 Q599.6625,320.9078 599.85,321.1203 Q600.0375,321.3203 600.0375,321.8078 L600.0375,323.3828 Q600.0375,323.8203 599.9375,323.9703 Q599.725,324.2828 599.3625,324.2828 Q598.9875,324.2828 598.775,323.9578 Q598.675,323.8078 598.675,323.2703 L597.4875,323.2703 Z " fill="#000000"/><text fill="#000000" font-family="sans-serif" font-size="9.6" font-style="italic" lengthAdjust="spacing" textLength="35.2" x="635.2" y="319.1594">«Entity»</text><text fill="#000000" font-family="sans-serif" font-size="11.2" lengthAdjust="spacing" textLength="86.4" x="609.6" y="333.6547">SharedBoardLog</text><line style="stroke:#181818;stroke-width:0.4000000000000001;" x1="587.2" x2="697.6" y1="340.4656" y2="340.4656"/><line style="stroke:#181818;stroke-width:0.4000000000000001;" x1="587.2" x2="697.6" y1="346.8656" y2="346.8656"/></g><g id="elem_OwnerSharedBoard"><rect fill="#F1F1F1" height="43.6656" style="stroke:#181818;stroke-width:0.4000000000000001;" width="111.2" x="446.8" y="307.2"/><text fill="#000000" font-family="sans-serif" font-size="9.6" font-style="italic" lengthAdjust="spacing" textLength="68" x="468.4" y="317.5594">«Value Object»</text><text fill="#000000" font-family="sans-serif" font-size="11.2" lengthAdjust="spacing" textLength="100" x="452.4" y="333.6547">OwnerSharedBoard</text><line style="stroke:#181818;stroke-width:0.4000000000000001;" x1="447.6" x2="557.2" y1="338.0656" y2="338.0656"/></g><g id="elem_SharedBoardTitle"><rect fill="#F1F1F1" height="43.6656" style="stroke:#181818;stroke-width:0.4000000000000001;" width="100" x="502" y="35.2"/><text fill="#000000" font-family="sans-serif" font-size="9.6" font-style="italic" lengthAdjust="spacing" textLength="68" x="518" y="45.5594">«Value Object»</text><text fill="#000000" font-family="sans-serif" font-size="11.2" lengthAdjust="spacing" textLength="88.8" x="507.6" y="61.6547">SharedBoardTitle</text><line style="stroke:#181818;stroke-width:0.4000000000000001;" x1="502.8" x2="601.2" y1="66.0656" y2="66.0656"/></g><g id="elem_SharedBoardState"><rect fill="#F1F1F1" height="43.6656" style="stroke:#181818;stroke-width:0.4000000000000001;" width="104.8" x="726.8" y="307.2"/><text fill="#000000" font-family="sans-serif" font-size="9.6" font-style="italic" lengthAdjust="spacing" textLength="68" x="745.2" y="317.5594">«Value Object»</text><text fill="#000000" font-family="sans-serif" font-size="11.2" lengthAdjust="spacing" textLength="93.6" x="732.4" y="333.6547">SharedBoardState</text><line style="stroke:#181818;stroke-width:0.4000000000000001;" x1="727.6" x2="830.8" y1="338.0656" y2="338.0656"/></g><!--MD5=[03da7ad6344b0b2c818a169ad3cc63fd]
class Permission--><g id="elem_Permission"><rect codeLine="43" fill="#F1F1F1" height="61.2344" id="Permission" rx="2" ry="2" style="stroke:#181818;stroke-width:0.4000000000000001;" width="80.8" x="293.2" y="298.4"/><ellipse cx="305.2" cy="322.6172" fill="#ADD1B2" rx="8.8" ry="8.8" style="stroke:#181818;stroke-width:0.8000000000000002;"/><path d="M304.2875,323.2547 L304.2875,325.2547 L307.75,325.2547 L307.75,324.5172 Q307.75,324.0297 307.9375,323.8172 Q308.1375,323.6047 308.4375,323.6047 Q308.7375,323.6047 308.925,323.8172 Q309.1125,324.0297 309.1125,324.5172 L309.1125,326.6172 L302.7125,326.6172 Q302.2125,326.6172 302,326.4297 Q301.8,326.2422 301.8,325.9297 Q301.8,325.6297 302.0125,325.4422 Q302.225,325.2547 302.7125,325.2547 L302.925,325.2547 L302.925,319.9297 L302.7125,319.9297 Q302.2125,319.9297 302,319.7422 Q301.8,319.5547 301.8,319.2422 Q301.8,318.9422 302,318.7547 Q302.2125,318.5672 302.7125,318.5672 L308.8125,318.5672 L308.8125,320.6422 Q308.8125,321.1297 308.625,321.3422 Q308.45,321.5422 308.1375,321.5422 Q307.8375,321.5422 307.65,321.3422 Q307.4625,321.1297 307.4625,320.6422 L307.4625,319.9297 L304.2875,319.9297 L304.2875,321.8922 L305.475,321.8922 Q305.475,321.3672 305.575,321.2172 Q305.7875,320.8922 306.1625,320.8922 Q306.4625,320.8922 306.65,321.1047 Q306.8375,321.3047 306.8375,321.7922 L306.8375,323.3672 Q306.8375,323.8047 306.7375,323.9547 Q306.525,324.2672 306.1625,324.2672 Q305.7875,324.2672 305.575,323.9422 Q305.475,323.7922 305.475,323.2547 L304.2875,323.2547 Z " fill="#000000"/><text fill="#000000" font-family="sans-serif" font-size="9.6" font-style="italic" lengthAdjust="spacing" textLength="32" x="328" y="312.7594">«Root»</text><text fill="#000000" font-family="sans-serif" font-size="9.6" font-style="italic" lengthAdjust="spacing" textLength="35.2" x="326.4" y="325.5281">«Entity»</text><text fill="#000000" font-family="sans-serif" font-size="11.2" lengthAdjust="spacing" textLength="55.2" x="316.4" y="340.0234">Permission</text><line style="stroke:#181818;stroke-width:0.4000000000000001;" x1="294" x2="373.2" y1="346.8344" y2="346.8344"/><line style="stroke:#181818;stroke-width:0.4000000000000001;" x1="294" x2="373.2" y1="353.2344" y2="353.2344"/></g><g id="elem_AccessLevel"><rect fill="#F1F1F1" height="43.6656" style="stroke:#181818;stroke-width:0.4000000000000001;" width="76" x="295.6" y="423.2"/><text fill="#000000" font-family="sans-serif" font-size="9.6" font-style="italic" lengthAdjust="spacing" textLength="68" x="299.6" y="433.5594">«Value Object»</text><text fill="#000000" font-family="sans-serif" font-size="11.2" lengthAdjust="spacing" textLength="63.2" x="302" y="449.6547">AccessLevel</text><line style="stroke:#181818;stroke-width:0.4000000000000001;" x1="296.4" x2="370.8" y1="454.0656" y2="454.0656"/></g><!--MD5=[5be8aaedb820ee9cf3ce759b5401d401]
reverse link BirthDate to User--><g id="link_BirthDate_User"><path codeLine="11" d="M99.304,82.456 C114.552,99.64 135.216,122.928 152.416,142.304 " fill="none" id="BirthDate-backto-User" style="stroke:#181818;stroke-width:0.8000000000000002;"/><polygon fill="#181818" points="96.52,79.32,98.8975,86.8318,99.1718,82.3147,103.6889,82.589,96.52,79.32" style="stroke:#181818;stroke-width:0.8000000000000002;"/><text fill="#000000" font-family="sans-serif" font-size="10.4" lengthAdjust="spacing" textLength="25.6" x="132" y="115.2227">has a</text><text fill="#000000" font-family="sans-serif" font-size="10.4" lengthAdjust="spacing" textLength="5.6" x="94.2448" y="96.5659">1</text><text fill="#000000" font-family="sans-serif" font-size="10.4" lengthAdjust="spacing" textLength="5.6" x="141.6484" y="133.4963">1</text></g><!--MD5=[1dba526f95bd730ec4c849a0bc17cef7]
reverse link TaxNumber to User--><g id="link_TaxNumber_User"><path codeLine="12" d="M99.008,179.6 C115.512,179.6 134.224,179.6 149.944,179.6 " fill="none" id="TaxNumber-backto-User" style="stroke:#181818;stroke-width:0.8000000000000002;"/><polygon fill="#181818" points="94.856,179.6,102.056,182.8,98.856,179.6,102.056,176.4,94.856,179.6" style="stroke:#181818;stroke-width:0.8000000000000002;"/><text fill="#000000" font-family="sans-serif" font-size="10.4" lengthAdjust="spacing" textLength="25.6" x="109.6" y="174.0227">has a</text><text fill="#000000" font-family="sans-serif" font-size="10.4" lengthAdjust="spacing" textLength="5.6" x="101.1121" y="176.2272">1</text><text fill="#000000" font-family="sans-serif" font-size="10.4" lengthAdjust="spacing" textLength="5.6" x="138.1072" y="176.1486">1</text></g><!--MD5=[176e07b16b38b5978b9bc82adf5db4ba]
link User to FullName--><g id="link_User_FullName"><path codeLine="13" d="M184.008,216.984 C183.432,243.656 182.664,279.136 182.152,302.816 " fill="none" id="User-to-FullName" style="stroke:#181818;stroke-width:0.8000000000000002;"/><polygon fill="#181818" points="182.064,307.096,185.4277,299.971,182.1554,303.097,179.0294,299.8248,182.064,307.096" style="stroke:#181818;stroke-width:0.8000000000000002;"/><text fill="#000000" font-family="sans-serif" font-size="10.4" lengthAdjust="spacing" textLength="25.6" x="184" y="252.8227">has a</text><text fill="#000000" font-family="sans-serif" font-size="10.4" lengthAdjust="spacing" textLength="5.6" x="177.9478" y="233.9081">1</text><text fill="#000000" font-family="sans-serif" font-size="10.4" lengthAdjust="spacing" textLength="5.6" x="175.9238" y="298.1002">1</text></g><!--MD5=[090fafa15af9dc716b5d092066e89d17]
reverse link ShortName to User--><g id="link_ShortName_User"><path codeLine="14" d="M182.28,83.528 C182.728,100.608 183.328,123.328 183.832,142.304 " fill="none" id="ShortName-backto-User" style="stroke:#181818;stroke-width:0.8000000000000002;"/><polygon fill="#181818" points="182.168,79.32,179.1541,86.5999,182.2708,83.3187,185.552,86.4354,182.168,79.32" style="stroke:#181818;stroke-width:0.8000000000000002;"/><text fill="#000000" font-family="sans-serif" font-size="10.4" lengthAdjust="spacing" textLength="25.6" x="184" y="115.2227">has a</text><text fill="#000000" font-family="sans-serif" font-size="10.4" lengthAdjust="spacing" textLength="5.6" x="176.1077" y="96.5659">1</text><text fill="#000000" font-family="sans-serif" font-size="10.4" lengthAdjust="spacing" textLength="5.6" x="177.6786" y="133.4963">1</text></g><!--MD5=[fd9d09de42943e968c8caff5bcc36d98]
link SharedBoard to OwnerSharedBoard--><g id="link_SharedBoard_OwnerSharedBoard"><path codeLine="30" d="M541.84,210.704 C532.72,237.92 519.488,277.416 510.912,303.008 " fill="none" id="SharedBoard-to-OwnerSharedBoard" style="stroke:#181818;stroke-width:0.8000000000000002;"/><polygon fill="#181818" points="509.576,306.992,514.8939,301.1782,510.8443,303.1984,508.8241,299.1489,509.576,306.992" style="stroke:#181818;stroke-width:0.8000000000000002;"/><text fill="#000000" font-family="sans-serif" font-size="10.4" lengthAdjust="spacing" textLength="25.6" x="532" y="252.8227">has a</text><text fill="#000000" font-family="sans-serif" font-size="10.4" lengthAdjust="spacing" textLength="5.6" x="534.3365" y="227.5378">1</text><text fill="#000000" font-family="sans-serif" font-size="10.4" lengthAdjust="spacing" textLength="5.6" x="504.9333" y="298.3312">1</text></g><!--MD5=[0c7034135bf30aac0fd35c2caf318c5e]
reverse link SharedBoardTitle to SharedBoard--><g id="link_SharedBoardTitle_SharedBoard"><path codeLine="31" d="M552,83.512 C552,102.528 552,128.576 552,148.632 " fill="none" id="SharedBoardTitle-backto-SharedBoard" style="stroke:#181818;stroke-width:0.8000000000000002;"/><polygon fill="#181818" points="552,79.32,548.8,86.52,552,83.32,555.2,86.52,552,79.32" style="stroke:#181818;stroke-width:0.8000000000000002;"/><text fill="#000000" font-family="sans-serif" font-size="10.4" lengthAdjust="spacing" textLength="25.6" x="552.8" y="115.2227">has a</text><text fill="#000000" font-family="sans-serif" font-size="10.4" lengthAdjust="spacing" textLength="5.6" x="545.8225" y="96.5659">1</text><text fill="#000000" font-family="sans-serif" font-size="10.4" lengthAdjust="spacing" textLength="5.6" x="545.9188" y="139.8147">1</text></g><!--MD5=[ff44edfb46421ddac99a9915c24bec82]
link SharedBoard to SharedBoardLog--><g id="link_SharedBoard_SharedBoardLog"><path codeLine="32" d="M570.512,210.704 C586.712,237.224 610.032,275.408 625.68,301.024 " fill="none" id="SharedBoard-to-SharedBoardLog" style="stroke:#181818;stroke-width:0.8000000000000002;"/><polygon fill="#181818" points="627.928,304.704,626.8988,296.8924,625.8399,301.2923,621.44,300.2334,627.928,304.704" style="stroke:#181818;stroke-width:0.8000000000000002;"/><text fill="#000000" font-family="sans-serif" font-size="10.4" lengthAdjust="spacing" textLength="25.6" x="597.6" y="252.8227">has a</text><text fill="#000000" font-family="sans-serif" font-size="10.4" lengthAdjust="spacing" textLength="5.6" x="567.2197" y="227.5378">1</text><text fill="#000000" font-family="sans-serif" font-size="10.4" lengthAdjust="spacing" textLength="5.6" x="618.7657" y="295.9303">1</text></g><!--MD5=[78b8b575354b14f7330c44f851538776]
link SharedBoard to SharedBoardState--><g id="link_SharedBoard_SharedBoardState"><path codeLine="33" d="M598.528,199.48 C631.872,214.232 677.016,236.48 712.8,262.4 C729.44,274.456 745.84,290.704 758.184,304.064 " fill="none" id="SharedBoard-to-SharedBoardState" style="stroke:#181818;stroke-width:0.8000000000000002;"/><polygon fill="#181818" points="760.912,307.04,758.4136,299.5675,758.2122,304.0885,753.6912,303.8872,760.912,307.04" style="stroke:#181818;stroke-width:0.8000000000000002;"/><text fill="#000000" font-family="sans-serif" font-size="10.4" lengthAdjust="spacing" textLength="25.6" x="701.6" y="252.8227">has a</text><text fill="#000000" font-family="sans-serif" font-size="10.4" lengthAdjust="spacing" textLength="5.6" x="604.8482" y="198.8169">1</text><text fill="#000000" font-family="sans-serif" font-size="10.4" lengthAdjust="spacing" textLength="5.6" x="750.4354" y="298.0312">1</text></g><!--MD5=[19fde73eac7f6e4484fe720d0d85387f]
link User to OwnerSharedBoard--><g id="link_User_OwnerSharedBoard"><path codeLine="35" d="M219.872,192.792 C260.792,207.656 330.12,234.136 387.2,262.4 C413.472,275.408 442.08,291.784 464.208,304.968 " fill="none" id="User-to-OwnerSharedBoard" style="stroke:#181818;stroke-width:0.8000000000000002;"/><polygon fill="#181818" points="467.704,307.056,463.167,300.6143,464.271,305.0031,459.8823,306.1071,467.704,307.056" style="stroke:#181818;stroke-width:0.8000000000000002;"/><text fill="#000000" font-family="sans-serif" font-size="10.4" lengthAdjust="spacing" textLength="16.8" x="372" y="252.8227">is a</text><text fill="#000000" font-family="sans-serif" font-size="10.4" lengthAdjust="spacing" textLength="5.6" x="225.9079" y="191.4836">1</text><text fill="#000000" font-family="sans-serif" font-size="10.4" lengthAdjust="spacing" textLength="5.6" x="453.4331" y="298.0509">1</text></g><!--MD5=[3b16accea20cf6ab242e834435d47b10]
link Permission to AccessLevel--><g id="link_Permission_AccessLevel"><path codeLine="45" d="M333.6,360.056 C333.6,378.32 333.6,401.392 333.6,418.784 " fill="none" id="Permission-to-AccessLevel" style="stroke:#181818;stroke-width:0.8000000000000002;"/><polygon fill="#181818" points="333.6,422.856,336.8,415.656,333.6,418.856,330.4,415.656,333.6,422.856" style="stroke:#181818;stroke-width:0.8000000000000002;"/><text fill="#000000" font-family="sans-serif" font-size="10.4" lengthAdjust="spacing" textLength="28.8" x="334.4" y="396.0227">has  a</text><text fill="#000000" font-family="sans-serif" font-size="10.4" lengthAdjust="spacing" textLength="5.6" x="327.5538" y="377.3278">1</text><text fill="#000000" font-family="sans-serif" font-size="10.4" lengthAdjust="spacing" textLength="5.6" x="327.3875" y="414.1654">1</text></g><!--MD5=[6e1de6b77afeef35224a18b2663f142c]
link SharedBoard to Permission--><g id="link_SharedBoard_Permission"><path codeLine="48" d="M507.544,210.528 C469.648,236.208 415.472,272.92 377.688,298.52 " fill="none" id="SharedBoard-to-Permission" style="stroke:#181818;stroke-width:0.8000000000000002;"/><polygon fill="#181818" points="374.312,300.808,382.0692,299.4275,377.6261,298.5681,378.4854,294.125,374.312,300.808" style="stroke:#181818;stroke-width:0.8000000000000002;"/><text fill="#000000" font-family="sans-serif" font-size="10.4" lengthAdjust="spacing" textLength="23.2" x="462.4" y="252.8227">gives</text><text fill="#000000" font-family="sans-serif" font-size="10.4" lengthAdjust="spacing" textLength="5.6" x="494.7079" y="227.5736">1</text><text fill="#000000" font-family="sans-serif" font-size="10.4" lengthAdjust="spacing" textLength="5.6" x="380.4309" y="293.5239">1</text></g><!--MD5=[30c50e7fb5211c4573ede036583df2ee]
reverse link User to Permission--><g id="link_User_Permission"><path codeLine="49" d="M222.136,219.816 C233.432,231.56 245.928,244.392 257.6,256 C271.68,270.008 287.552,285.216 301.136,298.056 " fill="none" id="User-backto-Permission" style="stroke:#181818;stroke-width:0.8000000000000002;"/><polygon fill="#181818" points="219.296,216.856,221.9903,224.2601,222.0725,219.7354,226.5973,219.8176,219.296,216.856" style="stroke:#181818;stroke-width:0.8000000000000002;"/><text fill="#000000" font-family="sans-serif" font-size="10.4" lengthAdjust="spacing" textLength="73.6" x="258.4" y="252.8227">is associated to</text><text fill="#000000" font-family="sans-serif" font-size="10.4" lengthAdjust="spacing" textLength="19.2" x="203.4414" y="234.041">1...*</text><text fill="#000000" font-family="sans-serif" font-size="10.4" lengthAdjust="spacing" textLength="5.6" x="289.6954" y="289.4437">1</text></g><!--MD5=[bf1a8b715db21837c1bbe2e516657b6c]
@startuml
'https://plantuml.com/class-diagram

rectangle "<<Aggregate>> User" #bbaabb{

    entity User<<Root>><<Entity>><<Strategy>>
    object BirthDate<<Value Object>>
    object TaxNumber<<Value Object>><<Id>>
    object FullName<<Value Object>>
    object ShortName<<Value Object>>

    User"1" -up-> "1"BirthDate : has a
    User"1" -left-> "1"TaxNumber : has a
    User"1" - -> "1" FullName : has a
    User "1" -up->"1"ShortName : has a
}




rectangle "<<Aggregate>> Shared Board" #business{

    entity SharedBoard<<Root>><<Entity>>
    entity SharedBoardLog<<Entity>>
    object OwnerSharedBoard <<Value Object>>
    object SharedBoardTitle <<Value Object>>

    object SharedBoardState <<Value Object>>


    SharedBoard"1"- ->"1"OwnerSharedBoard: has a
    SharedBoard"1"-up->"1"SharedBoardTitle : has a
    SharedBoard"1"- ->"1" SharedBoardLog : has a
    SharedBoard"1"- ->"1" SharedBoardState : has a

    User"1"->"1"OwnerSharedBoard: is a


}


rectangle "<<Aggregate>> Permission" #greenyellow{

    entity Permission<<Root>><<Entity>>
    object AccessLevel<<Value Object>>
    Permission"1"- ->"1"AccessLevel :  has  a
}

    SharedBoard"1"- ->"1"Permission : gives
    Permission "1"-up->"1...*" User : is associated to


@enduml

@startuml

rectangle "<<Aggregate>> User" #bbaabb{

    entity User<<Root>><<Entity>><<Strategy>>
    object BirthDate<<Value Object>>
    object TaxNumber<<Value Object>><<Id>>
    object FullName<<Value Object>>
    object ShortName<<Value Object>>

    User"1" -up-> "1"BirthDate : has a
    User"1" -left-> "1"TaxNumber : has a
    User"1" - -> "1" FullName : has a
    User "1" -up->"1"ShortName : has a
}




rectangle "<<Aggregate>> Shared Board" #business{

    entity SharedBoard<<Root>><<Entity>>
    entity SharedBoardLog<<Entity>>
    object OwnerSharedBoard <<Value Object>>
    object SharedBoardTitle <<Value Object>>

    object SharedBoardState <<Value Object>>


    SharedBoard"1"- ->"1"OwnerSharedBoard: has a
    SharedBoard"1"-up->"1"SharedBoardTitle : has a
    SharedBoard"1"- ->"1" SharedBoardLog : has a
    SharedBoard"1"- ->"1" SharedBoardState : has a

    User"1"->"1"OwnerSharedBoard: is a


}


rectangle "<<Aggregate>> Permission" #greenyellow{

    entity Permission<<Root>><<Entity>>
    object AccessLevel<<Value Object>>
    Permission"1"- ->"1"AccessLevel :  has  a
}

    SharedBoard"1"- ->"1"Permission : gives
    Permission "1"-up->"1...*" User : is associated to


@enduml

PlantUML version 1.2022.12(Sun Oct 23 19:12:26 WEST 2022)
(GPL source distribution)
Java Runtime: OpenJDK Runtime Environment
JVM: OpenJDK 64-Bit Server VM
Default Encoding: Cp1252
Language: pt
Country: PT
--></g></svg>