<?xml version="1.0" encoding="us-ascii" standalone="no"?><svg xmlns="http://www.w3.org/2000/svg" xmlns:xlink="http://www.w3.org/1999/xlink" contentStyleType="text/css" height="1282px" preserveAspectRatio="none" style="width:1200px;height:1282px;background:#FFFFFF;" version="1.1" viewBox="0 0 1200 1282" width="1200px" zoomAndPan="magnify"><defs/><g><!--class CancelMeetingUi--><g id="elem_CancelMeetingUi"><rect codeLine="4" fill="#F1F1F1" height="85.2422" id="CancelMeetingUi" rx="2.5" ry="2.5" style="stroke:#181818;stroke-width:0.5;" width="170" x="552" y="7"/><ellipse cx="581.4" cy="23" fill="#ADD1B2" rx="11" ry="11" style="stroke:#181818;stroke-width:1.0;"/><path d="M584.1656,18.875 Q584.3219,18.6563 584.5094,18.5469 Q584.6969,18.4375 584.9156,18.4375 Q585.2906,18.4375 585.525,18.7031 Q585.7594,18.9531 585.7594,19.5625 L585.7594,21.0156 Q585.7594,21.625 585.525,21.8906 Q585.2906,22.1563 584.9156,22.1563 Q584.5719,22.1563 584.3688,21.9531 Q584.1656,21.7656 584.0563,21.25 Q584.0094,20.8906 583.8219,20.7031 Q583.4938,20.3281 582.8844,20.1094 Q582.275,19.8906 581.65,19.8906 Q580.8844,19.8906 580.2438,20.2188 Q579.6188,20.5469 579.1188,21.2969 Q578.6344,22.0469 578.6344,23.0781 L578.6344,24.1719 Q578.6344,25.4063 579.525,26.2344 Q580.4156,27.0469 582.0094,27.0469 Q582.9469,27.0469 583.6031,26.7969 Q583.9938,26.6406 584.4156,26.2031 Q584.6813,25.9375 584.8219,25.8594 Q584.9781,25.7813 585.1813,25.7813 Q585.5094,25.7813 585.7594,26.0469 Q586.025,26.2969 586.025,26.6406 Q586.025,26.9844 585.6813,27.3906 Q585.1813,27.9688 584.3844,28.2969 Q583.3063,28.75 582.0094,28.75 Q580.4938,28.75 579.2906,28.125 Q578.3063,27.625 577.6188,26.5625 Q576.9313,25.4844 576.9313,24.2031 L576.9313,23.0469 Q576.9313,21.7188 577.5406,20.5781 Q578.1656,19.4219 579.2594,18.8125 Q580.3531,18.1875 581.5875,18.1875 Q582.3219,18.1875 582.9625,18.3594 Q583.6188,18.5156 584.1656,18.875 Z " fill="#000000"/><text fill="#000000" font-family="sans-serif" font-size="14" lengthAdjust="spacing" textLength="106" x="598.6" y="28.7969">CancelMeetingUi</text><line style="stroke:#181818;stroke-width:0.5;" x1="553" x2="721" y1="39" y2="39"/><line style="stroke:#181818;stroke-width:0.5;" x1="553" x2="721" y1="47" y2="47"/><ellipse cx="563" cy="61.8105" fill="#84BE84" rx="3" ry="3" style="stroke:#038048;stroke-width:1.0;"/><text fill="#000000" font-family="sans-serif" font-size="14" lengthAdjust="spacing" textLength="140" x="572" y="66.1074">listOfMeetingsOwner()</text><ellipse cx="563" cy="80.4316" fill="#84BE84" rx="3" ry="3" style="stroke:#038048;stroke-width:1.0;"/><text fill="#000000" font-family="sans-serif" font-size="14" lengthAdjust="spacing" textLength="144" x="572" y="84.7285">deleteMeeting(current)</text></g><!--class CancelMeetingController--><g id="elem_CancelMeetingController"><rect codeLine="8" fill="#F1F1F1" height="103.8633" id="CancelMeetingController" rx="2.5" ry="2.5" style="stroke:#181818;stroke-width:0.5;" width="188" x="543" y="152"/><ellipse cx="558" cy="168" fill="#ADD1B2" rx="11" ry="11" style="stroke:#181818;stroke-width:1.0;"/><path d="M560.7656,163.875 Q560.9219,163.6563 561.1094,163.5469 Q561.2969,163.4375 561.5156,163.4375 Q561.8906,163.4375 562.125,163.7031 Q562.3594,163.9531 562.3594,164.5625 L562.3594,166.0156 Q562.3594,166.625 562.125,166.8906 Q561.8906,167.1563 561.5156,167.1563 Q561.1719,167.1563 560.9688,166.9531 Q560.7656,166.7656 560.6563,166.25 Q560.6094,165.8906 560.4219,165.7031 Q560.0938,165.3281 559.4844,165.1094 Q558.875,164.8906 558.25,164.8906 Q557.4844,164.8906 556.8438,165.2188 Q556.2188,165.5469 555.7188,166.2969 Q555.2344,167.0469 555.2344,168.0781 L555.2344,169.1719 Q555.2344,170.4063 556.125,171.2344 Q557.0156,172.0469 558.6094,172.0469 Q559.5469,172.0469 560.2031,171.7969 Q560.5938,171.6406 561.0156,171.2031 Q561.2813,170.9375 561.4219,170.8594 Q561.5781,170.7813 561.7813,170.7813 Q562.1094,170.7813 562.3594,171.0469 Q562.625,171.2969 562.625,171.6406 Q562.625,171.9844 562.2813,172.3906 Q561.7813,172.9688 560.9844,173.2969 Q559.9063,173.75 558.6094,173.75 Q557.0938,173.75 555.8906,173.125 Q554.9063,172.625 554.2188,171.5625 Q553.5313,170.4844 553.5313,169.2031 L553.5313,168.0469 Q553.5313,166.7188 554.1406,165.5781 Q554.7656,164.4219 555.8594,163.8125 Q556.9531,163.1875 558.1875,163.1875 Q558.9219,163.1875 559.5625,163.3594 Q560.2188,163.5156 560.7656,163.875 Z " fill="#000000"/><text fill="#000000" font-family="sans-serif" font-size="14" lengthAdjust="spacing" textLength="156" x="572" y="173.7969">CancelMeetingController</text><line style="stroke:#181818;stroke-width:0.5;" x1="544" x2="730" y1="184" y2="184"/><line style="stroke:#181818;stroke-width:0.5;" x1="544" x2="730" y1="192" y2="192"/><ellipse cx="554" cy="206.8105" fill="#84BE84" rx="3" ry="3" style="stroke:#038048;stroke-width:1.0;"/><text fill="#000000" font-family="sans-serif" font-size="14" lengthAdjust="spacing" textLength="53" x="563" y="211.1074">Create()</text><ellipse cx="554" cy="225.4316" fill="#84BE84" rx="3" ry="3" style="stroke:#038048;stroke-width:1.0;"/><text fill="#000000" font-family="sans-serif" font-size="14" lengthAdjust="spacing" textLength="140" x="563" y="229.7285">listOfMeetingsOwner()</text><ellipse cx="554" cy="244.0527" fill="#84BE84" rx="3" ry="3" style="stroke:#038048;stroke-width:1.0;"/><text fill="#000000" font-family="sans-serif" font-size="14" lengthAdjust="spacing" textLength="144" x="563" y="248.3496">deleteMeeting(current)</text></g><!--class MeetingManagementService--><g id="elem_MeetingManagementService"><rect codeLine="13" fill="#F1F1F1" height="141.1055" id="MeetingManagementService" rx="2.5" ry="2.5" style="stroke:#181818;stroke-width:0.5;" width="294" x="490" y="316"/><ellipse cx="543.25" cy="332" fill="#ADD1B2" rx="11" ry="11" style="stroke:#181818;stroke-width:1.0;"/><path d="M546.0156,327.875 Q546.1719,327.6563 546.3594,327.5469 Q546.5469,327.4375 546.7656,327.4375 Q547.1406,327.4375 547.375,327.7031 Q547.6094,327.9531 547.6094,328.5625 L547.6094,330.0156 Q547.6094,330.625 547.375,330.8906 Q547.1406,331.1563 546.7656,331.1563 Q546.4219,331.1563 546.2188,330.9531 Q546.0156,330.7656 545.9063,330.25 Q545.8594,329.8906 545.6719,329.7031 Q545.3438,329.3281 544.7344,329.1094 Q544.125,328.8906 543.5,328.8906 Q542.7344,328.8906 542.0938,329.2188 Q541.4688,329.5469 540.9688,330.2969 Q540.4844,331.0469 540.4844,332.0781 L540.4844,333.1719 Q540.4844,334.4063 541.375,335.2344 Q542.2656,336.0469 543.8594,336.0469 Q544.7969,336.0469 545.4531,335.7969 Q545.8438,335.6406 546.2656,335.2031 Q546.5313,334.9375 546.6719,334.8594 Q546.8281,334.7813 547.0313,334.7813 Q547.3594,334.7813 547.6094,335.0469 Q547.875,335.2969 547.875,335.6406 Q547.875,335.9844 547.5313,336.3906 Q547.0313,336.9688 546.2344,337.2969 Q545.1563,337.75 543.8594,337.75 Q542.3438,337.75 541.1406,337.125 Q540.1563,336.625 539.4688,335.5625 Q538.7813,334.4844 538.7813,333.2031 L538.7813,332.0469 Q538.7813,330.7188 539.3906,329.5781 Q540.0156,328.4219 541.1094,327.8125 Q542.2031,327.1875 543.4375,327.1875 Q544.1719,327.1875 544.8125,327.3594 Q545.4688,327.5156 546.0156,327.875 Z " fill="#000000"/><text fill="#000000" font-family="sans-serif" font-size="14" lengthAdjust="spacing" textLength="179" x="563.75" y="337.7969">MeetingManagementService</text><line style="stroke:#181818;stroke-width:0.5;" x1="491" x2="783" y1="348" y2="348"/><line style="stroke:#181818;stroke-width:0.5;" x1="491" x2="783" y1="356" y2="356"/><ellipse cx="501" cy="370.8105" fill="#84BE84" rx="3" ry="3" style="stroke:#038048;stroke-width:1.0;"/><text fill="#000000" font-family="sans-serif" font-size="14" lengthAdjust="spacing" textLength="138" x="510" y="375.1074">authorizationService()</text><ellipse cx="501" cy="389.4316" fill="#84BE84" rx="3" ry="3" style="stroke:#038048;stroke-width:1.0;"/><text fill="#000000" font-family="sans-serif" font-size="14" lengthAdjust="spacing" textLength="53" x="510" y="393.7285">Create()</text><text fill="#000000" font-family="sans-serif" font-size="14" lengthAdjust="spacing" textLength="268" x="510" y="412.3496">findAllNotificationsForThisMeeting(current)</text><ellipse cx="501" cy="426.6738" fill="#84BE84" rx="3" ry="3" style="stroke:#038048;stroke-width:1.0;"/><text fill="#000000" font-family="sans-serif" font-size="14" lengthAdjust="spacing" textLength="85" x="510" y="430.9707">save(current)</text><ellipse cx="501" cy="445.2949" fill="#84BE84" rx="3" ry="3" style="stroke:#038048;stroke-width:1.0;"/><text fill="#000000" font-family="sans-serif" font-size="14" lengthAdjust="spacing" textLength="142" x="510" y="449.5918">deleteNotifications(list)</text></g><!--class NotificationAcceptanceService--><g id="elem_NotificationAcceptanceService"><rect codeLine="22" fill="#F1F1F1" height="122.4844" id="NotificationAcceptanceService" rx="2.5" ry="2.5" style="stroke:#181818;stroke-width:0.5;" width="374" x="330" y="517"/><ellipse cx="417.75" cy="533" fill="#ADD1B2" rx="11" ry="11" style="stroke:#181818;stroke-width:1.0;"/><path d="M420.5156,528.875 Q420.6719,528.6563 420.8594,528.5469 Q421.0469,528.4375 421.2656,528.4375 Q421.6406,528.4375 421.875,528.7031 Q422.1094,528.9531 422.1094,529.5625 L422.1094,531.0156 Q422.1094,531.625 421.875,531.8906 Q421.6406,532.1563 421.2656,532.1563 Q420.9219,532.1563 420.7188,531.9531 Q420.5156,531.7656 420.4063,531.25 Q420.3594,530.8906 420.1719,530.7031 Q419.8438,530.3281 419.2344,530.1094 Q418.625,529.8906 418,529.8906 Q417.2344,529.8906 416.5938,530.2188 Q415.9688,530.5469 415.4688,531.2969 Q414.9844,532.0469 414.9844,533.0781 L414.9844,534.1719 Q414.9844,535.4063 415.875,536.2344 Q416.7656,537.0469 418.3594,537.0469 Q419.2969,537.0469 419.9531,536.7969 Q420.3438,536.6406 420.7656,536.2031 Q421.0313,535.9375 421.1719,535.8594 Q421.3281,535.7813 421.5313,535.7813 Q421.8594,535.7813 422.1094,536.0469 Q422.375,536.2969 422.375,536.6406 Q422.375,536.9844 422.0313,537.3906 Q421.5313,537.9688 420.7344,538.2969 Q419.6563,538.75 418.3594,538.75 Q416.8438,538.75 415.6406,538.125 Q414.6563,537.625 413.9688,536.5625 Q413.2813,535.4844 413.2813,534.2031 L413.2813,533.0469 Q413.2813,531.7188 413.8906,530.5781 Q414.5156,529.4219 415.6094,528.8125 Q416.7031,528.1875 417.9375,528.1875 Q418.6719,528.1875 419.3125,528.3594 Q419.9688,528.5156 420.5156,528.875 Z " fill="#000000"/><text fill="#000000" font-family="sans-serif" font-size="14" lengthAdjust="spacing" textLength="190" x="438.25" y="538.7969">NotificationAcceptanceService</text><line style="stroke:#181818;stroke-width:0.5;" x1="331" x2="703" y1="549" y2="549"/><line style="stroke:#181818;stroke-width:0.5;" x1="331" x2="703" y1="557" y2="557"/><ellipse cx="341" cy="571.8105" fill="#84BE84" rx="3" ry="3" style="stroke:#038048;stroke-width:1.0;"/><text fill="#000000" font-family="sans-serif" font-size="14" lengthAdjust="spacing" textLength="268" x="350" y="576.1074">findAllNotificationsForThisMeeting(current)</text><ellipse cx="341" cy="590.4316" fill="#84BE84" rx="3" ry="3" style="stroke:#038048;stroke-width:1.0;"/><text fill="#000000" font-family="sans-serif" font-size="14" lengthAdjust="spacing" textLength="125" x="350" y="594.7285">remove(notification)</text><ellipse cx="341" cy="609.0527" fill="#84BE84" rx="3" ry="3" style="stroke:#038048;stroke-width:1.0;"/><text fill="#000000" font-family="sans-serif" font-size="14" lengthAdjust="spacing" textLength="348" x="350" y="613.3496">deleteSchedule(TimeTable current,Schedule schedule)</text><ellipse cx="341" cy="627.6738" fill="#84BE84" rx="3" ry="3" style="stroke:#038048;stroke-width:1.0;"/><text fill="#000000" font-family="sans-serif" font-size="14" lengthAdjust="spacing" textLength="85" x="350" y="631.9707">save(current)</text></g><!--class PersistenceContext--><g id="elem_PersistenceContext"><rect codeLine="33" fill="#F1F1F1" height="66.6211" id="PersistenceContext" rx="2.5" ry="2.5" style="stroke:#181818;stroke-width:0.5;" width="172" x="551" y="699"/><ellipse cx="574.1" cy="715" fill="#ADD1B2" rx="11" ry="11" style="stroke:#181818;stroke-width:1.0;"/><path d="M576.8656,710.875 Q577.0219,710.6563 577.2094,710.5469 Q577.3969,710.4375 577.6156,710.4375 Q577.9906,710.4375 578.225,710.7031 Q578.4594,710.9531 578.4594,711.5625 L578.4594,713.0156 Q578.4594,713.625 578.225,713.8906 Q577.9906,714.1563 577.6156,714.1563 Q577.2719,714.1563 577.0688,713.9531 Q576.8656,713.7656 576.7563,713.25 Q576.7094,712.8906 576.5219,712.7031 Q576.1938,712.3281 575.5844,712.1094 Q574.975,711.8906 574.35,711.8906 Q573.5844,711.8906 572.9438,712.2188 Q572.3188,712.5469 571.8188,713.2969 Q571.3344,714.0469 571.3344,715.0781 L571.3344,716.1719 Q571.3344,717.4063 572.225,718.2344 Q573.1156,719.0469 574.7094,719.0469 Q575.6469,719.0469 576.3031,718.7969 Q576.6938,718.6406 577.1156,718.2031 Q577.3813,717.9375 577.5219,717.8594 Q577.6781,717.7813 577.8813,717.7813 Q578.2094,717.7813 578.4594,718.0469 Q578.725,718.2969 578.725,718.6406 Q578.725,718.9844 578.3813,719.3906 Q577.8813,719.9688 577.0844,720.2969 Q576.0063,720.75 574.7094,720.75 Q573.1938,720.75 571.9906,720.125 Q571.0063,719.625 570.3188,718.5625 Q569.6313,717.4844 569.6313,716.2031 L569.6313,715.0469 Q569.6313,713.7188 570.2406,712.5781 Q570.8656,711.4219 571.9594,710.8125 Q573.0531,710.1875 574.2875,710.1875 Q575.0219,710.1875 575.6625,710.3594 Q576.3188,710.5156 576.8656,710.875 Z " fill="#000000"/><text fill="#000000" font-family="sans-serif" font-size="14" lengthAdjust="spacing" textLength="122" x="589.9" y="720.7969">PersistenceContext</text><line style="stroke:#181818;stroke-width:0.5;" x1="552" x2="722" y1="731" y2="731"/><line style="stroke:#181818;stroke-width:0.5;" x1="552" x2="722" y1="739" y2="739"/><ellipse cx="562" cy="753.8105" fill="#84BE84" rx="3" ry="3" style="stroke:#038048;stroke-width:1.0;"/><text fill="#000000" font-family="sans-serif" font-size="14" lengthAdjust="spacing" textLength="146" x="571" y="758.1074">getRepositoryFactory()</text></g><!--class RepositoryFactory--><g id="elem_RepositoryFactory"><rect codeLine="36" fill="#F1F1F1" height="122.4844" id="RepositoryFactory" rx="2.5" ry="2.5" style="stroke:#181818;stroke-width:0.5;" width="184" x="545" y="826"/><ellipse cx="576.2" cy="842" fill="#B4A7E5" rx="11" ry="11" style="stroke:#181818;stroke-width:1.0;"/><path d="M577.1531,838.6406 L577.1531,845.2969 L578.8719,845.2969 Q579.4813,845.2969 579.7469,845.5313 Q580.0125,845.7656 580.0125,846.1563 Q580.0125,846.5313 579.7469,846.7656 Q579.4813,847 578.8719,847 L573.7313,847 Q573.1219,847 572.8563,846.7656 Q572.5906,846.5313 572.5906,846.1406 Q572.5906,845.7656 572.8563,845.5313 Q573.1219,845.2969 573.7313,845.2969 L575.45,845.2969 L575.45,838.6406 L573.7313,838.6406 Q573.1219,838.6406 572.8563,838.4063 Q572.5906,838.1719 572.5906,837.7813 Q572.5906,837.4063 572.8563,837.1719 Q573.1219,836.9375 573.7313,836.9375 L578.8719,836.9375 Q579.4813,836.9375 579.7469,837.1719 Q580.0125,837.4063 580.0125,837.7813 Q580.0125,838.1719 579.7469,838.4063 Q579.4813,838.6406 578.8719,838.6406 L577.1531,838.6406 Z " fill="#000000"/><text fill="#000000" font-family="sans-serif" font-size="14" font-style="italic" lengthAdjust="spacing" textLength="116" x="593.8" y="847.7969">RepositoryFactory</text><line style="stroke:#181818;stroke-width:0.5;" x1="546" x2="728" y1="858" y2="858"/><line style="stroke:#181818;stroke-width:0.5;" x1="546" x2="728" y1="866" y2="866"/><ellipse cx="556" cy="880.8105" fill="#84BE84" rx="3" ry="3" style="stroke:#038048;stroke-width:1.0;"/><text fill="#000000" font-family="sans-serif" font-size="14" lengthAdjust="spacing" textLength="128" x="565" y="885.1074">meetingRepository()</text><ellipse cx="556" cy="899.4316" fill="#84BE84" rx="3" ry="3" style="stroke:#038048;stroke-width:1.0;"/><text fill="#000000" font-family="sans-serif" font-size="14" lengthAdjust="spacing" textLength="135" x="565" y="903.7285">scheduleRepository()</text><ellipse cx="556" cy="918.0527" fill="#84BE84" rx="3" ry="3" style="stroke:#038048;stroke-width:1.0;"/><text fill="#000000" font-family="sans-serif" font-size="14" lengthAdjust="spacing" textLength="135" x="565" y="922.3496">timetableRepository()</text><ellipse cx="556" cy="936.6738" fill="#84BE84" rx="3" ry="3" style="stroke:#038048;stroke-width:1.0;"/><text fill="#000000" font-family="sans-serif" font-size="14" lengthAdjust="spacing" textLength="158" x="565" y="940.9707">ecourseUserRepository()</text></g><!--class MeetingRepository--><g id="elem_MeetingRepository"><rect codeLine="42" fill="#F1F1F1" height="85.2422" id="MeetingRepository" rx="2.5" ry="2.5" style="stroke:#181818;stroke-width:0.5;" width="166" x="19" y="1017.5"/><ellipse cx="40.75" cy="1033.5" fill="#B4A7E5" rx="11" ry="11" style="stroke:#181818;stroke-width:1.0;"/><path d="M41.7031,1030.1406 L41.7031,1036.7969 L43.4219,1036.7969 Q44.0313,1036.7969 44.2969,1037.0313 Q44.5625,1037.2656 44.5625,1037.6563 Q44.5625,1038.0313 44.2969,1038.2656 Q44.0313,1038.5 43.4219,1038.5 L38.2813,1038.5 Q37.6719,1038.5 37.4063,1038.2656 Q37.1406,1038.0313 37.1406,1037.6406 Q37.1406,1037.2656 37.4063,1037.0313 Q37.6719,1036.7969 38.2813,1036.7969 L40,1036.7969 L40,1030.1406 L38.2813,1030.1406 Q37.6719,1030.1406 37.4063,1029.9063 Q37.1406,1029.6719 37.1406,1029.2813 Q37.1406,1028.9063 37.4063,1028.6719 Q37.6719,1028.4375 38.2813,1028.4375 L43.4219,1028.4375 Q44.0313,1028.4375 44.2969,1028.6719 Q44.5625,1028.9063 44.5625,1029.2813 Q44.5625,1029.6719 44.2969,1029.9063 Q44.0313,1030.1406 43.4219,1030.1406 L41.7031,1030.1406 Z " fill="#000000"/><text fill="#000000" font-family="sans-serif" font-size="14" font-style="italic" lengthAdjust="spacing" textLength="119" x="56.25" y="1039.2969">MeetingRepository</text><line style="stroke:#181818;stroke-width:0.5;" x1="20" x2="184" y1="1049.5" y2="1049.5"/><line style="stroke:#181818;stroke-width:0.5;" x1="20" x2="184" y1="1057.5" y2="1057.5"/><ellipse cx="30" cy="1072.3105" fill="#84BE84" rx="3" ry="3" style="stroke:#038048;stroke-width:1.0;"/><text fill="#000000" font-family="sans-serif" font-size="14" lengthAdjust="spacing" textLength="140" x="39" y="1076.6074">listOfMeetingsOwner()</text><ellipse cx="30" cy="1090.9316" fill="#84BE84" rx="3" ry="3" style="stroke:#038048;stroke-width:1.0;"/><text fill="#000000" font-family="sans-serif" font-size="14" lengthAdjust="spacing" textLength="90" x="39" y="1095.2285">save(meeting)</text></g><!--class NotificationRepository--><g id="elem_NotificationRepository"><rect codeLine="46" fill="#F1F1F1" height="103.8633" id="NotificationRepository" rx="2.5" ry="2.5" style="stroke:#181818;stroke-width:0.5;" width="294" x="222" y="1008"/><ellipse cx="295.75" cy="1024" fill="#B4A7E5" rx="11" ry="11" style="stroke:#181818;stroke-width:1.0;"/><path d="M296.7031,1020.6406 L296.7031,1027.2969 L298.4219,1027.2969 Q299.0313,1027.2969 299.2969,1027.5313 Q299.5625,1027.7656 299.5625,1028.1563 Q299.5625,1028.5313 299.2969,1028.7656 Q299.0313,1029 298.4219,1029 L293.2813,1029 Q292.6719,1029 292.4063,1028.7656 Q292.1406,1028.5313 292.1406,1028.1406 Q292.1406,1027.7656 292.4063,1027.5313 Q292.6719,1027.2969 293.2813,1027.2969 L295,1027.2969 L295,1020.6406 L293.2813,1020.6406 Q292.6719,1020.6406 292.4063,1020.4063 Q292.1406,1020.1719 292.1406,1019.7813 Q292.1406,1019.4063 292.4063,1019.1719 Q292.6719,1018.9375 293.2813,1018.9375 L298.4219,1018.9375 Q299.0313,1018.9375 299.2969,1019.1719 Q299.5625,1019.4063 299.5625,1019.7813 Q299.5625,1020.1719 299.2969,1020.4063 Q299.0313,1020.6406 298.4219,1020.6406 L296.7031,1020.6406 Z " fill="#000000"/><text fill="#000000" font-family="sans-serif" font-size="14" font-style="italic" lengthAdjust="spacing" textLength="138" x="316.25" y="1029.7969">NotificationRepository</text><line style="stroke:#181818;stroke-width:0.5;" x1="223" x2="515" y1="1040" y2="1040"/><line style="stroke:#181818;stroke-width:0.5;" x1="223" x2="515" y1="1048" y2="1048"/><ellipse cx="233" cy="1062.8105" fill="#84BE84" rx="3" ry="3" style="stroke:#038048;stroke-width:1.0;"/><text fill="#000000" font-family="sans-serif" font-size="14" lengthAdjust="spacing" textLength="108" x="242" y="1067.1074">save(notification)</text><ellipse cx="233" cy="1081.4316" fill="#84BE84" rx="3" ry="3" style="stroke:#038048;stroke-width:1.0;"/><text fill="#000000" font-family="sans-serif" font-size="14" lengthAdjust="spacing" textLength="268" x="242" y="1085.7285">findAllNotificationsForThisMeeting(current)</text><ellipse cx="233" cy="1100.0527" fill="#84BE84" rx="3" ry="3" style="stroke:#038048;stroke-width:1.0;"/><text fill="#000000" font-family="sans-serif" font-size="14" lengthAdjust="spacing" textLength="125" x="242" y="1104.3496">remove(notification)</text></g><!--class ScheduleRepository--><g id="elem_ScheduleRepository"><rect codeLine="51" fill="#F1F1F1" height="66.6211" id="ScheduleRepository" rx="2.5" ry="2.5" style="stroke:#181818;stroke-width:0.5;" width="159" x="557.5" y="1026.5"/><ellipse cx="572.5" cy="1042.5" fill="#B4A7E5" rx="11" ry="11" style="stroke:#181818;stroke-width:1.0;"/><path d="M573.4531,1039.1406 L573.4531,1045.7969 L575.1719,1045.7969 Q575.7813,1045.7969 576.0469,1046.0313 Q576.3125,1046.2656 576.3125,1046.6563 Q576.3125,1047.0313 576.0469,1047.2656 Q575.7813,1047.5 575.1719,1047.5 L570.0313,1047.5 Q569.4219,1047.5 569.1563,1047.2656 Q568.8906,1047.0313 568.8906,1046.6406 Q568.8906,1046.2656 569.1563,1046.0313 Q569.4219,1045.7969 570.0313,1045.7969 L571.75,1045.7969 L571.75,1039.1406 L570.0313,1039.1406 Q569.4219,1039.1406 569.1563,1038.9063 Q568.8906,1038.6719 568.8906,1038.2813 Q568.8906,1037.9063 569.1563,1037.6719 Q569.4219,1037.4375 570.0313,1037.4375 L575.1719,1037.4375 Q575.7813,1037.4375 576.0469,1037.6719 Q576.3125,1037.9063 576.3125,1038.2813 Q576.3125,1038.6719 576.0469,1038.9063 Q575.7813,1039.1406 575.1719,1039.1406 L573.4531,1039.1406 Z " fill="#000000"/><text fill="#000000" font-family="sans-serif" font-size="14" font-style="italic" lengthAdjust="spacing" textLength="127" x="586.5" y="1048.2969">ScheduleRepository</text><line style="stroke:#181818;stroke-width:0.5;" x1="558.5" x2="715.5" y1="1058.5" y2="1058.5"/><line style="stroke:#181818;stroke-width:0.5;" x1="558.5" x2="715.5" y1="1066.5" y2="1066.5"/><ellipse cx="568.5" cy="1081.3105" fill="#84BE84" rx="3" ry="3" style="stroke:#038048;stroke-width:1.0;"/><text fill="#000000" font-family="sans-serif" font-size="14" lengthAdjust="spacing" textLength="102" x="577.5" y="1085.6074">save(schedule))</text></g><!--class TimetableRepository--><g id="elem_TimetableRepository"><rect codeLine="54" fill="#F1F1F1" height="66.6211" id="TimetableRepository" rx="2.5" ry="2.5" style="stroke:#181818;stroke-width:0.5;" width="162" x="764" y="1026.5"/><ellipse cx="779" cy="1042.5" fill="#B4A7E5" rx="11" ry="11" style="stroke:#181818;stroke-width:1.0;"/><path d="M779.9531,1039.1406 L779.9531,1045.7969 L781.6719,1045.7969 Q782.2813,1045.7969 782.5469,1046.0313 Q782.8125,1046.2656 782.8125,1046.6563 Q782.8125,1047.0313 782.5469,1047.2656 Q782.2813,1047.5 781.6719,1047.5 L776.5313,1047.5 Q775.9219,1047.5 775.6563,1047.2656 Q775.3906,1047.0313 775.3906,1046.6406 Q775.3906,1046.2656 775.6563,1046.0313 Q775.9219,1045.7969 776.5313,1045.7969 L778.25,1045.7969 L778.25,1039.1406 L776.5313,1039.1406 Q775.9219,1039.1406 775.6563,1038.9063 Q775.3906,1038.6719 775.3906,1038.2813 Q775.3906,1037.9063 775.6563,1037.6719 Q775.9219,1037.4375 776.5313,1037.4375 L781.6719,1037.4375 Q782.2813,1037.4375 782.5469,1037.6719 Q782.8125,1037.9063 782.8125,1038.2813 Q782.8125,1038.6719 782.5469,1038.9063 Q782.2813,1039.1406 781.6719,1039.1406 L779.9531,1039.1406 Z " fill="#000000"/><text fill="#000000" font-family="sans-serif" font-size="14" font-style="italic" lengthAdjust="spacing" textLength="130" x="793" y="1048.2969">TimetableRepository</text><line style="stroke:#181818;stroke-width:0.5;" x1="765" x2="925" y1="1058.5" y2="1058.5"/><line style="stroke:#181818;stroke-width:0.5;" x1="765" x2="925" y1="1066.5" y2="1066.5"/><ellipse cx="775" cy="1081.3105" fill="#84BE84" rx="3" ry="3" style="stroke:#038048;stroke-width:1.0;"/><text fill="#000000" font-family="sans-serif" font-size="14" lengthAdjust="spacing" textLength="102" x="784" y="1085.6074">save(timeTable)</text></g><!--class ECourseUserRepository--><g id="elem_ECourseUserRepository"><rect codeLine="57" fill="#F1F1F1" height="85.2422" id="ECourseUserRepository" rx="2.5" ry="2.5" style="stroke:#181818;stroke-width:0.5;" width="185" x="978.5" y="1017.5"/><ellipse cx="993.5" cy="1033.5" fill="#B4A7E5" rx="11" ry="11" style="stroke:#181818;stroke-width:1.0;"/><path d="M994.4531,1030.1406 L994.4531,1036.7969 L996.1719,1036.7969 Q996.7813,1036.7969 997.0469,1037.0313 Q997.3125,1037.2656 997.3125,1037.6563 Q997.3125,1038.0313 997.0469,1038.2656 Q996.7813,1038.5 996.1719,1038.5 L991.0313,1038.5 Q990.4219,1038.5 990.1563,1038.2656 Q989.8906,1038.0313 989.8906,1037.6406 Q989.8906,1037.2656 990.1563,1037.0313 Q990.4219,1036.7969 991.0313,1036.7969 L992.75,1036.7969 L992.75,1030.1406 L991.0313,1030.1406 Q990.4219,1030.1406 990.1563,1029.9063 Q989.8906,1029.6719 989.8906,1029.2813 Q989.8906,1028.9063 990.1563,1028.6719 Q990.4219,1028.4375 991.0313,1028.4375 L996.1719,1028.4375 Q996.7813,1028.4375 997.0469,1028.6719 Q997.3125,1028.9063 997.3125,1029.2813 Q997.3125,1029.6719 997.0469,1029.9063 Q996.7813,1030.1406 996.1719,1030.1406 L994.4531,1030.1406 Z " fill="#000000"/><text fill="#000000" font-family="sans-serif" font-size="14" font-style="italic" lengthAdjust="spacing" textLength="153" x="1007.5" y="1039.2969">ECourseUserRepository</text><line style="stroke:#181818;stroke-width:0.5;" x1="979.5" x2="1162.5" y1="1049.5" y2="1049.5"/><line style="stroke:#181818;stroke-width:0.5;" x1="979.5" x2="1162.5" y1="1057.5" y2="1057.5"/><ellipse cx="989.5" cy="1072.3105" fill="#84BE84" rx="3" ry="3" style="stroke:#038048;stroke-width:1.0;"/><text fill="#000000" font-family="sans-serif" font-size="14" lengthAdjust="spacing" textLength="123" x="998.5" y="1076.6074">save(eCourseUser)</text><ellipse cx="989.5" cy="1090.9316" fill="#84BE84" rx="3" ry="3" style="stroke:#038048;stroke-width:1.0;"/><text fill="#000000" font-family="sans-serif" font-size="14" lengthAdjust="spacing" textLength="100" x="998.5" y="1095.2285">ofIdentity(email)</text></g><!--class JPAMeetingRepository--><g id="elem_JPAMeetingRepository"><rect codeLine="62" fill="#F1F1F1" height="85.2422" id="JPAMeetingRepository" rx="2.5" ry="2.5" style="stroke:#181818;stroke-width:0.5;" width="174" x="7" y="1181.5"/><ellipse cx="22" cy="1197.5" fill="#ADD1B2" rx="11" ry="11" style="stroke:#181818;stroke-width:1.0;"/><path d="M24.7656,1193.375 Q24.9219,1193.1563 25.1094,1193.0469 Q25.2969,1192.9375 25.5156,1192.9375 Q25.8906,1192.9375 26.125,1193.2031 Q26.3594,1193.4531 26.3594,1194.0625 L26.3594,1195.5156 Q26.3594,1196.125 26.125,1196.3906 Q25.8906,1196.6563 25.5156,1196.6563 Q25.1719,1196.6563 24.9688,1196.4531 Q24.7656,1196.2656 24.6563,1195.75 Q24.6094,1195.3906 24.4219,1195.2031 Q24.0938,1194.8281 23.4844,1194.6094 Q22.875,1194.3906 22.25,1194.3906 Q21.4844,1194.3906 20.8438,1194.7188 Q20.2188,1195.0469 19.7188,1195.7969 Q19.2344,1196.5469 19.2344,1197.5781 L19.2344,1198.6719 Q19.2344,1199.9063 20.125,1200.7344 Q21.0156,1201.5469 22.6094,1201.5469 Q23.5469,1201.5469 24.2031,1201.2969 Q24.5938,1201.1406 25.0156,1200.7031 Q25.2813,1200.4375 25.4219,1200.3594 Q25.5781,1200.2813 25.7813,1200.2813 Q26.1094,1200.2813 26.3594,1200.5469 Q26.625,1200.7969 26.625,1201.1406 Q26.625,1201.4844 26.2813,1201.8906 Q25.7813,1202.4688 24.9844,1202.7969 Q23.9063,1203.25 22.6094,1203.25 Q21.0938,1203.25 19.8906,1202.625 Q18.9063,1202.125 18.2188,1201.0625 Q17.5313,1199.9844 17.5313,1198.7031 L17.5313,1197.5469 Q17.5313,1196.2188 18.1406,1195.0781 Q18.7656,1193.9219 19.8594,1193.3125 Q20.9531,1192.6875 22.1875,1192.6875 Q22.9219,1192.6875 23.5625,1192.8594 Q24.2188,1193.0156 24.7656,1193.375 Z " fill="#000000"/><text fill="#000000" font-family="sans-serif" font-size="14" lengthAdjust="spacing" textLength="142" x="36" y="1203.2969">JPAMeetingRepository</text><line style="stroke:#181818;stroke-width:0.5;" x1="8" x2="180" y1="1213.5" y2="1213.5"/><line style="stroke:#181818;stroke-width:0.5;" x1="8" x2="180" y1="1221.5" y2="1221.5"/><ellipse cx="18" cy="1236.3105" fill="#84BE84" rx="3" ry="3" style="stroke:#038048;stroke-width:1.0;"/><text fill="#000000" font-family="sans-serif" font-size="14" lengthAdjust="spacing" textLength="90" x="27" y="1240.6074">save(meeting)</text><ellipse cx="18" cy="1254.9316" fill="#84BE84" rx="3" ry="3" style="stroke:#038048;stroke-width:1.0;"/><text fill="#000000" font-family="sans-serif" font-size="14" lengthAdjust="spacing" textLength="140" x="27" y="1259.2285">listOfMeetingsOwner()</text></g><!--class JPANotificationRepository--><g id="elem_JPANotificationRepository"><rect codeLine="66" fill="#F1F1F1" height="103.8633" id="JPANotificationRepository" rx="2.5" ry="2.5" style="stroke:#181818;stroke-width:0.5;" width="294" x="216" y="1172"/><ellipse cx="278.25" cy="1188" fill="#ADD1B2" rx="11" ry="11" style="stroke:#181818;stroke-width:1.0;"/><path d="M281.0156,1183.875 Q281.1719,1183.6563 281.3594,1183.5469 Q281.5469,1183.4375 281.7656,1183.4375 Q282.1406,1183.4375 282.375,1183.7031 Q282.6094,1183.9531 282.6094,1184.5625 L282.6094,1186.0156 Q282.6094,1186.625 282.375,1186.8906 Q282.1406,1187.1563 281.7656,1187.1563 Q281.4219,1187.1563 281.2188,1186.9531 Q281.0156,1186.7656 280.9063,1186.25 Q280.8594,1185.8906 280.6719,1185.7031 Q280.3438,1185.3281 279.7344,1185.1094 Q279.125,1184.8906 278.5,1184.8906 Q277.7344,1184.8906 277.0938,1185.2188 Q276.4688,1185.5469 275.9688,1186.2969 Q275.4844,1187.0469 275.4844,1188.0781 L275.4844,1189.1719 Q275.4844,1190.4063 276.375,1191.2344 Q277.2656,1192.0469 278.8594,1192.0469 Q279.7969,1192.0469 280.4531,1191.7969 Q280.8438,1191.6406 281.2656,1191.2031 Q281.5313,1190.9375 281.6719,1190.8594 Q281.8281,1190.7813 282.0313,1190.7813 Q282.3594,1190.7813 282.6094,1191.0469 Q282.875,1191.2969 282.875,1191.6406 Q282.875,1191.9844 282.5313,1192.3906 Q282.0313,1192.9688 281.2344,1193.2969 Q280.1563,1193.75 278.8594,1193.75 Q277.3438,1193.75 276.1406,1193.125 Q275.1563,1192.625 274.4688,1191.5625 Q273.7813,1190.4844 273.7813,1189.2031 L273.7813,1188.0469 Q273.7813,1186.7188 274.3906,1185.5781 Q275.0156,1184.4219 276.1094,1183.8125 Q277.2031,1183.1875 278.4375,1183.1875 Q279.1719,1183.1875 279.8125,1183.3594 Q280.4688,1183.5156 281.0156,1183.875 Z " fill="#000000"/><text fill="#000000" font-family="sans-serif" font-size="14" lengthAdjust="spacing" textLength="161" x="298.75" y="1193.7969">JPANotificationRepository</text><line style="stroke:#181818;stroke-width:0.5;" x1="217" x2="509" y1="1204" y2="1204"/><line style="stroke:#181818;stroke-width:0.5;" x1="217" x2="509" y1="1212" y2="1212"/><ellipse cx="227" cy="1226.8105" fill="#84BE84" rx="3" ry="3" style="stroke:#038048;stroke-width:1.0;"/><text fill="#000000" font-family="sans-serif" font-size="14" lengthAdjust="spacing" textLength="108" x="236" y="1231.1074">save(notification)</text><ellipse cx="227" cy="1245.4316" fill="#84BE84" rx="3" ry="3" style="stroke:#038048;stroke-width:1.0;"/><text fill="#000000" font-family="sans-serif" font-size="14" lengthAdjust="spacing" textLength="268" x="236" y="1249.7285">findAllNotificationsForThisMeeting(current)</text><ellipse cx="227" cy="1264.0527" fill="#84BE84" rx="3" ry="3" style="stroke:#038048;stroke-width:1.0;"/><text fill="#000000" font-family="sans-serif" font-size="14" lengthAdjust="spacing" textLength="125" x="236" y="1268.3496">remove(notification)</text></g><!--class JPAScheduleRepository--><g id="elem_JPAScheduleRepository"><rect codeLine="71" fill="#F1F1F1" height="66.6211" id="JPAScheduleRepository" rx="2.5" ry="2.5" style="stroke:#181818;stroke-width:0.5;" width="183" x="545.5" y="1190.5"/><ellipse cx="560.5" cy="1206.5" fill="#ADD1B2" rx="11" ry="11" style="stroke:#181818;stroke-width:1.0;"/><path d="M563.2656,1202.375 Q563.4219,1202.1563 563.6094,1202.0469 Q563.7969,1201.9375 564.0156,1201.9375 Q564.3906,1201.9375 564.625,1202.2031 Q564.8594,1202.4531 564.8594,1203.0625 L564.8594,1204.5156 Q564.8594,1205.125 564.625,1205.3906 Q564.3906,1205.6563 564.0156,1205.6563 Q563.6719,1205.6563 563.4688,1205.4531 Q563.2656,1205.2656 563.1563,1204.75 Q563.1094,1204.3906 562.9219,1204.2031 Q562.5938,1203.8281 561.9844,1203.6094 Q561.375,1203.3906 560.75,1203.3906 Q559.9844,1203.3906 559.3438,1203.7188 Q558.7188,1204.0469 558.2188,1204.7969 Q557.7344,1205.5469 557.7344,1206.5781 L557.7344,1207.6719 Q557.7344,1208.9063 558.625,1209.7344 Q559.5156,1210.5469 561.1094,1210.5469 Q562.0469,1210.5469 562.7031,1210.2969 Q563.0938,1210.1406 563.5156,1209.7031 Q563.7813,1209.4375 563.9219,1209.3594 Q564.0781,1209.2813 564.2813,1209.2813 Q564.6094,1209.2813 564.8594,1209.5469 Q565.125,1209.7969 565.125,1210.1406 Q565.125,1210.4844 564.7813,1210.8906 Q564.2813,1211.4688 563.4844,1211.7969 Q562.4063,1212.25 561.1094,1212.25 Q559.5938,1212.25 558.3906,1211.625 Q557.4063,1211.125 556.7188,1210.0625 Q556.0313,1208.9844 556.0313,1207.7031 L556.0313,1206.5469 Q556.0313,1205.2188 556.6406,1204.0781 Q557.2656,1202.9219 558.3594,1202.3125 Q559.4531,1201.6875 560.6875,1201.6875 Q561.4219,1201.6875 562.0625,1201.8594 Q562.7188,1202.0156 563.2656,1202.375 Z " fill="#000000"/><text fill="#000000" font-family="sans-serif" font-size="14" lengthAdjust="spacing" textLength="151" x="574.5" y="1212.2969">JPAScheduleRepository</text><line style="stroke:#181818;stroke-width:0.5;" x1="546.5" x2="727.5" y1="1222.5" y2="1222.5"/><line style="stroke:#181818;stroke-width:0.5;" x1="546.5" x2="727.5" y1="1230.5" y2="1230.5"/><ellipse cx="556.5" cy="1245.3105" fill="#84BE84" rx="3" ry="3" style="stroke:#038048;stroke-width:1.0;"/><text fill="#000000" font-family="sans-serif" font-size="14" lengthAdjust="spacing" textLength="102" x="565.5" y="1249.6074">save(schedule))</text></g><!--class JPATimetableRepository--><g id="elem_JPATimetableRepository"><rect codeLine="74" fill="#F1F1F1" height="66.6211" id="JPATimetableRepository" rx="2.5" ry="2.5" style="stroke:#181818;stroke-width:0.5;" width="186" x="764" y="1190.5"/><ellipse cx="779" cy="1206.5" fill="#ADD1B2" rx="11" ry="11" style="stroke:#181818;stroke-width:1.0;"/><path d="M781.7656,1202.375 Q781.9219,1202.1563 782.1094,1202.0469 Q782.2969,1201.9375 782.5156,1201.9375 Q782.8906,1201.9375 783.125,1202.2031 Q783.3594,1202.4531 783.3594,1203.0625 L783.3594,1204.5156 Q783.3594,1205.125 783.125,1205.3906 Q782.8906,1205.6563 782.5156,1205.6563 Q782.1719,1205.6563 781.9688,1205.4531 Q781.7656,1205.2656 781.6563,1204.75 Q781.6094,1204.3906 781.4219,1204.2031 Q781.0938,1203.8281 780.4844,1203.6094 Q779.875,1203.3906 779.25,1203.3906 Q778.4844,1203.3906 777.8438,1203.7188 Q777.2188,1204.0469 776.7188,1204.7969 Q776.2344,1205.5469 776.2344,1206.5781 L776.2344,1207.6719 Q776.2344,1208.9063 777.125,1209.7344 Q778.0156,1210.5469 779.6094,1210.5469 Q780.5469,1210.5469 781.2031,1210.2969 Q781.5938,1210.1406 782.0156,1209.7031 Q782.2813,1209.4375 782.4219,1209.3594 Q782.5781,1209.2813 782.7813,1209.2813 Q783.1094,1209.2813 783.3594,1209.5469 Q783.625,1209.7969 783.625,1210.1406 Q783.625,1210.4844 783.2813,1210.8906 Q782.7813,1211.4688 781.9844,1211.7969 Q780.9063,1212.25 779.6094,1212.25 Q778.0938,1212.25 776.8906,1211.625 Q775.9063,1211.125 775.2188,1210.0625 Q774.5313,1208.9844 774.5313,1207.7031 L774.5313,1206.5469 Q774.5313,1205.2188 775.1406,1204.0781 Q775.7656,1202.9219 776.8594,1202.3125 Q777.9531,1201.6875 779.1875,1201.6875 Q779.9219,1201.6875 780.5625,1201.8594 Q781.2188,1202.0156 781.7656,1202.375 Z " fill="#000000"/><text fill="#000000" font-family="sans-serif" font-size="14" lengthAdjust="spacing" textLength="154" x="793" y="1212.2969">JPATimetableRepository</text><line style="stroke:#181818;stroke-width:0.5;" x1="765" x2="949" y1="1222.5" y2="1222.5"/><line style="stroke:#181818;stroke-width:0.5;" x1="765" x2="949" y1="1230.5" y2="1230.5"/><ellipse cx="775" cy="1245.3105" fill="#84BE84" rx="3" ry="3" style="stroke:#038048;stroke-width:1.0;"/><text fill="#000000" font-family="sans-serif" font-size="14" lengthAdjust="spacing" textLength="102" x="784" y="1249.6074">save(timeTable)</text></g><!--class JPAECourseUserRepository--><g id="elem_JPAECourseUserRepository"><rect codeLine="77" fill="#F1F1F1" height="85.2422" id="JPAECourseUserRepository" rx="2.5" ry="2.5" style="stroke:#181818;stroke-width:0.5;" width="208" x="985" y="1181.5"/><ellipse cx="1000" cy="1197.5" fill="#ADD1B2" rx="11" ry="11" style="stroke:#181818;stroke-width:1.0;"/><path d="M1002.7656,1193.375 Q1002.9219,1193.1563 1003.1094,1193.0469 Q1003.2969,1192.9375 1003.5156,1192.9375 Q1003.8906,1192.9375 1004.125,1193.2031 Q1004.3594,1193.4531 1004.3594,1194.0625 L1004.3594,1195.5156 Q1004.3594,1196.125 1004.125,1196.3906 Q1003.8906,1196.6563 1003.5156,1196.6563 Q1003.1719,1196.6563 1002.9688,1196.4531 Q1002.7656,1196.2656 1002.6563,1195.75 Q1002.6094,1195.3906 1002.4219,1195.2031 Q1002.0938,1194.8281 1001.4844,1194.6094 Q1000.875,1194.3906 1000.25,1194.3906 Q999.4844,1194.3906 998.8438,1194.7188 Q998.2188,1195.0469 997.7188,1195.7969 Q997.2344,1196.5469 997.2344,1197.5781 L997.2344,1198.6719 Q997.2344,1199.9063 998.125,1200.7344 Q999.0156,1201.5469 1000.6094,1201.5469 Q1001.5469,1201.5469 1002.2031,1201.2969 Q1002.5938,1201.1406 1003.0156,1200.7031 Q1003.2813,1200.4375 1003.4219,1200.3594 Q1003.5781,1200.2813 1003.7813,1200.2813 Q1004.1094,1200.2813 1004.3594,1200.5469 Q1004.625,1200.7969 1004.625,1201.1406 Q1004.625,1201.4844 1004.2813,1201.8906 Q1003.7813,1202.4688 1002.9844,1202.7969 Q1001.9063,1203.25 1000.6094,1203.25 Q999.0938,1203.25 997.8906,1202.625 Q996.9063,1202.125 996.2188,1201.0625 Q995.5313,1199.9844 995.5313,1198.7031 L995.5313,1197.5469 Q995.5313,1196.2188 996.1406,1195.0781 Q996.7656,1193.9219 997.8594,1193.3125 Q998.9531,1192.6875 1000.1875,1192.6875 Q1000.9219,1192.6875 1001.5625,1192.8594 Q1002.2188,1193.0156 1002.7656,1193.375 Z " fill="#000000"/><text fill="#000000" font-family="sans-serif" font-size="14" lengthAdjust="spacing" textLength="176" x="1014" y="1203.2969">JPAECourseUserRepository</text><line style="stroke:#181818;stroke-width:0.5;" x1="986" x2="1192" y1="1213.5" y2="1213.5"/><line style="stroke:#181818;stroke-width:0.5;" x1="986" x2="1192" y1="1221.5" y2="1221.5"/><ellipse cx="996" cy="1236.3105" fill="#84BE84" rx="3" ry="3" style="stroke:#038048;stroke-width:1.0;"/><text fill="#000000" font-family="sans-serif" font-size="14" lengthAdjust="spacing" textLength="123" x="1005" y="1240.6074">save(eCourseUser)</text><ellipse cx="996" cy="1254.9316" fill="#84BE84" rx="3" ry="3" style="stroke:#038048;stroke-width:1.0;"/><text fill="#000000" font-family="sans-serif" font-size="14" lengthAdjust="spacing" textLength="100" x="1005" y="1259.2285">ofIdentity(email)</text></g><!--link CancelMeetingUi to CancelMeetingController--><g id="link_CancelMeetingUi_CancelMeetingController"><path codeLine="84" d="M637,92.17 C637,109.02 637,128.72 637,146.81 " fill="none" id="CancelMeetingUi-to-CancelMeetingController" style="stroke:#181818;stroke-width:1.0;stroke-dasharray:7.0,7.0;"/><polygon fill="#181818" points="637,151.86,641,142.86,637,146.86,633,142.86,637,151.86" style="stroke:#181818;stroke-width:1.0;"/></g><!--link CancelMeetingController to MeetingManagementService--><g id="link_CancelMeetingController_MeetingManagementService"><path codeLine="85" d="M637,256.24 C637,273.2 637,292.43 637,310.78 " fill="none" id="CancelMeetingController-to-MeetingManagementService" style="stroke:#181818;stroke-width:1.0;"/><polygon fill="#181818" points="637,315.93,641,306.93,637,310.93,633,306.93,637,315.93" style="stroke:#181818;stroke-width:1.0;"/></g><!--link MeetingManagementService to NotificationAcceptanceService--><g id="link_MeetingManagementService_NotificationAcceptanceService"><path codeLine="86" d="M592.83,457.26 C581.43,475.25 569.21,494.55 557.99,512.28 " fill="none" id="MeetingManagementService-to-NotificationAcceptanceService" style="stroke:#181818;stroke-width:1.0;"/><polygon fill="#181818" points="555.15,516.75,563.3386,511.2776,557.8205,512.5229,556.5752,507.0048,555.15,516.75" style="stroke:#181818;stroke-width:1.0;"/></g><!--link MeetingManagementService to PersistenceContext--><g id="link_MeetingManagementService_PersistenceContext"><path codeLine="89" d="M692.46,457.13 C704.17,475.58 714.84,496.19 721,517 C736.39,568.99 740.54,588.42 721,639 C712.79,660.27 697.16,679.66 681.59,695.14 " fill="none" id="MeetingManagementService-to-PersistenceContext" style="stroke:#181818;stroke-width:1.0;"/><polygon fill="#181818" points="677.64,698.99,686.8815,695.5848,681.2252,695.5048,681.3052,689.8485,677.64,698.99" style="stroke:#181818;stroke-width:1.0;"/></g><!--link NotificationAcceptanceService to PersistenceContext--><g id="link_NotificationAcceptanceService_PersistenceContext"><path codeLine="90" d="M564.43,639.27 C579.16,658 594.96,678.07 608.04,694.69 " fill="none" id="NotificationAcceptanceService-to-PersistenceContext" style="stroke:#181818;stroke-width:1.0;"/><polygon fill="#181818" points="611.3,698.84,608.865,689.2969,608.2027,694.9149,602.5848,694.2526,611.3,698.84" style="stroke:#181818;stroke-width:1.0;"/></g><!--link PersistenceContext to RepositoryFactory--><g id="link_PersistenceContext_RepositoryFactory"><path codeLine="91" d="M637,766.22 C637,782.13 637,801.86 637,820.68 " fill="none" id="PersistenceContext-to-RepositoryFactory" style="stroke:#181818;stroke-width:1.0;"/><polygon fill="#181818" points="637,825.96,641,816.96,637,820.96,633,816.96,637,825.96" style="stroke:#181818;stroke-width:1.0;"/></g><!--link RepositoryFactory to ECourseUserRepository--><g id="link_RepositoryFactory_ECourseUserRepository"><path codeLine="94" d="M729.11,923.97 C789.88,947.74 871.23,979.63 943,1008 C952.94,1011.93 963.3,1016.04 973.64,1020.14 " fill="none" id="RepositoryFactory-to-ECourseUserRepository" style="stroke:#181818;stroke-width:1.0;"/><polygon fill="#181818" points="978.39,1022.03,971.5006,1014.9918,973.7427,1020.1854,968.5492,1022.4275,978.39,1022.03" style="stroke:#181818;stroke-width:1.0;"/></g><!--link RepositoryFactory to NotificationRepository--><g id="link_RepositoryFactory_NotificationRepository"><path codeLine="95" d="M544.77,946.85 C515.19,965.73 482.58,986.53 453.57,1005.04 " fill="none" id="RepositoryFactory-to-NotificationRepository" style="stroke:#181818;stroke-width:1.0;"/><polygon fill="#181818" points="449.32,1007.75,459.0559,1006.2629,453.5301,1005.0527,454.7403,999.5268,449.32,1007.75" style="stroke:#181818;stroke-width:1.0;"/></g><!--link RepositoryFactory to MeetingRepository--><g id="link_RepositoryFactory_MeetingRepository"><path codeLine="96" d="M544.95,908.05 C456.15,928.65 318.68,963.92 204,1008 C198.11,1010.26 192.1,1012.76 186.1,1015.38 " fill="none" id="RepositoryFactory-to-MeetingRepository" style="stroke:#181818;stroke-width:1.0;"/><polygon fill="#181818" points="181.52,1017.42,191.3689,1017.4257,186.0902,1015.392,188.124,1010.1133,181.52,1017.42" style="stroke:#181818;stroke-width:1.0;"/></g><!--link RepositoryFactory to ScheduleRepository--><g id="link_RepositoryFactory_ScheduleRepository"><path codeLine="97" d="M637,948.29 C637,972.5 637,999.68 637,1021.04 " fill="none" id="RepositoryFactory-to-ScheduleRepository" style="stroke:#181818;stroke-width:1.0;"/><polygon fill="#181818" points="637,1026.07,641,1017.07,637,1021.07,633,1017.07,637,1026.07" style="stroke:#181818;stroke-width:1.0;"/></g><!--link RepositoryFactory to TimetableRepository--><g id="link_RepositoryFactory_TimetableRepository"><path codeLine="98" d="M710.04,948.05 C740.49,973.08 774.82,1001.31 801.25,1023.03 " fill="none" id="RepositoryFactory-to-TimetableRepository" style="stroke:#181818;stroke-width:1.0;"/><polygon fill="#181818" points="805.42,1026.46,801.028,1017.6446,801.5649,1023.276,795.9336,1023.8128,805.42,1026.46" style="stroke:#181818;stroke-width:1.0;"/></g><!--link NotificationRepository to JPANotificationRepository--><g id="link_NotificationRepository_JPANotificationRepository"><path codeLine="102" d="M367.1,1112.26 C366.46,1129.48 365.75,1148.78 365.1,1166.39 " fill="none" id="NotificationRepository-to-JPANotificationRepository" style="stroke:#181818;stroke-width:1.0;"/><polygon fill="#181818" points="364.9,1171.8,369.2313,1162.9547,365.0856,1166.8034,361.2368,1162.6577,364.9,1171.8" style="stroke:#181818;stroke-width:1.0;"/></g><!--link MeetingRepository to JPAMeetingRepository--><g id="link_MeetingRepository_JPAMeetingRepository"><path codeLine="103" d="M99.94,1102.72 C98.83,1125.21 97.46,1153.02 96.31,1176.24 " fill="none" id="MeetingRepository-to-JPAMeetingRepository" style="stroke:#181818;stroke-width:1.0;"/><polygon fill="#181818" points="96.05,1181.42,100.4819,1172.6247,96.2926,1176.4259,92.4913,1172.2365,96.05,1181.42" style="stroke:#181818;stroke-width:1.0;"/></g><!--link ScheduleRepository to JPAScheduleRepository--><g id="link_ScheduleRepository_JPAScheduleRepository"><path codeLine="104" d="M637,1093.78 C637,1120.24 637,1157.49 637,1185.21 " fill="none" id="ScheduleRepository-to-JPAScheduleRepository" style="stroke:#181818;stroke-width:1.0;"/><polygon fill="#181818" points="637,1190.27,641,1181.27,637,1185.27,633,1181.27,637,1190.27" style="stroke:#181818;stroke-width:1.0;"/></g><!--link TimetableRepository to JPATimetableRepository--><g id="link_TimetableRepository_JPATimetableRepository"><path codeLine="105" d="M847.43,1093.78 C849.39,1120.24 852.15,1157.49 854.2,1185.21 " fill="none" id="TimetableRepository-to-JPATimetableRepository" style="stroke:#181818;stroke-width:1.0;"/><polygon fill="#181818" points="854.58,1190.27,857.9003,1180.9977,854.2085,1185.2838,849.9224,1181.592,854.58,1190.27" style="stroke:#181818;stroke-width:1.0;"/></g><!--link ECourseUserRepository to JPAECourseUserRepository--><g id="link_ECourseUserRepository_JPAECourseUserRepository"><path codeLine="106" d="M1075.64,1102.72 C1078.13,1125.21 1081.22,1153.02 1083.8,1176.24 " fill="none" id="ECourseUserRepository-to-JPAECourseUserRepository" style="stroke:#181818;stroke-width:1.0;"/><polygon fill="#181818" points="1084.38,1181.42,1087.3528,1172.0305,1083.8231,1176.4511,1079.4025,1172.9215,1084.38,1181.42" style="stroke:#181818;stroke-width:1.0;"/></g><!--SRC=[rLRRRkCW47tdAtXqv6q_eL8KRQLTATkgIJ-0ad62XA62II-xwhyNR9FY0gdYRhLQNkmCCtFEp1nCk6JMqWLJ7EGI08NQtee_f9R2ubKpMEpLem9JpKYz0Ga8WxdYUsD0uOoy49xcMMY5Hai9nkLR6608FiLfcUdn5O27k2LJR0kjYro1UH0S73BRuquRyPkXq6emUy03eqQepLpANnf58tZdPY-rMU-4JUZKbZr0zBDdFGgjV84pGXmtGdjsyVwSSxX7twS3HLgVGe7M1bhjMAZ8svjxBYk-WyrUGhKMBQpPdGGwX7uBMzGEBpvgN13nBVMh9tuDnhfgmB7rquGdT0tT0jx0lRO2jNc-PDm_gWydbHsUS3bDmpZG9AC3QllItxRys0BtiHLTiUYB7Pk1wxsnS6l1Z3Reb1NJNRwdLZuoNOE7Klu2SgoH4No7CzR4IRego6hoYaclag45mWSfJeMAOTQf2W8EXjCmkQGOwFiYewi01M-Rhgkw-R5n_HNuN47BXFn4Ir_2iVnvFSy9SAoqWXwd0Hzm_nVvHPI_JdmHo5TABuBv9yBhReHtVn7e-Vb5wRed1JizExietjIajD557Rr17RkZmUajHexcAmMbfiupkReSdyJMUMQdL_3D7xI2S_8rAFYbHw7Wc96p5q6UL1TH_3QGX5pmJrcd_89lXdc6O_3EqSysFmJa9qDU0G00]--></g></svg>