<?xml version="1.0" encoding="us-ascii" standalone="no"?><svg xmlns="http://www.w3.org/2000/svg" xmlns:xlink="http://www.w3.org/1999/xlink" contentStyleType="text/css" height="243px" preserveAspectRatio="none" style="width:236px;height:243px;background:#FFFFFF;" version="1.1" viewBox="0 0 236 243" width="236px" zoomAndPan="magnify"><defs/><g><!--entity Admin--><g id="elem_Admin"><ellipse cx="28.5" cy="14" fill="#F1F1F1" rx="8" ry="8" style="stroke:#181818;stroke-width:0.5;"/><path d="M28.5,22 L28.5,49 M15.5,30 L41.5,30 M28.5,49 L15.5,64 M28.5,49 L41.5,64 " fill="none" style="stroke:#181818;stroke-width:0.5;"/><text fill="#000000" font-family="sans-serif" font-size="14" lengthAdjust="spacing" textLength="45" x="6" y="79.0352">Admin</text></g><g id="elem_Cancel Meeting"><ellipse cx="113.5639" cy="219.8128" fill="#F1F1F1" rx="74.5639" ry="17.3128" style="stroke:#181818;stroke-width:0.5;"/><text fill="#000000" font-family="sans-serif" font-size="14" lengthAdjust="spacing" textLength="105" x="61.0639" y="223.1038">Cancel Meeting</text></g><!--entity Teacher--><g id="elem_Teacher"><ellipse cx="113.5" cy="14" fill="#F1F1F1" rx="8" ry="8" style="stroke:#181818;stroke-width:0.5;"/><path d="M113.5,22 L113.5,49 M100.5,30 L126.5,30 M113.5,49 L100.5,64 M113.5,49 L126.5,64 " fill="none" style="stroke:#181818;stroke-width:0.5;"/><text fill="#000000" font-family="sans-serif" font-size="14" lengthAdjust="spacing" textLength="55" x="86" y="79.0352">Teacher</text></g><!--entity Student--><g id="elem_Student"><ellipse cx="202.5" cy="14" fill="#F1F1F1" rx="8" ry="8" style="stroke:#181818;stroke-width:0.5;"/><path d="M202.5,22 L202.5,49 M189.5,30 L215.5,30 M202.5,49 L189.5,64 M202.5,49 L215.5,64 " fill="none" style="stroke:#181818;stroke-width:0.5;"/><text fill="#000000" font-family="sans-serif" font-size="14" lengthAdjust="spacing" textLength="53" x="176" y="79.0352">Student</text></g><!--link Admin to Cancel Meeting--><g id="link_Admin_Cancel Meeting"><path d="M46.5263,81.507 C63.7555,116.877 89.1248,168.9592 103.1772,197.8079 " fill="none" id="Admin-to-Cancel Meeting" style="stroke:#181818;stroke-width:1.0;"/><polygon fill="#181818" points="105.4986,202.5736,105.1535,192.7308,103.3091,198.0785,97.9613,196.2341,105.4986,202.5736" style="stroke:#181818;stroke-width:1.0;"/></g><!--link Teacher to Cancel Meeting--><g id="link_Teacher_Cancel Meeting"><path d="M113.5,81.507 C113.5,116.543 113.5,167.9755 113.5,196.9831 " fill="none" id="Teacher-to-Cancel Meeting" style="stroke:#181818;stroke-width:1.0;"/><polygon fill="#181818" points="113.5,202.1295,117.5,193.1295,113.5,197.1295,109.5,193.1295,113.5,202.1295" style="stroke:#181818;stroke-width:1.0;"/></g><!--link Student to Cancel Meeting--><g id="link_Student_Cancel Meeting"><path d="M183.625,81.507 C165.585,116.877 139.022,168.9592 124.309,197.8079 " fill="none" id="Student-to-Cancel Meeting" style="stroke:#181818;stroke-width:1.0;"/><polygon fill="#181818" points="121.878,202.5736,129.5303,196.3734,124.1497,198.1194,122.4036,192.7388,121.878,202.5736" style="stroke:#181818;stroke-width:1.0;"/></g><!--SRC=[KyyeAIaejjBNByX9p2ifpStHIyxFrIyjJjLDJWGIAPc9wKM9kLn0u9YIcvcdeAkhQwUWuPoObvoQe-2RcbgIcPUkoHMIcfYSaLg4GpQuf3GbDQy4Xom0]--></g></svg>