<?xml version="1.0" encoding="us-ascii" standalone="no"?><svg xmlns="http://www.w3.org/2000/svg" xmlns:xlink="http://www.w3.org/1999/xlink" contentStyleType="text/css" height="1186px" preserveAspectRatio="none" style="width:1734px;height:1186px;background:#FFFFFF;" version="1.1" viewBox="0 0 1734 1186" width="1734px" zoomAndPan="magnify"><defs/><g><rect fill="#FFFFFF" height="1065.6309" style="stroke:#181818;stroke-width:1.0;" width="10" x="164.5" y="67.7988"/><rect fill="#FFFFFF" height="16.1777" style="stroke:#181818;stroke-width:1.0;" width="10" x="354.5" y="107.1094"/><rect fill="#FFFFFF" height="100.6211" style="stroke:#181818;stroke-width:1.0;" width="10" x="486" y="152.5977"/><rect fill="#FFFFFF" height="100.6211" style="stroke:#181818;stroke-width:1.0;" width="10" x="486" y="932.1875"/><rect fill="#FFFFFF" height="14" style="stroke:#181818;stroke-width:1.0;" width="10" x="833" y="181.9082"/><rect fill="#FFFFFF" height="14" style="stroke:#181818;stroke-width:1.0;" width="10" x="833" y="961.498"/><rect fill="#FFFFFF" height="14" style="stroke:#181818;stroke-width:1.0;" width="10" x="1012.5" y="225.2188"/><rect fill="#FFFFFF" height="14" style="stroke:#181818;stroke-width:1.0;" width="10" x="1012.5" y="1004.8086"/><rect fill="#FFFFFF" height="14" style="stroke:#181818;stroke-width:1.0;" width="10" x="1146.5" y="282.5293"/><rect fill="#FFFFFF" height="14" style="stroke:#181818;stroke-width:1.0;" width="10" x="1222" y="325.8398"/><rect fill="#FFFFFF" height="14" style="stroke:#181818;stroke-width:1.0;" width="10" x="1311.5" y="369.1504"/><rect fill="#FFFFFF" height="14" style="stroke:#181818;stroke-width:1.0;" width="10" x="1311.5" y="412.4609"/><rect fill="#FFFFFF" height="14" style="stroke:#181818;stroke-width:1.0;" width="10" x="1311.5" y="455.7715"/><rect fill="#FFFFFF" height="14" style="stroke:#181818;stroke-width:1.0;" width="10" x="1311.5" y="758.9453"/><rect fill="#FFFFFF" height="14" style="stroke:#181818;stroke-width:1.0;" width="10" x="1311.5" y="845.5664"/><rect fill="#FFFFFF" height="14" style="stroke:#181818;stroke-width:1.0;" width="10" x="1311.5" y="1105.4297"/><rect fill="#FFFFFF" height="14" style="stroke:#181818;stroke-width:1.0;" width="10" x="1387" y="499.082"/><rect fill="#FFFFFF" height="14" style="stroke:#181818;stroke-width:1.0;" width="10" x="1387" y="888.877"/><rect fill="#FFFFFF" height="14" style="stroke:#181818;stroke-width:1.0;" width="10" x="1462" y="542.3926"/><rect fill="#FFFFFF" height="14" style="stroke:#181818;stroke-width:1.0;" width="10" x="1462" y="585.7031"/><rect fill="#FFFFFF" height="14" style="stroke:#181818;stroke-width:1.0;" width="10" x="1462" y="672.3242"/><rect fill="#FFFFFF" height="14" style="stroke:#181818;stroke-width:1.0;" width="10" x="1545" y="629.0137"/><rect fill="#FFFFFF" height="14" style="stroke:#181818;stroke-width:1.0;" width="10" x="1545" y="715.6348"/><rect fill="#FFFFFF" height="14" style="stroke:#181818;stroke-width:1.0;" width="10" x="1616.5" y="802.2559"/><rect fill="#FFFFFF" height="14" style="stroke:#181818;stroke-width:1.0;" width="10" x="1692.5" y="1062.1191"/><line style="stroke:#181818;stroke-width:0.5;stroke-dasharray:5.0,5.0;" x1="30" x2="30" y1="36.4883" y2="1151.4297"/><line style="stroke:#181818;stroke-width:0.5;stroke-dasharray:5.0,5.0;" x1="169" x2="169" y1="36.4883" y2="1151.4297"/><line style="stroke:#181818;stroke-width:0.5;stroke-dasharray:5.0,5.0;" x1="359.5" x2="359.5" y1="106.543" y2="1151.4297"/><line style="stroke:#181818;stroke-width:0.5;stroke-dasharray:5.0,5.0;" x1="490.5" x2="490.5" y1="36.4883" y2="1151.4297"/><line style="stroke:#181818;stroke-width:0.5;stroke-dasharray:5.0,5.0;" x1="837.5" x2="837.5" y1="36.4883" y2="1151.4297"/><line style="stroke:#181818;stroke-width:0.5;stroke-dasharray:5.0,5.0;" x1="1017.5" x2="1017.5" y1="36.4883" y2="1151.4297"/><line style="stroke:#181818;stroke-width:0.5;stroke-dasharray:5.0,5.0;" x1="1151.5" x2="1151.5" y1="36.4883" y2="1151.4297"/><line style="stroke:#181818;stroke-width:0.5;stroke-dasharray:5.0,5.0;" x1="1226.5" x2="1226.5" y1="36.4883" y2="1151.4297"/><line style="stroke:#181818;stroke-width:0.5;stroke-dasharray:5.0,5.0;" x1="1316.5" x2="1316.5" y1="36.4883" y2="1151.4297"/><line style="stroke:#181818;stroke-width:0.5;stroke-dasharray:5.0,5.0;" x1="1391.5" x2="1391.5" y1="36.4883" y2="1151.4297"/><line style="stroke:#181818;stroke-width:0.5;stroke-dasharray:5.0,5.0;" x1="1466.5" x2="1466.5" y1="36.4883" y2="1151.4297"/><line style="stroke:#181818;stroke-width:0.5;stroke-dasharray:5.0,5.0;" x1="1549.5" x2="1549.5" y1="36.4883" y2="1151.4297"/><line style="stroke:#181818;stroke-width:0.5;stroke-dasharray:5.0,5.0;" x1="1621.5" x2="1621.5" y1="36.4883" y2="1151.4297"/><line style="stroke:#181818;stroke-width:0.5;stroke-dasharray:5.0,5.0;" x1="1697.5" x2="1697.5" y1="36.4883" y2="1151.4297"/><rect fill="#E2E2F0" height="30.4883" rx="2.5" ry="2.5" style="stroke:#181818;stroke-width:0.5;" width="51" x="5" y="5"/><text fill="#000000" font-family="sans-serif" font-size="14" lengthAdjust="spacing" textLength="37" x="12" y="25.5352">Actor</text><rect fill="#E2E2F0" height="30.4883" rx="2.5" ry="2.5" style="stroke:#181818;stroke-width:0.5;" width="51" x="5" y="1150.4297"/><text fill="#000000" font-family="sans-serif" font-size="14" lengthAdjust="spacing" textLength="37" x="12" y="1170.9648">Actor</text><rect fill="#E2E2F0" height="30.4883" rx="2.5" ry="2.5" style="stroke:#181818;stroke-width:0.5;" width="113" x="113" y="5"/><text fill="#000000" font-family="sans-serif" font-size="14" lengthAdjust="spacing" textLength="99" x="120" y="25.5352">ActivateUserUI</text><rect fill="#E2E2F0" height="30.4883" rx="2.5" ry="2.5" style="stroke:#181818;stroke-width:0.5;" width="113" x="113" y="1150.4297"/><text fill="#000000" font-family="sans-serif" font-size="14" lengthAdjust="spacing" textLength="99" x="120" y="1170.9648">ActivateUserUI</text><rect fill="#E2E2F0" height="30.4883" rx="2.5" ry="2.5" style="stroke:#181818;stroke-width:0.5;" width="74" x="322.5" y="1150.4297"/><text fill="#000000" font-family="sans-serif" font-size="14" lengthAdjust="spacing" textLength="60" x="329.5" y="1170.9648">ArrayList</text><rect fill="#E2E2F0" height="30.4883" rx="2.5" ry="2.5" style="stroke:#181818;stroke-width:0.5;" width="169" x="406.5" y="5"/><text fill="#000000" font-family="sans-serif" font-size="14" lengthAdjust="spacing" textLength="155" x="413.5" y="25.5352">ActivateUserController</text><rect fill="#E2E2F0" height="30.4883" rx="2.5" ry="2.5" style="stroke:#181818;stroke-width:0.5;" width="169" x="406.5" y="1150.4297"/><text fill="#000000" font-family="sans-serif" font-size="14" lengthAdjust="spacing" textLength="155" x="413.5" y="1170.9648">ActivateUserController</text><rect fill="#E2E2F0" height="30.4883" rx="2.5" ry="2.5" style="stroke:#181818;stroke-width:0.5;" width="157" x="759.5" y="5"/><text fill="#000000" font-family="sans-serif" font-size="14" lengthAdjust="spacing" textLength="143" x="766.5" y="25.5352">AuthorizationService</text><rect fill="#E2E2F0" height="30.4883" rx="2.5" ry="2.5" style="stroke:#181818;stroke-width:0.5;" width="157" x="759.5" y="1150.4297"/><text fill="#000000" font-family="sans-serif" font-size="14" lengthAdjust="spacing" textLength="143" x="766.5" y="1170.9648">AuthorizationService</text><rect fill="#E2E2F0" height="30.4883" rx="2.5" ry="2.5" style="stroke:#181818;stroke-width:0.5;" width="182" x="926.5" y="5"/><text fill="#000000" font-family="sans-serif" font-size="14" lengthAdjust="spacing" textLength="168" x="933.5" y="25.5352">UserManagementService</text><rect fill="#E2E2F0" height="30.4883" rx="2.5" ry="2.5" style="stroke:#181818;stroke-width:0.5;" width="182" x="926.5" y="1150.4297"/><text fill="#000000" font-family="sans-serif" font-size="14" lengthAdjust="spacing" textLength="168" x="933.5" y="1170.9648">UserManagementService</text><rect fill="#E2E2F0" height="30.4883" rx="2.5" ry="2.5" style="stroke:#181818;stroke-width:0.5;" width="66" x="1118.5" y="5"/><text fill="#000000" font-family="sans-serif" font-size="14" lengthAdjust="spacing" textLength="52" x="1125.5" y="25.5352">Iterable</text><rect fill="#E2E2F0" height="30.4883" rx="2.5" ry="2.5" style="stroke:#181818;stroke-width:0.5;" width="66" x="1118.5" y="1150.4297"/><text fill="#000000" font-family="sans-serif" font-size="14" lengthAdjust="spacing" textLength="52" x="1125.5" y="1170.9648">Iterable</text><rect fill="#E2E2F0" height="30.4883" rx="2.5" ry="2.5" style="stroke:#181818;stroke-width:0.5;" width="65" x="1194.5" y="5"/><text fill="#000000" font-family="sans-serif" font-size="14" lengthAdjust="spacing" textLength="51" x="1201.5" y="25.5352">Iterator</text><rect fill="#E2E2F0" height="30.4883" rx="2.5" ry="2.5" style="stroke:#181818;stroke-width:0.5;" width="65" x="1194.5" y="1150.4297"/><text fill="#000000" font-family="sans-serif" font-size="14" lengthAdjust="spacing" textLength="51" x="1201.5" y="1170.9648">Iterator</text><rect fill="#E2E2F0" height="30.4883" rx="2.5" ry="2.5" style="stroke:#181818;stroke-width:0.5;" width="94" x="1269.5" y="5"/><text fill="#000000" font-family="sans-serif" font-size="14" lengthAdjust="spacing" textLength="80" x="1276.5" y="25.5352">PrintStream</text><rect fill="#E2E2F0" height="30.4883" rx="2.5" ry="2.5" style="stroke:#181818;stroke-width:0.5;" width="94" x="1269.5" y="1150.4297"/><text fill="#000000" font-family="sans-serif" font-size="14" lengthAdjust="spacing" textLength="80" x="1276.5" y="1170.9648">PrintStream</text><rect fill="#E2E2F0" height="30.4883" rx="2.5" ry="2.5" style="stroke:#181818;stroke-width:0.5;" width="37" x="1373.5" y="5"/><text fill="#000000" font-family="sans-serif" font-size="14" lengthAdjust="spacing" textLength="23" x="1380.5" y="25.5352">List</text><rect fill="#E2E2F0" height="30.4883" rx="2.5" ry="2.5" style="stroke:#181818;stroke-width:0.5;" width="37" x="1373.5" y="1150.4297"/><text fill="#000000" font-family="sans-serif" font-size="14" lengthAdjust="spacing" textLength="23" x="1380.5" y="1170.9648">List</text><rect fill="#E2E2F0" height="30.4883" rx="2.5" ry="2.5" style="stroke:#181818;stroke-width:0.5;" width="93" x="1420.5" y="5"/><text fill="#000000" font-family="sans-serif" font-size="14" lengthAdjust="spacing" textLength="79" x="1427.5" y="25.5352">SystemUser</text><rect fill="#E2E2F0" height="30.4883" rx="2.5" ry="2.5" style="stroke:#181818;stroke-width:0.5;" width="93" x="1420.5" y="1150.4297"/><text fill="#000000" font-family="sans-serif" font-size="14" lengthAdjust="spacing" textLength="79" x="1427.5" y="1170.9648">SystemUser</text><rect fill="#E2E2F0" height="30.4883" rx="2.5" ry="2.5" style="stroke:#181818;stroke-width:0.5;" width="53" x="1523.5" y="5"/><text fill="#000000" font-family="sans-serif" font-size="14" lengthAdjust="spacing" textLength="39" x="1530.5" y="25.5352">Name</text><rect fill="#E2E2F0" height="30.4883" rx="2.5" ry="2.5" style="stroke:#181818;stroke-width:0.5;" width="53" x="1523.5" y="1150.4297"/><text fill="#000000" font-family="sans-serif" font-size="14" lengthAdjust="spacing" textLength="39" x="1530.5" y="1170.9648">Name</text><rect fill="#E2E2F0" height="30.4883" rx="2.5" ry="2.5" style="stroke:#181818;stroke-width:0.5;" width="70" x="1586.5" y="5"/><text fill="#000000" font-family="sans-serif" font-size="14" lengthAdjust="spacing" textLength="56" x="1593.5" y="25.5352">Console</text><rect fill="#E2E2F0" height="30.4883" rx="2.5" ry="2.5" style="stroke:#181818;stroke-width:0.5;" width="70" x="1586.5" y="1150.4297"/><text fill="#000000" font-family="sans-serif" font-size="14" lengthAdjust="spacing" textLength="56" x="1593.5" y="1170.9648">Console</text><rect fill="#E2E2F0" height="30.4883" rx="2.5" ry="2.5" style="stroke:#181818;stroke-width:0.5;" width="62" x="1666.5" y="5"/><text fill="#000000" font-family="sans-serif" font-size="14" lengthAdjust="spacing" textLength="48" x="1673.5" y="25.5352">Logger</text><rect fill="#E2E2F0" height="30.4883" rx="2.5" ry="2.5" style="stroke:#181818;stroke-width:0.5;" width="62" x="1666.5" y="1150.4297"/><text fill="#000000" font-family="sans-serif" font-size="14" lengthAdjust="spacing" textLength="48" x="1673.5" y="1170.9648">Logger</text><rect fill="#FFFFFF" height="1065.6309" style="stroke:#181818;stroke-width:1.0;" width="10" x="164.5" y="67.7988"/><rect fill="#FFFFFF" height="16.1777" style="stroke:#181818;stroke-width:1.0;" width="10" x="354.5" y="107.1094"/><rect fill="#FFFFFF" height="100.6211" style="stroke:#181818;stroke-width:1.0;" width="10" x="486" y="152.5977"/><rect fill="#FFFFFF" height="100.6211" style="stroke:#181818;stroke-width:1.0;" width="10" x="486" y="932.1875"/><rect fill="#FFFFFF" height="14" style="stroke:#181818;stroke-width:1.0;" width="10" x="833" y="181.9082"/><rect fill="#FFFFFF" height="14" style="stroke:#181818;stroke-width:1.0;" width="10" x="833" y="961.498"/><rect fill="#FFFFFF" height="14" style="stroke:#181818;stroke-width:1.0;" width="10" x="1012.5" y="225.2188"/><rect fill="#FFFFFF" height="14" style="stroke:#181818;stroke-width:1.0;" width="10" x="1012.5" y="1004.8086"/><rect fill="#FFFFFF" height="14" style="stroke:#181818;stroke-width:1.0;" width="10" x="1146.5" y="282.5293"/><rect fill="#FFFFFF" height="14" style="stroke:#181818;stroke-width:1.0;" width="10" x="1222" y="325.8398"/><rect fill="#FFFFFF" height="14" style="stroke:#181818;stroke-width:1.0;" width="10" x="1311.5" y="369.1504"/><rect fill="#FFFFFF" height="14" style="stroke:#181818;stroke-width:1.0;" width="10" x="1311.5" y="412.4609"/><rect fill="#FFFFFF" height="14" style="stroke:#181818;stroke-width:1.0;" width="10" x="1311.5" y="455.7715"/><rect fill="#FFFFFF" height="14" style="stroke:#181818;stroke-width:1.0;" width="10" x="1311.5" y="758.9453"/><rect fill="#FFFFFF" height="14" style="stroke:#181818;stroke-width:1.0;" width="10" x="1311.5" y="845.5664"/><rect fill="#FFFFFF" height="14" style="stroke:#181818;stroke-width:1.0;" width="10" x="1311.5" y="1105.4297"/><rect fill="#FFFFFF" height="14" style="stroke:#181818;stroke-width:1.0;" width="10" x="1387" y="499.082"/><rect fill="#FFFFFF" height="14" style="stroke:#181818;stroke-width:1.0;" width="10" x="1387" y="888.877"/><rect fill="#FFFFFF" height="14" style="stroke:#181818;stroke-width:1.0;" width="10" x="1462" y="542.3926"/><rect fill="#FFFFFF" height="14" style="stroke:#181818;stroke-width:1.0;" width="10" x="1462" y="585.7031"/><rect fill="#FFFFFF" height="14" style="stroke:#181818;stroke-width:1.0;" width="10" x="1462" y="672.3242"/><rect fill="#FFFFFF" height="14" style="stroke:#181818;stroke-width:1.0;" width="10" x="1545" y="629.0137"/><rect fill="#FFFFFF" height="14" style="stroke:#181818;stroke-width:1.0;" width="10" x="1545" y="715.6348"/><rect fill="#FFFFFF" height="14" style="stroke:#181818;stroke-width:1.0;" width="10" x="1616.5" y="802.2559"/><rect fill="#FFFFFF" height="14" style="stroke:#181818;stroke-width:1.0;" width="10" x="1692.5" y="1062.1191"/><polygon fill="#181818" points="152.5,63.7988,162.5,67.7988,152.5,71.7988,156.5,67.7988" style="stroke:#181818;stroke-width:1.0;"/><line style="stroke:#181818;stroke-width:1.0;" x1="30.5" x2="158.5" y1="67.7988" y2="67.7988"/><text fill="#000000" font-family="sans-serif" font-size="13" lengthAdjust="spacing" textLength="115" x="37.5" y="63.0566">doShow(): boolean</text><polygon fill="#181818" points="310.5,93.1094,320.5,97.1094,310.5,101.1094,314.5,97.1094" style="stroke:#181818;stroke-width:1.0;"/><line style="stroke:#181818;stroke-width:1.0;" x1="174.5" x2="316.5" y1="97.1094" y2="97.1094"/><text fill="#000000" font-family="sans-serif" font-size="13" lengthAdjust="spacing" textLength="124" x="181.5" y="92.3672">&#171;create&#187;(): ArrayList</text><rect fill="#E2E2F0" height="30.4883" rx="2.5" ry="2.5" style="stroke:#181818;stroke-width:0.5;" width="74" x="322.5" y="75.7988"/><text fill="#000000" font-family="sans-serif" font-size="14" lengthAdjust="spacing" textLength="60" x="329.5" y="96.334">ArrayList</text><polygon fill="#181818" points="185.5,119.2871,175.5,123.2871,185.5,127.2871,181.5,123.2871" style="stroke:#181818;stroke-width:1.0;"/><line style="stroke:#181818;stroke-width:1.0;stroke-dasharray:2.0,2.0;" x1="179.5" x2="358.5" y1="123.2871" y2="123.2871"/><polygon fill="#181818" points="474,148.5977,484,152.5977,474,156.5977,478,152.5977" style="stroke:#181818;stroke-width:1.0;"/><line style="stroke:#181818;stroke-width:1.0;" x1="174.5" x2="480" y1="152.5977" y2="152.5977"/><text fill="#000000" font-family="sans-serif" font-size="13" lengthAdjust="spacing" textLength="251" x="181.5" y="147.8555">deactivedUsers(): Iterable&lt;SystemUser&gt;</text><polygon fill="#181818" points="821,177.9082,831,181.9082,821,185.9082,825,181.9082" style="stroke:#181818;stroke-width:1.0;"/><line style="stroke:#181818;stroke-width:1.0;" x1="496" x2="827" y1="181.9082" y2="181.9082"/><text fill="#000000" font-family="sans-serif" font-size="13" lengthAdjust="spacing" textLength="318" x="503" y="177.166">ensureAuthenticatedUserHasAnyOf(actions: ): void</text><polygon fill="#181818" points="507,191.9082,497,195.9082,507,199.9082,503,195.9082" style="stroke:#181818;stroke-width:1.0;"/><line style="stroke:#181818;stroke-width:1.0;stroke-dasharray:2.0,2.0;" x1="501" x2="837" y1="195.9082" y2="195.9082"/><polygon fill="#181818" points="1000.5,221.2188,1010.5,225.2188,1000.5,229.2188,1004.5,225.2188" style="stroke:#181818;stroke-width:1.0;"/><line style="stroke:#181818;stroke-width:1.0;" x1="496" x2="1006.5" y1="225.2188" y2="225.2188"/><text fill="#000000" font-family="sans-serif" font-size="13" lengthAdjust="spacing" textLength="263" x="503" y="220.4766">deactivatedUsers(): Iterable&lt;SystemUser&gt;</text><polygon fill="#181818" points="507,235.2188,497,239.2188,507,243.2188,503,239.2188" style="stroke:#181818;stroke-width:1.0;"/><line style="stroke:#181818;stroke-width:1.0;stroke-dasharray:2.0,2.0;" x1="501" x2="1016.5" y1="239.2188" y2="239.2188"/><polygon fill="#181818" points="185.5,249.2188,175.5,253.2188,185.5,257.2188,181.5,253.2188" style="stroke:#181818;stroke-width:1.0;"/><line style="stroke:#181818;stroke-width:1.0;stroke-dasharray:2.0,2.0;" x1="179.5" x2="490" y1="253.2188" y2="253.2188"/><polygon fill="#181818" points="1134.5,278.5293,1144.5,282.5293,1134.5,286.5293,1138.5,282.5293" style="stroke:#181818;stroke-width:1.0;"/><line style="stroke:#181818;stroke-width:1.0;" x1="174.5" x2="1140.5" y1="282.5293" y2="282.5293"/><text fill="#000000" font-family="sans-serif" font-size="13" lengthAdjust="spacing" textLength="136" x="181.5" y="277.7871">iterator(): Iterator&lt;T&gt;</text><polygon fill="#181818" points="185.5,292.5293,175.5,296.5293,185.5,300.5293,181.5,296.5293" style="stroke:#181818;stroke-width:1.0;"/><line style="stroke:#181818;stroke-width:1.0;stroke-dasharray:2.0,2.0;" x1="179.5" x2="1150.5" y1="296.5293" y2="296.5293"/><polygon fill="#181818" points="1210,321.8398,1220,325.8398,1210,329.8398,1214,325.8398" style="stroke:#181818;stroke-width:1.0;"/><line style="stroke:#181818;stroke-width:1.0;" x1="174.5" x2="1216" y1="325.8398" y2="325.8398"/><text fill="#000000" font-family="sans-serif" font-size="13" lengthAdjust="spacing" textLength="118" x="181.5" y="321.0977">hasNext(): boolean</text><polygon fill="#181818" points="185.5,335.8398,175.5,339.8398,185.5,343.8398,181.5,339.8398" style="stroke:#181818;stroke-width:1.0;"/><line style="stroke:#181818;stroke-width:1.0;stroke-dasharray:2.0,2.0;" x1="179.5" x2="1226" y1="339.8398" y2="339.8398"/><polygon fill="#181818" points="1299.5,365.1504,1309.5,369.1504,1299.5,373.1504,1303.5,369.1504" style="stroke:#181818;stroke-width:1.0;"/><line style="stroke:#181818;stroke-width:1.0;" x1="174.5" x2="1305.5" y1="369.1504" y2="369.1504"/><text fill="#000000" font-family="sans-serif" font-size="13" lengthAdjust="spacing" textLength="138" x="181.5" y="364.4082">println(x: String): void</text><polygon fill="#181818" points="185.5,379.1504,175.5,383.1504,185.5,387.1504,181.5,383.1504" style="stroke:#181818;stroke-width:1.0;"/><line style="stroke:#181818;stroke-width:1.0;stroke-dasharray:2.0,2.0;" x1="179.5" x2="1315.5" y1="383.1504" y2="383.1504"/><polygon fill="#181818" points="1299.5,408.4609,1309.5,412.4609,1299.5,416.4609,1303.5,412.4609" style="stroke:#181818;stroke-width:1.0;"/><line style="stroke:#181818;stroke-width:1.0;" x1="174.5" x2="1305.5" y1="412.4609" y2="412.4609"/><text fill="#000000" font-family="sans-serif" font-size="13" lengthAdjust="spacing" textLength="138" x="181.5" y="407.7188">println(x: String): void</text><polygon fill="#181818" points="185.5,422.4609,175.5,426.4609,185.5,430.4609,181.5,426.4609" style="stroke:#181818;stroke-width:1.0;"/><line style="stroke:#181818;stroke-width:1.0;stroke-dasharray:2.0,2.0;" x1="179.5" x2="1315.5" y1="426.4609" y2="426.4609"/><polygon fill="#181818" points="1299.5,451.7715,1309.5,455.7715,1299.5,459.7715,1303.5,455.7715" style="stroke:#181818;stroke-width:1.0;"/><line style="stroke:#181818;stroke-width:1.0;" x1="174.5" x2="1305.5" y1="455.7715" y2="455.7715"/><text fill="#000000" font-family="sans-serif" font-size="13" lengthAdjust="spacing" textLength="253" x="181.5" y="451.0293">printf(format: String, args: ): PrintStream</text><polygon fill="#181818" points="185.5,465.7715,175.5,469.7715,185.5,473.7715,181.5,469.7715" style="stroke:#181818;stroke-width:1.0;"/><line style="stroke:#181818;stroke-width:1.0;stroke-dasharray:2.0,2.0;" x1="179.5" x2="1315.5" y1="469.7715" y2="469.7715"/><polygon fill="#181818" points="1375,495.082,1385,499.082,1375,503.082,1379,499.082" style="stroke:#181818;stroke-width:1.0;"/><line style="stroke:#181818;stroke-width:1.0;" x1="174.5" x2="1381" y1="499.082" y2="499.082"/><text fill="#000000" font-family="sans-serif" font-size="13" lengthAdjust="spacing" textLength="111" x="181.5" y="494.3398">add(e: E): boolean</text><polygon fill="#181818" points="185.5,509.082,175.5,513.082,185.5,517.082,181.5,513.082" style="stroke:#181818;stroke-width:1.0;"/><line style="stroke:#181818;stroke-width:1.0;stroke-dasharray:2.0,2.0;" x1="179.5" x2="1391" y1="513.082" y2="513.082"/><polygon fill="#181818" points="1450,538.3926,1460,542.3926,1450,546.3926,1454,542.3926" style="stroke:#181818;stroke-width:1.0;"/><line style="stroke:#181818;stroke-width:1.0;" x1="174.5" x2="1456" y1="542.3926" y2="542.3926"/><text fill="#000000" font-family="sans-serif" font-size="13" lengthAdjust="spacing" textLength="139" x="181.5" y="537.6504">username(): Username</text><polygon fill="#181818" points="185.5,552.3926,175.5,556.3926,185.5,560.3926,181.5,556.3926" style="stroke:#181818;stroke-width:1.0;"/><line style="stroke:#181818;stroke-width:1.0;stroke-dasharray:2.0,2.0;" x1="179.5" x2="1466" y1="556.3926" y2="556.3926"/><polygon fill="#181818" points="1450,581.7031,1460,585.7031,1450,589.7031,1454,585.7031" style="stroke:#181818;stroke-width:1.0;"/><line style="stroke:#181818;stroke-width:1.0;" x1="174.5" x2="1456" y1="585.7031" y2="585.7031"/><text fill="#000000" font-family="sans-serif" font-size="13" lengthAdjust="spacing" textLength="86" x="181.5" y="580.9609">name(): Name</text><polygon fill="#181818" points="185.5,595.7031,175.5,599.7031,185.5,603.7031,181.5,599.7031" style="stroke:#181818;stroke-width:1.0;"/><line style="stroke:#181818;stroke-width:1.0;stroke-dasharray:2.0,2.0;" x1="179.5" x2="1466" y1="599.7031" y2="599.7031"/><polygon fill="#181818" points="1533,625.0137,1543,629.0137,1533,633.0137,1537,629.0137" style="stroke:#181818;stroke-width:1.0;"/><line style="stroke:#181818;stroke-width:1.0;" x1="174.5" x2="1539" y1="629.0137" y2="629.0137"/><text fill="#000000" font-family="sans-serif" font-size="13" lengthAdjust="spacing" textLength="115" x="181.5" y="624.2715">firstName(): String</text><polygon fill="#181818" points="185.5,639.0137,175.5,643.0137,185.5,647.0137,181.5,643.0137" style="stroke:#181818;stroke-width:1.0;"/><line style="stroke:#181818;stroke-width:1.0;stroke-dasharray:2.0,2.0;" x1="179.5" x2="1549" y1="643.0137" y2="643.0137"/><polygon fill="#181818" points="1450,668.3242,1460,672.3242,1450,676.3242,1454,672.3242" style="stroke:#181818;stroke-width:1.0;"/><line style="stroke:#181818;stroke-width:1.0;" x1="174.5" x2="1456" y1="672.3242" y2="672.3242"/><text fill="#000000" font-family="sans-serif" font-size="13" lengthAdjust="spacing" textLength="86" x="181.5" y="667.582">name(): Name</text><polygon fill="#181818" points="185.5,682.3242,175.5,686.3242,185.5,690.3242,181.5,686.3242" style="stroke:#181818;stroke-width:1.0;"/><line style="stroke:#181818;stroke-width:1.0;stroke-dasharray:2.0,2.0;" x1="179.5" x2="1466" y1="686.3242" y2="686.3242"/><polygon fill="#181818" points="1533,711.6348,1543,715.6348,1533,719.6348,1537,715.6348" style="stroke:#181818;stroke-width:1.0;"/><line style="stroke:#181818;stroke-width:1.0;" x1="174.5" x2="1539" y1="715.6348" y2="715.6348"/><text fill="#000000" font-family="sans-serif" font-size="13" lengthAdjust="spacing" textLength="112" x="181.5" y="710.8926">lastName(): String</text><polygon fill="#181818" points="185.5,725.6348,175.5,729.6348,185.5,733.6348,181.5,729.6348" style="stroke:#181818;stroke-width:1.0;"/><line style="stroke:#181818;stroke-width:1.0;stroke-dasharray:2.0,2.0;" x1="179.5" x2="1549" y1="729.6348" y2="729.6348"/><polygon fill="#181818" points="1299.5,754.9453,1309.5,758.9453,1299.5,762.9453,1303.5,758.9453" style="stroke:#181818;stroke-width:1.0;"/><line style="stroke:#181818;stroke-width:1.0;" x1="174.5" x2="1305.5" y1="758.9453" y2="758.9453"/><text fill="#000000" font-family="sans-serif" font-size="13" lengthAdjust="spacing" textLength="253" x="181.5" y="754.2031">printf(format: String, args: ): PrintStream</text><polygon fill="#181818" points="185.5,768.9453,175.5,772.9453,185.5,776.9453,181.5,772.9453" style="stroke:#181818;stroke-width:1.0;"/><line style="stroke:#181818;stroke-width:1.0;stroke-dasharray:2.0,2.0;" x1="179.5" x2="1315.5" y1="772.9453" y2="772.9453"/><polygon fill="#181818" points="1604.5,798.2559,1614.5,802.2559,1604.5,806.2559,1608.5,802.2559" style="stroke:#181818;stroke-width:1.0;"/><line style="stroke:#181818;stroke-width:1.0;" x1="174.5" x2="1610.5" y1="802.2559" y2="802.2559"/><text fill="#000000" font-family="sans-serif" font-size="13" lengthAdjust="spacing" textLength="195" x="181.5" y="797.5137">readInteger(prompt: String): int</text><polygon fill="#181818" points="185.5,812.2559,175.5,816.2559,185.5,820.2559,181.5,816.2559" style="stroke:#181818;stroke-width:1.0;"/><line style="stroke:#181818;stroke-width:1.0;stroke-dasharray:2.0,2.0;" x1="179.5" x2="1620.5" y1="816.2559" y2="816.2559"/><polygon fill="#181818" points="1299.5,841.5664,1309.5,845.5664,1299.5,849.5664,1303.5,845.5664" style="stroke:#181818;stroke-width:1.0;"/><line style="stroke:#181818;stroke-width:1.0;" x1="174.5" x2="1305.5" y1="845.5664" y2="845.5664"/><text fill="#000000" font-family="sans-serif" font-size="13" lengthAdjust="spacing" textLength="138" x="181.5" y="840.8242">println(x: String): void</text><polygon fill="#181818" points="185.5,855.5664,175.5,859.5664,185.5,863.5664,181.5,859.5664" style="stroke:#181818;stroke-width:1.0;"/><line style="stroke:#181818;stroke-width:1.0;stroke-dasharray:2.0,2.0;" x1="179.5" x2="1315.5" y1="859.5664" y2="859.5664"/><polygon fill="#181818" points="1375,884.877,1385,888.877,1375,892.877,1379,888.877" style="stroke:#181818;stroke-width:1.0;"/><line style="stroke:#181818;stroke-width:1.0;" x1="174.5" x2="1381" y1="888.877" y2="888.877"/><text fill="#000000" font-family="sans-serif" font-size="13" lengthAdjust="spacing" textLength="103" x="181.5" y="884.1348">get(index: int): E</text><polygon fill="#181818" points="185.5,898.877,175.5,902.877,185.5,906.877,181.5,902.877" style="stroke:#181818;stroke-width:1.0;"/><line style="stroke:#181818;stroke-width:1.0;stroke-dasharray:2.0,2.0;" x1="179.5" x2="1391" y1="902.877" y2="902.877"/><polygon fill="#181818" points="474,928.1875,484,932.1875,474,936.1875,478,932.1875" style="stroke:#181818;stroke-width:1.0;"/><line style="stroke:#181818;stroke-width:1.0;" x1="174.5" x2="480" y1="932.1875" y2="932.1875"/><text fill="#000000" font-family="sans-serif" font-size="13" lengthAdjust="spacing" textLength="274" x="181.5" y="927.4453">activateUser(user: SystemUser): SystemUser</text><polygon fill="#181818" points="821,957.498,831,961.498,821,965.498,825,961.498" style="stroke:#181818;stroke-width:1.0;"/><line style="stroke:#181818;stroke-width:1.0;" x1="496" x2="827" y1="961.498" y2="961.498"/><text fill="#000000" font-family="sans-serif" font-size="13" lengthAdjust="spacing" textLength="318" x="503" y="956.7559">ensureAuthenticatedUserHasAnyOf(actions: ): void</text><polygon fill="#181818" points="507,971.498,497,975.498,507,979.498,503,975.498" style="stroke:#181818;stroke-width:1.0;"/><line style="stroke:#181818;stroke-width:1.0;stroke-dasharray:2.0,2.0;" x1="501" x2="837" y1="975.498" y2="975.498"/><polygon fill="#181818" points="1000.5,1000.8086,1010.5,1004.8086,1000.5,1008.8086,1004.5,1004.8086" style="stroke:#181818;stroke-width:1.0;"/><line style="stroke:#181818;stroke-width:1.0;" x1="496" x2="1006.5" y1="1004.8086" y2="1004.8086"/><text fill="#000000" font-family="sans-serif" font-size="13" lengthAdjust="spacing" textLength="274" x="503" y="1000.0664">activateUser(user: SystemUser): SystemUser</text><polygon fill="#181818" points="507,1014.8086,497,1018.8086,507,1022.8086,503,1018.8086" style="stroke:#181818;stroke-width:1.0;"/><line style="stroke:#181818;stroke-width:1.0;stroke-dasharray:2.0,2.0;" x1="501" x2="1016.5" y1="1018.8086" y2="1018.8086"/><polygon fill="#181818" points="185.5,1028.8086,175.5,1032.8086,185.5,1036.8086,181.5,1032.8086" style="stroke:#181818;stroke-width:1.0;"/><line style="stroke:#181818;stroke-width:1.0;stroke-dasharray:2.0,2.0;" x1="179.5" x2="490" y1="1032.8086" y2="1032.8086"/><polygon fill="#181818" points="1680.5,1058.1191,1690.5,1062.1191,1680.5,1066.1191,1684.5,1062.1191" style="stroke:#181818;stroke-width:1.0;"/><line style="stroke:#181818;stroke-width:1.0;" x1="174.5" x2="1686.5" y1="1062.1191" y2="1062.1191"/><text fill="#000000" font-family="sans-serif" font-size="13" lengthAdjust="spacing" textLength="268" x="181.5" y="1057.377">error(s: String, throwable: Throwable): void</text><polygon fill="#181818" points="185.5,1072.1191,175.5,1076.1191,185.5,1080.1191,181.5,1076.1191" style="stroke:#181818;stroke-width:1.0;"/><line style="stroke:#181818;stroke-width:1.0;stroke-dasharray:2.0,2.0;" x1="179.5" x2="1696.5" y1="1076.1191" y2="1076.1191"/><polygon fill="#181818" points="1299.5,1101.4297,1309.5,1105.4297,1299.5,1109.4297,1303.5,1105.4297" style="stroke:#181818;stroke-width:1.0;"/><line style="stroke:#181818;stroke-width:1.0;" x1="174.5" x2="1305.5" y1="1105.4297" y2="1105.4297"/><text fill="#000000" font-family="sans-serif" font-size="13" lengthAdjust="spacing" textLength="138" x="181.5" y="1100.6875">println(x: String): void</text><polygon fill="#181818" points="185.5,1115.4297,175.5,1119.4297,185.5,1123.4297,181.5,1119.4297" style="stroke:#181818;stroke-width:1.0;"/><line style="stroke:#181818;stroke-width:1.0;stroke-dasharray:2.0,2.0;" x1="179.5" x2="1315.5" y1="1119.4297" y2="1119.4297"/><polygon fill="#181818" points="41.5,1129.4297,31.5,1133.4297,41.5,1137.4297,37.5,1133.4297" style="stroke:#181818;stroke-width:1.0;"/><line style="stroke:#181818;stroke-width:1.0;stroke-dasharray:2.0,2.0;" x1="35.5" x2="168.5" y1="1133.4297" y2="1133.4297"/><!--SRC=[xLPHYjim4FtNAVJfXUO29WIMij30DYraSm1jF744jcH6IZRfwJkIxKXDP2UK1jBIdqIMvhqt8yqCqmYqSYqReIn_NbkDpF_ooSnzohsmi3A0gpdFUQ6NM_sHFUNyNUiAX6AYCpcpPMi4luieZg_IM7R6vTZxCoAUJbl0RER80ohG1w8JR7BX8YiWXRYKZdO-QsLHLnMW2x35G-5EZFDbRW75UmNJvT5OgDt-B1rr8683_4vvPxSQvGzXfLPBmBrS0-c2CZi4TmYANeEWteClmZohuxTDvWIrCZadZ_PQ5f472KAML9aC1lxBjINv1kDnEr-54YNKv7a8A33UUfL99fRclosKDEDGBEF9TFsTsypgOwGha6v9bNGAdTRJjoZYtfQTGEDEdEm7P5tLvdmhp08EDbcalHaxsT-WsBM4CyNlAEbEBLLjJQAD-wfKTiWvxKbLNkHfPCzYxBW3CUglyM6JRJJMmlP-VE82oxPsOwwxkjNrLL4K6UJy9PKClZVUq4W7UcWeOjBPqPyIDRYiMtNhe1HCMOGQLuqmLxHxtSLzDHqzgMqa6hle9Dlt3QBU1MyuBkJj7YgiIjmjgWUj46hZHlj6JGR5N5ae0RC6TTtOg8CGHV2Zmx0UEwxVMpzcu-ewH0asawg0Wm-Lb5_-M8SOdB94T92vrf57EVeKV_oVjAvEMhzpcV_6hFMgozBd4o3Ic6L2Dx5Rr1zkLChvMx-yUCyMpZgMAndUsZv29IFO7QgV]--></g></svg>