<?xml version="1.0" encoding="us-ascii" standalone="no"?><svg xmlns="http://www.w3.org/2000/svg" xmlns:xlink="http://www.w3.org/1999/xlink" contentStyleType="text/css" height="1186px" preserveAspectRatio="none" style="width:1742px;height:1186px;background:#FFFFFF;" version="1.1" viewBox="0 0 1742 1186" width="1742px" zoomAndPan="magnify"><defs/><g><rect fill="#FFFFFF" height="1065.6309" style="stroke:#181818;stroke-width:1.0;" width="10" x="164.5" y="67.7988"/><rect fill="#FFFFFF" height="16.1777" style="stroke:#181818;stroke-width:1.0;" width="10" x="354.5" y="107.1094"/><rect fill="#FFFFFF" height="100.6211" style="stroke:#181818;stroke-width:1.0;" width="10" x="494" y="152.5977"/><rect fill="#FFFFFF" height="100.6211" style="stroke:#181818;stroke-width:1.0;" width="10" x="494" y="932.1875"/><rect fill="#FFFFFF" height="14" style="stroke:#181818;stroke-width:1.0;" width="10" x="841" y="181.9082"/><rect fill="#FFFFFF" height="14" style="stroke:#181818;stroke-width:1.0;" width="10" x="841" y="961.498"/><rect fill="#FFFFFF" height="14" style="stroke:#181818;stroke-width:1.0;" width="10" x="1020.5" y="225.2188"/><rect fill="#FFFFFF" height="14" style="stroke:#181818;stroke-width:1.0;" width="10" x="1020.5" y="1004.8086"/><rect fill="#FFFFFF" height="14" style="stroke:#181818;stroke-width:1.0;" width="10" x="1154.5" y="282.5293"/><rect fill="#FFFFFF" height="14" style="stroke:#181818;stroke-width:1.0;" width="10" x="1230" y="325.8398"/><rect fill="#FFFFFF" height="14" style="stroke:#181818;stroke-width:1.0;" width="10" x="1319.5" y="369.1504"/><rect fill="#FFFFFF" height="14" style="stroke:#181818;stroke-width:1.0;" width="10" x="1319.5" y="412.4609"/><rect fill="#FFFFFF" height="14" style="stroke:#181818;stroke-width:1.0;" width="10" x="1319.5" y="455.7715"/><rect fill="#FFFFFF" height="14" style="stroke:#181818;stroke-width:1.0;" width="10" x="1319.5" y="758.9453"/><rect fill="#FFFFFF" height="14" style="stroke:#181818;stroke-width:1.0;" width="10" x="1319.5" y="845.5664"/><rect fill="#FFFFFF" height="14" style="stroke:#181818;stroke-width:1.0;" width="10" x="1319.5" y="1105.4297"/><rect fill="#FFFFFF" height="14" style="stroke:#181818;stroke-width:1.0;" width="10" x="1395" y="499.082"/><rect fill="#FFFFFF" height="14" style="stroke:#181818;stroke-width:1.0;" width="10" x="1395" y="888.877"/><rect fill="#FFFFFF" height="14" style="stroke:#181818;stroke-width:1.0;" width="10" x="1470" y="542.3926"/><rect fill="#FFFFFF" height="14" style="stroke:#181818;stroke-width:1.0;" width="10" x="1470" y="585.7031"/><rect fill="#FFFFFF" height="14" style="stroke:#181818;stroke-width:1.0;" width="10" x="1470" y="672.3242"/><rect fill="#FFFFFF" height="14" style="stroke:#181818;stroke-width:1.0;" width="10" x="1553" y="629.0137"/><rect fill="#FFFFFF" height="14" style="stroke:#181818;stroke-width:1.0;" width="10" x="1553" y="715.6348"/><rect fill="#FFFFFF" height="14" style="stroke:#181818;stroke-width:1.0;" width="10" x="1624.5" y="802.2559"/><rect fill="#FFFFFF" height="14" style="stroke:#181818;stroke-width:1.0;" width="10" x="1700.5" y="1062.1191"/><line style="stroke:#181818;stroke-width:0.5;stroke-dasharray:5.0,5.0;" x1="30" x2="30" y1="36.4883" y2="1151.4297"/><line style="stroke:#181818;stroke-width:0.5;stroke-dasharray:5.0,5.0;" x1="169" x2="169" y1="36.4883" y2="1151.4297"/><line style="stroke:#181818;stroke-width:0.5;stroke-dasharray:5.0,5.0;" x1="359.5" x2="359.5" y1="106.543" y2="1151.4297"/><line style="stroke:#181818;stroke-width:0.5;stroke-dasharray:5.0,5.0;" x1="498.5" x2="498.5" y1="36.4883" y2="1151.4297"/><line style="stroke:#181818;stroke-width:0.5;stroke-dasharray:5.0,5.0;" x1="845.5" x2="845.5" y1="36.4883" y2="1151.4297"/><line style="stroke:#181818;stroke-width:0.5;stroke-dasharray:5.0,5.0;" x1="1025.5" x2="1025.5" y1="36.4883" y2="1151.4297"/><line style="stroke:#181818;stroke-width:0.5;stroke-dasharray:5.0,5.0;" x1="1159.5" x2="1159.5" y1="36.4883" y2="1151.4297"/><line style="stroke:#181818;stroke-width:0.5;stroke-dasharray:5.0,5.0;" x1="1234.5" x2="1234.5" y1="36.4883" y2="1151.4297"/><line style="stroke:#181818;stroke-width:0.5;stroke-dasharray:5.0,5.0;" x1="1324.5" x2="1324.5" y1="36.4883" y2="1151.4297"/><line style="stroke:#181818;stroke-width:0.5;stroke-dasharray:5.0,5.0;" x1="1399.5" x2="1399.5" y1="36.4883" y2="1151.4297"/><line style="stroke:#181818;stroke-width:0.5;stroke-dasharray:5.0,5.0;" x1="1474.5" x2="1474.5" y1="36.4883" y2="1151.4297"/><line style="stroke:#181818;stroke-width:0.5;stroke-dasharray:5.0,5.0;" x1="1557.5" x2="1557.5" y1="36.4883" y2="1151.4297"/><line style="stroke:#181818;stroke-width:0.5;stroke-dasharray:5.0,5.0;" x1="1629.5" x2="1629.5" y1="36.4883" y2="1151.4297"/><line style="stroke:#181818;stroke-width:0.5;stroke-dasharray:5.0,5.0;" x1="1705.5" x2="1705.5" y1="36.4883" y2="1151.4297"/><rect fill="#E2E2F0" height="30.4883" rx="2.5" ry="2.5" style="stroke:#181818;stroke-width:0.5;" width="51" x="5" y="5"/><text fill="#000000" font-family="sans-serif" font-size="14" lengthAdjust="spacing" textLength="37" x="12" y="25.5352">Actor</text><rect fill="#E2E2F0" height="30.4883" rx="2.5" ry="2.5" style="stroke:#181818;stroke-width:0.5;" width="51" x="5" y="1150.4297"/><text fill="#000000" font-family="sans-serif" font-size="14" lengthAdjust="spacing" textLength="37" x="12" y="1170.9648">Actor</text><rect fill="#E2E2F0" height="30.4883" rx="2.5" ry="2.5" style="stroke:#181818;stroke-width:0.5;" width="129" x="105" y="5"/><text fill="#000000" font-family="sans-serif" font-size="14" lengthAdjust="spacing" textLength="115" x="112" y="25.5352">DeactivateUserUI</text><rect fill="#E2E2F0" height="30.4883" rx="2.5" ry="2.5" style="stroke:#181818;stroke-width:0.5;" width="129" x="105" y="1150.4297"/><text fill="#000000" font-family="sans-serif" font-size="14" lengthAdjust="spacing" textLength="115" x="112" y="1170.9648">DeactivateUserUI</text><rect fill="#E2E2F0" height="30.4883" rx="2.5" ry="2.5" style="stroke:#181818;stroke-width:0.5;" width="74" x="322.5" y="1150.4297"/><text fill="#000000" font-family="sans-serif" font-size="14" lengthAdjust="spacing" textLength="60" x="329.5" y="1170.9648">ArrayList</text><rect fill="#E2E2F0" height="30.4883" rx="2.5" ry="2.5" style="stroke:#181818;stroke-width:0.5;" width="185" x="406.5" y="5"/><text fill="#000000" font-family="sans-serif" font-size="14" lengthAdjust="spacing" textLength="171" x="413.5" y="25.5352">DeactivateUserController</text><rect fill="#E2E2F0" height="30.4883" rx="2.5" ry="2.5" style="stroke:#181818;stroke-width:0.5;" width="185" x="406.5" y="1150.4297"/><text fill="#000000" font-family="sans-serif" font-size="14" lengthAdjust="spacing" textLength="171" x="413.5" y="1170.9648">DeactivateUserController</text><rect fill="#E2E2F0" height="30.4883" rx="2.5" ry="2.5" style="stroke:#181818;stroke-width:0.5;" width="157" x="767.5" y="5"/><text fill="#000000" font-family="sans-serif" font-size="14" lengthAdjust="spacing" textLength="143" x="774.5" y="25.5352">AuthorizationService</text><rect fill="#E2E2F0" height="30.4883" rx="2.5" ry="2.5" style="stroke:#181818;stroke-width:0.5;" width="157" x="767.5" y="1150.4297"/><text fill="#000000" font-family="sans-serif" font-size="14" lengthAdjust="spacing" textLength="143" x="774.5" y="1170.9648">AuthorizationService</text><rect fill="#E2E2F0" height="30.4883" rx="2.5" ry="2.5" style="stroke:#181818;stroke-width:0.5;" width="182" x="934.5" y="5"/><text fill="#000000" font-family="sans-serif" font-size="14" lengthAdjust="spacing" textLength="168" x="941.5" y="25.5352">UserManagementService</text><rect fill="#E2E2F0" height="30.4883" rx="2.5" ry="2.5" style="stroke:#181818;stroke-width:0.5;" width="182" x="934.5" y="1150.4297"/><text fill="#000000" font-family="sans-serif" font-size="14" lengthAdjust="spacing" textLength="168" x="941.5" y="1170.9648">UserManagementService</text><rect fill="#E2E2F0" height="30.4883" rx="2.5" ry="2.5" style="stroke:#181818;stroke-width:0.5;" width="66" x="1126.5" y="5"/><text fill="#000000" font-family="sans-serif" font-size="14" lengthAdjust="spacing" textLength="52" x="1133.5" y="25.5352">Iterable</text><rect fill="#E2E2F0" height="30.4883" rx="2.5" ry="2.5" style="stroke:#181818;stroke-width:0.5;" width="66" x="1126.5" y="1150.4297"/><text fill="#000000" font-family="sans-serif" font-size="14" lengthAdjust="spacing" textLength="52" x="1133.5" y="1170.9648">Iterable</text><rect fill="#E2E2F0" height="30.4883" rx="2.5" ry="2.5" style="stroke:#181818;stroke-width:0.5;" width="65" x="1202.5" y="5"/><text fill="#000000" font-family="sans-serif" font-size="14" lengthAdjust="spacing" textLength="51" x="1209.5" y="25.5352">Iterator</text><rect fill="#E2E2F0" height="30.4883" rx="2.5" ry="2.5" style="stroke:#181818;stroke-width:0.5;" width="65" x="1202.5" y="1150.4297"/><text fill="#000000" font-family="sans-serif" font-size="14" lengthAdjust="spacing" textLength="51" x="1209.5" y="1170.9648">Iterator</text><rect fill="#E2E2F0" height="30.4883" rx="2.5" ry="2.5" style="stroke:#181818;stroke-width:0.5;" width="94" x="1277.5" y="5"/><text fill="#000000" font-family="sans-serif" font-size="14" lengthAdjust="spacing" textLength="80" x="1284.5" y="25.5352">PrintStream</text><rect fill="#E2E2F0" height="30.4883" rx="2.5" ry="2.5" style="stroke:#181818;stroke-width:0.5;" width="94" x="1277.5" y="1150.4297"/><text fill="#000000" font-family="sans-serif" font-size="14" lengthAdjust="spacing" textLength="80" x="1284.5" y="1170.9648">PrintStream</text><rect fill="#E2E2F0" height="30.4883" rx="2.5" ry="2.5" style="stroke:#181818;stroke-width:0.5;" width="37" x="1381.5" y="5"/><text fill="#000000" font-family="sans-serif" font-size="14" lengthAdjust="spacing" textLength="23" x="1388.5" y="25.5352">List</text><rect fill="#E2E2F0" height="30.4883" rx="2.5" ry="2.5" style="stroke:#181818;stroke-width:0.5;" width="37" x="1381.5" y="1150.4297"/><text fill="#000000" font-family="sans-serif" font-size="14" lengthAdjust="spacing" textLength="23" x="1388.5" y="1170.9648">List</text><rect fill="#E2E2F0" height="30.4883" rx="2.5" ry="2.5" style="stroke:#181818;stroke-width:0.5;" width="93" x="1428.5" y="5"/><text fill="#000000" font-family="sans-serif" font-size="14" lengthAdjust="spacing" textLength="79" x="1435.5" y="25.5352">SystemUser</text><rect fill="#E2E2F0" height="30.4883" rx="2.5" ry="2.5" style="stroke:#181818;stroke-width:0.5;" width="93" x="1428.5" y="1150.4297"/><text fill="#000000" font-family="sans-serif" font-size="14" lengthAdjust="spacing" textLength="79" x="1435.5" y="1170.9648">SystemUser</text><rect fill="#E2E2F0" height="30.4883" rx="2.5" ry="2.5" style="stroke:#181818;stroke-width:0.5;" width="53" x="1531.5" y="5"/><text fill="#000000" font-family="sans-serif" font-size="14" lengthAdjust="spacing" textLength="39" x="1538.5" y="25.5352">Name</text><rect fill="#E2E2F0" height="30.4883" rx="2.5" ry="2.5" style="stroke:#181818;stroke-width:0.5;" width="53" x="1531.5" y="1150.4297"/><text fill="#000000" font-family="sans-serif" font-size="14" lengthAdjust="spacing" textLength="39" x="1538.5" y="1170.9648">Name</text><rect fill="#E2E2F0" height="30.4883" rx="2.5" ry="2.5" style="stroke:#181818;stroke-width:0.5;" width="70" x="1594.5" y="5"/><text fill="#000000" font-family="sans-serif" font-size="14" lengthAdjust="spacing" textLength="56" x="1601.5" y="25.5352">Console</text><rect fill="#E2E2F0" height="30.4883" rx="2.5" ry="2.5" style="stroke:#181818;stroke-width:0.5;" width="70" x="1594.5" y="1150.4297"/><text fill="#000000" font-family="sans-serif" font-size="14" lengthAdjust="spacing" textLength="56" x="1601.5" y="1170.9648">Console</text><rect fill="#E2E2F0" height="30.4883" rx="2.5" ry="2.5" style="stroke:#181818;stroke-width:0.5;" width="62" x="1674.5" y="5"/><text fill="#000000" font-family="sans-serif" font-size="14" lengthAdjust="spacing" textLength="48" x="1681.5" y="25.5352">Logger</text><rect fill="#E2E2F0" height="30.4883" rx="2.5" ry="2.5" style="stroke:#181818;stroke-width:0.5;" width="62" x="1674.5" y="1150.4297"/><text fill="#000000" font-family="sans-serif" font-size="14" lengthAdjust="spacing" textLength="48" x="1681.5" y="1170.9648">Logger</text><rect fill="#FFFFFF" height="1065.6309" style="stroke:#181818;stroke-width:1.0;" width="10" x="164.5" y="67.7988"/><rect fill="#FFFFFF" height="16.1777" style="stroke:#181818;stroke-width:1.0;" width="10" x="354.5" y="107.1094"/><rect fill="#FFFFFF" height="100.6211" style="stroke:#181818;stroke-width:1.0;" width="10" x="494" y="152.5977"/><rect fill="#FFFFFF" height="100.6211" style="stroke:#181818;stroke-width:1.0;" width="10" x="494" y="932.1875"/><rect fill="#FFFFFF" height="14" style="stroke:#181818;stroke-width:1.0;" width="10" x="841" y="181.9082"/><rect fill="#FFFFFF" height="14" style="stroke:#181818;stroke-width:1.0;" width="10" x="841" y="961.498"/><rect fill="#FFFFFF" height="14" style="stroke:#181818;stroke-width:1.0;" width="10" x="1020.5" y="225.2188"/><rect fill="#FFFFFF" height="14" style="stroke:#181818;stroke-width:1.0;" width="10" x="1020.5" y="1004.8086"/><rect fill="#FFFFFF" height="14" style="stroke:#181818;stroke-width:1.0;" width="10" x="1154.5" y="282.5293"/><rect fill="#FFFFFF" height="14" style="stroke:#181818;stroke-width:1.0;" width="10" x="1230" y="325.8398"/><rect fill="#FFFFFF" height="14" style="stroke:#181818;stroke-width:1.0;" width="10" x="1319.5" y="369.1504"/><rect fill="#FFFFFF" height="14" style="stroke:#181818;stroke-width:1.0;" width="10" x="1319.5" y="412.4609"/><rect fill="#FFFFFF" height="14" style="stroke:#181818;stroke-width:1.0;" width="10" x="1319.5" y="455.7715"/><rect fill="#FFFFFF" height="14" style="stroke:#181818;stroke-width:1.0;" width="10" x="1319.5" y="758.9453"/><rect fill="#FFFFFF" height="14" style="stroke:#181818;stroke-width:1.0;" width="10" x="1319.5" y="845.5664"/><rect fill="#FFFFFF" height="14" style="stroke:#181818;stroke-width:1.0;" width="10" x="1319.5" y="1105.4297"/><rect fill="#FFFFFF" height="14" style="stroke:#181818;stroke-width:1.0;" width="10" x="1395" y="499.082"/><rect fill="#FFFFFF" height="14" style="stroke:#181818;stroke-width:1.0;" width="10" x="1395" y="888.877"/><rect fill="#FFFFFF" height="14" style="stroke:#181818;stroke-width:1.0;" width="10" x="1470" y="542.3926"/><rect fill="#FFFFFF" height="14" style="stroke:#181818;stroke-width:1.0;" width="10" x="1470" y="585.7031"/><rect fill="#FFFFFF" height="14" style="stroke:#181818;stroke-width:1.0;" width="10" x="1470" y="672.3242"/><rect fill="#FFFFFF" height="14" style="stroke:#181818;stroke-width:1.0;" width="10" x="1553" y="629.0137"/><rect fill="#FFFFFF" height="14" style="stroke:#181818;stroke-width:1.0;" width="10" x="1553" y="715.6348"/><rect fill="#FFFFFF" height="14" style="stroke:#181818;stroke-width:1.0;" width="10" x="1624.5" y="802.2559"/><rect fill="#FFFFFF" height="14" style="stroke:#181818;stroke-width:1.0;" width="10" x="1700.5" y="1062.1191"/><polygon fill="#181818" points="152.5,63.7988,162.5,67.7988,152.5,71.7988,156.5,67.7988" style="stroke:#181818;stroke-width:1.0;"/><line style="stroke:#181818;stroke-width:1.0;" x1="30.5" x2="158.5" y1="67.7988" y2="67.7988"/><text fill="#000000" font-family="sans-serif" font-size="13" lengthAdjust="spacing" textLength="115" x="37.5" y="63.0566">doShow(): boolean</text><polygon fill="#181818" points="310.5,93.1094,320.5,97.1094,310.5,101.1094,314.5,97.1094" style="stroke:#181818;stroke-width:1.0;"/><line style="stroke:#181818;stroke-width:1.0;" x1="174.5" x2="316.5" y1="97.1094" y2="97.1094"/><text fill="#000000" font-family="sans-serif" font-size="13" lengthAdjust="spacing" textLength="124" x="181.5" y="92.3672">&#171;create&#187;(): ArrayList</text><rect fill="#E2E2F0" height="30.4883" rx="2.5" ry="2.5" style="stroke:#181818;stroke-width:0.5;" width="74" x="322.5" y="75.7988"/><text fill="#000000" font-family="sans-serif" font-size="14" lengthAdjust="spacing" textLength="60" x="329.5" y="96.334">ArrayList</text><polygon fill="#181818" points="185.5,119.2871,175.5,123.2871,185.5,127.2871,181.5,123.2871" style="stroke:#181818;stroke-width:1.0;"/><line style="stroke:#181818;stroke-width:1.0;stroke-dasharray:2.0,2.0;" x1="179.5" x2="358.5" y1="123.2871" y2="123.2871"/><polygon fill="#181818" points="482,148.5977,492,152.5977,482,156.5977,486,152.5977" style="stroke:#181818;stroke-width:1.0;"/><line style="stroke:#181818;stroke-width:1.0;" x1="174.5" x2="488" y1="152.5977" y2="152.5977"/><text fill="#000000" font-family="sans-serif" font-size="13" lengthAdjust="spacing" textLength="228" x="181.5" y="147.8555">activeUsers(): Iterable&lt;SystemUser&gt;</text><polygon fill="#181818" points="829,177.9082,839,181.9082,829,185.9082,833,181.9082" style="stroke:#181818;stroke-width:1.0;"/><line style="stroke:#181818;stroke-width:1.0;" x1="504" x2="835" y1="181.9082" y2="181.9082"/><text fill="#000000" font-family="sans-serif" font-size="13" lengthAdjust="spacing" textLength="318" x="511" y="177.166">ensureAuthenticatedUserHasAnyOf(actions: ): void</text><polygon fill="#181818" points="515,191.9082,505,195.9082,515,199.9082,511,195.9082" style="stroke:#181818;stroke-width:1.0;"/><line style="stroke:#181818;stroke-width:1.0;stroke-dasharray:2.0,2.0;" x1="509" x2="845" y1="195.9082" y2="195.9082"/><polygon fill="#181818" points="1008.5,221.2188,1018.5,225.2188,1008.5,229.2188,1012.5,225.2188" style="stroke:#181818;stroke-width:1.0;"/><line style="stroke:#181818;stroke-width:1.0;" x1="504" x2="1014.5" y1="225.2188" y2="225.2188"/><text fill="#000000" font-family="sans-serif" font-size="13" lengthAdjust="spacing" textLength="228" x="511" y="220.4766">activeUsers(): Iterable&lt;SystemUser&gt;</text><polygon fill="#181818" points="515,235.2188,505,239.2188,515,243.2188,511,239.2188" style="stroke:#181818;stroke-width:1.0;"/><line style="stroke:#181818;stroke-width:1.0;stroke-dasharray:2.0,2.0;" x1="509" x2="1024.5" y1="239.2188" y2="239.2188"/><polygon fill="#181818" points="185.5,249.2188,175.5,253.2188,185.5,257.2188,181.5,253.2188" style="stroke:#181818;stroke-width:1.0;"/><line style="stroke:#181818;stroke-width:1.0;stroke-dasharray:2.0,2.0;" x1="179.5" x2="498" y1="253.2188" y2="253.2188"/><polygon fill="#181818" points="1142.5,278.5293,1152.5,282.5293,1142.5,286.5293,1146.5,282.5293" style="stroke:#181818;stroke-width:1.0;"/><line style="stroke:#181818;stroke-width:1.0;" x1="174.5" x2="1148.5" y1="282.5293" y2="282.5293"/><text fill="#000000" font-family="sans-serif" font-size="13" lengthAdjust="spacing" textLength="136" x="181.5" y="277.7871">iterator(): Iterator&lt;T&gt;</text><polygon fill="#181818" points="185.5,292.5293,175.5,296.5293,185.5,300.5293,181.5,296.5293" style="stroke:#181818;stroke-width:1.0;"/><line style="stroke:#181818;stroke-width:1.0;stroke-dasharray:2.0,2.0;" x1="179.5" x2="1158.5" y1="296.5293" y2="296.5293"/><polygon fill="#181818" points="1218,321.8398,1228,325.8398,1218,329.8398,1222,325.8398" style="stroke:#181818;stroke-width:1.0;"/><line style="stroke:#181818;stroke-width:1.0;" x1="174.5" x2="1224" y1="325.8398" y2="325.8398"/><text fill="#000000" font-family="sans-serif" font-size="13" lengthAdjust="spacing" textLength="118" x="181.5" y="321.0977">hasNext(): boolean</text><polygon fill="#181818" points="185.5,335.8398,175.5,339.8398,185.5,343.8398,181.5,339.8398" style="stroke:#181818;stroke-width:1.0;"/><line style="stroke:#181818;stroke-width:1.0;stroke-dasharray:2.0,2.0;" x1="179.5" x2="1234" y1="339.8398" y2="339.8398"/><polygon fill="#181818" points="1307.5,365.1504,1317.5,369.1504,1307.5,373.1504,1311.5,369.1504" style="stroke:#181818;stroke-width:1.0;"/><line style="stroke:#181818;stroke-width:1.0;" x1="174.5" x2="1313.5" y1="369.1504" y2="369.1504"/><text fill="#000000" font-family="sans-serif" font-size="13" lengthAdjust="spacing" textLength="138" x="181.5" y="364.4082">println(x: String): void</text><polygon fill="#181818" points="185.5,379.1504,175.5,383.1504,185.5,387.1504,181.5,383.1504" style="stroke:#181818;stroke-width:1.0;"/><line style="stroke:#181818;stroke-width:1.0;stroke-dasharray:2.0,2.0;" x1="179.5" x2="1323.5" y1="383.1504" y2="383.1504"/><polygon fill="#181818" points="1307.5,408.4609,1317.5,412.4609,1307.5,416.4609,1311.5,412.4609" style="stroke:#181818;stroke-width:1.0;"/><line style="stroke:#181818;stroke-width:1.0;" x1="174.5" x2="1313.5" y1="412.4609" y2="412.4609"/><text fill="#000000" font-family="sans-serif" font-size="13" lengthAdjust="spacing" textLength="138" x="181.5" y="407.7188">println(x: String): void</text><polygon fill="#181818" points="185.5,422.4609,175.5,426.4609,185.5,430.4609,181.5,426.4609" style="stroke:#181818;stroke-width:1.0;"/><line style="stroke:#181818;stroke-width:1.0;stroke-dasharray:2.0,2.0;" x1="179.5" x2="1323.5" y1="426.4609" y2="426.4609"/><polygon fill="#181818" points="1307.5,451.7715,1317.5,455.7715,1307.5,459.7715,1311.5,455.7715" style="stroke:#181818;stroke-width:1.0;"/><line style="stroke:#181818;stroke-width:1.0;" x1="174.5" x2="1313.5" y1="455.7715" y2="455.7715"/><text fill="#000000" font-family="sans-serif" font-size="13" lengthAdjust="spacing" textLength="253" x="181.5" y="451.0293">printf(format: String, args: ): PrintStream</text><polygon fill="#181818" points="185.5,465.7715,175.5,469.7715,185.5,473.7715,181.5,469.7715" style="stroke:#181818;stroke-width:1.0;"/><line style="stroke:#181818;stroke-width:1.0;stroke-dasharray:2.0,2.0;" x1="179.5" x2="1323.5" y1="469.7715" y2="469.7715"/><polygon fill="#181818" points="1383,495.082,1393,499.082,1383,503.082,1387,499.082" style="stroke:#181818;stroke-width:1.0;"/><line style="stroke:#181818;stroke-width:1.0;" x1="174.5" x2="1389" y1="499.082" y2="499.082"/><text fill="#000000" font-family="sans-serif" font-size="13" lengthAdjust="spacing" textLength="111" x="181.5" y="494.3398">add(e: E): boolean</text><polygon fill="#181818" points="185.5,509.082,175.5,513.082,185.5,517.082,181.5,513.082" style="stroke:#181818;stroke-width:1.0;"/><line style="stroke:#181818;stroke-width:1.0;stroke-dasharray:2.0,2.0;" x1="179.5" x2="1399" y1="513.082" y2="513.082"/><polygon fill="#181818" points="1458,538.3926,1468,542.3926,1458,546.3926,1462,542.3926" style="stroke:#181818;stroke-width:1.0;"/><line style="stroke:#181818;stroke-width:1.0;" x1="174.5" x2="1464" y1="542.3926" y2="542.3926"/><text fill="#000000" font-family="sans-serif" font-size="13" lengthAdjust="spacing" textLength="139" x="181.5" y="537.6504">username(): Username</text><polygon fill="#181818" points="185.5,552.3926,175.5,556.3926,185.5,560.3926,181.5,556.3926" style="stroke:#181818;stroke-width:1.0;"/><line style="stroke:#181818;stroke-width:1.0;stroke-dasharray:2.0,2.0;" x1="179.5" x2="1474" y1="556.3926" y2="556.3926"/><polygon fill="#181818" points="1458,581.7031,1468,585.7031,1458,589.7031,1462,585.7031" style="stroke:#181818;stroke-width:1.0;"/><line style="stroke:#181818;stroke-width:1.0;" x1="174.5" x2="1464" y1="585.7031" y2="585.7031"/><text fill="#000000" font-family="sans-serif" font-size="13" lengthAdjust="spacing" textLength="86" x="181.5" y="580.9609">name(): Name</text><polygon fill="#181818" points="185.5,595.7031,175.5,599.7031,185.5,603.7031,181.5,599.7031" style="stroke:#181818;stroke-width:1.0;"/><line style="stroke:#181818;stroke-width:1.0;stroke-dasharray:2.0,2.0;" x1="179.5" x2="1474" y1="599.7031" y2="599.7031"/><polygon fill="#181818" points="1541,625.0137,1551,629.0137,1541,633.0137,1545,629.0137" style="stroke:#181818;stroke-width:1.0;"/><line style="stroke:#181818;stroke-width:1.0;" x1="174.5" x2="1547" y1="629.0137" y2="629.0137"/><text fill="#000000" font-family="sans-serif" font-size="13" lengthAdjust="spacing" textLength="115" x="181.5" y="624.2715">firstName(): String</text><polygon fill="#181818" points="185.5,639.0137,175.5,643.0137,185.5,647.0137,181.5,643.0137" style="stroke:#181818;stroke-width:1.0;"/><line style="stroke:#181818;stroke-width:1.0;stroke-dasharray:2.0,2.0;" x1="179.5" x2="1557" y1="643.0137" y2="643.0137"/><polygon fill="#181818" points="1458,668.3242,1468,672.3242,1458,676.3242,1462,672.3242" style="stroke:#181818;stroke-width:1.0;"/><line style="stroke:#181818;stroke-width:1.0;" x1="174.5" x2="1464" y1="672.3242" y2="672.3242"/><text fill="#000000" font-family="sans-serif" font-size="13" lengthAdjust="spacing" textLength="86" x="181.5" y="667.582">name(): Name</text><polygon fill="#181818" points="185.5,682.3242,175.5,686.3242,185.5,690.3242,181.5,686.3242" style="stroke:#181818;stroke-width:1.0;"/><line style="stroke:#181818;stroke-width:1.0;stroke-dasharray:2.0,2.0;" x1="179.5" x2="1474" y1="686.3242" y2="686.3242"/><polygon fill="#181818" points="1541,711.6348,1551,715.6348,1541,719.6348,1545,715.6348" style="stroke:#181818;stroke-width:1.0;"/><line style="stroke:#181818;stroke-width:1.0;" x1="174.5" x2="1547" y1="715.6348" y2="715.6348"/><text fill="#000000" font-family="sans-serif" font-size="13" lengthAdjust="spacing" textLength="112" x="181.5" y="710.8926">lastName(): String</text><polygon fill="#181818" points="185.5,725.6348,175.5,729.6348,185.5,733.6348,181.5,729.6348" style="stroke:#181818;stroke-width:1.0;"/><line style="stroke:#181818;stroke-width:1.0;stroke-dasharray:2.0,2.0;" x1="179.5" x2="1557" y1="729.6348" y2="729.6348"/><polygon fill="#181818" points="1307.5,754.9453,1317.5,758.9453,1307.5,762.9453,1311.5,758.9453" style="stroke:#181818;stroke-width:1.0;"/><line style="stroke:#181818;stroke-width:1.0;" x1="174.5" x2="1313.5" y1="758.9453" y2="758.9453"/><text fill="#000000" font-family="sans-serif" font-size="13" lengthAdjust="spacing" textLength="253" x="181.5" y="754.2031">printf(format: String, args: ): PrintStream</text><polygon fill="#181818" points="185.5,768.9453,175.5,772.9453,185.5,776.9453,181.5,772.9453" style="stroke:#181818;stroke-width:1.0;"/><line style="stroke:#181818;stroke-width:1.0;stroke-dasharray:2.0,2.0;" x1="179.5" x2="1323.5" y1="772.9453" y2="772.9453"/><polygon fill="#181818" points="1612.5,798.2559,1622.5,802.2559,1612.5,806.2559,1616.5,802.2559" style="stroke:#181818;stroke-width:1.0;"/><line style="stroke:#181818;stroke-width:1.0;" x1="174.5" x2="1618.5" y1="802.2559" y2="802.2559"/><text fill="#000000" font-family="sans-serif" font-size="13" lengthAdjust="spacing" textLength="195" x="181.5" y="797.5137">readInteger(prompt: String): int</text><polygon fill="#181818" points="185.5,812.2559,175.5,816.2559,185.5,820.2559,181.5,816.2559" style="stroke:#181818;stroke-width:1.0;"/><line style="stroke:#181818;stroke-width:1.0;stroke-dasharray:2.0,2.0;" x1="179.5" x2="1628.5" y1="816.2559" y2="816.2559"/><polygon fill="#181818" points="1307.5,841.5664,1317.5,845.5664,1307.5,849.5664,1311.5,845.5664" style="stroke:#181818;stroke-width:1.0;"/><line style="stroke:#181818;stroke-width:1.0;" x1="174.5" x2="1313.5" y1="845.5664" y2="845.5664"/><text fill="#000000" font-family="sans-serif" font-size="13" lengthAdjust="spacing" textLength="138" x="181.5" y="840.8242">println(x: String): void</text><polygon fill="#181818" points="185.5,855.5664,175.5,859.5664,185.5,863.5664,181.5,859.5664" style="stroke:#181818;stroke-width:1.0;"/><line style="stroke:#181818;stroke-width:1.0;stroke-dasharray:2.0,2.0;" x1="179.5" x2="1323.5" y1="859.5664" y2="859.5664"/><polygon fill="#181818" points="1383,884.877,1393,888.877,1383,892.877,1387,888.877" style="stroke:#181818;stroke-width:1.0;"/><line style="stroke:#181818;stroke-width:1.0;" x1="174.5" x2="1389" y1="888.877" y2="888.877"/><text fill="#000000" font-family="sans-serif" font-size="13" lengthAdjust="spacing" textLength="103" x="181.5" y="884.1348">get(index: int): E</text><polygon fill="#181818" points="185.5,898.877,175.5,902.877,185.5,906.877,181.5,902.877" style="stroke:#181818;stroke-width:1.0;"/><line style="stroke:#181818;stroke-width:1.0;stroke-dasharray:2.0,2.0;" x1="179.5" x2="1399" y1="902.877" y2="902.877"/><polygon fill="#181818" points="482,928.1875,492,932.1875,482,936.1875,486,932.1875" style="stroke:#181818;stroke-width:1.0;"/><line style="stroke:#181818;stroke-width:1.0;" x1="174.5" x2="488" y1="932.1875" y2="932.1875"/><text fill="#000000" font-family="sans-serif" font-size="13" lengthAdjust="spacing" textLength="289" x="181.5" y="927.4453">deactivateUser(user: SystemUser): SystemUser</text><polygon fill="#181818" points="829,957.498,839,961.498,829,965.498,833,961.498" style="stroke:#181818;stroke-width:1.0;"/><line style="stroke:#181818;stroke-width:1.0;" x1="504" x2="835" y1="961.498" y2="961.498"/><text fill="#000000" font-family="sans-serif" font-size="13" lengthAdjust="spacing" textLength="318" x="511" y="956.7559">ensureAuthenticatedUserHasAnyOf(actions: ): void</text><polygon fill="#181818" points="515,971.498,505,975.498,515,979.498,511,975.498" style="stroke:#181818;stroke-width:1.0;"/><line style="stroke:#181818;stroke-width:1.0;stroke-dasharray:2.0,2.0;" x1="509" x2="845" y1="975.498" y2="975.498"/><polygon fill="#181818" points="1008.5,1000.8086,1018.5,1004.8086,1008.5,1008.8086,1012.5,1004.8086" style="stroke:#181818;stroke-width:1.0;"/><line style="stroke:#181818;stroke-width:1.0;" x1="504" x2="1014.5" y1="1004.8086" y2="1004.8086"/><text fill="#000000" font-family="sans-serif" font-size="13" lengthAdjust="spacing" textLength="289" x="511" y="1000.0664">deactivateUser(user: SystemUser): SystemUser</text><polygon fill="#181818" points="515,1014.8086,505,1018.8086,515,1022.8086,511,1018.8086" style="stroke:#181818;stroke-width:1.0;"/><line style="stroke:#181818;stroke-width:1.0;stroke-dasharray:2.0,2.0;" x1="509" x2="1024.5" y1="1018.8086" y2="1018.8086"/><polygon fill="#181818" points="185.5,1028.8086,175.5,1032.8086,185.5,1036.8086,181.5,1032.8086" style="stroke:#181818;stroke-width:1.0;"/><line style="stroke:#181818;stroke-width:1.0;stroke-dasharray:2.0,2.0;" x1="179.5" x2="498" y1="1032.8086" y2="1032.8086"/><polygon fill="#181818" points="1688.5,1058.1191,1698.5,1062.1191,1688.5,1066.1191,1692.5,1062.1191" style="stroke:#181818;stroke-width:1.0;"/><line style="stroke:#181818;stroke-width:1.0;" x1="174.5" x2="1694.5" y1="1062.1191" y2="1062.1191"/><text fill="#000000" font-family="sans-serif" font-size="13" lengthAdjust="spacing" textLength="268" x="181.5" y="1057.377">error(s: String, throwable: Throwable): void</text><polygon fill="#181818" points="185.5,1072.1191,175.5,1076.1191,185.5,1080.1191,181.5,1076.1191" style="stroke:#181818;stroke-width:1.0;"/><line style="stroke:#181818;stroke-width:1.0;stroke-dasharray:2.0,2.0;" x1="179.5" x2="1704.5" y1="1076.1191" y2="1076.1191"/><polygon fill="#181818" points="1307.5,1101.4297,1317.5,1105.4297,1307.5,1109.4297,1311.5,1105.4297" style="stroke:#181818;stroke-width:1.0;"/><line style="stroke:#181818;stroke-width:1.0;" x1="174.5" x2="1313.5" y1="1105.4297" y2="1105.4297"/><text fill="#000000" font-family="sans-serif" font-size="13" lengthAdjust="spacing" textLength="138" x="181.5" y="1100.6875">println(x: String): void</text><polygon fill="#181818" points="185.5,1115.4297,175.5,1119.4297,185.5,1123.4297,181.5,1119.4297" style="stroke:#181818;stroke-width:1.0;"/><line style="stroke:#181818;stroke-width:1.0;stroke-dasharray:2.0,2.0;" x1="179.5" x2="1323.5" y1="1119.4297" y2="1119.4297"/><polygon fill="#181818" points="41.5,1129.4297,31.5,1133.4297,41.5,1137.4297,37.5,1133.4297" style="stroke:#181818;stroke-width:1.0;"/><line style="stroke:#181818;stroke-width:1.0;stroke-dasharray:2.0,2.0;" x1="35.5" x2="168.5" y1="1133.4297" y2="1133.4297"/><!--SRC=[xLRlZjem3F-UfyZ7dZHUe498Q3jfI3SsYUC1SgqfaTe4EO63FVsS_aiGAUMc8R5fNo1r_FFFTcpBEu5MPd8dbENpp6fazI-VpFWN49cL1s5XRG3N2vxoNA-s-ZrvIlcRrYK8nJgL2ssM8JZv756SNgInxC8USVItP7mwRI2pcIFmk9x2Ypni4d6KvH31nEZFPP-rigZB4f2ygIzgiN7kB2oWU2jXkZeP2vMJpuQ2ztRO886BVM-t6kLFOQLMAy23p828GPazWhi4HKz3qDnXlmepLwVlcyGPrCgadBmwQ9a7-OaOP56MoPNOpx8NitWj9YVv9fGee2BlVL0VocRK28kRlZMIkCtXK4RAwiO7RwgiYvRo8DsH-gjF0fsdhq7idIxhGMEkz8X1QjVFATyAiuIZZJPlfyPw_PjO7IB6-WCbvTXIDrT4l7DVfKgEAIUPLCL5uGRwBCIEEH7Y_Z8_Dib6OoLivyidBh1ecZgqTdVNsjahyZo1b3_7YgEUdZSDsy4vwzkSkFRqfqG5hXBNxTcpULKMeCQO0zGeVyUzl3-leo36ZKHZborjyzwUk7QZLXmZgpKVCBnIt3Mw1-uU6ln6ruETLFA5ib009ZlKrSu6KuQCU5zQ3EkmOpvq-eyyuDefKe1DfChXM8TCxCz_T8fSsTRoiwl4ZPWqgDwdyEF_sdRpslPxQVtNzhSNNHHrbG4YhMx6JnsxHVtkbg-KltR7Y_TjuAorCbhzZVQZT3k2tQFw1G00]--></g></svg>