<?xml version="1.0" encoding="us-ascii" standalone="no"?><svg xmlns="http://www.w3.org/2000/svg" xmlns:xlink="http://www.w3.org/1999/xlink" contentStyleType="text/css" height="1416px" preserveAspectRatio="none" style="width:1911px;height:1416px;background:#FFFFFF;" version="1.1" viewBox="0 0 1911 1416" width="1911px" zoomAndPan="magnify"><defs/><g><!--class Client--><g id="elem_Client"><rect codeLine="2" fill="#F1F1F1" height="66.6211" id="Client" rx="2.5" ry="2.5" style="stroke:#181818;stroke-width:0.5;" width="437" x="531.5" y="7"/><ellipse cx="727.75" cy="23" fill="#ADD1B2" rx="11" ry="11" style="stroke:#181818;stroke-width:1.0;"/><path d="M730.5156,18.875 Q730.6719,18.6563 730.8594,18.5469 Q731.0469,18.4375 731.2656,18.4375 Q731.6406,18.4375 731.875,18.7031 Q732.1094,18.9531 732.1094,19.5625 L732.1094,21.0156 Q732.1094,21.625 731.875,21.8906 Q731.6406,22.1563 731.2656,22.1563 Q730.9219,22.1563 730.7188,21.9531 Q730.5156,21.7656 730.4063,21.25 Q730.3594,20.8906 730.1719,20.7031 Q729.8438,20.3281 729.2344,20.1094 Q728.625,19.8906 728,19.8906 Q727.2344,19.8906 726.5938,20.2188 Q725.9688,20.5469 725.4688,21.2969 Q724.9844,22.0469 724.9844,23.0781 L724.9844,24.1719 Q724.9844,25.4063 725.875,26.2344 Q726.7656,27.0469 728.3594,27.0469 Q729.2969,27.0469 729.9531,26.7969 Q730.3438,26.6406 730.7656,26.2031 Q731.0313,25.9375 731.1719,25.8594 Q731.3281,25.7813 731.5313,25.7813 Q731.8594,25.7813 732.1094,26.0469 Q732.375,26.2969 732.375,26.6406 Q732.375,26.9844 732.0313,27.3906 Q731.5313,27.9688 730.7344,28.2969 Q729.6563,28.75 728.3594,28.75 Q726.8438,28.75 725.6406,28.125 Q724.6563,27.625 723.9688,26.5625 Q723.2813,25.4844 723.2813,24.2031 L723.2813,23.0469 Q723.2813,21.7188 723.8906,20.5781 Q724.5156,19.4219 725.6094,18.8125 Q726.7031,18.1875 727.9375,18.1875 Q728.6719,18.1875 729.3125,18.3594 Q729.9688,18.5156 730.5156,18.875 Z " fill="#000000"/><text fill="#000000" font-family="sans-serif" font-size="14" lengthAdjust="spacing" textLength="36" x="748.25" y="28.7969">Client</text><line style="stroke:#181818;stroke-width:0.5;" x1="532.5" x2="967.5" y1="39" y2="39"/><line style="stroke:#181818;stroke-width:0.5;" x1="532.5" x2="967.5" y1="47" y2="47"/><ellipse cx="542.5" cy="61.8105" fill="#84BE84" rx="3" ry="3" style="stroke:#038048;stroke-width:1.0;"/><text fill="#000000" font-family="sans-serif" font-size="14" lengthAdjust="spacing" textLength="411" x="551.5" y="66.1074">createPostIt(socket, inputStream, outputStream, bufferedReader)</text></g><!--class ClientHandler--><g id="elem_ClientHandler"><rect codeLine="6" fill="#F1F1F1" height="141.1055" id="ClientHandler" rx="2.5" ry="2.5" style="stroke:#181818;stroke-width:0.5;" width="245" x="925.5" y="153"/><ellipse cx="1001.25" cy="169" fill="#ADD1B2" rx="11" ry="11" style="stroke:#181818;stroke-width:1.0;"/><path d="M1004.0156,164.875 Q1004.1719,164.6563 1004.3594,164.5469 Q1004.5469,164.4375 1004.7656,164.4375 Q1005.1406,164.4375 1005.375,164.7031 Q1005.6094,164.9531 1005.6094,165.5625 L1005.6094,167.0156 Q1005.6094,167.625 1005.375,167.8906 Q1005.1406,168.1563 1004.7656,168.1563 Q1004.4219,168.1563 1004.2188,167.9531 Q1004.0156,167.7656 1003.9063,167.25 Q1003.8594,166.8906 1003.6719,166.7031 Q1003.3438,166.3281 1002.7344,166.1094 Q1002.125,165.8906 1001.5,165.8906 Q1000.7344,165.8906 1000.0938,166.2188 Q999.4688,166.5469 998.9688,167.2969 Q998.4844,168.0469 998.4844,169.0781 L998.4844,170.1719 Q998.4844,171.4063 999.375,172.2344 Q1000.2656,173.0469 1001.8594,173.0469 Q1002.7969,173.0469 1003.4531,172.7969 Q1003.8438,172.6406 1004.2656,172.2031 Q1004.5313,171.9375 1004.6719,171.8594 Q1004.8281,171.7813 1005.0313,171.7813 Q1005.3594,171.7813 1005.6094,172.0469 Q1005.875,172.2969 1005.875,172.6406 Q1005.875,172.9844 1005.5313,173.3906 Q1005.0313,173.9688 1004.2344,174.2969 Q1003.1563,174.75 1001.8594,174.75 Q1000.3438,174.75 999.1406,174.125 Q998.1563,173.625 997.4688,172.5625 Q996.7813,171.4844 996.7813,170.2031 L996.7813,169.0469 Q996.7813,167.7188 997.3906,166.5781 Q998.0156,165.4219 999.1094,164.8125 Q1000.2031,164.1875 1001.4375,164.1875 Q1002.1719,164.1875 1002.8125,164.3594 Q1003.4688,164.5156 1004.0156,164.875 Z " fill="#000000"/><text fill="#000000" font-family="sans-serif" font-size="14" lengthAdjust="spacing" textLength="85" x="1021.75" y="174.7969">ClientHandler</text><line style="stroke:#181818;stroke-width:0.5;" x1="926.5" x2="1169.5" y1="185" y2="185"/><line style="stroke:#181818;stroke-width:0.5;" x1="926.5" x2="1169.5" y1="193" y2="193"/><ellipse cx="936.5" cy="207.8105" fill="#84BE84" rx="3" ry="3" style="stroke:#038048;stroke-width:1.0;"/><text fill="#000000" font-family="sans-serif" font-size="14" lengthAdjust="spacing" textLength="147" x="945.5" y="212.1074">createPostIT(message)</text><ellipse cx="936.5" cy="226.4316" fill="#84BE84" rx="3" ry="3" style="stroke:#038048;stroke-width:1.0;"/><text fill="#000000" font-family="sans-serif" font-size="14" lengthAdjust="spacing" textLength="219" x="945.5" y="230.7285">findWriteAdminPermissionBoards()</text><ellipse cx="936.5" cy="245.0527" fill="#84BE84" rx="3" ry="3" style="stroke:#038048;stroke-width:1.0;"/><text fill="#000000" font-family="sans-serif" font-size="14" lengthAdjust="spacing" textLength="211" x="945.5" y="249.3496">findSharedBoardString(message)</text><ellipse cx="936.5" cy="263.6738" fill="#84BE84" rx="3" ry="3" style="stroke:#038048;stroke-width:1.0;"/><text fill="#000000" font-family="sans-serif" font-size="14" lengthAdjust="spacing" textLength="185" x="945.5" y="267.9707">findEmptyCells(sharedBoard)</text><ellipse cx="936.5" cy="282.2949" fill="#84BE84" rx="3" ry="3" style="stroke:#038048;stroke-width:1.0;"/><text fill="#000000" font-family="sans-serif" font-size="14" lengthAdjust="spacing" textLength="213" x="945.5" y="286.5918">createPostIt(cell, title, description)</text></g><!--class Server--><g id="elem_Server"><rect codeLine="14" fill="#F1F1F1" height="48" id="Server" rx="2.5" ry="2.5" style="stroke:#181818;stroke-width:0.5;" width="74" x="1011" y="16.5"/><ellipse cx="1026" cy="32.5" fill="#ADD1B2" rx="11" ry="11" style="stroke:#181818;stroke-width:1.0;"/><path d="M1028.7656,28.375 Q1028.9219,28.1563 1029.1094,28.0469 Q1029.2969,27.9375 1029.5156,27.9375 Q1029.8906,27.9375 1030.125,28.2031 Q1030.3594,28.4531 1030.3594,29.0625 L1030.3594,30.5156 Q1030.3594,31.125 1030.125,31.3906 Q1029.8906,31.6563 1029.5156,31.6563 Q1029.1719,31.6563 1028.9688,31.4531 Q1028.7656,31.2656 1028.6563,30.75 Q1028.6094,30.3906 1028.4219,30.2031 Q1028.0938,29.8281 1027.4844,29.6094 Q1026.875,29.3906 1026.25,29.3906 Q1025.4844,29.3906 1024.8438,29.7188 Q1024.2188,30.0469 1023.7188,30.7969 Q1023.2344,31.5469 1023.2344,32.5781 L1023.2344,33.6719 Q1023.2344,34.9063 1024.125,35.7344 Q1025.0156,36.5469 1026.6094,36.5469 Q1027.5469,36.5469 1028.2031,36.2969 Q1028.5938,36.1406 1029.0156,35.7031 Q1029.2813,35.4375 1029.4219,35.3594 Q1029.5781,35.2813 1029.7813,35.2813 Q1030.1094,35.2813 1030.3594,35.5469 Q1030.625,35.7969 1030.625,36.1406 Q1030.625,36.4844 1030.2813,36.8906 Q1029.7813,37.4688 1028.9844,37.7969 Q1027.9063,38.25 1026.6094,38.25 Q1025.0938,38.25 1023.8906,37.625 Q1022.9063,37.125 1022.2188,36.0625 Q1021.5313,34.9844 1021.5313,33.7031 L1021.5313,32.5469 Q1021.5313,31.2188 1022.1406,30.0781 Q1022.7656,28.9219 1023.8594,28.3125 Q1024.9531,27.6875 1026.1875,27.6875 Q1026.9219,27.6875 1027.5625,27.8594 Q1028.2188,28.0156 1028.7656,28.375 Z " fill="#000000"/><text fill="#000000" font-family="sans-serif" font-size="14" lengthAdjust="spacing" textLength="42" x="1040" y="38.2969">Server</text><line style="stroke:#181818;stroke-width:0.5;" x1="1012" x2="1084" y1="48.5" y2="48.5"/><line style="stroke:#181818;stroke-width:0.5;" x1="1012" x2="1084" y1="56.5" y2="56.5"/></g><!--class UpdatePostItUI--><g id="elem_UpdatePostItUI"><rect codeLine="16" fill="#F1F1F1" height="48" id="UpdatePostItUI" rx="2.5" ry="2.5" style="stroke:#181818;stroke-width:0.5;" width="124" x="688" y="199.5"/><ellipse cx="703" cy="215.5" fill="#ADD1B2" rx="11" ry="11" style="stroke:#181818;stroke-width:1.0;"/><path d="M705.7656,211.375 Q705.9219,211.1563 706.1094,211.0469 Q706.2969,210.9375 706.5156,210.9375 Q706.8906,210.9375 707.125,211.2031 Q707.3594,211.4531 707.3594,212.0625 L707.3594,213.5156 Q707.3594,214.125 707.125,214.3906 Q706.8906,214.6563 706.5156,214.6563 Q706.1719,214.6563 705.9688,214.4531 Q705.7656,214.2656 705.6563,213.75 Q705.6094,213.3906 705.4219,213.2031 Q705.0938,212.8281 704.4844,212.6094 Q703.875,212.3906 703.25,212.3906 Q702.4844,212.3906 701.8438,212.7188 Q701.2188,213.0469 700.7188,213.7969 Q700.2344,214.5469 700.2344,215.5781 L700.2344,216.6719 Q700.2344,217.9063 701.125,218.7344 Q702.0156,219.5469 703.6094,219.5469 Q704.5469,219.5469 705.2031,219.2969 Q705.5938,219.1406 706.0156,218.7031 Q706.2813,218.4375 706.4219,218.3594 Q706.5781,218.2813 706.7813,218.2813 Q707.1094,218.2813 707.3594,218.5469 Q707.625,218.7969 707.625,219.1406 Q707.625,219.4844 707.2813,219.8906 Q706.7813,220.4688 705.9844,220.7969 Q704.9063,221.25 703.6094,221.25 Q702.0938,221.25 700.8906,220.625 Q699.9063,220.125 699.2188,219.0625 Q698.5313,217.9844 698.5313,216.7031 L698.5313,215.5469 Q698.5313,214.2188 699.1406,213.0781 Q699.7656,211.9219 700.8594,211.3125 Q701.9531,210.6875 703.1875,210.6875 Q703.9219,210.6875 704.5625,210.8594 Q705.2188,211.0156 705.7656,211.375 Z " fill="#000000"/><text fill="#000000" font-family="sans-serif" font-size="14" lengthAdjust="spacing" textLength="92" x="717" y="221.2969">UpdatePostItUI</text><line style="stroke:#181818;stroke-width:0.5;" x1="689" x2="811" y1="231.5" y2="231.5"/><line style="stroke:#181818;stroke-width:0.5;" x1="689" x2="811" y1="239.5" y2="239.5"/></g><!--class UpdatePostItController--><g id="elem_UpdatePostItController"><rect codeLine="18" fill="#F1F1F1" height="103.8633" id="UpdatePostItController" rx="2.5" ry="2.5" style="stroke:#181818;stroke-width:0.5;" width="245" x="606.5" y="373"/><ellipse cx="653.75" cy="389" fill="#ADD1B2" rx="11" ry="11" style="stroke:#181818;stroke-width:1.0;"/><path d="M656.5156,384.875 Q656.6719,384.6563 656.8594,384.5469 Q657.0469,384.4375 657.2656,384.4375 Q657.6406,384.4375 657.875,384.7031 Q658.1094,384.9531 658.1094,385.5625 L658.1094,387.0156 Q658.1094,387.625 657.875,387.8906 Q657.6406,388.1563 657.2656,388.1563 Q656.9219,388.1563 656.7188,387.9531 Q656.5156,387.7656 656.4063,387.25 Q656.3594,386.8906 656.1719,386.7031 Q655.8438,386.3281 655.2344,386.1094 Q654.625,385.8906 654,385.8906 Q653.2344,385.8906 652.5938,386.2188 Q651.9688,386.5469 651.4688,387.2969 Q650.9844,388.0469 650.9844,389.0781 L650.9844,390.1719 Q650.9844,391.4063 651.875,392.2344 Q652.7656,393.0469 654.3594,393.0469 Q655.2969,393.0469 655.9531,392.7969 Q656.3438,392.6406 656.7656,392.2031 Q657.0313,391.9375 657.1719,391.8594 Q657.3281,391.7813 657.5313,391.7813 Q657.8594,391.7813 658.1094,392.0469 Q658.375,392.2969 658.375,392.6406 Q658.375,392.9844 658.0313,393.3906 Q657.5313,393.9688 656.7344,394.2969 Q655.6563,394.75 654.3594,394.75 Q652.8438,394.75 651.6406,394.125 Q650.6563,393.625 649.9688,392.5625 Q649.2813,391.4844 649.2813,390.2031 L649.2813,389.0469 Q649.2813,387.7188 649.8906,386.5781 Q650.5156,385.4219 651.6094,384.8125 Q652.7031,384.1875 653.9375,384.1875 Q654.6719,384.1875 655.3125,384.3594 Q655.9688,384.5156 656.5156,384.875 Z " fill="#000000"/><text fill="#000000" font-family="sans-serif" font-size="14" lengthAdjust="spacing" textLength="142" x="674.25" y="394.7969">UpdatePostItController</text><line style="stroke:#181818;stroke-width:0.5;" x1="607.5" x2="850.5" y1="405" y2="405"/><line style="stroke:#181818;stroke-width:0.5;" x1="607.5" x2="850.5" y1="413" y2="413"/><ellipse cx="617.5" cy="427.8105" fill="#84BE84" rx="3" ry="3" style="stroke:#038048;stroke-width:1.0;"/><text fill="#000000" font-family="sans-serif" font-size="14" lengthAdjust="spacing" textLength="219" x="626.5" y="432.1074">findWriteAdminPermissionBoards()</text><ellipse cx="617.5" cy="446.4316" fill="#84BE84" rx="3" ry="3" style="stroke:#038048;stroke-width:1.0;"/><text fill="#000000" font-family="sans-serif" font-size="14" lengthAdjust="spacing" textLength="211" x="626.5" y="450.7285">findSharedBoardString(message)</text><ellipse cx="617.5" cy="465.0527" fill="#84BE84" rx="3" ry="3" style="stroke:#038048;stroke-width:1.0;"/><text fill="#000000" font-family="sans-serif" font-size="14" lengthAdjust="spacing" textLength="206" x="626.5" y="469.3496">findOccupiedCells(sharedBoard)</text></g><!--class PostItManagementService--><g id="elem_PostItManagementService"><rect codeLine="24" fill="#F1F1F1" height="141.1055" id="PostItManagementService" rx="2.5" ry="2.5" style="stroke:#181818;stroke-width:0.5;" width="245" x="606.5" y="556"/><ellipse cx="643.55" cy="572" fill="#ADD1B2" rx="11" ry="11" style="stroke:#181818;stroke-width:1.0;"/><path d="M646.3156,567.875 Q646.4719,567.6563 646.6594,567.5469 Q646.8469,567.4375 647.0656,567.4375 Q647.4406,567.4375 647.675,567.7031 Q647.9094,567.9531 647.9094,568.5625 L647.9094,570.0156 Q647.9094,570.625 647.675,570.8906 Q647.4406,571.1563 647.0656,571.1563 Q646.7219,571.1563 646.5188,570.9531 Q646.3156,570.7656 646.2063,570.25 Q646.1594,569.8906 645.9719,569.7031 Q645.6438,569.3281 645.0344,569.1094 Q644.425,568.8906 643.8,568.8906 Q643.0344,568.8906 642.3938,569.2188 Q641.7688,569.5469 641.2688,570.2969 Q640.7844,571.0469 640.7844,572.0781 L640.7844,573.1719 Q640.7844,574.4063 641.675,575.2344 Q642.5656,576.0469 644.1594,576.0469 Q645.0969,576.0469 645.7531,575.7969 Q646.1438,575.6406 646.5656,575.2031 Q646.8313,574.9375 646.9719,574.8594 Q647.1281,574.7813 647.3313,574.7813 Q647.6594,574.7813 647.9094,575.0469 Q648.175,575.2969 648.175,575.6406 Q648.175,575.9844 647.8313,576.3906 Q647.3313,576.9688 646.5344,577.2969 Q645.4563,577.75 644.1594,577.75 Q642.6438,577.75 641.4406,577.125 Q640.4563,576.625 639.7688,575.5625 Q639.0813,574.4844 639.0813,573.2031 L639.0813,572.0469 Q639.0813,570.7188 639.6906,569.5781 Q640.3156,568.4219 641.4094,567.8125 Q642.5031,567.1875 643.7375,567.1875 Q644.4719,567.1875 645.1125,567.3594 Q645.7688,567.5156 646.3156,567.875 Z " fill="#000000"/><text fill="#000000" font-family="sans-serif" font-size="14" lengthAdjust="spacing" textLength="164" x="662.45" y="577.7969">PostItManagementService</text><line style="stroke:#181818;stroke-width:0.5;" x1="607.5" x2="850.5" y1="588" y2="588"/><line style="stroke:#181818;stroke-width:0.5;" x1="607.5" x2="850.5" y1="596" y2="596"/><ellipse cx="617.5" cy="610.8105" fill="#84BE84" rx="3" ry="3" style="stroke:#038048;stroke-width:1.0;"/><text fill="#000000" font-family="sans-serif" font-size="14" lengthAdjust="spacing" textLength="50" x="626.5" y="615.1074">create()</text><ellipse cx="617.5" cy="629.4316" fill="#84BE84" rx="3" ry="3" style="stroke:#038048;stroke-width:1.0;"/><text fill="#000000" font-family="sans-serif" font-size="14" lengthAdjust="spacing" textLength="219" x="626.5" y="633.7285">findWriteAdminPermissionBoards()</text><ellipse cx="617.5" cy="648.0527" fill="#84BE84" rx="3" ry="3" style="stroke:#038048;stroke-width:1.0;"/><text fill="#000000" font-family="sans-serif" font-size="14" lengthAdjust="spacing" textLength="211" x="626.5" y="652.3496">findSharedBoardString(message)</text><ellipse cx="617.5" cy="666.6738" fill="#84BE84" rx="3" ry="3" style="stroke:#038048;stroke-width:1.0;"/><text fill="#000000" font-family="sans-serif" font-size="14" lengthAdjust="spacing" textLength="206" x="626.5" y="670.9707">findOccupiedCells(sharedBoard)</text><ellipse cx="617.5" cy="685.2949" fill="#84BE84" rx="3" ry="3" style="stroke:#038048;stroke-width:1.0;"/><text fill="#000000" font-family="sans-serif" font-size="14" lengthAdjust="spacing" textLength="217" x="626.5" y="689.5918">updatePostIt(cell, title, description)</text></g><!--class RcompService--><g id="elem_RcompService"><rect codeLine="32" fill="#F1F1F1" height="85.2422" id="RcompService" rx="2.5" ry="2.5" style="stroke:#181818;stroke-width:0.5;" width="323" x="886.5" y="382.5"/><ellipse cx="998.25" cy="398.5" fill="#ADD1B2" rx="11" ry="11" style="stroke:#181818;stroke-width:1.0;"/><path d="M1001.0156,394.375 Q1001.1719,394.1563 1001.3594,394.0469 Q1001.5469,393.9375 1001.7656,393.9375 Q1002.1406,393.9375 1002.375,394.2031 Q1002.6094,394.4531 1002.6094,395.0625 L1002.6094,396.5156 Q1002.6094,397.125 1002.375,397.3906 Q1002.1406,397.6563 1001.7656,397.6563 Q1001.4219,397.6563 1001.2188,397.4531 Q1001.0156,397.2656 1000.9063,396.75 Q1000.8594,396.3906 1000.6719,396.2031 Q1000.3438,395.8281 999.7344,395.6094 Q999.125,395.3906 998.5,395.3906 Q997.7344,395.3906 997.0938,395.7188 Q996.4688,396.0469 995.9688,396.7969 Q995.4844,397.5469 995.4844,398.5781 L995.4844,399.6719 Q995.4844,400.9063 996.375,401.7344 Q997.2656,402.5469 998.8594,402.5469 Q999.7969,402.5469 1000.4531,402.2969 Q1000.8438,402.1406 1001.2656,401.7031 Q1001.5313,401.4375 1001.6719,401.3594 Q1001.8281,401.2813 1002.0313,401.2813 Q1002.3594,401.2813 1002.6094,401.5469 Q1002.875,401.7969 1002.875,402.1406 Q1002.875,402.4844 1002.5313,402.8906 Q1002.0313,403.4688 1001.2344,403.7969 Q1000.1563,404.25 998.8594,404.25 Q997.3438,404.25 996.1406,403.625 Q995.1563,403.125 994.4688,402.0625 Q993.7813,400.9844 993.7813,399.7031 L993.7813,398.5469 Q993.7813,397.2188 994.3906,396.0781 Q995.0156,394.9219 996.1094,394.3125 Q997.2031,393.6875 998.4375,393.6875 Q999.1719,393.6875 999.8125,393.8594 Q1000.4688,394.0156 1001.0156,394.375 Z " fill="#000000"/><text fill="#000000" font-family="sans-serif" font-size="14" lengthAdjust="spacing" textLength="91" x="1018.75" y="404.2969">RcompService</text><line style="stroke:#181818;stroke-width:0.5;" x1="887.5" x2="1208.5" y1="414.5" y2="414.5"/><line style="stroke:#181818;stroke-width:0.5;" x1="887.5" x2="1208.5" y1="422.5" y2="422.5"/><ellipse cx="897.5" cy="437.3105" fill="#84BE84" rx="3" ry="3" style="stroke:#038048;stroke-width:1.0;"/><text fill="#000000" font-family="sans-serif" font-size="14" lengthAdjust="spacing" textLength="297" x="906.5" y="441.6074">sendMessage(socket, message, outputStream)</text><ellipse cx="897.5" cy="455.9316" fill="#84BE84" rx="3" ry="3" style="stroke:#038048;stroke-width:1.0;"/><text fill="#000000" font-family="sans-serif" font-size="14" lengthAdjust="spacing" textLength="194" x="906.5" y="460.2285">readData(socket, inputStream)</text></g><!--class FormatMessage--><g id="elem_FormatMessage"><rect codeLine="37" fill="#F1F1F1" height="48" id="FormatMessage" rx="2.5" ry="2.5" style="stroke:#181818;stroke-width:0.5;" width="134" x="981" y="602.5"/><ellipse cx="996" cy="618.5" fill="#ADD1B2" rx="11" ry="11" style="stroke:#181818;stroke-width:1.0;"/><path d="M998.7656,614.375 Q998.9219,614.1563 999.1094,614.0469 Q999.2969,613.9375 999.5156,613.9375 Q999.8906,613.9375 1000.125,614.2031 Q1000.3594,614.4531 1000.3594,615.0625 L1000.3594,616.5156 Q1000.3594,617.125 1000.125,617.3906 Q999.8906,617.6563 999.5156,617.6563 Q999.1719,617.6563 998.9688,617.4531 Q998.7656,617.2656 998.6563,616.75 Q998.6094,616.3906 998.4219,616.2031 Q998.0938,615.8281 997.4844,615.6094 Q996.875,615.3906 996.25,615.3906 Q995.4844,615.3906 994.8438,615.7188 Q994.2188,616.0469 993.7188,616.7969 Q993.2344,617.5469 993.2344,618.5781 L993.2344,619.6719 Q993.2344,620.9063 994.125,621.7344 Q995.0156,622.5469 996.6094,622.5469 Q997.5469,622.5469 998.2031,622.2969 Q998.5938,622.1406 999.0156,621.7031 Q999.2813,621.4375 999.4219,621.3594 Q999.5781,621.2813 999.7813,621.2813 Q1000.1094,621.2813 1000.3594,621.5469 Q1000.625,621.7969 1000.625,622.1406 Q1000.625,622.4844 1000.2813,622.8906 Q999.7813,623.4688 998.9844,623.7969 Q997.9063,624.25 996.6094,624.25 Q995.0938,624.25 993.8906,623.625 Q992.9063,623.125 992.2188,622.0625 Q991.5313,620.9844 991.5313,619.7031 L991.5313,618.5469 Q991.5313,617.2188 992.1406,616.0781 Q992.7656,614.9219 993.8594,614.3125 Q994.9531,613.6875 996.1875,613.6875 Q996.9219,613.6875 997.5625,613.8594 Q998.2188,614.0156 998.7656,614.375 Z " fill="#000000"/><text fill="#000000" font-family="sans-serif" font-size="14" lengthAdjust="spacing" textLength="102" x="1010" y="624.2969">FormatMessage</text><line style="stroke:#181818;stroke-width:0.5;" x1="982" x2="1114" y1="634.5" y2="634.5"/><line style="stroke:#181818;stroke-width:0.5;" x1="982" x2="1114" y1="642.5" y2="642.5"/></g><!--class PostIt--><g id="elem_PostIt"><rect codeLine="39" fill="#F1F1F1" height="48" id="PostIt" rx="2.5" ry="2.5" style="stroke:#181818;stroke-width:0.5;" width="67" x="521.5" y="776"/><ellipse cx="536.5" cy="792" fill="#ADD1B2" rx="11" ry="11" style="stroke:#181818;stroke-width:1.0;"/><path d="M539.2656,787.875 Q539.4219,787.6563 539.6094,787.5469 Q539.7969,787.4375 540.0156,787.4375 Q540.3906,787.4375 540.625,787.7031 Q540.8594,787.9531 540.8594,788.5625 L540.8594,790.0156 Q540.8594,790.625 540.625,790.8906 Q540.3906,791.1563 540.0156,791.1563 Q539.6719,791.1563 539.4688,790.9531 Q539.2656,790.7656 539.1563,790.25 Q539.1094,789.8906 538.9219,789.7031 Q538.5938,789.3281 537.9844,789.1094 Q537.375,788.8906 536.75,788.8906 Q535.9844,788.8906 535.3438,789.2188 Q534.7188,789.5469 534.2188,790.2969 Q533.7344,791.0469 533.7344,792.0781 L533.7344,793.1719 Q533.7344,794.4063 534.625,795.2344 Q535.5156,796.0469 537.1094,796.0469 Q538.0469,796.0469 538.7031,795.7969 Q539.0938,795.6406 539.5156,795.2031 Q539.7813,794.9375 539.9219,794.8594 Q540.0781,794.7813 540.2813,794.7813 Q540.6094,794.7813 540.8594,795.0469 Q541.125,795.2969 541.125,795.6406 Q541.125,795.9844 540.7813,796.3906 Q540.2813,796.9688 539.4844,797.2969 Q538.4063,797.75 537.1094,797.75 Q535.5938,797.75 534.3906,797.125 Q533.4063,796.625 532.7188,795.5625 Q532.0313,794.4844 532.0313,793.2031 L532.0313,792.0469 Q532.0313,790.7188 532.6406,789.5781 Q533.2656,788.4219 534.3594,787.8125 Q535.4531,787.1875 536.6875,787.1875 Q537.4219,787.1875 538.0625,787.3594 Q538.7188,787.5156 539.2656,787.875 Z " fill="#000000"/><text fill="#000000" font-family="sans-serif" font-size="14" lengthAdjust="spacing" textLength="35" x="550.5" y="797.7969">PostIt</text><line style="stroke:#181818;stroke-width:0.5;" x1="522.5" x2="587.5" y1="808" y2="808"/><line style="stroke:#181818;stroke-width:0.5;" x1="522.5" x2="587.5" y1="816" y2="816"/></g><!--class PostItLog--><g id="elem_PostItLog"><rect codeLine="41" fill="#F1F1F1" height="48" id="PostItLog" rx="2.5" ry="2.5" style="stroke:#181818;stroke-width:0.5;" width="91" x="623.5" y="776"/><ellipse cx="638.5" cy="792" fill="#ADD1B2" rx="11" ry="11" style="stroke:#181818;stroke-width:1.0;"/><path d="M641.2656,787.875 Q641.4219,787.6563 641.6094,787.5469 Q641.7969,787.4375 642.0156,787.4375 Q642.3906,787.4375 642.625,787.7031 Q642.8594,787.9531 642.8594,788.5625 L642.8594,790.0156 Q642.8594,790.625 642.625,790.8906 Q642.3906,791.1563 642.0156,791.1563 Q641.6719,791.1563 641.4688,790.9531 Q641.2656,790.7656 641.1563,790.25 Q641.1094,789.8906 640.9219,789.7031 Q640.5938,789.3281 639.9844,789.1094 Q639.375,788.8906 638.75,788.8906 Q637.9844,788.8906 637.3438,789.2188 Q636.7188,789.5469 636.2188,790.2969 Q635.7344,791.0469 635.7344,792.0781 L635.7344,793.1719 Q635.7344,794.4063 636.625,795.2344 Q637.5156,796.0469 639.1094,796.0469 Q640.0469,796.0469 640.7031,795.7969 Q641.0938,795.6406 641.5156,795.2031 Q641.7813,794.9375 641.9219,794.8594 Q642.0781,794.7813 642.2813,794.7813 Q642.6094,794.7813 642.8594,795.0469 Q643.125,795.2969 643.125,795.6406 Q643.125,795.9844 642.7813,796.3906 Q642.2813,796.9688 641.4844,797.2969 Q640.4063,797.75 639.1094,797.75 Q637.5938,797.75 636.3906,797.125 Q635.4063,796.625 634.7188,795.5625 Q634.0313,794.4844 634.0313,793.2031 L634.0313,792.0469 Q634.0313,790.7188 634.6406,789.5781 Q635.2656,788.4219 636.3594,787.8125 Q637.4531,787.1875 638.6875,787.1875 Q639.4219,787.1875 640.0625,787.3594 Q640.7188,787.5156 641.2656,787.875 Z " fill="#000000"/><text fill="#000000" font-family="sans-serif" font-size="14" lengthAdjust="spacing" textLength="59" x="652.5" y="797.7969">PostItLog</text><line style="stroke:#181818;stroke-width:0.5;" x1="624.5" x2="713.5" y1="808" y2="808"/><line style="stroke:#181818;stroke-width:0.5;" x1="624.5" x2="713.5" y1="816" y2="816"/></g><!--class CellLog--><g id="elem_CellLog"><rect codeLine="43" fill="#F1F1F1" height="48" id="CellLog" rx="2.5" ry="2.5" style="stroke:#181818;stroke-width:0.5;" width="80" x="750" y="776"/><ellipse cx="765" cy="792" fill="#ADD1B2" rx="11" ry="11" style="stroke:#181818;stroke-width:1.0;"/><path d="M767.7656,787.875 Q767.9219,787.6563 768.1094,787.5469 Q768.2969,787.4375 768.5156,787.4375 Q768.8906,787.4375 769.125,787.7031 Q769.3594,787.9531 769.3594,788.5625 L769.3594,790.0156 Q769.3594,790.625 769.125,790.8906 Q768.8906,791.1563 768.5156,791.1563 Q768.1719,791.1563 767.9688,790.9531 Q767.7656,790.7656 767.6563,790.25 Q767.6094,789.8906 767.4219,789.7031 Q767.0938,789.3281 766.4844,789.1094 Q765.875,788.8906 765.25,788.8906 Q764.4844,788.8906 763.8438,789.2188 Q763.2188,789.5469 762.7188,790.2969 Q762.2344,791.0469 762.2344,792.0781 L762.2344,793.1719 Q762.2344,794.4063 763.125,795.2344 Q764.0156,796.0469 765.6094,796.0469 Q766.5469,796.0469 767.2031,795.7969 Q767.5938,795.6406 768.0156,795.2031 Q768.2813,794.9375 768.4219,794.8594 Q768.5781,794.7813 768.7813,794.7813 Q769.1094,794.7813 769.3594,795.0469 Q769.625,795.2969 769.625,795.6406 Q769.625,795.9844 769.2813,796.3906 Q768.7813,796.9688 767.9844,797.2969 Q766.9063,797.75 765.6094,797.75 Q764.0938,797.75 762.8906,797.125 Q761.9063,796.625 761.2188,795.5625 Q760.5313,794.4844 760.5313,793.2031 L760.5313,792.0469 Q760.5313,790.7188 761.1406,789.5781 Q761.7656,788.4219 762.8594,787.8125 Q763.9531,787.1875 765.1875,787.1875 Q765.9219,787.1875 766.5625,787.3594 Q767.2188,787.5156 767.7656,787.875 Z " fill="#000000"/><text fill="#000000" font-family="sans-serif" font-size="14" lengthAdjust="spacing" textLength="48" x="779" y="797.7969">CellLog</text><line style="stroke:#181818;stroke-width:0.5;" x1="751" x2="829" y1="808" y2="808"/><line style="stroke:#181818;stroke-width:0.5;" x1="751" x2="829" y1="816" y2="816"/></g><!--class SharedBoardLog--><g id="elem_SharedBoardLog"><rect codeLine="45" fill="#F1F1F1" height="48" id="SharedBoardLog" rx="2.5" ry="2.5" style="stroke:#181818;stroke-width:0.5;" width="140" x="7" y="1160.5"/><ellipse cx="22" cy="1176.5" fill="#ADD1B2" rx="11" ry="11" style="stroke:#181818;stroke-width:1.0;"/><path d="M24.7656,1172.375 Q24.9219,1172.1563 25.1094,1172.0469 Q25.2969,1171.9375 25.5156,1171.9375 Q25.8906,1171.9375 26.125,1172.2031 Q26.3594,1172.4531 26.3594,1173.0625 L26.3594,1174.5156 Q26.3594,1175.125 26.125,1175.3906 Q25.8906,1175.6563 25.5156,1175.6563 Q25.1719,1175.6563 24.9688,1175.4531 Q24.7656,1175.2656 24.6563,1174.75 Q24.6094,1174.3906 24.4219,1174.2031 Q24.0938,1173.8281 23.4844,1173.6094 Q22.875,1173.3906 22.25,1173.3906 Q21.4844,1173.3906 20.8438,1173.7188 Q20.2188,1174.0469 19.7188,1174.7969 Q19.2344,1175.5469 19.2344,1176.5781 L19.2344,1177.6719 Q19.2344,1178.9063 20.125,1179.7344 Q21.0156,1180.5469 22.6094,1180.5469 Q23.5469,1180.5469 24.2031,1180.2969 Q24.5938,1180.1406 25.0156,1179.7031 Q25.2813,1179.4375 25.4219,1179.3594 Q25.5781,1179.2813 25.7813,1179.2813 Q26.1094,1179.2813 26.3594,1179.5469 Q26.625,1179.7969 26.625,1180.1406 Q26.625,1180.4844 26.2813,1180.8906 Q25.7813,1181.4688 24.9844,1181.7969 Q23.9063,1182.25 22.6094,1182.25 Q21.0938,1182.25 19.8906,1181.625 Q18.9063,1181.125 18.2188,1180.0625 Q17.5313,1178.9844 17.5313,1177.7031 L17.5313,1176.5469 Q17.5313,1175.2188 18.1406,1174.0781 Q18.7656,1172.9219 19.8594,1172.3125 Q20.9531,1171.6875 22.1875,1171.6875 Q22.9219,1171.6875 23.5625,1171.8594 Q24.2188,1172.0156 24.7656,1172.375 Z " fill="#000000"/><text fill="#000000" font-family="sans-serif" font-size="14" lengthAdjust="spacing" textLength="108" x="36" y="1182.2969">SharedBoardLog</text><line style="stroke:#181818;stroke-width:0.5;" x1="8" x2="146" y1="1192.5" y2="1192.5"/><line style="stroke:#181818;stroke-width:0.5;" x1="8" x2="146" y1="1200.5" y2="1200.5"/></g><!--class PersistenceContext--><g id="elem_PersistenceContext"><rect codeLine="47" fill="#F1F1F1" height="48" id="PersistenceContext" rx="2.5" ry="2.5" style="stroke:#181818;stroke-width:0.5;" width="154" x="865" y="776"/><ellipse cx="880" cy="792" fill="#ADD1B2" rx="11" ry="11" style="stroke:#181818;stroke-width:1.0;"/><path d="M882.7656,787.875 Q882.9219,787.6563 883.1094,787.5469 Q883.2969,787.4375 883.5156,787.4375 Q883.8906,787.4375 884.125,787.7031 Q884.3594,787.9531 884.3594,788.5625 L884.3594,790.0156 Q884.3594,790.625 884.125,790.8906 Q883.8906,791.1563 883.5156,791.1563 Q883.1719,791.1563 882.9688,790.9531 Q882.7656,790.7656 882.6563,790.25 Q882.6094,789.8906 882.4219,789.7031 Q882.0938,789.3281 881.4844,789.1094 Q880.875,788.8906 880.25,788.8906 Q879.4844,788.8906 878.8438,789.2188 Q878.2188,789.5469 877.7188,790.2969 Q877.2344,791.0469 877.2344,792.0781 L877.2344,793.1719 Q877.2344,794.4063 878.125,795.2344 Q879.0156,796.0469 880.6094,796.0469 Q881.5469,796.0469 882.2031,795.7969 Q882.5938,795.6406 883.0156,795.2031 Q883.2813,794.9375 883.4219,794.8594 Q883.5781,794.7813 883.7813,794.7813 Q884.1094,794.7813 884.3594,795.0469 Q884.625,795.2969 884.625,795.6406 Q884.625,795.9844 884.2813,796.3906 Q883.7813,796.9688 882.9844,797.2969 Q881.9063,797.75 880.6094,797.75 Q879.0938,797.75 877.8906,797.125 Q876.9063,796.625 876.2188,795.5625 Q875.5313,794.4844 875.5313,793.2031 L875.5313,792.0469 Q875.5313,790.7188 876.1406,789.5781 Q876.7656,788.4219 877.8594,787.8125 Q878.9531,787.1875 880.1875,787.1875 Q880.9219,787.1875 881.5625,787.3594 Q882.2188,787.5156 882.7656,787.875 Z " fill="#000000"/><text fill="#000000" font-family="sans-serif" font-size="14" lengthAdjust="spacing" textLength="122" x="894" y="797.7969">PersistenceContext</text><line style="stroke:#181818;stroke-width:0.5;" x1="866" x2="1018" y1="808" y2="808"/><line style="stroke:#181818;stroke-width:0.5;" x1="866" x2="1018" y1="816" y2="816"/></g><!--class RepositoryFactory--><g id="elem_RepositoryFactory"><rect codeLine="49" fill="#F1F1F1" height="178.3477" id="RepositoryFactory" rx="2.5" ry="2.5" style="stroke:#181818;stroke-width:0.5;" width="210" x="837" y="885"/><ellipse cx="879.9" cy="901" fill="#B4A7E5" rx="11" ry="11" style="stroke:#181818;stroke-width:1.0;"/><path d="M880.8531,897.6406 L880.8531,904.2969 L882.5719,904.2969 Q883.1813,904.2969 883.4469,904.5313 Q883.7125,904.7656 883.7125,905.1563 Q883.7125,905.5313 883.4469,905.7656 Q883.1813,906 882.5719,906 L877.4313,906 Q876.8219,906 876.5563,905.7656 Q876.2906,905.5313 876.2906,905.1406 Q876.2906,904.7656 876.5563,904.5313 Q876.8219,904.2969 877.4313,904.2969 L879.15,904.2969 L879.15,897.6406 L877.4313,897.6406 Q876.8219,897.6406 876.5563,897.4063 Q876.2906,897.1719 876.2906,896.7813 Q876.2906,896.4063 876.5563,896.1719 Q876.8219,895.9375 877.4313,895.9375 L882.5719,895.9375 Q883.1813,895.9375 883.4469,896.1719 Q883.7125,896.4063 883.7125,896.7813 Q883.7125,897.1719 883.4469,897.4063 Q883.1813,897.6406 882.5719,897.6406 L880.8531,897.6406 Z " fill="#000000"/><text fill="#000000" font-family="sans-serif" font-size="14" font-style="italic" lengthAdjust="spacing" textLength="116" x="900.1" y="906.7969">RepositoryFactory</text><line style="stroke:#181818;stroke-width:0.5;" x1="838" x2="1046" y1="917" y2="917"/><line style="stroke:#181818;stroke-width:0.5;" x1="838" x2="1046" y1="925" y2="925"/><ellipse cx="848" cy="939.8105" fill="#84BE84" rx="3" ry="3" style="stroke:#038048;stroke-width:1.0;"/><text fill="#000000" font-family="sans-serif" font-size="14" lengthAdjust="spacing" textLength="146" x="857" y="944.1074">getRepositoryFactory()</text><ellipse cx="848" cy="958.4316" fill="#84BE84" rx="3" ry="3" style="stroke:#038048;stroke-width:1.0;"/><text fill="#000000" font-family="sans-serif" font-size="14" lengthAdjust="spacing" textLength="160" x="857" y="962.7285">sharedBoardRepository()</text><ellipse cx="848" cy="977.0527" fill="#84BE84" rx="3" ry="3" style="stroke:#038048;stroke-width:1.0;"/><text fill="#000000" font-family="sans-serif" font-size="14" lengthAdjust="spacing" textLength="99" x="857" y="981.3496">cellRepository()</text><ellipse cx="848" cy="995.6738" fill="#84BE84" rx="3" ry="3" style="stroke:#038048;stroke-width:1.0;"/><text fill="#000000" font-family="sans-serif" font-size="14" lengthAdjust="spacing" textLength="112" x="857" y="999.9707">postItRepository()</text><ellipse cx="848" cy="1014.2949" fill="#84BE84" rx="3" ry="3" style="stroke:#038048;stroke-width:1.0;"/><text fill="#000000" font-family="sans-serif" font-size="14" lengthAdjust="spacing" textLength="184" x="857" y="1018.5918">sharedBoardLogRepository()</text><ellipse cx="848" cy="1032.916" fill="#84BE84" rx="3" ry="3" style="stroke:#038048;stroke-width:1.0;"/><text fill="#000000" font-family="sans-serif" font-size="14" lengthAdjust="spacing" textLength="123" x="857" y="1037.2129">cellLogRepository()</text><ellipse cx="848" cy="1051.5371" fill="#84BE84" rx="3" ry="3" style="stroke:#038048;stroke-width:1.0;"/><text fill="#000000" font-family="sans-serif" font-size="14" lengthAdjust="spacing" textLength="136" x="857" y="1055.834">postItLogRepository()</text></g><!--class SharedBoardRepository--><g id="elem_SharedBoardRepository"><rect codeLine="59" fill="#F1F1F1" height="85.2422" id="SharedBoardRepository" rx="2.5" ry="2.5" style="stroke:#181818;stroke-width:0.5;" width="389" x="182.5" y="1142"/><ellipse cx="296.75" cy="1158" fill="#B4A7E5" rx="11" ry="11" style="stroke:#181818;stroke-width:1.0;"/><path d="M297.7031,1154.6406 L297.7031,1161.2969 L299.4219,1161.2969 Q300.0313,1161.2969 300.2969,1161.5313 Q300.5625,1161.7656 300.5625,1162.1563 Q300.5625,1162.5313 300.2969,1162.7656 Q300.0313,1163 299.4219,1163 L294.2813,1163 Q293.6719,1163 293.4063,1162.7656 Q293.1406,1162.5313 293.1406,1162.1406 Q293.1406,1161.7656 293.4063,1161.5313 Q293.6719,1161.2969 294.2813,1161.2969 L296,1161.2969 L296,1154.6406 L294.2813,1154.6406 Q293.6719,1154.6406 293.4063,1154.4063 Q293.1406,1154.1719 293.1406,1153.7813 Q293.1406,1153.4063 293.4063,1153.1719 Q293.6719,1152.9375 294.2813,1152.9375 L299.4219,1152.9375 Q300.0313,1152.9375 300.2969,1153.1719 Q300.5625,1153.4063 300.5625,1153.7813 Q300.5625,1154.1719 300.2969,1154.4063 Q300.0313,1154.6406 299.4219,1154.6406 L297.7031,1154.6406 Z " fill="#000000"/><text fill="#000000" font-family="sans-serif" font-size="14" font-style="italic" lengthAdjust="spacing" textLength="152" x="317.25" y="1163.7969">SharedBoardRepository</text><line style="stroke:#181818;stroke-width:0.5;" x1="183.5" x2="570.5" y1="1174" y2="1174"/><line style="stroke:#181818;stroke-width:0.5;" x1="183.5" x2="570.5" y1="1182" y2="1182"/><ellipse cx="193.5" cy="1196.8105" fill="#84BE84" rx="3" ry="3" style="stroke:#038048;stroke-width:1.0;"/><text fill="#000000" font-family="sans-serif" font-size="14" lengthAdjust="spacing" textLength="219" x="202.5" y="1201.1074">findWriteAdminPermissionBoards()</text><ellipse cx="193.5" cy="1215.4316" fill="#84BE84" rx="3" ry="3" style="stroke:#038048;stroke-width:1.0;"/><text fill="#000000" font-family="sans-serif" font-size="14" lengthAdjust="spacing" textLength="363" x="202.5" y="1219.7285">findSharedBoardLogContainsSharedBoard(sharedBoard)</text></g><!--class CellRepository--><g id="elem_CellRepository"><rect codeLine="64" fill="#F1F1F1" height="85.2422" id="CellRepository" rx="2.5" ry="2.5" style="stroke:#181818;stroke-width:0.5;" width="232" x="607" y="1142"/><ellipse cx="672.75" cy="1158" fill="#B4A7E5" rx="11" ry="11" style="stroke:#181818;stroke-width:1.0;"/><path d="M673.7031,1154.6406 L673.7031,1161.2969 L675.4219,1161.2969 Q676.0313,1161.2969 676.2969,1161.5313 Q676.5625,1161.7656 676.5625,1162.1563 Q676.5625,1162.5313 676.2969,1162.7656 Q676.0313,1163 675.4219,1163 L670.2813,1163 Q669.6719,1163 669.4063,1162.7656 Q669.1406,1162.5313 669.1406,1162.1406 Q669.1406,1161.7656 669.4063,1161.5313 Q669.6719,1161.2969 670.2813,1161.2969 L672,1161.2969 L672,1154.6406 L670.2813,1154.6406 Q669.6719,1154.6406 669.4063,1154.4063 Q669.1406,1154.1719 669.1406,1153.7813 Q669.1406,1153.4063 669.4063,1153.1719 Q669.6719,1152.9375 670.2813,1152.9375 L675.4219,1152.9375 Q676.0313,1152.9375 676.2969,1153.1719 Q676.5625,1153.4063 676.5625,1153.7813 Q676.5625,1154.1719 676.2969,1154.4063 Q676.0313,1154.6406 675.4219,1154.6406 L673.7031,1154.6406 Z " fill="#000000"/><text fill="#000000" font-family="sans-serif" font-size="14" font-style="italic" lengthAdjust="spacing" textLength="92" x="693.25" y="1163.7969">CellRepository</text><line style="stroke:#181818;stroke-width:0.5;" x1="608" x2="838" y1="1174" y2="1174"/><line style="stroke:#181818;stroke-width:0.5;" x1="608" x2="838" y1="1182" y2="1182"/><ellipse cx="618" cy="1196.8105" fill="#84BE84" rx="3" ry="3" style="stroke:#038048;stroke-width:1.0;"/><text fill="#000000" font-family="sans-serif" font-size="14" lengthAdjust="spacing" textLength="206" x="627" y="1201.1074">findOccupiedCells(sharedBoard)</text><ellipse cx="618" cy="1215.4316" fill="#84BE84" rx="3" ry="3" style="stroke:#038048;stroke-width:1.0;"/><text fill="#000000" font-family="sans-serif" font-size="14" lengthAdjust="spacing" textLength="61" x="627" y="1219.7285">save(cell)</text></g><!--class PostItRepository--><g id="elem_PostItRepository"><rect codeLine="69" fill="#F1F1F1" height="66.6211" id="PostItRepository" rx="2.5" ry="2.5" style="stroke:#181818;stroke-width:0.5;" width="136" x="874" y="1151"/><ellipse cx="889" cy="1167" fill="#B4A7E5" rx="11" ry="11" style="stroke:#181818;stroke-width:1.0;"/><path d="M889.9531,1163.6406 L889.9531,1170.2969 L891.6719,1170.2969 Q892.2813,1170.2969 892.5469,1170.5313 Q892.8125,1170.7656 892.8125,1171.1563 Q892.8125,1171.5313 892.5469,1171.7656 Q892.2813,1172 891.6719,1172 L886.5313,1172 Q885.9219,1172 885.6563,1171.7656 Q885.3906,1171.5313 885.3906,1171.1406 Q885.3906,1170.7656 885.6563,1170.5313 Q885.9219,1170.2969 886.5313,1170.2969 L888.25,1170.2969 L888.25,1163.6406 L886.5313,1163.6406 Q885.9219,1163.6406 885.6563,1163.4063 Q885.3906,1163.1719 885.3906,1162.7813 Q885.3906,1162.4063 885.6563,1162.1719 Q885.9219,1161.9375 886.5313,1161.9375 L891.6719,1161.9375 Q892.2813,1161.9375 892.5469,1162.1719 Q892.8125,1162.4063 892.8125,1162.7813 Q892.8125,1163.1719 892.5469,1163.4063 Q892.2813,1163.6406 891.6719,1163.6406 L889.9531,1163.6406 Z " fill="#000000"/><text fill="#000000" font-family="sans-serif" font-size="14" font-style="italic" lengthAdjust="spacing" textLength="104" x="903" y="1172.7969">PostItRepository</text><line style="stroke:#181818;stroke-width:0.5;" x1="875" x2="1009" y1="1183" y2="1183"/><line style="stroke:#181818;stroke-width:0.5;" x1="875" x2="1009" y1="1191" y2="1191"/><ellipse cx="885" cy="1205.8105" fill="#84BE84" rx="3" ry="3" style="stroke:#038048;stroke-width:1.0;"/><text fill="#000000" font-family="sans-serif" font-size="14" lengthAdjust="spacing" textLength="74" x="894" y="1210.1074">save(postIt)</text></g><!--class SharedBoardLogRepository--><g id="elem_SharedBoardLogRepository"><rect codeLine="73" fill="#F1F1F1" height="66.6211" id="SharedBoardLogRepository" rx="2.5" ry="2.5" style="stroke:#181818;stroke-width:0.5;" width="389" x="1048.5" y="1151"/><ellipse cx="1150.75" cy="1167" fill="#B4A7E5" rx="11" ry="11" style="stroke:#181818;stroke-width:1.0;"/><path d="M1151.7031,1163.6406 L1151.7031,1170.2969 L1153.4219,1170.2969 Q1154.0313,1170.2969 1154.2969,1170.5313 Q1154.5625,1170.7656 1154.5625,1171.1563 Q1154.5625,1171.5313 1154.2969,1171.7656 Q1154.0313,1172 1153.4219,1172 L1148.2813,1172 Q1147.6719,1172 1147.4063,1171.7656 Q1147.1406,1171.5313 1147.1406,1171.1406 Q1147.1406,1170.7656 1147.4063,1170.5313 Q1147.6719,1170.2969 1148.2813,1170.2969 L1150,1170.2969 L1150,1163.6406 L1148.2813,1163.6406 Q1147.6719,1163.6406 1147.4063,1163.4063 Q1147.1406,1163.1719 1147.1406,1162.7813 Q1147.1406,1162.4063 1147.4063,1162.1719 Q1147.6719,1161.9375 1148.2813,1161.9375 L1153.4219,1161.9375 Q1154.0313,1161.9375 1154.2969,1162.1719 Q1154.5625,1162.4063 1154.5625,1162.7813 Q1154.5625,1163.1719 1154.2969,1163.4063 Q1154.0313,1163.6406 1153.4219,1163.6406 L1151.7031,1163.6406 Z " fill="#000000"/><text fill="#000000" font-family="sans-serif" font-size="14" font-style="italic" lengthAdjust="spacing" textLength="176" x="1171.25" y="1172.7969">SharedBoardLogRepository</text><line style="stroke:#181818;stroke-width:0.5;" x1="1049.5" x2="1436.5" y1="1183" y2="1183"/><line style="stroke:#181818;stroke-width:0.5;" x1="1049.5" x2="1436.5" y1="1191" y2="1191"/><ellipse cx="1059.5" cy="1205.8105" fill="#84BE84" rx="3" ry="3" style="stroke:#038048;stroke-width:1.0;"/><text fill="#000000" font-family="sans-serif" font-size="14" lengthAdjust="spacing" textLength="363" x="1068.5" y="1210.1074">findSharedBoardLogContainsSharedBoard(sharedBoard)</text></g><!--class CellLogRepository--><g id="elem_CellLogRepository"><rect codeLine="77" fill="#F1F1F1" height="85.2422" id="CellLogRepository" rx="2.5" ry="2.5" style="stroke:#181818;stroke-width:0.5;" width="208" x="1476" y="1142"/><ellipse cx="1518" cy="1158" fill="#B4A7E5" rx="11" ry="11" style="stroke:#181818;stroke-width:1.0;"/><path d="M1518.9531,1154.6406 L1518.9531,1161.2969 L1520.6719,1161.2969 Q1521.2813,1161.2969 1521.5469,1161.5313 Q1521.8125,1161.7656 1521.8125,1162.1563 Q1521.8125,1162.5313 1521.5469,1162.7656 Q1521.2813,1163 1520.6719,1163 L1515.5313,1163 Q1514.9219,1163 1514.6563,1162.7656 Q1514.3906,1162.5313 1514.3906,1162.1406 Q1514.3906,1161.7656 1514.6563,1161.5313 Q1514.9219,1161.2969 1515.5313,1161.2969 L1517.25,1161.2969 L1517.25,1154.6406 L1515.5313,1154.6406 Q1514.9219,1154.6406 1514.6563,1154.4063 Q1514.3906,1154.1719 1514.3906,1153.7813 Q1514.3906,1153.4063 1514.6563,1153.1719 Q1514.9219,1152.9375 1515.5313,1152.9375 L1520.6719,1152.9375 Q1521.2813,1152.9375 1521.5469,1153.1719 Q1521.8125,1153.4063 1521.8125,1153.7813 Q1521.8125,1154.1719 1521.5469,1154.4063 Q1521.2813,1154.6406 1520.6719,1154.6406 L1518.9531,1154.6406 Z " fill="#000000"/><text fill="#000000" font-family="sans-serif" font-size="14" font-style="italic" lengthAdjust="spacing" textLength="116" x="1538" y="1163.7969">CellLogRepository</text><line style="stroke:#181818;stroke-width:0.5;" x1="1477" x2="1683" y1="1174" y2="1174"/><line style="stroke:#181818;stroke-width:0.5;" x1="1477" x2="1683" y1="1182" y2="1182"/><ellipse cx="1487" cy="1196.8105" fill="#84BE84" rx="3" ry="3" style="stroke:#038048;stroke-width:1.0;"/><text fill="#000000" font-family="sans-serif" font-size="14" lengthAdjust="spacing" textLength="182" x="1496" y="1201.1074">findCellLogContainsCell(cell)</text><ellipse cx="1487" cy="1215.4316" fill="#84BE84" rx="3" ry="3" style="stroke:#038048;stroke-width:1.0;"/><text fill="#000000" font-family="sans-serif" font-size="14" lengthAdjust="spacing" textLength="85" x="1496" y="1219.7285">save(cellLog)</text></g><!--class PostItLogRepository--><g id="elem_PostItLogRepository"><rect codeLine="82" fill="#F1F1F1" height="66.6211" id="PostItLogRepository" rx="2.5" ry="2.5" style="stroke:#181818;stroke-width:0.5;" width="160" x="1726" y="1151"/><ellipse cx="1741" cy="1167" fill="#B4A7E5" rx="11" ry="11" style="stroke:#181818;stroke-width:1.0;"/><path d="M1741.9531,1163.6406 L1741.9531,1170.2969 L1743.6719,1170.2969 Q1744.2813,1170.2969 1744.5469,1170.5313 Q1744.8125,1170.7656 1744.8125,1171.1563 Q1744.8125,1171.5313 1744.5469,1171.7656 Q1744.2813,1172 1743.6719,1172 L1738.5313,1172 Q1737.9219,1172 1737.6563,1171.7656 Q1737.3906,1171.5313 1737.3906,1171.1406 Q1737.3906,1170.7656 1737.6563,1170.5313 Q1737.9219,1170.2969 1738.5313,1170.2969 L1740.25,1170.2969 L1740.25,1163.6406 L1738.5313,1163.6406 Q1737.9219,1163.6406 1737.6563,1163.4063 Q1737.3906,1163.1719 1737.3906,1162.7813 Q1737.3906,1162.4063 1737.6563,1162.1719 Q1737.9219,1161.9375 1738.5313,1161.9375 L1743.6719,1161.9375 Q1744.2813,1161.9375 1744.5469,1162.1719 Q1744.8125,1162.4063 1744.8125,1162.7813 Q1744.8125,1163.1719 1744.5469,1163.4063 Q1744.2813,1163.6406 1743.6719,1163.6406 L1741.9531,1163.6406 Z " fill="#000000"/><text fill="#000000" font-family="sans-serif" font-size="14" font-style="italic" lengthAdjust="spacing" textLength="128" x="1755" y="1172.7969">PostItLogRepository</text><line style="stroke:#181818;stroke-width:0.5;" x1="1727" x2="1885" y1="1183" y2="1183"/><line style="stroke:#181818;stroke-width:0.5;" x1="1727" x2="1885" y1="1191" y2="1191"/><ellipse cx="1737" cy="1205.8105" fill="#84BE84" rx="3" ry="3" style="stroke:#038048;stroke-width:1.0;"/><text fill="#000000" font-family="sans-serif" font-size="14" lengthAdjust="spacing" textLength="98" x="1746" y="1210.1074">save(postItLog)</text></g><!--class JPASharedBoardRepository--><g id="elem_JPASharedBoardRepository"><rect codeLine="86" fill="#F1F1F1" height="85.2422" id="JPASharedBoardRepository" rx="2.5" ry="2.5" style="stroke:#181818;stroke-width:0.5;" width="389" x="167.5" y="1315.5"/><ellipse cx="269.75" cy="1331.5" fill="#ADD1B2" rx="11" ry="11" style="stroke:#181818;stroke-width:1.0;"/><path d="M272.5156,1327.375 Q272.6719,1327.1563 272.8594,1327.0469 Q273.0469,1326.9375 273.2656,1326.9375 Q273.6406,1326.9375 273.875,1327.2031 Q274.1094,1327.4531 274.1094,1328.0625 L274.1094,1329.5156 Q274.1094,1330.125 273.875,1330.3906 Q273.6406,1330.6563 273.2656,1330.6563 Q272.9219,1330.6563 272.7188,1330.4531 Q272.5156,1330.2656 272.4063,1329.75 Q272.3594,1329.3906 272.1719,1329.2031 Q271.8438,1328.8281 271.2344,1328.6094 Q270.625,1328.3906 270,1328.3906 Q269.2344,1328.3906 268.5938,1328.7188 Q267.9688,1329.0469 267.4688,1329.7969 Q266.9844,1330.5469 266.9844,1331.5781 L266.9844,1332.6719 Q266.9844,1333.9063 267.875,1334.7344 Q268.7656,1335.5469 270.3594,1335.5469 Q271.2969,1335.5469 271.9531,1335.2969 Q272.3438,1335.1406 272.7656,1334.7031 Q273.0313,1334.4375 273.1719,1334.3594 Q273.3281,1334.2813 273.5313,1334.2813 Q273.8594,1334.2813 274.1094,1334.5469 Q274.375,1334.7969 274.375,1335.1406 Q274.375,1335.4844 274.0313,1335.8906 Q273.5313,1336.4688 272.7344,1336.7969 Q271.6563,1337.25 270.3594,1337.25 Q268.8438,1337.25 267.6406,1336.625 Q266.6563,1336.125 265.9688,1335.0625 Q265.2813,1333.9844 265.2813,1332.7031 L265.2813,1331.5469 Q265.2813,1330.2188 265.8906,1329.0781 Q266.5156,1327.9219 267.6094,1327.3125 Q268.7031,1326.6875 269.9375,1326.6875 Q270.6719,1326.6875 271.3125,1326.8594 Q271.9688,1327.0156 272.5156,1327.375 Z " fill="#000000"/><text fill="#000000" font-family="sans-serif" font-size="14" lengthAdjust="spacing" textLength="176" x="290.25" y="1337.2969">JPASharedBoardRepository</text><line style="stroke:#181818;stroke-width:0.5;" x1="168.5" x2="555.5" y1="1347.5" y2="1347.5"/><line style="stroke:#181818;stroke-width:0.5;" x1="168.5" x2="555.5" y1="1355.5" y2="1355.5"/><ellipse cx="178.5" cy="1370.3105" fill="#84BE84" rx="3" ry="3" style="stroke:#038048;stroke-width:1.0;"/><text fill="#000000" font-family="sans-serif" font-size="14" lengthAdjust="spacing" textLength="219" x="187.5" y="1374.6074">findWriteAdminPermissionBoards()</text><ellipse cx="178.5" cy="1388.9316" fill="#84BE84" rx="3" ry="3" style="stroke:#038048;stroke-width:1.0;"/><text fill="#000000" font-family="sans-serif" font-size="14" lengthAdjust="spacing" textLength="363" x="187.5" y="1393.2285">findSharedBoardLogContainsSharedBoard(sharedBoard)</text></g><!--class JPACellRepository--><g id="elem_JPACellRepository"><rect codeLine="91" fill="#F1F1F1" height="103.8633" id="JPACellRepository" rx="2.5" ry="2.5" style="stroke:#181818;stroke-width:0.5;" width="232" x="592" y="1306"/><ellipse cx="645.75" cy="1322" fill="#ADD1B2" rx="11" ry="11" style="stroke:#181818;stroke-width:1.0;"/><path d="M648.5156,1317.875 Q648.6719,1317.6563 648.8594,1317.5469 Q649.0469,1317.4375 649.2656,1317.4375 Q649.6406,1317.4375 649.875,1317.7031 Q650.1094,1317.9531 650.1094,1318.5625 L650.1094,1320.0156 Q650.1094,1320.625 649.875,1320.8906 Q649.6406,1321.1563 649.2656,1321.1563 Q648.9219,1321.1563 648.7188,1320.9531 Q648.5156,1320.7656 648.4063,1320.25 Q648.3594,1319.8906 648.1719,1319.7031 Q647.8438,1319.3281 647.2344,1319.1094 Q646.625,1318.8906 646,1318.8906 Q645.2344,1318.8906 644.5938,1319.2188 Q643.9688,1319.5469 643.4688,1320.2969 Q642.9844,1321.0469 642.9844,1322.0781 L642.9844,1323.1719 Q642.9844,1324.4063 643.875,1325.2344 Q644.7656,1326.0469 646.3594,1326.0469 Q647.2969,1326.0469 647.9531,1325.7969 Q648.3438,1325.6406 648.7656,1325.2031 Q649.0313,1324.9375 649.1719,1324.8594 Q649.3281,1324.7813 649.5313,1324.7813 Q649.8594,1324.7813 650.1094,1325.0469 Q650.375,1325.2969 650.375,1325.6406 Q650.375,1325.9844 650.0313,1326.3906 Q649.5313,1326.9688 648.7344,1327.2969 Q647.6563,1327.75 646.3594,1327.75 Q644.8438,1327.75 643.6406,1327.125 Q642.6563,1326.625 641.9688,1325.5625 Q641.2813,1324.4844 641.2813,1323.2031 L641.2813,1322.0469 Q641.2813,1320.7188 641.8906,1319.5781 Q642.5156,1318.4219 643.6094,1317.8125 Q644.7031,1317.1875 645.9375,1317.1875 Q646.6719,1317.1875 647.3125,1317.3594 Q647.9688,1317.5156 648.5156,1317.875 Z " fill="#000000"/><text fill="#000000" font-family="sans-serif" font-size="14" lengthAdjust="spacing" textLength="116" x="666.25" y="1327.7969">JPACellRepository</text><line style="stroke:#181818;stroke-width:0.5;" x1="593" x2="823" y1="1338" y2="1338"/><line style="stroke:#181818;stroke-width:0.5;" x1="593" x2="823" y1="1346" y2="1346"/><ellipse cx="603" cy="1360.8105" fill="#84BE84" rx="3" ry="3" style="stroke:#038048;stroke-width:1.0;"/><text fill="#000000" font-family="sans-serif" font-size="14" lengthAdjust="spacing" textLength="206" x="612" y="1365.1074">findOccupiedCells(sharedBoard)</text><ellipse cx="603" cy="1379.4316" fill="#84BE84" rx="3" ry="3" style="stroke:#038048;stroke-width:1.0;"/><text fill="#000000" font-family="sans-serif" font-size="14" lengthAdjust="spacing" textLength="68" x="612" y="1383.7285">findCell(id)</text><ellipse cx="603" cy="1398.0527" fill="#84BE84" rx="3" ry="3" style="stroke:#038048;stroke-width:1.0;"/><text fill="#000000" font-family="sans-serif" font-size="14" lengthAdjust="spacing" textLength="61" x="612" y="1402.3496">save(cell)</text></g><!--class JPAPostItRepository--><g id="elem_JPAPostItRepository"><rect codeLine="97" fill="#F1F1F1" height="66.6211" id="JPAPostItRepository" rx="2.5" ry="2.5" style="stroke:#181818;stroke-width:0.5;" width="159" x="859.5" y="1324.5"/><ellipse cx="874.5" cy="1340.5" fill="#ADD1B2" rx="11" ry="11" style="stroke:#181818;stroke-width:1.0;"/><path d="M877.2656,1336.375 Q877.4219,1336.1563 877.6094,1336.0469 Q877.7969,1335.9375 878.0156,1335.9375 Q878.3906,1335.9375 878.625,1336.2031 Q878.8594,1336.4531 878.8594,1337.0625 L878.8594,1338.5156 Q878.8594,1339.125 878.625,1339.3906 Q878.3906,1339.6563 878.0156,1339.6563 Q877.6719,1339.6563 877.4688,1339.4531 Q877.2656,1339.2656 877.1563,1338.75 Q877.1094,1338.3906 876.9219,1338.2031 Q876.5938,1337.8281 875.9844,1337.6094 Q875.375,1337.3906 874.75,1337.3906 Q873.9844,1337.3906 873.3438,1337.7188 Q872.7188,1338.0469 872.2188,1338.7969 Q871.7344,1339.5469 871.7344,1340.5781 L871.7344,1341.6719 Q871.7344,1342.9063 872.625,1343.7344 Q873.5156,1344.5469 875.1094,1344.5469 Q876.0469,1344.5469 876.7031,1344.2969 Q877.0938,1344.1406 877.5156,1343.7031 Q877.7813,1343.4375 877.9219,1343.3594 Q878.0781,1343.2813 878.2813,1343.2813 Q878.6094,1343.2813 878.8594,1343.5469 Q879.125,1343.7969 879.125,1344.1406 Q879.125,1344.4844 878.7813,1344.8906 Q878.2813,1345.4688 877.4844,1345.7969 Q876.4063,1346.25 875.1094,1346.25 Q873.5938,1346.25 872.3906,1345.625 Q871.4063,1345.125 870.7188,1344.0625 Q870.0313,1342.9844 870.0313,1341.7031 L870.0313,1340.5469 Q870.0313,1339.2188 870.6406,1338.0781 Q871.2656,1336.9219 872.3594,1336.3125 Q873.4531,1335.6875 874.6875,1335.6875 Q875.4219,1335.6875 876.0625,1335.8594 Q876.7188,1336.0156 877.2656,1336.375 Z " fill="#000000"/><text fill="#000000" font-family="sans-serif" font-size="14" lengthAdjust="spacing" textLength="127" x="888.5" y="1346.2969">JPAPostItRepository</text><line style="stroke:#181818;stroke-width:0.5;" x1="860.5" x2="1017.5" y1="1356.5" y2="1356.5"/><line style="stroke:#181818;stroke-width:0.5;" x1="860.5" x2="1017.5" y1="1364.5" y2="1364.5"/><ellipse cx="870.5" cy="1379.3105" fill="#84BE84" rx="3" ry="3" style="stroke:#038048;stroke-width:1.0;"/><text fill="#000000" font-family="sans-serif" font-size="14" lengthAdjust="spacing" textLength="74" x="879.5" y="1383.6074">save(postIt)</text></g><!--class JPASharedBoardLogRepository--><g id="elem_JPASharedBoardLogRepository"><rect codeLine="101" fill="#F1F1F1" height="66.6211" id="JPASharedBoardLogRepository" rx="2.5" ry="2.5" style="stroke:#181818;stroke-width:0.5;" width="389" x="1053.5" y="1324.5"/><ellipse cx="1143.75" cy="1340.5" fill="#ADD1B2" rx="11" ry="11" style="stroke:#181818;stroke-width:1.0;"/><path d="M1146.5156,1336.375 Q1146.6719,1336.1563 1146.8594,1336.0469 Q1147.0469,1335.9375 1147.2656,1335.9375 Q1147.6406,1335.9375 1147.875,1336.2031 Q1148.1094,1336.4531 1148.1094,1337.0625 L1148.1094,1338.5156 Q1148.1094,1339.125 1147.875,1339.3906 Q1147.6406,1339.6563 1147.2656,1339.6563 Q1146.9219,1339.6563 1146.7188,1339.4531 Q1146.5156,1339.2656 1146.4063,1338.75 Q1146.3594,1338.3906 1146.1719,1338.2031 Q1145.8438,1337.8281 1145.2344,1337.6094 Q1144.625,1337.3906 1144,1337.3906 Q1143.2344,1337.3906 1142.5938,1337.7188 Q1141.9688,1338.0469 1141.4688,1338.7969 Q1140.9844,1339.5469 1140.9844,1340.5781 L1140.9844,1341.6719 Q1140.9844,1342.9063 1141.875,1343.7344 Q1142.7656,1344.5469 1144.3594,1344.5469 Q1145.2969,1344.5469 1145.9531,1344.2969 Q1146.3438,1344.1406 1146.7656,1343.7031 Q1147.0313,1343.4375 1147.1719,1343.3594 Q1147.3281,1343.2813 1147.5313,1343.2813 Q1147.8594,1343.2813 1148.1094,1343.5469 Q1148.375,1343.7969 1148.375,1344.1406 Q1148.375,1344.4844 1148.0313,1344.8906 Q1147.5313,1345.4688 1146.7344,1345.7969 Q1145.6563,1346.25 1144.3594,1346.25 Q1142.8438,1346.25 1141.6406,1345.625 Q1140.6563,1345.125 1139.9688,1344.0625 Q1139.2813,1342.9844 1139.2813,1341.7031 L1139.2813,1340.5469 Q1139.2813,1339.2188 1139.8906,1338.0781 Q1140.5156,1336.9219 1141.6094,1336.3125 Q1142.7031,1335.6875 1143.9375,1335.6875 Q1144.6719,1335.6875 1145.3125,1335.8594 Q1145.9688,1336.0156 1146.5156,1336.375 Z " fill="#000000"/><text fill="#000000" font-family="sans-serif" font-size="14" lengthAdjust="spacing" textLength="200" x="1164.25" y="1346.2969">JPASharedBoardLogRepository</text><line style="stroke:#181818;stroke-width:0.5;" x1="1054.5" x2="1441.5" y1="1356.5" y2="1356.5"/><line style="stroke:#181818;stroke-width:0.5;" x1="1054.5" x2="1441.5" y1="1364.5" y2="1364.5"/><ellipse cx="1064.5" cy="1379.3105" fill="#84BE84" rx="3" ry="3" style="stroke:#038048;stroke-width:1.0;"/><text fill="#000000" font-family="sans-serif" font-size="14" lengthAdjust="spacing" textLength="363" x="1073.5" y="1383.6074">findSharedBoardLogContainsSharedBoard(sharedBoard)</text></g><!--class JPACellLogRepository--><g id="elem_JPACellLogRepository"><rect codeLine="105" fill="#F1F1F1" height="85.2422" id="JPACellLogRepository" rx="2.5" ry="2.5" style="stroke:#181818;stroke-width:0.5;" width="208" x="1478" y="1315.5"/><ellipse cx="1509.2" cy="1331.5" fill="#ADD1B2" rx="11" ry="11" style="stroke:#181818;stroke-width:1.0;"/><path d="M1511.9656,1327.375 Q1512.1219,1327.1563 1512.3094,1327.0469 Q1512.4969,1326.9375 1512.7156,1326.9375 Q1513.0906,1326.9375 1513.325,1327.2031 Q1513.5594,1327.4531 1513.5594,1328.0625 L1513.5594,1329.5156 Q1513.5594,1330.125 1513.325,1330.3906 Q1513.0906,1330.6563 1512.7156,1330.6563 Q1512.3719,1330.6563 1512.1688,1330.4531 Q1511.9656,1330.2656 1511.8563,1329.75 Q1511.8094,1329.3906 1511.6219,1329.2031 Q1511.2938,1328.8281 1510.6844,1328.6094 Q1510.075,1328.3906 1509.45,1328.3906 Q1508.6844,1328.3906 1508.0438,1328.7188 Q1507.4188,1329.0469 1506.9188,1329.7969 Q1506.4344,1330.5469 1506.4344,1331.5781 L1506.4344,1332.6719 Q1506.4344,1333.9063 1507.325,1334.7344 Q1508.2156,1335.5469 1509.8094,1335.5469 Q1510.7469,1335.5469 1511.4031,1335.2969 Q1511.7938,1335.1406 1512.2156,1334.7031 Q1512.4813,1334.4375 1512.6219,1334.3594 Q1512.7781,1334.2813 1512.9813,1334.2813 Q1513.3094,1334.2813 1513.5594,1334.5469 Q1513.825,1334.7969 1513.825,1335.1406 Q1513.825,1335.4844 1513.4813,1335.8906 Q1512.9813,1336.4688 1512.1844,1336.7969 Q1511.1063,1337.25 1509.8094,1337.25 Q1508.2938,1337.25 1507.0906,1336.625 Q1506.1063,1336.125 1505.4188,1335.0625 Q1504.7313,1333.9844 1504.7313,1332.7031 L1504.7313,1331.5469 Q1504.7313,1330.2188 1505.3406,1329.0781 Q1505.9656,1327.9219 1507.0594,1327.3125 Q1508.1531,1326.6875 1509.3875,1326.6875 Q1510.1219,1326.6875 1510.7625,1326.8594 Q1511.4188,1327.0156 1511.9656,1327.375 Z " fill="#000000"/><text fill="#000000" font-family="sans-serif" font-size="14" lengthAdjust="spacing" textLength="140" x="1526.8" y="1337.2969">JPACellLogRepository</text><line style="stroke:#181818;stroke-width:0.5;" x1="1479" x2="1685" y1="1347.5" y2="1347.5"/><line style="stroke:#181818;stroke-width:0.5;" x1="1479" x2="1685" y1="1355.5" y2="1355.5"/><ellipse cx="1489" cy="1370.3105" fill="#84BE84" rx="3" ry="3" style="stroke:#038048;stroke-width:1.0;"/><text fill="#000000" font-family="sans-serif" font-size="14" lengthAdjust="spacing" textLength="182" x="1498" y="1374.6074">findCellLogContainsCell(cell)</text><ellipse cx="1489" cy="1388.9316" fill="#84BE84" rx="3" ry="3" style="stroke:#038048;stroke-width:1.0;"/><text fill="#000000" font-family="sans-serif" font-size="14" lengthAdjust="spacing" textLength="85" x="1498" y="1393.2285">save(cellLog)</text></g><!--class JPAPostItLogRepository--><g id="elem_JPAPostItLogRepository"><rect codeLine="110" fill="#F1F1F1" height="66.6211" id="JPAPostItLogRepository" rx="2.5" ry="2.5" style="stroke:#181818;stroke-width:0.5;" width="183" x="1721.5" y="1324.5"/><ellipse cx="1736.5" cy="1340.5" fill="#ADD1B2" rx="11" ry="11" style="stroke:#181818;stroke-width:1.0;"/><path d="M1739.2656,1336.375 Q1739.4219,1336.1563 1739.6094,1336.0469 Q1739.7969,1335.9375 1740.0156,1335.9375 Q1740.3906,1335.9375 1740.625,1336.2031 Q1740.8594,1336.4531 1740.8594,1337.0625 L1740.8594,1338.5156 Q1740.8594,1339.125 1740.625,1339.3906 Q1740.3906,1339.6563 1740.0156,1339.6563 Q1739.6719,1339.6563 1739.4688,1339.4531 Q1739.2656,1339.2656 1739.1563,1338.75 Q1739.1094,1338.3906 1738.9219,1338.2031 Q1738.5938,1337.8281 1737.9844,1337.6094 Q1737.375,1337.3906 1736.75,1337.3906 Q1735.9844,1337.3906 1735.3438,1337.7188 Q1734.7188,1338.0469 1734.2188,1338.7969 Q1733.7344,1339.5469 1733.7344,1340.5781 L1733.7344,1341.6719 Q1733.7344,1342.9063 1734.625,1343.7344 Q1735.5156,1344.5469 1737.1094,1344.5469 Q1738.0469,1344.5469 1738.7031,1344.2969 Q1739.0938,1344.1406 1739.5156,1343.7031 Q1739.7813,1343.4375 1739.9219,1343.3594 Q1740.0781,1343.2813 1740.2813,1343.2813 Q1740.6094,1343.2813 1740.8594,1343.5469 Q1741.125,1343.7969 1741.125,1344.1406 Q1741.125,1344.4844 1740.7813,1344.8906 Q1740.2813,1345.4688 1739.4844,1345.7969 Q1738.4063,1346.25 1737.1094,1346.25 Q1735.5938,1346.25 1734.3906,1345.625 Q1733.4063,1345.125 1732.7188,1344.0625 Q1732.0313,1342.9844 1732.0313,1341.7031 L1732.0313,1340.5469 Q1732.0313,1339.2188 1732.6406,1338.0781 Q1733.2656,1336.9219 1734.3594,1336.3125 Q1735.4531,1335.6875 1736.6875,1335.6875 Q1737.4219,1335.6875 1738.0625,1335.8594 Q1738.7188,1336.0156 1739.2656,1336.375 Z " fill="#000000"/><text fill="#000000" font-family="sans-serif" font-size="14" lengthAdjust="spacing" textLength="151" x="1750.5" y="1346.2969">JPAPostItLogRepository</text><line style="stroke:#181818;stroke-width:0.5;" x1="1722.5" x2="1903.5" y1="1356.5" y2="1356.5"/><line style="stroke:#181818;stroke-width:0.5;" x1="1722.5" x2="1903.5" y1="1364.5" y2="1364.5"/><ellipse cx="1732.5" cy="1379.3105" fill="#84BE84" rx="3" ry="3" style="stroke:#038048;stroke-width:1.0;"/><text fill="#000000" font-family="sans-serif" font-size="14" lengthAdjust="spacing" textLength="98" x="1741.5" y="1383.6074">save(postItLog)</text></g><!--link Client to UpdatePostItUI--><g id="link_Client_UpdatePostItUI"><path codeLine="115" d="M750,74.28 C750,108.61 750,161.95 750,194.41 " fill="none" id="Client-to-UpdatePostItUI" style="stroke:#181818;stroke-width:1.0;stroke-dasharray:7.0,7.0;"/><polygon fill="#181818" points="750,199.44,754,190.44,750,194.44,746,190.44,750,199.44" style="stroke:#181818;stroke-width:1.0;"/><text fill="#000000" font-family="sans-serif" font-size="13" lengthAdjust="spacing" textLength="30" x="751" y="119.0283">Uses</text></g><!--link UpdatePostItUI to UpdatePostItController--><g id="link_UpdatePostItUI_UpdatePostItController"><path codeLine="118" d="M747.55,247.78 C744.48,276.89 739.13,327.74 734.96,367.35 " fill="none" id="UpdatePostItUI-to-UpdatePostItController" style="stroke:#181818;stroke-width:1.0;"/><polygon fill="#181818" points="734.41,372.62,739.3391,364.0933,734.9386,367.648,731.384,363.2475,734.41,372.62" style="stroke:#181818;stroke-width:1.0;"/><text fill="#000000" font-family="sans-serif" font-size="13" lengthAdjust="spacing" textLength="30" x="741" y="339.0283">Uses</text></g><!--link UpdatePostItController to PostItManagementService--><g id="link_UpdatePostItController_PostItManagementService"><path codeLine="119" d="M729,477.12 C729,499.43 729,526.04 729,550.52 " fill="none" id="UpdatePostItController-to-PostItManagementService" style="stroke:#181818;stroke-width:1.0;"/><polygon fill="#181818" points="729,555.71,733,546.71,729,550.71,725,546.71,729,555.71" style="stroke:#181818;stroke-width:1.0;"/><text fill="#000000" font-family="sans-serif" font-size="13" lengthAdjust="spacing" textLength="30" x="730" y="522.0283">Uses</text></g><!--link ClientHandler to RcompService--><g id="link_ClientHandler_RcompService"><path codeLine="121" d="M1048,294.28 C1048,321.76 1048,352.59 1048,377.3 " fill="none" id="ClientHandler-to-RcompService" style="stroke:#181818;stroke-width:1.0;"/><polygon fill="#181818" points="1048,382.47,1052,373.47,1048,377.47,1044,373.47,1048,382.47" style="stroke:#181818;stroke-width:1.0;"/><text fill="#000000" font-family="sans-serif" font-size="13" lengthAdjust="spacing" textLength="157" x="1049" y="339.0283">Sends/Receives Messages</text></g><!--link UpdatePostItUI to RcompService--><g id="link_UpdatePostItUI_RcompService"><path codeLine="122" d="M771.54,247.58 C796.24,273.16 838.8,314.53 881,343 C901.08,356.54 923.76,369.12 945.78,380.12 " fill="none" id="UpdatePostItUI-to-RcompService" style="stroke:#181818;stroke-width:1.0;"/><polygon fill="#181818" points="950.47,382.44,944.1799,374.8615,945.9893,380.2211,940.6297,382.0306,950.47,382.44" style="stroke:#181818;stroke-width:1.0;"/><text fill="#000000" font-family="sans-serif" font-size="13" lengthAdjust="spacing" textLength="157" x="882" y="339.0283">Sends/Receives Messages</text></g><!--link Server to ClientHandler--><g id="link_Server_ClientHandler"><path codeLine="123" d="M1048,64.79 C1048,85.82 1048,117.94 1048,147.72 " fill="none" id="Server-to-ClientHandler" style="stroke:#181818;stroke-width:1.0;"/><polygon fill="#181818" points="1048,152.87,1052,143.87,1048,147.87,1044,143.87,1048,152.87" style="stroke:#181818;stroke-width:1.0;"/><text fill="#000000" font-family="sans-serif" font-size="13" lengthAdjust="spacing" textLength="30" x="1049" y="119.0283">Uses</text></g><!--link RcompService to FormatMessage--><g id="link_RcompService_FormatMessage"><path codeLine="124" d="M1048,467.82 C1048,506.65 1048,563.4 1048,597.17 " fill="none" id="RcompService-to-FormatMessage" style="stroke:#181818;stroke-width:1.0;"/><polygon fill="#181818" points="1048,602.39,1052,593.39,1048,597.39,1044,593.39,1048,602.39" style="stroke:#181818;stroke-width:1.0;"/><text fill="#000000" font-family="sans-serif" font-size="13" lengthAdjust="spacing" textLength="30" x="1049" y="522.0283">Uses</text></g><!--link PostItManagementService to PostIt--><g id="link_PostItManagementService_PostIt"><path codeLine="126" d="M658.48,697.01 C631.7,723.41 602.75,751.94 582.3,772.09 " fill="none" id="PostItManagementService-to-PostIt" style="stroke:#181818;stroke-width:1.0;"/><polygon fill="#181818" points="578.59,775.75,587.8036,772.2702,582.1469,772.236,582.1812,766.5792,578.59,775.75" style="stroke:#181818;stroke-width:1.0;"/><text fill="#000000" font-family="sans-serif" font-size="13" lengthAdjust="spacing" textLength="30" x="628" y="742.0283">Uses</text></g><!--link PostItManagementService to PostItLog--><g id="link_PostItManagementService_PostItLog"><path codeLine="127" d="M704.6,697.26 C695.56,723.07 685.83,750.9 678.83,770.91 " fill="none" id="PostItManagementService-to-PostItLog" style="stroke:#181818;stroke-width:1.0;"/><polygon fill="#181818" points="677.11,775.83,683.8489,768.6476,678.7554,771.1085,676.2945,766.015,677.11,775.83" style="stroke:#181818;stroke-width:1.0;"/><text fill="#000000" font-family="sans-serif" font-size="13" lengthAdjust="spacing" textLength="30" x="695" y="742.0283">Uses</text></g><!--link PostItManagementService to CellLog--><g id="link_PostItManagementService_CellLog"><path codeLine="128" d="M753.81,697.26 C762.99,723.07 772.89,750.9 780.01,770.91 " fill="none" id="PostItManagementService-to-CellLog" style="stroke:#181818;stroke-width:1.0;"/><polygon fill="#181818" points="781.76,775.83,782.5226,766.0107,780.0892,771.1174,774.9825,768.684,781.76,775.83" style="stroke:#181818;stroke-width:1.0;"/><text fill="#000000" font-family="sans-serif" font-size="13" lengthAdjust="spacing" textLength="30" x="772" y="742.0283">Uses</text></g><!--link PostItManagementService to PersistenceContext--><g id="link_PostItManagementService_PersistenceContext"><path codeLine="132" d="M815.33,697.01 C848.5,723.71 884.37,752.6 909.45,772.79 " fill="none" id="PostItManagementService-to-PersistenceContext" style="stroke:#181818;stroke-width:1.0;"/><polygon fill="#181818" points="913.38,775.95,908.8784,767.1901,909.4855,772.8143,903.8613,773.4214,913.38,775.95" style="stroke:#181818;stroke-width:1.0;"/><text fill="#000000" font-family="sans-serif" font-size="13" lengthAdjust="spacing" textLength="30" x="875" y="742.0283">Uses</text></g><!--link PersistenceContext to RepositoryFactory--><g id="link_PersistenceContext_RepositoryFactory"><path codeLine="133" d="M942,824.2 C942,838.97 942,859.17 942,879.93 " fill="none" id="PersistenceContext-to-RepositoryFactory" style="stroke:#181818;stroke-width:1.0;"/><polygon fill="#181818" points="942,884.93,946,875.93,942,879.93,938,875.93,942,884.93" style="stroke:#181818;stroke-width:1.0;"/></g><!--link RepositoryFactory to SharedBoardLog--><g id="link_RepositoryFactory_SharedBoardLog"><path codeLine="135" d="M836.9,989.76 C685.62,1012.75 398.95,1062.86 165,1142 C151.89,1146.43 138.16,1152.28 125.54,1158.18 " fill="none" id="RepositoryFactory-to-SharedBoardLog" style="stroke:#181818;stroke-width:1.0;"/><polygon fill="#181818" points="120.95,1160.36,130.7958,1160.1141,125.4669,1158.2159,127.3652,1152.887,120.95,1160.36" style="stroke:#181818;stroke-width:1.0;"/><text fill="#000000" font-family="sans-serif" font-size="13" lengthAdjust="spacing" textLength="30" x="312" y="1108.0283">Uses</text></g><!--link RepositoryFactory to SharedBoardRepository--><g id="link_RepositoryFactory_SharedBoardRepository"><path codeLine="136" d="M836.72,1013.85 C739.45,1049.75 595.16,1102.99 494.26,1140.23 " fill="none" id="RepositoryFactory-to-SharedBoardRepository" style="stroke:#181818;stroke-width:1.0;"/><polygon fill="#181818" points="489.48,1141.99,499.3082,1142.6279,494.171,1140.2595,496.5394,1135.1223,489.48,1141.99" style="stroke:#181818;stroke-width:1.0;"/><text fill="#000000" font-family="sans-serif" font-size="13" lengthAdjust="spacing" textLength="30" x="610" y="1108.0283">Uses</text></g><!--link RepositoryFactory to CellRepository--><g id="link_RepositoryFactory_CellRepository"><path codeLine="137" d="M849.44,1063.12 C822.18,1089.07 793.49,1116.39 770.34,1138.43 " fill="none" id="RepositoryFactory-to-CellRepository" style="stroke:#181818;stroke-width:1.0;"/><polygon fill="#181818" points="766.67,1141.92,775.9387,1138.5896,770.2832,1138.4639,770.4089,1132.8084,766.67,1141.92" style="stroke:#181818;stroke-width:1.0;"/><text fill="#000000" font-family="sans-serif" font-size="13" lengthAdjust="spacing" textLength="30" x="814" y="1108.0283">Uses</text></g><!--link RepositoryFactory to PostItRepository--><g id="link_RepositoryFactory_PostItRepository"><path codeLine="138" d="M942,1063.12 C942,1092.05 942,1122.68 942,1145.8 " fill="none" id="RepositoryFactory-to-PostItRepository" style="stroke:#181818;stroke-width:1.0;"/><polygon fill="#181818" points="942,1150.92,946,1141.92,942,1145.92,938,1141.92,942,1150.92" style="stroke:#181818;stroke-width:1.0;"/><text fill="#000000" font-family="sans-serif" font-size="13" lengthAdjust="spacing" textLength="30" x="943" y="1108.0283">Uses</text></g><!--link RepositoryFactory to SharedBoardLogRepository--><g id="link_RepositoryFactory_SharedBoardLogRepository"><path codeLine="139" d="M1047.28,1047.92 C1096.18,1081.8 1152.11,1120.54 1191.63,1147.92 " fill="none" id="RepositoryFactory-to-SharedBoardLogRepository" style="stroke:#181818;stroke-width:1.0;"/><polygon fill="#181818" points="1195.88,1150.86,1190.783,1142.4326,1191.7778,1148.0013,1186.2091,1148.9961,1195.88,1150.86" style="stroke:#181818;stroke-width:1.0;"/><text fill="#000000" font-family="sans-serif" font-size="13" lengthAdjust="spacing" textLength="30" x="1138" y="1108.0283">Uses</text></g><!--link RepositoryFactory to CellLogRepository--><g id="link_RepositoryFactory_CellLogRepository"><path codeLine="140" d="M1047.19,1009.04 C1150.92,1042.67 1313.97,1095.63 1455,1142 C1460.24,1143.72 1465.6,1145.49 1471.01,1147.27 " fill="none" id="RepositoryFactory-to-CellLogRepository" style="stroke:#181818;stroke-width:1.0;"/><polygon fill="#181818" points="1476,1148.92,1468.7148,1142.2924,1471.2537,1147.3474,1466.1987,1149.8864,1476,1148.92" style="stroke:#181818;stroke-width:1.0;"/><text fill="#000000" font-family="sans-serif" font-size="13" lengthAdjust="spacing" textLength="30" x="1357" y="1108.0283">Uses</text></g><!--link RepositoryFactory to PostItLogRepository--><g id="link_RepositoryFactory_PostItLogRepository"><path codeLine="141" d="M1047.27,992.51 C1195.28,1018.39 1472.46,1071.5 1702,1142 C1709.02,1144.16 1716.23,1146.58 1723.43,1149.15 " fill="none" id="RepositoryFactory-to-PostItLogRepository" style="stroke:#181818;stroke-width:1.0;"/><polygon fill="#181818" points="1728.41,1150.94,1721.3072,1144.1173,1723.7081,1149.2393,1718.5861,1151.6403,1728.41,1150.94" style="stroke:#181818;stroke-width:1.0;"/><text fill="#000000" font-family="sans-serif" font-size="13" lengthAdjust="spacing" textLength="30" x="1580" y="1108.0283">Uses</text></g><!--link SharedBoardRepository to JPASharedBoardRepository--><g id="link_SharedBoardRepository_JPASharedBoardRepository"><path codeLine="143" d="M373.37,1227.02 C371.17,1252.11 368.37,1284.16 366.1,1310.16 " fill="none" id="SharedBoardRepository-to-JPASharedBoardRepository" style="stroke:#181818;stroke-width:1.0;"/><polygon fill="#181818" points="365.65,1315.27,370.4061,1306.6456,366.0782,1310.2884,362.4355,1305.9605,365.65,1315.27" style="stroke:#181818;stroke-width:1.0;"/><text fill="#000000" font-family="sans-serif" font-size="13" lengthAdjust="spacing" textLength="45" x="372" y="1272.0283">Creates</text></g><!--link CellRepository to JPACellRepository--><g id="link_CellRepository_JPACellRepository"><path codeLine="144" d="M719.37,1227.02 C717.43,1249.13 715.03,1276.66 712.93,1300.68 " fill="none" id="CellRepository-to-JPACellRepository" style="stroke:#181818;stroke-width:1.0;"/><polygon fill="#181818" points="712.48,1305.75,717.2361,1297.1256,712.9082,1300.7684,709.2655,1296.4405,712.48,1305.75" style="stroke:#181818;stroke-width:1.0;"/><text fill="#000000" font-family="sans-serif" font-size="13" lengthAdjust="spacing" textLength="45" x="718" y="1272.0283">Creates</text></g><!--link PostItRepository to JPAPostItRepository--><g id="link_PostItRepository_JPAPostItRepository"><path codeLine="145" d="M941.43,1218.16 C940.92,1247.01 940.19,1289.07 939.66,1319.33 " fill="none" id="PostItRepository-to-JPAPostItRepository" style="stroke:#181818;stroke-width:1.0;"/><polygon fill="#181818" points="939.57,1324.46,943.7237,1315.5299,939.6557,1319.4607,935.7249,1315.3928,939.57,1324.46" style="stroke:#181818;stroke-width:1.0;"/><text fill="#000000" font-family="sans-serif" font-size="13" lengthAdjust="spacing" textLength="45" x="942" y="1272.0283">Creates</text></g><!--link SharedBoardLogRepository to JPASharedBoardLogRepository--><g id="link_SharedBoardLogRepository_JPASharedBoardLogRepository"><path codeLine="146" d="M1243.95,1218.16 C1244.79,1247.01 1246.02,1289.07 1246.9,1319.33 " fill="none" id="SharedBoardLogRepository-to-JPASharedBoardLogRepository" style="stroke:#181818;stroke-width:1.0;"/><polygon fill="#181818" points="1247.05,1324.46,1250.7906,1315.3491,1246.9068,1319.4621,1242.7939,1315.5783,1247.05,1324.46" style="stroke:#181818;stroke-width:1.0;"/><text fill="#000000" font-family="sans-serif" font-size="13" lengthAdjust="spacing" textLength="45" x="1246" y="1272.0283">Creates</text></g><!--link CellLogRepository to JPACellLogRepository--><g id="link_CellLogRepository_JPACellLogRepository"><path codeLine="147" d="M1580.48,1227.02 C1580.78,1252.11 1581.15,1284.16 1581.45,1310.16 " fill="none" id="CellLogRepository-to-JPACellLogRepository" style="stroke:#181818;stroke-width:1.0;"/><polygon fill="#181818" points="1581.51,1315.27,1585.4066,1306.2247,1581.4527,1310.2703,1577.4071,1306.3164,1581.51,1315.27" style="stroke:#181818;stroke-width:1.0;"/><text fill="#000000" font-family="sans-serif" font-size="13" lengthAdjust="spacing" textLength="45" x="1582" y="1272.0283">Creates</text></g><!--link PostItLogRepository to JPAPostItLogRepository--><g id="link_PostItLogRepository_JPAPostItLogRepository"><path codeLine="148" d="M1807.33,1218.16 C1808.51,1247.01 1810.23,1289.07 1811.46,1319.33 " fill="none" id="PostItLogRepository-to-JPAPostItLogRepository" style="stroke:#181818;stroke-width:1.0;"/><polygon fill="#181818" points="1811.67,1324.46,1815.281,1315.297,1811.4559,1319.4646,1807.2883,1315.6395,1811.67,1324.46" style="stroke:#181818;stroke-width:1.0;"/><text fill="#000000" font-family="sans-serif" font-size="13" lengthAdjust="spacing" textLength="45" x="1810" y="1272.0283">Creates</text></g><!--SRC=[nLR1ZjCm4BtdAtnCHNUvzx3IKbYnY1LLIyNPsDDYaTYHnosiqFuxJXCxTkBGx5B1gOqzR-QzDzDCMK4HoR8G80tvbH7oYccW1bOApRt9KR7lOEP4oEfWDiPUbNEY3YPu-dhOxK03NmFbe6VPKvQn8EbxAda1Uf3xSru28jt3hBxO2Sc_Q67WbfT2ha2N0b4e-KPHpJ7tCPjlr9OwdThwGku7MTwLbNbSGb5WZbtmRA2CsP0vCS8KC2SSa6bH6Lin4B01VGJjdhOLz-ZjVUfqgQJHgl1gBoVg4sE7IW1FwF9i6muFL5fWQOslsGi6eV7vx9_HiX67m9efTg-PAgk8DOBa3qrDFuajXtWAJ_Ni5_wM6feQsg3CdT8bDMtQsBpuwQFQ-r6sx8F7m9dWr3g90Wr81lKam4-RJzXFlQDMq1egXS8e_NX7MVtHIDo36TmqBGZix2AQgzhC_bbrujm_nOXfAa_Yk7BoeukdKCqcHUx5KszBrOvH8J4u7SnvLtuP6T3L_VD08Zt2QH1xsLOzwzhXgwCRAyR5HoPrFFvMsqZQzihbgnzRFQ4w6v4Kc4WQQ7IePfO_h6x_IujzzPTrs9cKYrJ7VV9f3KyvSR5-Hq8lqkwUkcdTpjhDVytL3tbzqrjoP46s26Z3UkTNTVZLpTZsQs4Zjmuyjh1SqVZ_WqD5Ms9XTxJa-7eD3CGHaBIlTHmZF17TR7wFYfcq_A9KBZ9QBbx9cDBO2HS-BTfsS2gWdQEkc-TB35QPhpMyyTxszrYM3PUU2uv_CTxJAV71M9-5zLuZP-C7RuRd48j_SfEuFHEI-ccxhgOTSiZH5_g2B4__3J7hUHKW1ouwoC2k09Imqi56FKkpxUiD2O_YK-x6j4UXQPST-3S0]--></g></svg>