<?xml version="1.0" encoding="us-ascii" standalone="no"?><svg xmlns="http://www.w3.org/2000/svg" xmlns:xlink="http://www.w3.org/1999/xlink" contentStyleType="text/css" height="434px" preserveAspectRatio="none" style="width:521px;height:434px;background:#FFFFFF;" version="1.1" viewBox="0 0 521 434" width="521px" zoomAndPan="magnify"><defs/><g><rect fill="#FFFFFF" height="23.291" style="stroke:#181818;stroke-width:1.0;" width="10" x="86" y="93.6211"/><rect fill="#FFFFFF" height="91.291" style="stroke:#181818;stroke-width:1.0;" width="10" x="86" y="148.2031"/><rect fill="#FFFFFF" height="31.291" style="stroke:#181818;stroke-width:1.0;" width="10" x="86" y="270.7852"/><rect fill="#FFFFFF" height="9" style="stroke:#181818;stroke-width:1.0;" width="10" x="86" y="333.3672"/><rect fill="#FFFFFF" height="61.291" style="stroke:#181818;stroke-width:1.0;" width="10" x="478" y="116.9121"/><rect fill="#FFFFFF" height="61.291" style="stroke:#181818;stroke-width:1.0;" width="10" x="478" y="209.4941"/><rect fill="#FFFFFF" height="31.291" style="stroke:#181818;stroke-width:1.0;" width="10" x="478" y="302.0762"/><line style="stroke:#181818;stroke-width:0.5;stroke-dasharray:5.0,5.0;" x1="91" x2="91" y1="83.6211" y2="351.3672"/><line style="stroke:#181818;stroke-width:0.5;stroke-dasharray:5.0,5.0;" x1="483" x2="483" y1="83.6211" y2="351.3672"/><text fill="#000000" font-family="sans-serif" font-size="14" lengthAdjust="spacing" textLength="166" x="5" y="80.1074">Manager/Teacher/Student</text><ellipse cx="91" cy="13.5" fill="#E2E2F0" rx="8" ry="8" style="stroke:#181818;stroke-width:0.5;"/><path d="M91,21.5 L91,48.5 M78,29.5 L104,29.5 M91,48.5 L78,63.5 M91,48.5 L104,63.5 " fill="none" style="stroke:#181818;stroke-width:0.5;"/><text fill="#000000" font-family="sans-serif" font-size="14" lengthAdjust="spacing" textLength="166" x="5" y="365.4746">Manager/Teacher/Student</text><ellipse cx="91" cy="377.4883" fill="#E2E2F0" rx="8" ry="8" style="stroke:#181818;stroke-width:0.5;"/><path d="M91,385.4883 L91,412.4883 M78,393.4883 L104,393.4883 M91,412.4883 L78,427.4883 M91,412.4883 L104,427.4883 " fill="none" style="stroke:#181818;stroke-width:0.5;"/><rect fill="#E2E2F0" height="32.6211" rx="2.5" ry="2.5" style="stroke:#181818;stroke-width:0.5;" width="64" x="451" y="50"/><text fill="#000000" font-family="sans-serif" font-size="14" lengthAdjust="spacing" textLength="50" x="458" y="72.1074">:System</text><rect fill="#E2E2F0" height="32.6211" rx="2.5" ry="2.5" style="stroke:#181818;stroke-width:0.5;" width="64" x="451" y="350.3672"/><text fill="#000000" font-family="sans-serif" font-size="14" lengthAdjust="spacing" textLength="50" x="458" y="372.4746">:System</text><rect fill="#FFFFFF" height="23.291" style="stroke:#181818;stroke-width:1.0;" width="10" x="86" y="93.6211"/><rect fill="#FFFFFF" height="91.291" style="stroke:#181818;stroke-width:1.0;" width="10" x="86" y="148.2031"/><rect fill="#FFFFFF" height="31.291" style="stroke:#181818;stroke-width:1.0;" width="10" x="86" y="270.7852"/><rect fill="#FFFFFF" height="9" style="stroke:#181818;stroke-width:1.0;" width="10" x="86" y="333.3672"/><rect fill="#FFFFFF" height="61.291" style="stroke:#181818;stroke-width:1.0;" width="10" x="478" y="116.9121"/><rect fill="#FFFFFF" height="61.291" style="stroke:#181818;stroke-width:1.0;" width="10" x="478" y="209.4941"/><rect fill="#FFFFFF" height="31.291" style="stroke:#181818;stroke-width:1.0;" width="10" x="478" y="302.0762"/><polygon fill="#181818" points="466,112.9121,476,116.9121,466,120.9121,470,116.9121" style="stroke:#181818;stroke-width:1.0;"/><line style="stroke:#181818;stroke-width:1.0;" x1="91" x2="472" y1="116.9121" y2="116.9121"/><text fill="#000000" font-family="sans-serif" font-size="13" font-weight="bold" lengthAdjust="spacing" textLength="7" x="98" y="111.6494">1</text><text fill="#000000" font-family="sans-serif" font-size="13" lengthAdjust="spacing" textLength="134" x="109" y="111.6494">ask to Update a Post-It</text><polygon fill="#181818" points="107,144.2031,97,148.2031,107,152.2031,103,148.2031" style="stroke:#181818;stroke-width:1.0;"/><line style="stroke:#181818;stroke-width:1.0;stroke-dasharray:2.0,2.0;" x1="101" x2="477" y1="148.2031" y2="148.2031"/><text fill="#000000" font-family="sans-serif" font-size="13" font-weight="bold" lengthAdjust="spacing" textLength="7" x="113" y="142.9404">2</text><text fill="#000000" font-family="sans-serif" font-size="13" lengthAdjust="spacing" textLength="309" x="124" y="142.9404">shows list of SharedBoards where to Update a Post-It</text><polygon fill="#181818" points="466,205.4941,476,209.4941,466,213.4941,470,209.4941" style="stroke:#181818;stroke-width:1.0;"/><line style="stroke:#181818;stroke-width:1.0;" x1="96" x2="472" y1="209.4941" y2="209.4941"/><text fill="#000000" font-family="sans-serif" font-size="13" font-weight="bold" lengthAdjust="spacing" textLength="7" x="103" y="204.2314">3</text><text fill="#000000" font-family="sans-serif" font-size="13" lengthAdjust="spacing" textLength="283" x="114" y="204.2314">selects a SharedBoard where to Update a Post-It</text><polygon fill="#181818" points="107,266.7852,97,270.7852,107,274.7852,103,270.7852" style="stroke:#181818;stroke-width:1.0;"/><line style="stroke:#181818;stroke-width:1.0;stroke-dasharray:2.0,2.0;" x1="101" x2="482" y1="270.7852" y2="270.7852"/><text fill="#000000" font-family="sans-serif" font-size="13" font-weight="bold" lengthAdjust="spacing" textLength="7" x="113" y="265.5225">4</text><text fill="#000000" font-family="sans-serif" font-size="13" lengthAdjust="spacing" textLength="256" x="124" y="265.5225">shows list of Cells where to Update a Post-It</text><polygon fill="#181818" points="466,298.0762,476,302.0762,466,306.0762,470,302.0762" style="stroke:#181818;stroke-width:1.0;"/><line style="stroke:#181818;stroke-width:1.0;" x1="91" x2="472" y1="302.0762" y2="302.0762"/><text fill="#000000" font-family="sans-serif" font-size="13" font-weight="bold" lengthAdjust="spacing" textLength="7" x="98" y="296.8135">5</text><text fill="#000000" font-family="sans-serif" font-size="13" lengthAdjust="spacing" textLength="352" x="109" y="296.8135">selects a Cell where to Update a Post-It and also the content</text><polygon fill="#181818" points="107,329.3672,97,333.3672,107,337.3672,103,333.3672" style="stroke:#181818;stroke-width:1.0;"/><line style="stroke:#181818;stroke-width:1.0;stroke-dasharray:2.0,2.0;" x1="101" x2="482" y1="333.3672" y2="333.3672"/><text fill="#000000" font-family="sans-serif" font-size="13" font-weight="bold" lengthAdjust="spacing" textLength="7" x="113" y="328.1045">6</text><text fill="#000000" font-family="sans-serif" font-size="13" lengthAdjust="spacing" textLength="246" x="124" y="328.1045">Informs the success or failure of the post-It</text><!--SRC=[fPAxRiCm34LtVyM5TwExXmxDbA500RSVm4fqRLIM0f5AqB-l72Hs2jjze1C1Yhg71n8b3JuDhnoBWeo6YFAHFBrnl7jcCbskZIRBNakGu79sdksFf3nrBXNLFSgw-H3beKITxxn30ruETXmcF0NHQg-5vKN2r9Zk5tDIbNElY5gwS1AuNXIXHTDHPFiGA5h1AM_CgyG5xsQ5cRZb8UpOgEIy6znlQ7FqYlAM8BuQxjYvxzHMJPQm7zL6pZO6v2t8IO1s31Eyvb_nluV4thSX3d9Eb6GCYo3_mPPwb_8MsNqyEVp9ynC0]--></g></svg>