<?xml version="1.0" encoding="us-ascii" standalone="no"?><svg xmlns="http://www.w3.org/2000/svg" xmlns:xlink="http://www.w3.org/1999/xlink" contentStyleType="text/css" height="915px" preserveAspectRatio="none" style="width:775px;height:915px;background:#FFFFFF;" version="1.1" viewBox="0 0 775 915" width="775px" zoomAndPan="magnify"><defs/><g><!--class ListCourseGradesAction--><g id="elem_ListCourseGradesAction"><rect codeLine="2" fill="#F1F1F1" height="66.6211" id="ListCourseGradesAction" rx="2.5" ry="2.5" style="stroke:#181818;stroke-width:0.5;" width="186" x="202" y="7"/><ellipse cx="217" cy="23" fill="#ADD1B2" rx="11" ry="11" style="stroke:#181818;stroke-width:1.0;"/><path d="M219.7656,18.875 Q219.9219,18.6563 220.1094,18.5469 Q220.2969,18.4375 220.5156,18.4375 Q220.8906,18.4375 221.125,18.7031 Q221.3594,18.9531 221.3594,19.5625 L221.3594,21.0156 Q221.3594,21.625 221.125,21.8906 Q220.8906,22.1563 220.5156,22.1563 Q220.1719,22.1563 219.9688,21.9531 Q219.7656,21.7656 219.6563,21.25 Q219.6094,20.8906 219.4219,20.7031 Q219.0938,20.3281 218.4844,20.1094 Q217.875,19.8906 217.25,19.8906 Q216.4844,19.8906 215.8438,20.2188 Q215.2188,20.5469 214.7188,21.2969 Q214.2344,22.0469 214.2344,23.0781 L214.2344,24.1719 Q214.2344,25.4063 215.125,26.2344 Q216.0156,27.0469 217.6094,27.0469 Q218.5469,27.0469 219.2031,26.7969 Q219.5938,26.6406 220.0156,26.2031 Q220.2813,25.9375 220.4219,25.8594 Q220.5781,25.7813 220.7813,25.7813 Q221.1094,25.7813 221.3594,26.0469 Q221.625,26.2969 221.625,26.6406 Q221.625,26.9844 221.2813,27.3906 Q220.7813,27.9688 219.9844,28.2969 Q218.9063,28.75 217.6094,28.75 Q216.0938,28.75 214.8906,28.125 Q213.9063,27.625 213.2188,26.5625 Q212.5313,25.4844 212.5313,24.2031 L212.5313,23.0469 Q212.5313,21.7188 213.1406,20.5781 Q213.7656,19.4219 214.8594,18.8125 Q215.9531,18.1875 217.1875,18.1875 Q217.9219,18.1875 218.5625,18.3594 Q219.2188,18.5156 219.7656,18.875 Z " fill="#000000"/><text fill="#000000" font-family="sans-serif" font-size="14" lengthAdjust="spacing" textLength="154" x="231" y="28.7969">ListCourseGradesAction</text><line style="stroke:#181818;stroke-width:0.5;" x1="203" x2="387" y1="39" y2="39"/><line style="stroke:#181818;stroke-width:0.5;" x1="203" x2="387" y1="47" y2="47"/><ellipse cx="213" cy="61.8105" fill="#84BE84" rx="3" ry="3" style="stroke:#038048;stroke-width:1.0;"/><text fill="#000000" font-family="sans-serif" font-size="14" lengthAdjust="spacing" textLength="42" x="222" y="66.1074">show()</text></g><!--class ListCourseGradesUI--><g id="elem_ListCourseGradesUI"><rect codeLine="5" fill="#F1F1F1" height="66.6211" id="ListCourseGradesUI" rx="2.5" ry="2.5" style="stroke:#181818;stroke-width:0.5;" width="159" x="215.5" y="134"/><ellipse cx="230.5" cy="150" fill="#ADD1B2" rx="11" ry="11" style="stroke:#181818;stroke-width:1.0;"/><path d="M233.2656,145.875 Q233.4219,145.6563 233.6094,145.5469 Q233.7969,145.4375 234.0156,145.4375 Q234.3906,145.4375 234.625,145.7031 Q234.8594,145.9531 234.8594,146.5625 L234.8594,148.0156 Q234.8594,148.625 234.625,148.8906 Q234.3906,149.1563 234.0156,149.1563 Q233.6719,149.1563 233.4688,148.9531 Q233.2656,148.7656 233.1563,148.25 Q233.1094,147.8906 232.9219,147.7031 Q232.5938,147.3281 231.9844,147.1094 Q231.375,146.8906 230.75,146.8906 Q229.9844,146.8906 229.3438,147.2188 Q228.7188,147.5469 228.2188,148.2969 Q227.7344,149.0469 227.7344,150.0781 L227.7344,151.1719 Q227.7344,152.4063 228.625,153.2344 Q229.5156,154.0469 231.1094,154.0469 Q232.0469,154.0469 232.7031,153.7969 Q233.0938,153.6406 233.5156,153.2031 Q233.7813,152.9375 233.9219,152.8594 Q234.0781,152.7813 234.2813,152.7813 Q234.6094,152.7813 234.8594,153.0469 Q235.125,153.2969 235.125,153.6406 Q235.125,153.9844 234.7813,154.3906 Q234.2813,154.9688 233.4844,155.2969 Q232.4063,155.75 231.1094,155.75 Q229.5938,155.75 228.3906,155.125 Q227.4063,154.625 226.7188,153.5625 Q226.0313,152.4844 226.0313,151.2031 L226.0313,150.0469 Q226.0313,148.7188 226.6406,147.5781 Q227.2656,146.4219 228.3594,145.8125 Q229.4531,145.1875 230.6875,145.1875 Q231.4219,145.1875 232.0625,145.3594 Q232.7188,145.5156 233.2656,145.875 Z " fill="#000000"/><text fill="#000000" font-family="sans-serif" font-size="14" lengthAdjust="spacing" textLength="127" x="244.5" y="155.7969">ListCourseGradesUI</text><line style="stroke:#181818;stroke-width:0.5;" x1="216.5" x2="373.5" y1="166" y2="166"/><line style="stroke:#181818;stroke-width:0.5;" x1="216.5" x2="373.5" y1="174" y2="174"/><ellipse cx="226.5" cy="188.8105" fill="#84BE84" rx="3" ry="3" style="stroke:#038048;stroke-width:1.0;"/><text fill="#000000" font-family="sans-serif" font-size="14" lengthAdjust="spacing" textLength="60" x="235.5" y="193.1074">doShow()</text></g><!--class ListCourseGradesController--><g id="elem_ListCourseGradesController"><rect codeLine="9" fill="#F1F1F1" height="85.2422" id="ListCourseGradesController" rx="2.5" ry="2.5" style="stroke:#181818;stroke-width:0.5;" width="209" x="190.5" y="261"/><ellipse cx="205.5" cy="277" fill="#ADD1B2" rx="11" ry="11" style="stroke:#181818;stroke-width:1.0;"/><path d="M208.2656,272.875 Q208.4219,272.6563 208.6094,272.5469 Q208.7969,272.4375 209.0156,272.4375 Q209.3906,272.4375 209.625,272.7031 Q209.8594,272.9531 209.8594,273.5625 L209.8594,275.0156 Q209.8594,275.625 209.625,275.8906 Q209.3906,276.1563 209.0156,276.1563 Q208.6719,276.1563 208.4688,275.9531 Q208.2656,275.7656 208.1563,275.25 Q208.1094,274.8906 207.9219,274.7031 Q207.5938,274.3281 206.9844,274.1094 Q206.375,273.8906 205.75,273.8906 Q204.9844,273.8906 204.3438,274.2188 Q203.7188,274.5469 203.2188,275.2969 Q202.7344,276.0469 202.7344,277.0781 L202.7344,278.1719 Q202.7344,279.4063 203.625,280.2344 Q204.5156,281.0469 206.1094,281.0469 Q207.0469,281.0469 207.7031,280.7969 Q208.0938,280.6406 208.5156,280.2031 Q208.7813,279.9375 208.9219,279.8594 Q209.0781,279.7813 209.2813,279.7813 Q209.6094,279.7813 209.8594,280.0469 Q210.125,280.2969 210.125,280.6406 Q210.125,280.9844 209.7813,281.3906 Q209.2813,281.9688 208.4844,282.2969 Q207.4063,282.75 206.1094,282.75 Q204.5938,282.75 203.3906,282.125 Q202.4063,281.625 201.7188,280.5625 Q201.0313,279.4844 201.0313,278.2031 L201.0313,277.0469 Q201.0313,275.7188 201.6406,274.5781 Q202.2656,273.4219 203.3594,272.8125 Q204.4531,272.1875 205.6875,272.1875 Q206.4219,272.1875 207.0625,272.3594 Q207.7188,272.5156 208.2656,272.875 Z " fill="#000000"/><text fill="#000000" font-family="sans-serif" font-size="14" lengthAdjust="spacing" textLength="177" x="219.5" y="282.7969">ListCourseGradesController</text><line style="stroke:#181818;stroke-width:0.5;" x1="191.5" x2="398.5" y1="293" y2="293"/><line style="stroke:#181818;stroke-width:0.5;" x1="191.5" x2="398.5" y1="301" y2="301"/><ellipse cx="201.5" cy="315.8105" fill="#84BE84" rx="3" ry="3" style="stroke:#038048;stroke-width:1.0;"/><text fill="#000000" font-family="sans-serif" font-size="14" lengthAdjust="spacing" textLength="81" x="210.5" y="320.1074">myCourses()</text><ellipse cx="201.5" cy="334.4316" fill="#84BE84" rx="3" ry="3" style="stroke:#038048;stroke-width:1.0;"/><text fill="#000000" font-family="sans-serif" font-size="14" lengthAdjust="spacing" textLength="143" x="210.5" y="338.7285">courseGrades(course)</text></g><!--class Course--><g id="elem_Course"><rect codeLine="14" fill="#F1F1F1" height="66.6211" id="Course" rx="2.5" ry="2.5" style="stroke:#181818;stroke-width:0.5;" width="104" x="7" y="433.5"/><ellipse cx="33.7" cy="449.5" fill="#ADD1B2" rx="11" ry="11" style="stroke:#181818;stroke-width:1.0;"/><path d="M36.4656,445.375 Q36.6219,445.1563 36.8094,445.0469 Q36.9969,444.9375 37.2156,444.9375 Q37.5906,444.9375 37.825,445.2031 Q38.0594,445.4531 38.0594,446.0625 L38.0594,447.5156 Q38.0594,448.125 37.825,448.3906 Q37.5906,448.6563 37.2156,448.6563 Q36.8719,448.6563 36.6688,448.4531 Q36.4656,448.2656 36.3563,447.75 Q36.3094,447.3906 36.1219,447.2031 Q35.7938,446.8281 35.1844,446.6094 Q34.575,446.3906 33.95,446.3906 Q33.1844,446.3906 32.5438,446.7188 Q31.9188,447.0469 31.4188,447.7969 Q30.9344,448.5469 30.9344,449.5781 L30.9344,450.6719 Q30.9344,451.9063 31.825,452.7344 Q32.7156,453.5469 34.3094,453.5469 Q35.2469,453.5469 35.9031,453.2969 Q36.2938,453.1406 36.7156,452.7031 Q36.9813,452.4375 37.1219,452.3594 Q37.2781,452.2813 37.4813,452.2813 Q37.8094,452.2813 38.0594,452.5469 Q38.325,452.7969 38.325,453.1406 Q38.325,453.4844 37.9813,453.8906 Q37.4813,454.4688 36.6844,454.7969 Q35.6063,455.25 34.3094,455.25 Q32.7938,455.25 31.5906,454.625 Q30.6063,454.125 29.9188,453.0625 Q29.2313,451.9844 29.2313,450.7031 L29.2313,449.5469 Q29.2313,448.2188 29.8406,447.0781 Q30.4656,445.9219 31.5594,445.3125 Q32.6531,444.6875 33.8875,444.6875 Q34.6219,444.6875 35.2625,444.8594 Q35.9188,445.0156 36.4656,445.375 Z " fill="#000000"/><text fill="#000000" font-family="sans-serif" font-size="14" lengthAdjust="spacing" textLength="46" x="50.3" y="455.2969">Course</text><line style="stroke:#181818;stroke-width:0.5;" x1="8" x2="110" y1="465.5" y2="465.5"/><line style="stroke:#181818;stroke-width:0.5;" x1="8" x2="110" y1="473.5" y2="473.5"/><ellipse cx="18" cy="488.3105" fill="#84BE84" rx="3" ry="3" style="stroke:#038048;stroke-width:1.0;"/><text fill="#000000" font-family="sans-serif" font-size="14" lengthAdjust="spacing" textLength="78" x="27" y="492.6074">studentSet()</text></g><!--class Student--><g id="elem_Student"><rect codeLine="18" fill="#F1F1F1" height="66.6211" id="Student" rx="2.5" ry="2.5" style="stroke:#181818;stroke-width:0.5;" width="118" x="146" y="433.5"/><ellipse cx="177.65" cy="449.5" fill="#ADD1B2" rx="11" ry="11" style="stroke:#181818;stroke-width:1.0;"/><path d="M180.4156,445.375 Q180.5719,445.1563 180.7594,445.0469 Q180.9469,444.9375 181.1656,444.9375 Q181.5406,444.9375 181.775,445.2031 Q182.0094,445.4531 182.0094,446.0625 L182.0094,447.5156 Q182.0094,448.125 181.775,448.3906 Q181.5406,448.6563 181.1656,448.6563 Q180.8219,448.6563 180.6188,448.4531 Q180.4156,448.2656 180.3063,447.75 Q180.2594,447.3906 180.0719,447.2031 Q179.7438,446.8281 179.1344,446.6094 Q178.525,446.3906 177.9,446.3906 Q177.1344,446.3906 176.4938,446.7188 Q175.8688,447.0469 175.3688,447.7969 Q174.8844,448.5469 174.8844,449.5781 L174.8844,450.6719 Q174.8844,451.9063 175.775,452.7344 Q176.6656,453.5469 178.2594,453.5469 Q179.1969,453.5469 179.8531,453.2969 Q180.2438,453.1406 180.6656,452.7031 Q180.9313,452.4375 181.0719,452.3594 Q181.2281,452.2813 181.4313,452.2813 Q181.7594,452.2813 182.0094,452.5469 Q182.275,452.7969 182.275,453.1406 Q182.275,453.4844 181.9313,453.8906 Q181.4313,454.4688 180.6344,454.7969 Q179.5563,455.25 178.2594,455.25 Q176.7438,455.25 175.5406,454.625 Q174.5563,454.125 173.8688,453.0625 Q173.1813,451.9844 173.1813,450.7031 L173.1813,449.5469 Q173.1813,448.2188 173.7906,447.0781 Q174.4156,445.9219 175.5094,445.3125 Q176.6031,444.6875 177.8375,444.6875 Q178.5719,444.6875 179.2125,444.8594 Q179.8688,445.0156 180.4156,445.375 Z " fill="#000000"/><text fill="#000000" font-family="sans-serif" font-size="14" lengthAdjust="spacing" textLength="49" x="195.35" y="455.2969">Student</text><line style="stroke:#181818;stroke-width:0.5;" x1="147" x2="263" y1="465.5" y2="465.5"/><line style="stroke:#181818;stroke-width:0.5;" x1="147" x2="263" y1="473.5" y2="473.5"/><ellipse cx="157" cy="488.3105" fill="#84BE84" rx="3" ry="3" style="stroke:#038048;stroke-width:1.0;"/><text fill="#000000" font-family="sans-serif" font-size="14" lengthAdjust="spacing" textLength="92" x="166" y="492.6074">getGradeList()</text></g><!--class Grade--><g id="elem_Grade"><rect codeLine="22" fill="#F1F1F1" height="122.4844" id="Grade" rx="2.5" ry="2.5" style="stroke:#181818;stroke-width:0.5;" width="173" x="299.5" y="406"/><ellipse cx="361.75" cy="422" fill="#ADD1B2" rx="11" ry="11" style="stroke:#181818;stroke-width:1.0;"/><path d="M364.5156,417.875 Q364.6719,417.6563 364.8594,417.5469 Q365.0469,417.4375 365.2656,417.4375 Q365.6406,417.4375 365.875,417.7031 Q366.1094,417.9531 366.1094,418.5625 L366.1094,420.0156 Q366.1094,420.625 365.875,420.8906 Q365.6406,421.1563 365.2656,421.1563 Q364.9219,421.1563 364.7188,420.9531 Q364.5156,420.7656 364.4063,420.25 Q364.3594,419.8906 364.1719,419.7031 Q363.8438,419.3281 363.2344,419.1094 Q362.625,418.8906 362,418.8906 Q361.2344,418.8906 360.5938,419.2188 Q359.9688,419.5469 359.4688,420.2969 Q358.9844,421.0469 358.9844,422.0781 L358.9844,423.1719 Q358.9844,424.4063 359.875,425.2344 Q360.7656,426.0469 362.3594,426.0469 Q363.2969,426.0469 363.9531,425.7969 Q364.3438,425.6406 364.7656,425.2031 Q365.0313,424.9375 365.1719,424.8594 Q365.3281,424.7813 365.5313,424.7813 Q365.8594,424.7813 366.1094,425.0469 Q366.375,425.2969 366.375,425.6406 Q366.375,425.9844 366.0313,426.3906 Q365.5313,426.9688 364.7344,427.2969 Q363.6563,427.75 362.3594,427.75 Q360.8438,427.75 359.6406,427.125 Q358.6563,426.625 357.9688,425.5625 Q357.2813,424.4844 357.2813,423.2031 L357.2813,422.0469 Q357.2813,420.7188 357.8906,419.5781 Q358.5156,418.4219 359.6094,417.8125 Q360.7031,417.1875 361.9375,417.1875 Q362.6719,417.1875 363.3125,417.3594 Q363.9688,417.5156 364.5156,417.875 Z " fill="#000000"/><text fill="#000000" font-family="sans-serif" font-size="14" lengthAdjust="spacing" textLength="40" x="382.25" y="427.7969">Grade</text><line style="stroke:#181818;stroke-width:0.5;" x1="300.5" x2="471.5" y1="438" y2="438"/><line style="stroke:#181818;stroke-width:0.5;" x1="300.5" x2="471.5" y1="446" y2="446"/><ellipse cx="310.5" cy="460.8105" fill="#84BE84" rx="3" ry="3" style="stroke:#038048;stroke-width:1.0;"/><text fill="#000000" font-family="sans-serif" font-size="14" lengthAdjust="spacing" textLength="132" x="319.5" y="465.1074">retrieveExamGrade()</text><ellipse cx="310.5" cy="479.4316" fill="#84BE84" rx="3" ry="3" style="stroke:#038048;stroke-width:1.0;"/><text fill="#000000" font-family="sans-serif" font-size="14" lengthAdjust="spacing" textLength="147" x="319.5" y="483.7285">retrieveStudentGrade()</text><ellipse cx="310.5" cy="498.0527" fill="#84BE84" rx="3" ry="3" style="stroke:#038048;stroke-width:1.0;"/><text fill="#000000" font-family="sans-serif" font-size="14" lengthAdjust="spacing" textLength="114" x="319.5" y="502.3496">findGradeExams()</text><ellipse cx="310.5" cy="516.6738" fill="#84BE84" rx="3" ry="3" style="stroke:#038048;stroke-width:1.0;"/><text fill="#000000" font-family="sans-serif" font-size="14" lengthAdjust="spacing" textLength="119" x="319.5" y="520.9707">findGradeCourse()</text></g><!--class ListUserCourseService--><g id="elem_ListUserCourseService"><rect codeLine="29" fill="#F1F1F1" height="66.6211" id="ListUserCourseService" rx="2.5" ry="2.5" style="stroke:#181818;stroke-width:0.5;" width="260" x="508" y="433.5"/><ellipse cx="561.75" cy="449.5" fill="#ADD1B2" rx="11" ry="11" style="stroke:#181818;stroke-width:1.0;"/><path d="M564.5156,445.375 Q564.6719,445.1563 564.8594,445.0469 Q565.0469,444.9375 565.2656,444.9375 Q565.6406,444.9375 565.875,445.2031 Q566.1094,445.4531 566.1094,446.0625 L566.1094,447.5156 Q566.1094,448.125 565.875,448.3906 Q565.6406,448.6563 565.2656,448.6563 Q564.9219,448.6563 564.7188,448.4531 Q564.5156,448.2656 564.4063,447.75 Q564.3594,447.3906 564.1719,447.2031 Q563.8438,446.8281 563.2344,446.6094 Q562.625,446.3906 562,446.3906 Q561.2344,446.3906 560.5938,446.7188 Q559.9688,447.0469 559.4688,447.7969 Q558.9844,448.5469 558.9844,449.5781 L558.9844,450.6719 Q558.9844,451.9063 559.875,452.7344 Q560.7656,453.5469 562.3594,453.5469 Q563.2969,453.5469 563.9531,453.2969 Q564.3438,453.1406 564.7656,452.7031 Q565.0313,452.4375 565.1719,452.3594 Q565.3281,452.2813 565.5313,452.2813 Q565.8594,452.2813 566.1094,452.5469 Q566.375,452.7969 566.375,453.1406 Q566.375,453.4844 566.0313,453.8906 Q565.5313,454.4688 564.7344,454.7969 Q563.6563,455.25 562.3594,455.25 Q560.8438,455.25 559.6406,454.625 Q558.6563,454.125 557.9688,453.0625 Q557.2813,451.9844 557.2813,450.7031 L557.2813,449.5469 Q557.2813,448.2188 557.8906,447.0781 Q558.5156,445.9219 559.6094,445.3125 Q560.7031,444.6875 561.9375,444.6875 Q562.6719,444.6875 563.3125,444.8594 Q563.9688,445.0156 564.5156,445.375 Z " fill="#000000"/><text fill="#000000" font-family="sans-serif" font-size="14" lengthAdjust="spacing" textLength="144" x="582.25" y="455.2969">ListUserCourseService</text><line style="stroke:#181818;stroke-width:0.5;" x1="509" x2="767" y1="465.5" y2="465.5"/><line style="stroke:#181818;stroke-width:0.5;" x1="509" x2="767" y1="473.5" y2="473.5"/><ellipse cx="519" cy="488.3105" fill="#84BE84" rx="3" ry="3" style="stroke:#038048;stroke-width:1.0;"/><text fill="#000000" font-family="sans-serif" font-size="14" lengthAdjust="spacing" textLength="234" x="528" y="492.6074">listCoursesByTeacher(emailAddress)</text></g><!--class PersistenceContext--><g id="elem_PersistenceContext"><rect codeLine="33" fill="#F1F1F1" height="66.6211" id="PersistenceContext" rx="2.5" ry="2.5" style="stroke:#181818;stroke-width:0.5;" width="154" x="561" y="588"/><ellipse cx="576" cy="604" fill="#ADD1B2" rx="11" ry="11" style="stroke:#181818;stroke-width:1.0;"/><path d="M578.7656,599.875 Q578.9219,599.6563 579.1094,599.5469 Q579.2969,599.4375 579.5156,599.4375 Q579.8906,599.4375 580.125,599.7031 Q580.3594,599.9531 580.3594,600.5625 L580.3594,602.0156 Q580.3594,602.625 580.125,602.8906 Q579.8906,603.1563 579.5156,603.1563 Q579.1719,603.1563 578.9688,602.9531 Q578.7656,602.7656 578.6563,602.25 Q578.6094,601.8906 578.4219,601.7031 Q578.0938,601.3281 577.4844,601.1094 Q576.875,600.8906 576.25,600.8906 Q575.4844,600.8906 574.8438,601.2188 Q574.2188,601.5469 573.7188,602.2969 Q573.2344,603.0469 573.2344,604.0781 L573.2344,605.1719 Q573.2344,606.4063 574.125,607.2344 Q575.0156,608.0469 576.6094,608.0469 Q577.5469,608.0469 578.2031,607.7969 Q578.5938,607.6406 579.0156,607.2031 Q579.2813,606.9375 579.4219,606.8594 Q579.5781,606.7813 579.7813,606.7813 Q580.1094,606.7813 580.3594,607.0469 Q580.625,607.2969 580.625,607.6406 Q580.625,607.9844 580.2813,608.3906 Q579.7813,608.9688 578.9844,609.2969 Q577.9063,609.75 576.6094,609.75 Q575.0938,609.75 573.8906,609.125 Q572.9063,608.625 572.2188,607.5625 Q571.5313,606.4844 571.5313,605.2031 L571.5313,604.0469 Q571.5313,602.7188 572.1406,601.5781 Q572.7656,600.4219 573.8594,599.8125 Q574.9531,599.1875 576.1875,599.1875 Q576.9219,599.1875 577.5625,599.3594 Q578.2188,599.5156 578.7656,599.875 Z " fill="#000000"/><text fill="#000000" font-family="sans-serif" font-size="14" lengthAdjust="spacing" textLength="122" x="590" y="609.7969">PersistenceContext</text><line style="stroke:#181818;stroke-width:0.5;" x1="562" x2="714" y1="620" y2="620"/><line style="stroke:#181818;stroke-width:0.5;" x1="562" x2="714" y1="628" y2="628"/><ellipse cx="572" cy="642.8105" fill="#84BE84" rx="3" ry="3" style="stroke:#038048;stroke-width:1.0;"/><text fill="#000000" font-family="sans-serif" font-size="14" lengthAdjust="spacing" textLength="84" x="581" y="647.1074">repositories()</text></g><!--class RepositoryFactory--><g id="elem_RepositoryFactory"><rect codeLine="37" fill="#F1F1F1" height="66.6211" id="RepositoryFactory" rx="2.5" ry="2.5" style="stroke:#181818;stroke-width:0.5;" width="152" x="562" y="715"/><ellipse cx="578.8" cy="731" fill="#B4A7E5" rx="11" ry="11" style="stroke:#181818;stroke-width:1.0;"/><path d="M579.7531,727.6406 L579.7531,734.2969 L581.4719,734.2969 Q582.0813,734.2969 582.3469,734.5313 Q582.6125,734.7656 582.6125,735.1563 Q582.6125,735.5313 582.3469,735.7656 Q582.0813,736 581.4719,736 L576.3313,736 Q575.7219,736 575.4563,735.7656 Q575.1906,735.5313 575.1906,735.1406 Q575.1906,734.7656 575.4563,734.5313 Q575.7219,734.2969 576.3313,734.2969 L578.05,734.2969 L578.05,727.6406 L576.3313,727.6406 Q575.7219,727.6406 575.4563,727.4063 Q575.1906,727.1719 575.1906,726.7813 Q575.1906,726.4063 575.4563,726.1719 Q575.7219,725.9375 576.3313,725.9375 L581.4719,725.9375 Q582.0813,725.9375 582.3469,726.1719 Q582.6125,726.4063 582.6125,726.7813 Q582.6125,727.1719 582.3469,727.4063 Q582.0813,727.6406 581.4719,727.6406 L579.7531,727.6406 Z " fill="#000000"/><text fill="#000000" font-family="sans-serif" font-size="14" font-style="italic" lengthAdjust="spacing" textLength="116" x="593.2" y="736.7969">RepositoryFactory</text><line style="stroke:#181818;stroke-width:0.5;" x1="563" x2="713" y1="747" y2="747"/><line style="stroke:#181818;stroke-width:0.5;" x1="563" x2="713" y1="755" y2="755"/><ellipse cx="573" cy="769.8105" fill="#84BE84" rx="3" ry="3" style="stroke:#038048;stroke-width:1.0;"/><text fill="#000000" font-family="sans-serif" font-size="14" lengthAdjust="spacing" textLength="126" x="582" y="774.1074">teacherRepository()</text></g><!--class TeacherRepository--><g id="elem_TeacherRepository"><rect codeLine="41" fill="#F1F1F1" height="66.6211" id="TeacherRepository" rx="2.5" ry="2.5" style="stroke:#181818;stroke-width:0.5;" width="196" x="540" y="842"/><ellipse cx="574.35" cy="858" fill="#B4A7E5" rx="11" ry="11" style="stroke:#181818;stroke-width:1.0;"/><path d="M575.3031,854.6406 L575.3031,861.2969 L577.0219,861.2969 Q577.6313,861.2969 577.8969,861.5313 Q578.1625,861.7656 578.1625,862.1563 Q578.1625,862.5313 577.8969,862.7656 Q577.6313,863 577.0219,863 L571.8813,863 Q571.2719,863 571.0063,862.7656 Q570.7406,862.5313 570.7406,862.1406 Q570.7406,861.7656 571.0063,861.5313 Q571.2719,861.2969 571.8813,861.2969 L573.6,861.2969 L573.6,854.6406 L571.8813,854.6406 Q571.2719,854.6406 571.0063,854.4063 Q570.7406,854.1719 570.7406,853.7813 Q570.7406,853.4063 571.0063,853.1719 Q571.2719,852.9375 571.8813,852.9375 L577.0219,852.9375 Q577.6313,852.9375 577.8969,853.1719 Q578.1625,853.4063 578.1625,853.7813 Q578.1625,854.1719 577.8969,854.4063 Q577.6313,854.6406 577.0219,854.6406 L575.3031,854.6406 Z " fill="#000000"/><text fill="#000000" font-family="sans-serif" font-size="14" font-style="italic" lengthAdjust="spacing" textLength="121" x="592.65" y="863.7969">TeacherRepository</text><line style="stroke:#181818;stroke-width:0.5;" x1="541" x2="735" y1="874" y2="874"/><line style="stroke:#181818;stroke-width:0.5;" x1="541" x2="735" y1="882" y2="882"/><text fill="#000000" font-family="sans-serif" font-size="14" lengthAdjust="spacing" textLength="184" x="546" y="901.1074">coursesByTeachers(teacher)</text></g><!--link ListCourseGradesAction to ListCourseGradesUI--><g id="link_ListCourseGradesAction_ListCourseGradesUI"><path codeLine="46" d="M295,74.02 C295,90.67 295,111.04 295,128.42 " fill="none" id="ListCourseGradesAction-to-ListCourseGradesUI" style="stroke:#181818;stroke-width:1.0;stroke-dasharray:7.0,7.0;"/><polygon fill="#181818" points="295,133.71,299,124.71,295,128.71,291,124.71,295,133.71" style="stroke:#181818;stroke-width:1.0;"/></g><!--link ListCourseGradesUI to ListCourseGradesController--><g id="link_ListCourseGradesUI_ListCourseGradesController"><path codeLine="47" d="M295,201.28 C295,217.71 295,237.9 295,255.9 " fill="none" id="ListCourseGradesUI-to-ListCourseGradesController" style="stroke:#181818;stroke-width:1.0;stroke-dasharray:7.0,7.0;"/><polygon fill="#181818" points="295,260.92,299,251.92,295,255.92,291,251.92,295,260.92" style="stroke:#181818;stroke-width:1.0;"/></g><!--link ListCourseGradesController to ListUserCourseService--><g id="link_ListCourseGradesController_ListUserCourseService"><path codeLine="49" d="M383.33,346.09 C439.4,372.49 511.12,406.26 564.15,431.23 " fill="none" id="ListCourseGradesController-to-ListUserCourseService" style="stroke:#181818;stroke-width:1.0;"/><polygon fill="#181818" points="568.9,433.47,562.4564,426.0215,564.3749,431.3431,559.0533,433.2616,568.9,433.47" style="stroke:#181818;stroke-width:1.0;"/></g><!--link ListCourseGradesController to Course--><g id="link_ListCourseGradesController_Course"><path codeLine="50" d="M221.47,346.02 C192.03,363.52 158.23,384.74 129,406 C118.83,413.4 108.31,421.9 98.61,430.14 " fill="none" id="ListCourseGradesController-to-Course" style="stroke:#181818;stroke-width:1.0;"/><polygon fill="#181818" points="94.79,433.41,104.2265,430.5899,98.5863,430.156,99.0201,424.5159,94.79,433.41" style="stroke:#181818;stroke-width:1.0;"/></g><!--link ListCourseGradesController to Student--><g id="link_ListCourseGradesController_Student"><path codeLine="51" d="M271.82,346.09 C257.55,371.69 239.42,404.23 225.65,428.94 " fill="none" id="ListCourseGradesController-to-Student" style="stroke:#181818;stroke-width:1.0;"/><polygon fill="#181818" points="223.13,433.47,231.0056,427.5561,225.5643,429.1026,224.0178,423.6612,223.13,433.47" style="stroke:#181818;stroke-width:1.0;"/></g><!--link ListCourseGradesController to Grade--><g id="link_ListCourseGradesController_Grade"><path codeLine="52" d="M318.43,346.09 C327.9,362.89 339.05,382.68 349.53,401.28 " fill="none" id="ListCourseGradesController-to-Grade" style="stroke:#181818;stroke-width:1.0;"/><polygon fill="#181818" points="352.18,405.98,351.2433,396.1758,349.7239,401.6248,344.2749,400.1055,352.18,405.98" style="stroke:#181818;stroke-width:1.0;"/></g><!--link ListUserCourseService to PersistenceContext--><g id="link_ListUserCourseService_PersistenceContext"><path codeLine="54" d="M638,500.72 C638,524.74 638,557.43 638,582.59 " fill="none" id="ListUserCourseService-to-PersistenceContext" style="stroke:#181818;stroke-width:1.0;"/><polygon fill="#181818" points="638,587.84,642,578.84,638,582.84,634,578.84,638,587.84" style="stroke:#181818;stroke-width:1.0;"/></g><!--link PersistenceContext to RepositoryFactory--><g id="link_PersistenceContext_RepositoryFactory"><path codeLine="55" d="M638,655.02 C638,671.67 638,692.04 638,709.42 " fill="none" id="PersistenceContext-to-RepositoryFactory" style="stroke:#181818;stroke-width:1.0;"/><polygon fill="#181818" points="638,714.71,642,705.71,638,709.71,634,705.71,638,714.71" style="stroke:#181818;stroke-width:1.0;"/></g><!--link RepositoryFactory to TeacherRepository--><g id="link_RepositoryFactory_TeacherRepository"><path codeLine="56" d="M638,782.02 C638,798.67 638,819.04 638,836.42 " fill="none" id="RepositoryFactory-to-TeacherRepository" style="stroke:#181818;stroke-width:1.0;"/><polygon fill="#181818" points="638,841.71,642,832.71,638,836.71,634,832.71,638,841.71" style="stroke:#181818;stroke-width:1.0;"/></g><!--SRC=[ZPBRQiCm38Rl_HIvp1Zf8nIwiet1BiRIFe2nrTMGsiDo3s7itUT3udYn2ybDYFJzqXz9hAE8rRj0irLdZV2gAGVSC2EK_26LVHuhFAfh_K1-2Il2-xTg9BbgH_OEl5NIQDLreAFer0S0hIv4M2AemqTICj1HZkRCGPeMJDgt3T58VO7nzPoVbFF1I6amMi05dc_qv3FHqfWPwlvF7eJaFk9qc8U3u_bOzWWwP5hG5y4c6rqS6ZxrEw3i2Bg64nNTXdCDY4cb3z1eSP0Ct6pXPfA_-LOeZBB6CJGN5j07QbjzZhd-XJBtYYeJ-at0NBgR0uEKpHnZFPJoUbA-iMh5rLMkreMh8eL3kqTFPvKtIawkSV9cNHx_4c58Bo67Grc2-aJmdTz4Ou5ynwImTaTcQoNveXsNxT0kw0y0]--></g></svg>