<?xml version="1.0" encoding="us-ascii" standalone="no"?><svg xmlns="http://www.w3.org/2000/svg" xmlns:xlink="http://www.w3.org/1999/xlink" contentStyleType="text/css" height="612px" preserveAspectRatio="none" style="width:2598px;height:612px;background:#FFFFFF;" version="1.1" viewBox="0 0 2598 612" width="2598px" zoomAndPan="magnify"><defs/><g><text fill="#000000" font-family="sans-serif" font-size="14" font-weight="bold" lengthAdjust="spacing" textLength="163" x="1210.5" y="23.5352">Domain Driven Design</text><!--cluster <<Aggregate>> Course--><g id="cluster_&lt;&lt;Aggregate&gt;&gt; Course"><rect fill="none" height="217.51" rx="2.5" ry="2.5" style="stroke:#181818;stroke-width:1.0;" width="1237" x="7" y="44.4883"/><text fill="#000000" font-family="sans-serif" font-size="14" font-weight="bold" lengthAdjust="spacing" textLength="144" x="553.5" y="60.0234">&#171;Aggregate&#187; Course</text></g><!--cluster <<Aggregate>> Exam--><g id="cluster_&lt;&lt;Aggregate&gt;&gt; Exam"><rect fill="none" height="200.38" rx="2.5" ry="2.5" style="stroke:#181818;stroke-width:1.0;" width="797" x="1795" y="405.6783"/><text fill="#000000" font-family="sans-serif" font-size="14" font-weight="bold" lengthAdjust="spacing" textLength="132" x="2127.5" y="421.2134">&#171;Aggregate&#187; Exam</text></g><!--cluster <<Aggregate>> Student--><g id="cluster_&lt;&lt;Aggregate&gt;&gt; Student"><rect fill="none" height="222.44" rx="2.5" ry="2.5" style="stroke:#181818;stroke-width:1.0;" width="216" x="1268" y="159.2383"/><text fill="#000000" font-family="sans-serif" font-size="14" font-weight="bold" lengthAdjust="spacing" textLength="149" x="1301.5" y="174.7734">&#171;Aggregate&#187; Student</text></g><!--cluster <<Aggregate>> Grade--><g id="cluster_&lt;&lt;Aggregate&gt;&gt; Grade"><rect fill="none" height="215.37" rx="2.5" ry="2.5" style="stroke:#181818;stroke-width:1.0;" width="263" x="1508" y="285.9983"/><text fill="#000000" font-family="sans-serif" font-size="14" font-weight="bold" lengthAdjust="spacing" textLength="135" x="1572" y="301.5334">&#171;Aggregate&#187; Grade</text></g><!--class Course--><g id="elem_Course"><rect codeLine="11" fill="#F1F1F1" height="54.7539" id="Course" rx="2.5" ry="2.5" style="stroke:#181818;stroke-width:0.5;" width="81" x="728.5" y="79.4883"/><ellipse cx="743.5" cy="106.8652" fill="#ADD1B2" rx="11" ry="11" style="stroke:#181818;stroke-width:1.0;"/><path d="M747.6143,112.8652 L739.8945,112.8652 L739.8945,100.4722 L747.6143,100.4722 L747.6143,102.6304 L742.3433,102.6304 L742.3433,105.3032 L747.1162,105.3032 L747.1162,107.4614 L742.3433,107.4614 L742.3433,110.707 L747.6143,110.707 Z " fill="#000000"/><text fill="#000000" font-family="sans-serif" font-size="12" font-style="italic" lengthAdjust="spacing" textLength="38" x="763" y="96.0898">&#171;Root&#187;</text><text fill="#000000" font-family="sans-serif" font-size="12" font-style="italic" lengthAdjust="spacing" textLength="43" x="760.5" y="110.2227">&#171;Entity&#187;</text><text fill="#000000" font-family="sans-serif" font-size="14" lengthAdjust="spacing" textLength="49" x="757.5" y="126.2891">Course</text></g><g id="elem_Id"><rect fill="#F1F1F1" height="48.7539" style="stroke:#181818;stroke-width:0.5;" width="96" x="23" y="197.2383"/><text fill="#000000" font-family="sans-serif" font-size="12" font-style="italic" lengthAdjust="spacing" textLength="86" x="28" y="208.8398">&#171;Value Object&#187;</text><text fill="#000000" font-family="sans-serif" font-size="12" font-style="italic" lengthAdjust="spacing" textLength="54" x="44" y="222.9727">&#171;Identify&#187;</text><text fill="#000000" font-family="sans-serif" font-size="14" lengthAdjust="spacing" textLength="13" x="64.5" y="241.0391">Id</text></g><g id="elem_CourseState"><rect fill="#F1F1F1" height="34.6211" style="stroke:#181818;stroke-width:0.5;" width="97" x="153.5" y="204.3083"/><text fill="#000000" font-family="sans-serif" font-size="12" font-style="italic" lengthAdjust="spacing" textLength="86" x="159" y="215.9098">&#171;Value Object&#187;</text><text fill="#000000" font-family="sans-serif" font-size="14" lengthAdjust="spacing" textLength="83" x="160.5" y="233.9763">CourseState</text></g><g id="elem_CourseEnrollmentState"><rect fill="#F1F1F1" height="34.6211" style="stroke:#181818;stroke-width:0.5;" width="172" x="285" y="204.3083"/><text fill="#000000" font-family="sans-serif" font-size="12" font-style="italic" lengthAdjust="spacing" textLength="86" x="328" y="215.9098">&#171;Value Object&#187;</text><text fill="#000000" font-family="sans-serif" font-size="14" lengthAdjust="spacing" textLength="158" x="292" y="233.9763">CourseEnrollmentState</text></g><g id="elem_Edition"><rect fill="#F1F1F1" height="34.6211" style="stroke:#181818;stroke-width:0.5;" width="96" x="492" y="204.3083"/><text fill="#000000" font-family="sans-serif" font-size="12" font-style="italic" lengthAdjust="spacing" textLength="86" x="497" y="215.9098">&#171;Value Object&#187;</text><text fill="#000000" font-family="sans-serif" font-size="14" lengthAdjust="spacing" textLength="48" x="516" y="233.9763">Edition</text></g><g id="elem_CourseDescription"><rect fill="#F1F1F1" height="34.6211" style="stroke:#181818;stroke-width:0.5;" width="141" x="622.5" y="204.3083"/><text fill="#000000" font-family="sans-serif" font-size="12" font-style="italic" lengthAdjust="spacing" textLength="86" x="650" y="215.9098">&#171;Value Object&#187;</text><text fill="#000000" font-family="sans-serif" font-size="14" lengthAdjust="spacing" textLength="127" x="629.5" y="233.9763">CourseDescription</text></g><g id="elem_CourseTitle"><rect fill="#F1F1F1" height="34.6211" style="stroke:#181818;stroke-width:0.5;" width="96" x="798" y="204.3083"/><text fill="#000000" font-family="sans-serif" font-size="12" font-style="italic" lengthAdjust="spacing" textLength="86" x="803" y="215.9098">&#171;Value Object&#187;</text><text fill="#000000" font-family="sans-serif" font-size="14" lengthAdjust="spacing" textLength="79" x="806.5" y="233.9763">CourseTitle</text></g><g id="elem_ExamsList"><rect fill="#F1F1F1" height="34.6211" style="stroke:#181818;stroke-width:0.5;" width="96" x="929" y="204.3083"/><text fill="#000000" font-family="sans-serif" font-size="12" font-style="italic" lengthAdjust="spacing" textLength="86" x="934" y="215.9098">&#171;Value Object&#187;</text><text fill="#000000" font-family="sans-serif" font-size="14" lengthAdjust="spacing" textLength="68" x="943" y="233.9763">ExamsList</text></g><g id="elem_CourseEnrollmentsList"><rect fill="#F1F1F1" height="34.6211" style="stroke:#181818;stroke-width:0.5;" width="168" x="1060" y="204.3083"/><text fill="#000000" font-family="sans-serif" font-size="12" font-style="italic" lengthAdjust="spacing" textLength="86" x="1101" y="215.9098">&#171;Value Object&#187;</text><text fill="#000000" font-family="sans-serif" font-size="14" lengthAdjust="spacing" textLength="154" x="1067" y="233.9763">CourseEnrollmentsList</text></g><!--class Exam--><g id="elem_Exam"><rect codeLine="32" fill="#F1F1F1" height="54.7539" id="Exam" rx="2.5" ry="2.5" style="stroke:#181818;stroke-width:0.5;" width="71" x="1962.5" y="440.6783"/><ellipse cx="1977.5" cy="468.0552" fill="#ADD1B2" rx="11" ry="11" style="stroke:#181818;stroke-width:1.0;"/><path d="M1981.6143,474.0552 L1973.8945,474.0552 L1973.8945,461.6622 L1981.6143,461.6622 L1981.6143,463.8204 L1976.3433,463.8204 L1976.3433,466.4932 L1981.1162,466.4932 L1981.1162,468.6514 L1976.3433,468.6514 L1976.3433,471.897 L1981.6143,471.897 Z " fill="#000000"/><text fill="#000000" font-family="sans-serif" font-size="12" font-style="italic" lengthAdjust="spacing" textLength="38" x="1992" y="457.2798">&#171;Root&#187;</text><text fill="#000000" font-family="sans-serif" font-size="12" font-style="italic" lengthAdjust="spacing" textLength="43" x="1989.5" y="471.4127">&#171;Entity&#187;</text><text fill="#000000" font-family="sans-serif" font-size="14" lengthAdjust="spacing" textLength="38" x="1992" y="487.4791">Exam</text></g><g id="elem_ExamTitle"><rect fill="#F1F1F1" height="34.6211" style="stroke:#181818;stroke-width:0.5;" width="96" x="1811" y="555.4383"/><text fill="#000000" font-family="sans-serif" font-size="12" font-style="italic" lengthAdjust="spacing" textLength="86" x="1816" y="567.0398">&#171;Value Object&#187;</text><text fill="#000000" font-family="sans-serif" font-size="14" lengthAdjust="spacing" textLength="68" x="1825" y="585.1063">ExamTitle</text></g><g id="elem_FeedBackType"><rect fill="#F1F1F1" height="34.6211" style="stroke:#181818;stroke-width:0.5;" width="111" x="1942.5" y="555.4383"/><text fill="#000000" font-family="sans-serif" font-size="12" font-style="italic" lengthAdjust="spacing" textLength="86" x="1955" y="567.0398">&#171;Value Object&#187;</text><text fill="#000000" font-family="sans-serif" font-size="14" lengthAdjust="spacing" textLength="97" x="1949.5" y="585.1063">FeedBackType</text></g><g id="elem_GradeType"><rect fill="#F1F1F1" height="34.6211" style="stroke:#181818;stroke-width:0.5;" width="96" x="2089" y="555.4383"/><text fill="#000000" font-family="sans-serif" font-size="12" font-style="italic" lengthAdjust="spacing" textLength="86" x="2094" y="567.0398">&#171;Value Object&#187;</text><text fill="#000000" font-family="sans-serif" font-size="14" lengthAdjust="spacing" textLength="74" x="2100" y="585.1063">GradeType</text></g><g id="elem_ExamStruct"><rect fill="#F1F1F1" height="34.6211" style="stroke:#181818;stroke-width:0.5;" width="96" x="2220" y="555.4383"/><text fill="#000000" font-family="sans-serif" font-size="12" font-style="italic" lengthAdjust="spacing" textLength="86" x="2225" y="567.0398">&#171;Value Object&#187;</text><text fill="#000000" font-family="sans-serif" font-size="14" lengthAdjust="spacing" textLength="78" x="2229" y="585.1063">ExamStruct</text></g><g id="elem_ExamState"><rect fill="#F1F1F1" height="34.6211" style="stroke:#181818;stroke-width:0.5;" width="96" x="2351" y="555.4383"/><text fill="#000000" font-family="sans-serif" font-size="12" font-style="italic" lengthAdjust="spacing" textLength="86" x="2356" y="567.0398">&#171;Value Object&#187;</text><text fill="#000000" font-family="sans-serif" font-size="14" lengthAdjust="spacing" textLength="72" x="2363" y="585.1063">ExamState</text></g><!--class Schedule--><g id="elem_Schedule"><rect fill="#F1F1F1" height="32" id="Schedule" rx="2.5" ry="2.5" style="stroke:#181818;stroke-width:0.5;" width="94" x="2482" y="556.7483"/><ellipse cx="2497" cy="572.7483" fill="#ADD1B2" rx="11" ry="11" style="stroke:#181818;stroke-width:1.0;"/><path d="M2499.9731,578.3913 Q2499.3921,578.6902 2498.7529,578.8396 Q2498.1138,578.989 2497.4082,578.989 Q2494.9014,578.989 2493.5815,577.3371 Q2492.2617,575.6853 2492.2617,572.5642 Q2492.2617,569.4348 2493.5815,567.7829 Q2494.9014,566.1311 2497.4082,566.1311 Q2498.1138,566.1311 2498.7612,566.2805 Q2499.4087,566.4299 2499.9731,566.7288 L2499.9731,569.4514 Q2499.3423,568.8704 2498.7488,568.6006 Q2498.1553,568.3308 2497.5244,568.3308 Q2496.1797,568.3308 2495.4949,569.3975 Q2494.8101,570.4641 2494.8101,572.5642 Q2494.8101,574.656 2495.4949,575.7226 Q2496.1797,576.7893 2497.5244,576.7893 Q2498.1553,576.7893 2498.7488,576.5195 Q2499.3423,576.2497 2499.9731,575.6687 Z " fill="#000000"/><text fill="#000000" font-family="sans-serif" font-size="14" lengthAdjust="spacing" textLength="62" x="2511" y="578.0393">Schedule</text></g><!--class Student--><g id="elem_Student"><rect codeLine="51" fill="#F1F1F1" height="54.7539" id="Student" rx="2.5" ry="2.5" style="stroke:#181818;stroke-width:0.5;" width="85" x="1357.5" y="194.2383"/><ellipse cx="1372.5" cy="221.6152" fill="#ADD1B2" rx="11" ry="11" style="stroke:#181818;stroke-width:1.0;"/><path d="M1376.6143,227.6152 L1368.8945,227.6152 L1368.8945,215.2222 L1376.6143,215.2222 L1376.6143,217.3804 L1371.3433,217.3804 L1371.3433,220.0532 L1376.1162,220.0532 L1376.1162,222.2114 L1371.3433,222.2114 L1371.3433,225.457 L1376.6143,225.457 Z " fill="#000000"/><text fill="#000000" font-family="sans-serif" font-size="12" font-style="italic" lengthAdjust="spacing" textLength="43" x="1391.5" y="210.8398">&#171;Entity&#187;</text><text fill="#000000" font-family="sans-serif" font-size="12" font-style="italic" lengthAdjust="spacing" textLength="38" x="1394" y="224.9727">&#171;Root&#187;</text><text fill="#000000" font-family="sans-serif" font-size="14" lengthAdjust="spacing" textLength="53" x="1386.5" y="241.0391">Student</text></g><g id="elem_MechanographicNumber"><rect fill="#F1F1F1" height="34.6211" style="stroke:#181818;stroke-width:0.5;" width="183" x="1284.5" y="331.0583"/><text fill="#000000" font-family="sans-serif" font-size="12" font-style="italic" lengthAdjust="spacing" textLength="86" x="1333" y="342.6598">&#171;Value Object&#187;</text><text fill="#000000" font-family="sans-serif" font-size="14" lengthAdjust="spacing" textLength="169" x="1291.5" y="360.7263">MechanographicNumber</text></g><!--class Grade--><g id="elem_Grade"><rect codeLine="59" fill="#F1F1F1" height="54.7539" id="Grade" rx="2.5" ry="2.5" style="stroke:#181818;stroke-width:0.5;" width="73" x="1601.5" y="320.9983"/><ellipse cx="1616.5" cy="348.3752" fill="#ADD1B2" rx="11" ry="11" style="stroke:#181818;stroke-width:1.0;"/><path d="M1620.6143,354.3752 L1612.8945,354.3752 L1612.8945,341.9822 L1620.6143,341.9822 L1620.6143,344.1404 L1615.3433,344.1404 L1615.3433,346.8132 L1620.1162,346.8132 L1620.1162,348.9714 L1615.3433,348.9714 L1615.3433,352.217 L1620.6143,352.217 Z " fill="#000000"/><text fill="#000000" font-family="sans-serif" font-size="12" font-style="italic" lengthAdjust="spacing" textLength="43" x="1629.5" y="337.5998">&#171;Entity&#187;</text><text fill="#000000" font-family="sans-serif" font-size="12" font-style="italic" lengthAdjust="spacing" textLength="38" x="1632" y="351.7327">&#171;Root&#187;</text><text fill="#000000" font-family="sans-serif" font-size="14" lengthAdjust="spacing" textLength="41" x="1630.5" y="367.7991">Grade</text></g><g id="elem_TotalGrade"><rect fill="#F1F1F1" height="34.6211" style="stroke:#181818;stroke-width:0.5;" width="96" x="1524" y="450.7483"/><text fill="#000000" font-family="sans-serif" font-size="12" font-style="italic" lengthAdjust="spacing" textLength="86" x="1529" y="462.3498">&#171;Value Object&#187;</text><text fill="#000000" font-family="sans-serif" font-size="14" lengthAdjust="spacing" textLength="76" x="1534" y="480.4163">TotalGrade</text></g><g id="elem_ParcialGrade"><rect fill="#F1F1F1" height="34.6211" style="stroke:#181818;stroke-width:0.5;" width="100" x="1655" y="450.7483"/><text fill="#000000" font-family="sans-serif" font-size="12" font-style="italic" lengthAdjust="spacing" textLength="86" x="1662" y="462.3498">&#171;Value Object&#187;</text><text fill="#000000" font-family="sans-serif" font-size="14" lengthAdjust="spacing" textLength="86" x="1662" y="480.4163">ParcialGrade</text></g><!--link Course to CourseTitle--><g id="link_Course_CourseTitle"><path codeLine="21" d="M801.83,134.6483 C801.83,134.6483 801.83,198.0883 801.83,198.0883 " fill="none" id="Course-to-CourseTitle" style="stroke:#181818;stroke-width:1.0;"/><polygon fill="#181818" points="801.83,203.0883,805.83,194.0883,801.83,198.0883,797.83,194.0883,801.83,203.0883" style="stroke:#181818;stroke-width:1.0;"/><text fill="#000000" font-family="sans-serif" font-size="13" lengthAdjust="spacing" textLength="33" x="767.83" y="162.9366">has a</text><text fill="#000000" font-family="sans-serif" font-size="13" lengthAdjust="spacing" textLength="8" x="800.1366" y="154.9688">1</text><text fill="#000000" font-family="sans-serif" font-size="13" lengthAdjust="spacing" textLength="8" x="782.0886" y="195.5933">1</text></g><!--link Course to Id--><g id="link_Course_Id"><path codeLine="22" d="M740.17,134.5783 C740.17,162.0483 740.17,200.0583 740.17,200.0583 C740.17,200.0583 125.39,200.0583 125.39,200.0583 " fill="none" id="Course-to-Id" style="stroke:#181818;stroke-width:1.0;"/><polygon fill="#181818" points="120.39,200.0583,129.39,204.0583,125.39,200.0583,129.39,196.0583,120.39,200.0583" style="stroke:#181818;stroke-width:1.0;"/><text fill="#000000" font-family="sans-serif" font-size="13" lengthAdjust="spacing" textLength="33" x="431.52" y="196.6266">has a</text><text fill="#000000" font-family="sans-serif" font-size="13" lengthAdjust="spacing" textLength="8" x="724.9884" y="154.8835">1</text><text fill="#000000" font-family="sans-serif" font-size="13" lengthAdjust="spacing" textLength="8" x="127.0848" y="193.3817">1</text></g><!--link Course to CourseDescription--><g id="link_Course_CourseDescription"><path codeLine="23" d="M751.83,134.6483 C751.83,134.6483 751.83,198.0883 751.83,198.0883 " fill="none" id="Course-to-CourseDescription" style="stroke:#181818;stroke-width:1.0;"/><polygon fill="#181818" points="751.83,203.0883,755.83,194.0883,751.83,198.0883,747.83,194.0883,751.83,203.0883" style="stroke:#181818;stroke-width:1.0;"/><text fill="#000000" font-family="sans-serif" font-size="13" lengthAdjust="spacing" textLength="33" x="717.83" y="162.9366">has a</text><text fill="#000000" font-family="sans-serif" font-size="13" lengthAdjust="spacing" textLength="8" x="739.1991" y="154.9688">1</text><text fill="#000000" font-family="sans-serif" font-size="13" lengthAdjust="spacing" textLength="8" x="761.9924" y="193.4167">1</text></g><!--link Course to CourseState--><g id="link_Course_CourseState"><path codeLine="24" d="M728.22,94.0583 C598.21,94.0583 202,94.0583 202,94.0583 C202,94.0583 202,197.8783 202,197.8783 " fill="none" id="Course-to-CourseState" style="stroke:#181818;stroke-width:1.0;"/><polygon fill="#181818" points="202,202.8783,206,193.8783,202,197.8783,198,193.8783,202,202.8783" style="stroke:#181818;stroke-width:1.0;"/><text fill="#000000" font-family="sans-serif" font-size="13" lengthAdjust="spacing" textLength="33" x="379.2" y="90.6266">has a</text><text fill="#000000" font-family="sans-serif" font-size="13" lengthAdjust="spacing" textLength="8" x="712.5234" y="88.1631">1</text><text fill="#000000" font-family="sans-serif" font-size="13" lengthAdjust="spacing" textLength="8" x="192.725" y="193.4507">1</text></g><!--link Course to CourseEnrollmentState--><g id="link_Course_CourseEnrollmentState"><path codeLine="25" d="M728.28,107.0583 C626.84,107.0583 371,107.0583 371,107.0583 C371,107.0583 371,198.2183 371,198.2183 " fill="none" id="Course-to-CourseEnrollmentState" style="stroke:#181818;stroke-width:1.0;"/><polygon fill="#181818" points="371,203.2183,375,194.2183,371,198.2183,367,194.2183,371,203.2183" style="stroke:#181818;stroke-width:1.0;"/><text fill="#000000" font-family="sans-serif" font-size="13" lengthAdjust="spacing" textLength="41" x="462.06" y="103.6266">has an</text><text fill="#000000" font-family="sans-serif" font-size="13" lengthAdjust="spacing" textLength="8" x="712.5938" y="120.9756">1</text><text fill="#000000" font-family="sans-serif" font-size="13" lengthAdjust="spacing" textLength="8" x="361.675" y="193.5898">1</text></g><!--link Course to Edition--><g id="link_Course_Edition"><path codeLine="26" d="M728.06,121.0583 C662.19,121.0583 540,121.0583 540,121.0583 C540,121.0583 540,198.0983 540,198.0983 " fill="none" id="Course-to-Edition" style="stroke:#181818;stroke-width:1.0;"/><polygon fill="#181818" points="540,203.0983,544,194.0983,540,198.0983,536,194.0983,540,203.0983" style="stroke:#181818;stroke-width:1.0;"/><text fill="#000000" font-family="sans-serif" font-size="13" lengthAdjust="spacing" textLength="33" x="561.51" y="117.6266">has a</text><text fill="#000000" font-family="sans-serif" font-size="13" lengthAdjust="spacing" textLength="8" x="712.6168" y="137.2453">1</text><text fill="#000000" font-family="sans-serif" font-size="13" lengthAdjust="spacing" textLength="8" x="530.675" y="193.43">1</text></g><!--link Course to ExamsList--><g id="link_Course_ExamsList"><path codeLine="27" d="M809.6,116.0583 C870.13,116.0583 977,116.0583 977,116.0583 C977,116.0583 977,198.1883 977,198.1883 " fill="none" id="Course-to-ExamsList" style="stroke:#181818;stroke-width:1.0;"/><polygon fill="#181818" points="977,203.1883,981,194.1883,977,198.1883,973,194.1883,977,203.1883" style="stroke:#181818;stroke-width:1.0;"/><text fill="#000000" font-family="sans-serif" font-size="13" lengthAdjust="spacing" textLength="41" x="892.36" y="112.6266">has an</text><text fill="#000000" font-family="sans-serif" font-size="13" lengthAdjust="spacing" textLength="8" x="817.5444" y="113.9559">1</text><text fill="#000000" font-family="sans-serif" font-size="13" lengthAdjust="spacing" textLength="6" x="970.0063" y="193.5498">*</text></g><!--link Course to CourseEnrollmentsList--><g id="link_Course_CourseEnrollmentsList"><path codeLine="28" d="M809.85,98.0583 C907.04,98.0583 1144,98.0583 1144,98.0583 C1144,98.0583 1144,197.9183 1144,197.9183 " fill="none" id="Course-to-CourseEnrollmentsList" style="stroke:#181818;stroke-width:1.0;"/><polygon fill="#181818" points="1144,202.9183,1148,193.9183,1144,197.9183,1140,193.9183,1144,202.9183" style="stroke:#181818;stroke-width:1.0;"/><text fill="#000000" font-family="sans-serif" font-size="13" lengthAdjust="spacing" textLength="41" x="984.85" y="94.6266">has an</text><text fill="#000000" font-family="sans-serif" font-size="13" lengthAdjust="spacing" textLength="8" x="817.5586" y="92.8506">1</text><text fill="#000000" font-family="sans-serif" font-size="13" lengthAdjust="spacing" textLength="6" x="1137.0438" y="193.5035">*</text></g><!--link Exam to ExamTitle--><g id="link_Exam_ExamTitle"><path codeLine="41" d="M1962.2,491.0583 C1921.02,491.0583 1859,491.0583 1859,491.0583 C1859,491.0583 1859,549.0183 1859,549.0183 " fill="none" id="Exam-to-ExamTitle" style="stroke:#181818;stroke-width:1.0;"/><polygon fill="#181818" points="1859,554.0183,1863,545.0183,1859,549.0183,1855,545.0183,1859,554.0183" style="stroke:#181818;stroke-width:1.0;"/><text fill="#000000" font-family="sans-serif" font-size="13" lengthAdjust="spacing" textLength="37" x="1843.62" y="487.6266">needs</text><text fill="#000000" font-family="sans-serif" font-size="13" lengthAdjust="spacing" textLength="8" x="1946.6131" y="491.6115">1</text><text fill="#000000" font-family="sans-serif" font-size="13" lengthAdjust="spacing" textLength="8" x="1849.725" y="544.5939">1</text></g><!--link Exam to ExamState--><g id="link_Exam_ExamState"><path codeLine="42" d="M2033.94,463.0583 C2132.36,463.0583 2399,463.0583 2399,463.0583 C2399,463.0583 2399,549.1283 2399,549.1283 " fill="none" id="Exam-to-ExamState" style="stroke:#181818;stroke-width:1.0;"/><polygon fill="#181818" points="2399,554.1283,2403,545.1283,2399,549.1283,2395,545.1283,2399,554.1283" style="stroke:#181818;stroke-width:1.0;"/><text fill="#000000" font-family="sans-serif" font-size="13" lengthAdjust="spacing" textLength="33" x="2225.5" y="459.6266">has a</text><text fill="#000000" font-family="sans-serif" font-size="13" lengthAdjust="spacing" textLength="8" x="2041.5536" y="458.274">1</text><text fill="#000000" font-family="sans-serif" font-size="13" lengthAdjust="spacing" textLength="8" x="2389.725" y="544.739">1</text></g><!--link Exam to FeedBackType--><g id="link_Exam_FeedBackType"><path codeLine="43" d="M1998,495.8383 C1998,495.8383 1998,549.0483 1998,549.0483 " fill="none" id="Exam-to-FeedBackType" style="stroke:#181818;stroke-width:1.0;"/><polygon fill="#181818" points="1998,554.0483,2002,545.0483,1998,549.0483,1994,545.0483,1998,554.0483" style="stroke:#181818;stroke-width:1.0;"/><text fill="#000000" font-family="sans-serif" font-size="13" lengthAdjust="spacing" textLength="33" x="1964" y="536.0166">has a</text><text fill="#000000" font-family="sans-serif" font-size="13" lengthAdjust="spacing" textLength="8" x="1989.125" y="516.1588">1</text><text fill="#000000" font-family="sans-serif" font-size="13" lengthAdjust="spacing" textLength="8" x="1988.725" y="544.6335">1</text></g><!--link Exam to GradeType--><g id="link_Exam_GradeType"><path codeLine="44" d="M2033.8,485.0583 C2074.98,485.0583 2137,485.0583 2137,485.0583 C2137,485.0583 2137,548.9983 2137,548.9983 " fill="none" id="Exam-to-GradeType" style="stroke:#181818;stroke-width:1.0;"/><polygon fill="#181818" points="2137,553.9983,2141,544.9983,2137,548.9983,2133,544.9983,2137,553.9983" style="stroke:#181818;stroke-width:1.0;"/><text fill="#000000" font-family="sans-serif" font-size="13" lengthAdjust="spacing" textLength="33" x="2083.37" y="481.6266">has a</text><text fill="#000000" font-family="sans-serif" font-size="13" lengthAdjust="spacing" textLength="8" x="2041.3869" y="502.3271">1</text><text fill="#000000" font-family="sans-serif" font-size="13" lengthAdjust="spacing" textLength="8" x="2127.725" y="544.5675">1</text></g><!--link Exam to ExamStruct--><g id="link_Exam_ExamStruct"><path codeLine="45" d="M2033.85,474.0583 C2107.3,474.0583 2268,474.0583 2268,474.0583 C2268,474.0583 2268,549.1083 2268,549.1083 " fill="none" id="Exam-to-ExamStruct" style="stroke:#181818;stroke-width:1.0;"/><polygon fill="#181818" points="2268,554.1083,2272,545.1083,2268,549.1083,2264,545.1083,2268,554.1083" style="stroke:#181818;stroke-width:1.0;"/><text fill="#000000" font-family="sans-serif" font-size="13" lengthAdjust="spacing" textLength="54" x="2133.45" y="470.6266">contains</text><text fill="#000000" font-family="sans-serif" font-size="13" lengthAdjust="spacing" textLength="8" x="2041.4464" y="471.3709">1</text><text fill="#000000" font-family="sans-serif" font-size="13" lengthAdjust="spacing" textLength="24" x="2240.175" y="544.7126">0..1</text></g><!--link Exam to Schedule--><g id="link_Exam_Schedule"><path codeLine="46" d="M2033.66,452.0583 C2152.72,452.0583 2529,452.0583 2529,452.0583 C2529,452.0583 2529,550.4683 2529,550.4683 " fill="none" id="Exam-to-Schedule" style="stroke:#181818;stroke-width:1.0;"/><polygon fill="#181818" points="2529,555.4683,2533,546.4683,2529,550.4683,2525,546.4683,2529,555.4683" style="stroke:#181818;stroke-width:1.0;"/><text fill="#000000" font-family="sans-serif" font-size="13" lengthAdjust="spacing" textLength="33" x="2296.54" y="448.6266">has a</text><text fill="#000000" font-family="sans-serif" font-size="13" lengthAdjust="spacing" textLength="8" x="2041.4681" y="445.0312">1</text><text fill="#000000" font-family="sans-serif" font-size="13" lengthAdjust="spacing" textLength="8" x="2519.625" y="545.9156">1</text></g><!--link Student to MechanographicNumber--><g id="link_Student_MechanographicNumber"><path codeLine="54" d="M1385.83,249.4383 C1385.83,249.4383 1385.83,324.7683 1385.83,324.7683 " fill="none" id="Student-to-MechanographicNumber" style="stroke:#181818;stroke-width:1.0;"/><polygon fill="#181818" points="1385.83,329.7683,1389.83,320.7683,1385.83,324.7683,1381.83,320.7683,1385.83,329.7683" style="stroke:#181818;stroke-width:1.0;"/><text fill="#000000" font-family="sans-serif" font-size="13" lengthAdjust="spacing" textLength="33" x="1351.83" y="283.6666">has a</text><text fill="#000000" font-family="sans-serif" font-size="13" lengthAdjust="spacing" textLength="8" x="1373.8553" y="269.7675">1</text><text fill="#000000" font-family="sans-serif" font-size="13" lengthAdjust="spacing" textLength="8" x="1379.6883" y="320.3853">1</text></g><!--link Grade to TotalGrade--><g id="link_Grade_TotalGrade"><path codeLine="63" d="M1610.75,376.1283 C1610.75,376.1283 1610.75,444.4683 1610.75,444.4683 " fill="none" id="Grade-to-TotalGrade" style="stroke:#181818;stroke-width:1.0;"/><polygon fill="#181818" points="1610.75,449.4683,1614.75,440.4683,1610.75,444.4683,1606.75,440.4683,1610.75,449.4683" style="stroke:#181818;stroke-width:1.0;"/><text fill="#000000" font-family="sans-serif" font-size="13" lengthAdjust="spacing" textLength="33" x="1576.75" y="406.8666">has a</text><text fill="#000000" font-family="sans-serif" font-size="13" lengthAdjust="spacing" textLength="8" x="1595.9141" y="396.4422">1</text><text fill="#000000" font-family="sans-serif" font-size="13" lengthAdjust="spacing" textLength="8" x="1613.8266" y="440.0885">1</text></g><!--link Grade to ParcialGrade--><g id="link_Grade_ParcialGrade"><path codeLine="64" d="M1661.5,376.1283 C1661.5,376.1283 1661.5,444.4683 1661.5,444.4683 " fill="none" id="Grade-to-ParcialGrade" style="stroke:#181818;stroke-width:1.0;"/><polygon fill="#181818" points="1661.5,449.4683,1665.5,440.4683,1661.5,444.4683,1657.5,440.4683,1661.5,449.4683" style="stroke:#181818;stroke-width:1.0;"/><text fill="#000000" font-family="sans-serif" font-size="13" lengthAdjust="spacing" textLength="33" x="1627.5" y="406.8666">has a</text><text fill="#000000" font-family="sans-serif" font-size="13" lengthAdjust="spacing" textLength="8" x="1657.7656" y="396.4422">1</text><text fill="#000000" font-family="sans-serif" font-size="13" lengthAdjust="spacing" textLength="8" x="1638.9531" y="440.4002">1</text></g><!--link Course to Exam--><g id="link_Course_Exam"><path codeLine="67" d="M780.75,134.4983 C780.75,215.7283 780.75,448.0583 780.75,448.0583 C780.75,448.0583 1956.23,448.0583 1956.23,448.0583 " fill="none" id="Course-to-Exam" style="stroke:#181818;stroke-width:1.0;"/><polygon fill="#181818" points="1961.23,448.0583,1952.23,444.0583,1956.23,448.0583,1952.23,452.0583,1961.23,448.0583" style="stroke:#181818;stroke-width:1.0;"/><text fill="#000000" font-family="sans-serif" font-size="13" lengthAdjust="spacing" textLength="22" x="1188.71" y="444.6266">has</text><text fill="#000000" font-family="sans-serif" font-size="13" lengthAdjust="spacing" textLength="8" x="774.4453" y="154.786">1</text><text fill="#000000" font-family="sans-serif" font-size="13" lengthAdjust="spacing" textLength="6" x="1948.5972" y="458.1969">*</text></g><!--link Course to Student--><g id="link_Course_Student"><path codeLine="68" d="M805.67,134.6583 C805.67,162.7483 805.67,202.0583 805.67,202.0583 C805.67,202.0583 1351.26,202.0583 1351.26,202.0583 " fill="none" id="Course-to-Student" style="stroke:#181818;stroke-width:1.0;"/><polygon fill="#181818" points="1356.26,202.0583,1347.26,198.0583,1351.26,202.0583,1347.26,206.0583,1356.26,202.0583" style="stroke:#181818;stroke-width:1.0;"/><text fill="#000000" font-family="sans-serif" font-size="13" lengthAdjust="spacing" textLength="22" x="1021.76" y="198.6266">has</text><text fill="#000000" font-family="sans-serif" font-size="13" lengthAdjust="spacing" textLength="8" x="814.5666" y="154.981">1</text><text fill="#000000" font-family="sans-serif" font-size="13" lengthAdjust="spacing" textLength="6" x="1343.3984" y="195.0029">*</text></g><!--link Student to Grade--><g id="link_Student_Grade"><path codeLine="69" d="M1414.17,249.3283 C1414.17,280.2683 1414.17,326.0583 1414.17,326.0583 C1414.17,326.0583 1595.04,326.0583 1595.04,326.0583 " fill="none" id="Student-to-Grade" style="stroke:#181818;stroke-width:1.0;"/><polygon fill="#181818" points="1600.04,326.0583,1591.04,322.0583,1595.04,326.0583,1591.04,330.0583,1600.04,326.0583" style="stroke:#181818;stroke-width:1.0;"/><text fill="#000000" font-family="sans-serif" font-size="13" lengthAdjust="spacing" textLength="22" x="1443.24" y="322.6266">has</text><text fill="#000000" font-family="sans-serif" font-size="13" lengthAdjust="spacing" textLength="8" x="1408.3947" y="269.6335">1</text><text fill="#000000" font-family="sans-serif" font-size="13" lengthAdjust="spacing" textLength="6" x="1587.4226" y="317.9724">*</text></g><!--link Student to Exam--><g id="link_Student_Exam"><path codeLine="70" d="M1442.53,222.0583 C1579.15,222.0583 1998,222.0583 1998,222.0583 C1998,222.0583 1998,434.3183 1998,434.3183 " fill="none" id="Student-to-Exam" style="stroke:#181818;stroke-width:1.0;"/><polygon fill="#181818" points="1998,439.3183,2002,430.3183,1998,434.3183,1994,430.3183,1998,439.3183" style="stroke:#181818;stroke-width:1.0;"/><text fill="#000000" font-family="sans-serif" font-size="13" lengthAdjust="spacing" textLength="34" x="1791.39" y="218.6266">takes</text><text fill="#000000" font-family="sans-serif" font-size="13" lengthAdjust="spacing" textLength="8" x="1450.5273" y="218.4404">1</text></g><!--link Grade to Exam--><g id="link_Grade_Exam"><path codeLine="71" d="M1668,376.0483 C1668,404.3083 1668,444.0583 1668,444.0583 C1668,444.0583 1956.06,444.0583 1956.06,444.0583 " fill="none" id="Grade-to-Exam" style="stroke:#181818;stroke-width:1.0;"/><polygon fill="#181818" points="1961.06,444.0583,1952.06,440.0583,1956.06,444.0583,1952.06,448.0583,1961.06,444.0583" style="stroke:#181818;stroke-width:1.0;"/><text fill="#000000" font-family="sans-serif" font-size="13" lengthAdjust="spacing" textLength="22" x="1755.02" y="440.6266">has</text><text fill="#000000" font-family="sans-serif" font-size="13" lengthAdjust="spacing" textLength="8" x="1675.4375" y="396.3447">1</text><text fill="#000000" font-family="sans-serif" font-size="13" lengthAdjust="spacing" textLength="6" x="1948.3937" y="435.4562">*</text></g><!--SRC=[bPHBQzmm4CVl-XI3Zmi9xJKOGzjioa9VT9VU5MbYgsjBYoINXjBlNab-ARRiJVVYPVIRvt-aId249u4r9vN_sw2j53U4M65hX7lLK27XNejVw3veH2a9CMSXBrJJ1ceXqJvV49HsVeHeP9RAqdbcUVwkB3MMr69Hm0VLQeCP_244t0-bY__SM_FykrAsAF9y7yn54HZr-DD5WmFFyn-qRX6-1eFd3jm7U9gHNRIZTHddBajiBxMgwyR52GwmvR7dmWebuNfKDo6cnUMLz2dCU3FpRzgOJy9O-9-ELZo2Io_4smnkRWfmtwYKEwYe0Phc3XmspvS3IEAE7k5kybUncLGzBvTbkCyWrMgfsIwRXheHQfUbfpgw_DtOTf_1xtgqwju4YKsVgns4s1Bx0P6_f-nyyjTk2_oeASUhbCzvjBfbzZgLl2TT1w7ZGRQn3pSjwSerQMGf_miaRdGL6fjS8TxStWx9V8ztm9IqxacRIe8n5XnPXRoTxi6Mn4VR-aTe_gBrvadWGV9ucf-HLLIgKjDB9TYNjdb4dRwjVJYO5Zpb-vfwmw3crGRZIgrT8N1IbjOzbzYFdlf6DHDhN033KTH75FZ52YouE3H4dSuUe5tMgHc8nE4moUvyK2y2eWJpupwmfMSqf1jaEkq_]--></g></svg>