<?xml version="1.0" encoding="us-ascii" standalone="no"?><svg xmlns="http://www.w3.org/2000/svg" xmlns:xlink="http://www.w3.org/1999/xlink" contentStyleType="text/css" height="826px" preserveAspectRatio="none" style="width:1426px;height:826px;background:#FFFFFF;" version="1.1" viewBox="0 0 1426 826" width="1426px" zoomAndPan="magnify"><defs/><g><rect fill="#FFFFFF" height="608.2383" style="stroke:#181818;stroke-width:1.0;" width="10" x="321.5" y="116.9121"/><rect fill="#FFFFFF" height="217.7461" style="stroke:#181818;stroke-width:1.0;" width="10" x="502.5" y="192.4941"/><rect fill="#FFFFFF" height="189.7461" style="stroke:#181818;stroke-width:1.0;" width="10" x="502.5" y="504.1133"/><rect fill="#FFFFFF" height="123.873" style="stroke:#181818;stroke-width:1.0;" width="10" x="745.5" y="223.7852"/><rect fill="#FFFFFF" height="92.582" style="stroke:#181818;stroke-width:1.0;" width="10" x="906.5" y="255.0762"/><rect fill="#FFFFFF" height="61.291" style="stroke:#181818;stroke-width:1.0;" width="10" x="1053.5" y="286.3672"/><rect fill="#FFFFFF" height="61.291" style="stroke:#181818;stroke-width:1.0;" width="10" x="1192.5" y="317.6582"/><rect fill="#FFFFFF" height="31.291" style="stroke:#181818;stroke-width:1.0;" width="10" x="1296.5" y="535.4043"/><rect fill="#FFFFFF" height="31.291" style="stroke:#181818;stroke-width:1.0;" width="10" x="1372" y="624.2773"/><rect fill="none" height="81.873" style="stroke:#000000;stroke-width:1.5;" width="1020.5" x="400" y="581.6953"/><line style="stroke:#181818;stroke-width:0.5;stroke-dasharray:5.0,5.0;" x1="34" x2="34" y1="83.6211" y2="743.1504"/><line style="stroke:#181818;stroke-width:0.5;stroke-dasharray:5.0,5.0;" x1="326" x2="326" y1="83.6211" y2="743.1504"/><line style="stroke:#181818;stroke-width:0.5;stroke-dasharray:5.0,5.0;" x1="507" x2="507" y1="83.6211" y2="743.1504"/><line style="stroke:#181818;stroke-width:0.5;stroke-dasharray:5.0,5.0;" x1="750.5" x2="750.5" y1="83.6211" y2="743.1504"/><line style="stroke:#181818;stroke-width:0.5;stroke-dasharray:5.0,5.0;" x1="911.5" x2="911.5" y1="83.6211" y2="743.1504"/><line style="stroke:#181818;stroke-width:0.5;stroke-dasharray:5.0,5.0;" x1="1058.5" x2="1058.5" y1="83.6211" y2="743.1504"/><line style="stroke:#181818;stroke-width:0.5;stroke-dasharray:5.0,5.0;" x1="1197.5" x2="1197.5" y1="83.6211" y2="743.1504"/><line style="stroke:#181818;stroke-width:0.5;stroke-dasharray:5.0,5.0;" x1="1301.5" x2="1301.5" y1="83.6211" y2="743.1504"/><line style="stroke:#181818;stroke-width:0.5;stroke-dasharray:5.0,5.0;" x1="1376.5" x2="1376.5" y1="83.6211" y2="743.1504"/><text fill="#000000" font-family="sans-serif" font-size="14" lengthAdjust="spacing" textLength="53" x="5" y="80.1074">Teacher</text><ellipse cx="34.5" cy="13.5" fill="#E2E2F0" rx="8" ry="8" style="stroke:#181818;stroke-width:0.5;"/><path d="M34.5,21.5 L34.5,48.5 M21.5,29.5 L47.5,29.5 M34.5,48.5 L21.5,63.5 M34.5,48.5 L47.5,63.5 " fill="none" style="stroke:#181818;stroke-width:0.5;"/><text fill="#000000" font-family="sans-serif" font-size="14" lengthAdjust="spacing" textLength="53" x="5" y="757.2578">Teacher</text><ellipse cx="34.5" cy="769.2715" fill="#E2E2F0" rx="8" ry="8" style="stroke:#181818;stroke-width:0.5;"/><path d="M34.5,777.2715 L34.5,804.2715 M21.5,785.2715 L47.5,785.2715 M34.5,804.2715 L21.5,819.2715 M34.5,804.2715 L47.5,819.2715 " fill="none" style="stroke:#181818;stroke-width:0.5;"/><rect fill="#E2E2F0" height="32.6211" rx="2.5" ry="2.5" style="stroke:#181818;stroke-width:0.5;" width="145" x="254" y="50"/><text fill="#000000" font-family="sans-serif" font-size="14" lengthAdjust="spacing" textLength="131" x="261" y="72.1074">:ListCourseGradesUI</text><rect fill="#E2E2F0" height="32.6211" rx="2.5" ry="2.5" style="stroke:#181818;stroke-width:0.5;" width="145" x="254" y="742.1504"/><text fill="#000000" font-family="sans-serif" font-size="14" lengthAdjust="spacing" textLength="131" x="261" y="764.2578">:ListCourseGradesUI</text><rect fill="#E2E2F0" height="32.6211" rx="2.5" ry="2.5" style="stroke:#181818;stroke-width:0.5;" width="195" x="410" y="50"/><text fill="#000000" font-family="sans-serif" font-size="14" lengthAdjust="spacing" textLength="181" x="417" y="72.1074">:ListCourseGradesController</text><rect fill="#E2E2F0" height="32.6211" rx="2.5" ry="2.5" style="stroke:#181818;stroke-width:0.5;" width="195" x="410" y="742.1504"/><text fill="#000000" font-family="sans-serif" font-size="14" lengthAdjust="spacing" textLength="181" x="417" y="764.2578">:ListCourseGradesController</text><rect fill="#E2E2F0" height="32.6211" rx="2.5" ry="2.5" style="stroke:#181818;stroke-width:0.5;" width="162" x="669.5" y="50"/><text fill="#000000" font-family="sans-serif" font-size="14" lengthAdjust="spacing" textLength="148" x="676.5" y="72.1074">:ListUserCourseService</text><rect fill="#E2E2F0" height="32.6211" rx="2.5" ry="2.5" style="stroke:#181818;stroke-width:0.5;" width="162" x="669.5" y="742.1504"/><text fill="#000000" font-family="sans-serif" font-size="14" lengthAdjust="spacing" textLength="148" x="676.5" y="764.2578">:ListUserCourseService</text><rect fill="#E2E2F0" height="32.6211" rx="2.5" ry="2.5" style="stroke:#181818;stroke-width:0.5;" width="140" x="841.5" y="50"/><text fill="#000000" font-family="sans-serif" font-size="14" lengthAdjust="spacing" textLength="126" x="848.5" y="72.1074">:PersistenceContext</text><rect fill="#E2E2F0" height="32.6211" rx="2.5" ry="2.5" style="stroke:#181818;stroke-width:0.5;" width="140" x="841.5" y="742.1504"/><text fill="#000000" font-family="sans-serif" font-size="14" lengthAdjust="spacing" textLength="126" x="848.5" y="764.2578">:PersistenceContext</text><rect fill="#E2E2F0" height="32.6211" rx="2.5" ry="2.5" style="stroke:#181818;stroke-width:0.5;" width="134" x="991.5" y="50"/><text fill="#000000" font-family="sans-serif" font-size="14" lengthAdjust="spacing" textLength="120" x="998.5" y="72.1074">:RepositoryFactory</text><rect fill="#E2E2F0" height="32.6211" rx="2.5" ry="2.5" style="stroke:#181818;stroke-width:0.5;" width="134" x="991.5" y="742.1504"/><text fill="#000000" font-family="sans-serif" font-size="14" lengthAdjust="spacing" textLength="120" x="998.5" y="764.2578">:RepositoryFactory</text><text fill="#000000" font-family="sans-serif" font-size="14" lengthAdjust="spacing" textLength="118" x="1135.5" y="80.1074">:CourseRepository</text><path d="M1179.5,29 C1179.5,19 1197.5,19 1197.5,19 C1197.5,19 1215.5,19 1215.5,29 L1215.5,55 C1215.5,65 1197.5,65 1197.5,65 C1197.5,65 1179.5,65 1179.5,55 L1179.5,29 " fill="#E2E2F0" style="stroke:#181818;stroke-width:1.5;"/><path d="M1179.5,29 C1179.5,39 1197.5,39 1197.5,39 C1197.5,39 1215.5,39 1215.5,29 " fill="none" style="stroke:#181818;stroke-width:1.5;"/><text fill="#000000" font-family="sans-serif" font-size="14" lengthAdjust="spacing" textLength="118" x="1135.5" y="757.2578">:CourseRepository</text><path d="M1179.5,770.7715 C1179.5,760.7715 1197.5,760.7715 1197.5,760.7715 C1197.5,760.7715 1215.5,760.7715 1215.5,770.7715 L1215.5,796.7715 C1215.5,806.7715 1197.5,806.7715 1197.5,806.7715 C1197.5,806.7715 1179.5,806.7715 1179.5,796.7715 L1179.5,770.7715 " fill="#E2E2F0" style="stroke:#181818;stroke-width:1.5;"/><path d="M1179.5,770.7715 C1179.5,780.7715 1197.5,780.7715 1197.5,780.7715 C1197.5,780.7715 1215.5,780.7715 1215.5,770.7715 " fill="none" style="stroke:#181818;stroke-width:1.5;"/><rect fill="#E2E2F0" height="32.6211" rx="2.5" ry="2.5" style="stroke:#181818;stroke-width:0.5;" width="64" x="1269.5" y="50"/><text fill="#000000" font-family="sans-serif" font-size="14" lengthAdjust="spacing" textLength="50" x="1276.5" y="72.1074">:Course</text><rect fill="#E2E2F0" height="32.6211" rx="2.5" ry="2.5" style="stroke:#181818;stroke-width:0.5;" width="64" x="1269.5" y="742.1504"/><text fill="#000000" font-family="sans-serif" font-size="14" lengthAdjust="spacing" textLength="50" x="1276.5" y="764.2578">:Course</text><rect fill="#E2E2F0" height="32.6211" rx="2.5" ry="2.5" style="stroke:#181818;stroke-width:0.5;" width="67" x="1343.5" y="50"/><text fill="#000000" font-family="sans-serif" font-size="14" lengthAdjust="spacing" textLength="53" x="1350.5" y="72.1074">:Student</text><rect fill="#E2E2F0" height="32.6211" rx="2.5" ry="2.5" style="stroke:#181818;stroke-width:0.5;" width="67" x="1343.5" y="742.1504"/><text fill="#000000" font-family="sans-serif" font-size="14" lengthAdjust="spacing" textLength="53" x="1350.5" y="764.2578">:Student</text><rect fill="#FFFFFF" height="608.2383" style="stroke:#181818;stroke-width:1.0;" width="10" x="321.5" y="116.9121"/><rect fill="#FFFFFF" height="217.7461" style="stroke:#181818;stroke-width:1.0;" width="10" x="502.5" y="192.4941"/><rect fill="#FFFFFF" height="189.7461" style="stroke:#181818;stroke-width:1.0;" width="10" x="502.5" y="504.1133"/><rect fill="#FFFFFF" height="123.873" style="stroke:#181818;stroke-width:1.0;" width="10" x="745.5" y="223.7852"/><rect fill="#FFFFFF" height="92.582" style="stroke:#181818;stroke-width:1.0;" width="10" x="906.5" y="255.0762"/><rect fill="#FFFFFF" height="61.291" style="stroke:#181818;stroke-width:1.0;" width="10" x="1053.5" y="286.3672"/><rect fill="#FFFFFF" height="61.291" style="stroke:#181818;stroke-width:1.0;" width="10" x="1192.5" y="317.6582"/><rect fill="#FFFFFF" height="31.291" style="stroke:#181818;stroke-width:1.0;" width="10" x="1296.5" y="535.4043"/><rect fill="#FFFFFF" height="31.291" style="stroke:#181818;stroke-width:1.0;" width="10" x="1372" y="624.2773"/><polygon fill="#181818" points="309.5,112.9121,319.5,116.9121,309.5,120.9121,313.5,116.9121" style="stroke:#181818;stroke-width:1.0;"/><line style="stroke:#181818;stroke-width:1.0;" x1="34.5" x2="315.5" y1="116.9121" y2="116.9121"/><text fill="#000000" font-family="sans-serif" font-size="13" lengthAdjust="spacing" textLength="38" x="41.5" y="111.6494">show()</text><line style="stroke:#181818;stroke-width:1.0;" x1="331.5" x2="373.5" y1="148.2031" y2="148.2031"/><line style="stroke:#181818;stroke-width:1.0;" x1="373.5" x2="373.5" y1="148.2031" y2="161.2031"/><line style="stroke:#181818;stroke-width:1.0;" x1="332.5" x2="373.5" y1="161.2031" y2="161.2031"/><polygon fill="#181818" points="342.5,157.2031,332.5,161.2031,342.5,165.2031,338.5,161.2031" style="stroke:#181818;stroke-width:1.0;"/><text fill="#000000" font-family="sans-serif" font-size="13" lengthAdjust="spacing" textLength="54" x="338.5" y="142.9404">doShow()</text><polygon fill="#181818" points="490.5,188.4941,500.5,192.4941,490.5,196.4941,494.5,192.4941" style="stroke:#181818;stroke-width:1.0;"/><line style="stroke:#181818;stroke-width:1.0;" x1="331.5" x2="496.5" y1="192.4941" y2="192.4941"/><text fill="#000000" font-family="sans-serif" font-size="13" lengthAdjust="spacing" textLength="74" x="338.5" y="187.2314">myCourses()</text><polygon fill="#181818" points="733.5,219.7852,743.5,223.7852,733.5,227.7852,737.5,223.7852" style="stroke:#181818;stroke-width:1.0;"/><line style="stroke:#181818;stroke-width:1.0;" x1="512.5" x2="739.5" y1="223.7852" y2="223.7852"/><text fill="#000000" font-family="sans-serif" font-size="13" lengthAdjust="spacing" textLength="214" x="519.5" y="218.5225">listCoursesByTeacher(emailAddress)</text><polygon fill="#181818" points="894.5,251.0762,904.5,255.0762,894.5,259.0762,898.5,255.0762" style="stroke:#181818;stroke-width:1.0;"/><line style="stroke:#181818;stroke-width:1.0;" x1="755.5" x2="900.5" y1="255.0762" y2="255.0762"/><text fill="#000000" font-family="sans-serif" font-size="13" lengthAdjust="spacing" textLength="75" x="762.5" y="249.8135">repositories()</text><polygon fill="#181818" points="1041.5,282.3672,1051.5,286.3672,1041.5,290.3672,1045.5,286.3672" style="stroke:#181818;stroke-width:1.0;"/><line style="stroke:#181818;stroke-width:1.0;" x1="916.5" x2="1047.5" y1="286.3672" y2="286.3672"/><text fill="#000000" font-family="sans-serif" font-size="13" lengthAdjust="spacing" textLength="111" x="923.5" y="281.1045">CourseRepository()</text><polygon fill="#181818" points="1180.5,313.6582,1190.5,317.6582,1180.5,321.6582,1184.5,317.6582" style="stroke:#181818;stroke-width:1.0;"/><line style="stroke:#181818;stroke-width:1.0;" x1="1063.5" x2="1186.5" y1="317.6582" y2="317.6582"/><text fill="#000000" font-family="sans-serif" font-size="13" lengthAdjust="spacing" textLength="26" x="1070.5" y="312.3955">get()</text><polygon fill="#181818" points="523.5,374.9492,513.5,378.9492,523.5,382.9492,519.5,378.9492" style="stroke:#181818;stroke-width:1.0;"/><line style="stroke:#181818;stroke-width:1.0;stroke-dasharray:2.0,2.0;" x1="517.5" x2="1196.5" y1="378.9492" y2="378.9492"/><text fill="#000000" font-family="sans-serif" font-size="13" lengthAdjust="spacing" textLength="87" x="529.5" y="373.6865">List of Courses</text><polygon fill="#181818" points="342.5,406.2402,332.5,410.2402,342.5,414.2402,338.5,410.2402" style="stroke:#181818;stroke-width:1.0;"/><line style="stroke:#181818;stroke-width:1.0;stroke-dasharray:2.0,2.0;" x1="336.5" x2="506.5" y1="410.2402" y2="410.2402"/><text fill="#000000" font-family="sans-serif" font-size="13" lengthAdjust="spacing" textLength="87" x="348.5" y="404.9775">List of Courses</text><polygon fill="#181818" points="45.5,437.5313,35.5,441.5313,45.5,445.5313,41.5,441.5313" style="stroke:#181818;stroke-width:1.0;"/><line style="stroke:#181818;stroke-width:1.0;stroke-dasharray:2.0,2.0;" x1="39.5" x2="320.5" y1="441.5313" y2="441.5313"/><text fill="#000000" font-family="sans-serif" font-size="13" lengthAdjust="spacing" textLength="263" x="51.5" y="436.2686">Asks the user to select the pretended Course</text><polygon fill="#181818" points="309.5,468.8223,319.5,472.8223,309.5,476.8223,313.5,472.8223" style="stroke:#181818;stroke-width:1.0;"/><line style="stroke:#181818;stroke-width:1.0;" x1="34.5" x2="315.5" y1="472.8223" y2="472.8223"/><text fill="#000000" font-family="sans-serif" font-size="13" lengthAdjust="spacing" textLength="89" x="41.5" y="467.5596">Selects Course</text><polygon fill="#181818" points="490.5,500.1133,500.5,504.1133,490.5,508.1133,494.5,504.1133" style="stroke:#181818;stroke-width:1.0;"/><line style="stroke:#181818;stroke-width:1.0;" x1="331.5" x2="496.5" y1="504.1133" y2="504.1133"/><text fill="#000000" font-family="sans-serif" font-size="13" lengthAdjust="spacing" textLength="151" x="338.5" y="498.8506">listStudentGrades(course)</text><polygon fill="#181818" points="1284.5,531.4043,1294.5,535.4043,1284.5,539.4043,1288.5,535.4043" style="stroke:#181818;stroke-width:1.0;"/><line style="stroke:#181818;stroke-width:1.0;" x1="512.5" x2="1290.5" y1="535.4043" y2="535.4043"/><text fill="#000000" font-family="sans-serif" font-size="13" lengthAdjust="spacing" textLength="121" x="519.5" y="530.1416">findCourseStudents()</text><polygon fill="#181818" points="523.5,562.6953,513.5,566.6953,523.5,570.6953,519.5,566.6953" style="stroke:#181818;stroke-width:1.0;"/><line style="stroke:#181818;stroke-width:1.0;stroke-dasharray:2.0,2.0;" x1="517.5" x2="1300.5" y1="566.6953" y2="566.6953"/><text fill="#000000" font-family="sans-serif" font-size="13" lengthAdjust="spacing" textLength="77" x="529.5" y="561.4326">Students List</text><path d="M400,581.6953 L473,581.6953 L473,590.9863 L463,600.9863 L400,600.9863 L400,581.6953 " fill="#EEEEEE" style="stroke:#000000;stroke-width:1.5;"/><rect fill="none" height="81.873" style="stroke:#000000;stroke-width:1.5;" width="1020.5" x="400" y="581.6953"/><text fill="#000000" font-family="sans-serif" font-size="13" font-weight="bold" lengthAdjust="spacing" textLength="28" x="415" y="596.7236">loop</text><polygon fill="#181818" points="1360,620.2773,1370,624.2773,1360,628.2773,1364,624.2773" style="stroke:#181818;stroke-width:1.0;"/><line style="stroke:#181818;stroke-width:1.0;" x1="512.5" x2="1366" y1="624.2773" y2="624.2773"/><text fill="#000000" font-family="sans-serif" font-size="13" lengthAdjust="spacing" textLength="145" x="519.5" y="619.0146">getStudentGrade(course)</text><polygon fill="#181818" points="523.5,651.5684,513.5,655.5684,523.5,659.5684,519.5,655.5684" style="stroke:#181818;stroke-width:1.0;"/><line style="stroke:#181818;stroke-width:1.0;stroke-dasharray:2.0,2.0;" x1="517.5" x2="1376" y1="655.5684" y2="655.5684"/><text fill="#000000" font-family="sans-serif" font-size="13" lengthAdjust="spacing" textLength="125" x="529.5" y="650.3057">List of student grades</text><polygon fill="#181818" points="342.5,689.8594,332.5,693.8594,342.5,697.8594,338.5,693.8594" style="stroke:#181818;stroke-width:1.0;"/><line style="stroke:#181818;stroke-width:1.0;stroke-dasharray:2.0,2.0;" x1="336.5" x2="506.5" y1="693.8594" y2="693.8594"/><text fill="#000000" font-family="sans-serif" font-size="13" lengthAdjust="spacing" textLength="147" x="348.5" y="688.5967">List of all Student Grades</text><polygon fill="#181818" points="45.5,721.1504,35.5,725.1504,45.5,729.1504,41.5,725.1504" style="stroke:#181818;stroke-width:1.0;"/><line style="stroke:#181818;stroke-width:1.0;stroke-dasharray:2.0,2.0;" x1="39.5" x2="325.5" y1="725.1504" y2="725.1504"/><text fill="#000000" font-family="sans-serif" font-size="13" lengthAdjust="spacing" textLength="151" x="51.5" y="719.8877">Shows the student grades</text><!--SRC=[XPJDJiCm383lUOg8qtRO2t10WaaW90w8mGE4n6KHNLFPtc1lZvsqNTiDE3Rv_9FFtfpdXFOLdDy2MaTsJsXQXnnzR5t3zkhwAHAlqnu97j05eBV7gmp6VxXrQXXJNGDctlEbn6y4M88sW8Ve8RDoU9Z1pu0aF3GUD35ySoPRF-DUe4qKvL77UwTlEsOCAnCSktT784mfU29BVpZlhs3TvUnkm_i0JUc1s1ZHPbSt8iLUMzgchyNI6AaV3uv1LSb5VntIfW3bJBp8uUvOgj4aK9tflM2gHBXwa4ntnsvi2zYvMD-6W40q3iyQSw0aQBs4O__cEAka7hrYM0as5pH1nQL0sZbgvn_0SdrgMJG66CEZBwao-ihj6Sso6ZpeJjXKTHtG6DVCMKOlyYzMnAbUHKdptj8dMTxABAIgvIJ5Q_2SZre4sQi0eSiq6UOcSpHSZMQci-Zse6pymcTeUN60NaEgs8HktKiWJTs9ZP6CdialdQemfawf7PQ3oo36tPmt8pa4F7TD9Sf-v4TC9iH6n9ZBsbrTzntQXxFGimdeqfSH_5vFVYYJJ_al-W40]--></g></svg>