<?xml version="1.0" encoding="us-ascii" standalone="no"?><svg xmlns="http://www.w3.org/2000/svg" xmlns:xlink="http://www.w3.org/1999/xlink" contentStyleType="text/css" height="311px" preserveAspectRatio="none" style="width:291px;height:311px;background:#FFFFFF;" version="1.1" viewBox="0 0 291 311" width="291px" zoomAndPan="magnify"><defs/><g><rect fill="#FFFFFF" height="117.1641" style="stroke:#181818;stroke-width:1.0;" width="10" x="29.5" y="93.6211"/><rect fill="#FFFFFF" height="31.291" style="stroke:#181818;stroke-width:1.0;" width="10" x="250.5" y="116.9121"/><rect fill="#FFFFFF" height="31.291" style="stroke:#181818;stroke-width:1.0;" width="10" x="250.5" y="179.4941"/><line style="stroke:#181818;stroke-width:0.5;stroke-dasharray:5.0,5.0;" x1="34" x2="34" y1="83.6211" y2="228.7852"/><line style="stroke:#181818;stroke-width:0.5;stroke-dasharray:5.0,5.0;" x1="255.5" x2="255.5" y1="83.6211" y2="228.7852"/><text fill="#000000" font-family="sans-serif" font-size="14" lengthAdjust="spacing" textLength="53" x="5" y="80.1074">Teacher</text><ellipse cx="34.5" cy="13.5" fill="#E2E2F0" rx="8" ry="8" style="stroke:#181818;stroke-width:0.5;"/><path d="M34.5,21.5 L34.5,48.5 M21.5,29.5 L47.5,29.5 M34.5,48.5 L21.5,63.5 M34.5,48.5 L47.5,63.5 " fill="none" style="stroke:#181818;stroke-width:0.5;"/><text fill="#000000" font-family="sans-serif" font-size="14" lengthAdjust="spacing" textLength="53" x="5" y="242.8926">Teacher</text><ellipse cx="34.5" cy="254.9063" fill="#E2E2F0" rx="8" ry="8" style="stroke:#181818;stroke-width:0.5;"/><path d="M34.5,262.9063 L34.5,289.9063 M21.5,270.9063 L47.5,270.9063 M34.5,289.9063 L21.5,304.9063 M34.5,289.9063 L47.5,304.9063 " fill="none" style="stroke:#181818;stroke-width:0.5;"/><rect fill="#E2E2F0" height="32.6211" rx="2.5" ry="2.5" style="stroke:#181818;stroke-width:0.5;" width="60" x="225.5" y="50"/><text fill="#000000" font-family="sans-serif" font-size="14" lengthAdjust="spacing" textLength="46" x="232.5" y="72.1074">System</text><rect fill="#E2E2F0" height="32.6211" rx="2.5" ry="2.5" style="stroke:#181818;stroke-width:0.5;" width="60" x="225.5" y="227.7852"/><text fill="#000000" font-family="sans-serif" font-size="14" lengthAdjust="spacing" textLength="46" x="232.5" y="249.8926">System</text><rect fill="#FFFFFF" height="117.1641" style="stroke:#181818;stroke-width:1.0;" width="10" x="29.5" y="93.6211"/><rect fill="#FFFFFF" height="31.291" style="stroke:#181818;stroke-width:1.0;" width="10" x="250.5" y="116.9121"/><rect fill="#FFFFFF" height="31.291" style="stroke:#181818;stroke-width:1.0;" width="10" x="250.5" y="179.4941"/><polygon fill="#181818" points="238.5,112.9121,248.5,116.9121,238.5,120.9121,242.5,116.9121" style="stroke:#181818;stroke-width:1.0;"/><line style="stroke:#181818;stroke-width:1.0;" x1="39.5" x2="244.5" y1="116.9121" y2="116.9121"/><text fill="#000000" font-family="sans-serif" font-size="13" lengthAdjust="spacing" textLength="192" x="46.5" y="111.6494">I want to view grades from course</text><polygon fill="#181818" points="50.5,144.2031,40.5,148.2031,50.5,152.2031,46.5,148.2031" style="stroke:#181818;stroke-width:1.0;"/><line style="stroke:#181818;stroke-width:1.0;stroke-dasharray:2.0,2.0;" x1="44.5" x2="254.5" y1="148.2031" y2="148.2031"/><text fill="#000000" font-family="sans-serif" font-size="13" lengthAdjust="spacing" textLength="142" x="56.5" y="142.9404">Shows available courses</text><polygon fill="#181818" points="238.5,175.4941,248.5,179.4941,238.5,183.4941,242.5,179.4941" style="stroke:#181818;stroke-width:1.0;"/><line style="stroke:#181818;stroke-width:1.0;" x1="39.5" x2="244.5" y1="179.4941" y2="179.4941"/><text fill="#000000" font-family="sans-serif" font-size="13" lengthAdjust="spacing" textLength="109" x="46.5" y="174.2314">Selects the course</text><polygon fill="#181818" points="45.5,206.7852,35.5,210.7852,45.5,214.7852,41.5,210.7852" style="stroke:#181818;stroke-width:1.0;"/><line style="stroke:#181818;stroke-width:1.0;stroke-dasharray:2.0,2.0;" x1="39.5" x2="254.5" y1="210.7852" y2="210.7852"/><text fill="#000000" font-family="sans-serif" font-size="13" lengthAdjust="spacing" textLength="119" x="51.5" y="205.5225">Prints grades details</text><!--SRC=[ZP112i8m54JtESLSe1VeGd3fJeWN-2PV4qWR-FccU7i3JLMa2rS30szccAFJBBWmkS1Y33cDbPJVJbSC1zXdKPv6dB3GhD2C6dd1NSXpmKto19SVKlYJiY9c5GmjfEUDi24l1LGf9hecxcWndd_fdGcM4pijqB21vg_IiyIvONsoPstjUvLVpdR42m00]--></g></svg>