<?xml version="1.0" encoding="us-ascii" standalone="no"?><svg xmlns="http://www.w3.org/2000/svg" xmlns:xlink="http://www.w3.org/1999/xlink" contentStyleType="text/css" height="612px" preserveAspectRatio="none" style="width:2788px;height:612px;background:#FFFFFF;" version="1.1" viewBox="0 0 2788 612" width="2788px" zoomAndPan="magnify"><defs/><g><text fill="#000000" font-family="sans-serif" font-size="14" font-weight="bold" lengthAdjust="spacing" textLength="163" x="1305.5" y="23.5352">Domain Driven Design</text><!--cluster <<Aggregate>> Course--><g id="cluster_&lt;&lt;Aggregate&gt;&gt; Course"><rect fill="none" height="217.51" rx="2.5" ry="2.5" style="stroke:#181818;stroke-width:1.0;" width="1237" x="7" y="44.4883"/><text fill="#000000" font-family="sans-serif" font-size="14" font-weight="bold" lengthAdjust="spacing" textLength="144" x="553.5" y="60.0234">&#171;Aggregate&#187; Course</text></g><!--cluster <<Aggregate>> Teacher--><g id="cluster_&lt;&lt;Aggregate&gt;&gt; Teacher"><rect fill="none" height="222.44" rx="2.5" ry="2.5" style="stroke:#181818;stroke-width:1.0;" width="166" x="1268" y="159.2383"/><text fill="#000000" font-family="sans-serif" font-size="14" font-weight="bold" lengthAdjust="spacing" textLength="150" x="1276" y="174.7734">&#171;Aggregate&#187; Teacher</text></g><!--cluster <<Aggregate>> Exam--><g id="cluster_&lt;&lt;Aggregate&gt;&gt; Exam"><rect fill="none" height="200.38" rx="2.5" ry="2.5" style="stroke:#181818;stroke-width:1.0;" width="797" x="1985" y="405.6783"/><text fill="#000000" font-family="sans-serif" font-size="14" font-weight="bold" lengthAdjust="spacing" textLength="132" x="2317.5" y="421.2134">&#171;Aggregate&#187; Exam</text></g><!--cluster <<Aggregate>> Student--><g id="cluster_&lt;&lt;Aggregate&gt;&gt; Student"><rect fill="none" height="222.44" rx="2.5" ry="2.5" style="stroke:#181818;stroke-width:1.0;" width="216" x="1458" y="159.2383"/><text fill="#000000" font-family="sans-serif" font-size="14" font-weight="bold" lengthAdjust="spacing" textLength="149" x="1491.5" y="174.7734">&#171;Aggregate&#187; Student</text></g><!--cluster <<Aggregate>> Grade--><g id="cluster_&lt;&lt;Aggregate&gt;&gt; Grade"><rect fill="none" height="215.37" rx="2.5" ry="2.5" style="stroke:#181818;stroke-width:1.0;" width="263" x="1698" y="285.9983"/><text fill="#000000" font-family="sans-serif" font-size="14" font-weight="bold" lengthAdjust="spacing" textLength="135" x="1762" y="301.5334">&#171;Aggregate&#187; Grade</text></g><!--class Course--><g id="elem_Course"><rect codeLine="11" fill="#F1F1F1" height="54.7539" id="Course" rx="2.5" ry="2.5" style="stroke:#181818;stroke-width:0.5;" width="81" x="805.5" y="79.4883"/><ellipse cx="820.5" cy="106.8652" fill="#ADD1B2" rx="11" ry="11" style="stroke:#181818;stroke-width:1.0;"/><path d="M824.6143,112.8652 L816.8945,112.8652 L816.8945,100.4722 L824.6143,100.4722 L824.6143,102.6304 L819.3433,102.6304 L819.3433,105.3032 L824.1162,105.3032 L824.1162,107.4614 L819.3433,107.4614 L819.3433,110.707 L824.6143,110.707 Z " fill="#000000"/><text fill="#000000" font-family="sans-serif" font-size="12" font-style="italic" lengthAdjust="spacing" textLength="38" x="840" y="96.0898">&#171;Root&#187;</text><text fill="#000000" font-family="sans-serif" font-size="12" font-style="italic" lengthAdjust="spacing" textLength="43" x="837.5" y="110.2227">&#171;Entity&#187;</text><text fill="#000000" font-family="sans-serif" font-size="14" lengthAdjust="spacing" textLength="49" x="834.5" y="126.2891">Course</text></g><g id="elem_Id"><rect fill="#F1F1F1" height="48.7539" style="stroke:#181818;stroke-width:0.5;" width="96" x="23" y="197.2383"/><text fill="#000000" font-family="sans-serif" font-size="12" font-style="italic" lengthAdjust="spacing" textLength="86" x="28" y="208.8398">&#171;Value Object&#187;</text><text fill="#000000" font-family="sans-serif" font-size="12" font-style="italic" lengthAdjust="spacing" textLength="54" x="44" y="222.9727">&#171;Identify&#187;</text><text fill="#000000" font-family="sans-serif" font-size="14" lengthAdjust="spacing" textLength="13" x="64.5" y="241.0391">Id</text></g><g id="elem_CourseState"><rect fill="#F1F1F1" height="34.6211" style="stroke:#181818;stroke-width:0.5;" width="97" x="153.5" y="204.3083"/><text fill="#000000" font-family="sans-serif" font-size="12" font-style="italic" lengthAdjust="spacing" textLength="86" x="159" y="215.9098">&#171;Value Object&#187;</text><text fill="#000000" font-family="sans-serif" font-size="14" lengthAdjust="spacing" textLength="83" x="160.5" y="233.9763">CourseState</text></g><g id="elem_CourseEnrollmentState"><rect fill="#F1F1F1" height="34.6211" style="stroke:#181818;stroke-width:0.5;" width="172" x="285" y="204.3083"/><text fill="#000000" font-family="sans-serif" font-size="12" font-style="italic" lengthAdjust="spacing" textLength="86" x="328" y="215.9098">&#171;Value Object&#187;</text><text fill="#000000" font-family="sans-serif" font-size="14" lengthAdjust="spacing" textLength="158" x="292" y="233.9763">CourseEnrollmentState</text></g><g id="elem_Edition"><rect fill="#F1F1F1" height="34.6211" style="stroke:#181818;stroke-width:0.5;" width="96" x="492" y="204.3083"/><text fill="#000000" font-family="sans-serif" font-size="12" font-style="italic" lengthAdjust="spacing" textLength="86" x="497" y="215.9098">&#171;Value Object&#187;</text><text fill="#000000" font-family="sans-serif" font-size="14" lengthAdjust="spacing" textLength="48" x="516" y="233.9763">Edition</text></g><g id="elem_CourseDescription"><rect fill="#F1F1F1" height="34.6211" style="stroke:#181818;stroke-width:0.5;" width="141" x="622.5" y="204.3083"/><text fill="#000000" font-family="sans-serif" font-size="12" font-style="italic" lengthAdjust="spacing" textLength="86" x="650" y="215.9098">&#171;Value Object&#187;</text><text fill="#000000" font-family="sans-serif" font-size="14" lengthAdjust="spacing" textLength="127" x="629.5" y="233.9763">CourseDescription</text></g><g id="elem_CourseTitle"><rect fill="#F1F1F1" height="34.6211" style="stroke:#181818;stroke-width:0.5;" width="96" x="798" y="204.3083"/><text fill="#000000" font-family="sans-serif" font-size="12" font-style="italic" lengthAdjust="spacing" textLength="86" x="803" y="215.9098">&#171;Value Object&#187;</text><text fill="#000000" font-family="sans-serif" font-size="14" lengthAdjust="spacing" textLength="79" x="806.5" y="233.9763">CourseTitle</text></g><g id="elem_ExamsList"><rect fill="#F1F1F1" height="34.6211" style="stroke:#181818;stroke-width:0.5;" width="96" x="929" y="204.3083"/><text fill="#000000" font-family="sans-serif" font-size="12" font-style="italic" lengthAdjust="spacing" textLength="86" x="934" y="215.9098">&#171;Value Object&#187;</text><text fill="#000000" font-family="sans-serif" font-size="14" lengthAdjust="spacing" textLength="68" x="943" y="233.9763">ExamsList</text></g><g id="elem_CourseEnrollmentsList"><rect fill="#F1F1F1" height="34.6211" style="stroke:#181818;stroke-width:0.5;" width="168" x="1060" y="204.3083"/><text fill="#000000" font-family="sans-serif" font-size="12" font-style="italic" lengthAdjust="spacing" textLength="86" x="1101" y="215.9098">&#171;Value Object&#187;</text><text fill="#000000" font-family="sans-serif" font-size="14" lengthAdjust="spacing" textLength="154" x="1067" y="233.9763">CourseEnrollmentsList</text></g><!--class Teacher--><g id="elem_Teacher"><rect codeLine="33" fill="#F1F1F1" height="54.7539" id="Teacher" rx="2.5" ry="2.5" style="stroke:#181818;stroke-width:0.5;" width="87" x="1285.5" y="194.2383"/><ellipse cx="1300.5" cy="221.6152" fill="#ADD1B2" rx="11" ry="11" style="stroke:#181818;stroke-width:1.0;"/><path d="M1304.6143,227.6152 L1296.8945,227.6152 L1296.8945,215.2222 L1304.6143,215.2222 L1304.6143,217.3804 L1299.3433,217.3804 L1299.3433,220.0532 L1304.1162,220.0532 L1304.1162,222.2114 L1299.3433,222.2114 L1299.3433,225.457 L1304.6143,225.457 Z " fill="#000000"/><text fill="#000000" font-family="sans-serif" font-size="12" font-style="italic" lengthAdjust="spacing" textLength="43" x="1320.5" y="210.8398">&#171;Entity&#187;</text><text fill="#000000" font-family="sans-serif" font-size="12" font-style="italic" lengthAdjust="spacing" textLength="38" x="1323" y="224.9727">&#171;Root&#187;</text><text fill="#000000" font-family="sans-serif" font-size="14" lengthAdjust="spacing" textLength="55" x="1314.5" y="241.0391">Teacher</text></g><g id="elem_Acronym"><rect fill="#F1F1F1" height="34.6211" style="stroke:#181818;stroke-width:0.5;" width="96" x="1284" y="331.0583"/><text fill="#000000" font-family="sans-serif" font-size="12" font-style="italic" lengthAdjust="spacing" textLength="86" x="1289" y="342.6598">&#171;Value Object&#187;</text><text fill="#000000" font-family="sans-serif" font-size="14" lengthAdjust="spacing" textLength="61" x="1301.5" y="360.7263">Acronym</text></g><!--class Exam--><g id="elem_Exam"><rect codeLine="40" fill="#F1F1F1" height="54.7539" id="Exam" rx="2.5" ry="2.5" style="stroke:#181818;stroke-width:0.5;" width="71" x="2152.5" y="440.6783"/><ellipse cx="2167.5" cy="468.0552" fill="#ADD1B2" rx="11" ry="11" style="stroke:#181818;stroke-width:1.0;"/><path d="M2171.6143,474.0552 L2163.8945,474.0552 L2163.8945,461.6622 L2171.6143,461.6622 L2171.6143,463.8204 L2166.3433,463.8204 L2166.3433,466.4932 L2171.1162,466.4932 L2171.1162,468.6514 L2166.3433,468.6514 L2166.3433,471.897 L2171.6143,471.897 Z " fill="#000000"/><text fill="#000000" font-family="sans-serif" font-size="12" font-style="italic" lengthAdjust="spacing" textLength="38" x="2182" y="457.2798">&#171;Root&#187;</text><text fill="#000000" font-family="sans-serif" font-size="12" font-style="italic" lengthAdjust="spacing" textLength="43" x="2179.5" y="471.4127">&#171;Entity&#187;</text><text fill="#000000" font-family="sans-serif" font-size="14" lengthAdjust="spacing" textLength="38" x="2182" y="487.4791">Exam</text></g><g id="elem_ExamTitle"><rect fill="#F1F1F1" height="34.6211" style="stroke:#181818;stroke-width:0.5;" width="96" x="2001" y="555.4383"/><text fill="#000000" font-family="sans-serif" font-size="12" font-style="italic" lengthAdjust="spacing" textLength="86" x="2006" y="567.0398">&#171;Value Object&#187;</text><text fill="#000000" font-family="sans-serif" font-size="14" lengthAdjust="spacing" textLength="68" x="2015" y="585.1063">ExamTitle</text></g><g id="elem_FeedBackType"><rect fill="#F1F1F1" height="34.6211" style="stroke:#181818;stroke-width:0.5;" width="111" x="2132.5" y="555.4383"/><text fill="#000000" font-family="sans-serif" font-size="12" font-style="italic" lengthAdjust="spacing" textLength="86" x="2145" y="567.0398">&#171;Value Object&#187;</text><text fill="#000000" font-family="sans-serif" font-size="14" lengthAdjust="spacing" textLength="97" x="2139.5" y="585.1063">FeedBackType</text></g><g id="elem_GradeType"><rect fill="#F1F1F1" height="34.6211" style="stroke:#181818;stroke-width:0.5;" width="96" x="2279" y="555.4383"/><text fill="#000000" font-family="sans-serif" font-size="12" font-style="italic" lengthAdjust="spacing" textLength="86" x="2284" y="567.0398">&#171;Value Object&#187;</text><text fill="#000000" font-family="sans-serif" font-size="14" lengthAdjust="spacing" textLength="74" x="2290" y="585.1063">GradeType</text></g><g id="elem_ExamStruct"><rect fill="#F1F1F1" height="34.6211" style="stroke:#181818;stroke-width:0.5;" width="96" x="2410" y="555.4383"/><text fill="#000000" font-family="sans-serif" font-size="12" font-style="italic" lengthAdjust="spacing" textLength="86" x="2415" y="567.0398">&#171;Value Object&#187;</text><text fill="#000000" font-family="sans-serif" font-size="14" lengthAdjust="spacing" textLength="78" x="2419" y="585.1063">ExamStruct</text></g><g id="elem_ExamState"><rect fill="#F1F1F1" height="34.6211" style="stroke:#181818;stroke-width:0.5;" width="96" x="2541" y="555.4383"/><text fill="#000000" font-family="sans-serif" font-size="12" font-style="italic" lengthAdjust="spacing" textLength="86" x="2546" y="567.0398">&#171;Value Object&#187;</text><text fill="#000000" font-family="sans-serif" font-size="14" lengthAdjust="spacing" textLength="72" x="2553" y="585.1063">ExamState</text></g><!--class Schedule--><g id="elem_Schedule"><rect fill="#F1F1F1" height="32" id="Schedule" rx="2.5" ry="2.5" style="stroke:#181818;stroke-width:0.5;" width="94" x="2672" y="556.7483"/><ellipse cx="2687" cy="572.7483" fill="#ADD1B2" rx="11" ry="11" style="stroke:#181818;stroke-width:1.0;"/><path d="M2689.9731,578.3913 Q2689.3921,578.6902 2688.7529,578.8396 Q2688.1138,578.989 2687.4082,578.989 Q2684.9014,578.989 2683.5815,577.3371 Q2682.2617,575.6853 2682.2617,572.5642 Q2682.2617,569.4348 2683.5815,567.7829 Q2684.9014,566.1311 2687.4082,566.1311 Q2688.1138,566.1311 2688.7612,566.2805 Q2689.4087,566.4299 2689.9731,566.7288 L2689.9731,569.4514 Q2689.3423,568.8704 2688.7488,568.6006 Q2688.1553,568.3308 2687.5244,568.3308 Q2686.1797,568.3308 2685.4949,569.3975 Q2684.8101,570.4641 2684.8101,572.5642 Q2684.8101,574.656 2685.4949,575.7226 Q2686.1797,576.7893 2687.5244,576.7893 Q2688.1553,576.7893 2688.7488,576.5195 Q2689.3423,576.2497 2689.9731,575.6687 Z " fill="#000000"/><text fill="#000000" font-family="sans-serif" font-size="14" lengthAdjust="spacing" textLength="62" x="2701" y="578.0393">Schedule</text></g><!--class Student--><g id="elem_Student"><rect codeLine="59" fill="#F1F1F1" height="54.7539" id="Student" rx="2.5" ry="2.5" style="stroke:#181818;stroke-width:0.5;" width="85" x="1547.5" y="194.2383"/><ellipse cx="1562.5" cy="221.6152" fill="#ADD1B2" rx="11" ry="11" style="stroke:#181818;stroke-width:1.0;"/><path d="M1566.6143,227.6152 L1558.8945,227.6152 L1558.8945,215.2222 L1566.6143,215.2222 L1566.6143,217.3804 L1561.3433,217.3804 L1561.3433,220.0532 L1566.1162,220.0532 L1566.1162,222.2114 L1561.3433,222.2114 L1561.3433,225.457 L1566.6143,225.457 Z " fill="#000000"/><text fill="#000000" font-family="sans-serif" font-size="12" font-style="italic" lengthAdjust="spacing" textLength="43" x="1581.5" y="210.8398">&#171;Entity&#187;</text><text fill="#000000" font-family="sans-serif" font-size="12" font-style="italic" lengthAdjust="spacing" textLength="38" x="1584" y="224.9727">&#171;Root&#187;</text><text fill="#000000" font-family="sans-serif" font-size="14" lengthAdjust="spacing" textLength="53" x="1576.5" y="241.0391">Student</text></g><g id="elem_MechanographicNumber"><rect fill="#F1F1F1" height="34.6211" style="stroke:#181818;stroke-width:0.5;" width="183" x="1474.5" y="331.0583"/><text fill="#000000" font-family="sans-serif" font-size="12" font-style="italic" lengthAdjust="spacing" textLength="86" x="1523" y="342.6598">&#171;Value Object&#187;</text><text fill="#000000" font-family="sans-serif" font-size="14" lengthAdjust="spacing" textLength="169" x="1481.5" y="360.7263">MechanographicNumber</text></g><!--class Grade--><g id="elem_Grade"><rect codeLine="67" fill="#F1F1F1" height="54.7539" id="Grade" rx="2.5" ry="2.5" style="stroke:#181818;stroke-width:0.5;" width="73" x="1791.5" y="320.9983"/><ellipse cx="1806.5" cy="348.3752" fill="#ADD1B2" rx="11" ry="11" style="stroke:#181818;stroke-width:1.0;"/><path d="M1810.6143,354.3752 L1802.8945,354.3752 L1802.8945,341.9822 L1810.6143,341.9822 L1810.6143,344.1404 L1805.3433,344.1404 L1805.3433,346.8132 L1810.1162,346.8132 L1810.1162,348.9714 L1805.3433,348.9714 L1805.3433,352.217 L1810.6143,352.217 Z " fill="#000000"/><text fill="#000000" font-family="sans-serif" font-size="12" font-style="italic" lengthAdjust="spacing" textLength="43" x="1819.5" y="337.5998">&#171;Entity&#187;</text><text fill="#000000" font-family="sans-serif" font-size="12" font-style="italic" lengthAdjust="spacing" textLength="38" x="1822" y="351.7327">&#171;Root&#187;</text><text fill="#000000" font-family="sans-serif" font-size="14" lengthAdjust="spacing" textLength="41" x="1820.5" y="367.7991">Grade</text></g><g id="elem_TotalGrade"><rect fill="#F1F1F1" height="34.6211" style="stroke:#181818;stroke-width:0.5;" width="96" x="1714" y="450.7483"/><text fill="#000000" font-family="sans-serif" font-size="12" font-style="italic" lengthAdjust="spacing" textLength="86" x="1719" y="462.3498">&#171;Value Object&#187;</text><text fill="#000000" font-family="sans-serif" font-size="14" lengthAdjust="spacing" textLength="76" x="1724" y="480.4163">TotalGrade</text></g><g id="elem_ParcialGrade"><rect fill="#F1F1F1" height="34.6211" style="stroke:#181818;stroke-width:0.5;" width="100" x="1845" y="450.7483"/><text fill="#000000" font-family="sans-serif" font-size="12" font-style="italic" lengthAdjust="spacing" textLength="86" x="1852" y="462.3498">&#171;Value Object&#187;</text><text fill="#000000" font-family="sans-serif" font-size="14" lengthAdjust="spacing" textLength="86" x="1852" y="480.4163">ParcialGrade</text></g><!--link Course to CourseTitle--><g id="link_Course_CourseTitle"><path codeLine="21" d="M846,134.6483 C846,134.6483 846,198.0883 846,198.0883 " fill="none" id="Course-to-CourseTitle" style="stroke:#181818;stroke-width:1.0;"/><polygon fill="#181818" points="846,203.0883,850,194.0883,846,198.0883,842,194.0883,846,203.0883" style="stroke:#181818;stroke-width:1.0;"/><text fill="#000000" font-family="sans-serif" font-size="13" lengthAdjust="spacing" textLength="33" x="812" y="162.9366">has a</text><text fill="#000000" font-family="sans-serif" font-size="13" lengthAdjust="spacing" textLength="8" x="837.125" y="154.9688">1</text><text fill="#000000" font-family="sans-serif" font-size="13" lengthAdjust="spacing" textLength="8" x="836.675" y="193.4167">1</text></g><!--link Course to Id--><g id="link_Course_Id"><path codeLine="22" d="M825.75,134.5783 C825.75,162.0483 825.75,200.0583 825.75,200.0583 C825.75,200.0583 125.36,200.0583 125.36,200.0583 " fill="none" id="Course-to-Id" style="stroke:#181818;stroke-width:1.0;"/><polygon fill="#181818" points="120.36,200.0583,129.36,204.0583,125.36,200.0583,129.36,196.0583,120.36,200.0583" style="stroke:#181818;stroke-width:1.0;"/><text fill="#000000" font-family="sans-serif" font-size="13" lengthAdjust="spacing" textLength="33" x="474.3" y="196.6266">has a</text><text fill="#000000" font-family="sans-serif" font-size="13" lengthAdjust="spacing" textLength="8" x="812.4453" y="154.8835">1</text><text fill="#000000" font-family="sans-serif" font-size="13" lengthAdjust="spacing" textLength="8" x="127.0504" y="193.3817">1</text></g><!--link Course to CourseDescription--><g id="link_Course_CourseDescription"><path codeLine="23" d="M805.4,124.0583 C760.07,124.0583 693,124.0583 693,124.0583 C693,124.0583 693,198.1783 693,198.1783 " fill="none" id="Course-to-CourseDescription" style="stroke:#181818;stroke-width:1.0;"/><polygon fill="#181818" points="693,203.1783,697,194.1783,693,198.1783,689,194.1783,693,203.1783" style="stroke:#181818;stroke-width:1.0;"/><text fill="#000000" font-family="sans-serif" font-size="13" lengthAdjust="spacing" textLength="33" x="678.14" y="120.6266">has a</text><text fill="#000000" font-family="sans-serif" font-size="13" lengthAdjust="spacing" textLength="8" x="789.4556" y="141.0527">1</text><text fill="#000000" font-family="sans-serif" font-size="13" lengthAdjust="spacing" textLength="8" x="683.675" y="193.5365">1</text></g><!--link Course to CourseState--><g id="link_Course_CourseState"><path codeLine="24" d="M805.23,91.0583 C663.66,91.0583 202,91.0583 202,91.0583 C202,91.0583 202,198.0083 202,198.0083 " fill="none" id="Course-to-CourseState" style="stroke:#181818;stroke-width:1.0;"/><polygon fill="#181818" points="202,203.0083,206,194.0083,202,198.0083,198,194.0083,202,203.0083" style="stroke:#181818;stroke-width:1.0;"/><text fill="#000000" font-family="sans-serif" font-size="13" lengthAdjust="spacing" textLength="33" x="416.14" y="87.6266">has a</text><text fill="#000000" font-family="sans-serif" font-size="13" lengthAdjust="spacing" textLength="8" x="789.5352" y="84.6474">1</text><text fill="#000000" font-family="sans-serif" font-size="13" lengthAdjust="spacing" textLength="8" x="192.725" y="193.6221">1</text></g><!--link Course to CourseEnrollmentState--><g id="link_Course_CourseEnrollmentState"><path codeLine="25" d="M805.09,102.0583 C689.87,102.0583 371,102.0583 371,102.0583 C371,102.0583 371,197.9783 371,197.9783 " fill="none" id="Course-to-CourseEnrollmentState" style="stroke:#181818;stroke-width:1.0;"/><polygon fill="#181818" points="371,202.9783,375,193.9783,371,197.9783,367,193.9783,371,202.9783" style="stroke:#181818;stroke-width:1.0;"/><text fill="#000000" font-family="sans-serif" font-size="13" lengthAdjust="spacing" textLength="41" x="498.09" y="98.6266">has an</text><text fill="#000000" font-family="sans-serif" font-size="13" lengthAdjust="spacing" textLength="8" x="789.3711" y="115.1162">1</text><text fill="#000000" font-family="sans-serif" font-size="13" lengthAdjust="spacing" textLength="8" x="361.725" y="193.5826">1</text></g><!--link Course to Edition--><g id="link_Course_Edition"><path codeLine="26" d="M805.05,113.0583 C721.67,113.0583 540,113.0583 540,113.0583 C540,113.0583 540,198.1783 540,198.1783 " fill="none" id="Course-to-Edition" style="stroke:#181818;stroke-width:1.0;"/><polygon fill="#181818" points="540,203.1783,544,194.1783,540,198.1783,536,194.1783,540,203.1783" style="stroke:#181818;stroke-width:1.0;"/><text fill="#000000" font-family="sans-serif" font-size="13" lengthAdjust="spacing" textLength="33" x="595.97" y="109.6266">has a</text><text fill="#000000" font-family="sans-serif" font-size="13" lengthAdjust="spacing" textLength="8" x="789.6052" y="127.9203">1</text><text fill="#000000" font-family="sans-serif" font-size="13" lengthAdjust="spacing" textLength="8" x="530.675" y="193.5365">1</text></g><!--link Course to ExamsList--><g id="link_Course_ExamsList"><path codeLine="27" d="M886.73,124.0583 C925.19,124.0583 977,124.0583 977,124.0583 C977,124.0583 977,198.1783 977,198.1783 " fill="none" id="Course-to-ExamsList" style="stroke:#181818;stroke-width:1.0;"/><polygon fill="#181818" points="977,203.1783,981,194.1783,977,198.1783,973,194.1783,977,203.1783" style="stroke:#181818;stroke-width:1.0;"/><text fill="#000000" font-family="sans-serif" font-size="13" lengthAdjust="spacing" textLength="41" x="926.92" y="120.6266">has an</text><text fill="#000000" font-family="sans-serif" font-size="13" lengthAdjust="spacing" textLength="8" x="894.418" y="140.8974">1</text><text fill="#000000" font-family="sans-serif" font-size="13" lengthAdjust="spacing" textLength="6" x="970.0063" y="193.5365">*</text></g><!--link Course to CourseEnrollmentsList--><g id="link_Course_CourseEnrollmentsList"><path codeLine="28" d="M886.81,113.0583 C968.43,113.0583 1144,113.0583 1144,113.0583 C1144,113.0583 1144,198.1783 1144,198.1783 " fill="none" id="Course-to-CourseEnrollmentsList" style="stroke:#181818;stroke-width:1.0;"/><polygon fill="#181818" points="1144,203.1783,1148,194.1783,1144,198.1783,1140,194.1783,1144,203.1783" style="stroke:#181818;stroke-width:1.0;"/><text fill="#000000" font-family="sans-serif" font-size="13" lengthAdjust="spacing" textLength="41" x="1015.96" y="109.6266">has an</text><text fill="#000000" font-family="sans-serif" font-size="13" lengthAdjust="spacing" textLength="8" x="894.5117" y="110.4287">1</text><text fill="#000000" font-family="sans-serif" font-size="13" lengthAdjust="spacing" textLength="6" x="1137.0063" y="193.5365">*</text></g><!--link Teacher to Acronym--><g id="link_Teacher_Acronym"><path codeLine="36" d="M1329,249.4383 C1329,249.4383 1329,324.7683 1329,324.7683 " fill="none" id="Teacher-to-Acronym" style="stroke:#181818;stroke-width:1.0;"/><polygon fill="#181818" points="1329,329.7683,1333,320.7683,1329,324.7683,1325,320.7683,1329,329.7683" style="stroke:#181818;stroke-width:1.0;"/><text fill="#000000" font-family="sans-serif" font-size="13" lengthAdjust="spacing" textLength="33" x="1295" y="283.6666">has a</text><text fill="#000000" font-family="sans-serif" font-size="13" lengthAdjust="spacing" textLength="8" x="1320.125" y="269.7675">1</text><text fill="#000000" font-family="sans-serif" font-size="13" lengthAdjust="spacing" textLength="8" x="1318.7688" y="320.3853">1</text></g><!--link Exam to ExamTitle--><g id="link_Exam_ExamTitle"><path codeLine="49" d="M2152.2,491.0583 C2111.02,491.0583 2049,491.0583 2049,491.0583 C2049,491.0583 2049,549.0183 2049,549.0183 " fill="none" id="Exam-to-ExamTitle" style="stroke:#181818;stroke-width:1.0;"/><polygon fill="#181818" points="2049,554.0183,2053,545.0183,2049,549.0183,2045,545.0183,2049,554.0183" style="stroke:#181818;stroke-width:1.0;"/><text fill="#000000" font-family="sans-serif" font-size="13" lengthAdjust="spacing" textLength="37" x="2033.62" y="487.6266">needs</text><text fill="#000000" font-family="sans-serif" font-size="13" lengthAdjust="spacing" textLength="8" x="2136.6131" y="491.6115">1</text><text fill="#000000" font-family="sans-serif" font-size="13" lengthAdjust="spacing" textLength="8" x="2039.725" y="544.5939">1</text></g><!--link Exam to ExamState--><g id="link_Exam_ExamState"><path codeLine="50" d="M2223.94,463.0583 C2322.36,463.0583 2589,463.0583 2589,463.0583 C2589,463.0583 2589,549.1283 2589,549.1283 " fill="none" id="Exam-to-ExamState" style="stroke:#181818;stroke-width:1.0;"/><polygon fill="#181818" points="2589,554.1283,2593,545.1283,2589,549.1283,2585,545.1283,2589,554.1283" style="stroke:#181818;stroke-width:1.0;"/><text fill="#000000" font-family="sans-serif" font-size="13" lengthAdjust="spacing" textLength="33" x="2415.5" y="459.6266">has a</text><text fill="#000000" font-family="sans-serif" font-size="13" lengthAdjust="spacing" textLength="8" x="2231.5536" y="458.274">1</text><text fill="#000000" font-family="sans-serif" font-size="13" lengthAdjust="spacing" textLength="8" x="2579.725" y="544.739">1</text></g><!--link Exam to FeedBackType--><g id="link_Exam_FeedBackType"><path codeLine="51" d="M2188,495.8383 C2188,495.8383 2188,549.0483 2188,549.0483 " fill="none" id="Exam-to-FeedBackType" style="stroke:#181818;stroke-width:1.0;"/><polygon fill="#181818" points="2188,554.0483,2192,545.0483,2188,549.0483,2184,545.0483,2188,554.0483" style="stroke:#181818;stroke-width:1.0;"/><text fill="#000000" font-family="sans-serif" font-size="13" lengthAdjust="spacing" textLength="33" x="2154" y="536.0166">has a</text><text fill="#000000" font-family="sans-serif" font-size="13" lengthAdjust="spacing" textLength="8" x="2179.125" y="516.1588">1</text><text fill="#000000" font-family="sans-serif" font-size="13" lengthAdjust="spacing" textLength="8" x="2178.725" y="544.6335">1</text></g><!--link Exam to GradeType--><g id="link_Exam_GradeType"><path codeLine="52" d="M2223.8,485.0583 C2264.98,485.0583 2327,485.0583 2327,485.0583 C2327,485.0583 2327,548.9983 2327,548.9983 " fill="none" id="Exam-to-GradeType" style="stroke:#181818;stroke-width:1.0;"/><polygon fill="#181818" points="2327,553.9983,2331,544.9983,2327,548.9983,2323,544.9983,2327,553.9983" style="stroke:#181818;stroke-width:1.0;"/><text fill="#000000" font-family="sans-serif" font-size="13" lengthAdjust="spacing" textLength="33" x="2273.37" y="481.6266">has a</text><text fill="#000000" font-family="sans-serif" font-size="13" lengthAdjust="spacing" textLength="8" x="2231.3869" y="502.3271">1</text><text fill="#000000" font-family="sans-serif" font-size="13" lengthAdjust="spacing" textLength="8" x="2317.725" y="544.5675">1</text></g><!--link Exam to ExamStruct--><g id="link_Exam_ExamStruct"><path codeLine="53" d="M2223.85,474.0583 C2297.3,474.0583 2458,474.0583 2458,474.0583 C2458,474.0583 2458,549.1083 2458,549.1083 " fill="none" id="Exam-to-ExamStruct" style="stroke:#181818;stroke-width:1.0;"/><polygon fill="#181818" points="2458,554.1083,2462,545.1083,2458,549.1083,2454,545.1083,2458,554.1083" style="stroke:#181818;stroke-width:1.0;"/><text fill="#000000" font-family="sans-serif" font-size="13" lengthAdjust="spacing" textLength="54" x="2323.45" y="470.6266">contains</text><text fill="#000000" font-family="sans-serif" font-size="13" lengthAdjust="spacing" textLength="8" x="2231.4464" y="471.3709">1</text><text fill="#000000" font-family="sans-serif" font-size="13" lengthAdjust="spacing" textLength="24" x="2430.175" y="544.7126">0..1</text></g><!--link Exam to Schedule--><g id="link_Exam_Schedule"><path codeLine="54" d="M2223.66,452.0583 C2342.72,452.0583 2719,452.0583 2719,452.0583 C2719,452.0583 2719,550.4683 2719,550.4683 " fill="none" id="Exam-to-Schedule" style="stroke:#181818;stroke-width:1.0;"/><polygon fill="#181818" points="2719,555.4683,2723,546.4683,2719,550.4683,2715,546.4683,2719,555.4683" style="stroke:#181818;stroke-width:1.0;"/><text fill="#000000" font-family="sans-serif" font-size="13" lengthAdjust="spacing" textLength="33" x="2486.54" y="448.6266">has a</text><text fill="#000000" font-family="sans-serif" font-size="13" lengthAdjust="spacing" textLength="8" x="2231.4681" y="445.0312">1</text><text fill="#000000" font-family="sans-serif" font-size="13" lengthAdjust="spacing" textLength="8" x="2709.625" y="545.9156">1</text></g><!--link Student to MechanographicNumber--><g id="link_Student_MechanographicNumber"><path codeLine="62" d="M1575.83,249.4383 C1575.83,249.4383 1575.83,324.7683 1575.83,324.7683 " fill="none" id="Student-to-MechanographicNumber" style="stroke:#181818;stroke-width:1.0;"/><polygon fill="#181818" points="1575.83,329.7683,1579.83,320.7683,1575.83,324.7683,1571.83,320.7683,1575.83,329.7683" style="stroke:#181818;stroke-width:1.0;"/><text fill="#000000" font-family="sans-serif" font-size="13" lengthAdjust="spacing" textLength="33" x="1541.83" y="283.6666">has a</text><text fill="#000000" font-family="sans-serif" font-size="13" lengthAdjust="spacing" textLength="8" x="1563.8553" y="269.7675">1</text><text fill="#000000" font-family="sans-serif" font-size="13" lengthAdjust="spacing" textLength="8" x="1569.6883" y="320.3853">1</text></g><!--link Grade to TotalGrade--><g id="link_Grade_TotalGrade"><path codeLine="71" d="M1800.75,376.1283 C1800.75,376.1283 1800.75,444.4683 1800.75,444.4683 " fill="none" id="Grade-to-TotalGrade" style="stroke:#181818;stroke-width:1.0;"/><polygon fill="#181818" points="1800.75,449.4683,1804.75,440.4683,1800.75,444.4683,1796.75,440.4683,1800.75,449.4683" style="stroke:#181818;stroke-width:1.0;"/><text fill="#000000" font-family="sans-serif" font-size="13" lengthAdjust="spacing" textLength="33" x="1766.75" y="406.8666">has a</text><text fill="#000000" font-family="sans-serif" font-size="13" lengthAdjust="spacing" textLength="8" x="1785.9141" y="396.4422">1</text><text fill="#000000" font-family="sans-serif" font-size="13" lengthAdjust="spacing" textLength="8" x="1803.8266" y="440.0885">1</text></g><!--link Grade to ParcialGrade--><g id="link_Grade_ParcialGrade"><path codeLine="72" d="M1851.5,376.1283 C1851.5,376.1283 1851.5,444.4683 1851.5,444.4683 " fill="none" id="Grade-to-ParcialGrade" style="stroke:#181818;stroke-width:1.0;"/><polygon fill="#181818" points="1851.5,449.4683,1855.5,440.4683,1851.5,444.4683,1847.5,440.4683,1851.5,449.4683" style="stroke:#181818;stroke-width:1.0;"/><text fill="#000000" font-family="sans-serif" font-size="13" lengthAdjust="spacing" textLength="33" x="1817.5" y="406.8666">has a</text><text fill="#000000" font-family="sans-serif" font-size="13" lengthAdjust="spacing" textLength="8" x="1847.7656" y="396.4422">1</text><text fill="#000000" font-family="sans-serif" font-size="13" lengthAdjust="spacing" textLength="8" x="1828.9531" y="440.4002">1</text></g><!--link Course to Teacher--><g id="link_Course_Teacher"><path codeLine="75" d="M866.25,134.6583 C866.25,162.7483 866.25,202.0583 866.25,202.0583 C866.25,202.0583 1279.05,202.0583 1279.05,202.0583 " fill="none" id="Course-to-Teacher" style="stroke:#181818;stroke-width:1.0;"/><polygon fill="#181818" points="1284.05,202.0583,1275.05,198.0583,1279.05,202.0583,1275.05,206.0583,1284.05,202.0583" style="stroke:#181818;stroke-width:1.0;"/><text fill="#000000" font-family="sans-serif" font-size="13" lengthAdjust="spacing" textLength="22" x="1015.95" y="198.6266">has</text><text fill="#000000" font-family="sans-serif" font-size="13" lengthAdjust="spacing" textLength="8" x="861.8047" y="154.981">1</text><text fill="#000000" font-family="sans-serif" font-size="13" lengthAdjust="spacing" textLength="6" x="1271.5673" y="195.3392">*</text></g><!--link Course to Exam--><g id="link_Course_Exam"><path codeLine="76" d="M886.89,91.0583 C1112.96,91.0583 2199.83,91.0583 2199.83,91.0583 C2199.83,91.0583 2199.83,434.3383 2199.83,434.3383 " fill="none" id="Course-to-Exam" style="stroke:#181818;stroke-width:1.0;"/><polygon fill="#181818" points="2199.83,439.3383,2203.83,430.3383,2199.83,434.3383,2195.83,430.3383,2199.83,439.3383" style="stroke:#181818;stroke-width:1.0;"/><text fill="#000000" font-family="sans-serif" font-size="13" lengthAdjust="spacing" textLength="22" x="1692" y="87.6266">has</text><text fill="#000000" font-family="sans-serif" font-size="13" lengthAdjust="spacing" textLength="8" x="894.6055" y="84.6474">1</text><text fill="#000000" font-family="sans-serif" font-size="13" lengthAdjust="spacing" textLength="6" x="2195.8719" y="429.7986">*</text></g><!--link Course to Student--><g id="link_Course_Student"><path codeLine="77" d="M886.79,102.0583 C1042.41,102.0583 1590,102.0583 1590,102.0583 C1590,102.0583 1590,187.8883 1590,187.8883 " fill="none" id="Course-to-Student" style="stroke:#181818;stroke-width:1.0;"/><polygon fill="#181818" points="1590,192.8883,1594,183.8883,1590,187.8883,1586,183.8883,1590,192.8883" style="stroke:#181818;stroke-width:1.0;"/><text fill="#000000" font-family="sans-serif" font-size="13" lengthAdjust="spacing" textLength="22" x="1258.31" y="98.6266">has</text><text fill="#000000" font-family="sans-serif" font-size="13" lengthAdjust="spacing" textLength="8" x="894.4883" y="97.5381">1</text><text fill="#000000" font-family="sans-serif" font-size="13" lengthAdjust="spacing" textLength="6" x="1583.3063" y="183.3463">*</text></g><!--link Student to Grade--><g id="link_Student_Grade"><path codeLine="78" d="M1604.17,249.3283 C1604.17,280.2683 1604.17,326.0583 1604.17,326.0583 C1604.17,326.0583 1785.04,326.0583 1785.04,326.0583 " fill="none" id="Student-to-Grade" style="stroke:#181818;stroke-width:1.0;"/><polygon fill="#181818" points="1790.04,326.0583,1781.04,322.0583,1785.04,326.0583,1781.04,330.0583,1790.04,326.0583" style="stroke:#181818;stroke-width:1.0;"/><text fill="#000000" font-family="sans-serif" font-size="13" lengthAdjust="spacing" textLength="22" x="1633.24" y="322.6266">has</text><text fill="#000000" font-family="sans-serif" font-size="13" lengthAdjust="spacing" textLength="8" x="1598.3947" y="269.6335">1</text><text fill="#000000" font-family="sans-serif" font-size="13" lengthAdjust="spacing" textLength="6" x="1777.4226" y="317.9724">*</text></g><!--link Student to Exam--><g id="link_Student_Exam"><path codeLine="79" d="M1632.63,222.0583 C1767.51,222.0583 2176.17,222.0583 2176.17,222.0583 C2176.17,222.0583 2176.17,434.3183 2176.17,434.3183 " fill="none" id="Student-to-Exam" style="stroke:#181818;stroke-width:1.0;"/><polygon fill="#181818" points="2176.17,439.3183,2180.17,430.3183,2176.17,434.3183,2172.17,430.3183,2176.17,439.3183" style="stroke:#181818;stroke-width:1.0;"/><text fill="#000000" font-family="sans-serif" font-size="13" lengthAdjust="spacing" textLength="34" x="1975.53" y="218.6266">takes</text><text fill="#000000" font-family="sans-serif" font-size="13" lengthAdjust="spacing" textLength="8" x="1640.6445" y="218.4404">1</text></g><!--link Grade to Exam--><g id="link_Grade_Exam"><path codeLine="80" d="M1858,376.1083 C1858,404.9883 1858,446.0583 1858,446.0583 C1858,446.0583 2146.06,446.0583 2146.06,446.0583 " fill="none" id="Grade-to-Exam" style="stroke:#181818;stroke-width:1.0;"/><polygon fill="#181818" points="2151.06,446.0583,2142.06,442.0583,2146.06,446.0583,2142.06,450.0583,2151.06,446.0583" style="stroke:#181818;stroke-width:1.0;"/><text fill="#000000" font-family="sans-serif" font-size="13" lengthAdjust="spacing" textLength="22" x="1944.05" y="442.6266">has</text><text fill="#000000" font-family="sans-serif" font-size="13" lengthAdjust="spacing" textLength="8" x="1865.4375" y="396.4178">1</text><text fill="#000000" font-family="sans-serif" font-size="13" lengthAdjust="spacing" textLength="6" x="2138.3937" y="437.85">*</text></g><!--SRC=[bLHDRzim3BtxLn0-1cYnNGl3GBTcGu3k0qkmkognjXfR2cHvM33ilq-IPLjrPANBnG7v-FH8Fgdc3E6POyEoslvjKTUITLcckMuG7cHBk807nN-X-M37Av5btP6B4r6aXOOBrESJWbIcBiiKKar4PIhpehYlAeKLqLYMy57sgiCS_cGPc1yAmt_sqQBu8QKkowBOkd1PEenyUZ5ii6D5yPCqFS8t5x2u7RC4pmlamBRNviHboILiAvHicjRmk098LMmPrrmAkCvg9aGLFxqHVN0pJfxycxJT8-yq_4z7AnMkn2_YVGutDoMORo3b3chI0OdZTWoI-Si1HE46FO67oL-5BLRbyU9IXlcCgrgLcc_oUQW9gaqUd-fKyZVXzWCIMgDQsjs7Pv-FpW-NUK-L5ESslhsHU1wxXqyDfsJPngscG98DGUG2Bate_97ou2T4ze7Guy6-1YdWPqKONaNPC_TQzLHVHqMlxz21wtXqqzI76POmShiuvDALho1XewkWgSaLnBlRs_4ms-CTK2cqUMbdIJ1nmTwidFNpzKojUAzx-pOkdUV3QUTzGLeJ8Ij5JZMdN_lsoNerPaDF1_EzYzM-HQyRr5Aj2wve7OJ0GMhIU5p47nxrdIZArt0Ew5917m7nAmjSu4BgyF8jtiLDFjxP0HJ9kssl9ST93_bnkm4W4B1CUs9DZjXbmw3Zn_u3]--></g></svg>