<?xml version="1.0" encoding="us-ascii" standalone="no"?><svg xmlns="http://www.w3.org/2000/svg" xmlns:xlink="http://www.w3.org/1999/xlink" contentStyleType="text/css" height="1059px" preserveAspectRatio="none" style="width:1773px;height:1059px;background:#FFFFFF;" version="1.1" viewBox="0 0 1773 1059" width="1773px" zoomAndPan="magnify"><defs/><g><rect fill="#FFFFFF" height="841.2754" style="stroke:#181818;stroke-width:1.0;" width="10" x="202.5" y="116.9121"/><rect fill="#FFFFFF" height="438.7832" style="stroke:#181818;stroke-width:1.0;" width="10" x="429.5" y="192.4941"/><rect fill="#FFFFFF" height="242.0371" style="stroke:#181818;stroke-width:1.0;" width="10" x="429.5" y="725.1504"/><rect fill="#FFFFFF" height="123.873" style="stroke:#181818;stroke-width:1.0;" width="10" x="622" y="223.7852"/><rect fill="#FFFFFF" height="92.582" style="stroke:#181818;stroke-width:1.0;" width="10" x="789.5" y="255.0762"/><rect fill="#FFFFFF" height="61.291" style="stroke:#181818;stroke-width:1.0;" width="10" x="936.5" y="286.3672"/><rect fill="#FFFFFF" height="61.291" style="stroke:#181818;stroke-width:1.0;" width="10" x="1077" y="317.6582"/><rect fill="#FFFFFF" height="14" style="stroke:#181818;stroke-width:1.0;" width="10" x="1077" y="881.6055"/><rect fill="#FFFFFF" height="31.291" style="stroke:#181818;stroke-width:1.0;" width="10" x="1321" y="410.2402"/><rect fill="#FFFFFF" height="31.291" style="stroke:#181818;stroke-width:1.0;" width="10" x="1405.5" y="499.1133"/><rect fill="#FFFFFF" height="31.291" style="stroke:#181818;stroke-width:1.0;" width="10" x="1481" y="819.0234"/><rect fill="#FFFFFF" height="31.291" style="stroke:#181818;stroke-width:1.0;" width="10" x="1554" y="561.6953"/><rect fill="#FFFFFF" height="31.291" style="stroke:#181818;stroke-width:1.0;" width="10" x="1678" y="756.4414"/><rect fill="none" height="144.4551" style="stroke:#000000;stroke-width:1.5;" width="1269" x="329.5" y="456.5313"/><line style="stroke:#181818;stroke-width:0.5;stroke-dasharray:5.0,5.0;" x1="32" x2="32" y1="83.6211" y2="976.1875"/><line style="stroke:#181818;stroke-width:0.5;stroke-dasharray:5.0,5.0;" x1="207.5" x2="207.5" y1="83.6211" y2="976.1875"/><line style="stroke:#181818;stroke-width:0.5;stroke-dasharray:5.0,5.0;" x1="434.5" x2="434.5" y1="83.6211" y2="976.1875"/><line style="stroke:#181818;stroke-width:0.5;stroke-dasharray:5.0,5.0;" x1="626.5" x2="626.5" y1="83.6211" y2="976.1875"/><line style="stroke:#181818;stroke-width:0.5;stroke-dasharray:5.0,5.0;" x1="794.5" x2="794.5" y1="83.6211" y2="976.1875"/><line style="stroke:#181818;stroke-width:0.5;stroke-dasharray:5.0,5.0;" x1="941.5" x2="941.5" y1="83.6211" y2="976.1875"/><line style="stroke:#181818;stroke-width:0.5;stroke-dasharray:5.0,5.0;" x1="1081.5" x2="1081.5" y1="83.6211" y2="976.1875"/><line style="stroke:#181818;stroke-width:0.5;stroke-dasharray:5.0,5.0;" x1="1214.5" x2="1214.5" y1="83.6211" y2="976.1875"/><line style="stroke:#181818;stroke-width:0.5;stroke-dasharray:5.0,5.0;" x1="1325.5" x2="1325.5" y1="83.6211" y2="976.1875"/><line style="stroke:#181818;stroke-width:0.5;stroke-dasharray:5.0,5.0;" x1="1410.5" x2="1410.5" y1="83.6211" y2="976.1875"/><line style="stroke:#181818;stroke-width:0.5;stroke-dasharray:5.0,5.0;" x1="1485.5" x2="1485.5" y1="83.6211" y2="976.1875"/><line style="stroke:#181818;stroke-width:0.5;stroke-dasharray:5.0,5.0;" x1="1558.5" x2="1558.5" y1="83.6211" y2="976.1875"/><line style="stroke:#181818;stroke-width:0.5;stroke-dasharray:5.0,5.0;" x1="1682.5" x2="1682.5" y1="83.6211" y2="976.1875"/><text fill="#000000" font-family="sans-serif" font-size="14" lengthAdjust="spacing" textLength="49" x="5" y="80.1074">Student</text><ellipse cx="32.5" cy="13.5" fill="#E2E2F0" rx="8" ry="8" style="stroke:#181818;stroke-width:0.5;"/><path d="M32.5,21.5 L32.5,48.5 M19.5,29.5 L45.5,29.5 M32.5,48.5 L19.5,63.5 M32.5,48.5 L45.5,63.5 " fill="none" style="stroke:#181818;stroke-width:0.5;"/><text fill="#000000" font-family="sans-serif" font-size="14" lengthAdjust="spacing" textLength="49" x="5" y="990.2949">Student</text><ellipse cx="32.5" cy="1002.3086" fill="#E2E2F0" rx="8" ry="8" style="stroke:#181818;stroke-width:0.5;"/><path d="M32.5,1010.3086 L32.5,1037.3086 M19.5,1018.3086 L45.5,1018.3086 M32.5,1037.3086 L19.5,1052.3086 M32.5,1037.3086 L45.5,1052.3086 " fill="none" style="stroke:#181818;stroke-width:0.5;"/><rect fill="#E2E2F0" height="32.6211" rx="2.5" ry="2.5" style="stroke:#181818;stroke-width:0.5;" width="140" x="137.5" y="50"/><text fill="#000000" font-family="sans-serif" font-size="14" lengthAdjust="spacing" textLength="126" x="144.5" y="72.1074">:ListExamsGradesUI</text><rect fill="#E2E2F0" height="32.6211" rx="2.5" ry="2.5" style="stroke:#181818;stroke-width:0.5;" width="140" x="137.5" y="975.1875"/><text fill="#000000" font-family="sans-serif" font-size="14" lengthAdjust="spacing" textLength="126" x="144.5" y="997.2949">:ListExamsGradesUI</text><rect fill="#E2E2F0" height="32.6211" rx="2.5" ry="2.5" style="stroke:#181818;stroke-width:0.5;" width="190" x="339.5" y="50"/><text fill="#000000" font-family="sans-serif" font-size="14" lengthAdjust="spacing" textLength="176" x="346.5" y="72.1074">:ListExamsGradesController</text><rect fill="#E2E2F0" height="32.6211" rx="2.5" ry="2.5" style="stroke:#181818;stroke-width:0.5;" width="190" x="339.5" y="975.1875"/><text fill="#000000" font-family="sans-serif" font-size="14" lengthAdjust="spacing" textLength="176" x="346.5" y="997.2949">:ListExamsGradesController</text><rect fill="#E2E2F0" height="32.6211" rx="2.5" ry="2.5" style="stroke:#181818;stroke-width:0.5;" width="175" x="539.5" y="50"/><text fill="#000000" font-family="sans-serif" font-size="14" lengthAdjust="spacing" textLength="161" x="546.5" y="72.1074">:ListExamsGradesService</text><rect fill="#E2E2F0" height="32.6211" rx="2.5" ry="2.5" style="stroke:#181818;stroke-width:0.5;" width="175" x="539.5" y="975.1875"/><text fill="#000000" font-family="sans-serif" font-size="14" lengthAdjust="spacing" textLength="161" x="546.5" y="997.2949">:ListExamsGradesService</text><rect fill="#E2E2F0" height="32.6211" rx="2.5" ry="2.5" style="stroke:#181818;stroke-width:0.5;" width="140" x="724.5" y="50"/><text fill="#000000" font-family="sans-serif" font-size="14" lengthAdjust="spacing" textLength="126" x="731.5" y="72.1074">:PersistenceContext</text><rect fill="#E2E2F0" height="32.6211" rx="2.5" ry="2.5" style="stroke:#181818;stroke-width:0.5;" width="140" x="724.5" y="975.1875"/><text fill="#000000" font-family="sans-serif" font-size="14" lengthAdjust="spacing" textLength="126" x="731.5" y="997.2949">:PersistenceContext</text><rect fill="#E2E2F0" height="32.6211" rx="2.5" ry="2.5" style="stroke:#181818;stroke-width:0.5;" width="134" x="874.5" y="50"/><text fill="#000000" font-family="sans-serif" font-size="14" lengthAdjust="spacing" textLength="120" x="881.5" y="72.1074">:RepositoryFactory</text><rect fill="#E2E2F0" height="32.6211" rx="2.5" ry="2.5" style="stroke:#181818;stroke-width:0.5;" width="134" x="874.5" y="975.1875"/><text fill="#000000" font-family="sans-serif" font-size="14" lengthAdjust="spacing" textLength="120" x="881.5" y="997.2949">:RepositoryFactory</text><text fill="#000000" font-family="sans-serif" font-size="14" lengthAdjust="spacing" textLength="121" x="1018.5" y="80.1074">:StudentRepository</text><path d="M1064,29 C1064,19 1082,19 1082,19 C1082,19 1100,19 1100,29 L1100,55 C1100,65 1082,65 1082,65 C1082,65 1064,65 1064,55 L1064,29 " fill="#E2E2F0" style="stroke:#181818;stroke-width:1.5;"/><path d="M1064,29 C1064,39 1082,39 1082,39 C1082,39 1100,39 1100,29 " fill="none" style="stroke:#181818;stroke-width:1.5;"/><text fill="#000000" font-family="sans-serif" font-size="14" lengthAdjust="spacing" textLength="121" x="1018.5" y="990.2949">:StudentRepository</text><path d="M1064,1003.8086 C1064,993.8086 1082,993.8086 1082,993.8086 C1082,993.8086 1100,993.8086 1100,1003.8086 L1100,1029.8086 C1100,1039.8086 1082,1039.8086 1082,1039.8086 C1082,1039.8086 1064,1039.8086 1064,1029.8086 L1064,1003.8086 " fill="#E2E2F0" style="stroke:#181818;stroke-width:1.5;"/><path d="M1064,1003.8086 C1064,1013.8086 1082,1013.8086 1082,1013.8086 C1082,1013.8086 1100,1013.8086 1100,1003.8086 " fill="none" style="stroke:#181818;stroke-width:1.5;"/><text fill="#000000" font-family="sans-serif" font-size="14" lengthAdjust="spacing" textLength="112" x="1155.5" y="80.1074">:GradeRepository</text><path d="M1196.5,29 C1196.5,19 1214.5,19 1214.5,19 C1214.5,19 1232.5,19 1232.5,29 L1232.5,55 C1232.5,65 1214.5,65 1214.5,65 C1214.5,65 1196.5,65 1196.5,55 L1196.5,29 " fill="#E2E2F0" style="stroke:#181818;stroke-width:1.5;"/><path d="M1196.5,29 C1196.5,39 1214.5,39 1214.5,39 C1214.5,39 1232.5,39 1232.5,29 " fill="none" style="stroke:#181818;stroke-width:1.5;"/><text fill="#000000" font-family="sans-serif" font-size="14" lengthAdjust="spacing" textLength="112" x="1155.5" y="990.2949">:GradeRepository</text><path d="M1196.5,1003.8086 C1196.5,993.8086 1214.5,993.8086 1214.5,993.8086 C1214.5,993.8086 1232.5,993.8086 1232.5,1003.8086 L1232.5,1029.8086 C1232.5,1039.8086 1214.5,1039.8086 1214.5,1039.8086 C1214.5,1039.8086 1196.5,1039.8086 1196.5,1029.8086 L1196.5,1003.8086 " fill="#E2E2F0" style="stroke:#181818;stroke-width:1.5;"/><path d="M1196.5,1003.8086 C1196.5,1013.8086 1214.5,1013.8086 1214.5,1013.8086 C1214.5,1013.8086 1232.5,1013.8086 1232.5,1003.8086 " fill="none" style="stroke:#181818;stroke-width:1.5;"/><rect fill="#E2E2F0" height="32.6211" rx="2.5" ry="2.5" style="stroke:#181818;stroke-width:0.5;" width="85" x="1283.5" y="50"/><text fill="#000000" font-family="sans-serif" font-size="14" lengthAdjust="spacing" textLength="71" x="1290.5" y="72.1074">:Enrollment</text><rect fill="#E2E2F0" height="32.6211" rx="2.5" ry="2.5" style="stroke:#181818;stroke-width:0.5;" width="85" x="1283.5" y="975.1875"/><text fill="#000000" font-family="sans-serif" font-size="14" lengthAdjust="spacing" textLength="71" x="1290.5" y="997.2949">:Enrollment</text><rect fill="#E2E2F0" height="32.6211" rx="2.5" ry="2.5" style="stroke:#181818;stroke-width:0.5;" width="64" x="1378.5" y="50"/><text fill="#000000" font-family="sans-serif" font-size="14" lengthAdjust="spacing" textLength="50" x="1385.5" y="72.1074">:Course</text><rect fill="#E2E2F0" height="32.6211" rx="2.5" ry="2.5" style="stroke:#181818;stroke-width:0.5;" width="64" x="1378.5" y="975.1875"/><text fill="#000000" font-family="sans-serif" font-size="14" lengthAdjust="spacing" textLength="50" x="1385.5" y="997.2949">:Course</text><rect fill="#E2E2F0" height="32.6211" rx="2.5" ry="2.5" style="stroke:#181818;stroke-width:0.5;" width="67" x="1452.5" y="50"/><text fill="#000000" font-family="sans-serif" font-size="14" lengthAdjust="spacing" textLength="53" x="1459.5" y="72.1074">:Student</text><rect fill="#E2E2F0" height="32.6211" rx="2.5" ry="2.5" style="stroke:#181818;stroke-width:0.5;" width="67" x="1452.5" y="975.1875"/><text fill="#000000" font-family="sans-serif" font-size="14" lengthAdjust="spacing" textLength="53" x="1459.5" y="997.2949">:Student</text><rect fill="#E2E2F0" height="32.6211" rx="2.5" ry="2.5" style="stroke:#181818;stroke-width:0.5;" width="59" x="1529.5" y="50"/><text fill="#000000" font-family="sans-serif" font-size="14" lengthAdjust="spacing" textLength="45" x="1536.5" y="72.1074">:Exams</text><rect fill="#E2E2F0" height="32.6211" rx="2.5" ry="2.5" style="stroke:#181818;stroke-width:0.5;" width="59" x="1529.5" y="975.1875"/><text fill="#000000" font-family="sans-serif" font-size="14" lengthAdjust="spacing" textLength="45" x="1536.5" y="997.2949">:Exams</text><rect fill="#E2E2F0" height="32.6211" rx="2.5" ry="2.5" style="stroke:#181818;stroke-width:0.5;" width="169" x="1598.5" y="50"/><text fill="#000000" font-family="sans-serif" font-size="14" lengthAdjust="spacing" textLength="155" x="1605.5" y="72.1074">:ExamEvaluationListener</text><rect fill="#E2E2F0" height="32.6211" rx="2.5" ry="2.5" style="stroke:#181818;stroke-width:0.5;" width="169" x="1598.5" y="975.1875"/><text fill="#000000" font-family="sans-serif" font-size="14" lengthAdjust="spacing" textLength="155" x="1605.5" y="997.2949">:ExamEvaluationListener</text><rect fill="#FFFFFF" height="841.2754" style="stroke:#181818;stroke-width:1.0;" width="10" x="202.5" y="116.9121"/><rect fill="#FFFFFF" height="438.7832" style="stroke:#181818;stroke-width:1.0;" width="10" x="429.5" y="192.4941"/><rect fill="#FFFFFF" height="242.0371" style="stroke:#181818;stroke-width:1.0;" width="10" x="429.5" y="725.1504"/><rect fill="#FFFFFF" height="123.873" style="stroke:#181818;stroke-width:1.0;" width="10" x="622" y="223.7852"/><rect fill="#FFFFFF" height="92.582" style="stroke:#181818;stroke-width:1.0;" width="10" x="789.5" y="255.0762"/><rect fill="#FFFFFF" height="61.291" style="stroke:#181818;stroke-width:1.0;" width="10" x="936.5" y="286.3672"/><rect fill="#FFFFFF" height="61.291" style="stroke:#181818;stroke-width:1.0;" width="10" x="1077" y="317.6582"/><rect fill="#FFFFFF" height="14" style="stroke:#181818;stroke-width:1.0;" width="10" x="1077" y="881.6055"/><rect fill="#FFFFFF" height="31.291" style="stroke:#181818;stroke-width:1.0;" width="10" x="1321" y="410.2402"/><rect fill="#FFFFFF" height="31.291" style="stroke:#181818;stroke-width:1.0;" width="10" x="1405.5" y="499.1133"/><rect fill="#FFFFFF" height="31.291" style="stroke:#181818;stroke-width:1.0;" width="10" x="1481" y="819.0234"/><rect fill="#FFFFFF" height="31.291" style="stroke:#181818;stroke-width:1.0;" width="10" x="1554" y="561.6953"/><rect fill="#FFFFFF" height="31.291" style="stroke:#181818;stroke-width:1.0;" width="10" x="1678" y="756.4414"/><polygon fill="#181818" points="190.5,112.9121,200.5,116.9121,190.5,120.9121,194.5,116.9121" style="stroke:#181818;stroke-width:1.0;"/><line style="stroke:#181818;stroke-width:1.0;" x1="32.5" x2="196.5" y1="116.9121" y2="116.9121"/><text fill="#000000" font-family="sans-serif" font-size="13" lengthAdjust="spacing" textLength="38" x="39.5" y="111.6494">show()</text><line style="stroke:#181818;stroke-width:1.0;" x1="212.5" x2="254.5" y1="148.2031" y2="148.2031"/><line style="stroke:#181818;stroke-width:1.0;" x1="254.5" x2="254.5" y1="148.2031" y2="161.2031"/><line style="stroke:#181818;stroke-width:1.0;" x1="213.5" x2="254.5" y1="161.2031" y2="161.2031"/><polygon fill="#181818" points="223.5,157.2031,213.5,161.2031,223.5,165.2031,219.5,161.2031" style="stroke:#181818;stroke-width:1.0;"/><text fill="#000000" font-family="sans-serif" font-size="13" lengthAdjust="spacing" textLength="54" x="219.5" y="142.9404">doShow()</text><polygon fill="#181818" points="417.5,188.4941,427.5,192.4941,417.5,196.4941,421.5,192.4941" style="stroke:#181818;stroke-width:1.0;"/><line style="stroke:#181818;stroke-width:1.0;" x1="212.5" x2="423.5" y1="192.4941" y2="192.4941"/><text fill="#000000" font-family="sans-serif" font-size="13" lengthAdjust="spacing" textLength="101" x="219.5" y="187.2314">listActiveExams()</text><polygon fill="#181818" points="610,219.7852,620,223.7852,610,227.7852,614,223.7852" style="stroke:#181818;stroke-width:1.0;"/><line style="stroke:#181818;stroke-width:1.0;" x1="439.5" x2="616" y1="223.7852" y2="223.7852"/><text fill="#000000" font-family="sans-serif" font-size="13" lengthAdjust="spacing" textLength="122" x="446.5" y="218.5225">findStudentByEmail()</text><polygon fill="#181818" points="777.5,251.0762,787.5,255.0762,777.5,259.0762,781.5,255.0762" style="stroke:#181818;stroke-width:1.0;"/><line style="stroke:#181818;stroke-width:1.0;" x1="632" x2="783.5" y1="255.0762" y2="255.0762"/><text fill="#000000" font-family="sans-serif" font-size="13" lengthAdjust="spacing" textLength="75" x="639" y="249.8135">repositories()</text><polygon fill="#181818" points="924.5,282.3672,934.5,286.3672,924.5,290.3672,928.5,286.3672" style="stroke:#181818;stroke-width:1.0;"/><line style="stroke:#181818;stroke-width:1.0;" x1="799.5" x2="930.5" y1="286.3672" y2="286.3672"/><text fill="#000000" font-family="sans-serif" font-size="13" lengthAdjust="spacing" textLength="113" x="806.5" y="281.1045">studentRepository()</text><polygon fill="#181818" points="1065,313.6582,1075,317.6582,1065,321.6582,1069,317.6582" style="stroke:#181818;stroke-width:1.0;"/><line style="stroke:#181818;stroke-width:1.0;" x1="946.5" x2="1071" y1="317.6582" y2="317.6582"/><text fill="#000000" font-family="sans-serif" font-size="13" lengthAdjust="spacing" textLength="26" x="953.5" y="312.3955">get()</text><polygon fill="#181818" points="450.5,374.9492,440.5,378.9492,450.5,382.9492,446.5,378.9492" style="stroke:#181818;stroke-width:1.0;"/><line style="stroke:#181818;stroke-width:1.0;stroke-dasharray:2.0,2.0;" x1="444.5" x2="1081" y1="378.9492" y2="378.9492"/><text fill="#000000" font-family="sans-serif" font-size="13" lengthAdjust="spacing" textLength="45" x="456.5" y="373.6865">Student</text><polygon fill="#181818" points="1309,406.2402,1319,410.2402,1309,414.2402,1313,410.2402" style="stroke:#181818;stroke-width:1.0;"/><line style="stroke:#181818;stroke-width:1.0;" x1="439.5" x2="1315" y1="410.2402" y2="410.2402"/><text fill="#000000" font-family="sans-serif" font-size="13" lengthAdjust="spacing" textLength="146" x="446.5" y="404.9775">Student.findEnrollments()</text><polygon fill="#181818" points="450.5,437.5313,440.5,441.5313,450.5,445.5313,446.5,441.5313" style="stroke:#181818;stroke-width:1.0;"/><line style="stroke:#181818;stroke-width:1.0;stroke-dasharray:2.0,2.0;" x1="444.5" x2="1325" y1="441.5313" y2="441.5313"/><text fill="#000000" font-family="sans-serif" font-size="13" lengthAdjust="spacing" textLength="118" x="456.5" y="436.2686">Student Enrollments</text><path d="M329.5,456.5313 L402.5,456.5313 L402.5,465.8223 L392.5,475.8223 L329.5,475.8223 L329.5,456.5313 " fill="#EEEEEE" style="stroke:#000000;stroke-width:1.5;"/><rect fill="none" height="144.4551" style="stroke:#000000;stroke-width:1.5;" width="1269" x="329.5" y="456.5313"/><text fill="#000000" font-family="sans-serif" font-size="13" font-weight="bold" lengthAdjust="spacing" textLength="28" x="344.5" y="471.5596">loop</text><polygon fill="#181818" points="1393.5,495.1133,1403.5,499.1133,1393.5,503.1133,1397.5,499.1133" style="stroke:#181818;stroke-width:1.0;"/><line style="stroke:#181818;stroke-width:1.0;" x1="439.5" x2="1399.5" y1="499.1133" y2="499.1133"/><text fill="#000000" font-family="sans-serif" font-size="13" lengthAdjust="spacing" textLength="133" x="446.5" y="493.8506">Enrollment.getCourse()</text><polygon fill="#181818" points="450.5,526.4043,440.5,530.4043,450.5,534.4043,446.5,530.4043" style="stroke:#181818;stroke-width:1.0;"/><line style="stroke:#181818;stroke-width:1.0;stroke-dasharray:2.0,2.0;" x1="444.5" x2="1409.5" y1="530.4043" y2="530.4043"/><text fill="#000000" font-family="sans-serif" font-size="13" lengthAdjust="spacing" textLength="41" x="456.5" y="525.1416">Course</text><polygon fill="#181818" points="1542,557.6953,1552,561.6953,1542,565.6953,1546,561.6953" style="stroke:#181818;stroke-width:1.0;"/><line style="stroke:#181818;stroke-width:1.0;" x1="439.5" x2="1548" y1="561.6953" y2="561.6953"/><text fill="#000000" font-family="sans-serif" font-size="13" lengthAdjust="spacing" textLength="128" x="446.5" y="556.4326">Course.findExamList()</text><polygon fill="#181818" points="450.5,588.9863,440.5,592.9863,450.5,596.9863,446.5,592.9863" style="stroke:#181818;stroke-width:1.0;"/><line style="stroke:#181818;stroke-width:1.0;stroke-dasharray:2.0,2.0;" x1="444.5" x2="1558" y1="592.9863" y2="592.9863"/><text fill="#000000" font-family="sans-serif" font-size="13" lengthAdjust="spacing" textLength="125" x="456.5" y="587.7236">Course Active Exams</text><polygon fill="#181818" points="223.5,627.2773,213.5,631.2773,223.5,635.2773,219.5,631.2773" style="stroke:#181818;stroke-width:1.0;"/><line style="stroke:#181818;stroke-width:1.0;stroke-dasharray:2.0,2.0;" x1="217.5" x2="433.5" y1="631.2773" y2="631.2773"/><text fill="#000000" font-family="sans-serif" font-size="13" lengthAdjust="spacing" textLength="124" x="229.5" y="626.0146">All Active Exams List</text><polygon fill="#181818" points="43.5,658.5684,33.5,662.5684,43.5,666.5684,39.5,662.5684" style="stroke:#181818;stroke-width:1.0;"/><line style="stroke:#181818;stroke-width:1.0;stroke-dasharray:2.0,2.0;" x1="37.5" x2="201.5" y1="662.5684" y2="662.5684"/><text fill="#000000" font-family="sans-serif" font-size="13" lengthAdjust="spacing" textLength="57" x="49.5" y="657.3057">Show List</text><polygon fill="#181818" points="190.5,689.8594,200.5,693.8594,190.5,697.8594,194.5,693.8594" style="stroke:#181818;stroke-width:1.0;"/><line style="stroke:#181818;stroke-width:1.0;" x1="32.5" x2="196.5" y1="693.8594" y2="693.8594"/><text fill="#000000" font-family="sans-serif" font-size="13" lengthAdjust="spacing" textLength="89" x="39.5" y="688.5967">Chooses Exam</text><polygon fill="#181818" points="417.5,721.1504,427.5,725.1504,417.5,729.1504,421.5,725.1504" style="stroke:#181818;stroke-width:1.0;"/><line style="stroke:#181818;stroke-width:1.0;" x1="212.5" x2="423.5" y1="725.1504" y2="725.1504"/><text fill="#000000" font-family="sans-serif" font-size="13" lengthAdjust="spacing" textLength="198" x="219.5" y="719.8877">doExamEvaluation(selectedExam)</text><polygon fill="#181818" points="1666,752.4414,1676,756.4414,1666,760.4414,1670,756.4414" style="stroke:#181818;stroke-width:1.0;"/><line style="stroke:#181818;stroke-width:1.0;" x1="439.5" x2="1672" y1="756.4414" y2="756.4414"/><text fill="#000000" font-family="sans-serif" font-size="13" lengthAdjust="spacing" textLength="81" x="446.5" y="751.1787">doEvaluation()</text><polygon fill="#181818" points="450.5,783.7324,440.5,787.7324,450.5,791.7324,446.5,787.7324" style="stroke:#181818;stroke-width:1.0;"/><line style="stroke:#181818;stroke-width:1.0;stroke-dasharray:2.0,2.0;" x1="444.5" x2="1682" y1="787.7324" y2="787.7324"/><text fill="#000000" font-family="sans-serif" font-size="13" lengthAdjust="spacing" textLength="141" x="456.5" y="782.4697">Exam Evaluation Details</text><polygon fill="#181818" points="1469,815.0234,1479,819.0234,1469,823.0234,1473,819.0234" style="stroke:#181818;stroke-width:1.0;"/><line style="stroke:#181818;stroke-width:1.0;" x1="439.5" x2="1475" y1="819.0234" y2="819.0234"/><text fill="#000000" font-family="sans-serif" font-size="13" lengthAdjust="spacing" textLength="66" x="446.5" y="813.7607">save(grade)</text><polygon fill="#181818" points="450.5,846.3145,440.5,850.3145,450.5,854.3145,446.5,850.3145" style="stroke:#181818;stroke-width:1.0;"/><line style="stroke:#181818;stroke-width:1.0;stroke-dasharray:2.0,2.0;" x1="444.5" x2="1485" y1="850.3145" y2="850.3145"/><text fill="#000000" font-family="sans-serif" font-size="13" lengthAdjust="spacing" textLength="45" x="456.5" y="845.0518">Student</text><polygon fill="#181818" points="1065,877.6055,1075,881.6055,1065,885.6055,1069,881.6055" style="stroke:#181818;stroke-width:1.0;"/><line style="stroke:#181818;stroke-width:1.0;" x1="439.5" x2="1071" y1="881.6055" y2="881.6055"/><text fill="#000000" font-family="sans-serif" font-size="13" lengthAdjust="spacing" textLength="77" x="446.5" y="876.3428">save(student)</text><polygon fill="#181818" points="450.5,891.6055,440.5,895.6055,450.5,899.6055,446.5,895.6055" style="stroke:#181818;stroke-width:1.0;"/><line style="stroke:#181818;stroke-width:1.0;stroke-dasharray:2.0,2.0;" x1="444.5" x2="1081" y1="895.6055" y2="895.6055"/><polygon fill="#181818" points="223.5,922.8965,213.5,926.8965,223.5,930.8965,219.5,926.8965" style="stroke:#181818;stroke-width:1.0;"/><line style="stroke:#181818;stroke-width:1.0;stroke-dasharray:2.0,2.0;" x1="217.5" x2="428.5" y1="926.8965" y2="926.8965"/><text fill="#000000" font-family="sans-serif" font-size="13" lengthAdjust="spacing" textLength="141" x="229.5" y="921.6338">Exam Evaluation Details</text><polygon fill="#181818" points="43.5,954.1875,33.5,958.1875,43.5,962.1875,39.5,958.1875" style="stroke:#181818;stroke-width:1.0;"/><line style="stroke:#181818;stroke-width:1.0;stroke-dasharray:2.0,2.0;" x1="37.5" x2="206.5" y1="958.1875" y2="958.1875"/><text fill="#000000" font-family="sans-serif" font-size="13" lengthAdjust="spacing" textLength="146" x="49.5" y="952.9248">Shows Evaluation Details</text><!--SRC=[XPHDRjim48NtF0MHbRDe3f15WDHrWm9P535w09OQEmHeKI1fLxvztv3w8LatsLcQRtxUp9ELZixBVJntr4UfWZm7BmRbez5cK7Xrz_XgGjoDwXHUlEee_FfnbpZpCRPrVVJEMl89r_6Jidlo5wCfmG6_6_ed-O04wZLnPHfZ8WVTS6yqk62WwVfTiRHhmln1T2ggtoeGc4djYkQclcJIK0rnR2NiUbPuGgqKfpQ-TMSViYJTngOXSklO5kQzv9hZZT3keknPHUFwrxIJQST4LWZSJtvvmddaemplxi_cNWXimbnK93uQ0dEuS_iCv7Su4LvQL7ncdj8GLJeVaId0V2BG1zDtavAlrzr96Libf4Cc52c3HeAVLsgehisNr8pv0q_UdgXYSKvGF0LFVAI8wDeJTwGIBPxGf7XAqmdUrw9-qb9HNeXPDHNC0sjV7H3A6U04kb5M5dZP0hYmpWrB7yr9A_m0YTbBPHDOIfTDCb7M1R5CFYv47Xp7PVDKKuy2M5jGPZV8P8Tgwb48whkfnMogPskh3CbTgg5WekGupaW7P1Tch7BlzjsvG26LgIpQkVeZs0Iof2CbKVStxOfF8oUkIQLmV3XChDAvabnX-OqYl5tBHzByCKIshBhGviX_6wKPeq3mOt_5fOoVoqpshrsz6hMnPxN__qt-pyR39_hmN_4N]--></g></svg>