<?xml version="1.0" encoding="us-ascii" standalone="no"?><svg xmlns="http://www.w3.org/2000/svg" xmlns:xlink="http://www.w3.org/1999/xlink" contentStyleType="text/css" height="1416px" preserveAspectRatio="none" style="width:1890px;height:1416px;background:#FFFFFF;" version="1.1" viewBox="0 0 1890 1416" width="1890px" zoomAndPan="magnify"><defs/><g><!--class Client--><g id="elem_Client"><rect codeLine="2" fill="#F1F1F1" height="66.6211" id="Client" rx="2.5" ry="2.5" style="stroke:#181818;stroke-width:0.5;" width="437" x="510.5" y="7"/><ellipse cx="706.75" cy="23" fill="#ADD1B2" rx="11" ry="11" style="stroke:#181818;stroke-width:1.0;"/><path d="M709.5156,18.875 Q709.6719,18.6563 709.8594,18.5469 Q710.0469,18.4375 710.2656,18.4375 Q710.6406,18.4375 710.875,18.7031 Q711.1094,18.9531 711.1094,19.5625 L711.1094,21.0156 Q711.1094,21.625 710.875,21.8906 Q710.6406,22.1563 710.2656,22.1563 Q709.9219,22.1563 709.7188,21.9531 Q709.5156,21.7656 709.4063,21.25 Q709.3594,20.8906 709.1719,20.7031 Q708.8438,20.3281 708.2344,20.1094 Q707.625,19.8906 707,19.8906 Q706.2344,19.8906 705.5938,20.2188 Q704.9688,20.5469 704.4688,21.2969 Q703.9844,22.0469 703.9844,23.0781 L703.9844,24.1719 Q703.9844,25.4063 704.875,26.2344 Q705.7656,27.0469 707.3594,27.0469 Q708.2969,27.0469 708.9531,26.7969 Q709.3438,26.6406 709.7656,26.2031 Q710.0313,25.9375 710.1719,25.8594 Q710.3281,25.7813 710.5313,25.7813 Q710.8594,25.7813 711.1094,26.0469 Q711.375,26.2969 711.375,26.6406 Q711.375,26.9844 711.0313,27.3906 Q710.5313,27.9688 709.7344,28.2969 Q708.6563,28.75 707.3594,28.75 Q705.8438,28.75 704.6406,28.125 Q703.6563,27.625 702.9688,26.5625 Q702.2813,25.4844 702.2813,24.2031 L702.2813,23.0469 Q702.2813,21.7188 702.8906,20.5781 Q703.5156,19.4219 704.6094,18.8125 Q705.7031,18.1875 706.9375,18.1875 Q707.6719,18.1875 708.3125,18.3594 Q708.9688,18.5156 709.5156,18.875 Z " fill="#000000"/><text fill="#000000" font-family="sans-serif" font-size="14" lengthAdjust="spacing" textLength="36" x="727.25" y="28.7969">Client</text><line style="stroke:#181818;stroke-width:0.5;" x1="511.5" x2="946.5" y1="39" y2="39"/><line style="stroke:#181818;stroke-width:0.5;" x1="511.5" x2="946.5" y1="47" y2="47"/><ellipse cx="521.5" cy="61.8105" fill="#84BE84" rx="3" ry="3" style="stroke:#038048;stroke-width:1.0;"/><text fill="#000000" font-family="sans-serif" font-size="14" lengthAdjust="spacing" textLength="411" x="530.5" y="66.1074">createPostIt(socket, inputStream, outputStream, bufferedReader)</text></g><!--class ClientHandler--><g id="elem_ClientHandler"><rect codeLine="6" fill="#F1F1F1" height="141.1055" id="ClientHandler" rx="2.5" ry="2.5" style="stroke:#181818;stroke-width:0.5;" width="245" x="904.5" y="153"/><ellipse cx="980.25" cy="169" fill="#ADD1B2" rx="11" ry="11" style="stroke:#181818;stroke-width:1.0;"/><path d="M983.0156,164.875 Q983.1719,164.6563 983.3594,164.5469 Q983.5469,164.4375 983.7656,164.4375 Q984.1406,164.4375 984.375,164.7031 Q984.6094,164.9531 984.6094,165.5625 L984.6094,167.0156 Q984.6094,167.625 984.375,167.8906 Q984.1406,168.1563 983.7656,168.1563 Q983.4219,168.1563 983.2188,167.9531 Q983.0156,167.7656 982.9063,167.25 Q982.8594,166.8906 982.6719,166.7031 Q982.3438,166.3281 981.7344,166.1094 Q981.125,165.8906 980.5,165.8906 Q979.7344,165.8906 979.0938,166.2188 Q978.4688,166.5469 977.9688,167.2969 Q977.4844,168.0469 977.4844,169.0781 L977.4844,170.1719 Q977.4844,171.4063 978.375,172.2344 Q979.2656,173.0469 980.8594,173.0469 Q981.7969,173.0469 982.4531,172.7969 Q982.8438,172.6406 983.2656,172.2031 Q983.5313,171.9375 983.6719,171.8594 Q983.8281,171.7813 984.0313,171.7813 Q984.3594,171.7813 984.6094,172.0469 Q984.875,172.2969 984.875,172.6406 Q984.875,172.9844 984.5313,173.3906 Q984.0313,173.9688 983.2344,174.2969 Q982.1563,174.75 980.8594,174.75 Q979.3438,174.75 978.1406,174.125 Q977.1563,173.625 976.4688,172.5625 Q975.7813,171.4844 975.7813,170.2031 L975.7813,169.0469 Q975.7813,167.7188 976.3906,166.5781 Q977.0156,165.4219 978.1094,164.8125 Q979.2031,164.1875 980.4375,164.1875 Q981.1719,164.1875 981.8125,164.3594 Q982.4688,164.5156 983.0156,164.875 Z " fill="#000000"/><text fill="#000000" font-family="sans-serif" font-size="14" lengthAdjust="spacing" textLength="85" x="1000.75" y="174.7969">ClientHandler</text><line style="stroke:#181818;stroke-width:0.5;" x1="905.5" x2="1148.5" y1="185" y2="185"/><line style="stroke:#181818;stroke-width:0.5;" x1="905.5" x2="1148.5" y1="193" y2="193"/><ellipse cx="915.5" cy="207.8105" fill="#84BE84" rx="3" ry="3" style="stroke:#038048;stroke-width:1.0;"/><text fill="#000000" font-family="sans-serif" font-size="14" lengthAdjust="spacing" textLength="147" x="924.5" y="212.1074">createPostIT(message)</text><ellipse cx="915.5" cy="226.4316" fill="#84BE84" rx="3" ry="3" style="stroke:#038048;stroke-width:1.0;"/><text fill="#000000" font-family="sans-serif" font-size="14" lengthAdjust="spacing" textLength="219" x="924.5" y="230.7285">findWriteAdminPermissionBoards()</text><ellipse cx="915.5" cy="245.0527" fill="#84BE84" rx="3" ry="3" style="stroke:#038048;stroke-width:1.0;"/><text fill="#000000" font-family="sans-serif" font-size="14" lengthAdjust="spacing" textLength="211" x="924.5" y="249.3496">findSharedBoardString(message)</text><ellipse cx="915.5" cy="263.6738" fill="#84BE84" rx="3" ry="3" style="stroke:#038048;stroke-width:1.0;"/><text fill="#000000" font-family="sans-serif" font-size="14" lengthAdjust="spacing" textLength="185" x="924.5" y="267.9707">findEmptyCells(sharedBoard)</text><ellipse cx="915.5" cy="282.2949" fill="#84BE84" rx="3" ry="3" style="stroke:#038048;stroke-width:1.0;"/><text fill="#000000" font-family="sans-serif" font-size="14" lengthAdjust="spacing" textLength="213" x="924.5" y="286.5918">createPostIt(cell, title, description)</text></g><!--class Server--><g id="elem_Server"><rect codeLine="14" fill="#F1F1F1" height="48" id="Server" rx="2.5" ry="2.5" style="stroke:#181818;stroke-width:0.5;" width="74" x="990" y="16.5"/><ellipse cx="1005" cy="32.5" fill="#ADD1B2" rx="11" ry="11" style="stroke:#181818;stroke-width:1.0;"/><path d="M1007.7656,28.375 Q1007.9219,28.1563 1008.1094,28.0469 Q1008.2969,27.9375 1008.5156,27.9375 Q1008.8906,27.9375 1009.125,28.2031 Q1009.3594,28.4531 1009.3594,29.0625 L1009.3594,30.5156 Q1009.3594,31.125 1009.125,31.3906 Q1008.8906,31.6563 1008.5156,31.6563 Q1008.1719,31.6563 1007.9688,31.4531 Q1007.7656,31.2656 1007.6563,30.75 Q1007.6094,30.3906 1007.4219,30.2031 Q1007.0938,29.8281 1006.4844,29.6094 Q1005.875,29.3906 1005.25,29.3906 Q1004.4844,29.3906 1003.8438,29.7188 Q1003.2188,30.0469 1002.7188,30.7969 Q1002.2344,31.5469 1002.2344,32.5781 L1002.2344,33.6719 Q1002.2344,34.9063 1003.125,35.7344 Q1004.0156,36.5469 1005.6094,36.5469 Q1006.5469,36.5469 1007.2031,36.2969 Q1007.5938,36.1406 1008.0156,35.7031 Q1008.2813,35.4375 1008.4219,35.3594 Q1008.5781,35.2813 1008.7813,35.2813 Q1009.1094,35.2813 1009.3594,35.5469 Q1009.625,35.7969 1009.625,36.1406 Q1009.625,36.4844 1009.2813,36.8906 Q1008.7813,37.4688 1007.9844,37.7969 Q1006.9063,38.25 1005.6094,38.25 Q1004.0938,38.25 1002.8906,37.625 Q1001.9063,37.125 1001.2188,36.0625 Q1000.5313,34.9844 1000.5313,33.7031 L1000.5313,32.5469 Q1000.5313,31.2188 1001.1406,30.0781 Q1001.7656,28.9219 1002.8594,28.3125 Q1003.9531,27.6875 1005.1875,27.6875 Q1005.9219,27.6875 1006.5625,27.8594 Q1007.2188,28.0156 1007.7656,28.375 Z " fill="#000000"/><text fill="#000000" font-family="sans-serif" font-size="14" lengthAdjust="spacing" textLength="42" x="1019" y="38.2969">Server</text><line style="stroke:#181818;stroke-width:0.5;" x1="991" x2="1063" y1="48.5" y2="48.5"/><line style="stroke:#181818;stroke-width:0.5;" x1="991" x2="1063" y1="56.5" y2="56.5"/></g><!--class CreatePostItUI--><g id="elem_CreatePostItUI"><rect codeLine="16" fill="#F1F1F1" height="48" id="CreatePostItUI" rx="2.5" ry="2.5" style="stroke:#181818;stroke-width:0.5;" width="122" x="668" y="199.5"/><ellipse cx="683" cy="215.5" fill="#ADD1B2" rx="11" ry="11" style="stroke:#181818;stroke-width:1.0;"/><path d="M685.7656,211.375 Q685.9219,211.1563 686.1094,211.0469 Q686.2969,210.9375 686.5156,210.9375 Q686.8906,210.9375 687.125,211.2031 Q687.3594,211.4531 687.3594,212.0625 L687.3594,213.5156 Q687.3594,214.125 687.125,214.3906 Q686.8906,214.6563 686.5156,214.6563 Q686.1719,214.6563 685.9688,214.4531 Q685.7656,214.2656 685.6563,213.75 Q685.6094,213.3906 685.4219,213.2031 Q685.0938,212.8281 684.4844,212.6094 Q683.875,212.3906 683.25,212.3906 Q682.4844,212.3906 681.8438,212.7188 Q681.2188,213.0469 680.7188,213.7969 Q680.2344,214.5469 680.2344,215.5781 L680.2344,216.6719 Q680.2344,217.9063 681.125,218.7344 Q682.0156,219.5469 683.6094,219.5469 Q684.5469,219.5469 685.2031,219.2969 Q685.5938,219.1406 686.0156,218.7031 Q686.2813,218.4375 686.4219,218.3594 Q686.5781,218.2813 686.7813,218.2813 Q687.1094,218.2813 687.3594,218.5469 Q687.625,218.7969 687.625,219.1406 Q687.625,219.4844 687.2813,219.8906 Q686.7813,220.4688 685.9844,220.7969 Q684.9063,221.25 683.6094,221.25 Q682.0938,221.25 680.8906,220.625 Q679.9063,220.125 679.2188,219.0625 Q678.5313,217.9844 678.5313,216.7031 L678.5313,215.5469 Q678.5313,214.2188 679.1406,213.0781 Q679.7656,211.9219 680.8594,211.3125 Q681.9531,210.6875 683.1875,210.6875 Q683.9219,210.6875 684.5625,210.8594 Q685.2188,211.0156 685.7656,211.375 Z " fill="#000000"/><text fill="#000000" font-family="sans-serif" font-size="14" lengthAdjust="spacing" textLength="90" x="697" y="221.2969">CreatePostItUI</text><line style="stroke:#181818;stroke-width:0.5;" x1="669" x2="789" y1="231.5" y2="231.5"/><line style="stroke:#181818;stroke-width:0.5;" x1="669" x2="789" y1="239.5" y2="239.5"/></g><!--class CreatePostItController--><g id="elem_CreatePostItController"><rect codeLine="18" fill="#F1F1F1" height="103.8633" id="CreatePostItController" rx="2.5" ry="2.5" style="stroke:#181818;stroke-width:0.5;" width="245" x="585.5" y="373"/><ellipse cx="633.75" cy="389" fill="#ADD1B2" rx="11" ry="11" style="stroke:#181818;stroke-width:1.0;"/><path d="M636.5156,384.875 Q636.6719,384.6563 636.8594,384.5469 Q637.0469,384.4375 637.2656,384.4375 Q637.6406,384.4375 637.875,384.7031 Q638.1094,384.9531 638.1094,385.5625 L638.1094,387.0156 Q638.1094,387.625 637.875,387.8906 Q637.6406,388.1563 637.2656,388.1563 Q636.9219,388.1563 636.7188,387.9531 Q636.5156,387.7656 636.4063,387.25 Q636.3594,386.8906 636.1719,386.7031 Q635.8438,386.3281 635.2344,386.1094 Q634.625,385.8906 634,385.8906 Q633.2344,385.8906 632.5938,386.2188 Q631.9688,386.5469 631.4688,387.2969 Q630.9844,388.0469 630.9844,389.0781 L630.9844,390.1719 Q630.9844,391.4063 631.875,392.2344 Q632.7656,393.0469 634.3594,393.0469 Q635.2969,393.0469 635.9531,392.7969 Q636.3438,392.6406 636.7656,392.2031 Q637.0313,391.9375 637.1719,391.8594 Q637.3281,391.7813 637.5313,391.7813 Q637.8594,391.7813 638.1094,392.0469 Q638.375,392.2969 638.375,392.6406 Q638.375,392.9844 638.0313,393.3906 Q637.5313,393.9688 636.7344,394.2969 Q635.6563,394.75 634.3594,394.75 Q632.8438,394.75 631.6406,394.125 Q630.6563,393.625 629.9688,392.5625 Q629.2813,391.4844 629.2813,390.2031 L629.2813,389.0469 Q629.2813,387.7188 629.8906,386.5781 Q630.5156,385.4219 631.6094,384.8125 Q632.7031,384.1875 633.9375,384.1875 Q634.6719,384.1875 635.3125,384.3594 Q635.9688,384.5156 636.5156,384.875 Z " fill="#000000"/><text fill="#000000" font-family="sans-serif" font-size="14" lengthAdjust="spacing" textLength="140" x="654.25" y="394.7969">CreatePostItController</text><line style="stroke:#181818;stroke-width:0.5;" x1="586.5" x2="829.5" y1="405" y2="405"/><line style="stroke:#181818;stroke-width:0.5;" x1="586.5" x2="829.5" y1="413" y2="413"/><ellipse cx="596.5" cy="427.8105" fill="#84BE84" rx="3" ry="3" style="stroke:#038048;stroke-width:1.0;"/><text fill="#000000" font-family="sans-serif" font-size="14" lengthAdjust="spacing" textLength="219" x="605.5" y="432.1074">findWriteAdminPermissionBoards()</text><ellipse cx="596.5" cy="446.4316" fill="#84BE84" rx="3" ry="3" style="stroke:#038048;stroke-width:1.0;"/><text fill="#000000" font-family="sans-serif" font-size="14" lengthAdjust="spacing" textLength="211" x="605.5" y="450.7285">findSharedBoardString(message)</text><ellipse cx="596.5" cy="465.0527" fill="#84BE84" rx="3" ry="3" style="stroke:#038048;stroke-width:1.0;"/><text fill="#000000" font-family="sans-serif" font-size="14" lengthAdjust="spacing" textLength="185" x="605.5" y="469.3496">findEmptyCells(sharedBoard)</text></g><!--class PostItManagementService--><g id="elem_PostItManagementService"><rect codeLine="24" fill="#F1F1F1" height="141.1055" id="PostItManagementService" rx="2.5" ry="2.5" style="stroke:#181818;stroke-width:0.5;" width="245" x="585.5" y="556"/><ellipse cx="622.55" cy="572" fill="#ADD1B2" rx="11" ry="11" style="stroke:#181818;stroke-width:1.0;"/><path d="M625.3156,567.875 Q625.4719,567.6563 625.6594,567.5469 Q625.8469,567.4375 626.0656,567.4375 Q626.4406,567.4375 626.675,567.7031 Q626.9094,567.9531 626.9094,568.5625 L626.9094,570.0156 Q626.9094,570.625 626.675,570.8906 Q626.4406,571.1563 626.0656,571.1563 Q625.7219,571.1563 625.5188,570.9531 Q625.3156,570.7656 625.2063,570.25 Q625.1594,569.8906 624.9719,569.7031 Q624.6438,569.3281 624.0344,569.1094 Q623.425,568.8906 622.8,568.8906 Q622.0344,568.8906 621.3938,569.2188 Q620.7688,569.5469 620.2688,570.2969 Q619.7844,571.0469 619.7844,572.0781 L619.7844,573.1719 Q619.7844,574.4063 620.675,575.2344 Q621.5656,576.0469 623.1594,576.0469 Q624.0969,576.0469 624.7531,575.7969 Q625.1438,575.6406 625.5656,575.2031 Q625.8313,574.9375 625.9719,574.8594 Q626.1281,574.7813 626.3313,574.7813 Q626.6594,574.7813 626.9094,575.0469 Q627.175,575.2969 627.175,575.6406 Q627.175,575.9844 626.8313,576.3906 Q626.3313,576.9688 625.5344,577.2969 Q624.4563,577.75 623.1594,577.75 Q621.6438,577.75 620.4406,577.125 Q619.4563,576.625 618.7688,575.5625 Q618.0813,574.4844 618.0813,573.2031 L618.0813,572.0469 Q618.0813,570.7188 618.6906,569.5781 Q619.3156,568.4219 620.4094,567.8125 Q621.5031,567.1875 622.7375,567.1875 Q623.4719,567.1875 624.1125,567.3594 Q624.7688,567.5156 625.3156,567.875 Z " fill="#000000"/><text fill="#000000" font-family="sans-serif" font-size="14" lengthAdjust="spacing" textLength="164" x="641.45" y="577.7969">PostItManagementService</text><line style="stroke:#181818;stroke-width:0.5;" x1="586.5" x2="829.5" y1="588" y2="588"/><line style="stroke:#181818;stroke-width:0.5;" x1="586.5" x2="829.5" y1="596" y2="596"/><ellipse cx="596.5" cy="610.8105" fill="#84BE84" rx="3" ry="3" style="stroke:#038048;stroke-width:1.0;"/><text fill="#000000" font-family="sans-serif" font-size="14" lengthAdjust="spacing" textLength="50" x="605.5" y="615.1074">create()</text><ellipse cx="596.5" cy="629.4316" fill="#84BE84" rx="3" ry="3" style="stroke:#038048;stroke-width:1.0;"/><text fill="#000000" font-family="sans-serif" font-size="14" lengthAdjust="spacing" textLength="219" x="605.5" y="633.7285">findWriteAdminPermissionBoards()</text><ellipse cx="596.5" cy="648.0527" fill="#84BE84" rx="3" ry="3" style="stroke:#038048;stroke-width:1.0;"/><text fill="#000000" font-family="sans-serif" font-size="14" lengthAdjust="spacing" textLength="211" x="605.5" y="652.3496">findSharedBoardString(message)</text><ellipse cx="596.5" cy="666.6738" fill="#84BE84" rx="3" ry="3" style="stroke:#038048;stroke-width:1.0;"/><text fill="#000000" font-family="sans-serif" font-size="14" lengthAdjust="spacing" textLength="185" x="605.5" y="670.9707">findEmptyCells(sharedBoard)</text><ellipse cx="596.5" cy="685.2949" fill="#84BE84" rx="3" ry="3" style="stroke:#038048;stroke-width:1.0;"/><text fill="#000000" font-family="sans-serif" font-size="14" lengthAdjust="spacing" textLength="213" x="605.5" y="689.5918">createPostIt(cell, title, description)</text></g><!--class RcompService--><g id="elem_RcompService"><rect codeLine="32" fill="#F1F1F1" height="85.2422" id="RcompService" rx="2.5" ry="2.5" style="stroke:#181818;stroke-width:0.5;" width="323" x="865.5" y="382.5"/><ellipse cx="977.25" cy="398.5" fill="#ADD1B2" rx="11" ry="11" style="stroke:#181818;stroke-width:1.0;"/><path d="M980.0156,394.375 Q980.1719,394.1563 980.3594,394.0469 Q980.5469,393.9375 980.7656,393.9375 Q981.1406,393.9375 981.375,394.2031 Q981.6094,394.4531 981.6094,395.0625 L981.6094,396.5156 Q981.6094,397.125 981.375,397.3906 Q981.1406,397.6563 980.7656,397.6563 Q980.4219,397.6563 980.2188,397.4531 Q980.0156,397.2656 979.9063,396.75 Q979.8594,396.3906 979.6719,396.2031 Q979.3438,395.8281 978.7344,395.6094 Q978.125,395.3906 977.5,395.3906 Q976.7344,395.3906 976.0938,395.7188 Q975.4688,396.0469 974.9688,396.7969 Q974.4844,397.5469 974.4844,398.5781 L974.4844,399.6719 Q974.4844,400.9063 975.375,401.7344 Q976.2656,402.5469 977.8594,402.5469 Q978.7969,402.5469 979.4531,402.2969 Q979.8438,402.1406 980.2656,401.7031 Q980.5313,401.4375 980.6719,401.3594 Q980.8281,401.2813 981.0313,401.2813 Q981.3594,401.2813 981.6094,401.5469 Q981.875,401.7969 981.875,402.1406 Q981.875,402.4844 981.5313,402.8906 Q981.0313,403.4688 980.2344,403.7969 Q979.1563,404.25 977.8594,404.25 Q976.3438,404.25 975.1406,403.625 Q974.1563,403.125 973.4688,402.0625 Q972.7813,400.9844 972.7813,399.7031 L972.7813,398.5469 Q972.7813,397.2188 973.3906,396.0781 Q974.0156,394.9219 975.1094,394.3125 Q976.2031,393.6875 977.4375,393.6875 Q978.1719,393.6875 978.8125,393.8594 Q979.4688,394.0156 980.0156,394.375 Z " fill="#000000"/><text fill="#000000" font-family="sans-serif" font-size="14" lengthAdjust="spacing" textLength="91" x="997.75" y="404.2969">RcompService</text><line style="stroke:#181818;stroke-width:0.5;" x1="866.5" x2="1187.5" y1="414.5" y2="414.5"/><line style="stroke:#181818;stroke-width:0.5;" x1="866.5" x2="1187.5" y1="422.5" y2="422.5"/><ellipse cx="876.5" cy="437.3105" fill="#84BE84" rx="3" ry="3" style="stroke:#038048;stroke-width:1.0;"/><text fill="#000000" font-family="sans-serif" font-size="14" lengthAdjust="spacing" textLength="297" x="885.5" y="441.6074">sendMessage(socket, message, outputStream)</text><ellipse cx="876.5" cy="455.9316" fill="#84BE84" rx="3" ry="3" style="stroke:#038048;stroke-width:1.0;"/><text fill="#000000" font-family="sans-serif" font-size="14" lengthAdjust="spacing" textLength="194" x="885.5" y="460.2285">readData(socket, inputStream)</text></g><!--class FormatMessage--><g id="elem_FormatMessage"><rect codeLine="37" fill="#F1F1F1" height="48" id="FormatMessage" rx="2.5" ry="2.5" style="stroke:#181818;stroke-width:0.5;" width="134" x="960" y="602.5"/><ellipse cx="975" cy="618.5" fill="#ADD1B2" rx="11" ry="11" style="stroke:#181818;stroke-width:1.0;"/><path d="M977.7656,614.375 Q977.9219,614.1563 978.1094,614.0469 Q978.2969,613.9375 978.5156,613.9375 Q978.8906,613.9375 979.125,614.2031 Q979.3594,614.4531 979.3594,615.0625 L979.3594,616.5156 Q979.3594,617.125 979.125,617.3906 Q978.8906,617.6563 978.5156,617.6563 Q978.1719,617.6563 977.9688,617.4531 Q977.7656,617.2656 977.6563,616.75 Q977.6094,616.3906 977.4219,616.2031 Q977.0938,615.8281 976.4844,615.6094 Q975.875,615.3906 975.25,615.3906 Q974.4844,615.3906 973.8438,615.7188 Q973.2188,616.0469 972.7188,616.7969 Q972.2344,617.5469 972.2344,618.5781 L972.2344,619.6719 Q972.2344,620.9063 973.125,621.7344 Q974.0156,622.5469 975.6094,622.5469 Q976.5469,622.5469 977.2031,622.2969 Q977.5938,622.1406 978.0156,621.7031 Q978.2813,621.4375 978.4219,621.3594 Q978.5781,621.2813 978.7813,621.2813 Q979.1094,621.2813 979.3594,621.5469 Q979.625,621.7969 979.625,622.1406 Q979.625,622.4844 979.2813,622.8906 Q978.7813,623.4688 977.9844,623.7969 Q976.9063,624.25 975.6094,624.25 Q974.0938,624.25 972.8906,623.625 Q971.9063,623.125 971.2188,622.0625 Q970.5313,620.9844 970.5313,619.7031 L970.5313,618.5469 Q970.5313,617.2188 971.1406,616.0781 Q971.7656,614.9219 972.8594,614.3125 Q973.9531,613.6875 975.1875,613.6875 Q975.9219,613.6875 976.5625,613.8594 Q977.2188,614.0156 977.7656,614.375 Z " fill="#000000"/><text fill="#000000" font-family="sans-serif" font-size="14" lengthAdjust="spacing" textLength="102" x="989" y="624.2969">FormatMessage</text><line style="stroke:#181818;stroke-width:0.5;" x1="961" x2="1093" y1="634.5" y2="634.5"/><line style="stroke:#181818;stroke-width:0.5;" x1="961" x2="1093" y1="642.5" y2="642.5"/></g><!--class PostIt--><g id="elem_PostIt"><rect codeLine="39" fill="#F1F1F1" height="48" id="PostIt" rx="2.5" ry="2.5" style="stroke:#181818;stroke-width:0.5;" width="67" x="500.5" y="776"/><ellipse cx="515.5" cy="792" fill="#ADD1B2" rx="11" ry="11" style="stroke:#181818;stroke-width:1.0;"/><path d="M518.2656,787.875 Q518.4219,787.6563 518.6094,787.5469 Q518.7969,787.4375 519.0156,787.4375 Q519.3906,787.4375 519.625,787.7031 Q519.8594,787.9531 519.8594,788.5625 L519.8594,790.0156 Q519.8594,790.625 519.625,790.8906 Q519.3906,791.1563 519.0156,791.1563 Q518.6719,791.1563 518.4688,790.9531 Q518.2656,790.7656 518.1563,790.25 Q518.1094,789.8906 517.9219,789.7031 Q517.5938,789.3281 516.9844,789.1094 Q516.375,788.8906 515.75,788.8906 Q514.9844,788.8906 514.3438,789.2188 Q513.7188,789.5469 513.2188,790.2969 Q512.7344,791.0469 512.7344,792.0781 L512.7344,793.1719 Q512.7344,794.4063 513.625,795.2344 Q514.5156,796.0469 516.1094,796.0469 Q517.0469,796.0469 517.7031,795.7969 Q518.0938,795.6406 518.5156,795.2031 Q518.7813,794.9375 518.9219,794.8594 Q519.0781,794.7813 519.2813,794.7813 Q519.6094,794.7813 519.8594,795.0469 Q520.125,795.2969 520.125,795.6406 Q520.125,795.9844 519.7813,796.3906 Q519.2813,796.9688 518.4844,797.2969 Q517.4063,797.75 516.1094,797.75 Q514.5938,797.75 513.3906,797.125 Q512.4063,796.625 511.7188,795.5625 Q511.0313,794.4844 511.0313,793.2031 L511.0313,792.0469 Q511.0313,790.7188 511.6406,789.5781 Q512.2656,788.4219 513.3594,787.8125 Q514.4531,787.1875 515.6875,787.1875 Q516.4219,787.1875 517.0625,787.3594 Q517.7188,787.5156 518.2656,787.875 Z " fill="#000000"/><text fill="#000000" font-family="sans-serif" font-size="14" lengthAdjust="spacing" textLength="35" x="529.5" y="797.7969">PostIt</text><line style="stroke:#181818;stroke-width:0.5;" x1="501.5" x2="566.5" y1="808" y2="808"/><line style="stroke:#181818;stroke-width:0.5;" x1="501.5" x2="566.5" y1="816" y2="816"/></g><!--class PostItLog--><g id="elem_PostItLog"><rect codeLine="41" fill="#F1F1F1" height="48" id="PostItLog" rx="2.5" ry="2.5" style="stroke:#181818;stroke-width:0.5;" width="91" x="602.5" y="776"/><ellipse cx="617.5" cy="792" fill="#ADD1B2" rx="11" ry="11" style="stroke:#181818;stroke-width:1.0;"/><path d="M620.2656,787.875 Q620.4219,787.6563 620.6094,787.5469 Q620.7969,787.4375 621.0156,787.4375 Q621.3906,787.4375 621.625,787.7031 Q621.8594,787.9531 621.8594,788.5625 L621.8594,790.0156 Q621.8594,790.625 621.625,790.8906 Q621.3906,791.1563 621.0156,791.1563 Q620.6719,791.1563 620.4688,790.9531 Q620.2656,790.7656 620.1563,790.25 Q620.1094,789.8906 619.9219,789.7031 Q619.5938,789.3281 618.9844,789.1094 Q618.375,788.8906 617.75,788.8906 Q616.9844,788.8906 616.3438,789.2188 Q615.7188,789.5469 615.2188,790.2969 Q614.7344,791.0469 614.7344,792.0781 L614.7344,793.1719 Q614.7344,794.4063 615.625,795.2344 Q616.5156,796.0469 618.1094,796.0469 Q619.0469,796.0469 619.7031,795.7969 Q620.0938,795.6406 620.5156,795.2031 Q620.7813,794.9375 620.9219,794.8594 Q621.0781,794.7813 621.2813,794.7813 Q621.6094,794.7813 621.8594,795.0469 Q622.125,795.2969 622.125,795.6406 Q622.125,795.9844 621.7813,796.3906 Q621.2813,796.9688 620.4844,797.2969 Q619.4063,797.75 618.1094,797.75 Q616.5938,797.75 615.3906,797.125 Q614.4063,796.625 613.7188,795.5625 Q613.0313,794.4844 613.0313,793.2031 L613.0313,792.0469 Q613.0313,790.7188 613.6406,789.5781 Q614.2656,788.4219 615.3594,787.8125 Q616.4531,787.1875 617.6875,787.1875 Q618.4219,787.1875 619.0625,787.3594 Q619.7188,787.5156 620.2656,787.875 Z " fill="#000000"/><text fill="#000000" font-family="sans-serif" font-size="14" lengthAdjust="spacing" textLength="59" x="631.5" y="797.7969">PostItLog</text><line style="stroke:#181818;stroke-width:0.5;" x1="603.5" x2="692.5" y1="808" y2="808"/><line style="stroke:#181818;stroke-width:0.5;" x1="603.5" x2="692.5" y1="816" y2="816"/></g><!--class CellLog--><g id="elem_CellLog"><rect codeLine="43" fill="#F1F1F1" height="48" id="CellLog" rx="2.5" ry="2.5" style="stroke:#181818;stroke-width:0.5;" width="80" x="729" y="776"/><ellipse cx="744" cy="792" fill="#ADD1B2" rx="11" ry="11" style="stroke:#181818;stroke-width:1.0;"/><path d="M746.7656,787.875 Q746.9219,787.6563 747.1094,787.5469 Q747.2969,787.4375 747.5156,787.4375 Q747.8906,787.4375 748.125,787.7031 Q748.3594,787.9531 748.3594,788.5625 L748.3594,790.0156 Q748.3594,790.625 748.125,790.8906 Q747.8906,791.1563 747.5156,791.1563 Q747.1719,791.1563 746.9688,790.9531 Q746.7656,790.7656 746.6563,790.25 Q746.6094,789.8906 746.4219,789.7031 Q746.0938,789.3281 745.4844,789.1094 Q744.875,788.8906 744.25,788.8906 Q743.4844,788.8906 742.8438,789.2188 Q742.2188,789.5469 741.7188,790.2969 Q741.2344,791.0469 741.2344,792.0781 L741.2344,793.1719 Q741.2344,794.4063 742.125,795.2344 Q743.0156,796.0469 744.6094,796.0469 Q745.5469,796.0469 746.2031,795.7969 Q746.5938,795.6406 747.0156,795.2031 Q747.2813,794.9375 747.4219,794.8594 Q747.5781,794.7813 747.7813,794.7813 Q748.1094,794.7813 748.3594,795.0469 Q748.625,795.2969 748.625,795.6406 Q748.625,795.9844 748.2813,796.3906 Q747.7813,796.9688 746.9844,797.2969 Q745.9063,797.75 744.6094,797.75 Q743.0938,797.75 741.8906,797.125 Q740.9063,796.625 740.2188,795.5625 Q739.5313,794.4844 739.5313,793.2031 L739.5313,792.0469 Q739.5313,790.7188 740.1406,789.5781 Q740.7656,788.4219 741.8594,787.8125 Q742.9531,787.1875 744.1875,787.1875 Q744.9219,787.1875 745.5625,787.3594 Q746.2188,787.5156 746.7656,787.875 Z " fill="#000000"/><text fill="#000000" font-family="sans-serif" font-size="14" lengthAdjust="spacing" textLength="48" x="758" y="797.7969">CellLog</text><line style="stroke:#181818;stroke-width:0.5;" x1="730" x2="808" y1="808" y2="808"/><line style="stroke:#181818;stroke-width:0.5;" x1="730" x2="808" y1="816" y2="816"/></g><!--class SharedBoardLog--><g id="elem_SharedBoardLog"><rect codeLine="45" fill="#F1F1F1" height="48" id="SharedBoardLog" rx="2.5" ry="2.5" style="stroke:#181818;stroke-width:0.5;" width="140" x="7" y="1160.5"/><ellipse cx="22" cy="1176.5" fill="#ADD1B2" rx="11" ry="11" style="stroke:#181818;stroke-width:1.0;"/><path d="M24.7656,1172.375 Q24.9219,1172.1563 25.1094,1172.0469 Q25.2969,1171.9375 25.5156,1171.9375 Q25.8906,1171.9375 26.125,1172.2031 Q26.3594,1172.4531 26.3594,1173.0625 L26.3594,1174.5156 Q26.3594,1175.125 26.125,1175.3906 Q25.8906,1175.6563 25.5156,1175.6563 Q25.1719,1175.6563 24.9688,1175.4531 Q24.7656,1175.2656 24.6563,1174.75 Q24.6094,1174.3906 24.4219,1174.2031 Q24.0938,1173.8281 23.4844,1173.6094 Q22.875,1173.3906 22.25,1173.3906 Q21.4844,1173.3906 20.8438,1173.7188 Q20.2188,1174.0469 19.7188,1174.7969 Q19.2344,1175.5469 19.2344,1176.5781 L19.2344,1177.6719 Q19.2344,1178.9063 20.125,1179.7344 Q21.0156,1180.5469 22.6094,1180.5469 Q23.5469,1180.5469 24.2031,1180.2969 Q24.5938,1180.1406 25.0156,1179.7031 Q25.2813,1179.4375 25.4219,1179.3594 Q25.5781,1179.2813 25.7813,1179.2813 Q26.1094,1179.2813 26.3594,1179.5469 Q26.625,1179.7969 26.625,1180.1406 Q26.625,1180.4844 26.2813,1180.8906 Q25.7813,1181.4688 24.9844,1181.7969 Q23.9063,1182.25 22.6094,1182.25 Q21.0938,1182.25 19.8906,1181.625 Q18.9063,1181.125 18.2188,1180.0625 Q17.5313,1178.9844 17.5313,1177.7031 L17.5313,1176.5469 Q17.5313,1175.2188 18.1406,1174.0781 Q18.7656,1172.9219 19.8594,1172.3125 Q20.9531,1171.6875 22.1875,1171.6875 Q22.9219,1171.6875 23.5625,1171.8594 Q24.2188,1172.0156 24.7656,1172.375 Z " fill="#000000"/><text fill="#000000" font-family="sans-serif" font-size="14" lengthAdjust="spacing" textLength="108" x="36" y="1182.2969">SharedBoardLog</text><line style="stroke:#181818;stroke-width:0.5;" x1="8" x2="146" y1="1192.5" y2="1192.5"/><line style="stroke:#181818;stroke-width:0.5;" x1="8" x2="146" y1="1200.5" y2="1200.5"/></g><!--class PersistenceContext--><g id="elem_PersistenceContext"><rect codeLine="47" fill="#F1F1F1" height="48" id="PersistenceContext" rx="2.5" ry="2.5" style="stroke:#181818;stroke-width:0.5;" width="154" x="844" y="776"/><ellipse cx="859" cy="792" fill="#ADD1B2" rx="11" ry="11" style="stroke:#181818;stroke-width:1.0;"/><path d="M861.7656,787.875 Q861.9219,787.6563 862.1094,787.5469 Q862.2969,787.4375 862.5156,787.4375 Q862.8906,787.4375 863.125,787.7031 Q863.3594,787.9531 863.3594,788.5625 L863.3594,790.0156 Q863.3594,790.625 863.125,790.8906 Q862.8906,791.1563 862.5156,791.1563 Q862.1719,791.1563 861.9688,790.9531 Q861.7656,790.7656 861.6563,790.25 Q861.6094,789.8906 861.4219,789.7031 Q861.0938,789.3281 860.4844,789.1094 Q859.875,788.8906 859.25,788.8906 Q858.4844,788.8906 857.8438,789.2188 Q857.2188,789.5469 856.7188,790.2969 Q856.2344,791.0469 856.2344,792.0781 L856.2344,793.1719 Q856.2344,794.4063 857.125,795.2344 Q858.0156,796.0469 859.6094,796.0469 Q860.5469,796.0469 861.2031,795.7969 Q861.5938,795.6406 862.0156,795.2031 Q862.2813,794.9375 862.4219,794.8594 Q862.5781,794.7813 862.7813,794.7813 Q863.1094,794.7813 863.3594,795.0469 Q863.625,795.2969 863.625,795.6406 Q863.625,795.9844 863.2813,796.3906 Q862.7813,796.9688 861.9844,797.2969 Q860.9063,797.75 859.6094,797.75 Q858.0938,797.75 856.8906,797.125 Q855.9063,796.625 855.2188,795.5625 Q854.5313,794.4844 854.5313,793.2031 L854.5313,792.0469 Q854.5313,790.7188 855.1406,789.5781 Q855.7656,788.4219 856.8594,787.8125 Q857.9531,787.1875 859.1875,787.1875 Q859.9219,787.1875 860.5625,787.3594 Q861.2188,787.5156 861.7656,787.875 Z " fill="#000000"/><text fill="#000000" font-family="sans-serif" font-size="14" lengthAdjust="spacing" textLength="122" x="873" y="797.7969">PersistenceContext</text><line style="stroke:#181818;stroke-width:0.5;" x1="845" x2="997" y1="808" y2="808"/><line style="stroke:#181818;stroke-width:0.5;" x1="845" x2="997" y1="816" y2="816"/></g><!--class RepositoryFactory--><g id="elem_RepositoryFactory"><rect codeLine="49" fill="#F1F1F1" height="178.3477" id="RepositoryFactory" rx="2.5" ry="2.5" style="stroke:#181818;stroke-width:0.5;" width="210" x="816" y="885"/><ellipse cx="858.9" cy="901" fill="#B4A7E5" rx="11" ry="11" style="stroke:#181818;stroke-width:1.0;"/><path d="M859.8531,897.6406 L859.8531,904.2969 L861.5719,904.2969 Q862.1813,904.2969 862.4469,904.5313 Q862.7125,904.7656 862.7125,905.1563 Q862.7125,905.5313 862.4469,905.7656 Q862.1813,906 861.5719,906 L856.4313,906 Q855.8219,906 855.5563,905.7656 Q855.2906,905.5313 855.2906,905.1406 Q855.2906,904.7656 855.5563,904.5313 Q855.8219,904.2969 856.4313,904.2969 L858.15,904.2969 L858.15,897.6406 L856.4313,897.6406 Q855.8219,897.6406 855.5563,897.4063 Q855.2906,897.1719 855.2906,896.7813 Q855.2906,896.4063 855.5563,896.1719 Q855.8219,895.9375 856.4313,895.9375 L861.5719,895.9375 Q862.1813,895.9375 862.4469,896.1719 Q862.7125,896.4063 862.7125,896.7813 Q862.7125,897.1719 862.4469,897.4063 Q862.1813,897.6406 861.5719,897.6406 L859.8531,897.6406 Z " fill="#000000"/><text fill="#000000" font-family="sans-serif" font-size="14" font-style="italic" lengthAdjust="spacing" textLength="116" x="879.1" y="906.7969">RepositoryFactory</text><line style="stroke:#181818;stroke-width:0.5;" x1="817" x2="1025" y1="917" y2="917"/><line style="stroke:#181818;stroke-width:0.5;" x1="817" x2="1025" y1="925" y2="925"/><ellipse cx="827" cy="939.8105" fill="#84BE84" rx="3" ry="3" style="stroke:#038048;stroke-width:1.0;"/><text fill="#000000" font-family="sans-serif" font-size="14" lengthAdjust="spacing" textLength="146" x="836" y="944.1074">getRepositoryFactory()</text><ellipse cx="827" cy="958.4316" fill="#84BE84" rx="3" ry="3" style="stroke:#038048;stroke-width:1.0;"/><text fill="#000000" font-family="sans-serif" font-size="14" lengthAdjust="spacing" textLength="160" x="836" y="962.7285">sharedBoardRepository()</text><ellipse cx="827" cy="977.0527" fill="#84BE84" rx="3" ry="3" style="stroke:#038048;stroke-width:1.0;"/><text fill="#000000" font-family="sans-serif" font-size="14" lengthAdjust="spacing" textLength="99" x="836" y="981.3496">cellRepository()</text><ellipse cx="827" cy="995.6738" fill="#84BE84" rx="3" ry="3" style="stroke:#038048;stroke-width:1.0;"/><text fill="#000000" font-family="sans-serif" font-size="14" lengthAdjust="spacing" textLength="112" x="836" y="999.9707">postItRepository()</text><ellipse cx="827" cy="1014.2949" fill="#84BE84" rx="3" ry="3" style="stroke:#038048;stroke-width:1.0;"/><text fill="#000000" font-family="sans-serif" font-size="14" lengthAdjust="spacing" textLength="184" x="836" y="1018.5918">sharedBoardLogRepository()</text><ellipse cx="827" cy="1032.916" fill="#84BE84" rx="3" ry="3" style="stroke:#038048;stroke-width:1.0;"/><text fill="#000000" font-family="sans-serif" font-size="14" lengthAdjust="spacing" textLength="123" x="836" y="1037.2129">cellLogRepository()</text><ellipse cx="827" cy="1051.5371" fill="#84BE84" rx="3" ry="3" style="stroke:#038048;stroke-width:1.0;"/><text fill="#000000" font-family="sans-serif" font-size="14" lengthAdjust="spacing" textLength="136" x="836" y="1055.834">postItLogRepository()</text></g><!--class SharedBoardRepository--><g id="elem_SharedBoardRepository"><rect codeLine="59" fill="#F1F1F1" height="85.2422" id="SharedBoardRepository" rx="2.5" ry="2.5" style="stroke:#181818;stroke-width:0.5;" width="389" x="182.5" y="1142"/><ellipse cx="296.75" cy="1158" fill="#B4A7E5" rx="11" ry="11" style="stroke:#181818;stroke-width:1.0;"/><path d="M297.7031,1154.6406 L297.7031,1161.2969 L299.4219,1161.2969 Q300.0313,1161.2969 300.2969,1161.5313 Q300.5625,1161.7656 300.5625,1162.1563 Q300.5625,1162.5313 300.2969,1162.7656 Q300.0313,1163 299.4219,1163 L294.2813,1163 Q293.6719,1163 293.4063,1162.7656 Q293.1406,1162.5313 293.1406,1162.1406 Q293.1406,1161.7656 293.4063,1161.5313 Q293.6719,1161.2969 294.2813,1161.2969 L296,1161.2969 L296,1154.6406 L294.2813,1154.6406 Q293.6719,1154.6406 293.4063,1154.4063 Q293.1406,1154.1719 293.1406,1153.7813 Q293.1406,1153.4063 293.4063,1153.1719 Q293.6719,1152.9375 294.2813,1152.9375 L299.4219,1152.9375 Q300.0313,1152.9375 300.2969,1153.1719 Q300.5625,1153.4063 300.5625,1153.7813 Q300.5625,1154.1719 300.2969,1154.4063 Q300.0313,1154.6406 299.4219,1154.6406 L297.7031,1154.6406 Z " fill="#000000"/><text fill="#000000" font-family="sans-serif" font-size="14" font-style="italic" lengthAdjust="spacing" textLength="152" x="317.25" y="1163.7969">SharedBoardRepository</text><line style="stroke:#181818;stroke-width:0.5;" x1="183.5" x2="570.5" y1="1174" y2="1174"/><line style="stroke:#181818;stroke-width:0.5;" x1="183.5" x2="570.5" y1="1182" y2="1182"/><ellipse cx="193.5" cy="1196.8105" fill="#84BE84" rx="3" ry="3" style="stroke:#038048;stroke-width:1.0;"/><text fill="#000000" font-family="sans-serif" font-size="14" lengthAdjust="spacing" textLength="219" x="202.5" y="1201.1074">findWriteAdminPermissionBoards()</text><ellipse cx="193.5" cy="1215.4316" fill="#84BE84" rx="3" ry="3" style="stroke:#038048;stroke-width:1.0;"/><text fill="#000000" font-family="sans-serif" font-size="14" lengthAdjust="spacing" textLength="363" x="202.5" y="1219.7285">findSharedBoardLogContainsSharedBoard(sharedBoard)</text></g><!--class CellRepository--><g id="elem_CellRepository"><rect codeLine="64" fill="#F1F1F1" height="85.2422" id="CellRepository" rx="2.5" ry="2.5" style="stroke:#181818;stroke-width:0.5;" width="211" x="606.5" y="1142"/><ellipse cx="661.75" cy="1158" fill="#B4A7E5" rx="11" ry="11" style="stroke:#181818;stroke-width:1.0;"/><path d="M662.7031,1154.6406 L662.7031,1161.2969 L664.4219,1161.2969 Q665.0313,1161.2969 665.2969,1161.5313 Q665.5625,1161.7656 665.5625,1162.1563 Q665.5625,1162.5313 665.2969,1162.7656 Q665.0313,1163 664.4219,1163 L659.2813,1163 Q658.6719,1163 658.4063,1162.7656 Q658.1406,1162.5313 658.1406,1162.1406 Q658.1406,1161.7656 658.4063,1161.5313 Q658.6719,1161.2969 659.2813,1161.2969 L661,1161.2969 L661,1154.6406 L659.2813,1154.6406 Q658.6719,1154.6406 658.4063,1154.4063 Q658.1406,1154.1719 658.1406,1153.7813 Q658.1406,1153.4063 658.4063,1153.1719 Q658.6719,1152.9375 659.2813,1152.9375 L664.4219,1152.9375 Q665.0313,1152.9375 665.2969,1153.1719 Q665.5625,1153.4063 665.5625,1153.7813 Q665.5625,1154.1719 665.2969,1154.4063 Q665.0313,1154.6406 664.4219,1154.6406 L662.7031,1154.6406 Z " fill="#000000"/><text fill="#000000" font-family="sans-serif" font-size="14" font-style="italic" lengthAdjust="spacing" textLength="92" x="682.25" y="1163.7969">CellRepository</text><line style="stroke:#181818;stroke-width:0.5;" x1="607.5" x2="816.5" y1="1174" y2="1174"/><line style="stroke:#181818;stroke-width:0.5;" x1="607.5" x2="816.5" y1="1182" y2="1182"/><ellipse cx="617.5" cy="1196.8105" fill="#84BE84" rx="3" ry="3" style="stroke:#038048;stroke-width:1.0;"/><text fill="#000000" font-family="sans-serif" font-size="14" lengthAdjust="spacing" textLength="185" x="626.5" y="1201.1074">findEmptyCells(sharedBoard)</text><ellipse cx="617.5" cy="1215.4316" fill="#84BE84" rx="3" ry="3" style="stroke:#038048;stroke-width:1.0;"/><text fill="#000000" font-family="sans-serif" font-size="14" lengthAdjust="spacing" textLength="61" x="626.5" y="1219.7285">save(cell)</text></g><!--class PostItRepository--><g id="elem_PostItRepository"><rect codeLine="69" fill="#F1F1F1" height="66.6211" id="PostItRepository" rx="2.5" ry="2.5" style="stroke:#181818;stroke-width:0.5;" width="136" x="853" y="1151"/><ellipse cx="868" cy="1167" fill="#B4A7E5" rx="11" ry="11" style="stroke:#181818;stroke-width:1.0;"/><path d="M868.9531,1163.6406 L868.9531,1170.2969 L870.6719,1170.2969 Q871.2813,1170.2969 871.5469,1170.5313 Q871.8125,1170.7656 871.8125,1171.1563 Q871.8125,1171.5313 871.5469,1171.7656 Q871.2813,1172 870.6719,1172 L865.5313,1172 Q864.9219,1172 864.6563,1171.7656 Q864.3906,1171.5313 864.3906,1171.1406 Q864.3906,1170.7656 864.6563,1170.5313 Q864.9219,1170.2969 865.5313,1170.2969 L867.25,1170.2969 L867.25,1163.6406 L865.5313,1163.6406 Q864.9219,1163.6406 864.6563,1163.4063 Q864.3906,1163.1719 864.3906,1162.7813 Q864.3906,1162.4063 864.6563,1162.1719 Q864.9219,1161.9375 865.5313,1161.9375 L870.6719,1161.9375 Q871.2813,1161.9375 871.5469,1162.1719 Q871.8125,1162.4063 871.8125,1162.7813 Q871.8125,1163.1719 871.5469,1163.4063 Q871.2813,1163.6406 870.6719,1163.6406 L868.9531,1163.6406 Z " fill="#000000"/><text fill="#000000" font-family="sans-serif" font-size="14" font-style="italic" lengthAdjust="spacing" textLength="104" x="882" y="1172.7969">PostItRepository</text><line style="stroke:#181818;stroke-width:0.5;" x1="854" x2="988" y1="1183" y2="1183"/><line style="stroke:#181818;stroke-width:0.5;" x1="854" x2="988" y1="1191" y2="1191"/><ellipse cx="864" cy="1205.8105" fill="#84BE84" rx="3" ry="3" style="stroke:#038048;stroke-width:1.0;"/><text fill="#000000" font-family="sans-serif" font-size="14" lengthAdjust="spacing" textLength="74" x="873" y="1210.1074">save(postIt)</text></g><!--class SharedBoardLogRepository--><g id="elem_SharedBoardLogRepository"><rect codeLine="73" fill="#F1F1F1" height="66.6211" id="SharedBoardLogRepository" rx="2.5" ry="2.5" style="stroke:#181818;stroke-width:0.5;" width="389" x="1027.5" y="1151"/><ellipse cx="1129.75" cy="1167" fill="#B4A7E5" rx="11" ry="11" style="stroke:#181818;stroke-width:1.0;"/><path d="M1130.7031,1163.6406 L1130.7031,1170.2969 L1132.4219,1170.2969 Q1133.0313,1170.2969 1133.2969,1170.5313 Q1133.5625,1170.7656 1133.5625,1171.1563 Q1133.5625,1171.5313 1133.2969,1171.7656 Q1133.0313,1172 1132.4219,1172 L1127.2813,1172 Q1126.6719,1172 1126.4063,1171.7656 Q1126.1406,1171.5313 1126.1406,1171.1406 Q1126.1406,1170.7656 1126.4063,1170.5313 Q1126.6719,1170.2969 1127.2813,1170.2969 L1129,1170.2969 L1129,1163.6406 L1127.2813,1163.6406 Q1126.6719,1163.6406 1126.4063,1163.4063 Q1126.1406,1163.1719 1126.1406,1162.7813 Q1126.1406,1162.4063 1126.4063,1162.1719 Q1126.6719,1161.9375 1127.2813,1161.9375 L1132.4219,1161.9375 Q1133.0313,1161.9375 1133.2969,1162.1719 Q1133.5625,1162.4063 1133.5625,1162.7813 Q1133.5625,1163.1719 1133.2969,1163.4063 Q1133.0313,1163.6406 1132.4219,1163.6406 L1130.7031,1163.6406 Z " fill="#000000"/><text fill="#000000" font-family="sans-serif" font-size="14" font-style="italic" lengthAdjust="spacing" textLength="176" x="1150.25" y="1172.7969">SharedBoardLogRepository</text><line style="stroke:#181818;stroke-width:0.5;" x1="1028.5" x2="1415.5" y1="1183" y2="1183"/><line style="stroke:#181818;stroke-width:0.5;" x1="1028.5" x2="1415.5" y1="1191" y2="1191"/><ellipse cx="1038.5" cy="1205.8105" fill="#84BE84" rx="3" ry="3" style="stroke:#038048;stroke-width:1.0;"/><text fill="#000000" font-family="sans-serif" font-size="14" lengthAdjust="spacing" textLength="363" x="1047.5" y="1210.1074">findSharedBoardLogContainsSharedBoard(sharedBoard)</text></g><!--class CellLogRepository--><g id="elem_CellLogRepository"><rect codeLine="77" fill="#F1F1F1" height="85.2422" id="CellLogRepository" rx="2.5" ry="2.5" style="stroke:#181818;stroke-width:0.5;" width="208" x="1455" y="1142"/><ellipse cx="1497" cy="1158" fill="#B4A7E5" rx="11" ry="11" style="stroke:#181818;stroke-width:1.0;"/><path d="M1497.9531,1154.6406 L1497.9531,1161.2969 L1499.6719,1161.2969 Q1500.2813,1161.2969 1500.5469,1161.5313 Q1500.8125,1161.7656 1500.8125,1162.1563 Q1500.8125,1162.5313 1500.5469,1162.7656 Q1500.2813,1163 1499.6719,1163 L1494.5313,1163 Q1493.9219,1163 1493.6563,1162.7656 Q1493.3906,1162.5313 1493.3906,1162.1406 Q1493.3906,1161.7656 1493.6563,1161.5313 Q1493.9219,1161.2969 1494.5313,1161.2969 L1496.25,1161.2969 L1496.25,1154.6406 L1494.5313,1154.6406 Q1493.9219,1154.6406 1493.6563,1154.4063 Q1493.3906,1154.1719 1493.3906,1153.7813 Q1493.3906,1153.4063 1493.6563,1153.1719 Q1493.9219,1152.9375 1494.5313,1152.9375 L1499.6719,1152.9375 Q1500.2813,1152.9375 1500.5469,1153.1719 Q1500.8125,1153.4063 1500.8125,1153.7813 Q1500.8125,1154.1719 1500.5469,1154.4063 Q1500.2813,1154.6406 1499.6719,1154.6406 L1497.9531,1154.6406 Z " fill="#000000"/><text fill="#000000" font-family="sans-serif" font-size="14" font-style="italic" lengthAdjust="spacing" textLength="116" x="1517" y="1163.7969">CellLogRepository</text><line style="stroke:#181818;stroke-width:0.5;" x1="1456" x2="1662" y1="1174" y2="1174"/><line style="stroke:#181818;stroke-width:0.5;" x1="1456" x2="1662" y1="1182" y2="1182"/><ellipse cx="1466" cy="1196.8105" fill="#84BE84" rx="3" ry="3" style="stroke:#038048;stroke-width:1.0;"/><text fill="#000000" font-family="sans-serif" font-size="14" lengthAdjust="spacing" textLength="182" x="1475" y="1201.1074">findCellLogContainsCell(cell)</text><ellipse cx="1466" cy="1215.4316" fill="#84BE84" rx="3" ry="3" style="stroke:#038048;stroke-width:1.0;"/><text fill="#000000" font-family="sans-serif" font-size="14" lengthAdjust="spacing" textLength="85" x="1475" y="1219.7285">save(cellLog)</text></g><!--class PostItLogRepository--><g id="elem_PostItLogRepository"><rect codeLine="82" fill="#F1F1F1" height="66.6211" id="PostItLogRepository" rx="2.5" ry="2.5" style="stroke:#181818;stroke-width:0.5;" width="160" x="1705" y="1151"/><ellipse cx="1720" cy="1167" fill="#B4A7E5" rx="11" ry="11" style="stroke:#181818;stroke-width:1.0;"/><path d="M1720.9531,1163.6406 L1720.9531,1170.2969 L1722.6719,1170.2969 Q1723.2813,1170.2969 1723.5469,1170.5313 Q1723.8125,1170.7656 1723.8125,1171.1563 Q1723.8125,1171.5313 1723.5469,1171.7656 Q1723.2813,1172 1722.6719,1172 L1717.5313,1172 Q1716.9219,1172 1716.6563,1171.7656 Q1716.3906,1171.5313 1716.3906,1171.1406 Q1716.3906,1170.7656 1716.6563,1170.5313 Q1716.9219,1170.2969 1717.5313,1170.2969 L1719.25,1170.2969 L1719.25,1163.6406 L1717.5313,1163.6406 Q1716.9219,1163.6406 1716.6563,1163.4063 Q1716.3906,1163.1719 1716.3906,1162.7813 Q1716.3906,1162.4063 1716.6563,1162.1719 Q1716.9219,1161.9375 1717.5313,1161.9375 L1722.6719,1161.9375 Q1723.2813,1161.9375 1723.5469,1162.1719 Q1723.8125,1162.4063 1723.8125,1162.7813 Q1723.8125,1163.1719 1723.5469,1163.4063 Q1723.2813,1163.6406 1722.6719,1163.6406 L1720.9531,1163.6406 Z " fill="#000000"/><text fill="#000000" font-family="sans-serif" font-size="14" font-style="italic" lengthAdjust="spacing" textLength="128" x="1734" y="1172.7969">PostItLogRepository</text><line style="stroke:#181818;stroke-width:0.5;" x1="1706" x2="1864" y1="1183" y2="1183"/><line style="stroke:#181818;stroke-width:0.5;" x1="1706" x2="1864" y1="1191" y2="1191"/><ellipse cx="1716" cy="1205.8105" fill="#84BE84" rx="3" ry="3" style="stroke:#038048;stroke-width:1.0;"/><text fill="#000000" font-family="sans-serif" font-size="14" lengthAdjust="spacing" textLength="98" x="1725" y="1210.1074">save(postItLog)</text></g><!--class JPASharedBoardRepository--><g id="elem_JPASharedBoardRepository"><rect codeLine="86" fill="#F1F1F1" height="85.2422" id="JPASharedBoardRepository" rx="2.5" ry="2.5" style="stroke:#181818;stroke-width:0.5;" width="389" x="168.5" y="1315.5"/><ellipse cx="270.75" cy="1331.5" fill="#ADD1B2" rx="11" ry="11" style="stroke:#181818;stroke-width:1.0;"/><path d="M273.5156,1327.375 Q273.6719,1327.1563 273.8594,1327.0469 Q274.0469,1326.9375 274.2656,1326.9375 Q274.6406,1326.9375 274.875,1327.2031 Q275.1094,1327.4531 275.1094,1328.0625 L275.1094,1329.5156 Q275.1094,1330.125 274.875,1330.3906 Q274.6406,1330.6563 274.2656,1330.6563 Q273.9219,1330.6563 273.7188,1330.4531 Q273.5156,1330.2656 273.4063,1329.75 Q273.3594,1329.3906 273.1719,1329.2031 Q272.8438,1328.8281 272.2344,1328.6094 Q271.625,1328.3906 271,1328.3906 Q270.2344,1328.3906 269.5938,1328.7188 Q268.9688,1329.0469 268.4688,1329.7969 Q267.9844,1330.5469 267.9844,1331.5781 L267.9844,1332.6719 Q267.9844,1333.9063 268.875,1334.7344 Q269.7656,1335.5469 271.3594,1335.5469 Q272.2969,1335.5469 272.9531,1335.2969 Q273.3438,1335.1406 273.7656,1334.7031 Q274.0313,1334.4375 274.1719,1334.3594 Q274.3281,1334.2813 274.5313,1334.2813 Q274.8594,1334.2813 275.1094,1334.5469 Q275.375,1334.7969 275.375,1335.1406 Q275.375,1335.4844 275.0313,1335.8906 Q274.5313,1336.4688 273.7344,1336.7969 Q272.6563,1337.25 271.3594,1337.25 Q269.8438,1337.25 268.6406,1336.625 Q267.6563,1336.125 266.9688,1335.0625 Q266.2813,1333.9844 266.2813,1332.7031 L266.2813,1331.5469 Q266.2813,1330.2188 266.8906,1329.0781 Q267.5156,1327.9219 268.6094,1327.3125 Q269.7031,1326.6875 270.9375,1326.6875 Q271.6719,1326.6875 272.3125,1326.8594 Q272.9688,1327.0156 273.5156,1327.375 Z " fill="#000000"/><text fill="#000000" font-family="sans-serif" font-size="14" lengthAdjust="spacing" textLength="176" x="291.25" y="1337.2969">JPASharedBoardRepository</text><line style="stroke:#181818;stroke-width:0.5;" x1="169.5" x2="556.5" y1="1347.5" y2="1347.5"/><line style="stroke:#181818;stroke-width:0.5;" x1="169.5" x2="556.5" y1="1355.5" y2="1355.5"/><ellipse cx="179.5" cy="1370.3105" fill="#84BE84" rx="3" ry="3" style="stroke:#038048;stroke-width:1.0;"/><text fill="#000000" font-family="sans-serif" font-size="14" lengthAdjust="spacing" textLength="219" x="188.5" y="1374.6074">findWriteAdminPermissionBoards()</text><ellipse cx="179.5" cy="1388.9316" fill="#84BE84" rx="3" ry="3" style="stroke:#038048;stroke-width:1.0;"/><text fill="#000000" font-family="sans-serif" font-size="14" lengthAdjust="spacing" textLength="363" x="188.5" y="1393.2285">findSharedBoardLogContainsSharedBoard(sharedBoard)</text></g><!--class JPACellRepository--><g id="elem_JPACellRepository"><rect codeLine="91" fill="#F1F1F1" height="103.8633" id="JPACellRepository" rx="2.5" ry="2.5" style="stroke:#181818;stroke-width:0.5;" width="211" x="592.5" y="1306"/><ellipse cx="635.85" cy="1322" fill="#ADD1B2" rx="11" ry="11" style="stroke:#181818;stroke-width:1.0;"/><path d="M638.6156,1317.875 Q638.7719,1317.6563 638.9594,1317.5469 Q639.1469,1317.4375 639.3656,1317.4375 Q639.7406,1317.4375 639.975,1317.7031 Q640.2094,1317.9531 640.2094,1318.5625 L640.2094,1320.0156 Q640.2094,1320.625 639.975,1320.8906 Q639.7406,1321.1563 639.3656,1321.1563 Q639.0219,1321.1563 638.8188,1320.9531 Q638.6156,1320.7656 638.5063,1320.25 Q638.4594,1319.8906 638.2719,1319.7031 Q637.9438,1319.3281 637.3344,1319.1094 Q636.725,1318.8906 636.1,1318.8906 Q635.3344,1318.8906 634.6938,1319.2188 Q634.0688,1319.5469 633.5688,1320.2969 Q633.0844,1321.0469 633.0844,1322.0781 L633.0844,1323.1719 Q633.0844,1324.4063 633.975,1325.2344 Q634.8656,1326.0469 636.4594,1326.0469 Q637.3969,1326.0469 638.0531,1325.7969 Q638.4438,1325.6406 638.8656,1325.2031 Q639.1313,1324.9375 639.2719,1324.8594 Q639.4281,1324.7813 639.6313,1324.7813 Q639.9594,1324.7813 640.2094,1325.0469 Q640.475,1325.2969 640.475,1325.6406 Q640.475,1325.9844 640.1313,1326.3906 Q639.6313,1326.9688 638.8344,1327.2969 Q637.7563,1327.75 636.4594,1327.75 Q634.9438,1327.75 633.7406,1327.125 Q632.7563,1326.625 632.0688,1325.5625 Q631.3813,1324.4844 631.3813,1323.2031 L631.3813,1322.0469 Q631.3813,1320.7188 631.9906,1319.5781 Q632.6156,1318.4219 633.7094,1317.8125 Q634.8031,1317.1875 636.0375,1317.1875 Q636.7719,1317.1875 637.4125,1317.3594 Q638.0688,1317.5156 638.6156,1317.875 Z " fill="#000000"/><text fill="#000000" font-family="sans-serif" font-size="14" lengthAdjust="spacing" textLength="116" x="656.15" y="1327.7969">JPACellRepository</text><line style="stroke:#181818;stroke-width:0.5;" x1="593.5" x2="802.5" y1="1338" y2="1338"/><line style="stroke:#181818;stroke-width:0.5;" x1="593.5" x2="802.5" y1="1346" y2="1346"/><ellipse cx="603.5" cy="1360.8105" fill="#84BE84" rx="3" ry="3" style="stroke:#038048;stroke-width:1.0;"/><text fill="#000000" font-family="sans-serif" font-size="14" lengthAdjust="spacing" textLength="185" x="612.5" y="1365.1074">findEmptyCells(sharedBoard)</text><ellipse cx="603.5" cy="1379.4316" fill="#84BE84" rx="3" ry="3" style="stroke:#038048;stroke-width:1.0;"/><text fill="#000000" font-family="sans-serif" font-size="14" lengthAdjust="spacing" textLength="68" x="612.5" y="1383.7285">findCell(id)</text><ellipse cx="603.5" cy="1398.0527" fill="#84BE84" rx="3" ry="3" style="stroke:#038048;stroke-width:1.0;"/><text fill="#000000" font-family="sans-serif" font-size="14" lengthAdjust="spacing" textLength="61" x="612.5" y="1402.3496">save(cell)</text></g><!--class JPAPostItRepository--><g id="elem_JPAPostItRepository"><rect codeLine="97" fill="#F1F1F1" height="66.6211" id="JPAPostItRepository" rx="2.5" ry="2.5" style="stroke:#181818;stroke-width:0.5;" width="159" x="838.5" y="1324.5"/><ellipse cx="853.5" cy="1340.5" fill="#ADD1B2" rx="11" ry="11" style="stroke:#181818;stroke-width:1.0;"/><path d="M856.2656,1336.375 Q856.4219,1336.1563 856.6094,1336.0469 Q856.7969,1335.9375 857.0156,1335.9375 Q857.3906,1335.9375 857.625,1336.2031 Q857.8594,1336.4531 857.8594,1337.0625 L857.8594,1338.5156 Q857.8594,1339.125 857.625,1339.3906 Q857.3906,1339.6563 857.0156,1339.6563 Q856.6719,1339.6563 856.4688,1339.4531 Q856.2656,1339.2656 856.1563,1338.75 Q856.1094,1338.3906 855.9219,1338.2031 Q855.5938,1337.8281 854.9844,1337.6094 Q854.375,1337.3906 853.75,1337.3906 Q852.9844,1337.3906 852.3438,1337.7188 Q851.7188,1338.0469 851.2188,1338.7969 Q850.7344,1339.5469 850.7344,1340.5781 L850.7344,1341.6719 Q850.7344,1342.9063 851.625,1343.7344 Q852.5156,1344.5469 854.1094,1344.5469 Q855.0469,1344.5469 855.7031,1344.2969 Q856.0938,1344.1406 856.5156,1343.7031 Q856.7813,1343.4375 856.9219,1343.3594 Q857.0781,1343.2813 857.2813,1343.2813 Q857.6094,1343.2813 857.8594,1343.5469 Q858.125,1343.7969 858.125,1344.1406 Q858.125,1344.4844 857.7813,1344.8906 Q857.2813,1345.4688 856.4844,1345.7969 Q855.4063,1346.25 854.1094,1346.25 Q852.5938,1346.25 851.3906,1345.625 Q850.4063,1345.125 849.7188,1344.0625 Q849.0313,1342.9844 849.0313,1341.7031 L849.0313,1340.5469 Q849.0313,1339.2188 849.6406,1338.0781 Q850.2656,1336.9219 851.3594,1336.3125 Q852.4531,1335.6875 853.6875,1335.6875 Q854.4219,1335.6875 855.0625,1335.8594 Q855.7188,1336.0156 856.2656,1336.375 Z " fill="#000000"/><text fill="#000000" font-family="sans-serif" font-size="14" lengthAdjust="spacing" textLength="127" x="867.5" y="1346.2969">JPAPostItRepository</text><line style="stroke:#181818;stroke-width:0.5;" x1="839.5" x2="996.5" y1="1356.5" y2="1356.5"/><line style="stroke:#181818;stroke-width:0.5;" x1="839.5" x2="996.5" y1="1364.5" y2="1364.5"/><ellipse cx="849.5" cy="1379.3105" fill="#84BE84" rx="3" ry="3" style="stroke:#038048;stroke-width:1.0;"/><text fill="#000000" font-family="sans-serif" font-size="14" lengthAdjust="spacing" textLength="74" x="858.5" y="1383.6074">save(postIt)</text></g><!--class JPASharedBoardLogRepository--><g id="elem_JPASharedBoardLogRepository"><rect codeLine="101" fill="#F1F1F1" height="66.6211" id="JPASharedBoardLogRepository" rx="2.5" ry="2.5" style="stroke:#181818;stroke-width:0.5;" width="389" x="1032.5" y="1324.5"/><ellipse cx="1122.75" cy="1340.5" fill="#ADD1B2" rx="11" ry="11" style="stroke:#181818;stroke-width:1.0;"/><path d="M1125.5156,1336.375 Q1125.6719,1336.1563 1125.8594,1336.0469 Q1126.0469,1335.9375 1126.2656,1335.9375 Q1126.6406,1335.9375 1126.875,1336.2031 Q1127.1094,1336.4531 1127.1094,1337.0625 L1127.1094,1338.5156 Q1127.1094,1339.125 1126.875,1339.3906 Q1126.6406,1339.6563 1126.2656,1339.6563 Q1125.9219,1339.6563 1125.7188,1339.4531 Q1125.5156,1339.2656 1125.4063,1338.75 Q1125.3594,1338.3906 1125.1719,1338.2031 Q1124.8438,1337.8281 1124.2344,1337.6094 Q1123.625,1337.3906 1123,1337.3906 Q1122.2344,1337.3906 1121.5938,1337.7188 Q1120.9688,1338.0469 1120.4688,1338.7969 Q1119.9844,1339.5469 1119.9844,1340.5781 L1119.9844,1341.6719 Q1119.9844,1342.9063 1120.875,1343.7344 Q1121.7656,1344.5469 1123.3594,1344.5469 Q1124.2969,1344.5469 1124.9531,1344.2969 Q1125.3438,1344.1406 1125.7656,1343.7031 Q1126.0313,1343.4375 1126.1719,1343.3594 Q1126.3281,1343.2813 1126.5313,1343.2813 Q1126.8594,1343.2813 1127.1094,1343.5469 Q1127.375,1343.7969 1127.375,1344.1406 Q1127.375,1344.4844 1127.0313,1344.8906 Q1126.5313,1345.4688 1125.7344,1345.7969 Q1124.6563,1346.25 1123.3594,1346.25 Q1121.8438,1346.25 1120.6406,1345.625 Q1119.6563,1345.125 1118.9688,1344.0625 Q1118.2813,1342.9844 1118.2813,1341.7031 L1118.2813,1340.5469 Q1118.2813,1339.2188 1118.8906,1338.0781 Q1119.5156,1336.9219 1120.6094,1336.3125 Q1121.7031,1335.6875 1122.9375,1335.6875 Q1123.6719,1335.6875 1124.3125,1335.8594 Q1124.9688,1336.0156 1125.5156,1336.375 Z " fill="#000000"/><text fill="#000000" font-family="sans-serif" font-size="14" lengthAdjust="spacing" textLength="200" x="1143.25" y="1346.2969">JPASharedBoardLogRepository</text><line style="stroke:#181818;stroke-width:0.5;" x1="1033.5" x2="1420.5" y1="1356.5" y2="1356.5"/><line style="stroke:#181818;stroke-width:0.5;" x1="1033.5" x2="1420.5" y1="1364.5" y2="1364.5"/><ellipse cx="1043.5" cy="1379.3105" fill="#84BE84" rx="3" ry="3" style="stroke:#038048;stroke-width:1.0;"/><text fill="#000000" font-family="sans-serif" font-size="14" lengthAdjust="spacing" textLength="363" x="1052.5" y="1383.6074">findSharedBoardLogContainsSharedBoard(sharedBoard)</text></g><!--class JPACellLogRepository--><g id="elem_JPACellLogRepository"><rect codeLine="105" fill="#F1F1F1" height="85.2422" id="JPACellLogRepository" rx="2.5" ry="2.5" style="stroke:#181818;stroke-width:0.5;" width="208" x="1457" y="1315.5"/><ellipse cx="1488.2" cy="1331.5" fill="#ADD1B2" rx="11" ry="11" style="stroke:#181818;stroke-width:1.0;"/><path d="M1490.9656,1327.375 Q1491.1219,1327.1563 1491.3094,1327.0469 Q1491.4969,1326.9375 1491.7156,1326.9375 Q1492.0906,1326.9375 1492.325,1327.2031 Q1492.5594,1327.4531 1492.5594,1328.0625 L1492.5594,1329.5156 Q1492.5594,1330.125 1492.325,1330.3906 Q1492.0906,1330.6563 1491.7156,1330.6563 Q1491.3719,1330.6563 1491.1688,1330.4531 Q1490.9656,1330.2656 1490.8563,1329.75 Q1490.8094,1329.3906 1490.6219,1329.2031 Q1490.2938,1328.8281 1489.6844,1328.6094 Q1489.075,1328.3906 1488.45,1328.3906 Q1487.6844,1328.3906 1487.0438,1328.7188 Q1486.4188,1329.0469 1485.9188,1329.7969 Q1485.4344,1330.5469 1485.4344,1331.5781 L1485.4344,1332.6719 Q1485.4344,1333.9063 1486.325,1334.7344 Q1487.2156,1335.5469 1488.8094,1335.5469 Q1489.7469,1335.5469 1490.4031,1335.2969 Q1490.7938,1335.1406 1491.2156,1334.7031 Q1491.4813,1334.4375 1491.6219,1334.3594 Q1491.7781,1334.2813 1491.9813,1334.2813 Q1492.3094,1334.2813 1492.5594,1334.5469 Q1492.825,1334.7969 1492.825,1335.1406 Q1492.825,1335.4844 1492.4813,1335.8906 Q1491.9813,1336.4688 1491.1844,1336.7969 Q1490.1063,1337.25 1488.8094,1337.25 Q1487.2938,1337.25 1486.0906,1336.625 Q1485.1063,1336.125 1484.4188,1335.0625 Q1483.7313,1333.9844 1483.7313,1332.7031 L1483.7313,1331.5469 Q1483.7313,1330.2188 1484.3406,1329.0781 Q1484.9656,1327.9219 1486.0594,1327.3125 Q1487.1531,1326.6875 1488.3875,1326.6875 Q1489.1219,1326.6875 1489.7625,1326.8594 Q1490.4188,1327.0156 1490.9656,1327.375 Z " fill="#000000"/><text fill="#000000" font-family="sans-serif" font-size="14" lengthAdjust="spacing" textLength="140" x="1505.8" y="1337.2969">JPACellLogRepository</text><line style="stroke:#181818;stroke-width:0.5;" x1="1458" x2="1664" y1="1347.5" y2="1347.5"/><line style="stroke:#181818;stroke-width:0.5;" x1="1458" x2="1664" y1="1355.5" y2="1355.5"/><ellipse cx="1468" cy="1370.3105" fill="#84BE84" rx="3" ry="3" style="stroke:#038048;stroke-width:1.0;"/><text fill="#000000" font-family="sans-serif" font-size="14" lengthAdjust="spacing" textLength="182" x="1477" y="1374.6074">findCellLogContainsCell(cell)</text><ellipse cx="1468" cy="1388.9316" fill="#84BE84" rx="3" ry="3" style="stroke:#038048;stroke-width:1.0;"/><text fill="#000000" font-family="sans-serif" font-size="14" lengthAdjust="spacing" textLength="85" x="1477" y="1393.2285">save(cellLog)</text></g><!--class JPAPostItLogRepository--><g id="elem_JPAPostItLogRepository"><rect codeLine="110" fill="#F1F1F1" height="66.6211" id="JPAPostItLogRepository" rx="2.5" ry="2.5" style="stroke:#181818;stroke-width:0.5;" width="183" x="1700.5" y="1324.5"/><ellipse cx="1715.5" cy="1340.5" fill="#ADD1B2" rx="11" ry="11" style="stroke:#181818;stroke-width:1.0;"/><path d="M1718.2656,1336.375 Q1718.4219,1336.1563 1718.6094,1336.0469 Q1718.7969,1335.9375 1719.0156,1335.9375 Q1719.3906,1335.9375 1719.625,1336.2031 Q1719.8594,1336.4531 1719.8594,1337.0625 L1719.8594,1338.5156 Q1719.8594,1339.125 1719.625,1339.3906 Q1719.3906,1339.6563 1719.0156,1339.6563 Q1718.6719,1339.6563 1718.4688,1339.4531 Q1718.2656,1339.2656 1718.1563,1338.75 Q1718.1094,1338.3906 1717.9219,1338.2031 Q1717.5938,1337.8281 1716.9844,1337.6094 Q1716.375,1337.3906 1715.75,1337.3906 Q1714.9844,1337.3906 1714.3438,1337.7188 Q1713.7188,1338.0469 1713.2188,1338.7969 Q1712.7344,1339.5469 1712.7344,1340.5781 L1712.7344,1341.6719 Q1712.7344,1342.9063 1713.625,1343.7344 Q1714.5156,1344.5469 1716.1094,1344.5469 Q1717.0469,1344.5469 1717.7031,1344.2969 Q1718.0938,1344.1406 1718.5156,1343.7031 Q1718.7813,1343.4375 1718.9219,1343.3594 Q1719.0781,1343.2813 1719.2813,1343.2813 Q1719.6094,1343.2813 1719.8594,1343.5469 Q1720.125,1343.7969 1720.125,1344.1406 Q1720.125,1344.4844 1719.7813,1344.8906 Q1719.2813,1345.4688 1718.4844,1345.7969 Q1717.4063,1346.25 1716.1094,1346.25 Q1714.5938,1346.25 1713.3906,1345.625 Q1712.4063,1345.125 1711.7188,1344.0625 Q1711.0313,1342.9844 1711.0313,1341.7031 L1711.0313,1340.5469 Q1711.0313,1339.2188 1711.6406,1338.0781 Q1712.2656,1336.9219 1713.3594,1336.3125 Q1714.4531,1335.6875 1715.6875,1335.6875 Q1716.4219,1335.6875 1717.0625,1335.8594 Q1717.7188,1336.0156 1718.2656,1336.375 Z " fill="#000000"/><text fill="#000000" font-family="sans-serif" font-size="14" lengthAdjust="spacing" textLength="151" x="1729.5" y="1346.2969">JPAPostItLogRepository</text><line style="stroke:#181818;stroke-width:0.5;" x1="1701.5" x2="1882.5" y1="1356.5" y2="1356.5"/><line style="stroke:#181818;stroke-width:0.5;" x1="1701.5" x2="1882.5" y1="1364.5" y2="1364.5"/><ellipse cx="1711.5" cy="1379.3105" fill="#84BE84" rx="3" ry="3" style="stroke:#038048;stroke-width:1.0;"/><text fill="#000000" font-family="sans-serif" font-size="14" lengthAdjust="spacing" textLength="98" x="1720.5" y="1383.6074">save(postItLog)</text></g><!--link Client to CreatePostItUI--><g id="link_Client_CreatePostItUI"><path codeLine="115" d="M729,74.28 C729,108.61 729,161.95 729,194.41 " fill="none" id="Client-to-CreatePostItUI" style="stroke:#181818;stroke-width:1.0;stroke-dasharray:7.0,7.0;"/><polygon fill="#181818" points="729,199.44,733,190.44,729,194.44,725,190.44,729,199.44" style="stroke:#181818;stroke-width:1.0;"/><text fill="#000000" font-family="sans-serif" font-size="13" lengthAdjust="spacing" textLength="30" x="730" y="119.0283">Uses</text></g><!--link CreatePostItUI to CreatePostItController--><g id="link_CreatePostItUI_CreatePostItController"><path codeLine="118" d="M726.55,247.78 C723.48,276.89 718.13,327.74 713.96,367.35 " fill="none" id="CreatePostItUI-to-CreatePostItController" style="stroke:#181818;stroke-width:1.0;"/><polygon fill="#181818" points="713.41,372.62,718.3391,364.0933,713.9386,367.648,710.384,363.2475,713.41,372.62" style="stroke:#181818;stroke-width:1.0;"/><text fill="#000000" font-family="sans-serif" font-size="13" lengthAdjust="spacing" textLength="30" x="720" y="339.0283">Uses</text></g><!--link CreatePostItController to PostItManagementService--><g id="link_CreatePostItController_PostItManagementService"><path codeLine="119" d="M708,477.12 C708,499.43 708,526.04 708,550.52 " fill="none" id="CreatePostItController-to-PostItManagementService" style="stroke:#181818;stroke-width:1.0;"/><polygon fill="#181818" points="708,555.71,712,546.71,708,550.71,704,546.71,708,555.71" style="stroke:#181818;stroke-width:1.0;"/><text fill="#000000" font-family="sans-serif" font-size="13" lengthAdjust="spacing" textLength="30" x="709" y="522.0283">Uses</text></g><!--link ClientHandler to RcompService--><g id="link_ClientHandler_RcompService"><path codeLine="121" d="M1027,294.28 C1027,321.76 1027,352.59 1027,377.3 " fill="none" id="ClientHandler-to-RcompService" style="stroke:#181818;stroke-width:1.0;"/><polygon fill="#181818" points="1027,382.47,1031,373.47,1027,377.47,1023,373.47,1027,382.47" style="stroke:#181818;stroke-width:1.0;"/><text fill="#000000" font-family="sans-serif" font-size="13" lengthAdjust="spacing" textLength="157" x="1028" y="339.0283">Sends/Receives Messages</text></g><!--link CreatePostItUI to RcompService--><g id="link_CreatePostItUI_RcompService"><path codeLine="122" d="M750.54,247.58 C775.24,273.16 817.8,314.53 860,343 C880.08,356.54 902.76,369.12 924.78,380.12 " fill="none" id="CreatePostItUI-to-RcompService" style="stroke:#181818;stroke-width:1.0;"/><polygon fill="#181818" points="929.47,382.44,923.1799,374.8615,924.9893,380.2211,919.6297,382.0306,929.47,382.44" style="stroke:#181818;stroke-width:1.0;"/><text fill="#000000" font-family="sans-serif" font-size="13" lengthAdjust="spacing" textLength="157" x="861" y="339.0283">Sends/Receives Messages</text></g><!--link Server to ClientHandler--><g id="link_Server_ClientHandler"><path codeLine="123" d="M1027,64.79 C1027,85.82 1027,117.94 1027,147.72 " fill="none" id="Server-to-ClientHandler" style="stroke:#181818;stroke-width:1.0;"/><polygon fill="#181818" points="1027,152.87,1031,143.87,1027,147.87,1023,143.87,1027,152.87" style="stroke:#181818;stroke-width:1.0;"/><text fill="#000000" font-family="sans-serif" font-size="13" lengthAdjust="spacing" textLength="30" x="1028" y="119.0283">Uses</text></g><!--link RcompService to FormatMessage--><g id="link_RcompService_FormatMessage"><path codeLine="124" d="M1027,467.82 C1027,506.65 1027,563.4 1027,597.17 " fill="none" id="RcompService-to-FormatMessage" style="stroke:#181818;stroke-width:1.0;"/><polygon fill="#181818" points="1027,602.39,1031,593.39,1027,597.39,1023,593.39,1027,602.39" style="stroke:#181818;stroke-width:1.0;"/><text fill="#000000" font-family="sans-serif" font-size="13" lengthAdjust="spacing" textLength="30" x="1028" y="522.0283">Uses</text></g><!--link PostItManagementService to PostIt--><g id="link_PostItManagementService_PostIt"><path codeLine="126" d="M637.48,697.01 C610.7,723.41 581.75,751.94 561.3,772.09 " fill="none" id="PostItManagementService-to-PostIt" style="stroke:#181818;stroke-width:1.0;"/><polygon fill="#181818" points="557.59,775.75,566.8036,772.2702,561.1469,772.236,561.1812,766.5792,557.59,775.75" style="stroke:#181818;stroke-width:1.0;"/><text fill="#000000" font-family="sans-serif" font-size="13" lengthAdjust="spacing" textLength="30" x="607" y="742.0283">Uses</text></g><!--link PostItManagementService to PostItLog--><g id="link_PostItManagementService_PostItLog"><path codeLine="127" d="M683.6,697.26 C674.56,723.07 664.83,750.9 657.83,770.91 " fill="none" id="PostItManagementService-to-PostItLog" style="stroke:#181818;stroke-width:1.0;"/><polygon fill="#181818" points="656.11,775.83,662.8489,768.6476,657.7554,771.1085,655.2945,766.015,656.11,775.83" style="stroke:#181818;stroke-width:1.0;"/><text fill="#000000" font-family="sans-serif" font-size="13" lengthAdjust="spacing" textLength="30" x="674" y="742.0283">Uses</text></g><!--link PostItManagementService to CellLog--><g id="link_PostItManagementService_CellLog"><path codeLine="128" d="M732.81,697.26 C741.99,723.07 751.89,750.9 759.01,770.91 " fill="none" id="PostItManagementService-to-CellLog" style="stroke:#181818;stroke-width:1.0;"/><polygon fill="#181818" points="760.76,775.83,761.5226,766.0107,759.0892,771.1174,753.9825,768.684,760.76,775.83" style="stroke:#181818;stroke-width:1.0;"/><text fill="#000000" font-family="sans-serif" font-size="13" lengthAdjust="spacing" textLength="30" x="751" y="742.0283">Uses</text></g><!--link PostItManagementService to PersistenceContext--><g id="link_PostItManagementService_PersistenceContext"><path codeLine="132" d="M794.33,697.01 C827.5,723.71 863.37,752.6 888.45,772.79 " fill="none" id="PostItManagementService-to-PersistenceContext" style="stroke:#181818;stroke-width:1.0;"/><polygon fill="#181818" points="892.38,775.95,887.8784,767.1901,888.4855,772.8143,882.8613,773.4214,892.38,775.95" style="stroke:#181818;stroke-width:1.0;"/><text fill="#000000" font-family="sans-serif" font-size="13" lengthAdjust="spacing" textLength="30" x="854" y="742.0283">Uses</text></g><!--link PersistenceContext to RepositoryFactory--><g id="link_PersistenceContext_RepositoryFactory"><path codeLine="133" d="M921,824.2 C921,838.97 921,859.17 921,879.93 " fill="none" id="PersistenceContext-to-RepositoryFactory" style="stroke:#181818;stroke-width:1.0;"/><polygon fill="#181818" points="921,884.93,925,875.93,921,879.93,917,875.93,921,884.93" style="stroke:#181818;stroke-width:1.0;"/></g><!--link RepositoryFactory to SharedBoardLog--><g id="link_RepositoryFactory_SharedBoardLog"><path codeLine="135" d="M815.97,990.58 C668.08,1014.22 391.26,1064.74 165,1142 C151.9,1146.47 138.17,1152.33 125.56,1158.24 " fill="none" id="RepositoryFactory-to-SharedBoardLog" style="stroke:#181818;stroke-width:1.0;"/><polygon fill="#181818" points="120.97,1160.41,130.8164,1160.1896,125.4925,1158.2776,127.4045,1152.9536,120.97,1160.41" style="stroke:#181818;stroke-width:1.0;"/><text fill="#000000" font-family="sans-serif" font-size="13" lengthAdjust="spacing" textLength="30" x="308" y="1108.0283">Uses</text></g><!--link RepositoryFactory to SharedBoardRepository--><g id="link_RepositoryFactory_SharedBoardRepository"><path codeLine="136" d="M815.79,1015.32 C722.39,1051.12 586.26,1103.3 490.45,1140.02 " fill="none" id="RepositoryFactory-to-SharedBoardRepository" style="stroke:#181818;stroke-width:1.0;"/><polygon fill="#181818" points="485.63,1141.87,495.465,1142.3927,490.3004,1140.0847,492.6085,1134.9201,485.63,1141.87" style="stroke:#181818;stroke-width:1.0;"/><text fill="#000000" font-family="sans-serif" font-size="13" lengthAdjust="spacing" textLength="30" x="602" y="1108.0283">Uses</text></g><!--link RepositoryFactory to CellRepository--><g id="link_RepositoryFactory_CellRepository"><path codeLine="137" d="M832.67,1063.12 C806.76,1088.97 779.49,1116.17 757.45,1138.16 " fill="none" id="RepositoryFactory-to-CellRepository" style="stroke:#181818;stroke-width:1.0;"/><polygon fill="#181818" points="753.68,1141.92,762.8795,1138.403,757.2227,1138.3916,757.2341,1132.7348,753.68,1141.92" style="stroke:#181818;stroke-width:1.0;"/><text fill="#000000" font-family="sans-serif" font-size="13" lengthAdjust="spacing" textLength="30" x="799" y="1108.0283">Uses</text></g><!--link RepositoryFactory to PostItRepository--><g id="link_RepositoryFactory_PostItRepository"><path codeLine="138" d="M921,1063.12 C921,1092.05 921,1122.68 921,1145.8 " fill="none" id="RepositoryFactory-to-PostItRepository" style="stroke:#181818;stroke-width:1.0;"/><polygon fill="#181818" points="921,1150.92,925,1141.92,921,1145.92,917,1141.92,921,1150.92" style="stroke:#181818;stroke-width:1.0;"/><text fill="#000000" font-family="sans-serif" font-size="13" lengthAdjust="spacing" textLength="30" x="922" y="1108.0283">Uses</text></g><!--link RepositoryFactory to SharedBoardLogRepository--><g id="link_RepositoryFactory_SharedBoardLogRepository"><path codeLine="139" d="M1026.28,1047.92 C1075.18,1081.8 1131.11,1120.54 1170.63,1147.92 " fill="none" id="RepositoryFactory-to-SharedBoardLogRepository" style="stroke:#181818;stroke-width:1.0;"/><polygon fill="#181818" points="1174.88,1150.86,1169.783,1142.4326,1170.7778,1148.0013,1165.2091,1148.9961,1174.88,1150.86" style="stroke:#181818;stroke-width:1.0;"/><text fill="#000000" font-family="sans-serif" font-size="13" lengthAdjust="spacing" textLength="30" x="1117" y="1108.0283">Uses</text></g><!--link RepositoryFactory to CellLogRepository--><g id="link_RepositoryFactory_CellLogRepository"><path codeLine="140" d="M1026.19,1009.04 C1129.92,1042.67 1292.97,1095.63 1434,1142 C1439.24,1143.72 1444.6,1145.49 1450.01,1147.27 " fill="none" id="RepositoryFactory-to-CellLogRepository" style="stroke:#181818;stroke-width:1.0;"/><polygon fill="#181818" points="1455,1148.92,1447.7148,1142.2924,1450.2537,1147.3474,1445.1987,1149.8864,1455,1148.92" style="stroke:#181818;stroke-width:1.0;"/><text fill="#000000" font-family="sans-serif" font-size="13" lengthAdjust="spacing" textLength="30" x="1336" y="1108.0283">Uses</text></g><!--link RepositoryFactory to PostItLogRepository--><g id="link_RepositoryFactory_PostItLogRepository"><path codeLine="141" d="M1026.27,992.51 C1174.28,1018.39 1451.46,1071.5 1681,1142 C1688.02,1144.16 1695.23,1146.58 1702.43,1149.15 " fill="none" id="RepositoryFactory-to-PostItLogRepository" style="stroke:#181818;stroke-width:1.0;"/><polygon fill="#181818" points="1707.41,1150.94,1700.3072,1144.1173,1702.7081,1149.2393,1697.5861,1151.6403,1707.41,1150.94" style="stroke:#181818;stroke-width:1.0;"/><text fill="#000000" font-family="sans-serif" font-size="13" lengthAdjust="spacing" textLength="30" x="1559" y="1108.0283">Uses</text></g><!--link SharedBoardRepository to JPASharedBoardRepository--><g id="link_SharedBoardRepository_JPASharedBoardRepository"><path codeLine="143" d="M373.61,1227.02 C371.56,1252.11 368.95,1284.16 366.82,1310.16 " fill="none" id="SharedBoardRepository-to-JPASharedBoardRepository" style="stroke:#181818;stroke-width:1.0;"/><polygon fill="#181818" points="366.41,1315.27,371.1169,1306.6187,366.8099,1310.286,363.1426,1305.9789,366.41,1315.27" style="stroke:#181818;stroke-width:1.0;"/><text fill="#000000" font-family="sans-serif" font-size="13" lengthAdjust="spacing" textLength="45" x="372" y="1272.0283">Creates</text></g><!--link CellRepository to JPACellRepository--><g id="link_CellRepository_JPACellRepository"><path codeLine="144" d="M708.61,1227.02 C706.81,1249.13 704.56,1276.66 702.6,1300.68 " fill="none" id="CellRepository-to-JPACellRepository" style="stroke:#181818;stroke-width:1.0;"/><polygon fill="#181818" points="702.18,1305.75,706.8889,1297.0998,702.581,1300.7661,698.9147,1296.4582,702.18,1305.75" style="stroke:#181818;stroke-width:1.0;"/><text fill="#000000" font-family="sans-serif" font-size="13" lengthAdjust="spacing" textLength="45" x="707" y="1272.0283">Creates</text></g><!--link PostItRepository to JPAPostItRepository--><g id="link_PostItRepository_JPAPostItRepository"><path codeLine="145" d="M920.43,1218.16 C919.92,1247.01 919.19,1289.07 918.66,1319.33 " fill="none" id="PostItRepository-to-JPAPostItRepository" style="stroke:#181818;stroke-width:1.0;"/><polygon fill="#181818" points="918.57,1324.46,922.7237,1315.5299,918.6557,1319.4607,914.7249,1315.3928,918.57,1324.46" style="stroke:#181818;stroke-width:1.0;"/><text fill="#000000" font-family="sans-serif" font-size="13" lengthAdjust="spacing" textLength="45" x="921" y="1272.0283">Creates</text></g><!--link SharedBoardLogRepository to JPASharedBoardLogRepository--><g id="link_SharedBoardLogRepository_JPASharedBoardLogRepository"><path codeLine="146" d="M1222.95,1218.16 C1223.79,1247.01 1225.02,1289.07 1225.9,1319.33 " fill="none" id="SharedBoardLogRepository-to-JPASharedBoardLogRepository" style="stroke:#181818;stroke-width:1.0;"/><polygon fill="#181818" points="1226.05,1324.46,1229.7906,1315.3491,1225.9068,1319.4621,1221.7939,1315.5783,1226.05,1324.46" style="stroke:#181818;stroke-width:1.0;"/><text fill="#000000" font-family="sans-serif" font-size="13" lengthAdjust="spacing" textLength="45" x="1225" y="1272.0283">Creates</text></g><!--link CellLogRepository to JPACellLogRepository--><g id="link_CellLogRepository_JPACellLogRepository"><path codeLine="147" d="M1559.48,1227.02 C1559.78,1252.11 1560.15,1284.16 1560.45,1310.16 " fill="none" id="CellLogRepository-to-JPACellLogRepository" style="stroke:#181818;stroke-width:1.0;"/><polygon fill="#181818" points="1560.51,1315.27,1564.4066,1306.2247,1560.4527,1310.2703,1556.4071,1306.3164,1560.51,1315.27" style="stroke:#181818;stroke-width:1.0;"/><text fill="#000000" font-family="sans-serif" font-size="13" lengthAdjust="spacing" textLength="45" x="1561" y="1272.0283">Creates</text></g><!--link PostItLogRepository to JPAPostItLogRepository--><g id="link_PostItLogRepository_JPAPostItLogRepository"><path codeLine="148" d="M1786.33,1218.16 C1787.51,1247.01 1789.23,1289.07 1790.46,1319.33 " fill="none" id="PostItLogRepository-to-JPAPostItLogRepository" style="stroke:#181818;stroke-width:1.0;"/><polygon fill="#181818" points="1790.67,1324.46,1794.281,1315.297,1790.4559,1319.4646,1786.2883,1315.6395,1790.67,1324.46" style="stroke:#181818;stroke-width:1.0;"/><text fill="#000000" font-family="sans-serif" font-size="13" lengthAdjust="spacing" textLength="45" x="1789" y="1272.0283">Creates</text></g><!--SRC=[pLPHRzCm47xFhyXZAxhnteT9ep0nnAIgPUBPsDTYaTYHporCQFyTfx4TEx5fDeRWgOjztzttVNV9ZLO4iLnL78GkVnPb-Oeg81hM4lMjdg6atq0lIYwQWzvgSrKlIddGmTENmsu72jW620CrBnwBWWP9tnF1Ab2Zt9zcDI2IFSpRYnqNxBFY6gvPpSKQLCqHkHHl954CPpvc-vMOKgTJKv-B_IZBkxhH3okeAfnX7pmVAQCcP55ghYjOb0oGAjveKp4Gi0Lr1ENb1EZxszJfIWgjPENL_drHdcf7u8u8WwgDworrJY5qVVR_6hsXicuYoWY2tNK5_GnQ0l7ydUgPFzXReabgN8CoDrBLHDkqiNFnqqUvz_qrx8F7m9RWrDY873K82kqCm0-JZvjVjID6q0OQYLnBzN13QFlJITo37jrq_WTszX7TLMlcyAmvSHwUOiGqbITnt3ZvqSLZg6QR8lViUJUbMiS85nYSZeQyBx-A3EZh_cOQaHpXD8M3LEk1RtRoskZEXxpooA6Un9yAowIrLovV-sZrXEfCH59W8ccWqQ6wGVwmllud_VNLdz5Uvz2CfzhjCq_hTig65sjsfF95UZrGDwtLXTtsbqn-5vTNWyLMBijx16p3ulEBDlpYAhVnB2npwy2vFUMAnlypE5Iq7vPcBmk6hpT0WHy1I_j1nnpXYUXks_So8oQMNvJAHKPhnIl9AOsTSE7Jeaq7fmBi7FNTF5zYjCHyhV6DztQumOfYlEvSSFp6U4-dn0TZVHOs-8QSZHzz6Pv2B7xb9d5x8YJrQhkkfXrooEpNV6bVOlFAn5u5o96B3ZAoAm0bh7Imh6TfjaEz8U4iFkLkJ3iBJRlimBy0]--></g></svg>