<?xml version="1.0" encoding="us-ascii" standalone="no"?><svg xmlns="http://www.w3.org/2000/svg" xmlns:xlink="http://www.w3.org/1999/xlink" contentStyleType="text/css" height="825px" preserveAspectRatio="none" style="width:732px;height:825px;background:#FFFFFF;" version="1.1" viewBox="0 0 732 825" width="732px" zoomAndPan="magnify"><defs/><g><!--class CloseEnrollmentsAction--><g id="elem_CloseEnrollmentsAction"><rect codeLine="2" fill="#F1F1F1" height="64.4883" id="CloseEnrollmentsAction" rx="2.5" ry="2.5" style="stroke:#181818;stroke-width:0.5;" width="196" x="217.5" y="7"/><ellipse cx="232.5" cy="23" fill="#ADD1B2" rx="11" ry="11" style="stroke:#181818;stroke-width:1.0;"/><path d="M235.4731,28.6431 Q234.8921,28.9419 234.2529,29.0913 Q233.6138,29.2407 232.9082,29.2407 Q230.4014,29.2407 229.0815,27.5889 Q227.7617,25.937 227.7617,22.8159 Q227.7617,19.6865 229.0815,18.0347 Q230.4014,16.3828 232.9082,16.3828 Q233.6138,16.3828 234.2612,16.5322 Q234.9087,16.6816 235.4731,16.9805 L235.4731,19.7031 Q234.8423,19.1221 234.2488,18.8523 Q233.6553,18.5825 233.0244,18.5825 Q231.6797,18.5825 230.9949,19.6492 Q230.3101,20.7158 230.3101,22.8159 Q230.3101,24.9077 230.9949,25.9744 Q231.6797,27.041 233.0244,27.041 Q233.6553,27.041 234.2488,26.7712 Q234.8423,26.5015 235.4731,25.9204 Z " fill="#000000"/><text fill="#000000" font-family="sans-serif" font-size="14" lengthAdjust="spacing" textLength="164" x="246.5" y="28.291">CloseEnrollmentsAction</text><line style="stroke:#181818;stroke-width:0.5;" x1="218.5" x2="412.5" y1="39" y2="39"/><line style="stroke:#181818;stroke-width:0.5;" x1="218.5" x2="412.5" y1="47" y2="47"/><ellipse cx="228.5" cy="60.7441" fill="#84BE84" rx="3" ry="3" style="stroke:#038048;stroke-width:1.0;"/><text fill="#000000" font-family="sans-serif" font-size="14" lengthAdjust="spacing" textLength="46" x="237.5" y="64.5352">show()</text></g><!--class ListStudenExamsUI--><g id="elem_ListStudenExamsUI"><rect codeLine="5" fill="#F1F1F1" height="64.4883" id="ListStudenExamsUI" rx="2.5" ry="2.5" style="stroke:#181818;stroke-width:0.5;" width="162" x="234.5" y="131.49"/><ellipse cx="249.5" cy="147.49" fill="#ADD1B2" rx="11" ry="11" style="stroke:#181818;stroke-width:1.0;"/><path d="M252.4731,153.1331 Q251.8921,153.4319 251.2529,153.5813 Q250.6138,153.7307 249.9082,153.7307 Q247.4014,153.7307 246.0815,152.0789 Q244.7617,150.427 244.7617,147.3059 Q244.7617,144.1765 246.0815,142.5247 Q247.4014,140.8728 249.9082,140.8728 Q250.6138,140.8728 251.2612,141.0222 Q251.9087,141.1716 252.4731,141.4705 L252.4731,144.1931 Q251.8423,143.6121 251.2488,143.3423 Q250.6553,143.0725 250.0244,143.0725 Q248.6797,143.0725 247.9949,144.1392 Q247.3101,145.2058 247.3101,147.3059 Q247.3101,149.3977 247.9949,150.4644 Q248.6797,151.531 250.0244,151.531 Q250.6553,151.531 251.2488,151.2612 Q251.8423,150.9915 252.4731,150.4104 Z " fill="#000000"/><text fill="#000000" font-family="sans-serif" font-size="14" lengthAdjust="spacing" textLength="130" x="263.5" y="152.781">ListStudenExamsUI</text><line style="stroke:#181818;stroke-width:0.5;" x1="235.5" x2="395.5" y1="163.49" y2="163.49"/><line style="stroke:#181818;stroke-width:0.5;" x1="235.5" x2="395.5" y1="171.49" y2="171.49"/><ellipse cx="245.5" cy="185.2341" fill="#84BE84" rx="3" ry="3" style="stroke:#038048;stroke-width:1.0;"/><text fill="#000000" font-family="sans-serif" font-size="14" lengthAdjust="spacing" textLength="65" x="254.5" y="189.0252">doShow()</text></g><!--class ListStudentExamsController--><g id="elem_ListStudentExamsController"><rect codeLine="9" fill="#F1F1F1" height="64.4883" id="ListStudentExamsController" rx="2.5" ry="2.5" style="stroke:#181818;stroke-width:0.5;" width="223" x="204" y="255.98"/><ellipse cx="219" cy="271.98" fill="#ADD1B2" rx="11" ry="11" style="stroke:#181818;stroke-width:1.0;"/><path d="M221.9731,277.6231 Q221.3921,277.9219 220.7529,278.0713 Q220.1138,278.2207 219.4082,278.2207 Q216.9014,278.2207 215.5815,276.5689 Q214.2617,274.917 214.2617,271.7959 Q214.2617,268.6665 215.5815,267.0147 Q216.9014,265.3628 219.4082,265.3628 Q220.1138,265.3628 220.7612,265.5122 Q221.4087,265.6616 221.9731,265.9605 L221.9731,268.6831 Q221.3423,268.1021 220.7488,267.8323 Q220.1553,267.5625 219.5244,267.5625 Q218.1797,267.5625 217.4949,268.6292 Q216.8101,269.6958 216.8101,271.7959 Q216.8101,273.8877 217.4949,274.9544 Q218.1797,276.021 219.5244,276.021 Q220.1553,276.021 220.7488,275.7512 Q221.3423,275.4815 221.9731,274.9004 Z " fill="#000000"/><text fill="#000000" font-family="sans-serif" font-size="14" lengthAdjust="spacing" textLength="191" x="233" y="277.271">ListStudentExamsController</text><line style="stroke:#181818;stroke-width:0.5;" x1="205" x2="426" y1="287.98" y2="287.98"/><line style="stroke:#181818;stroke-width:0.5;" x1="205" x2="426" y1="295.98" y2="295.98"/><ellipse cx="215" cy="309.7241" fill="#84BE84" rx="3" ry="3" style="stroke:#038048;stroke-width:1.0;"/><text fill="#000000" font-family="sans-serif" font-size="14" lengthAdjust="spacing" textLength="94" x="224" y="313.5152">listMyExams()</text></g><!--class Student--><g id="elem_Student"><rect codeLine="13" fill="#F1F1F1" height="64.4883" id="Student" rx="2.5" ry="2.5" style="stroke:#181818;stroke-width:0.5;" width="145" x="7" y="380.47"/><ellipse cx="49" cy="396.47" fill="#ADD1B2" rx="11" ry="11" style="stroke:#181818;stroke-width:1.0;"/><path d="M51.9731,402.1131 Q51.3921,402.4119 50.7529,402.5613 Q50.1138,402.7107 49.4082,402.7107 Q46.9014,402.7107 45.5815,401.0589 Q44.2617,399.407 44.2617,396.2859 Q44.2617,393.1565 45.5815,391.5047 Q46.9014,389.8528 49.4082,389.8528 Q50.1138,389.8528 50.7612,390.0022 Q51.4087,390.1516 51.9731,390.4505 L51.9731,393.1731 Q51.3423,392.5921 50.7488,392.3223 Q50.1553,392.0525 49.5244,392.0525 Q48.1797,392.0525 47.4949,393.1192 Q46.8101,394.1858 46.8101,396.2859 Q46.8101,398.3777 47.4949,399.4444 Q48.1797,400.511 49.5244,400.511 Q50.1553,400.511 50.7488,400.2412 Q51.3423,399.9715 51.9731,399.3904 Z " fill="#000000"/><text fill="#000000" font-family="sans-serif" font-size="14" lengthAdjust="spacing" textLength="53" x="69" y="401.761">Student</text><line style="stroke:#181818;stroke-width:0.5;" x1="8" x2="151" y1="412.47" y2="412.47"/><line style="stroke:#181818;stroke-width:0.5;" x1="8" x2="151" y1="420.47" y2="420.47"/><ellipse cx="18" cy="434.2141" fill="#84BE84" rx="3" ry="3" style="stroke:#038048;stroke-width:1.0;"/><text fill="#000000" font-family="sans-serif" font-size="14" lengthAdjust="spacing" textLength="119" x="27" y="438.0052">findEnrollments()</text></g><!--class Enrollment--><g id="elem_Enrollment"><rect codeLine="17" fill="#F1F1F1" height="64.4883" id="Enrollment" rx="2.5" ry="2.5" style="stroke:#181818;stroke-width:0.5;" width="107" x="187" y="380.47"/><ellipse cx="202" cy="396.47" fill="#ADD1B2" rx="11" ry="11" style="stroke:#181818;stroke-width:1.0;"/><path d="M204.9731,402.1131 Q204.3921,402.4119 203.7529,402.5613 Q203.1138,402.7107 202.4082,402.7107 Q199.9014,402.7107 198.5815,401.0589 Q197.2617,399.407 197.2617,396.2859 Q197.2617,393.1565 198.5815,391.5047 Q199.9014,389.8528 202.4082,389.8528 Q203.1138,389.8528 203.7612,390.0022 Q204.4087,390.1516 204.9731,390.4505 L204.9731,393.1731 Q204.3423,392.5921 203.7488,392.3223 Q203.1553,392.0525 202.5244,392.0525 Q201.1797,392.0525 200.4949,393.1192 Q199.8101,394.1858 199.8101,396.2859 Q199.8101,398.3777 200.4949,399.4444 Q201.1797,400.511 202.5244,400.511 Q203.1553,400.511 203.7488,400.2412 Q204.3423,399.9715 204.9731,399.3904 Z " fill="#000000"/><text fill="#000000" font-family="sans-serif" font-size="14" lengthAdjust="spacing" textLength="75" x="216" y="401.761">Enrollment</text><line style="stroke:#181818;stroke-width:0.5;" x1="188" x2="293" y1="412.47" y2="412.47"/><line style="stroke:#181818;stroke-width:0.5;" x1="188" x2="293" y1="420.47" y2="420.47"/><ellipse cx="198" cy="434.2141" fill="#84BE84" rx="3" ry="3" style="stroke:#038048;stroke-width:1.0;"/><text fill="#000000" font-family="sans-serif" font-size="14" lengthAdjust="spacing" textLength="81" x="207" y="438.0052">getCourse()</text></g><!--class Course--><g id="elem_Course"><rect codeLine="21" fill="#F1F1F1" height="64.4883" id="Course" rx="2.5" ry="2.5" style="stroke:#181818;stroke-width:0.5;" width="124" x="328.5" y="380.47"/><ellipse cx="362.85" cy="396.47" fill="#ADD1B2" rx="11" ry="11" style="stroke:#181818;stroke-width:1.0;"/><path d="M365.8231,402.1131 Q365.2421,402.4119 364.6029,402.5613 Q363.9638,402.7107 363.2582,402.7107 Q360.7514,402.7107 359.4315,401.0589 Q358.1117,399.407 358.1117,396.2859 Q358.1117,393.1565 359.4315,391.5047 Q360.7514,389.8528 363.2582,389.8528 Q363.9638,389.8528 364.6112,390.0022 Q365.2587,390.1516 365.8231,390.4505 L365.8231,393.1731 Q365.1923,392.5921 364.5988,392.3223 Q364.0053,392.0525 363.3744,392.0525 Q362.0297,392.0525 361.3449,393.1192 Q360.6601,394.1858 360.6601,396.2859 Q360.6601,398.3777 361.3449,399.4444 Q362.0297,400.511 363.3744,400.511 Q364.0053,400.511 364.5988,400.2412 Q365.1923,399.9715 365.8231,399.3904 Z " fill="#000000"/><text fill="#000000" font-family="sans-serif" font-size="14" lengthAdjust="spacing" textLength="49" x="381.15" y="401.761">Course</text><line style="stroke:#181818;stroke-width:0.5;" x1="329.5" x2="451.5" y1="412.47" y2="412.47"/><line style="stroke:#181818;stroke-width:0.5;" x1="329.5" x2="451.5" y1="420.47" y2="420.47"/><ellipse cx="339.5" cy="434.2141" fill="#84BE84" rx="3" ry="3" style="stroke:#038048;stroke-width:1.0;"/><text fill="#000000" font-family="sans-serif" font-size="14" lengthAdjust="spacing" textLength="98" x="348.5" y="438.0052">findExamList()</text></g><!--class ListExamsManagementService--><g id="elem_ListExamsManagementService"><rect codeLine="25" fill="#F1F1F1" height="64.4883" id="ListExamsManagementService" rx="2.5" ry="2.5" style="stroke:#181818;stroke-width:0.5;" width="237" x="488" y="380.47"/><ellipse cx="503" cy="396.47" fill="#ADD1B2" rx="11" ry="11" style="stroke:#181818;stroke-width:1.0;"/><path d="M505.9731,402.1131 Q505.3921,402.4119 504.7529,402.5613 Q504.1138,402.7107 503.4082,402.7107 Q500.9014,402.7107 499.5815,401.0589 Q498.2617,399.407 498.2617,396.2859 Q498.2617,393.1565 499.5815,391.5047 Q500.9014,389.8528 503.4082,389.8528 Q504.1138,389.8528 504.7612,390.0022 Q505.4087,390.1516 505.9731,390.4505 L505.9731,393.1731 Q505.3423,392.5921 504.7488,392.3223 Q504.1553,392.0525 503.5244,392.0525 Q502.1797,392.0525 501.4949,393.1192 Q500.8101,394.1858 500.8101,396.2859 Q500.8101,398.3777 501.4949,399.4444 Q502.1797,400.511 503.5244,400.511 Q504.1553,400.511 504.7488,400.2412 Q505.3423,399.9715 505.9731,399.3904 Z " fill="#000000"/><text fill="#000000" font-family="sans-serif" font-size="14" lengthAdjust="spacing" textLength="205" x="517" y="401.761">ListExamsManagementService</text><line style="stroke:#181818;stroke-width:0.5;" x1="489" x2="724" y1="412.47" y2="412.47"/><line style="stroke:#181818;stroke-width:0.5;" x1="489" x2="724" y1="420.47" y2="420.47"/><ellipse cx="499" cy="434.2141" fill="#84BE84" rx="3" ry="3" style="stroke:#038048;stroke-width:1.0;"/><text fill="#000000" font-family="sans-serif" font-size="14" lengthAdjust="spacing" textLength="142" x="508" y="438.0052">findStudentByEmail()</text></g><!--class PersistenceContext--><g id="elem_PersistenceContext"><rect codeLine="29" fill="#F1F1F1" height="64.4883" id="PersistenceContext" rx="2.5" ry="2.5" style="stroke:#181818;stroke-width:0.5;" width="164" x="524.5" y="504.96"/><ellipse cx="539.5" cy="520.96" fill="#ADD1B2" rx="11" ry="11" style="stroke:#181818;stroke-width:1.0;"/><path d="M542.4731,526.6031 Q541.8921,526.9019 541.2529,527.0513 Q540.6138,527.2007 539.9082,527.2007 Q537.4014,527.2007 536.0815,525.5489 Q534.7617,523.897 534.7617,520.7759 Q534.7617,517.6465 536.0815,515.9947 Q537.4014,514.3428 539.9082,514.3428 Q540.6138,514.3428 541.2612,514.4922 Q541.9087,514.6416 542.4731,514.9405 L542.4731,517.6631 Q541.8423,517.0821 541.2488,516.8123 Q540.6553,516.5425 540.0244,516.5425 Q538.6797,516.5425 537.9949,517.6092 Q537.3101,518.6758 537.3101,520.7759 Q537.3101,522.8677 537.9949,523.9344 Q538.6797,525.001 540.0244,525.001 Q540.6553,525.001 541.2488,524.7312 Q541.8423,524.4615 542.4731,523.8804 Z " fill="#000000"/><text fill="#000000" font-family="sans-serif" font-size="14" lengthAdjust="spacing" textLength="132" x="553.5" y="526.251">PersistenceContext</text><line style="stroke:#181818;stroke-width:0.5;" x1="525.5" x2="687.5" y1="536.96" y2="536.96"/><line style="stroke:#181818;stroke-width:0.5;" x1="525.5" x2="687.5" y1="544.96" y2="544.96"/><ellipse cx="535.5" cy="558.7041" fill="#84BE84" rx="3" ry="3" style="stroke:#038048;stroke-width:1.0;"/><text fill="#000000" font-family="sans-serif" font-size="14" lengthAdjust="spacing" textLength="92" x="544.5" y="562.4952">repositories()</text></g><!--class RepositoryFactory--><g id="elem_RepositoryFactory"><rect codeLine="33" fill="#F1F1F1" height="64.4883" id="RepositoryFactory" rx="2.5" ry="2.5" style="stroke:#181818;stroke-width:0.5;" width="161" x="526" y="629.44"/><ellipse cx="543.7" cy="645.44" fill="#B4A7E5" rx="11" ry="11" style="stroke:#181818;stroke-width:1.0;"/><path d="M539.6277,641.2051 L539.6277,639.0469 L547.0071,639.0469 L547.0071,641.2051 L544.5418,641.2051 L544.5418,649.2818 L547.0071,649.2818 L547.0071,651.44 L539.6277,651.44 L539.6277,649.2818 L542.0931,649.2818 L542.0931,641.2051 Z " fill="#000000"/><text fill="#000000" font-family="sans-serif" font-size="14" font-style="italic" lengthAdjust="spacing" textLength="123" x="558.3" y="650.731">RepositoryFactory</text><line style="stroke:#181818;stroke-width:0.5;" x1="527" x2="686" y1="661.44" y2="661.44"/><line style="stroke:#181818;stroke-width:0.5;" x1="527" x2="686" y1="669.44" y2="669.44"/><ellipse cx="537" cy="683.1841" fill="#84BE84" rx="3" ry="3" style="stroke:#038048;stroke-width:1.0;"/><text fill="#000000" font-family="sans-serif" font-size="14" lengthAdjust="spacing" textLength="135" x="546" y="686.9752">studentRepository()</text></g><!--class StudentRepository--><g id="elem_StudentRepository"><rect codeLine="37" fill="#F1F1F1" height="64.4883" id="StudentRepository" rx="2.5" ry="2.5" style="stroke:#181818;stroke-width:0.5;" width="168" x="522.5" y="753.93"/><ellipse cx="542" cy="769.93" fill="#B4A7E5" rx="11" ry="11" style="stroke:#181818;stroke-width:1.0;"/><path d="M537.9277,765.6951 L537.9277,763.5369 L545.3071,763.5369 L545.3071,765.6951 L542.8418,765.6951 L542.8418,773.7718 L545.3071,773.7718 L545.3071,775.93 L537.9277,775.93 L537.9277,773.7718 L540.3931,773.7718 L540.3931,765.6951 Z " fill="#000000"/><text fill="#000000" font-family="sans-serif" font-size="14" font-style="italic" lengthAdjust="spacing" textLength="126" x="557" y="775.221">StudentRepository</text><line style="stroke:#181818;stroke-width:0.5;" x1="523.5" x2="689.5" y1="785.93" y2="785.93"/><line style="stroke:#181818;stroke-width:0.5;" x1="523.5" x2="689.5" y1="793.93" y2="793.93"/><ellipse cx="533.5" cy="807.6741" fill="#84BE84" rx="3" ry="3" style="stroke:#038048;stroke-width:1.0;"/><text fill="#000000" font-family="sans-serif" font-size="14" lengthAdjust="spacing" textLength="142" x="542.5" y="811.4652">findStudentByEmail()</text></g><!--link CloseEnrollmentsAction to ListStudenExamsUI--><g id="link_CloseEnrollmentsAction_ListStudenExamsUI"><path codeLine="41" d="M315.5,71.79 C315.5,88.22 315.5,108.41 315.5,125.6 " fill="none" id="CloseEnrollmentsAction-to-ListStudenExamsUI" style="stroke:#181818;stroke-width:1.0;stroke-dasharray:7.0,7.0;"/><polygon fill="#181818" points="315.5,130.3,319.5,121.3,315.5,125.3,311.5,121.3,315.5,130.3" style="stroke:#181818;stroke-width:1.0;"/></g><!--link ListStudenExamsUI to ListStudentExamsController--><g id="link_ListStudenExamsUI_ListStudentExamsController"><path codeLine="42" d="M315.5,196.28 C315.5,212.71 315.5,232.9 315.5,250.08 " fill="none" id="ListStudenExamsUI-to-ListStudentExamsController" style="stroke:#181818;stroke-width:1.0;stroke-dasharray:7.0,7.0;"/><polygon fill="#181818" points="315.5,254.79,319.5,245.79,315.5,249.79,311.5,245.79,315.5,254.79" style="stroke:#181818;stroke-width:1.0;"/></g><!--link ListStudentExamsController to ListExamsManagementService--><g id="link_ListStudentExamsController_ListExamsManagementService"><path codeLine="44" d="M390.82,320.93 C432.24,338.36 483.65,360 525.88,377.78 " fill="none" id="ListStudentExamsController-to-ListExamsManagementService" style="stroke:#181818;stroke-width:1.0;"/><polygon fill="#181818" points="530.25,380.03,523.5075,372.8509,525.6418,378.0897,520.4031,380.224,530.25,380.03" style="stroke:#181818;stroke-width:1.0;"/></g><!--link ListStudentExamsController to Student--><g id="link_ListStudentExamsController_Student"><path codeLine="45" d="M254.42,320.93 C220.96,338.29 179.48,359.82 145.31,377.55 " fill="none" id="ListStudentExamsController-to-Student" style="stroke:#181818;stroke-width:1.0;"/><polygon fill="#181818" points="141.33,380.14,151.1614,379.5546,145.7703,377.8413,147.4836,372.4502,141.33,380.14" style="stroke:#181818;stroke-width:1.0;"/></g><!--link ListStudentExamsController to Enrollment--><g id="link_ListStudentExamsController_Enrollment"><path codeLine="46" d="M296.19,320.77 C285.95,337.48 273.33,358.09 262.69,375.47 " fill="none" id="ListStudentExamsController-to-Enrollment" style="stroke:#181818;stroke-width:1.0;"/><polygon fill="#181818" points="259.75,379.27,267.8547,373.6741,262.3561,375.0029,261.0273,369.5043,259.75,379.27" style="stroke:#181818;stroke-width:1.0;"/></g><!--link ListStudentExamsController to Course--><g id="link_ListStudentExamsController_Course"><path codeLine="47" d="M334.81,320.77 C345.05,337.48 357.67,358.09 368.31,375.47 " fill="none" id="ListStudentExamsController-to-Course" style="stroke:#181818;stroke-width:1.0;"/><polygon fill="#181818" points="371.25,379.27,369.9727,369.5043,368.6439,375.0029,363.1453,373.6741,371.25,379.27" style="stroke:#181818;stroke-width:1.0;"/></g><!--link ListExamsManagementService to PersistenceContext--><g id="link_ListExamsManagementService_PersistenceContext"><path codeLine="49" d="M606.5,445.25 C606.5,461.69 606.5,481.88 606.5,499.06 " fill="none" id="ListExamsManagementService-to-PersistenceContext" style="stroke:#181818;stroke-width:1.0;"/><polygon fill="#181818" points="606.5,503.76,610.5,494.76,606.5,498.76,602.5,494.76,606.5,503.76" style="stroke:#181818;stroke-width:1.0;"/></g><!--link PersistenceContext to RepositoryFactory--><g id="link_PersistenceContext_RepositoryFactory"><path codeLine="50" d="M606.5,569.74 C606.5,586.17 606.5,606.37 606.5,623.55 " fill="none" id="PersistenceContext-to-RepositoryFactory" style="stroke:#181818;stroke-width:1.0;"/><polygon fill="#181818" points="606.5,628.25,610.5,619.25,606.5,623.25,602.5,619.25,606.5,628.25" style="stroke:#181818;stroke-width:1.0;"/></g><!--link RepositoryFactory to StudentRepository--><g id="link_RepositoryFactory_StudentRepository"><path codeLine="51" d="M606.5,694.23 C606.5,710.66 606.5,730.86 606.5,748.04 " fill="none" id="RepositoryFactory-to-StudentRepository" style="stroke:#181818;stroke-width:1.0;"/><polygon fill="#181818" points="606.5,752.74,610.5,743.74,606.5,747.74,602.5,743.74,606.5,752.74" style="stroke:#181818;stroke-width:1.0;"/></g><!--SRC=[ZPBTIiGm48NlynIvLAJx20jQAWWkYCK72Edi6aWpaicwMyHtD-bVOhEkxKqXyvsPCpcHMX3nKYD1PIngtO9nT2-TGlF5kF_kEBtZwUQMVJFPmy-ANEsE3PZgB5fwU-8Js60zeHdhUhX4uy8KiBD8UsJNzTLKEQecQgzCanXCoNWymGTm9HujGOeD9x_w-Pd1uD9mxsKdZ3X0w5g3_LGIU2eTtJrqLIkKJXkyW2NV0uo4i2oStIoqy86a75e5umBA0tOlVFFNgTOz2Xb-iug6KH5OIkibyA_Jot7pJOCdizdc0RCyyfnT1ipObV2B82-sLwvxZNeihq7ZjcleuQqC6_pn6WgFvLcp2_47CekNvO4NSQDOP3y0]--></g></svg>