<?xml version="1.0" encoding="us-ascii" standalone="no"?><svg xmlns="http://www.w3.org/2000/svg" xmlns:xlink="http://www.w3.org/1999/xlink" contentStyleType="text/css" height="506px" preserveAspectRatio="none" style="width:2545px;height:506px;background:#FFFFFF;" version="1.1" viewBox="0 0 2545 506" width="2545px" zoomAndPan="magnify"><defs/><g><text fill="#000000" font-family="sans-serif" font-size="14" font-weight="bold" lengthAdjust="spacing" textLength="163" x="1184" y="23.5352">Domain Driven Design</text><!--cluster <<Aggregate>> Course--><g id="cluster_&lt;&lt;Aggregate&gt;&gt; Course"><rect fill="none" height="214.51" rx="2.5" ry="2.5" style="stroke:#181818;stroke-width:1.0;" width="1237" x="1302" y="285.9983"/><text fill="#000000" font-family="sans-serif" font-size="14" font-weight="bold" lengthAdjust="spacing" textLength="144" x="1848.5" y="301.5334">&#171;Aggregate&#187; Course</text></g><!--cluster <<Aggregate>> Sudent--><g id="cluster_&lt;&lt;Aggregate&gt;&gt; Sudent"><rect fill="none" height="217.51" rx="2.5" ry="2.5" style="stroke:#181818;stroke-width:1.0;" width="603" x="7" y="44.4883"/><text fill="#000000" font-family="sans-serif" font-size="14" font-weight="bold" lengthAdjust="spacing" textLength="143" x="237" y="60.0234">&#171;Aggregate&#187; Sudent</text></g><!--cluster <<Aggregate>> Enrollment--><g id="cluster_&lt;&lt;Aggregate&gt;&gt; Enrollment"><rect fill="none" height="229.51" rx="2.5" ry="2.5" style="stroke:#181818;stroke-width:1.0;" width="644" x="634" y="159.2483"/><text fill="#000000" font-family="sans-serif" font-size="14" font-weight="bold" lengthAdjust="spacing" textLength="173" x="869.5" y="174.7834">&#171;Aggregate&#187; Enrollment</text></g><!--class Course--><g id="elem_Course"><rect codeLine="11" fill="#F1F1F1" height="54.7539" id="Course" rx="2.5" ry="2.5" style="stroke:#181818;stroke-width:0.5;" width="81" x="1794.5" y="320.9983"/><ellipse cx="1809.5" cy="348.3752" fill="#ADD1B2" rx="11" ry="11" style="stroke:#181818;stroke-width:1.0;"/><path d="M1813.6143,354.3752 L1805.8945,354.3752 L1805.8945,341.9822 L1813.6143,341.9822 L1813.6143,344.1404 L1808.3433,344.1404 L1808.3433,346.8132 L1813.1162,346.8132 L1813.1162,348.9714 L1808.3433,348.9714 L1808.3433,352.217 L1813.6143,352.217 Z " fill="#000000"/><text fill="#000000" font-family="sans-serif" font-size="12" font-style="italic" lengthAdjust="spacing" textLength="38" x="1829" y="337.5998">&#171;Root&#187;</text><text fill="#000000" font-family="sans-serif" font-size="12" font-style="italic" lengthAdjust="spacing" textLength="43" x="1826.5" y="351.7327">&#171;Entity&#187;</text><text fill="#000000" font-family="sans-serif" font-size="14" lengthAdjust="spacing" textLength="49" x="1823.5" y="367.7991">Course</text></g><g id="elem_Id"><rect fill="#F1F1F1" height="48.7539" style="stroke:#181818;stroke-width:0.5;" width="96" x="1318" y="435.7583"/><text fill="#000000" font-family="sans-serif" font-size="12" font-style="italic" lengthAdjust="spacing" textLength="86" x="1323" y="447.3598">&#171;Value Object&#187;</text><text fill="#000000" font-family="sans-serif" font-size="12" font-style="italic" lengthAdjust="spacing" textLength="54" x="1339" y="461.4927">&#171;Identify&#187;</text><text fill="#000000" font-family="sans-serif" font-size="14" lengthAdjust="spacing" textLength="13" x="1359.5" y="479.5591">Id</text></g><g id="elem_CourseState"><rect fill="#F1F1F1" height="34.6211" style="stroke:#181818;stroke-width:0.5;" width="97" x="1448.5" y="442.8183"/><text fill="#000000" font-family="sans-serif" font-size="12" font-style="italic" lengthAdjust="spacing" textLength="86" x="1454" y="454.4198">&#171;Value Object&#187;</text><text fill="#000000" font-family="sans-serif" font-size="14" lengthAdjust="spacing" textLength="83" x="1455.5" y="472.4863">CourseState</text></g><g id="elem_CourseEnrollmentState"><rect fill="#F1F1F1" height="34.6211" style="stroke:#181818;stroke-width:0.5;" width="172" x="1580" y="442.8183"/><text fill="#000000" font-family="sans-serif" font-size="12" font-style="italic" lengthAdjust="spacing" textLength="86" x="1623" y="454.4198">&#171;Value Object&#187;</text><text fill="#000000" font-family="sans-serif" font-size="14" lengthAdjust="spacing" textLength="158" x="1587" y="472.4863">CourseEnrollmentState</text></g><g id="elem_Edition"><rect fill="#F1F1F1" height="34.6211" style="stroke:#181818;stroke-width:0.5;" width="96" x="1787" y="442.8183"/><text fill="#000000" font-family="sans-serif" font-size="12" font-style="italic" lengthAdjust="spacing" textLength="86" x="1792" y="454.4198">&#171;Value Object&#187;</text><text fill="#000000" font-family="sans-serif" font-size="14" lengthAdjust="spacing" textLength="48" x="1811" y="472.4863">Edition</text></g><g id="elem_CourseDescription"><rect fill="#F1F1F1" height="34.6211" style="stroke:#181818;stroke-width:0.5;" width="141" x="1917.5" y="442.8183"/><text fill="#000000" font-family="sans-serif" font-size="12" font-style="italic" lengthAdjust="spacing" textLength="86" x="1945" y="454.4198">&#171;Value Object&#187;</text><text fill="#000000" font-family="sans-serif" font-size="14" lengthAdjust="spacing" textLength="127" x="1924.5" y="472.4863">CourseDescription</text></g><g id="elem_CourseTitle"><rect fill="#F1F1F1" height="34.6211" style="stroke:#181818;stroke-width:0.5;" width="96" x="2093" y="442.8183"/><text fill="#000000" font-family="sans-serif" font-size="12" font-style="italic" lengthAdjust="spacing" textLength="86" x="2098" y="454.4198">&#171;Value Object&#187;</text><text fill="#000000" font-family="sans-serif" font-size="14" lengthAdjust="spacing" textLength="79" x="2101.5" y="472.4863">CourseTitle</text></g><g id="elem_ExamsList"><rect fill="#F1F1F1" height="34.6211" style="stroke:#181818;stroke-width:0.5;" width="96" x="2224" y="442.8183"/><text fill="#000000" font-family="sans-serif" font-size="12" font-style="italic" lengthAdjust="spacing" textLength="86" x="2229" y="454.4198">&#171;Value Object&#187;</text><text fill="#000000" font-family="sans-serif" font-size="14" lengthAdjust="spacing" textLength="68" x="2238" y="472.4863">ExamsList</text></g><g id="elem_CourseEnrollmentsList"><rect fill="#F1F1F1" height="34.6211" style="stroke:#181818;stroke-width:0.5;" width="168" x="2355" y="442.8183"/><text fill="#000000" font-family="sans-serif" font-size="12" font-style="italic" lengthAdjust="spacing" textLength="86" x="2396" y="454.4198">&#171;Value Object&#187;</text><text fill="#000000" font-family="sans-serif" font-size="14" lengthAdjust="spacing" textLength="154" x="2362" y="472.4863">CourseEnrollmentsList</text></g><!--class Student--><g id="elem_Student"><rect codeLine="33" fill="#F1F1F1" height="54.7539" id="Student" rx="2.5" ry="2.5" style="stroke:#181818;stroke-width:0.5;" width="85" x="296.5" y="79.4883"/><ellipse cx="311.5" cy="106.8652" fill="#ADD1B2" rx="11" ry="11" style="stroke:#181818;stroke-width:1.0;"/><path d="M315.6143,112.8652 L307.8945,112.8652 L307.8945,100.4722 L315.6143,100.4722 L315.6143,102.6304 L310.3433,102.6304 L310.3433,105.3032 L315.1162,105.3032 L315.1162,107.4614 L310.3433,107.4614 L310.3433,110.707 L315.6143,110.707 Z " fill="#000000"/><text fill="#000000" font-family="sans-serif" font-size="12" font-style="italic" lengthAdjust="spacing" textLength="38" x="333" y="96.0898">&#171;Root&#187;</text><text fill="#000000" font-family="sans-serif" font-size="12" font-style="italic" lengthAdjust="spacing" textLength="43" x="330.5" y="110.2227">&#171;Entity&#187;</text><text fill="#000000" font-family="sans-serif" font-size="14" lengthAdjust="spacing" textLength="53" x="325.5" y="126.2891">Student</text></g><g id="elem_MecNumber"><rect fill="#F1F1F1" height="48.7539" style="stroke:#181818;stroke-width:0.5;" width="96" x="23" y="197.2483"/><text fill="#000000" font-family="sans-serif" font-size="12" font-style="italic" lengthAdjust="spacing" textLength="86" x="28" y="208.8498">&#171;Value Object&#187;</text><text fill="#000000" font-family="sans-serif" font-size="12" font-style="italic" lengthAdjust="spacing" textLength="54" x="44" y="222.9827">&#171;Identify&#187;</text><text fill="#000000" font-family="sans-serif" font-size="14" lengthAdjust="spacing" textLength="82" x="30" y="241.0491">MecNumber</text></g><g id="elem_ECourseUser"><rect fill="#F1F1F1" height="34.6211" style="stroke:#181818;stroke-width:0.5;" width="102" x="154" y="204.3083"/><text fill="#000000" font-family="sans-serif" font-size="12" font-style="italic" lengthAdjust="spacing" textLength="86" x="162" y="215.9098">&#171;Value Object&#187;</text><text fill="#000000" font-family="sans-serif" font-size="14" lengthAdjust="spacing" textLength="88" x="161" y="233.9763">ECourseUser</text></g><g id="elem_SystemUser"><rect fill="#F1F1F1" height="34.6211" style="stroke:#181818;stroke-width:0.5;" width="96" x="291" y="204.3083"/><text fill="#000000" font-family="sans-serif" font-size="12" font-style="italic" lengthAdjust="spacing" textLength="86" x="296" y="215.9098">&#171;Value Object&#187;</text><text fill="#000000" font-family="sans-serif" font-size="14" lengthAdjust="spacing" textLength="79" x="299.5" y="233.9763">SystemUser</text></g><g id="elem_StudentEnrollmentsList"><rect fill="#F1F1F1" height="34.6211" style="stroke:#181818;stroke-width:0.5;" width="172" x="422" y="204.3083"/><text fill="#000000" font-family="sans-serif" font-size="12" font-style="italic" lengthAdjust="spacing" textLength="86" x="465" y="215.9098">&#171;Value Object&#187;</text><text fill="#000000" font-family="sans-serif" font-size="14" lengthAdjust="spacing" textLength="158" x="429" y="233.9763">StudentEnrollmentsList</text></g><!--class Enrollment--><g id="elem_Enrollment"><rect codeLine="47" fill="#F1F1F1" height="54.7539" id="Enrollment" rx="2.5" ry="2.5" style="stroke:#181818;stroke-width:0.5;" width="107" x="879.5" y="194.2483"/><ellipse cx="894.5" cy="221.6252" fill="#ADD1B2" rx="11" ry="11" style="stroke:#181818;stroke-width:1.0;"/><path d="M898.6143,227.6252 L890.8945,227.6252 L890.8945,215.2322 L898.6143,215.2322 L898.6143,217.3904 L893.3433,217.3904 L893.3433,220.0632 L898.1162,220.0632 L898.1162,222.2214 L893.3433,222.2214 L893.3433,225.467 L898.6143,225.467 Z " fill="#000000"/><text fill="#000000" font-family="sans-serif" font-size="12" font-style="italic" lengthAdjust="spacing" textLength="38" x="927" y="210.8498">&#171;Root&#187;</text><text fill="#000000" font-family="sans-serif" font-size="12" font-style="italic" lengthAdjust="spacing" textLength="43" x="924.5" y="224.9827">&#171;Entity&#187;</text><text fill="#000000" font-family="sans-serif" font-size="14" lengthAdjust="spacing" textLength="75" x="908.5" y="241.0491">Enrollment</text></g><g id="elem_EnrollmentID"><rect fill="#F1F1F1" height="48.7539" style="stroke:#181818;stroke-width:0.5;" width="103" x="650.5" y="323.9983"/><text fill="#000000" font-family="sans-serif" font-size="12" font-style="italic" lengthAdjust="spacing" textLength="86" x="659" y="335.5998">&#171;Value Object&#187;</text><text fill="#000000" font-family="sans-serif" font-size="12" font-style="italic" lengthAdjust="spacing" textLength="54" x="675" y="349.7327">&#171;Identify&#187;</text><text fill="#000000" font-family="sans-serif" font-size="14" lengthAdjust="spacing" textLength="89" x="657.5" y="367.7991">EnrollmentID</text></g><g id="elem_EnrollmentState"><rect fill="#F1F1F1" height="34.6211" style="stroke:#181818;stroke-width:0.5;" width="123" x="788.5" y="331.0683"/><text fill="#000000" font-family="sans-serif" font-size="12" font-style="italic" lengthAdjust="spacing" textLength="86" x="807" y="342.6698">&#171;Value Object&#187;</text><text fill="#000000" font-family="sans-serif" font-size="14" lengthAdjust="spacing" textLength="109" x="795.5" y="360.7363">EnrollmentState</text></g><g id="elem_EnrollmentCourse"><rect fill="#F1F1F1" height="34.6211" style="stroke:#181818;stroke-width:0.5;" width="138" x="947" y="331.0683"/><text fill="#000000" font-family="sans-serif" font-size="12" font-style="italic" lengthAdjust="spacing" textLength="86" x="973" y="342.6698">&#171;Value Object&#187;</text><text fill="#000000" font-family="sans-serif" font-size="14" lengthAdjust="spacing" textLength="124" x="954" y="360.7363">EnrollmentCourse</text></g><g id="elem_EnrollmentStudent"><rect fill="#F1F1F1" height="34.6211" style="stroke:#181818;stroke-width:0.5;" width="142" x="1120" y="331.0683"/><text fill="#000000" font-family="sans-serif" font-size="12" font-style="italic" lengthAdjust="spacing" textLength="86" x="1148" y="342.6698">&#171;Value Object&#187;</text><text fill="#000000" font-family="sans-serif" font-size="14" lengthAdjust="spacing" textLength="128" x="1127" y="360.7363">EnrollmentStudent</text></g><!--link Course to CourseTitle--><g id="link_Course_CourseTitle"><path codeLine="21" d="M1875.95,354.5083 C1959.33,354.5083 2141,354.5083 2141,354.5083 C2141,354.5083 2141,436.6883 2141,436.6883 " fill="none" id="Course-to-CourseTitle" style="stroke:#181818;stroke-width:1.0;"/><polygon fill="#181818" points="2141,441.6883,2145,432.6883,2141,436.6883,2137,432.6883,2141,441.6883" style="stroke:#181818;stroke-width:1.0;"/><text fill="#000000" font-family="sans-serif" font-size="13" lengthAdjust="spacing" textLength="33" x="2015.57" y="351.0766">has a</text><text fill="#000000" font-family="sans-serif" font-size="13" lengthAdjust="spacing" textLength="8" x="1883.3948" y="351.876">1</text><text fill="#000000" font-family="sans-serif" font-size="13" lengthAdjust="spacing" textLength="8" x="2131.675" y="432.0465">1</text></g><!--link Course to Id--><g id="link_Course_Id"><path codeLine="22" d="M1821.5,376.2183 C1821.5,403.0183 1821.5,439.5083 1821.5,439.5083 C1821.5,439.5083 1420.32,439.5083 1420.32,439.5083 " fill="none" id="Course-to-Id" style="stroke:#181818;stroke-width:1.0;"/><polygon fill="#181818" points="1415.32,439.5083,1424.32,443.5083,1420.32,439.5083,1424.32,435.5083,1415.32,439.5083" style="stroke:#181818;stroke-width:1.0;"/><text fill="#000000" font-family="sans-serif" font-size="13" lengthAdjust="spacing" textLength="33" x="1618.55" y="436.0766">has a</text><text fill="#000000" font-family="sans-serif" font-size="13" lengthAdjust="spacing" textLength="8" x="1809.8906" y="396.1082">1</text><text fill="#000000" font-family="sans-serif" font-size="13" lengthAdjust="spacing" textLength="8" x="1422.0045" y="432.9683">1</text></g><!--link Course to CourseDescription--><g id="link_Course_CourseDescription"><path codeLine="23" d="M1875.6,365.5083 C1920.93,365.5083 1988,365.5083 1988,365.5083 C1988,365.5083 1988,436.3383 1988,436.3383 " fill="none" id="Course-to-CourseDescription" style="stroke:#181818;stroke-width:1.0;"/><polygon fill="#181818" points="1988,441.3383,1992,432.3383,1988,436.3383,1984,432.3383,1988,441.3383" style="stroke:#181818;stroke-width:1.0;"/><text fill="#000000" font-family="sans-serif" font-size="13" lengthAdjust="spacing" textLength="33" x="1933.21" y="362.0766">has a</text><text fill="#000000" font-family="sans-serif" font-size="13" lengthAdjust="spacing" textLength="8" x="1883.5444" y="382.4921">1</text><text fill="#000000" font-family="sans-serif" font-size="13" lengthAdjust="spacing" textLength="8" x="1978.775" y="432.209">1</text></g><!--link Course to CourseState--><g id="link_Course_CourseState"><path codeLine="24" d="M1794.23,368.5083 C1704.33,368.5083 1497,368.5083 1497,368.5083 C1497,368.5083 1497,436.4683 1497,436.4683 " fill="none" id="Course-to-CourseState" style="stroke:#181818;stroke-width:1.0;"/><polygon fill="#181818" points="1497,441.4683,1501,432.4683,1497,436.4683,1493,432.4683,1497,441.4683" style="stroke:#181818;stroke-width:1.0;"/><text fill="#000000" font-family="sans-serif" font-size="13" lengthAdjust="spacing" textLength="33" x="1577.64" y="365.0766">has a</text><text fill="#000000" font-family="sans-serif" font-size="13" lengthAdjust="spacing" textLength="8" x="1778.5352" y="368.2746">1</text><text fill="#000000" font-family="sans-serif" font-size="13" lengthAdjust="spacing" textLength="8" x="1487.725" y="432.0662">1</text></g><!--link Course to CourseEnrollmentState--><g id="link_Course_CourseEnrollmentState"><path codeLine="25" d="M1794.09,370.5083 C1744.07,370.5083 1666,370.5083 1666,370.5083 C1666,370.5083 1666,436.4283 1666,436.4283 " fill="none" id="Course-to-CourseEnrollmentState" style="stroke:#181818;stroke-width:1.0;"/><polygon fill="#181818" points="1666,441.4283,1670,432.4283,1666,436.4283,1662,432.4283,1666,441.4283" style="stroke:#181818;stroke-width:1.0;"/><text fill="#000000" font-family="sans-serif" font-size="13" lengthAdjust="spacing" textLength="41" x="1655.09" y="367.0766">has an</text><text fill="#000000" font-family="sans-serif" font-size="13" lengthAdjust="spacing" textLength="8" x="1778.3711" y="388.1965">1</text><text fill="#000000" font-family="sans-serif" font-size="13" lengthAdjust="spacing" textLength="8" x="1656.725" y="432.0135">1</text></g><!--link Course to Edition--><g id="link_Course_Edition"><path codeLine="26" d="M1848.5,375.9983 C1848.5,375.9983 1848.5,436.5683 1848.5,436.5683 " fill="none" id="Course-to-Edition" style="stroke:#181818;stroke-width:1.0;"/><polygon fill="#181818" points="1848.5,441.5683,1852.5,432.5683,1848.5,436.5683,1844.5,432.5683,1848.5,441.5683" style="stroke:#181818;stroke-width:1.0;"/><text fill="#000000" font-family="sans-serif" font-size="13" lengthAdjust="spacing" textLength="33" x="1814.5" y="419.8566">has a</text><text fill="#000000" font-family="sans-serif" font-size="13" lengthAdjust="spacing" textLength="8" x="1842.5781" y="396.2838">1</text><text fill="#000000" font-family="sans-serif" font-size="13" lengthAdjust="spacing" textLength="8" x="1843.5281" y="432.1981">1</text></g><!--link Course to ExamsList--><g id="link_Course_ExamsList"><path codeLine="27" d="M1875.72,343.5083 C1984.2,343.5083 2272,343.5083 2272,343.5083 C2272,343.5083 2272,436.4183 2272,436.4183 " fill="none" id="Course-to-ExamsList" style="stroke:#181818;stroke-width:1.0;"/><polygon fill="#181818" points="2272,441.4183,2276,432.4183,2272,436.4183,2268,432.4183,2272,441.4183" style="stroke:#181818;stroke-width:1.0;"/><text fill="#000000" font-family="sans-serif" font-size="13" lengthAdjust="spacing" textLength="41" x="2078.31" y="340.0766">has an</text><text fill="#000000" font-family="sans-serif" font-size="13" lengthAdjust="spacing" textLength="8" x="1883.4063" y="338.9778">1</text><text fill="#000000" font-family="sans-serif" font-size="13" lengthAdjust="spacing" textLength="6" x="2265.0438" y="432.0003">*</text></g><!--link Course to CourseEnrollmentsList--><g id="link_Course_CourseEnrollmentsList"><path codeLine="28" d="M1875.57,332.5083 C2010.99,332.5083 2439,332.5083 2439,332.5083 C2439,332.5083 2439,436.3883 2439,436.3883 " fill="none" id="Course-to-CourseEnrollmentsList" style="stroke:#181818;stroke-width:1.0;"/><polygon fill="#181818" points="2439,441.3883,2443,432.3883,2439,436.3883,2435,432.3883,2439,441.3883" style="stroke:#181818;stroke-width:1.0;"/><text fill="#000000" font-family="sans-serif" font-size="13" lengthAdjust="spacing" textLength="41" x="2167.22" y="329.0766">has an</text><text fill="#000000" font-family="sans-serif" font-size="13" lengthAdjust="spacing" textLength="8" x="1883.509" y="325.9421">1</text><text fill="#000000" font-family="sans-serif" font-size="13" lengthAdjust="spacing" textLength="6" x="2432.0438" y="431.9607">*</text></g><!--link Student to MecNumber--><g id="link_Student_MecNumber"><path codeLine="39" d="M317.75,134.5283 C317.75,162.7783 317.75,202.5083 317.75,202.5083 C317.75,202.5083 125.46,202.5083 125.46,202.5083 " fill="none" id="Student-to-MecNumber" style="stroke:#181818;stroke-width:1.0;"/><polygon fill="#181818" points="120.46,202.5083,129.46,206.5083,125.46,202.5083,129.46,198.5083,120.46,202.5083" style="stroke:#181818;stroke-width:1.0;"/><text fill="#000000" font-family="sans-serif" font-size="13" lengthAdjust="spacing" textLength="33" x="221.59" y="199.0766">has a</text><text fill="#000000" font-family="sans-serif" font-size="13" lengthAdjust="spacing" textLength="8" x="304.2266" y="154.8225">1</text><text fill="#000000" font-family="sans-serif" font-size="13" lengthAdjust="spacing" textLength="8" x="126.8372" y="196.3555">1</text></g><!--link Student to ECourseUser--><g id="link_Student_ECourseUser"><path codeLine="40" d="M296.23,107.5083 C257.02,107.5083 205,107.5083 205,107.5083 C205,107.5083 205,198.2883 205,198.2883 " fill="none" id="Student-to-ECourseUser" style="stroke:#181818;stroke-width:1.0;"/><polygon fill="#181818" points="205,203.2883,209,194.2883,205,198.2883,201,194.2883,205,203.2883" style="stroke:#181818;stroke-width:1.0;"/><text fill="#000000" font-family="sans-serif" font-size="13" lengthAdjust="spacing" textLength="22" x="182.22" y="104.0766">is a</text><text fill="#000000" font-family="sans-serif" font-size="13" lengthAdjust="spacing" textLength="8" x="280.4837" y="103.9667">1</text><text fill="#000000" font-family="sans-serif" font-size="13" lengthAdjust="spacing" textLength="8" x="195.675" y="193.683">1</text></g><!--link Student to SystemUser--><g id="link_Student_SystemUser"><path codeLine="41" d="M339,134.6483 C339,134.6483 339,198.0883 339,198.0883 " fill="none" id="Student-to-SystemUser" style="stroke:#181818;stroke-width:1.0;"/><polygon fill="#181818" points="339,203.0883,343,194.0883,339,198.0883,335,194.0883,339,203.0883" style="stroke:#181818;stroke-width:1.0;"/><text fill="#000000" font-family="sans-serif" font-size="13" lengthAdjust="spacing" textLength="22" x="316" y="179.9366">is a</text><text fill="#000000" font-family="sans-serif" font-size="13" lengthAdjust="spacing" textLength="8" x="330.125" y="154.9688">1</text><text fill="#000000" font-family="sans-serif" font-size="13" lengthAdjust="spacing" textLength="8" x="329.675" y="193.4167">1</text></g><!--link Student to StudentEnrollmentsList--><g id="link_Student_StudentEnrollmentsList"><path codeLine="42" d="M381.65,107.5083 C431.71,107.5083 508,107.5083 508,107.5083 C508,107.5083 508,198.2883 508,198.2883 " fill="none" id="Student-to-StudentEnrollmentsList" style="stroke:#181818;stroke-width:1.0;"/><polygon fill="#181818" points="508,203.2883,512,194.2883,508,198.2883,504,194.2883,508,203.2883" style="stroke:#181818;stroke-width:1.0;"/><text fill="#000000" font-family="sans-serif" font-size="13" lengthAdjust="spacing" textLength="41" x="448.21" y="104.0766">has an</text><text fill="#000000" font-family="sans-serif" font-size="13" lengthAdjust="spacing" textLength="8" x="389.3764" y="103.9667">1</text><text fill="#000000" font-family="sans-serif" font-size="13" lengthAdjust="spacing" textLength="6" x="501.0063" y="193.683">*</text></g><!--link Enrollment to EnrollmentID--><g id="link_Enrollment_EnrollmentID"><path codeLine="53" d="M890.17,249.4083 C890.17,281.3683 890.17,329.5083 890.17,329.5083 C890.17,329.5083 759.92,329.5083 759.92,329.5083 " fill="none" id="Enrollment-to-EnrollmentID" style="stroke:#181818;stroke-width:1.0;"/><polygon fill="#181818" points="754.92,329.5083,763.92,333.5083,759.92,329.5083,763.92,325.5083,754.92,329.5083" style="stroke:#181818;stroke-width:1.0;"/><text fill="#000000" font-family="sans-serif" font-size="13" lengthAdjust="spacing" textLength="33" x="831.09" y="326.0766">has a</text><text fill="#000000" font-family="sans-serif" font-size="13" lengthAdjust="spacing" textLength="8" x="871.9259" y="269.7288">1</text><text fill="#000000" font-family="sans-serif" font-size="13" lengthAdjust="spacing" textLength="8" x="761.4342" y="323.5544">1</text></g><!--link Enrollment to EnrollmentState--><g id="link_Enrollment_EnrollmentState"><path codeLine="54" d="M900.83,249.4383 C900.83,249.4383 900.83,324.7683 900.83,324.7683 " fill="none" id="Enrollment-to-EnrollmentState" style="stroke:#181818;stroke-width:1.0;"/><polygon fill="#181818" points="900.83,329.7683,904.83,320.7683,900.83,324.7683,896.83,320.7683,900.83,329.7683" style="stroke:#181818;stroke-width:1.0;"/><text fill="#000000" font-family="sans-serif" font-size="13" lengthAdjust="spacing" textLength="33" x="866.83" y="283.6766">has a</text><text fill="#000000" font-family="sans-serif" font-size="13" lengthAdjust="spacing" textLength="8" x="884.9178" y="269.7653">1</text><text fill="#000000" font-family="sans-serif" font-size="13" lengthAdjust="spacing" textLength="8" x="907.7571" y="320.3821">1</text></g><!--link Enrollment to EnrollmentCourse--><g id="link_Enrollment_EnrollmentCourse"><path codeLine="55" d="M960.17,249.4383 C960.17,249.4383 960.17,324.7683 960.17,324.7683 " fill="none" id="Enrollment-to-EnrollmentCourse" style="stroke:#181818;stroke-width:1.0;"/><polygon fill="#181818" points="960.17,329.7683,964.17,320.7683,960.17,324.7683,956.17,320.7683,960.17,329.7683" style="stroke:#181818;stroke-width:1.0;"/><text fill="#000000" font-family="sans-serif" font-size="13" lengthAdjust="spacing" textLength="33" x="926.17" y="283.6766">has a</text><text fill="#000000" font-family="sans-serif" font-size="13" lengthAdjust="spacing" textLength="8" x="957.2384" y="269.7653">1</text><text fill="#000000" font-family="sans-serif" font-size="13" lengthAdjust="spacing" textLength="8" x="933.0992" y="320.3821">1</text></g><!--link Enrollment to EnrollmentStudent--><g id="link_Enrollment_EnrollmentStudent"><path codeLine="56" d="M986.77,222.5083 C1062.38,222.5083 1191,222.5083 1191,222.5083 C1191,222.5083 1191,324.6083 1191,324.6083 " fill="none" id="Enrollment-to-EnrollmentStudent" style="stroke:#181818;stroke-width:1.0;"/><polygon fill="#181818" points="1191,329.6083,1195,320.6083,1191,324.6083,1187,320.6083,1191,329.6083" style="stroke:#181818;stroke-width:1.0;"/><text fill="#000000" font-family="sans-serif" font-size="13" lengthAdjust="spacing" textLength="41" x="1097.94" y="219.0766">has an</text><text fill="#000000" font-family="sans-serif" font-size="13" lengthAdjust="spacing" textLength="8" x="994.5328" y="219.2084">1</text><text fill="#000000" font-family="sans-serif" font-size="13" lengthAdjust="spacing" textLength="8" x="1181.725" y="320.1711">1</text></g><!--link Student to Enrollment--><g id="link_Student_Enrollment"><path codeLine="59" d="M360.25,134.7083 C360.25,162.3083 360.25,200.5083 360.25,200.5083 C360.25,200.5083 873.12,200.5083 873.12,200.5083 " fill="none" id="Student-to-Enrollment" style="stroke:#181818;stroke-width:1.0;"/><polygon fill="#181818" points="878.12,200.5083,869.12,196.5083,873.12,200.5083,869.12,204.5083,878.12,200.5083" style="stroke:#181818;stroke-width:1.0;"/><text fill="#000000" font-family="sans-serif" font-size="13" lengthAdjust="spacing" textLength="41" x="541.78" y="197.0766">does a</text><text fill="#000000" font-family="sans-serif" font-size="13" lengthAdjust="spacing" textLength="22" x="849.6183" y="194.7858">1..*</text></g><!--link Enrollment to Course--><g id="link_Enrollment_Course"><path codeLine="60" d="M973.33,249.4583 C973.33,280.5283 973.33,326.5083 973.33,326.5083 C973.33,326.5083 1788.02,326.5083 1788.02,326.5083 " fill="none" id="Enrollment-to-Course" style="stroke:#181818;stroke-width:1.0;"/><polygon fill="#181818" points="1793.02,326.5083,1784.02,322.5083,1788.02,326.5083,1784.02,330.5083,1793.02,326.5083" style="stroke:#181818;stroke-width:1.0;"/><text fill="#000000" font-family="sans-serif" font-size="13" lengthAdjust="spacing" textLength="113" x="1228.15" y="323.0766">is associated with</text><text fill="#000000" font-family="sans-serif" font-size="13" lengthAdjust="spacing" textLength="8" x="1778.5702" y="319.2385">1</text></g><!--SRC=[bPHDJyCm38Rl-HLMZvCsYIkAAY6smoG-90hSiyLh0sqo9Iam8VuxwSUwqAvPsIMJ-xoExTTj9ZZ2Jc3EILRzBT1cYXj2hB0vmb8LJ4XOQl61xa0ZKac8UHToppGh81SIxM6FeBJJ4Q9nQvbCdJAYz2PDDQRCOXp3hIgrmGY-2G7tG-do7zeefKzAsJYcT5M7uxXcrERDPOCrf_ILvIN2Onsek3Ml4knwP9CjiUx6lcI8hQHMULwuFBK0GeeL5rOe2PUpkWbjjTXFf9_h6GTl_cA5kHF6mdyw6b7KajQ8gmZcynZSwPLo3HapmCvpQmx1vyC1dCKTtS7Dv2zYFQjQNWxBSCVHgj5Ierbq6ceWrImwFzLEyXFOzgIi5hI_xOcjm-5rlyVjGrbiK4_T-bLJvuiPIdmiEHYBHKK5LwcjSTekjR2t15tr_lo7c5Up6wWO1xsgHpbdrKZLaxmwYVf-dPw4BJjnw-Lar_xkTF0RqA77p-KKjXt9Y7DUqvuhNX- -VnTW_wMSmZTTG53Hkw1fnRVp66koBnQpo4lYIAwmIkx5sZgWkxvQ9sFKLhZoENmAcv5V]--></g></svg>