<?xml version="1.0" encoding="us-ascii" standalone="no"?><svg xmlns="http://www.w3.org/2000/svg" xmlns:xlink="http://www.w3.org/1999/xlink" contentStyleType="text/css" height="672px" preserveAspectRatio="none" style="width:1398px;height:672px;background:#FFFFFF;" version="1.1" viewBox="0 0 1398 672" width="1398px" zoomAndPan="magnify"><defs/><g><text fill="#000000" font-family="sans-serif" font-size="14" font-weight="bold" lengthAdjust="spacing" textLength="129" x="636" y="28.5352">List Future Exams</text><rect fill="#FFFFFF" height="513.9688" style="stroke:#181818;stroke-width:1.0;" width="10" x="133" y="105.2871"/><rect fill="#FFFFFF" height="413.0371" style="stroke:#181818;stroke-width:1.0;" width="10" x="321.5" y="176.9082"/><rect fill="#FFFFFF" height="117.9316" style="stroke:#181818;stroke-width:1.0;" width="10" x="547.5" y="206.2188"/><rect fill="#FFFFFF" height="88.6211" style="stroke:#181818;stroke-width:1.0;" width="10" x="744" y="235.5293"/><rect fill="#FFFFFF" height="59.3105" style="stroke:#181818;stroke-width:1.0;" width="10" x="899.5" y="264.8398"/><rect fill="#FFFFFF" height="59.3105" style="stroke:#181818;stroke-width:1.0;" width="10" x="1052" y="294.1504"/><rect fill="#FFFFFF" height="29.3105" style="stroke:#181818;stroke-width:1.0;" width="10" x="1180.5" y="382.7715"/><rect fill="#FFFFFF" height="29.3105" style="stroke:#181818;stroke-width:1.0;" width="10" x="1270.5" y="465.7031"/><rect fill="#FFFFFF" height="29.3105" style="stroke:#181818;stroke-width:1.0;" width="10" x="1345.5" y="524.3242"/><rect fill="none" height="134.5527" style="stroke:#000000;stroke-width:1.5;" width="1180" x="212" y="427.082"/><line style="stroke:#181818;stroke-width:0.5;stroke-dasharray:5.0,5.0;" x1="29" x2="29" y1="73.9766" y2="637.2559"/><line style="stroke:#181818;stroke-width:0.5;stroke-dasharray:5.0,5.0;" x1="138" x2="138" y1="73.9766" y2="637.2559"/><line style="stroke:#181818;stroke-width:0.5;stroke-dasharray:5.0,5.0;" x1="326" x2="326" y1="73.9766" y2="637.2559"/><line style="stroke:#181818;stroke-width:0.5;stroke-dasharray:5.0,5.0;" x1="552" x2="552" y1="73.9766" y2="637.2559"/><line style="stroke:#181818;stroke-width:0.5;stroke-dasharray:5.0,5.0;" x1="749" x2="749" y1="73.9766" y2="637.2559"/><line style="stroke:#181818;stroke-width:0.5;stroke-dasharray:5.0,5.0;" x1="904" x2="904" y1="73.9766" y2="637.2559"/><line style="stroke:#181818;stroke-width:0.5;stroke-dasharray:5.0,5.0;" x1="1057" x2="1057" y1="73.9766" y2="637.2559"/><line style="stroke:#181818;stroke-width:0.5;stroke-dasharray:5.0,5.0;" x1="1185" x2="1185" y1="73.9766" y2="637.2559"/><line style="stroke:#181818;stroke-width:0.5;stroke-dasharray:5.0,5.0;" x1="1275" x2="1275" y1="73.9766" y2="637.2559"/><line style="stroke:#181818;stroke-width:0.5;stroke-dasharray:5.0,5.0;" x1="1350" x2="1350" y1="73.9766" y2="637.2559"/><rect fill="#E2E2F0" height="30.4883" rx="2.5" ry="2.5" style="stroke:#181818;stroke-width:0.5;" width="49" x="5" y="42.4883"/><text fill="#000000" font-family="sans-serif" font-size="14" lengthAdjust="spacing" textLength="35" x="12" y="63.0234">:User</text><rect fill="#E2E2F0" height="30.4883" rx="2.5" ry="2.5" style="stroke:#181818;stroke-width:0.5;" width="49" x="5" y="636.2559"/><text fill="#000000" font-family="sans-serif" font-size="14" lengthAdjust="spacing" textLength="35" x="12" y="656.791">:User</text><rect fill="#E2E2F0" height="30.4883" rx="2.5" ry="2.5" style="stroke:#181818;stroke-width:0.5;" width="148" x="64" y="42.4883"/><text fill="#000000" font-family="sans-serif" font-size="14" lengthAdjust="spacing" textLength="134" x="71" y="63.0234">:ListStudenExamsUI</text><rect fill="#E2E2F0" height="30.4883" rx="2.5" ry="2.5" style="stroke:#181818;stroke-width:0.5;" width="148" x="64" y="636.2559"/><text fill="#000000" font-family="sans-serif" font-size="14" lengthAdjust="spacing" textLength="134" x="71" y="656.791">:ListStudenExamsUI</text><rect fill="#E2E2F0" height="30.4883" rx="2.5" ry="2.5" style="stroke:#181818;stroke-width:0.5;" width="209" x="222" y="42.4883"/><text fill="#000000" font-family="sans-serif" font-size="14" lengthAdjust="spacing" textLength="195" x="229" y="63.0234">:ListStudentExamsController</text><rect fill="#E2E2F0" height="30.4883" rx="2.5" ry="2.5" style="stroke:#181818;stroke-width:0.5;" width="209" x="222" y="636.2559"/><text fill="#000000" font-family="sans-serif" font-size="14" lengthAdjust="spacing" textLength="195" x="229" y="656.791">:ListStudentExamsController</text><rect fill="#E2E2F0" height="30.4883" rx="2.5" ry="2.5" style="stroke:#181818;stroke-width:0.5;" width="223" x="441" y="42.4883"/><text fill="#000000" font-family="sans-serif" font-size="14" lengthAdjust="spacing" textLength="209" x="448" y="63.0234">:ListExamsManagementService</text><rect fill="#E2E2F0" height="30.4883" rx="2.5" ry="2.5" style="stroke:#181818;stroke-width:0.5;" width="223" x="441" y="636.2559"/><text fill="#000000" font-family="sans-serif" font-size="14" lengthAdjust="spacing" textLength="209" x="448" y="656.791">:ListExamsManagementService</text><rect fill="#E2E2F0" height="30.4883" rx="2.5" ry="2.5" style="stroke:#181818;stroke-width:0.5;" width="150" x="674" y="42.4883"/><text fill="#000000" font-family="sans-serif" font-size="14" lengthAdjust="spacing" textLength="136" x="681" y="63.0234">:PersistenceContext</text><rect fill="#E2E2F0" height="30.4883" rx="2.5" ry="2.5" style="stroke:#181818;stroke-width:0.5;" width="150" x="674" y="636.2559"/><text fill="#000000" font-family="sans-serif" font-size="14" lengthAdjust="spacing" textLength="136" x="681" y="656.791">:PersistenceContext</text><rect fill="#E2E2F0" height="30.4883" rx="2.5" ry="2.5" style="stroke:#181818;stroke-width:0.5;" width="141" x="834" y="42.4883"/><text fill="#000000" font-family="sans-serif" font-size="14" lengthAdjust="spacing" textLength="127" x="841" y="63.0234">:RepositoryFactory</text><rect fill="#E2E2F0" height="30.4883" rx="2.5" ry="2.5" style="stroke:#181818;stroke-width:0.5;" width="141" x="834" y="636.2559"/><text fill="#000000" font-family="sans-serif" font-size="14" lengthAdjust="spacing" textLength="127" x="841" y="656.791">:RepositoryFactory</text><rect fill="#E2E2F0" height="30.4883" rx="2.5" ry="2.5" style="stroke:#181818;stroke-width:0.5;" width="144" x="985" y="42.4883"/><text fill="#000000" font-family="sans-serif" font-size="14" lengthAdjust="spacing" textLength="130" x="992" y="63.0234">:StudentRepository</text><rect fill="#E2E2F0" height="30.4883" rx="2.5" ry="2.5" style="stroke:#181818;stroke-width:0.5;" width="144" x="985" y="636.2559"/><text fill="#000000" font-family="sans-serif" font-size="14" lengthAdjust="spacing" textLength="130" x="992" y="656.791">:StudentRepository</text><rect fill="#E2E2F0" height="30.4883" rx="2.5" ry="2.5" style="stroke:#181818;stroke-width:0.5;" width="93" x="1139" y="42.4883"/><text fill="#000000" font-family="sans-serif" font-size="14" lengthAdjust="spacing" textLength="79" x="1146" y="63.0234">:Enrollment</text><rect fill="#E2E2F0" height="30.4883" rx="2.5" ry="2.5" style="stroke:#181818;stroke-width:0.5;" width="93" x="1139" y="636.2559"/><text fill="#000000" font-family="sans-serif" font-size="14" lengthAdjust="spacing" textLength="79" x="1146" y="656.791">:Enrollment</text><rect fill="#E2E2F0" height="30.4883" rx="2.5" ry="2.5" style="stroke:#181818;stroke-width:0.5;" width="67" x="1242" y="42.4883"/><text fill="#000000" font-family="sans-serif" font-size="14" lengthAdjust="spacing" textLength="53" x="1249" y="63.0234">:Course</text><rect fill="#E2E2F0" height="30.4883" rx="2.5" ry="2.5" style="stroke:#181818;stroke-width:0.5;" width="67" x="1242" y="636.2559"/><text fill="#000000" font-family="sans-serif" font-size="14" lengthAdjust="spacing" textLength="53" x="1249" y="656.791">:Course</text><rect fill="#E2E2F0" height="30.4883" rx="2.5" ry="2.5" style="stroke:#181818;stroke-width:0.5;" width="63" x="1319" y="42.4883"/><text fill="#000000" font-family="sans-serif" font-size="14" lengthAdjust="spacing" textLength="49" x="1326" y="63.0234">:Exams</text><rect fill="#E2E2F0" height="30.4883" rx="2.5" ry="2.5" style="stroke:#181818;stroke-width:0.5;" width="63" x="1319" y="636.2559"/><text fill="#000000" font-family="sans-serif" font-size="14" lengthAdjust="spacing" textLength="49" x="1326" y="656.791">:Exams</text><rect fill="#FFFFFF" height="513.9688" style="stroke:#181818;stroke-width:1.0;" width="10" x="133" y="105.2871"/><rect fill="#FFFFFF" height="413.0371" style="stroke:#181818;stroke-width:1.0;" width="10" x="321.5" y="176.9082"/><rect fill="#FFFFFF" height="117.9316" style="stroke:#181818;stroke-width:1.0;" width="10" x="547.5" y="206.2188"/><rect fill="#FFFFFF" height="88.6211" style="stroke:#181818;stroke-width:1.0;" width="10" x="744" y="235.5293"/><rect fill="#FFFFFF" height="59.3105" style="stroke:#181818;stroke-width:1.0;" width="10" x="899.5" y="264.8398"/><rect fill="#FFFFFF" height="59.3105" style="stroke:#181818;stroke-width:1.0;" width="10" x="1052" y="294.1504"/><rect fill="#FFFFFF" height="29.3105" style="stroke:#181818;stroke-width:1.0;" width="10" x="1180.5" y="382.7715"/><rect fill="#FFFFFF" height="29.3105" style="stroke:#181818;stroke-width:1.0;" width="10" x="1270.5" y="465.7031"/><rect fill="#FFFFFF" height="29.3105" style="stroke:#181818;stroke-width:1.0;" width="10" x="1345.5" y="524.3242"/><polygon fill="#181818" points="121,101.2871,131,105.2871,121,109.2871,125,105.2871" style="stroke:#181818;stroke-width:1.0;"/><line style="stroke:#181818;stroke-width:1.0;" x1="29.5" x2="127" y1="105.2871" y2="105.2871"/><text fill="#000000" font-family="sans-serif" font-size="13" lengthAdjust="spacing" textLength="41" x="36.5" y="100.5449">show()</text><line style="stroke:#181818;stroke-width:1.0;" x1="143" x2="185" y1="134.5977" y2="134.5977"/><line style="stroke:#181818;stroke-width:1.0;" x1="185" x2="185" y1="134.5977" y2="147.5977"/><line style="stroke:#181818;stroke-width:1.0;" x1="144" x2="185" y1="147.5977" y2="147.5977"/><polygon fill="#181818" points="154,143.5977,144,147.5977,154,151.5977,150,147.5977" style="stroke:#181818;stroke-width:1.0;"/><text fill="#000000" font-family="sans-serif" font-size="13" lengthAdjust="spacing" textLength="57" x="150" y="129.8555">doShow()</text><polygon fill="#181818" points="309.5,172.9082,319.5,176.9082,309.5,180.9082,313.5,176.9082" style="stroke:#181818;stroke-width:1.0;"/><line style="stroke:#181818;stroke-width:1.0;" x1="143" x2="315.5" y1="176.9082" y2="176.9082"/><text fill="#000000" font-family="sans-serif" font-size="13" lengthAdjust="spacing" textLength="87" x="150" y="172.166">listMyExams()</text><polygon fill="#181818" points="535.5,202.2188,545.5,206.2188,535.5,210.2188,539.5,206.2188" style="stroke:#181818;stroke-width:1.0;"/><line style="stroke:#181818;stroke-width:1.0;" x1="331.5" x2="541.5" y1="206.2188" y2="206.2188"/><text fill="#000000" font-family="sans-serif" font-size="13" lengthAdjust="spacing" textLength="129" x="338.5" y="201.4766">findStudentByEmail()</text><polygon fill="#181818" points="732,231.5293,742,235.5293,732,239.5293,736,235.5293" style="stroke:#181818;stroke-width:1.0;"/><line style="stroke:#181818;stroke-width:1.0;" x1="557.5" x2="738" y1="235.5293" y2="235.5293"/><text fill="#000000" font-family="sans-serif" font-size="13" lengthAdjust="spacing" textLength="83" x="564.5" y="230.7871">repositories()</text><polygon fill="#181818" points="887.5,260.8398,897.5,264.8398,887.5,268.8398,891.5,264.8398" style="stroke:#181818;stroke-width:1.0;"/><line style="stroke:#181818;stroke-width:1.0;" x1="754" x2="893.5" y1="264.8398" y2="264.8398"/><text fill="#000000" font-family="sans-serif" font-size="13" lengthAdjust="spacing" textLength="119" x="761" y="260.0977">studentRepostory()</text><polygon fill="#181818" points="1040,290.1504,1050,294.1504,1040,298.1504,1044,294.1504" style="stroke:#181818;stroke-width:1.0;"/><line style="stroke:#181818;stroke-width:1.0;" x1="909.5" x2="1046" y1="294.1504" y2="294.1504"/><text fill="#000000" font-family="sans-serif" font-size="13" lengthAdjust="spacing" textLength="28" x="916.5" y="289.4082">get()</text><polygon fill="#181818" points="342.5,349.4609,332.5,353.4609,342.5,357.4609,338.5,353.4609" style="stroke:#181818;stroke-width:1.0;"/><line style="stroke:#181818;stroke-width:1.0;stroke-dasharray:2.0,2.0;" x1="336.5" x2="1056" y1="353.4609" y2="353.4609"/><text fill="#000000" font-family="sans-serif" font-size="13" lengthAdjust="spacing" textLength="48" x="348.5" y="348.7188">Student</text><polygon fill="#181818" points="1168.5,378.7715,1178.5,382.7715,1168.5,386.7715,1172.5,382.7715" style="stroke:#181818;stroke-width:1.0;"/><line style="stroke:#181818;stroke-width:1.0;" x1="331.5" x2="1174.5" y1="382.7715" y2="382.7715"/><text fill="#000000" font-family="sans-serif" font-size="13" lengthAdjust="spacing" textLength="160" x="338.5" y="378.0293">Student.findEnrollments()</text><polygon fill="#181818" points="342.5,408.082,332.5,412.082,342.5,416.082,338.5,412.082" style="stroke:#181818;stroke-width:1.0;"/><line style="stroke:#181818;stroke-width:1.0;stroke-dasharray:2.0,2.0;" x1="336.5" x2="1184.5" y1="412.082" y2="412.082"/><text fill="#000000" font-family="sans-serif" font-size="13" lengthAdjust="spacing" textLength="127" x="348.5" y="407.3398">Student Enrollments</text><path d="M212,427.082 L286,427.082 L286,434.3926 L276,444.3926 L212,444.3926 L212,427.082 " fill="#EEEEEE" style="stroke:#000000;stroke-width:1.5;"/><rect fill="none" height="134.5527" style="stroke:#000000;stroke-width:1.5;" width="1180" x="212" y="427.082"/><text fill="#000000" font-family="sans-serif" font-size="13" font-weight="bold" lengthAdjust="spacing" textLength="29" x="227" y="440.6504">loop</text><polygon fill="#181818" points="1258.5,461.7031,1268.5,465.7031,1258.5,469.7031,1262.5,465.7031" style="stroke:#181818;stroke-width:1.0;"/><line style="stroke:#181818;stroke-width:1.0;" x1="331.5" x2="1264.5" y1="465.7031" y2="465.7031"/><text fill="#000000" font-family="sans-serif" font-size="13" lengthAdjust="spacing" textLength="144" x="338.5" y="460.9609">Enrollment.getCourse()</text><polygon fill="#181818" points="342.5,491.0137,332.5,495.0137,342.5,499.0137,338.5,495.0137" style="stroke:#181818;stroke-width:1.0;"/><line style="stroke:#181818;stroke-width:1.0;stroke-dasharray:2.0,2.0;" x1="336.5" x2="1274.5" y1="495.0137" y2="495.0137"/><text fill="#000000" font-family="sans-serif" font-size="13" lengthAdjust="spacing" textLength="44" x="348.5" y="490.2715">Course</text><polygon fill="#181818" points="1333.5,520.3242,1343.5,524.3242,1333.5,528.3242,1337.5,524.3242" style="stroke:#181818;stroke-width:1.0;"/><line style="stroke:#181818;stroke-width:1.0;" x1="331.5" x2="1339.5" y1="524.3242" y2="524.3242"/><text fill="#000000" font-family="sans-serif" font-size="13" lengthAdjust="spacing" textLength="145" x="338.5" y="519.582">Course.findExamsList()</text><polygon fill="#181818" points="342.5,549.6348,332.5,553.6348,342.5,557.6348,338.5,553.6348" style="stroke:#181818;stroke-width:1.0;"/><line style="stroke:#181818;stroke-width:1.0;stroke-dasharray:2.0,2.0;" x1="336.5" x2="1349.5" y1="553.6348" y2="553.6348"/><text fill="#000000" font-family="sans-serif" font-size="13" lengthAdjust="spacing" textLength="89" x="348.5" y="548.8926">Course Exams</text><polygon fill="#181818" points="154,585.9453,144,589.9453,154,593.9453,150,589.9453" style="stroke:#181818;stroke-width:1.0;"/><line style="stroke:#181818;stroke-width:1.0;stroke-dasharray:2.0,2.0;" x1="148" x2="325.5" y1="589.9453" y2="589.9453"/><text fill="#000000" font-family="sans-serif" font-size="13" lengthAdjust="spacing" textLength="89" x="160" y="585.2031">All Exams List</text><polygon fill="#181818" points="40.5,615.2559,30.5,619.2559,40.5,623.2559,36.5,619.2559" style="stroke:#181818;stroke-width:1.0;"/><line style="stroke:#181818;stroke-width:1.0;stroke-dasharray:2.0,2.0;" x1="34.5" x2="137" y1="619.2559" y2="619.2559"/><text fill="#000000" font-family="sans-serif" font-size="13" lengthAdjust="spacing" textLength="60" x="46.5" y="614.5137">Show List</text><!--SRC=[TPHDRiCW48Ntd09brIwQ0sHHgOqIgL8ZLOro08GdAH812x3htBupu1yWwIgo-TxCcySuGGKD_5FvmFTTw1pmtI2kdh5MkA2aQeK9VBKvUN0hBZpllAkEI7iCNGCcAayVYLF_OY5oMsk2irgFTMLuL3UI1s741QueF8BhbOGeG4DzfVW2vr44HW9LXo54ifKLzmsjzIfOTziBIJyHS-SA6zqkTEfR-zmP6eFinNEepxUsSpvvbdTQcY_91iOmM_xoYj7n3VS_zlVfcJ4qg7eHW0B5W-cuiSS4f7UO7hxKEFpX5ciMKigM20GfDIJFoZJZUE-ttLKeNGXYjX55IIjHuAOG59IrALn9c3kJwomoIgn0CM24o0IPlK30qwMbOmtaQFQ4FRAdQ8vHLFFWuoW5vHYRXeQCMTFeovNvt0DU7JmeopCyRu4uqzQsSnz9eWLUuuZfylCck0CoRvA8l2uIi_DX9f9nkblwC0hR0qEkhZX-nxbVN34mpLXysgGthHCQ_mGA7xWsSRy8ZNT6EtU7uMB-0G00]--></g></svg>