<?xml version="1.0" encoding="us-ascii" standalone="no"?><svg xmlns="http://www.w3.org/2000/svg" xmlns:xlink="http://www.w3.org/1999/xlink" contentStyleType="text/css" height="1213px" preserveAspectRatio="none" style="width:585px;height:1213px;background:#FFFFFF;" version="1.1" viewBox="0 0 585 1213" width="585px" zoomAndPan="magnify"><defs/><g><!--class CreateCourseUI--><g id="elem_CreateCourseUI"><rect codeLine="7" fill="#F1F1F1" height="103.8633" id="CreateCourseUI" rx="2.5" ry="2.5" style="stroke:#181818;stroke-width:0.5;" width="569" x="7" y="7"/><ellipse cx="236.75" cy="23" fill="#ADD1B2" rx="11" ry="11" style="stroke:#181818;stroke-width:1.0;"/><path d="M239.5156,18.875 Q239.6719,18.6563 239.8594,18.5469 Q240.0469,18.4375 240.2656,18.4375 Q240.6406,18.4375 240.875,18.7031 Q241.1094,18.9531 241.1094,19.5625 L241.1094,21.0156 Q241.1094,21.625 240.875,21.8906 Q240.6406,22.1563 240.2656,22.1563 Q239.9219,22.1563 239.7188,21.9531 Q239.5156,21.7656 239.4063,21.25 Q239.3594,20.8906 239.1719,20.7031 Q238.8438,20.3281 238.2344,20.1094 Q237.625,19.8906 237,19.8906 Q236.2344,19.8906 235.5938,20.2188 Q234.9688,20.5469 234.4688,21.2969 Q233.9844,22.0469 233.9844,23.0781 L233.9844,24.1719 Q233.9844,25.4063 234.875,26.2344 Q235.7656,27.0469 237.3594,27.0469 Q238.2969,27.0469 238.9531,26.7969 Q239.3438,26.6406 239.7656,26.2031 Q240.0313,25.9375 240.1719,25.8594 Q240.3281,25.7813 240.5313,25.7813 Q240.8594,25.7813 241.1094,26.0469 Q241.375,26.2969 241.375,26.6406 Q241.375,26.9844 241.0313,27.3906 Q240.5313,27.9688 239.7344,28.2969 Q238.6563,28.75 237.3594,28.75 Q235.8438,28.75 234.6406,28.125 Q233.6563,27.625 232.9688,26.5625 Q232.2813,25.4844 232.2813,24.2031 L232.2813,23.0469 Q232.2813,21.7188 232.8906,20.5781 Q233.5156,19.4219 234.6094,18.8125 Q235.7031,18.1875 236.9375,18.1875 Q237.6719,18.1875 238.3125,18.3594 Q238.9688,18.5156 239.5156,18.875 Z " fill="#000000"/><text fill="#000000" font-family="FG Virgil" font-size="14" lengthAdjust="spacing" textLength="101" x="257.25" y="28.7969">CreateCourseUI</text><line style="stroke:#181818;stroke-width:0.5;" x1="8" x2="575" y1="39" y2="39"/><line style="stroke:#181818;stroke-width:0.5;" x1="8" x2="575" y1="47" y2="47"/><ellipse cx="18" cy="61.8105" fill="#84BE84" rx="3" ry="3" style="stroke:#038048;stroke-width:1.0;"/><text fill="#000000" font-family="FG Virgil" font-size="14" lengthAdjust="spacing" textLength="60" x="27" y="66.1074">doShow()</text><ellipse cx="18" cy="80.4316" fill="#84BE84" rx="3" ry="3" style="stroke:#038048;stroke-width:1.0;"/><text fill="#000000" font-family="FG Virgil" font-size="14" lengthAdjust="spacing" textLength="50" x="27" y="84.7285">create()</text><ellipse cx="18" cy="99.0527" fill="#84BE84" rx="3" ry="3" style="stroke:#038048;stroke-width:1.0;"/><text fill="#000000" font-family="FG Virgil" font-size="14" lengthAdjust="spacing" textLength="543" x="27" y="103.3496">createCourses(Designation,Description, Edition, minimumCapacity, maximumCapacity)</text></g><!--class CreateCourseController--><g id="elem_CreateCourseController"><rect codeLine="13" fill="#F1F1F1" height="141.1055" id="CreateCourseController" rx="2.5" ry="2.5" style="stroke:#181818;stroke-width:0.5;" width="562" x="10.5" y="171"/><ellipse cx="211.75" cy="187" fill="#ADD1B2" rx="11" ry="11" style="stroke:#181818;stroke-width:1.0;"/><path d="M214.5156,182.875 Q214.6719,182.6563 214.8594,182.5469 Q215.0469,182.4375 215.2656,182.4375 Q215.6406,182.4375 215.875,182.7031 Q216.1094,182.9531 216.1094,183.5625 L216.1094,185.0156 Q216.1094,185.625 215.875,185.8906 Q215.6406,186.1563 215.2656,186.1563 Q214.9219,186.1563 214.7188,185.9531 Q214.5156,185.7656 214.4063,185.25 Q214.3594,184.8906 214.1719,184.7031 Q213.8438,184.3281 213.2344,184.1094 Q212.625,183.8906 212,183.8906 Q211.2344,183.8906 210.5938,184.2188 Q209.9688,184.5469 209.4688,185.2969 Q208.9844,186.0469 208.9844,187.0781 L208.9844,188.1719 Q208.9844,189.4063 209.875,190.2344 Q210.7656,191.0469 212.3594,191.0469 Q213.2969,191.0469 213.9531,190.7969 Q214.3438,190.6406 214.7656,190.2031 Q215.0313,189.9375 215.1719,189.8594 Q215.3281,189.7813 215.5313,189.7813 Q215.8594,189.7813 216.1094,190.0469 Q216.375,190.2969 216.375,190.6406 Q216.375,190.9844 216.0313,191.3906 Q215.5313,191.9688 214.7344,192.2969 Q213.6563,192.75 212.3594,192.75 Q210.8438,192.75 209.6406,192.125 Q208.6563,191.625 207.9688,190.5625 Q207.2813,189.4844 207.2813,188.2031 L207.2813,187.0469 Q207.2813,185.7188 207.8906,184.5781 Q208.5156,183.4219 209.6094,182.8125 Q210.7031,182.1875 211.9375,182.1875 Q212.6719,182.1875 213.3125,182.3594 Q213.9688,182.5156 214.5156,182.875 Z " fill="#000000"/><text fill="#000000" font-family="FG Virgil" font-size="14" lengthAdjust="spacing" textLength="151" x="232.25" y="192.7969">CreateCourseController</text><line style="stroke:#181818;stroke-width:0.5;" x1="11.5" x2="571.5" y1="203" y2="203"/><line style="stroke:#181818;stroke-width:0.5;" x1="11.5" x2="571.5" y1="211" y2="211"/><ellipse cx="21.5" cy="225.8105" fill="#84BE84" rx="3" ry="3" style="stroke:#038048;stroke-width:1.0;"/><text fill="#000000" font-family="FG Virgil" font-size="14" lengthAdjust="spacing" textLength="103" x="30.5" y="230.1074">createCourses()</text><ellipse cx="21.5" cy="244.4316" fill="#84BE84" rx="3" ry="3" style="stroke:#038048;stroke-width:1.0;"/><text fill="#000000" font-family="FG Virgil" font-size="14" lengthAdjust="spacing" textLength="158" x="30.5" y="248.7285">findCourseByIdBoolean()</text><ellipse cx="21.5" cy="263.0527" fill="#84BE84" rx="3" ry="3" style="stroke:#038048;stroke-width:1.0;"/><text fill="#000000" font-family="FG Virgil" font-size="14" lengthAdjust="spacing" textLength="536" x="30.5" y="267.3496">createCourse(Designation,Description, Edition, minimumCapacity, maximumCapacity)</text><ellipse cx="21.5" cy="281.6738" fill="#84BE84" rx="3" ry="3" style="stroke:#038048;stroke-width:1.0;"/><text fill="#000000" font-family="FG Virgil" font-size="14" lengthAdjust="spacing" textLength="84" x="30.5" y="285.9707">repositories()</text><ellipse cx="21.5" cy="300.2949" fill="#84BE84" rx="3" ry="3" style="stroke:#038048;stroke-width:1.0;"/><text fill="#000000" font-family="FG Virgil" font-size="14" lengthAdjust="spacing" textLength="60" x="30.5" y="304.5918">courses()</text></g><!--class CreateCourseService--><g id="elem_CreateCourseService"><rect codeLine="22" fill="#F1F1F1" height="141.1055" id="CreateCourseService" rx="2.5" ry="2.5" style="stroke:#181818;stroke-width:0.5;" width="271" x="156" y="372"/><ellipse cx="219.25" cy="388" fill="#ADD1B2" rx="11" ry="11" style="stroke:#181818;stroke-width:1.0;"/><path d="M222.0156,383.875 Q222.1719,383.6563 222.3594,383.5469 Q222.5469,383.4375 222.7656,383.4375 Q223.1406,383.4375 223.375,383.7031 Q223.6094,383.9531 223.6094,384.5625 L223.6094,386.0156 Q223.6094,386.625 223.375,386.8906 Q223.1406,387.1563 222.7656,387.1563 Q222.4219,387.1563 222.2188,386.9531 Q222.0156,386.7656 221.9063,386.25 Q221.8594,385.8906 221.6719,385.7031 Q221.3438,385.3281 220.7344,385.1094 Q220.125,384.8906 219.5,384.8906 Q218.7344,384.8906 218.0938,385.2188 Q217.4688,385.5469 216.9688,386.2969 Q216.4844,387.0469 216.4844,388.0781 L216.4844,389.1719 Q216.4844,390.4063 217.375,391.2344 Q218.2656,392.0469 219.8594,392.0469 Q220.7969,392.0469 221.4531,391.7969 Q221.8438,391.6406 222.2656,391.2031 Q222.5313,390.9375 222.6719,390.8594 Q222.8281,390.7813 223.0313,390.7813 Q223.3594,390.7813 223.6094,391.0469 Q223.875,391.2969 223.875,391.6406 Q223.875,391.9844 223.5313,392.3906 Q223.0313,392.9688 222.2344,393.2969 Q221.1563,393.75 219.8594,393.75 Q218.3438,393.75 217.1406,393.125 Q216.1563,392.625 215.4688,391.5625 Q214.7813,390.4844 214.7813,389.2031 L214.7813,388.0469 Q214.7813,386.7188 215.3906,385.5781 Q216.0156,384.4219 217.1094,383.8125 Q218.2031,383.1875 219.4375,383.1875 Q220.1719,383.1875 220.8125,383.3594 Q221.4688,383.5156 222.0156,383.875 Z " fill="#000000"/><text fill="#000000" font-family="FG Virgil" font-size="14" lengthAdjust="spacing" textLength="136" x="239.75" y="393.7969">CreateCourseService</text><line style="stroke:#181818;stroke-width:0.5;" x1="157" x2="426" y1="404" y2="404"/><line style="stroke:#181818;stroke-width:0.5;" x1="157" x2="426" y1="412" y2="412"/><ellipse cx="167" cy="426.8105" fill="#84BE84" rx="3" ry="3" style="stroke:#038048;stroke-width:1.0;"/><text fill="#000000" font-family="FG Virgil" font-size="14" lengthAdjust="spacing" textLength="50" x="176" y="431.1074">create()</text><ellipse cx="167" cy="464.0527" fill="#84BE84" rx="3" ry="3" style="stroke:#038048;stroke-width:1.0;"/><text fill="#000000" font-family="FG Virgil" font-size="14" lengthAdjust="spacing" textLength="245" x="176" y="449.7285">createCourse(Designation,Description,</text><text fill="#000000" font-family="FG Virgil" font-size="14" lengthAdjust="spacing" textLength="165" x="180" y="468.3496">Edition, minimumCapacity,</text><text fill="#000000" font-family="FG Virgil" font-size="14" lengthAdjust="spacing" textLength="118" x="180" y="486.9707">maximumCapacity)</text><ellipse cx="167" cy="501.2949" fill="#84BE84" rx="3" ry="3" style="stroke:#038048;stroke-width:1.0;"/><text fill="#000000" font-family="FG Virgil" font-size="14" lengthAdjust="spacing" textLength="129" x="176" y="505.5918">saveCourse(course)</text></g><!--class CourseBuilder--><g id="elem_CourseBuilder"><rect codeLine="30" fill="#F1F1F1" height="215.5898" id="CourseBuilder" rx="2.5" ry="2.5" style="stroke:#181818;stroke-width:0.5;" width="266" x="16.5" y="573"/><ellipse cx="100.25" cy="589" fill="#ADD1B2" rx="11" ry="11" style="stroke:#181818;stroke-width:1.0;"/><path d="M103.0156,584.875 Q103.1719,584.6563 103.3594,584.5469 Q103.5469,584.4375 103.7656,584.4375 Q104.1406,584.4375 104.375,584.7031 Q104.6094,584.9531 104.6094,585.5625 L104.6094,587.0156 Q104.6094,587.625 104.375,587.8906 Q104.1406,588.1563 103.7656,588.1563 Q103.4219,588.1563 103.2188,587.9531 Q103.0156,587.7656 102.9063,587.25 Q102.8594,586.8906 102.6719,586.7031 Q102.3438,586.3281 101.7344,586.1094 Q101.125,585.8906 100.5,585.8906 Q99.7344,585.8906 99.0938,586.2188 Q98.4688,586.5469 97.9688,587.2969 Q97.4844,588.0469 97.4844,589.0781 L97.4844,590.1719 Q97.4844,591.4063 98.375,592.2344 Q99.2656,593.0469 100.8594,593.0469 Q101.7969,593.0469 102.4531,592.7969 Q102.8438,592.6406 103.2656,592.2031 Q103.5313,591.9375 103.6719,591.8594 Q103.8281,591.7813 104.0313,591.7813 Q104.3594,591.7813 104.6094,592.0469 Q104.875,592.2969 104.875,592.6406 Q104.875,592.9844 104.5313,593.3906 Q104.0313,593.9688 103.2344,594.2969 Q102.1563,594.75 100.8594,594.75 Q99.3438,594.75 98.1406,594.125 Q97.1563,593.625 96.4688,592.5625 Q95.7813,591.4844 95.7813,590.2031 L95.7813,589.0469 Q95.7813,587.7188 96.3906,586.5781 Q97.0156,585.4219 98.1094,584.8125 Q99.2031,584.1875 100.4375,584.1875 Q101.1719,584.1875 101.8125,584.3594 Q102.4688,584.5156 103.0156,584.875 Z " fill="#000000"/><text fill="#000000" font-family="FG Virgil" font-size="14" lengthAdjust="spacing" textLength="90" x="120.75" y="594.7969">CourseBuilder</text><line style="stroke:#181818;stroke-width:0.5;" x1="17.5" x2="281.5" y1="605" y2="605"/><line style="stroke:#181818;stroke-width:0.5;" x1="17.5" x2="281.5" y1="613" y2="613"/><ellipse cx="27.5" cy="627.8105" fill="#84BE84" rx="3" ry="3" style="stroke:#038048;stroke-width:1.0;"/><text fill="#000000" font-family="FG Virgil" font-size="14" lengthAdjust="spacing" textLength="107" x="36.5" y="632.1074">withCourseTitle()</text><ellipse cx="27.5" cy="646.4316" fill="#84BE84" rx="3" ry="3" style="stroke:#038048;stroke-width:1.0;"/><text fill="#000000" font-family="FG Virgil" font-size="14" lengthAdjust="spacing" textLength="151" x="36.5" y="650.7285">withCourseDescription()</text><ellipse cx="27.5" cy="665.0527" fill="#84BE84" rx="3" ry="3" style="stroke:#038048;stroke-width:1.0;"/><text fill="#000000" font-family="FG Virgil" font-size="14" lengthAdjust="spacing" textLength="77" x="36.5" y="669.3496">withEdition()</text><ellipse cx="27.5" cy="683.6738" fill="#84BE84" rx="3" ry="3" style="stroke:#038048;stroke-width:1.0;"/><text fill="#000000" font-family="FG Virgil" font-size="14" lengthAdjust="spacing" textLength="144" x="36.5" y="687.9707">withMinimumCapacity()</text><ellipse cx="27.5" cy="702.2949" fill="#84BE84" rx="3" ry="3" style="stroke:#038048;stroke-width:1.0;"/><text fill="#000000" font-family="FG Virgil" font-size="14" lengthAdjust="spacing" textLength="147" x="36.5" y="706.5918">withMaximumCapacity()</text><ellipse cx="27.5" cy="720.916" fill="#84BE84" rx="3" ry="3" style="stroke:#038048;stroke-width:1.0;"/><text fill="#000000" font-family="FG Virgil" font-size="14" lengthAdjust="spacing" textLength="40" x="36.5" y="725.2129">build()</text><ellipse cx="27.5" cy="758.1582" fill="#84BE84" rx="3" ry="3" style="stroke:#038048;stroke-width:1.0;"/><text fill="#000000" font-family="FG Virgil" font-size="14" lengthAdjust="spacing" textLength="170" x="36.5" y="743.834">createCourse(Designation,</text><text fill="#000000" font-family="FG Virgil" font-size="14" lengthAdjust="spacing" textLength="126" x="36.5" y="762.4551">Description, Edition,</text><text fill="#000000" font-family="FG Virgil" font-size="14" lengthAdjust="spacing" textLength="236" x="40.5" y="781.0762">minimumCapacity, maximumCapacity)</text></g><!--class Course--><g id="elem_Course"><rect codeLine="40" fill="#F1F1F1" height="103.8633" id="Course" rx="2.5" ry="2.5" style="stroke:#181818;stroke-width:0.5;" width="266" x="7.5" y="849"/><ellipse cx="113.25" cy="865" fill="#ADD1B2" rx="11" ry="11" style="stroke:#181818;stroke-width:1.0;"/><path d="M116.0156,860.875 Q116.1719,860.6563 116.3594,860.5469 Q116.5469,860.4375 116.7656,860.4375 Q117.1406,860.4375 117.375,860.7031 Q117.6094,860.9531 117.6094,861.5625 L117.6094,863.0156 Q117.6094,863.625 117.375,863.8906 Q117.1406,864.1563 116.7656,864.1563 Q116.4219,864.1563 116.2188,863.9531 Q116.0156,863.7656 115.9063,863.25 Q115.8594,862.8906 115.6719,862.7031 Q115.3438,862.3281 114.7344,862.1094 Q114.125,861.8906 113.5,861.8906 Q112.7344,861.8906 112.0938,862.2188 Q111.4688,862.5469 110.9688,863.2969 Q110.4844,864.0469 110.4844,865.0781 L110.4844,866.1719 Q110.4844,867.4063 111.375,868.2344 Q112.2656,869.0469 113.8594,869.0469 Q114.7969,869.0469 115.4531,868.7969 Q115.8438,868.6406 116.2656,868.2031 Q116.5313,867.9375 116.6719,867.8594 Q116.8281,867.7813 117.0313,867.7813 Q117.3594,867.7813 117.6094,868.0469 Q117.875,868.2969 117.875,868.6406 Q117.875,868.9844 117.5313,869.3906 Q117.0313,869.9688 116.2344,870.2969 Q115.1563,870.75 113.8594,870.75 Q112.3438,870.75 111.1406,870.125 Q110.1563,869.625 109.4688,868.5625 Q108.7813,867.4844 108.7813,866.2031 L108.7813,865.0469 Q108.7813,863.7188 109.3906,862.5781 Q110.0156,861.4219 111.1094,860.8125 Q112.2031,860.1875 113.4375,860.1875 Q114.1719,860.1875 114.8125,860.3594 Q115.4688,860.5156 116.0156,860.875 Z " fill="#000000"/><text fill="#000000" font-family="FG Virgil" font-size="14" lengthAdjust="spacing" textLength="46" x="133.75" y="870.7969">Course</text><line style="stroke:#181818;stroke-width:0.5;" x1="8.5" x2="272.5" y1="881" y2="881"/><line style="stroke:#181818;stroke-width:0.5;" x1="8.5" x2="272.5" y1="889" y2="889"/><ellipse cx="18.5" cy="922.4316" fill="#84BE84" rx="3" ry="3" style="stroke:#038048;stroke-width:1.0;"/><text fill="#000000" font-family="FG Virgil" font-size="14" lengthAdjust="spacing" textLength="170" x="27.5" y="908.1074">createCourse(Designation,</text><text fill="#000000" font-family="FG Virgil" font-size="14" lengthAdjust="spacing" textLength="126" x="27.5" y="926.7285">Description, Edition,</text><text fill="#000000" font-family="FG Virgil" font-size="14" lengthAdjust="spacing" textLength="236" x="31.5" y="945.3496">minimumCapacity, maximumCapacity)</text></g><!--class PersistenceContext--><g id="elem_PersistenceContext"><rect codeLine="44" fill="#F1F1F1" height="85.2422" id="PersistenceContext" rx="2.5" ry="2.5" style="stroke:#181818;stroke-width:0.5;" width="234" x="321.5" y="638.5"/><ellipse cx="373.25" cy="654.5" fill="#ADD1B2" rx="11" ry="11" style="stroke:#181818;stroke-width:1.0;"/><path d="M376.0156,650.375 Q376.1719,650.1563 376.3594,650.0469 Q376.5469,649.9375 376.7656,649.9375 Q377.1406,649.9375 377.375,650.2031 Q377.6094,650.4531 377.6094,651.0625 L377.6094,652.5156 Q377.6094,653.125 377.375,653.3906 Q377.1406,653.6563 376.7656,653.6563 Q376.4219,653.6563 376.2188,653.4531 Q376.0156,653.2656 375.9063,652.75 Q375.8594,652.3906 375.6719,652.2031 Q375.3438,651.8281 374.7344,651.6094 Q374.125,651.3906 373.5,651.3906 Q372.7344,651.3906 372.0938,651.7188 Q371.4688,652.0469 370.9688,652.7969 Q370.4844,653.5469 370.4844,654.5781 L370.4844,655.6719 Q370.4844,656.9063 371.375,657.7344 Q372.2656,658.5469 373.8594,658.5469 Q374.7969,658.5469 375.4531,658.2969 Q375.8438,658.1406 376.2656,657.7031 Q376.5313,657.4375 376.6719,657.3594 Q376.8281,657.2813 377.0313,657.2813 Q377.3594,657.2813 377.6094,657.5469 Q377.875,657.7969 377.875,658.1406 Q377.875,658.4844 377.5313,658.8906 Q377.0313,659.4688 376.2344,659.7969 Q375.1563,660.25 373.8594,660.25 Q372.3438,660.25 371.1406,659.625 Q370.1563,659.125 369.4688,658.0625 Q368.7813,656.9844 368.7813,655.7031 L368.7813,654.5469 Q368.7813,653.2188 369.3906,652.0781 Q370.0156,650.9219 371.1094,650.3125 Q372.2031,649.6875 373.4375,649.6875 Q374.1719,649.6875 374.8125,649.8594 Q375.4688,650.0156 376.0156,650.375 Z " fill="#000000"/><text fill="#000000" font-family="FG Virgil" font-size="14" lengthAdjust="spacing" textLength="122" x="393.75" y="660.2969">PersistenceContext</text><line style="stroke:#181818;stroke-width:0.5;" x1="322.5" x2="554.5" y1="670.5" y2="670.5"/><line style="stroke:#181818;stroke-width:0.5;" x1="322.5" x2="554.5" y1="678.5" y2="678.5"/><ellipse cx="332.5" cy="693.3105" fill="#84BE84" rx="3" ry="3" style="stroke:#038048;stroke-width:1.0;"/><text fill="#000000" font-family="FG Virgil" font-size="14" lengthAdjust="spacing" textLength="50" x="341.5" y="697.6074">create()</text><ellipse cx="332.5" cy="711.9316" fill="#84BE84" rx="3" ry="3" style="stroke:#038048;stroke-width:1.0;"/><text fill="#000000" font-family="FG Virgil" font-size="14" lengthAdjust="spacing" textLength="208" x="341.5" y="716.2285">repositories(): RepositoryFactory</text></g><!--class RepositoryFactory--><g id="elem_RepositoryFactory"><rect codeLine="49" fill="#F1F1F1" height="85.2422" id="RepositoryFactory" rx="2.5" ry="2.5" style="stroke:#181818;stroke-width:0.5;" width="269" x="309" y="858.5"/><ellipse cx="381.25" cy="874.5" fill="#B4A7E5" rx="11" ry="11" style="stroke:#181818;stroke-width:1.0;"/><path d="M382.2031,871.1406 L382.2031,877.7969 L383.9219,877.7969 Q384.5313,877.7969 384.7969,878.0313 Q385.0625,878.2656 385.0625,878.6563 Q385.0625,879.0313 384.7969,879.2656 Q384.5313,879.5 383.9219,879.5 L378.7813,879.5 Q378.1719,879.5 377.9063,879.2656 Q377.6406,879.0313 377.6406,878.6406 Q377.6406,878.2656 377.9063,878.0313 Q378.1719,877.7969 378.7813,877.7969 L380.5,877.7969 L380.5,871.1406 L378.7813,871.1406 Q378.1719,871.1406 377.9063,870.9063 Q377.6406,870.6719 377.6406,870.2813 Q377.6406,869.9063 377.9063,869.6719 Q378.1719,869.4375 378.7813,869.4375 L383.9219,869.4375 Q384.5313,869.4375 384.7969,869.6719 Q385.0625,869.9063 385.0625,870.2813 Q385.0625,870.6719 384.7969,870.9063 Q384.5313,871.1406 383.9219,871.1406 L382.2031,871.1406 Z " fill="#000000"/><text fill="#000000" font-family="FG Virgil" font-size="14" font-style="italic" lengthAdjust="spacing" textLength="116" x="401.75" y="880.2969">RepositoryFactory</text><line style="stroke:#181818;stroke-width:0.5;" x1="310" x2="577" y1="890.5" y2="890.5"/><line style="stroke:#181818;stroke-width:0.5;" x1="310" x2="577" y1="898.5" y2="898.5"/><ellipse cx="320" cy="913.3105" fill="#84BE84" rx="3" ry="3" style="stroke:#038048;stroke-width:1.0;"/><text fill="#000000" font-family="FG Virgil" font-size="14" lengthAdjust="spacing" textLength="50" x="329" y="917.6074">create()</text><ellipse cx="320" cy="931.9316" fill="#84BE84" rx="3" ry="3" style="stroke:#038048;stroke-width:1.0;"/><text fill="#000000" font-family="FG Virgil" font-size="14" lengthAdjust="spacing" textLength="243" x="329" y="936.2285">courseRepository(): CourseRepository</text></g><!--class CourseRepository--><g id="elem_CourseRepository"><rect codeLine="55" fill="#F1F1F1" height="85.2422" id="CourseRepository" rx="2.5" ry="2.5" style="stroke:#181818;stroke-width:0.5;" width="155" x="366" y="1013"/><ellipse cx="385.05" cy="1029" fill="#B4A7E5" rx="11" ry="11" style="stroke:#181818;stroke-width:1.0;"/><path d="M386.0031,1025.6406 L386.0031,1032.2969 L387.7219,1032.2969 Q388.3313,1032.2969 388.5969,1032.5313 Q388.8625,1032.7656 388.8625,1033.1563 Q388.8625,1033.5313 388.5969,1033.7656 Q388.3313,1034 387.7219,1034 L382.5813,1034 Q381.9719,1034 381.7063,1033.7656 Q381.4406,1033.5313 381.4406,1033.1406 Q381.4406,1032.7656 381.7063,1032.5313 Q381.9719,1032.2969 382.5813,1032.2969 L384.3,1032.2969 L384.3,1025.6406 L382.5813,1025.6406 Q381.9719,1025.6406 381.7063,1025.4063 Q381.4406,1025.1719 381.4406,1024.7813 Q381.4406,1024.4063 381.7063,1024.1719 Q381.9719,1023.9375 382.5813,1023.9375 L387.7219,1023.9375 Q388.3313,1023.9375 388.5969,1024.1719 Q388.8625,1024.4063 388.8625,1024.7813 Q388.8625,1025.1719 388.5969,1025.4063 Q388.3313,1025.6406 387.7219,1025.6406 L386.0031,1025.6406 Z " fill="#000000"/><text fill="#000000" font-family="FG Virgil" font-size="14" font-style="italic" lengthAdjust="spacing" textLength="114" x="399.95" y="1034.7969">CourseRepository</text><line style="stroke:#181818;stroke-width:0.5;" x1="367" x2="520" y1="1045" y2="1045"/><line style="stroke:#181818;stroke-width:0.5;" x1="367" x2="520" y1="1053" y2="1053"/><ellipse cx="377" cy="1067.8105" fill="#84BE84" rx="3" ry="3" style="stroke:#038048;stroke-width:1.0;"/><text fill="#000000" font-family="FG Virgil" font-size="14" lengthAdjust="spacing" textLength="50" x="386" y="1072.1074">create()</text><ellipse cx="377" cy="1086.4316" fill="#84BE84" rx="3" ry="3" style="stroke:#038048;stroke-width:1.0;"/><text fill="#000000" font-family="FG Virgil" font-size="14" lengthAdjust="spacing" textLength="129" x="386" y="1090.7285">saveCourse(course)</text></g><!--class JpaCourseRepository--><g id="elem_JpaCourseRepository"><rect codeLine="60" fill="#F1F1F1" height="48" id="JpaCourseRepository" rx="2.5" ry="2.5" style="stroke:#181818;stroke-width:0.5;" width="168" x="359.5" y="1158"/><ellipse cx="374.5" cy="1174" fill="#ADD1B2" rx="11" ry="11" style="stroke:#181818;stroke-width:1.0;"/><path d="M377.2656,1169.875 Q377.4219,1169.6563 377.6094,1169.5469 Q377.7969,1169.4375 378.0156,1169.4375 Q378.3906,1169.4375 378.625,1169.7031 Q378.8594,1169.9531 378.8594,1170.5625 L378.8594,1172.0156 Q378.8594,1172.625 378.625,1172.8906 Q378.3906,1173.1563 378.0156,1173.1563 Q377.6719,1173.1563 377.4688,1172.9531 Q377.2656,1172.7656 377.1563,1172.25 Q377.1094,1171.8906 376.9219,1171.7031 Q376.5938,1171.3281 375.9844,1171.1094 Q375.375,1170.8906 374.75,1170.8906 Q373.9844,1170.8906 373.3438,1171.2188 Q372.7188,1171.5469 372.2188,1172.2969 Q371.7344,1173.0469 371.7344,1174.0781 L371.7344,1175.1719 Q371.7344,1176.4063 372.625,1177.2344 Q373.5156,1178.0469 375.1094,1178.0469 Q376.0469,1178.0469 376.7031,1177.7969 Q377.0938,1177.6406 377.5156,1177.2031 Q377.7813,1176.9375 377.9219,1176.8594 Q378.0781,1176.7813 378.2813,1176.7813 Q378.6094,1176.7813 378.8594,1177.0469 Q379.125,1177.2969 379.125,1177.6406 Q379.125,1177.9844 378.7813,1178.3906 Q378.2813,1178.9688 377.4844,1179.2969 Q376.4063,1179.75 375.1094,1179.75 Q373.5938,1179.75 372.3906,1179.125 Q371.4063,1178.625 370.7188,1177.5625 Q370.0313,1176.4844 370.0313,1175.2031 L370.0313,1174.0469 Q370.0313,1172.7188 370.6406,1171.5781 Q371.2656,1170.4219 372.3594,1169.8125 Q373.4531,1169.1875 374.6875,1169.1875 Q375.4219,1169.1875 376.0625,1169.3594 Q376.7188,1169.5156 377.2656,1169.875 Z " fill="#000000"/><text fill="#000000" font-family="FG Virgil" font-size="14" lengthAdjust="spacing" textLength="136" x="388.5" y="1179.7969">JpaCourseRepository</text><line style="stroke:#181818;stroke-width:0.5;" x1="360.5" x2="526.5" y1="1190" y2="1190"/><line style="stroke:#181818;stroke-width:0.5;" x1="360.5" x2="526.5" y1="1198" y2="1198"/></g><!--link CreateCourseUI to CreateCourseController--><g id="link_CreateCourseUI_CreateCourseController"><path codeLine="64" d="M291.5,111.24 C291.5,128.2 291.5,147.43 291.5,165.78 " fill="none" id="CreateCourseUI-to-CreateCourseController" style="stroke:#181818;stroke-width:1.0;stroke-dasharray:7.0,7.0;"/><polygon fill="#181818" points="291.5,170.93,295.5,161.93,291.5,165.93,287.5,161.93,291.5,170.93" style="stroke:#181818;stroke-width:1.0;"/></g><!--link CreateCourseController to CreateCourseService--><g id="link_CreateCourseController_CreateCourseService"><path codeLine="66" d="M291.5,312.1 C291.5,329.82 291.5,348.94 291.5,366.91 " fill="none" id="CreateCourseController-to-CreateCourseService" style="stroke:#181818;stroke-width:1.0;"/><polygon fill="#181818" points="291.5,371.94,295.5,362.94,291.5,366.94,287.5,362.94,291.5,371.94" style="stroke:#181818;stroke-width:1.0;"/></g><!--link CreateCourseService to CourseBuilder--><g id="link_CreateCourseService_CourseBuilder"><path codeLine="67" d="M249.66,513.18 C239.33,530.39 228,549.26 216.8,567.92 " fill="none" id="CreateCourseService-to-CourseBuilder" style="stroke:#181818;stroke-width:1.0;"/><polygon fill="#181818" points="213.95,572.66,222.0104,567.0005,216.5225,568.3725,215.1505,562.8846,213.95,572.66" style="stroke:#181818;stroke-width:1.0;"/></g><!--link CourseBuilder to Course--><g id="link_CourseBuilder_Course"><path codeLine="68" d="M145.08,789.08 C144.3,808.02 143.51,827.02 142.82,843.82 " fill="none" id="CourseBuilder-to-Course" style="stroke:#181818;stroke-width:1.0;"/><polygon fill="#181818" points="142.61,848.96,146.9665,840.1271,142.8098,843.964,138.9729,839.8073,142.61,848.96" style="stroke:#181818;stroke-width:1.0;"/></g><!--reverse link CourseRepository to JpaCourseRepository--><g id="link_CourseRepository_JpaCourseRepository"><path codeLine="71" d="M443.5,1118.59 C443.5,1132.67 443.5,1146.77 443.5,1157.99 " fill="none" id="CourseRepository-backto-JpaCourseRepository" style="stroke:#181818;stroke-width:1.0;"/><polygon fill="none" points="436.5,1118.3,443.5,1098.3,450.5,1118.3,436.5,1118.3" style="stroke:#181818;stroke-width:1.0;"/></g><!--link CreateCourseService to PersistenceContext--><g id="link_CreateCourseService_PersistenceContext"><path codeLine="72" d="M334.81,513.18 C358.96,552.04 388.38,599.37 409.7,633.67 " fill="none" id="CreateCourseService-to-PersistenceContext" style="stroke:#181818;stroke-width:1.0;"/><polygon fill="#181818" points="412.53,638.21,411.1668,628.4559,409.8864,633.966,404.3764,632.6857,412.53,638.21" style="stroke:#181818;stroke-width:1.0;"/></g><!--link PersistenceContext to RepositoryFactory--><g id="link_PersistenceContext_RepositoryFactory"><path codeLine="73" d="M439.45,723.52 C440.3,760.52 441.54,814.64 442.43,853.17 " fill="none" id="PersistenceContext-to-RepositoryFactory" style="stroke:#181818;stroke-width:1.0;"/><polygon fill="#181818" points="442.54,858.27,446.3333,849.1809,442.4257,853.2713,438.3354,849.3638,442.54,858.27" style="stroke:#181818;stroke-width:1.0;"/></g><!--link RepositoryFactory to CourseRepository--><g id="link_RepositoryFactory_CourseRepository"><path codeLine="74" d="M443.5,943.67 C443.5,963.51 443.5,987.31 443.5,1007.76 " fill="none" id="RepositoryFactory-to-CourseRepository" style="stroke:#181818;stroke-width:1.0;"/><polygon fill="#181818" points="443.5,1012.88,447.5,1003.88,443.5,1007.88,439.5,1003.88,443.5,1012.88" style="stroke:#181818;stroke-width:1.0;"/></g><!--SRC=[jPJDRjim383lUWhTbg1p7w277EejHGkq69PkfruucKc8of8XoKc3Rky-oMfYArPG16XziKHIvCSVwOjz9jM0WPfR58wqOgmNDI2UOOKBjvF8ZTSFT1KkePLkhfLxW1hv_8R_9hCYER2nQwZqbjIABq5QP4n8i9QN1i5XgLjZyTSjVsNSVnULNgprTZADEz7PfBjumaw-eQMLWa3xrQ-5eQPRy-yLnKLDYkgsBi5dG6xd1V0o54pPlnnCwPCnMaeqUwWqy1lDabGLHTUxs-fQQucWSgWVGjfvDTXeIquRwZ74WIgVpGBDXWIcgPo5-QHEWtfT7jN2Pkyt4dR5FW36khKagxxAMtBhg7Wa9m-ClNW0DLI-mGr5zobceafnzwe_WUNTiZofRFz25SwOjSwlp_gJu_n0OyawLA8RQNnnVKoVwGLFn-cA_zplTtCGuHTyaJzfbk0dQAG-SXVxt5i5b-MHZAKkZzMfn_mCyPZTNGEPqy7Ww66vz8-FkfoTkEAf-U3g5-5OCSlT9PQxNmVxuMYpTD1J6tyRibaKRLFydOrBbutglOtxp3Aj3vRZ1ezxMXIPqF7x3m00]--></g></svg>