<?xml version="1.0" encoding="us-ascii" standalone="no"?><svg xmlns="http://www.w3.org/2000/svg" xmlns:xlink="http://www.w3.org/1999/xlink" contentStyleType="text/css" height="374px" preserveAspectRatio="none" style="width:466px;height:374px;background:#FFFFFF;" version="1.1" viewBox="0 0 466 374" width="466px" zoomAndPan="magnify"><defs/><g><polygon fill="#FFFFFF" points="31,93.6211,31,93.6912,33,93.483,35,93.6855,37,93.7543,39,93.3833,41,93.6211,40.9223,93.6211,40.5735,103.607,40.6165,113.5929,40.9318,123.5788,40.3086,133.5647,41.5536,143.5506,40.3697,153.5365,40.8022,163.5224,41.4319,173.5082,40.9142,183.4941,41.0682,193.48,40.9681,203.4659,41.1785,213.4518,41.2391,223.4377,41.5857,233.4236,41.6711,243.4095,41.6793,253.3954,41.2546,263.3813,41,273.3672,41,273.5217,39,273.6013,37,273.1268,35,273.5934,33,273.2684,31,273.3672,31.5338,273.3672,30.505,263.3813,30.9315,253.3954,31.7416,243.4095,30.9513,233.4236,31.1053,223.4377,31.3386,213.4518,31.4162,203.4659,30.9961,193.48,31.2872,183.4941,30.4276,173.5082,31.2844,163.5224,31.5482,153.5365,31.4445,143.5506,31.613,133.5647,30.5169,123.5788,30.3478,113.5929,30.3786,103.607,31,93.6211" style="stroke:#181818;stroke-width:1.0;"/><polygon fill="#FFFFFF" points="425,116.9121,425,116.9822,427,116.774,429,116.9765,431,117.0453,433,116.6743,435,116.9121,434.9741,116.9121,434.8578,123.1703,434.8722,129.4285,434.9773,135.6867,434.7695,141.9449,435,148.2031,435,148.3877,433,147.993,431,148.1372,429,148.3471,427,148.1745,425,148.2031,425.0227,148.2031,424.9894,141.9449,425.0595,135.6867,425.0797,129.4285,425.1952,123.1703,425,116.9121" style="stroke:#181818;stroke-width:1.0;"/><polygon fill="#FFFFFF" points="425,179.4941,425,179.5642,427,179.356,429,179.5586,431,179.6274,433,179.2563,435,179.4941,434.9741,179.4941,434.8578,185.7523,434.8722,192.0105,434.9773,198.2688,434.7695,204.527,435,210.7852,435,210.9697,433,210.5751,431,210.7192,429,210.9291,427,210.7566,425,210.7852,425.0227,210.7852,424.9894,204.527,425.0595,198.2688,425.0797,192.0105,425.1952,185.7523,425,179.4941" style="stroke:#181818;stroke-width:1.0;"/><polygon fill="#FFFFFF" points="425,242.0762,425,242.1462,427,241.9381,429,242.1406,431,242.2094,433,241.8384,435,242.0762,434.9741,242.0762,434.8578,248.3344,434.8722,254.5926,434.9773,260.8508,434.7695,267.109,435,273.3672,435,273.5517,433,273.1571,431,273.3013,429,273.5112,427,273.3386,425,273.3672,425.0227,273.3672,424.9894,267.109,425.0595,260.8508,425.0797,254.5926,425.1952,248.3344,425,242.0762" style="stroke:#181818;stroke-width:1.0;"/><path d="M36,83.6211 L36.2802,83.6211 L35.4476,93.5138 L36.2577,103.4064 L36.5329,113.2991 L35.0488,123.1918 L35.8964,133.0844 L35.4313,142.9771 L35.4887,152.8698 L35.9091,162.7625 L35.0782,172.6551 L36.7382,182.5478 L35.1596,192.4405 L35.7363,202.3331 L36.5759,212.2258 L35.8856,222.1185 L36.091,232.0112 L35.9574,241.9038 L36.238,251.7965 L36.3188,261.6892 L36.7809,271.5818 L36.8947,281.4745 L36,291.3672 " fill="none" style="stroke:#181818;stroke-width:0.5;stroke-dasharray:5.0,5.0;"/><path d="M430,83.6211 L430.2802,83.6211 L429.4476,93.5138 L430.2577,103.4064 L430.5329,113.2991 L429.0488,123.1918 L429.8964,133.0844 L429.4313,142.9771 L429.4887,152.8698 L429.9091,162.7625 L429.0782,172.6551 L430.7382,182.5478 L429.1596,192.4405 L429.7363,202.3331 L430.5759,212.2258 L429.8856,222.1185 L430.091,232.0112 L429.9574,241.9038 L430.238,251.7965 L430.3188,261.6892 L430.7809,271.5818 L430.8947,281.4745 L430,291.3672 " fill="none" style="stroke:#181818;stroke-width:0.5;stroke-dasharray:5.0,5.0;"/><text fill="#000000" font-family="FG Virgil" font-size="14" lengthAdjust="spacing" textLength="56" x="5" y="80.1074">Manager</text><polygon fill="#E3E3E3" points="44.0442,15.4459,42.8715,17.0482,41.4845,19.3951,39.5008,20.9767,37.4163,21.8415,35.7542,21.9166,33.618,20.8349,31.6023,20.1283,30.0724,18.6936,29.2699,17.0511,28.7939,15.7433,28.3277,14.0351,27.5709,12.5651,28.1525,11.1298,28.662,9.5576,30.574,8.3142,31.9192,6.7008,33.5843,6.165,35.5637,5.7037,38.1021,5.9778,39.4924,6.6335,41.1089,6.9307,43.0743,8.9443,43.7595,11.0701,44.0571,12.5206,43.72,14.9108" style="stroke:#181818;stroke-width:0.5;"/><path d="M36,21.5 L36.1868,21.5 L35.6317,26.9 L36.1718,32.3 L36.3553,37.7 L35.3659,43.1 L36,48.5 M23,29.5 L23,29.4309 L28.2,29.1209 L33.4,29.1591 L38.6,29.4394 L43.8,28.8854 L49,29.5 M36,48.5 L36.3719,48.8223 L32.9766,51.1331 L30.6672,54.3849 L28.4901,57.7515 L25.5424,60.4501 L23,63.5 M36,48.5 L36.0458,48.5397 L38.5785,51.4814 L41.3199,54.6039 L43.9606,57.6392 L46.7934,60.841 L49,63.5 " fill="none" style="stroke:#181818;stroke-width:0.5;"/><text fill="#000000" font-family="FG Virgil" font-size="14" lengthAdjust="spacing" textLength="56" x="5" y="305.4746">Manager</text><polygon fill="#E3E3E3" points="44.0442,319.4342,42.8715,321.0365,41.4845,323.3833,39.5008,324.9649,37.4163,325.8298,35.7542,325.9049,33.618,324.8232,31.6023,324.1166,30.0724,322.6819,29.2699,321.0394,28.7939,319.7316,28.3277,318.0233,27.5709,316.5534,28.1525,315.1181,28.662,313.5459,30.574,312.3024,31.9192,310.6891,33.5843,310.1533,35.5637,309.692,38.1021,309.9661,39.4924,310.6218,41.1089,310.919,43.0743,312.9326,43.7595,315.0584,44.0571,316.5089,43.72,318.8991" style="stroke:#181818;stroke-width:0.5;"/><path d="M36,325.4883 L36.1868,325.4883 L35.6317,330.8883 L36.1718,336.2883 L36.3553,341.6883 L35.3659,347.0883 L36,352.4883 M23,333.4883 L23,333.4192 L28.2,333.1092 L33.4,333.1474 L38.6,333.4277 L43.8,332.8737 L49,333.4883 M36,352.4883 L36.3719,352.8106 L32.9766,355.1214 L30.6672,358.3731 L28.4901,361.7397 L25.5424,364.4383 L23,367.4883 M36,352.4883 L36.0458,352.528 L38.5785,355.4697 L41.3199,358.5922 L43.9606,361.6275 L46.7934,364.8292 L49,367.4883 " fill="none" style="stroke:#181818;stroke-width:0.5;"/><polygon fill="#E3E3E3" points="402.5,50,402.5,50.2102,411.6667,49.5857,420.8333,50.1933,430,50.3997,439.1667,49.2866,448.3333,49.9223,457.5,50,457.4456,49.8687,457.8046,50.0283,458.1984,50.2719,458.4725,50.2264,458.9848,50.7563,459.2678,50.7322,459.0737,50.6518,459.3533,51.0606,459.6937,51.4944,459.6807,51.782,459.8746,52.1552,460,52.5,459.9894,52.5,460.0595,58.0242,460.0797,63.5484,460.1952,69.0727,460.2237,74.5969,460,80.1211,460.2092,80.2077,459.932,80.5071,459.8499,80.8873,459.7769,81.2713,459.1921,81.4433,459.2678,81.8889,459.3543,82.0978,458.8764,81.944,458.6288,82.3461,458.144,82.1758,457.8448,82.4536,457.5,82.6211,457.5,83.3627,448.3333,82.5724,439.1667,82.7264,430,82.9597,420.8333,83.0373,411.6667,82.6172,402.5,82.6211,402.5366,82.7095,402.0734,82.2984,401.8292,82.4158,401.5093,82.3506,401.1425,82.1722,400.7322,81.8889,400.921,81.9671,400.437,81.4737,400.2385,81.0986,400.1015,80.7489,400.1283,80.4671,400,80.1211,399.9345,80.1211,400.2271,74.5969,399.9418,69.0727,399.8856,63.5484,400.0761,58.0242,400,52.5,399.7946,52.4149,399.9866,52.0802,400.4927,51.8757,400.5735,51.4949,400.812,51.1795,400.7322,50.7322,400.6912,50.6331,401.1265,50.6841,401.5147,50.6212,401.7326,50.1474,402.1342,50.1169,402.5,50" style="stroke:#181818;stroke-width:0.5;"/><text fill="#000000" font-family="FG Virgil" font-size="14" lengthAdjust="spacing" textLength="46" x="407" y="72.1074">System</text><polygon fill="#E3E3E3" points="402.5,290.3672,402.5,290.5774,411.6667,289.9529,420.8333,290.5605,430,290.7669,439.1667,289.6538,448.3333,290.2895,457.5,290.3672,457.4456,290.2358,457.8046,290.3955,458.1984,290.6391,458.4725,290.5936,458.9848,291.1235,459.2678,291.0994,459.0737,291.019,459.3533,291.4277,459.6937,291.8616,459.6807,292.1491,459.8746,292.5223,460,292.8672,459.9894,292.8672,460.0595,298.3914,460.0797,303.9156,460.1952,309.4398,460.2237,314.9641,460,320.4883,460.2092,320.5749,459.932,320.8743,459.8499,321.2545,459.7769,321.6385,459.1921,321.8105,459.2678,322.256,459.3543,322.465,458.8764,322.3112,458.6288,322.7133,458.144,322.5429,457.8448,322.8207,457.5,322.9883,457.5,323.7299,448.3333,322.9395,439.1667,323.0936,430,323.3269,420.8333,323.4045,411.6667,322.9844,402.5,322.9883,402.5366,323.0767,402.0734,322.6656,401.8292,322.783,401.5093,322.7178,401.1425,322.5394,400.7322,322.256,400.921,322.3342,400.437,321.8409,400.2385,321.4657,400.1015,321.1161,400.1283,320.8343,400,320.4883,399.9345,320.4883,400.2271,314.9641,399.9418,309.4398,399.8856,303.9156,400.0761,298.3914,400,292.8672,399.7946,292.7821,399.9866,292.4474,400.4927,292.2429,400.5735,291.8621,400.812,291.5467,400.7322,291.0994,400.6912,291.0003,401.1265,291.0513,401.5147,290.9884,401.7326,290.5146,402.1342,290.4841,402.5,290.3672" style="stroke:#181818;stroke-width:0.5;"/><text fill="#000000" font-family="FG Virgil" font-size="14" lengthAdjust="spacing" textLength="46" x="407" y="312.4746">System</text><polygon fill="#FFFFFF" points="31,93.6211,31,93.6912,33,93.483,35,93.6855,37,93.7543,39,93.3833,41,93.6211,40.9223,93.6211,40.5735,103.607,40.6165,113.5929,40.9318,123.5788,40.3086,133.5647,41.5536,143.5506,40.3697,153.5365,40.8022,163.5224,41.4319,173.5082,40.9142,183.4941,41.0682,193.48,40.9681,203.4659,41.1785,213.4518,41.2391,223.4377,41.5857,233.4236,41.6711,243.4095,41.6793,253.3954,41.2546,263.3813,41,273.3672,41,273.5217,39,273.6013,37,273.1268,35,273.5934,33,273.2684,31,273.3672,31.5338,273.3672,30.505,263.3813,30.9315,253.3954,31.7416,243.4095,30.9513,233.4236,31.1053,223.4377,31.3386,213.4518,31.4162,203.4659,30.9961,193.48,31.2872,183.4941,30.4276,173.5082,31.2844,163.5224,31.5482,153.5365,31.4445,143.5506,31.613,133.5647,30.5169,123.5788,30.3478,113.5929,30.3786,103.607,31,93.6211" style="stroke:#181818;stroke-width:1.0;"/><polygon fill="#FFFFFF" points="425,116.9121,425,116.9822,427,116.774,429,116.9765,431,117.0453,433,116.6743,435,116.9121,434.9741,116.9121,434.8578,123.1703,434.8722,129.4285,434.9773,135.6867,434.7695,141.9449,435,148.2031,435,148.3877,433,147.993,431,148.1372,429,148.3471,427,148.1745,425,148.2031,425.0227,148.2031,424.9894,141.9449,425.0595,135.6867,425.0797,129.4285,425.1952,123.1703,425,116.9121" style="stroke:#181818;stroke-width:1.0;"/><polygon fill="#FFFFFF" points="425,179.4941,425,179.5642,427,179.356,429,179.5586,431,179.6274,433,179.2563,435,179.4941,434.9741,179.4941,434.8578,185.7523,434.8722,192.0105,434.9773,198.2688,434.7695,204.527,435,210.7852,435,210.9697,433,210.5751,431,210.7192,429,210.9291,427,210.7566,425,210.7852,425.0227,210.7852,424.9894,204.527,425.0595,198.2688,425.0797,192.0105,425.1952,185.7523,425,179.4941" style="stroke:#181818;stroke-width:1.0;"/><polygon fill="#FFFFFF" points="425,242.0762,425,242.1462,427,241.9381,429,242.1406,431,242.2094,433,241.8384,435,242.0762,434.9741,242.0762,434.8578,248.3344,434.8722,254.5926,434.9773,260.8508,434.7695,267.109,435,273.3672,435,273.5517,433,273.1571,431,273.3013,429,273.5112,427,273.3386,425,273.3672,425.0227,273.3672,424.9894,267.109,425.0595,260.8508,425.0797,254.5926,425.1952,248.3344,425,242.0762" style="stroke:#181818;stroke-width:1.0;"/><polygon fill="#181818" points="413,112.9121,413.026,112.9772,414.9487,113.5839,417.0239,114.5719,419.0495,115.4358,420.9117,115.8913,423,116.9121,422.9904,116.8881,420.9472,117.5801,418.9525,118.3934,416.9916,119.291,414.9144,119.8981,413,120.9121,413.1305,121.0426,413.6514,119.9636,414.5534,119.2655,415.5018,118.6139,416.1798,117.6919,417,116.9121,417.0161,116.9282,416.1925,116.1046,415.4421,115.3542,414.6564,114.5685,413.938,113.8502,413,112.9121" style="stroke:#181818;stroke-width:1.0;"/><path d="M41,116.9121 L41,117.1924 L50.9474,116.3597 L60.8947,117.1698 L70.8421,117.445 L80.7895,115.9609 L90.7368,116.8085 L100.6842,116.3435 L110.6316,116.4008 L120.5789,116.8212 L130.5263,115.9903 L140.4737,117.6503 L150.4211,116.0717 L160.3684,116.6484 L170.3158,117.488 L180.2632,116.7977 L190.2105,117.0031 L200.1579,116.8695 L210.1053,117.1501 L220.0526,117.231 L230,117.693 L239.9474,117.8068 L249.8947,117.8178 L259.8421,117.2516 L269.7895,117.5302 L279.7368,117.8484 L289.6842,115.9505 L299.6316,117.8168 L309.5789,116.5168 L319.5263,117.6239 L329.4737,116.2521 L339.4211,116.8208 L349.3684,117.9009 L359.3158,116.8471 L369.2632,117.0525 L379.2105,117.3636 L389.1579,117.4671 L399.1053,116.9069 L409.0526,117.2951 L419,116.9121 " fill="none" style="stroke:#181818;stroke-width:1.0;"/><text fill="#000000" font-family="FG Virgil" font-size="13" lengthAdjust="spacing" textLength="143" x="48" y="111.6494">i want to create a course</text><polygon fill="#181818" points="52,144.2031,52.026,144.2682,49.9487,144.8749,48.0239,145.8629,46.0495,146.7268,43.9117,147.1823,42,148.2031,41.9904,148.1791,43.9472,148.8711,45.9525,149.6844,47.9916,150.582,49.9144,151.1892,52,152.2031,52.1305,152.3336,51.0514,151.2546,50.3534,150.5565,49.7018,149.9049,48.7798,148.9829,48,148.2031,48.0161,148.2192,48.7925,147.3956,49.6421,146.6452,50.4564,145.8595,51.338,145.1412,52,144.2031" style="stroke:#181818;stroke-width:1.0;"/><path d="M46,148.2031 L46,148.4834 L56.0789,147.6507 L66.1579,148.4608 L76.2368,148.736 L86.3158,147.2519 L96.3947,148.0995 L106.4737,147.6345 L116.5526,147.6918 L126.6316,148.1122 L136.7105,147.2813 L146.7895,148.9413 L156.8684,147.3628 L166.9474,147.9394 L177.0263,148.7791 L187.1053,148.0888 L197.1842,148.2941 L207.2632,148.1605 L217.3421,148.4412 L227.4211,148.522 L237.5,148.984 L247.5789,149.0979 L257.6579,149.1088 L267.7368,148.5426 L277.8158,148.8212 L287.8947,149.1394 L297.9737,147.2415 L308.0526,149.1078 L318.1316,147.8078 L328.2105,148.9149 L338.2895,147.5431 L348.3684,148.1118 L358.4474,149.1919 L368.5263,148.1381 L378.6053,148.3435 L388.6842,148.6546 L398.7632,148.7581 L408.8421,148.1979 L418.9211,148.5861 L429,148.2031 " fill="none" style="stroke:#181818;stroke-width:1.0;"/><text fill="#000000" font-family="FG Virgil" font-size="13" lengthAdjust="spacing" textLength="259" x="58" y="142.9404">request data related to creation of the course</text><polygon fill="#181818" points="413,175.4941,413.026,175.5592,414.9487,176.1659,417.0239,177.154,419.0495,178.0178,420.9117,178.4734,423,179.4941,422.9904,179.4701,420.9472,180.1621,418.9525,180.9755,416.9916,181.873,414.9144,182.4802,413,183.4941,413.1305,183.6246,413.6514,182.5456,414.5534,181.8475,415.5018,181.196,416.1798,180.2739,417,179.4941,417.0161,179.5102,416.1925,178.6866,415.4421,177.9362,414.6564,177.1505,413.938,176.4322,413,175.4941" style="stroke:#181818;stroke-width:1.0;"/><path d="M41,179.4941 L41,179.7744 L50.9474,178.9417 L60.8947,179.7519 L70.8421,180.027 L80.7895,178.5429 L90.7368,179.3905 L100.6842,178.9255 L110.6316,178.9828 L120.5789,179.4033 L130.5263,178.5723 L140.4737,180.2323 L150.4211,178.6538 L160.3684,179.2305 L170.3158,180.0701 L180.2632,179.3798 L190.2105,179.5851 L200.1579,179.4515 L210.1053,179.7322 L220.0526,179.813 L230,180.2751 L239.9474,180.3889 L249.8947,180.3998 L259.8421,179.8336 L269.7895,180.1123 L279.7368,180.4304 L289.6842,178.5326 L299.6316,180.3988 L309.5789,179.0988 L319.5263,180.2059 L329.4737,178.8341 L339.4211,179.4028 L349.3684,180.4829 L359.3158,179.4292 L369.2632,179.6345 L379.2105,179.9456 L389.1579,180.0491 L399.1053,179.4889 L409.0526,179.8771 L419,179.4941 " fill="none" style="stroke:#181818;stroke-width:1.0;"/><text fill="#000000" font-family="FG Virgil" font-size="13" lengthAdjust="spacing" textLength="129" x="48" y="174.2314">inserts requested data</text><polygon fill="#181818" points="52,206.7852,52.026,206.8502,49.9487,207.4569,48.0239,208.445,46.0495,209.3089,43.9117,209.7644,42,210.7852,41.9904,210.7611,43.9472,211.4532,45.9525,212.2665,47.9916,213.1641,49.9144,213.7712,52,214.7852,52.1305,214.9157,51.0514,213.8366,50.3534,213.1385,49.7018,212.487,48.7798,211.5649,48,210.7852,48.0161,210.8012,48.7925,209.9776,49.6421,209.2272,50.4564,208.4415,51.338,207.7232,52,206.7852" style="stroke:#181818;stroke-width:1.0;"/><path d="M46,210.7852 L46,211.0654 L56.0789,210.2327 L66.1579,211.0429 L76.2368,211.3181 L86.3158,209.834 L96.3947,210.6815 L106.4737,210.2165 L116.5526,210.2738 L126.6316,210.6943 L136.7105,209.8633 L146.7895,211.5233 L156.8684,209.9448 L166.9474,210.5215 L177.0263,211.3611 L187.1053,210.6708 L197.1842,210.8761 L207.2632,210.7426 L217.3421,211.0232 L227.4211,211.104 L237.5,211.5661 L247.5789,211.6799 L257.6579,211.6908 L267.7368,211.1247 L277.8158,211.4033 L287.8947,211.7215 L297.9737,209.8236 L308.0526,211.6898 L318.1316,210.3898 L328.2105,211.4969 L338.2895,210.1251 L348.3684,210.6938 L358.4474,211.774 L368.5263,210.7202 L378.6053,210.9256 L388.6842,211.2367 L398.7632,211.3401 L408.8421,210.7799 L418.9211,211.1681 L429,210.7852 " fill="none" style="stroke:#181818;stroke-width:1.0;"/><text fill="#000000" font-family="FG Virgil" font-size="13" lengthAdjust="spacing" textLength="160" x="58" y="205.5225">request confirmation of data</text><polygon fill="#181818" points="413,238.0762,413.026,238.1412,414.9487,238.7479,417.0239,239.736,419.0495,240.5999,420.9117,241.0554,423,242.0762,422.9904,242.0521,420.9472,242.7442,418.9525,243.5575,416.9916,244.4551,414.9144,245.0622,413,246.0762,413.1305,246.2067,413.6514,245.1276,414.5534,244.4296,415.5018,243.778,416.1798,242.856,417,242.0762,417.0161,242.0923,416.1925,241.2686,415.4421,240.5183,414.6564,239.7325,413.938,239.0142,413,238.0762" style="stroke:#181818;stroke-width:1.0;"/><path d="M41,242.0762 L41,242.3564 L50.9474,241.5237 L60.8947,242.3339 L70.8421,242.6091 L80.7895,241.125 L90.7368,241.9726 L100.6842,241.5075 L110.6316,241.5648 L120.5789,241.9853 L130.5263,241.1543 L140.4737,242.8144 L150.4211,241.2358 L160.3684,241.8125 L170.3158,242.6521 L180.2632,241.9618 L190.2105,242.1672 L200.1579,242.0336 L210.1053,242.3142 L220.0526,242.395 L230,242.8571 L239.9474,242.9709 L249.8947,242.9818 L259.8421,242.4157 L269.7895,242.6943 L279.7368,243.0125 L289.6842,241.1146 L299.6316,242.9809 L309.5789,241.6808 L319.5263,242.7879 L329.4737,241.4161 L339.4211,241.9848 L349.3684,243.065 L359.3158,242.0112 L369.2632,242.2166 L379.2105,242.5277 L389.1579,242.6311 L399.1053,242.071 L409.0526,242.4591 L419,242.0762 " fill="none" style="stroke:#181818;stroke-width:1.0;"/><text fill="#000000" font-family="FG Virgil" font-size="13" lengthAdjust="spacing" textLength="265" x="48" y="236.8135">confirms data related to creation of the course</text><polygon fill="#181818" points="47,269.3672,47.026,269.4322,44.9487,270.039,43.0239,271.027,41.0495,271.8909,38.9117,272.3464,37,273.3672,36.9904,273.3431,38.9472,274.0352,40.9525,274.8485,42.9916,275.7461,44.9144,276.3532,47,277.3672,47.1305,277.4977,46.0514,276.4186,45.3534,275.7206,44.7018,275.069,43.7798,274.147,43,273.3672,43.0161,273.3833,43.7925,272.5597,44.6421,271.8093,45.4564,271.0236,46.338,270.3052,47,269.3672" style="stroke:#181818;stroke-width:1.0;"/><path d="M41,273.3672 L41,273.6474 L50.9487,272.8148 L60.8974,273.6249 L70.8462,273.9001 L80.7949,272.416 L90.7436,273.2636 L100.6923,272.7985 L110.641,272.8559 L120.5897,273.2763 L130.5385,272.4454 L140.4872,274.1054 L150.4359,272.5268 L160.3846,273.1035 L170.3333,273.9431 L180.2821,273.2528 L190.2308,273.4582 L200.1795,273.3246 L210.1282,273.6052 L220.0769,273.686 L230.0256,274.1481 L239.9744,274.2619 L249.9231,274.2729 L259.8718,273.7067 L269.8205,273.9853 L279.7692,274.3035 L289.7179,272.4056 L299.6667,274.2719 L309.6154,272.9718 L319.5641,274.0789 L329.5128,272.7072 L339.4615,273.2759 L349.4103,274.356 L359.359,273.3022 L369.3077,273.5076 L379.2564,273.8187 L389.2051,273.9222 L399.1538,273.362 L409.1026,273.7501 L419.0513,272.604 L429,273.3672 " fill="none" style="stroke:#181818;stroke-width:1.0;"/><text fill="#000000" font-family="FG Virgil" font-size="13" lengthAdjust="spacing" textLength="360" x="53" y="268.1045">informs the success or insuccess of the creation of the course</text><!--SRC=[ZP6xRiCm34LtVGMtJett30Mwf5Ex1EXEIBGbH19TYOgHlw_So8QHPl14y74FBwKNAp8Uksxq6AK4Vz0SkdnnSSI4uM0bUBMcO36QAJaHYY2fqAOLEBAsYGCzTaRK5npeB3TFa4ZBfcUen-Bbn56-i4fF7_3jqk2sIxD5mvEB0_JeCodrheKJV6AirAGKQd5N55ehBSBh6vnlMIWSmS5KxmDXq8dcMGJD9LNQghwFgdkeqaOvLii_XRA0GS6Q-3fiLfBZ2Do3M5g0XXwHJmt5J4do0g_46V_FJRC3p_neZhrBOVNm1zYtlKdptflss7AnvnavotBHcdA6-atrq2LfoBtFjgcq9Ry0]--></g></svg>