<?xml version="1.0" encoding="us-ascii" standalone="no"?><svg xmlns="http://www.w3.org/2000/svg" xmlns:xlink="http://www.w3.org/1999/xlink" contentStyleType="text/css" height="281px" preserveAspectRatio="none" style="width:1060px;height:281px;background:#FFFFFF;" version="1.1" viewBox="0 0 1060 281" width="1060px" zoomAndPan="magnify"><defs/><g><text fill="#000000" font-family="sans-serif" font-size="14" font-weight="bold" lengthAdjust="spacing" textLength="156" x="445" y="25.1074">Domain Driven Design</text><!--cluster <<Aggregate>> Course--><g id="cluster_&lt;&lt;Aggregate&gt;&gt; Course"><rect fill="none" height="229" rx="2.5" ry="2.5" style="stroke:#181818;stroke-width:1.0;" width="1047" x="7" y="46.6211"/><text fill="#000000" font-family="sans-serif" font-size="14" font-weight="bold" lengthAdjust="spacing" textLength="144" x="458.5" y="63.7285">&#171;Aggregate&#187; Course</text></g><!--class Course--><g id="elem_Course"><rect codeLine="13" fill="#F1F1F1" height="60.543" id="Course" rx="2.5" ry="2.5" style="stroke:#181818;stroke-width:0.5;" width="78" x="488" y="83.6211"/><ellipse cx="503" cy="113.8926" fill="#ADD1B2" rx="11" ry="11" style="stroke:#181818;stroke-width:1.0;"/><path d="M501.8594,114.6895 L501.8594,117.1895 L506.1875,117.1895 L506.1875,116.2676 Q506.1875,115.6582 506.4219,115.3926 Q506.6719,115.127 507.0469,115.127 Q507.4219,115.127 507.6563,115.3926 Q507.8906,115.6582 507.8906,116.2676 L507.8906,118.8926 L499.8906,118.8926 Q499.2656,118.8926 499,118.6582 Q498.75,118.4238 498.75,118.0332 Q498.75,117.6582 499.0156,117.4238 Q499.2813,117.1895 499.8906,117.1895 L500.1563,117.1895 L500.1563,110.5332 L499.8906,110.5332 Q499.2656,110.5332 499,110.2988 Q498.75,110.0645 498.75,109.6738 Q498.75,109.2988 499,109.0645 Q499.2656,108.8301 499.8906,108.8301 L507.5156,108.8301 L507.5156,111.4238 Q507.5156,112.0332 507.2813,112.2988 Q507.0625,112.5488 506.6719,112.5488 Q506.2969,112.5488 506.0625,112.2988 Q505.8281,112.0332 505.8281,111.4238 L505.8281,110.5332 L501.8594,110.5332 L501.8594,112.9863 L503.3438,112.9863 Q503.3438,112.3301 503.4688,112.1426 Q503.7344,111.7363 504.2031,111.7363 Q504.5781,111.7363 504.8125,112.002 Q505.0469,112.252 505.0469,112.8613 L505.0469,114.8301 Q505.0469,115.377 504.9219,115.5645 Q504.6563,115.9551 504.2031,115.9551 Q503.7344,115.9551 503.4688,115.5488 Q503.3438,115.3613 503.3438,114.6895 L501.8594,114.6895 Z " fill="#000000"/><text fill="#000000" font-family="sans-serif" font-size="12" font-style="italic" lengthAdjust="spacing" textLength="40" x="520" y="101.5703">&#171;Root&#187;</text><text fill="#000000" font-family="sans-serif" font-size="12" font-style="italic" lengthAdjust="spacing" textLength="44" x="518" y="117.5313">&#171;Entity&#187;</text><text fill="#000000" font-family="sans-serif" font-size="14" lengthAdjust="spacing" textLength="46" x="517" y="135.6504">Course</text></g><g id="elem_Id"><rect fill="#F1F1F1" height="54.543" style="stroke:#181818;stroke-width:0.5;" width="95" x="23.5" y="204.6211"/><text fill="#000000" font-family="sans-serif" font-size="12" font-style="italic" lengthAdjust="spacing" textLength="85" x="28.5" y="217.5703">&#171;Value Object&#187;</text><text fill="#000000" font-family="sans-serif" font-size="12" font-style="italic" lengthAdjust="spacing" textLength="54" x="44" y="233.5313">&#171;Identify&#187;</text><text fill="#000000" font-family="sans-serif" font-size="14" lengthAdjust="spacing" textLength="11" x="65.5" y="253.6504">Id</text></g><g id="elem_CourseState"><rect fill="#F1F1F1" height="38.582" style="stroke:#181818;stroke-width:0.5;" width="95" x="153.5" y="212.6211"/><text fill="#000000" font-family="sans-serif" font-size="12" font-style="italic" lengthAdjust="spacing" textLength="85" x="158.5" y="225.5703">&#171;Value Object&#187;</text><text fill="#000000" font-family="sans-serif" font-size="14" lengthAdjust="spacing" textLength="79" x="161.5" y="245.6895">CourseState</text></g><g id="elem_CourseEnrollmentState"><rect fill="#F1F1F1" height="38.582" style="stroke:#181818;stroke-width:0.5;" width="160" x="284" y="212.6211"/><text fill="#000000" font-family="sans-serif" font-size="12" font-style="italic" lengthAdjust="spacing" textLength="85" x="321.5" y="225.5703">&#171;Value Object&#187;</text><text fill="#000000" font-family="sans-serif" font-size="14" lengthAdjust="spacing" textLength="146" x="291" y="245.6895">CourseEnrollmentState</text></g><g id="elem_Edition"><rect fill="#F1F1F1" height="38.582" style="stroke:#181818;stroke-width:0.5;" width="95" x="479.5" y="212.6211"/><text fill="#000000" font-family="sans-serif" font-size="12" font-style="italic" lengthAdjust="spacing" textLength="85" x="484.5" y="225.5703">&#171;Value Object&#187;</text><text fill="#000000" font-family="sans-serif" font-size="14" lengthAdjust="spacing" textLength="43" x="505.5" y="245.6895">Edition</text></g><g id="elem_CourseDescription"><rect fill="#F1F1F1" height="38.582" style="stroke:#181818;stroke-width:0.5;" width="131" x="609.5" y="212.6211"/><text fill="#000000" font-family="sans-serif" font-size="12" font-style="italic" lengthAdjust="spacing" textLength="85" x="632.5" y="225.5703">&#171;Value Object&#187;</text><text fill="#000000" font-family="sans-serif" font-size="14" lengthAdjust="spacing" textLength="117" x="616.5" y="245.6895">CourseDescription</text></g><g id="elem_CourseTitle"><rect fill="#F1F1F1" height="38.582" style="stroke:#181818;stroke-width:0.5;" width="95" x="775.5" y="212.6211"/><text fill="#000000" font-family="sans-serif" font-size="12" font-style="italic" lengthAdjust="spacing" textLength="85" x="780.5" y="225.5703">&#171;Value Object&#187;</text><text fill="#000000" font-family="sans-serif" font-size="14" lengthAdjust="spacing" textLength="73" x="786.5" y="245.6895">CourseTitle</text></g><!--class ChargeTeacher--><g id="elem_ChargeTeacher"><rect fill="#F1F1F1" height="32" id="ChargeTeacher" rx="2.5" ry="2.5" style="stroke:#181818;stroke-width:0.5;" width="132" x="906" y="216.1211"/><ellipse cx="921" cy="232.1211" fill="#ADD1B2" rx="11" ry="11" style="stroke:#181818;stroke-width:1.0;"/><path d="M923.7656,227.9961 Q923.9219,227.7773 924.1094,227.668 Q924.2969,227.5586 924.5156,227.5586 Q924.8906,227.5586 925.125,227.8242 Q925.3594,228.0742 925.3594,228.6836 L925.3594,230.1367 Q925.3594,230.7461 925.125,231.0117 Q924.8906,231.2773 924.5156,231.2773 Q924.1719,231.2773 923.9688,231.0742 Q923.7656,230.8867 923.6563,230.3711 Q923.6094,230.0117 923.4219,229.8242 Q923.0938,229.4492 922.4844,229.2305 Q921.875,229.0117 921.25,229.0117 Q920.4844,229.0117 919.8438,229.3398 Q919.2188,229.668 918.7188,230.418 Q918.2344,231.168 918.2344,232.1992 L918.2344,233.293 Q918.2344,234.5273 919.125,235.3555 Q920.0156,236.168 921.6094,236.168 Q922.5469,236.168 923.2031,235.918 Q923.5938,235.7617 924.0156,235.3242 Q924.2813,235.0586 924.4219,234.9805 Q924.5781,234.9023 924.7813,234.9023 Q925.1094,234.9023 925.3594,235.168 Q925.625,235.418 925.625,235.7617 Q925.625,236.1055 925.2813,236.5117 Q924.7813,237.0898 923.9844,237.418 Q922.9063,237.8711 921.6094,237.8711 Q920.0938,237.8711 918.8906,237.2461 Q917.9063,236.7461 917.2188,235.6836 Q916.5313,234.6055 916.5313,233.3242 L916.5313,232.168 Q916.5313,230.8398 917.1406,229.6992 Q917.7656,228.543 918.8594,227.9336 Q919.9531,227.3086 921.1875,227.3086 Q921.9219,227.3086 922.5625,227.4805 Q923.2188,227.6367 923.7656,227.9961 Z " fill="#000000"/><text fill="#000000" font-family="sans-serif" font-size="14" lengthAdjust="spacing" textLength="100" x="935" y="237.918">ChargeTeacher</text></g><!--link Course to CourseTitle--><g id="link_Course_CourseTitle"><path codeLine="21" d="M566,114.6211 C646.38,114.6211 823,114.6211 823,114.6211 C823,114.6211 823,207.4511 823,207.4511 " fill="none" id="Course-to-CourseTitle" style="stroke:#181818;stroke-width:1.0;"/><polygon fill="#181818" points="823,212.4511,827,203.4511,823,207.4511,819,203.4511,823,212.4511" style="stroke:#181818;stroke-width:1.0;"/><text fill="#000000" font-family="sans-serif" font-size="13" lengthAdjust="spacing" textLength="32" x="707.92" y="110.6494">has a</text><text fill="#000000" font-family="sans-serif" font-size="13" lengthAdjust="spacing" textLength="7" x="574.1016" y="110.1957">1</text><text fill="#000000" font-family="sans-serif" font-size="13" lengthAdjust="spacing" textLength="7" x="814.9719" y="201.3086">1</text></g><!--link Course to Id--><g id="link_Course_Id"><path codeLine="22" d="M514,144.8011 C514,172.3911 514,208.6211 514,208.6211 C514,208.6211 123.83,208.6211 123.83,208.6211 " fill="none" id="Course-to-Id" style="stroke:#181818;stroke-width:1.0;"/><polygon fill="#181818" points="118.83,208.6211,127.83,212.6211,123.83,208.6211,127.83,204.6211,118.83,208.6211" style="stroke:#181818;stroke-width:1.0;"/><text fill="#000000" font-family="sans-serif" font-size="13" lengthAdjust="spacing" textLength="32" x="317.82" y="204.6494">has a</text><text fill="#000000" font-family="sans-serif" font-size="13" lengthAdjust="spacing" textLength="7" x="503.9578" y="166.1222">1</text><text fill="#000000" font-family="sans-serif" font-size="13" lengthAdjust="spacing" textLength="7" x="126.3691" y="201.0043">1</text></g><!--link Course to CourseDescription--><g id="link_Course_CourseDescription"><path codeLine="23" d="M566.27,129.6211 C610.12,129.6211 675,129.6211 675,129.6211 C675,129.6211 675,207.3611 675,207.3611 " fill="none" id="Course-to-CourseDescription" style="stroke:#181818;stroke-width:1.0;"/><polygon fill="#181818" points="675,212.3611,679,203.3611,675,207.3611,671,203.3611,675,212.3611" style="stroke:#181818;stroke-width:1.0;"/><text fill="#000000" font-family="sans-serif" font-size="13" lengthAdjust="spacing" textLength="32" x="626.5" y="125.6494">has a</text><text fill="#000000" font-family="sans-serif" font-size="13" lengthAdjust="spacing" textLength="7" x="573.8884" y="127.9629">1</text><text fill="#000000" font-family="sans-serif" font-size="13" lengthAdjust="spacing" textLength="7" x="666.9719" y="201.1922">1</text></g><!--link Course to CourseState--><g id="link_Course_CourseState"><path codeLine="24" d="M487.68,104.6211 C400.97,104.6211 201,104.6211 201,104.6211 C201,104.6211 201,207.4811 201,207.4811 " fill="none" id="Course-to-CourseState" style="stroke:#181818;stroke-width:1.0;"/><polygon fill="#181818" points="201,212.4811,205,203.4811,201,207.4811,197,203.4811,201,212.4811" style="stroke:#181818;stroke-width:1.0;"/><text fill="#000000" font-family="sans-serif" font-size="13" lengthAdjust="spacing" textLength="32" x="259.91" y="100.6494">has a</text><text fill="#000000" font-family="sans-serif" font-size="13" lengthAdjust="spacing" textLength="7" x="473.0527" y="98.5098">1</text><text fill="#000000" font-family="sans-serif" font-size="13" lengthAdjust="spacing" textLength="7" x="192.9719" y="201.3474">1</text></g><!--link Course to CourseEnrollmentState--><g id="link_Course_CourseEnrollmentState"><path codeLine="25" d="M487.96,124.6211 C439.74,124.6211 364,124.6211 364,124.6211 C364,124.6211 364,207.4011 364,207.4011 " fill="none" id="Course-to-CourseEnrollmentState" style="stroke:#181818;stroke-width:1.0;"/><polygon fill="#181818" points="364,212.4011,368,203.4011,364,207.4011,360,203.4011,364,212.4011" style="stroke:#181818;stroke-width:1.0;"/><text fill="#000000" font-family="sans-serif" font-size="13" lengthAdjust="spacing" textLength="39" x="344.59" y="120.6494">has an</text><text fill="#000000" font-family="sans-serif" font-size="13" lengthAdjust="spacing" textLength="7" x="473.1167" y="122.0871">1</text><text fill="#000000" font-family="sans-serif" font-size="13" lengthAdjust="spacing" textLength="7" x="355.9719" y="201.2439">1</text></g><!--link Course to Edition--><g id="link_Course_Edition"><path codeLine="26" d="M540,144.8211 C540,144.8211 540,207.3211 540,207.3211 " fill="none" id="Course-to-Edition" style="stroke:#181818;stroke-width:1.0;"/><polygon fill="#181818" points="540,212.3211,544,203.3211,540,207.3211,536,203.3211,540,212.3211" style="stroke:#181818;stroke-width:1.0;"/><text fill="#000000" font-family="sans-serif" font-size="13" lengthAdjust="spacing" textLength="32" x="507" y="191.0994">has a</text><text fill="#000000" font-family="sans-serif" font-size="13" lengthAdjust="spacing" textLength="7" x="534.7516" y="166.1459">1</text><text fill="#000000" font-family="sans-serif" font-size="13" lengthAdjust="spacing" textLength="7" x="535.6719" y="201.4897">1</text></g><!--link Course to ChargeTeacher--><g id="link_Course_ChargeTeacher"><path codeLine="27" d="M566.1,99.6211 C674.69,99.6211 972,99.6211 972,99.6211 C972,99.6211 972,210.8711 972,210.8711 " fill="none" id="Course-to-ChargeTeacher" style="stroke:#181818;stroke-width:1.0;"/><polygon fill="#181818" points="972,215.8711,976,206.8711,972,210.8711,968,206.8711,972,215.8711" style="stroke:#181818;stroke-width:1.0;"/><text fill="#000000" font-family="sans-serif" font-size="13" lengthAdjust="spacing" textLength="46" x="777.68" y="95.6494">needs a</text><text fill="#000000" font-family="sans-serif" font-size="13" lengthAdjust="spacing" textLength="7" x="573.9544" y="92.4777">1</text><text fill="#000000" font-family="sans-serif" font-size="13" lengthAdjust="spacing" textLength="7" x="963.8406" y="204.7492">1</text></g><!--SRC=[ZP1DIyD048Rlyok6N3ornMjP5iJca9EWnVkQdMRNxaVOJ8KY_dStIIsIrDPS9aoUzydmtXdcThrQjKu5FdYthADVTNiRMfMKNnhs3W2CrOGxIqwFhvxOHDq1i6L7k8bUsO2RP3ye3-fi4m3E5dGs41zRmfXo3Y1HpIeqELa8yT0qYHh592K-naFggC1F0CmFXUm_dhP2FCV8KWfH3cif1oQ-lMSRLbg8L-KEX4_3ekSgtGjs4tAqlN3-upGonygGedC-UuO0NakKshAD0MzRSqDrikq_wUtGyOmRm5DXzmKk5XBp_1LPer4TgijSfV7gz_cX5_5Cd-6nePlOfD8J7-PdvF5JwP-dzbQZKaDRKhMXjCP0f7lq2-0R]--></g></svg>