<?xml version="1.0" encoding="us-ascii" standalone="no"?><svg xmlns="http://www.w3.org/2000/svg" xmlns:xlink="http://www.w3.org/1999/xlink" contentStyleType="text/css" height="246px" preserveAspectRatio="none" style="width:224px;height:246px;background:#FFFFFF;" version="1.1" viewBox="0 0 224 246" width="224px" zoomAndPan="magnify"><defs/><g><!--entity Admin--><g id="elem_Admin"><ellipse cx="25.5" cy="14" fill="#F1F1F1" rx="8" ry="8" style="stroke:#181818;stroke-width:0.5;"/><path d="M25.5,22 L25.5,49 M12.5,30 L38.5,30 M25.5,49 L12.5,64 M25.5,49 L38.5,64 " fill="none" style="stroke:#181818;stroke-width:0.5;"/><text fill="#000000" font-family="sans-serif" font-size="14" lengthAdjust="spacing" textLength="39" x="6" y="80.6074">Admin</text></g><g id="elem_Create Meeting"><ellipse cx="106.3935" cy="223.0787" fill="#F1F1F1" rx="75.8935" ry="17.5787" style="stroke:#181818;stroke-width:0.5;"/><text fill="#000000" font-family="sans-serif" font-size="14" lengthAdjust="spacing" textLength="97" x="54.8935" y="227.8824">Create Meeting</text></g><!--entity Teacher--><g id="elem_Teacher"><ellipse cx="106.5" cy="14" fill="#F1F1F1" rx="8" ry="8" style="stroke:#181818;stroke-width:0.5;"/><path d="M106.5,22 L106.5,49 M93.5,30 L119.5,30 M106.5,49 L93.5,64 M106.5,49 L119.5,64 " fill="none" style="stroke:#181818;stroke-width:0.5;"/><text fill="#000000" font-family="sans-serif" font-size="14" lengthAdjust="spacing" textLength="53" x="80" y="80.6074">Teacher</text></g><!--entity Student--><g id="elem_Student"><ellipse cx="192.5" cy="14" fill="#F1F1F1" rx="8" ry="8" style="stroke:#181818;stroke-width:0.5;"/><path d="M192.5,22 L192.5,49 M179.5,30 L205.5,30 M192.5,49 L179.5,64 M192.5,49 L205.5,64 " fill="none" style="stroke:#181818;stroke-width:0.5;"/><text fill="#000000" font-family="sans-serif" font-size="14" lengthAdjust="spacing" textLength="49" x="168" y="80.6074">Student</text></g><!--link Admin to Create Meeting--><g id="link_Admin_Create Meeting"><path d="M43.28,84.62 C59.65,120.21 83.36,171.72 96.6,200.49 " fill="none" id="Admin-to-Create Meeting" style="stroke:#181818;stroke-width:1.0;"/><polygon fill="#181818" points="98.79,205.25,98.6444,195.4022,96.692,200.7115,91.3828,198.759,98.79,205.25" style="stroke:#181818;stroke-width:1.0;"/></g><!--link Teacher to Create Meeting--><g id="link_Teacher_Create Meeting"><path d="M106.5,84.62 C106.5,120.06 106.5,171.29 106.5,200.13 " fill="none" id="Teacher-to-Create Meeting" style="stroke:#181818;stroke-width:1.0;"/><polygon fill="#181818" points="106.5,205.25,110.5,196.25,106.5,200.25,102.5,196.25,106.5,205.25" style="stroke:#181818;stroke-width:1.0;"/></g><!--link Student to Create Meeting--><g id="link_Student_Create Meeting"><path d="M173.63,84.62 C156.24,120.21 131.07,171.72 117.01,200.49 " fill="none" id="Student-to-Create Meeting" style="stroke:#181818;stroke-width:1.0;"/><polygon fill="#181818" points="114.69,205.25,122.2281,198.9115,116.8801,200.7552,115.0364,195.4072,114.69,205.25" style="stroke:#181818;stroke-width:1.0;"/></g><!--SRC=[KyyeAIaejjBNByX9p2ifpStHIyxFrIyjJjLDJWGIAPc9wKM9kLn0u9YIcvcdeAkhQwUWuLoKcbYIgk2RcbgIcPUkoHMIcfYSaLg4GpQuf3GbDQy4Xom0]--></g></svg>