<?xml version="1.0" encoding="us-ascii" standalone="no"?><svg xmlns="http://www.w3.org/2000/svg" xmlns:xlink="http://www.w3.org/1999/xlink" contentStyleType="text/css" height="1170px" preserveAspectRatio="none" style="width:1324px;height:1170px;background:#FFFFFF;" version="1.1" viewBox="0 0 1324 1170" width="1324px" zoomAndPan="magnify"><defs/><g><!--class CreateMeetingUI--><g id="elem_CreateMeetingUI"><rect codeLine="7" fill="#F1F1F1" height="113.9531" id="CreateMeetingUI" rx="2.5" ry="2.5" style="stroke:#181818;stroke-width:0.5;" width="654" x="497.5" y="7"/><ellipse cx="763.25" cy="23" fill="#ADD1B2" rx="11" ry="11" style="stroke:#181818;stroke-width:1.0;"/><path d="M766.2231,28.6431 Q765.6421,28.9419 765.0029,29.0913 Q764.3638,29.2407 763.6582,29.2407 Q761.1514,29.2407 759.8315,27.5889 Q758.5117,25.937 758.5117,22.8159 Q758.5117,19.6865 759.8315,18.0347 Q761.1514,16.3828 763.6582,16.3828 Q764.3638,16.3828 765.0112,16.5322 Q765.6587,16.6816 766.2231,16.9805 L766.2231,19.7031 Q765.5923,19.1221 764.9988,18.8523 Q764.4053,18.5825 763.7744,18.5825 Q762.4297,18.5825 761.7449,19.6492 Q761.0601,20.7158 761.0601,22.8159 Q761.0601,24.9077 761.7449,25.9744 Q762.4297,27.041 763.7744,27.041 Q764.4053,27.041 764.9988,26.7712 Q765.5923,26.5015 766.2231,25.9204 Z " fill="#000000"/><text fill="#000000" font-family="FG Virgil" font-size="14" lengthAdjust="spacing" textLength="114" x="783.75" y="28.291">CreateMeetingUI</text><line style="stroke:#181818;stroke-width:0.5;" x1="498.5" x2="1150.5" y1="39" y2="39"/><line style="stroke:#181818;stroke-width:0.5;" x1="498.5" x2="1150.5" y1="47" y2="47"/><ellipse cx="508.5" cy="60.7441" fill="#84BE84" rx="3" ry="3" style="stroke:#038048;stroke-width:1.0;"/><text fill="#000000" font-family="FG Virgil" font-size="14" lengthAdjust="spacing" textLength="489" x="517.5" y="64.5352">scheduleCreation(initialDate: DateTime, durationMinutes: int): Schedule</text><ellipse cx="508.5" cy="77.2324" fill="#84BE84" rx="3" ry="3" style="stroke:#038048;stroke-width:1.0;"/><text fill="#000000" font-family="FG Virgil" font-size="14" lengthAdjust="spacing" textLength="368" x="517.5" y="81.0234">searchUsersavailable(schedule: Schedule): List&lt;User&gt;</text><ellipse cx="508.5" cy="93.7207" fill="#84BE84" rx="3" ry="3" style="stroke:#038048;stroke-width:1.0;"/><text fill="#000000" font-family="FG Virgil" font-size="14" lengthAdjust="spacing" textLength="628" x="517.5" y="97.5117">createMeeting(id: int, classTitle: string, schedule: Schedule, eCourseUsers: List&lt;User&gt;): void</text><ellipse cx="508.5" cy="110.209" fill="#84BE84" rx="3" ry="3" style="stroke:#038048;stroke-width:1.0;"/><text fill="#000000" font-family="FG Virgil" font-size="14" lengthAdjust="spacing" textLength="320" x="517.5" y="114">informOperationResult(success: boolean): void</text></g><!--class CreateMeetingController--><g id="elem_CreateMeetingController"><rect codeLine="14" fill="#F1F1F1" height="130.4414" id="CreateMeetingController" rx="2.5" ry="2.5" style="stroke:#181818;stroke-width:0.5;" width="654" x="497.5" y="181"/><ellipse cx="735.25" cy="197" fill="#ADD1B2" rx="11" ry="11" style="stroke:#181818;stroke-width:1.0;"/><path d="M738.2231,202.6431 Q737.6421,202.9419 737.0029,203.0913 Q736.3638,203.2407 735.6582,203.2407 Q733.1514,203.2407 731.8315,201.5889 Q730.5117,199.937 730.5117,196.8159 Q730.5117,193.6865 731.8315,192.0347 Q733.1514,190.3828 735.6582,190.3828 Q736.3638,190.3828 737.0112,190.5322 Q737.6587,190.6816 738.2231,190.9805 L738.2231,193.7031 Q737.5923,193.1221 736.9988,192.8523 Q736.4053,192.5825 735.7744,192.5825 Q734.4297,192.5825 733.7449,193.6492 Q733.0601,194.7158 733.0601,196.8159 Q733.0601,198.9077 733.7449,199.9744 Q734.4297,201.041 735.7744,201.041 Q736.4053,201.041 736.9988,200.7712 Q737.5923,200.5015 738.2231,199.9204 Z " fill="#000000"/><text fill="#000000" font-family="FG Virgil" font-size="14" lengthAdjust="spacing" textLength="170" x="755.75" y="202.291">CreateMeetingController</text><line style="stroke:#181818;stroke-width:0.5;" x1="498.5" x2="1150.5" y1="213" y2="213"/><rect fill="none" height="6" style="stroke:#C82930;stroke-width:1.0;" width="6" x="505.5" y="223.7441"/><text fill="#000000" font-family="FG Virgil" font-size="14" lengthAdjust="spacing" textLength="393" x="517.5" y="230.5352">meetingManagementService: MeetingManagementService</text><line style="stroke:#181818;stroke-width:0.5;" x1="498.5" x2="1150.5" y1="237.4883" y2="237.4883"/><ellipse cx="508.5" cy="251.2324" fill="#84BE84" rx="3" ry="3" style="stroke:#038048;stroke-width:1.0;"/><text fill="#000000" font-family="FG Virgil" font-size="14" lengthAdjust="spacing" textLength="489" x="517.5" y="255.0234">scheduleCreation(initialDate: DateTime, durationMinutes: int): Schedule</text><ellipse cx="508.5" cy="267.7207" fill="#84BE84" rx="3" ry="3" style="stroke:#038048;stroke-width:1.0;"/><text fill="#000000" font-family="FG Virgil" font-size="14" lengthAdjust="spacing" textLength="368" x="517.5" y="271.5117">searchUsersavailable(schedule: Schedule): List&lt;User&gt;</text><ellipse cx="508.5" cy="284.209" fill="#84BE84" rx="3" ry="3" style="stroke:#038048;stroke-width:1.0;"/><text fill="#000000" font-family="FG Virgil" font-size="14" lengthAdjust="spacing" textLength="628" x="517.5" y="288">createMeeting(id: int, classTitle: string, schedule: Schedule, eCourseUsers: List&lt;User&gt;): void</text><ellipse cx="508.5" cy="300.6973" fill="#84BE84" rx="3" ry="3" style="stroke:#038048;stroke-width:1.0;"/><text fill="#000000" font-family="FG Virgil" font-size="14" lengthAdjust="spacing" textLength="251" x="517.5" y="304.4883">saveMeeting(meeting: Meeting): void</text></g><!--class MeetingManagementService--><g id="elem_MeetingManagementService"><rect codeLine="22" fill="#F1F1F1" height="179.9063" id="MeetingManagementService" rx="2.5" ry="2.5" style="stroke:#181818;stroke-width:0.5;" width="394" x="292.5" y="371"/><ellipse cx="389.25" cy="387" fill="#ADD1B2" rx="11" ry="11" style="stroke:#181818;stroke-width:1.0;"/><path d="M392.2231,392.6431 Q391.6421,392.9419 391.0029,393.0913 Q390.3638,393.2407 389.6582,393.2407 Q387.1514,393.2407 385.8315,391.5889 Q384.5117,389.937 384.5117,386.8159 Q384.5117,383.6865 385.8315,382.0347 Q387.1514,380.3828 389.6582,380.3828 Q390.3638,380.3828 391.0112,380.5322 Q391.6587,380.6816 392.2231,380.9805 L392.2231,383.7031 Q391.5923,383.1221 390.9988,382.8523 Q390.4053,382.5825 389.7744,382.5825 Q388.4297,382.5825 387.7449,383.6492 Q387.0601,384.7158 387.0601,386.8159 Q387.0601,388.9077 387.7449,389.9744 Q388.4297,391.041 389.7744,391.041 Q390.4053,391.041 390.9988,390.7712 Q391.5923,390.5015 392.2231,389.9204 Z " fill="#000000"/><text fill="#000000" font-family="FG Virgil" font-size="14" lengthAdjust="spacing" textLength="192" x="409.75" y="392.291">MeetingManagementService</text><line style="stroke:#181818;stroke-width:0.5;" x1="293.5" x2="685.5" y1="403" y2="403"/><rect fill="none" height="6" style="stroke:#C82930;stroke-width:1.0;" width="6" x="300.5" y="413.7441"/><text fill="#000000" font-family="FG Virgil" font-size="14" lengthAdjust="spacing" textLength="265" x="312.5" y="420.5352">meetingRepository: MeetingRepository</text><rect fill="none" height="6" style="stroke:#C82930;stroke-width:1.0;" width="6" x="300.5" y="430.2324"/><text fill="#000000" font-family="FG Virgil" font-size="14" lengthAdjust="spacing" textLength="277" x="312.5" y="437.0234">scheduleRepository: ScheduleRepository</text><rect fill="none" height="6" style="stroke:#C82930;stroke-width:1.0;" width="6" x="300.5" y="446.7207"/><text fill="#000000" font-family="FG Virgil" font-size="14" lengthAdjust="spacing" textLength="259" x="312.5" y="453.5117">studentRepository: StudentRepository</text><rect fill="none" height="6" style="stroke:#C82930;stroke-width:1.0;" width="6" x="300.5" y="463.209"/><text fill="#000000" font-family="FG Virgil" font-size="14" lengthAdjust="spacing" textLength="260" x="312.5" y="470">teacherRepository: TeacherRepository</text><line style="stroke:#181818;stroke-width:0.5;" x1="293.5" x2="685.5" y1="476.9531" y2="476.9531"/><ellipse cx="303.5" cy="490.6973" fill="#84BE84" rx="3" ry="3" style="stroke:#038048;stroke-width:1.0;"/><text fill="#000000" font-family="FG Virgil" font-size="14" lengthAdjust="spacing" textLength="368" x="312.5" y="494.4883">searchUsersavailable(schedule: Schedule): List&lt;User&gt;</text><ellipse cx="303.5" cy="507.1855" fill="#84BE84" rx="3" ry="3" style="stroke:#038048;stroke-width:1.0;"/><text fill="#000000" font-family="FG Virgil" font-size="14" lengthAdjust="spacing" textLength="270" x="312.5" y="510.9766">saveSchedule(schedule: Schedule): void</text><ellipse cx="303.5" cy="523.6738" fill="#84BE84" rx="3" ry="3" style="stroke:#038048;stroke-width:1.0;"/><text fill="#000000" font-family="FG Virgil" font-size="14" lengthAdjust="spacing" textLength="251" x="312.5" y="527.4648">saveMeeting(meeting: Meeting): void</text><ellipse cx="303.5" cy="540.1621" fill="#84BE84" rx="3" ry="3" style="stroke:#038048;stroke-width:1.0;"/><text fill="#000000" font-family="FG Virgil" font-size="14" lengthAdjust="spacing" textLength="366" x="312.5" y="543.9531">saveStudentTeacherSchedule(meeting: Meeting): void</text></g><!--class AuthorizationService--><g id="elem_AuthorizationService"><rect codeLine="33" fill="#F1F1F1" height="64.4883" id="AuthorizationService" rx="2.5" ry="2.5" style="stroke:#181818;stroke-width:0.5;" width="208" x="238.5" y="611"/><ellipse cx="268.35" cy="627" fill="#ADD1B2" rx="11" ry="11" style="stroke:#181818;stroke-width:1.0;"/><path d="M271.3231,632.6431 Q270.7421,632.9419 270.1029,633.0913 Q269.4638,633.2407 268.7582,633.2407 Q266.2514,633.2407 264.9315,631.5889 Q263.6117,629.937 263.6117,626.8159 Q263.6117,623.6865 264.9315,622.0347 Q266.2514,620.3828 268.7582,620.3828 Q269.4638,620.3828 270.1112,620.5322 Q270.7587,620.6816 271.3231,620.9805 L271.3231,623.7031 Q270.6923,623.1221 270.0988,622.8523 Q269.5053,622.5825 268.8744,622.5825 Q267.5297,622.5825 266.8449,623.6492 Q266.1601,624.7158 266.1601,626.8159 Q266.1601,628.9077 266.8449,629.9744 Q267.5297,631.041 268.8744,631.041 Q269.5053,631.041 270.0988,630.7712 Q270.6923,630.5015 271.3231,629.9204 Z " fill="#000000"/><text fill="#000000" font-family="FG Virgil" font-size="14" lengthAdjust="spacing" textLength="143" x="285.65" y="632.291">AuthorizationService</text><line style="stroke:#181818;stroke-width:0.5;" x1="239.5" x2="445.5" y1="643" y2="643"/><line style="stroke:#181818;stroke-width:0.5;" x1="239.5" x2="445.5" y1="651" y2="651"/><ellipse cx="249.5" cy="664.7441" fill="#84BE84" rx="3" ry="3" style="stroke:#038048;stroke-width:1.0;"/><text fill="#000000" font-family="FG Virgil" font-size="14" lengthAdjust="spacing" textLength="182" x="258.5" y="668.5352">authorize(user: User): void</text></g><!--class Meeting--><g id="elem_Meeting"><rect codeLine="37" fill="#F1F1F1" height="130.4414" id="Meeting" rx="2.5" ry="2.5" style="stroke:#181818;stroke-width:0.5;" width="205" x="722" y="396"/><ellipse cx="792.75" cy="412" fill="#ADD1B2" rx="11" ry="11" style="stroke:#181818;stroke-width:1.0;"/><path d="M795.7231,417.6431 Q795.1421,417.9419 794.5029,418.0913 Q793.8638,418.2407 793.1582,418.2407 Q790.6514,418.2407 789.3315,416.5889 Q788.0117,414.937 788.0117,411.8159 Q788.0117,408.6865 789.3315,407.0347 Q790.6514,405.3828 793.1582,405.3828 Q793.8638,405.3828 794.5112,405.5322 Q795.1587,405.6816 795.7231,405.9805 L795.7231,408.7031 Q795.0923,408.1221 794.4988,407.8523 Q793.9053,407.5825 793.2744,407.5825 Q791.9297,407.5825 791.2449,408.6492 Q790.5601,409.7158 790.5601,411.8159 Q790.5601,413.9077 791.2449,414.9744 Q791.9297,416.041 793.2744,416.041 Q793.9053,416.041 794.4988,415.7712 Q795.0923,415.5015 795.7231,414.9204 Z " fill="#000000"/><text fill="#000000" font-family="FG Virgil" font-size="14" lengthAdjust="spacing" textLength="55" x="813.25" y="417.291">Meeting</text><line style="stroke:#181818;stroke-width:0.5;" x1="723" x2="926" y1="428" y2="428"/><rect fill="none" height="6" style="stroke:#C82930;stroke-width:1.0;" width="6" x="730" y="438.7441"/><text fill="#000000" font-family="FG Virgil" font-size="14" lengthAdjust="spacing" textLength="39" x="742" y="445.5352">id: int</text><rect fill="none" height="6" style="stroke:#C82930;stroke-width:1.0;" width="6" x="730" y="455.2324"/><text fill="#000000" font-family="FG Virgil" font-size="14" lengthAdjust="spacing" textLength="171" x="742" y="462.0234">designation: Designation</text><rect fill="none" height="6" style="stroke:#C82930;stroke-width:1.0;" width="6" x="730" y="471.7207"/><text fill="#000000" font-family="FG Virgil" font-size="14" lengthAdjust="spacing" textLength="130" x="742" y="478.5117">state: MeetingState</text><rect fill="none" height="6" style="stroke:#C82930;stroke-width:1.0;" width="6" x="730" y="488.209"/><text fill="#000000" font-family="FG Virgil" font-size="14" lengthAdjust="spacing" textLength="73" x="742" y="495">test: string</text><rect fill="none" height="6" style="stroke:#C82930;stroke-width:1.0;" width="6" x="730" y="504.6973"/><text fill="#000000" font-family="FG Virgil" font-size="14" lengthAdjust="spacing" textLength="179" x="742" y="511.4883">eCourseUsers: List&lt;User&gt;</text><line style="stroke:#181818;stroke-width:0.5;" x1="723" x2="926" y1="518.4414" y2="518.4414"/></g><!--class Schedule--><g id="elem_Schedule"><rect codeLine="45" fill="#F1F1F1" height="80.9766" id="Schedule" rx="2.5" ry="2.5" style="stroke:#181818;stroke-width:0.5;" width="168" x="962.5" y="420.5"/><ellipse cx="1011.25" cy="436.5" fill="#ADD1B2" rx="11" ry="11" style="stroke:#181818;stroke-width:1.0;"/><path d="M1014.2231,442.1431 Q1013.6421,442.4419 1013.0029,442.5913 Q1012.3638,442.7407 1011.6582,442.7407 Q1009.1514,442.7407 1007.8315,441.0889 Q1006.5117,439.437 1006.5117,436.3159 Q1006.5117,433.1865 1007.8315,431.5347 Q1009.1514,429.8828 1011.6582,429.8828 Q1012.3638,429.8828 1013.0112,430.0322 Q1013.6587,430.1816 1014.2231,430.4805 L1014.2231,433.2031 Q1013.5923,432.6221 1012.9988,432.3523 Q1012.4053,432.0825 1011.7744,432.0825 Q1010.4297,432.0825 1009.7449,433.1492 Q1009.0601,434.2158 1009.0601,436.3159 Q1009.0601,438.4077 1009.7449,439.4744 Q1010.4297,440.541 1011.7744,440.541 Q1012.4053,440.541 1012.9988,440.2712 Q1013.5923,440.0015 1014.2231,439.4204 Z " fill="#000000"/><text fill="#000000" font-family="FG Virgil" font-size="14" lengthAdjust="spacing" textLength="62" x="1031.75" y="441.791">Schedule</text><line style="stroke:#181818;stroke-width:0.5;" x1="963.5" x2="1129.5" y1="452.5" y2="452.5"/><rect fill="none" height="6" style="stroke:#C82930;stroke-width:1.0;" width="6" x="970.5" y="463.2441"/><text fill="#000000" font-family="FG Virgil" font-size="14" lengthAdjust="spacing" textLength="142" x="982.5" y="470.0352">initialDate: DateTime</text><rect fill="none" height="6" style="stroke:#C82930;stroke-width:1.0;" width="6" x="970.5" y="479.7324"/><text fill="#000000" font-family="FG Virgil" font-size="14" lengthAdjust="spacing" textLength="139" x="982.5" y="486.5234">durationMinutes: int</text><line style="stroke:#181818;stroke-width:0.5;" x1="963.5" x2="1129.5" y1="493.4766" y2="493.4766"/></g><!--class PersistenceContext--><g id="elem_PersistenceContext"><rect codeLine="50" fill="#F1F1F1" height="64.4883" id="PersistenceContext" rx="2.5" ry="2.5" style="stroke:#181818;stroke-width:0.5;" width="312" x="481.5" y="611"/><ellipse cx="567.25" cy="627" fill="#ADD1B2" rx="11" ry="11" style="stroke:#181818;stroke-width:1.0;"/><path d="M570.2231,632.6431 Q569.6421,632.9419 569.0029,633.0913 Q568.3638,633.2407 567.6582,633.2407 Q565.1514,633.2407 563.8315,631.5889 Q562.5117,629.937 562.5117,626.8159 Q562.5117,623.6865 563.8315,622.0347 Q565.1514,620.3828 567.6582,620.3828 Q568.3638,620.3828 569.0112,620.5322 Q569.6587,620.6816 570.2231,620.9805 L570.2231,623.7031 Q569.5923,623.1221 568.9988,622.8523 Q568.4053,622.5825 567.7744,622.5825 Q566.4297,622.5825 565.7449,623.6492 Q565.0601,624.7158 565.0601,626.8159 Q565.0601,628.9077 565.7449,629.9744 Q566.4297,631.041 567.7744,631.041 Q568.4053,631.041 568.9988,630.7712 Q569.5923,630.5015 570.2231,629.9204 Z " fill="#000000"/><text fill="#000000" font-family="FG Virgil" font-size="14" lengthAdjust="spacing" textLength="132" x="587.75" y="632.291">PersistenceContext</text><line style="stroke:#181818;stroke-width:0.5;" x1="482.5" x2="792.5" y1="643" y2="643"/><line style="stroke:#181818;stroke-width:0.5;" x1="482.5" x2="792.5" y1="651" y2="651"/><ellipse cx="492.5" cy="664.7441" fill="#84BE84" rx="3" ry="3" style="stroke:#038048;stroke-width:1.0;"/><text fill="#000000" font-family="FG Virgil" font-size="14" lengthAdjust="spacing" textLength="286" x="501.5" y="668.5352">getRepositoryFactory(): RepositoryFactory</text></g><!--class RepositoryFactory--><g id="elem_RepositoryFactory"><rect codeLine="54" fill="#F1F1F1" height="113.9531" id="RepositoryFactory" rx="2.5" ry="2.5" style="stroke:#181818;stroke-width:0.5;" width="313" x="481" y="735"/><ellipse cx="571.75" cy="751" fill="#ADD1B2" rx="11" ry="11" style="stroke:#181818;stroke-width:1.0;"/><path d="M574.7231,756.6431 Q574.1421,756.9419 573.5029,757.0913 Q572.8638,757.2407 572.1582,757.2407 Q569.6514,757.2407 568.3315,755.5889 Q567.0117,753.937 567.0117,750.8159 Q567.0117,747.6865 568.3315,746.0347 Q569.6514,744.3828 572.1582,744.3828 Q572.8638,744.3828 573.5112,744.5322 Q574.1587,744.6816 574.7231,744.9805 L574.7231,747.7031 Q574.0923,747.1221 573.4988,746.8523 Q572.9053,746.5825 572.2744,746.5825 Q570.9297,746.5825 570.2449,747.6492 Q569.5601,748.7158 569.5601,750.8159 Q569.5601,752.9077 570.2449,753.9744 Q570.9297,755.041 572.2744,755.041 Q572.9053,755.041 573.4988,754.7712 Q574.0923,754.5015 574.7231,753.9204 Z " fill="#000000"/><text fill="#000000" font-family="FG Virgil" font-size="14" lengthAdjust="spacing" textLength="123" x="592.25" y="756.291">RepositoryFactory</text><line style="stroke:#181818;stroke-width:0.5;" x1="482" x2="793" y1="767" y2="767"/><line style="stroke:#181818;stroke-width:0.5;" x1="482" x2="793" y1="775" y2="775"/><ellipse cx="492" cy="788.7441" fill="#84BE84" rx="3" ry="3" style="stroke:#038048;stroke-width:1.0;"/><text fill="#000000" font-family="FG Virgil" font-size="14" lengthAdjust="spacing" textLength="275" x="501" y="792.5352">meetingRepository(): MeetingRepository</text><ellipse cx="492" cy="805.2324" fill="#84BE84" rx="3" ry="3" style="stroke:#038048;stroke-width:1.0;"/><text fill="#000000" font-family="FG Virgil" font-size="14" lengthAdjust="spacing" textLength="287" x="501" y="809.0234">scheduleRepository(): ScheduleRepository</text><ellipse cx="492" cy="821.7207" fill="#84BE84" rx="3" ry="3" style="stroke:#038048;stroke-width:1.0;"/><text fill="#000000" font-family="FG Virgil" font-size="14" lengthAdjust="spacing" textLength="269" x="501" y="825.5117">studentRepository(): StudentRepository</text><ellipse cx="492" cy="838.209" fill="#84BE84" rx="3" ry="3" style="stroke:#038048;stroke-width:1.0;"/><text fill="#000000" font-family="FG Virgil" font-size="14" lengthAdjust="spacing" textLength="270" x="501" y="842">teacherRepository(): TeacherRepository</text></g><!--class MeetingRepository--><g id="elem_MeetingRepository"><rect codeLine="61" fill="#F1F1F1" height="64.4883" id="MeetingRepository" rx="2.5" ry="2.5" style="stroke:#181818;stroke-width:0.5;" width="277" x="7" y="925.5"/><ellipse cx="77.25" cy="941.5" fill="#B4A7E5" rx="11" ry="11" style="stroke:#181818;stroke-width:1.0;"/><path d="M73.1777,937.2651 L73.1777,935.1069 L80.5571,935.1069 L80.5571,937.2651 L78.0918,937.2651 L78.0918,945.3418 L80.5571,945.3418 L80.5571,947.5 L73.1777,947.5 L73.1777,945.3418 L75.6431,945.3418 L75.6431,937.2651 Z " fill="#000000"/><text fill="#000000" font-family="FG Virgil" font-size="14" font-style="italic" lengthAdjust="spacing" textLength="128" x="97.75" y="946.791">MeetingRepository</text><line style="stroke:#181818;stroke-width:0.5;" x1="8" x2="283" y1="957.5" y2="957.5"/><line style="stroke:#181818;stroke-width:0.5;" x1="8" x2="283" y1="965.5" y2="965.5"/><ellipse cx="18" cy="979.2441" fill="#84BE84" rx="3" ry="3" style="stroke:#038048;stroke-width:1.0;"/><text fill="#000000" font-family="FG Virgil" font-size="14" lengthAdjust="spacing" textLength="251" x="27" y="983.0352">saveMeeting(meeting: Meeting): void</text></g><!--class ScheduleRepository--><g id="elem_ScheduleRepository"><rect codeLine="65" fill="#F1F1F1" height="64.4883" id="ScheduleRepository" rx="2.5" ry="2.5" style="stroke:#181818;stroke-width:0.5;" width="296" x="319.5" y="925.5"/><ellipse cx="395.75" cy="941.5" fill="#B4A7E5" rx="11" ry="11" style="stroke:#181818;stroke-width:1.0;"/><path d="M391.6777,937.2651 L391.6777,935.1069 L399.0571,935.1069 L399.0571,937.2651 L396.5918,937.2651 L396.5918,945.3418 L399.0571,945.3418 L399.0571,947.5 L391.6777,947.5 L391.6777,945.3418 L394.1431,945.3418 L394.1431,937.2651 Z " fill="#000000"/><text fill="#000000" font-family="FG Virgil" font-size="14" font-style="italic" lengthAdjust="spacing" textLength="135" x="416.25" y="946.791">ScheduleRepository</text><line style="stroke:#181818;stroke-width:0.5;" x1="320.5" x2="614.5" y1="957.5" y2="957.5"/><line style="stroke:#181818;stroke-width:0.5;" x1="320.5" x2="614.5" y1="965.5" y2="965.5"/><ellipse cx="330.5" cy="979.2441" fill="#84BE84" rx="3" ry="3" style="stroke:#038048;stroke-width:1.0;"/><text fill="#000000" font-family="FG Virgil" font-size="14" lengthAdjust="spacing" textLength="270" x="339.5" y="983.0352">saveSchedule(schedule: Schedule): void</text></g><!--class StudentRepository--><g id="elem_StudentRepository"><rect codeLine="69" fill="#F1F1F1" height="97.4648" id="StudentRepository" rx="2.5" ry="2.5" style="stroke:#181818;stroke-width:0.5;" width="314" x="650.5" y="909"/><ellipse cx="740.25" cy="925" fill="#B4A7E5" rx="11" ry="11" style="stroke:#181818;stroke-width:1.0;"/><path d="M736.1777,920.7651 L736.1777,918.6069 L743.5571,918.6069 L743.5571,920.7651 L741.0918,920.7651 L741.0918,928.8418 L743.5571,928.8418 L743.5571,931 L736.1777,931 L736.1777,928.8418 L738.6431,928.8418 L738.6431,920.7651 Z " fill="#000000"/><text fill="#000000" font-family="FG Virgil" font-size="14" font-style="italic" lengthAdjust="spacing" textLength="126" x="760.75" y="930.291">StudentRepository</text><line style="stroke:#181818;stroke-width:0.5;" x1="651.5" x2="963.5" y1="941" y2="941"/><line style="stroke:#181818;stroke-width:0.5;" x1="651.5" x2="963.5" y1="949" y2="949"/><ellipse cx="661.5" cy="962.7441" fill="#84BE84" rx="3" ry="3" style="stroke:#038048;stroke-width:1.0;"/><text fill="#000000" font-family="FG Virgil" font-size="14" lengthAdjust="spacing" textLength="161" x="670.5" y="966.5352">findAll(): List&lt;Student&gt;</text><ellipse cx="661.5" cy="979.2324" fill="#84BE84" rx="3" ry="3" style="stroke:#038048;stroke-width:1.0;"/><text fill="#000000" font-family="FG Virgil" font-size="14" lengthAdjust="spacing" textLength="288" x="670.5" y="983.0234">findStudentByEmail(email: string): Student</text><ellipse cx="661.5" cy="995.7207" fill="#84BE84" rx="3" ry="3" style="stroke:#038048;stroke-width:1.0;"/><text fill="#000000" font-family="FG Virgil" font-size="14" lengthAdjust="spacing" textLength="190" x="670.5" y="999.5117">save(student: Student): void</text></g><!--class TeacherRepository--><g id="elem_TeacherRepository"><rect codeLine="75" fill="#F1F1F1" height="97.4648" id="TeacherRepository" rx="2.5" ry="2.5" style="stroke:#181818;stroke-width:0.5;" width="318" x="999.5" y="909"/><ellipse cx="1090.25" cy="925" fill="#B4A7E5" rx="11" ry="11" style="stroke:#181818;stroke-width:1.0;"/><path d="M1086.1777,920.7651 L1086.1777,918.6069 L1093.5571,918.6069 L1093.5571,920.7651 L1091.0918,920.7651 L1091.0918,928.8418 L1093.5571,928.8418 L1093.5571,931 L1086.1777,931 L1086.1777,928.8418 L1088.6431,928.8418 L1088.6431,920.7651 Z " fill="#000000"/><text fill="#000000" font-family="FG Virgil" font-size="14" font-style="italic" lengthAdjust="spacing" textLength="128" x="1110.75" y="930.291">TeacherRepository</text><line style="stroke:#181818;stroke-width:0.5;" x1="1000.5" x2="1316.5" y1="941" y2="941"/><line style="stroke:#181818;stroke-width:0.5;" x1="1000.5" x2="1316.5" y1="949" y2="949"/><ellipse cx="1010.5" cy="962.7441" fill="#84BE84" rx="3" ry="3" style="stroke:#038048;stroke-width:1.0;"/><text fill="#000000" font-family="FG Virgil" font-size="14" lengthAdjust="spacing" textLength="163" x="1019.5" y="966.5352">findAll(): List&lt;Teacher&gt;</text><ellipse cx="1010.5" cy="979.2324" fill="#84BE84" rx="3" ry="3" style="stroke:#038048;stroke-width:1.0;"/><text fill="#000000" font-family="FG Virgil" font-size="14" lengthAdjust="spacing" textLength="292" x="1019.5" y="983.0234">findTeacherByEmail(email: string): Teacher</text><ellipse cx="1010.5" cy="995.7207" fill="#84BE84" rx="3" ry="3" style="stroke:#038048;stroke-width:1.0;"/><text fill="#000000" font-family="FG Virgil" font-size="14" lengthAdjust="spacing" textLength="191" x="1019.5" y="999.5117">save(teacher: Teacher): void</text></g><!--class JPAMeetingRepository--><g id="elem_JPAMeetingRepository"><rect codeLine="81" fill="#F1F1F1" height="64.4883" id="JPAMeetingRepository" rx="2.5" ry="2.5" style="stroke:#181818;stroke-width:0.5;" width="277" x="7" y="1082.5"/><ellipse cx="66.25" cy="1098.5" fill="#ADD1B2" rx="11" ry="11" style="stroke:#181818;stroke-width:1.0;"/><path d="M69.2231,1104.1431 Q68.6421,1104.4419 68.0029,1104.5913 Q67.3638,1104.7407 66.6582,1104.7407 Q64.1514,1104.7407 62.8315,1103.0889 Q61.5117,1101.437 61.5117,1098.3159 Q61.5117,1095.1865 62.8315,1093.5347 Q64.1514,1091.8828 66.6582,1091.8828 Q67.3638,1091.8828 68.0112,1092.0322 Q68.6587,1092.1816 69.2231,1092.4805 L69.2231,1095.2031 Q68.5923,1094.6221 67.9988,1094.3523 Q67.4053,1094.0825 66.7744,1094.0825 Q65.4297,1094.0825 64.7449,1095.1492 Q64.0601,1096.2158 64.0601,1098.3159 Q64.0601,1100.4077 64.7449,1101.4744 Q65.4297,1102.541 66.7744,1102.541 Q67.4053,1102.541 67.9988,1102.2712 Q68.5923,1102.0015 69.2231,1101.4204 Z " fill="#000000"/><text fill="#000000" font-family="FG Virgil" font-size="14" lengthAdjust="spacing" textLength="150" x="86.75" y="1103.791">JPAMeetingRepository</text><line style="stroke:#181818;stroke-width:0.5;" x1="8" x2="283" y1="1114.5" y2="1114.5"/><line style="stroke:#181818;stroke-width:0.5;" x1="8" x2="283" y1="1122.5" y2="1122.5"/><ellipse cx="18" cy="1136.2441" fill="#84BE84" rx="3" ry="3" style="stroke:#038048;stroke-width:1.0;"/><text fill="#000000" font-family="FG Virgil" font-size="14" lengthAdjust="spacing" textLength="251" x="27" y="1140.0352">saveMeeting(meeting: Meeting): void</text></g><!--class JPAScheduleRepository--><g id="elem_JPAScheduleRepository"><rect codeLine="85" fill="#F1F1F1" height="64.4883" id="JPAScheduleRepository" rx="2.5" ry="2.5" style="stroke:#181818;stroke-width:0.5;" width="296" x="319.5" y="1082.5"/><ellipse cx="384.75" cy="1098.5" fill="#ADD1B2" rx="11" ry="11" style="stroke:#181818;stroke-width:1.0;"/><path d="M387.7231,1104.1431 Q387.1421,1104.4419 386.5029,1104.5913 Q385.8638,1104.7407 385.1582,1104.7407 Q382.6514,1104.7407 381.3315,1103.0889 Q380.0117,1101.437 380.0117,1098.3159 Q380.0117,1095.1865 381.3315,1093.5347 Q382.6514,1091.8828 385.1582,1091.8828 Q385.8638,1091.8828 386.5112,1092.0322 Q387.1587,1092.1816 387.7231,1092.4805 L387.7231,1095.2031 Q387.0923,1094.6221 386.4988,1094.3523 Q385.9053,1094.0825 385.2744,1094.0825 Q383.9297,1094.0825 383.2449,1095.1492 Q382.5601,1096.2158 382.5601,1098.3159 Q382.5601,1100.4077 383.2449,1101.4744 Q383.9297,1102.541 385.2744,1102.541 Q385.9053,1102.541 386.4988,1102.2712 Q387.0923,1102.0015 387.7231,1101.4204 Z " fill="#000000"/><text fill="#000000" font-family="FG Virgil" font-size="14" lengthAdjust="spacing" textLength="157" x="405.25" y="1103.791">JPAScheduleRepository</text><line style="stroke:#181818;stroke-width:0.5;" x1="320.5" x2="614.5" y1="1114.5" y2="1114.5"/><line style="stroke:#181818;stroke-width:0.5;" x1="320.5" x2="614.5" y1="1122.5" y2="1122.5"/><ellipse cx="330.5" cy="1136.2441" fill="#84BE84" rx="3" ry="3" style="stroke:#038048;stroke-width:1.0;"/><text fill="#000000" font-family="FG Virgil" font-size="14" lengthAdjust="spacing" textLength="270" x="339.5" y="1140.0352">saveSchedule(schedule: Schedule): void</text></g><!--class JPAStudentRepository--><g id="elem_JPAStudentRepository"><rect codeLine="89" fill="#F1F1F1" height="97.4648" id="JPAStudentRepository" rx="2.5" ry="2.5" style="stroke:#181818;stroke-width:0.5;" width="314" x="650.5" y="1066"/><ellipse cx="729.25" cy="1082" fill="#ADD1B2" rx="11" ry="11" style="stroke:#181818;stroke-width:1.0;"/><path d="M732.2231,1087.6431 Q731.6421,1087.9419 731.0029,1088.0913 Q730.3638,1088.2407 729.6582,1088.2407 Q727.1514,1088.2407 725.8315,1086.5889 Q724.5117,1084.937 724.5117,1081.8159 Q724.5117,1078.6865 725.8315,1077.0347 Q727.1514,1075.3828 729.6582,1075.3828 Q730.3638,1075.3828 731.0112,1075.5322 Q731.6587,1075.6816 732.2231,1075.9805 L732.2231,1078.7031 Q731.5923,1078.1221 730.9988,1077.8523 Q730.4053,1077.5825 729.7744,1077.5825 Q728.4297,1077.5825 727.7449,1078.6492 Q727.0601,1079.7158 727.0601,1081.8159 Q727.0601,1083.9077 727.7449,1084.9744 Q728.4297,1086.041 729.7744,1086.041 Q730.4053,1086.041 730.9988,1085.7712 Q731.5923,1085.5015 732.2231,1084.9204 Z " fill="#000000"/><text fill="#000000" font-family="FG Virgil" font-size="14" lengthAdjust="spacing" textLength="148" x="749.75" y="1087.291">JPAStudentRepository</text><line style="stroke:#181818;stroke-width:0.5;" x1="651.5" x2="963.5" y1="1098" y2="1098"/><line style="stroke:#181818;stroke-width:0.5;" x1="651.5" x2="963.5" y1="1106" y2="1106"/><ellipse cx="661.5" cy="1119.7441" fill="#84BE84" rx="3" ry="3" style="stroke:#038048;stroke-width:1.0;"/><text fill="#000000" font-family="FG Virgil" font-size="14" lengthAdjust="spacing" textLength="161" x="670.5" y="1123.5352">findAll(): List&lt;Student&gt;</text><ellipse cx="661.5" cy="1136.2324" fill="#84BE84" rx="3" ry="3" style="stroke:#038048;stroke-width:1.0;"/><text fill="#000000" font-family="FG Virgil" font-size="14" lengthAdjust="spacing" textLength="288" x="670.5" y="1140.0234">findStudentByEmail(email: string): Student</text><ellipse cx="661.5" cy="1152.7207" fill="#84BE84" rx="3" ry="3" style="stroke:#038048;stroke-width:1.0;"/><text fill="#000000" font-family="FG Virgil" font-size="14" lengthAdjust="spacing" textLength="190" x="670.5" y="1156.5117">save(student: Student): void</text></g><!--class JPATeacherRepository--><g id="elem_JPATeacherRepository"><rect codeLine="95" fill="#F1F1F1" height="97.4648" id="JPATeacherRepository" rx="2.5" ry="2.5" style="stroke:#181818;stroke-width:0.5;" width="318" x="999.5" y="1066"/><ellipse cx="1079.25" cy="1082" fill="#ADD1B2" rx="11" ry="11" style="stroke:#181818;stroke-width:1.0;"/><path d="M1082.2231,1087.6431 Q1081.6421,1087.9419 1081.0029,1088.0913 Q1080.3638,1088.2407 1079.6582,1088.2407 Q1077.1514,1088.2407 1075.8315,1086.5889 Q1074.5117,1084.937 1074.5117,1081.8159 Q1074.5117,1078.6865 1075.8315,1077.0347 Q1077.1514,1075.3828 1079.6582,1075.3828 Q1080.3638,1075.3828 1081.0112,1075.5322 Q1081.6587,1075.6816 1082.2231,1075.9805 L1082.2231,1078.7031 Q1081.5923,1078.1221 1080.9988,1077.8523 Q1080.4053,1077.5825 1079.7744,1077.5825 Q1078.4297,1077.5825 1077.7449,1078.6492 Q1077.0601,1079.7158 1077.0601,1081.8159 Q1077.0601,1083.9077 1077.7449,1084.9744 Q1078.4297,1086.041 1079.7744,1086.041 Q1080.4053,1086.041 1080.9988,1085.7712 Q1081.5923,1085.5015 1082.2231,1084.9204 Z " fill="#000000"/><text fill="#000000" font-family="FG Virgil" font-size="14" lengthAdjust="spacing" textLength="150" x="1099.75" y="1087.291">JPATeacherRepository</text><line style="stroke:#181818;stroke-width:0.5;" x1="1000.5" x2="1316.5" y1="1098" y2="1098"/><line style="stroke:#181818;stroke-width:0.5;" x1="1000.5" x2="1316.5" y1="1106" y2="1106"/><ellipse cx="1010.5" cy="1119.7441" fill="#84BE84" rx="3" ry="3" style="stroke:#038048;stroke-width:1.0;"/><text fill="#000000" font-family="FG Virgil" font-size="14" lengthAdjust="spacing" textLength="163" x="1019.5" y="1123.5352">findAll(): List&lt;Teacher&gt;</text><ellipse cx="1010.5" cy="1136.2324" fill="#84BE84" rx="3" ry="3" style="stroke:#038048;stroke-width:1.0;"/><text fill="#000000" font-family="FG Virgil" font-size="14" lengthAdjust="spacing" textLength="292" x="1019.5" y="1140.0234">findTeacherByEmail(email: string): Teacher</text><ellipse cx="1010.5" cy="1152.7207" fill="#84BE84" rx="3" ry="3" style="stroke:#038048;stroke-width:1.0;"/><text fill="#000000" font-family="FG Virgil" font-size="14" lengthAdjust="spacing" textLength="191" x="1019.5" y="1156.5117">save(teacher: Teacher): void</text></g><!--link CreateMeetingUI to CreateMeetingController--><g id="link_CreateMeetingUI_CreateMeetingController"><path codeLine="102" d="M824.5,121.46 C824.5,138.71 824.5,157.87 824.5,175.857 " fill="none" id="CreateMeetingUI-to-CreateMeetingController" style="stroke:#181818;stroke-width:1.0;"/><polygon fill="#181818" points="824.5,180.896,828.5,171.896,824.5,175.896,820.5,171.896,824.5,180.896" style="stroke:#181818;stroke-width:1.0;"/></g><!--link CreateMeetingController to MeetingManagementService--><g id="link_CreateMeetingController_MeetingManagementService"><path codeLine="103" d="M723.535,311.196 C695.349,329.117 664.161,348.947 633.989,368.131 " fill="none" id="CreateMeetingController-to-MeetingManagementService" style="stroke:#181818;stroke-width:1.0;"/><polygon fill="#181818" points="629.545,370.956,639.2859,369.5015,633.7641,368.2728,634.9928,362.751,629.545,370.956" style="stroke:#181818;stroke-width:1.0;"/></g><!--link CreateMeetingController to Meeting--><g id="link_CreateMeetingController_Meeting"><path codeLine="105" d="M824.5,311.196 C824.5,336.345 824.5,365.253 824.5,390.86 " fill="none" id="CreateMeetingController-to-Meeting" style="stroke:#181818;stroke-width:1.0;"/><polygon fill="#181818" points="824.5,395.936,828.5,386.936,824.5,390.936,820.5,386.936,824.5,395.936" style="stroke:#181818;stroke-width:1.0;"/></g><!--link CreateMeetingController to Schedule--><g id="link_CreateMeetingController_Schedule"><path codeLine="106" d="M891.408,311.196 C926.986,345.331 969.78,386.39 1001.395,416.724 " fill="none" id="CreateMeetingController-to-Schedule" style="stroke:#181818;stroke-width:1.0;"/><polygon fill="#181818" points="1005.194,420.368,1001.4698,411.2504,1001.5863,416.9061,995.9307,417.0227,1005.194,420.368" style="stroke:#181818;stroke-width:1.0;"/></g><!--link MeetingManagementService to AuthorizationService--><g id="link_MeetingManagementService_AuthorizationService"><path codeLine="108" d="M416.646,551.209 C400.54,570.931 384.392,590.704 371.297,606.739 " fill="none" id="MeetingManagementService-to-AuthorizationService" style="stroke:#181818;stroke-width:1.0;"/><polygon fill="#181818" points="368.035,610.732,376.8268,606.293,371.1984,606.8599,370.6314,601.2316,368.035,610.732" style="stroke:#181818;stroke-width:1.0;"/></g><!--link MeetingManagementService to PersistenceContext--><g id="link_MeetingManagementService_PersistenceContext"><path codeLine="109" d="M562.85,551.209 C579.066,570.931 595.323,590.704 608.507,606.739 " fill="none" id="MeetingManagementService-to-PersistenceContext" style="stroke:#181818;stroke-width:1.0;"/><polygon fill="#181818" points="611.791,610.732,609.1636,601.2401,608.615,606.8702,602.9848,606.3216,611.791,610.732" style="stroke:#181818;stroke-width:1.0;"/></g><!--link PersistenceContext to RepositoryFactory--><g id="link_PersistenceContext_RepositoryFactory"><path codeLine="111" d="M637.5,675.175 C637.5,691.044 637.5,710.907 637.5,729.679 " fill="none" id="PersistenceContext-to-RepositoryFactory" style="stroke:#181818;stroke-width:1.0;"/><polygon fill="#181818" points="637.5,734.941,641.5,725.941,637.5,729.941,633.5,725.941,637.5,734.941" style="stroke:#181818;stroke-width:1.0;"/></g><!--link RepositoryFactory to StudentRepository--><g id="link_RepositoryFactory_StudentRepository"><path codeLine="113" d="M696.004,849.267 C714.913,867.453 735.766,887.508 754.271,905.307 " fill="none" id="RepositoryFactory-to-StudentRepository" style="stroke:#181818;stroke-width:1.0;"/><polygon fill="#181818" points="757.94,908.835,754.225,899.7137,754.3359,905.3694,748.6801,905.4803,757.94,908.835" style="stroke:#181818;stroke-width:1.0;"/></g><!--link RepositoryFactory to TeacherRepository--><g id="link_RepositoryFactory_TeacherRepository"><path codeLine="114" d="M794.17,842.166 C859.886,862.789 936.141,886.719 1001.854,907.341 " fill="none" id="RepositoryFactory-to-TeacherRepository" style="stroke:#181818;stroke-width:1.0;"/><polygon fill="#181818" points="1006.968,908.946,999.5783,902.435,1002.1973,907.4491,997.1833,910.0681,1006.968,908.946" style="stroke:#181818;stroke-width:1.0;"/></g><!--link RepositoryFactory to MeetingRepository--><g id="link_RepositoryFactory_MeetingRepository"><path codeLine="115" d="M480.814,845.069 C403.071,870.905 311.559,901.316 243.793,923.836 " fill="none" id="RepositoryFactory-to-MeetingRepository" style="stroke:#181818;stroke-width:1.0;"/><polygon fill="#181818" points="238.955,925.443,248.7573,926.3997,243.6997,923.8657,246.2336,918.8081,238.955,925.443" style="stroke:#181818;stroke-width:1.0;"/></g><!--link RepositoryFactory to ScheduleRepository--><g id="link_RepositoryFactory_ScheduleRepository"><path codeLine="116" d="M578.996,849.267 C553.937,873.368 525.465,900.752 503.565,921.814 " fill="none" id="RepositoryFactory-to-ScheduleRepository" style="stroke:#181818;stroke-width:1.0;"/><polygon fill="#181818" points="499.832,925.404,509.0919,922.0493,503.4361,921.9384,503.547,916.2827,499.832,925.404" style="stroke:#181818;stroke-width:1.0;"/></g><!--link StudentRepository to JPAStudentRepository--><g id="link_StudentRepository_JPAStudentRepository"><path codeLine="118" d="M807.5,1006.27 C807.5,1023.44 807.5,1042.905 807.5,1060.494 " fill="none" id="StudentRepository-to-JPAStudentRepository" style="stroke:#181818;stroke-width:1.0;"/><polygon fill="#181818" points="807.5,1065.8879,811.5,1056.8879,807.5,1060.8879,803.5,1056.8879,807.5,1065.8879" style="stroke:#181818;stroke-width:1.0;"/></g><!--link TeacherRepository to JPATeacherRepository--><g id="link_TeacherRepository_JPATeacherRepository"><path codeLine="119" d="M1158.5,1006.27 C1158.5,1023.44 1158.5,1042.905 1158.5,1060.494 " fill="none" id="TeacherRepository-to-JPATeacherRepository" style="stroke:#181818;stroke-width:1.0;"/><polygon fill="#181818" points="1158.5,1065.8879,1162.5,1056.8879,1158.5,1060.8879,1154.5,1056.8879,1158.5,1065.8879" style="stroke:#181818;stroke-width:1.0;"/></g><!--link MeetingRepository to JPAMeetingRepository--><g id="link_MeetingRepository_JPAMeetingRepository"><path codeLine="120" d="M145.5,989.867 C145.5,1015.161 145.5,1050.763 145.5,1077.2704 " fill="none" id="MeetingRepository-to-JPAMeetingRepository" style="stroke:#181818;stroke-width:1.0;"/><polygon fill="#181818" points="145.5,1082.445,149.5,1073.445,145.5,1077.445,141.5,1073.445,145.5,1082.445" style="stroke:#181818;stroke-width:1.0;"/></g><!--link ScheduleRepository to JPAScheduleRepository--><g id="link_ScheduleRepository_JPAScheduleRepository"><path codeLine="121" d="M467.5,989.867 C467.5,1015.161 467.5,1050.763 467.5,1077.2704 " fill="none" id="ScheduleRepository-to-JPAScheduleRepository" style="stroke:#181818;stroke-width:1.0;"/><polygon fill="#181818" points="467.5,1082.445,471.5,1073.445,467.5,1077.445,463.5,1073.445,467.5,1082.445" style="stroke:#181818;stroke-width:1.0;"/></g><!--SRC=[vLPDZzCm4BtdL_YOLTi_KA5AfL04eh3QThbxasbhuJYLxLGiYF-EdTXnch5tYvR3IlIGAfutpy_p5QllJ9oef1KfOKyRhjUrq5ze1MJzWNnZyi1uPdu5fqgHbGIgOGEWcJZSVoI_Cc9-4rKSeMmuj6PMYvm9fXdbxmnuJknpnogOahAHhNt3HAD1pGaJ-cPEjixTaG6LnV5UWLJqJ1cd3nnolqC06x_FJEat5hZeF8kXkfoLBV-KjD9tJ5jlfQMnJGdccn9OrOrKqEuy93SxdMjMTdimiQzbzVK4tKdkG9cGvQef2b36ww6kEL3XNNv70xSo4POrvo1T06TLPzXGGGzGWT1Ra6TM67cRXEM_2xpHrE_WmjL71uKx5RLHlE_WL2kcQ_dOKuMb3kdr3g5RjEQmkYdDNXVGyLA7r40DXnmYT-EbboR51ioRunv_5zn0sft92UwtU3OfoqOVQyb-jfLucP09TJR86tE2ER7dI6NL9z7LMVTIWc87qLARmWylFZDjGpY2hNtpYL3Q5sUtaYh68CEVkDSHwpcdAj9tWUZMR67uGHHWHmByq3uS1nYKp9eMzYytyK2BWGoPF1UgTKiKh_O9hlRy9bdl4rJlBJXQyHDKyHQBQzuSnuG8v9wQsa0Y- -_DTRCWCE4J3Ackw99Bjl4HFTcUYNB9UUwxqG4NmUfMtZw-hqmpvs2Vllv2y8AqtCMuDqK5eJYc13dWG91RIGbove4WbyZUXBhqq-tofOdhYVv5tWBPwqXRh-ULP2qRN-fciqNglfAbxZ7M9tbLkSRhIKn_JycI7tOBYtrWdlJ00pZB8aFP8F7WpV30RQMYyHV7uT4Nn-51dTWNp-WC5xn5nZeXmxNee5WdRcu7nL8ZxUiLHEJ-0G00]--></g></svg>