<?xml version="1.0" encoding="us-ascii" standalone="no"?><svg xmlns="http://www.w3.org/2000/svg" xmlns:xlink="http://www.w3.org/1999/xlink" contentStyleType="text/css" height="1287px" preserveAspectRatio="none" style="width:2050px;height:1287px;background:#FFFFFF;" version="1.1" viewBox="0 0 2050 1287" width="2050px" zoomAndPan="magnify"><defs/><g><!--class TakeExamAction--><g id="elem_TakeExamAction"><rect codeLine="2" fill="#F1F1F1" height="66.6211" id="TakeExamAction" rx="2.5" ry="2.5" style="stroke:#181818;stroke-width:0.5;" width="137" x="1163" y="7"/><ellipse cx="1178" cy="23" fill="#ADD1B2" rx="11" ry="11" style="stroke:#181818;stroke-width:1.0;"/><path d="M1180.7656,18.875 Q1180.9219,18.6563 1181.1094,18.5469 Q1181.2969,18.4375 1181.5156,18.4375 Q1181.8906,18.4375 1182.125,18.7031 Q1182.3594,18.9531 1182.3594,19.5625 L1182.3594,21.0156 Q1182.3594,21.625 1182.125,21.8906 Q1181.8906,22.1563 1181.5156,22.1563 Q1181.1719,22.1563 1180.9688,21.9531 Q1180.7656,21.7656 1180.6563,21.25 Q1180.6094,20.8906 1180.4219,20.7031 Q1180.0938,20.3281 1179.4844,20.1094 Q1178.875,19.8906 1178.25,19.8906 Q1177.4844,19.8906 1176.8438,20.2188 Q1176.2188,20.5469 1175.7188,21.2969 Q1175.2344,22.0469 1175.2344,23.0781 L1175.2344,24.1719 Q1175.2344,25.4063 1176.125,26.2344 Q1177.0156,27.0469 1178.6094,27.0469 Q1179.5469,27.0469 1180.2031,26.7969 Q1180.5938,26.6406 1181.0156,26.2031 Q1181.2813,25.9375 1181.4219,25.8594 Q1181.5781,25.7813 1181.7813,25.7813 Q1182.1094,25.7813 1182.3594,26.0469 Q1182.625,26.2969 1182.625,26.6406 Q1182.625,26.9844 1182.2813,27.3906 Q1181.7813,27.9688 1180.9844,28.2969 Q1179.9063,28.75 1178.6094,28.75 Q1177.0938,28.75 1175.8906,28.125 Q1174.9063,27.625 1174.2188,26.5625 Q1173.5313,25.4844 1173.5313,24.2031 L1173.5313,23.0469 Q1173.5313,21.7188 1174.1406,20.5781 Q1174.7656,19.4219 1175.8594,18.8125 Q1176.9531,18.1875 1178.1875,18.1875 Q1178.9219,18.1875 1179.5625,18.3594 Q1180.2188,18.5156 1180.7656,18.875 Z " fill="#000000"/><text fill="#000000" font-family="sans-serif" font-size="14" lengthAdjust="spacing" textLength="105" x="1192" y="28.7969">TakeExamAction</text><line style="stroke:#181818;stroke-width:0.5;" x1="1164" x2="1299" y1="39" y2="39"/><line style="stroke:#181818;stroke-width:0.5;" x1="1164" x2="1299" y1="47" y2="47"/><ellipse cx="1174" cy="61.8105" fill="#84BE84" rx="3" ry="3" style="stroke:#038048;stroke-width:1.0;"/><text fill="#000000" font-family="sans-serif" font-size="14" lengthAdjust="spacing" textLength="42" x="1183" y="66.1074">show()</text></g><!--class TakeExamUI--><g id="elem_TakeExamUI"><rect codeLine="6" fill="#F1F1F1" height="66.6211" id="TakeExamUI" rx="2.5" ry="2.5" style="stroke:#181818;stroke-width:0.5;" width="110" x="1176.5" y="134"/><ellipse cx="1191.5" cy="150" fill="#ADD1B2" rx="11" ry="11" style="stroke:#181818;stroke-width:1.0;"/><path d="M1194.2656,145.875 Q1194.4219,145.6563 1194.6094,145.5469 Q1194.7969,145.4375 1195.0156,145.4375 Q1195.3906,145.4375 1195.625,145.7031 Q1195.8594,145.9531 1195.8594,146.5625 L1195.8594,148.0156 Q1195.8594,148.625 1195.625,148.8906 Q1195.3906,149.1563 1195.0156,149.1563 Q1194.6719,149.1563 1194.4688,148.9531 Q1194.2656,148.7656 1194.1563,148.25 Q1194.1094,147.8906 1193.9219,147.7031 Q1193.5938,147.3281 1192.9844,147.1094 Q1192.375,146.8906 1191.75,146.8906 Q1190.9844,146.8906 1190.3438,147.2188 Q1189.7188,147.5469 1189.2188,148.2969 Q1188.7344,149.0469 1188.7344,150.0781 L1188.7344,151.1719 Q1188.7344,152.4063 1189.625,153.2344 Q1190.5156,154.0469 1192.1094,154.0469 Q1193.0469,154.0469 1193.7031,153.7969 Q1194.0938,153.6406 1194.5156,153.2031 Q1194.7813,152.9375 1194.9219,152.8594 Q1195.0781,152.7813 1195.2813,152.7813 Q1195.6094,152.7813 1195.8594,153.0469 Q1196.125,153.2969 1196.125,153.6406 Q1196.125,153.9844 1195.7813,154.3906 Q1195.2813,154.9688 1194.4844,155.2969 Q1193.4063,155.75 1192.1094,155.75 Q1190.5938,155.75 1189.3906,155.125 Q1188.4063,154.625 1187.7188,153.5625 Q1187.0313,152.4844 1187.0313,151.2031 L1187.0313,150.0469 Q1187.0313,148.7188 1187.6406,147.5781 Q1188.2656,146.4219 1189.3594,145.8125 Q1190.4531,145.1875 1191.6875,145.1875 Q1192.4219,145.1875 1193.0625,145.3594 Q1193.7188,145.5156 1194.2656,145.875 Z " fill="#000000"/><text fill="#000000" font-family="sans-serif" font-size="14" lengthAdjust="spacing" textLength="78" x="1205.5" y="155.7969">TakeExamUI</text><line style="stroke:#181818;stroke-width:0.5;" x1="1177.5" x2="1285.5" y1="166" y2="166"/><line style="stroke:#181818;stroke-width:0.5;" x1="1177.5" x2="1285.5" y1="174" y2="174"/><ellipse cx="1187.5" cy="188.8105" fill="#84BE84" rx="3" ry="3" style="stroke:#038048;stroke-width:1.0;"/><text fill="#000000" font-family="sans-serif" font-size="14" lengthAdjust="spacing" textLength="60" x="1196.5" y="193.1074">doShow()</text></g><!--class TakeExamController--><g id="elem_TakeExamController"><rect codeLine="10" fill="#F1F1F1" height="196.9688" id="TakeExamController" rx="2.5" ry="2.5" style="stroke:#181818;stroke-width:0.5;" width="694" x="884.5" y="261"/><ellipse cx="1163.25" cy="277" fill="#ADD1B2" rx="11" ry="11" style="stroke:#181818;stroke-width:1.0;"/><path d="M1166.0156,272.875 Q1166.1719,272.6563 1166.3594,272.5469 Q1166.5469,272.4375 1166.7656,272.4375 Q1167.1406,272.4375 1167.375,272.7031 Q1167.6094,272.9531 1167.6094,273.5625 L1167.6094,275.0156 Q1167.6094,275.625 1167.375,275.8906 Q1167.1406,276.1563 1166.7656,276.1563 Q1166.4219,276.1563 1166.2188,275.9531 Q1166.0156,275.7656 1165.9063,275.25 Q1165.8594,274.8906 1165.6719,274.7031 Q1165.3438,274.3281 1164.7344,274.1094 Q1164.125,273.8906 1163.5,273.8906 Q1162.7344,273.8906 1162.0938,274.2188 Q1161.4688,274.5469 1160.9688,275.2969 Q1160.4844,276.0469 1160.4844,277.0781 L1160.4844,278.1719 Q1160.4844,279.4063 1161.375,280.2344 Q1162.2656,281.0469 1163.8594,281.0469 Q1164.7969,281.0469 1165.4531,280.7969 Q1165.8438,280.6406 1166.2656,280.2031 Q1166.5313,279.9375 1166.6719,279.8594 Q1166.8281,279.7813 1167.0313,279.7813 Q1167.3594,279.7813 1167.6094,280.0469 Q1167.875,280.2969 1167.875,280.6406 Q1167.875,280.9844 1167.5313,281.3906 Q1167.0313,281.9688 1166.2344,282.2969 Q1165.1563,282.75 1163.8594,282.75 Q1162.3438,282.75 1161.1406,282.125 Q1160.1563,281.625 1159.4688,280.5625 Q1158.7813,279.4844 1158.7813,278.2031 L1158.7813,277.0469 Q1158.7813,275.7188 1159.3906,274.5781 Q1160.0156,273.4219 1161.1094,272.8125 Q1162.2031,272.1875 1163.4375,272.1875 Q1164.1719,272.1875 1164.8125,272.3594 Q1165.4688,272.5156 1166.0156,272.875 Z " fill="#000000"/><text fill="#000000" font-family="sans-serif" font-size="14" lengthAdjust="spacing" textLength="128" x="1183.75" y="282.7969">TakeExamController</text><line style="stroke:#181818;stroke-width:0.5;" x1="885.5" x2="1577.5" y1="293" y2="293"/><line style="stroke:#181818;stroke-width:0.5;" x1="885.5" x2="1577.5" y1="301" y2="301"/><ellipse cx="895.5" cy="315.8105" fill="#84BE84" rx="3" ry="3" style="stroke:#038048;stroke-width:1.0;"/><text fill="#000000" font-family="sans-serif" font-size="14" lengthAdjust="spacing" textLength="112" x="904.5" y="320.1074">findActiveExams()</text><ellipse cx="895.5" cy="334.4316" fill="#84BE84" rx="3" ry="3" style="stroke:#038048;stroke-width:1.0;"/><text fill="#000000" font-family="sans-serif" font-size="14" lengthAdjust="spacing" textLength="126" x="904.5" y="338.7285">doExamEvaluation()</text><ellipse cx="895.5" cy="353.0527" fill="#84BE84" rx="3" ry="3" style="stroke:#038048;stroke-width:1.0;"/><text fill="#000000" font-family="sans-serif" font-size="14" lengthAdjust="spacing" textLength="187" x="904.5" y="357.3496">setDisplayExam(displayExam)</text><ellipse cx="895.5" cy="371.6738" fill="#84BE84" rx="3" ry="3" style="stroke:#038048;stroke-width:1.0;"/><text fill="#000000" font-family="sans-serif" font-size="14" lengthAdjust="spacing" textLength="150" x="904.5" y="375.9707">validateAnswer(answer)</text><ellipse cx="895.5" cy="390.2949" fill="#84BE84" rx="3" ry="3" style="stroke:#038048;stroke-width:1.0;"/><text fill="#000000" font-family="sans-serif" font-size="14" lengthAdjust="spacing" textLength="194" x="904.5" y="394.5918">validateAnswerList(answerList)</text><ellipse cx="895.5" cy="408.916" fill="#84BE84" rx="3" ry="3" style="stroke:#038048;stroke-width:1.0;"/><text fill="#000000" font-family="sans-serif" font-size="14" lengthAdjust="spacing" textLength="309" x="904.5" y="413.2129">validateMatchingAnswer(leftAnswer, rightAnswer)</text><ellipse cx="895.5" cy="427.5371" fill="#84BE84" rx="3" ry="3" style="stroke:#038048;stroke-width:1.0;"/><text fill="#000000" font-family="sans-serif" font-size="14" lengthAdjust="spacing" textLength="257" x="904.5" y="431.834">showOptions(displayHeader, optionsList)</text><ellipse cx="895.5" cy="446.1582" fill="#84BE84" rx="3" ry="3" style="stroke:#038048;stroke-width:1.0;"/><text fill="#000000" font-family="sans-serif" font-size="14" lengthAdjust="spacing" textLength="668" x="904.5" y="450.4551">showEvaluationResults(gradesList, studentGrades, correctAnswersList, studentAnswersList, feedbackList)</text></g><!--class ExamEvaluationListener--><g id="elem_ExamEvaluationListener"><rect codeLine="21" fill="#F1F1F1" height="271.4531" id="ExamEvaluationListener" rx="2.5" ry="2.5" style="stroke:#181818;stroke-width:0.5;" width="595" x="7" y="518"/><ellipse cx="224.75" cy="534" fill="#ADD1B2" rx="11" ry="11" style="stroke:#181818;stroke-width:1.0;"/><path d="M227.5156,529.875 Q227.6719,529.6563 227.8594,529.5469 Q228.0469,529.4375 228.2656,529.4375 Q228.6406,529.4375 228.875,529.7031 Q229.1094,529.9531 229.1094,530.5625 L229.1094,532.0156 Q229.1094,532.625 228.875,532.8906 Q228.6406,533.1563 228.2656,533.1563 Q227.9219,533.1563 227.7188,532.9531 Q227.5156,532.7656 227.4063,532.25 Q227.3594,531.8906 227.1719,531.7031 Q226.8438,531.3281 226.2344,531.1094 Q225.625,530.8906 225,530.8906 Q224.2344,530.8906 223.5938,531.2188 Q222.9688,531.5469 222.4688,532.2969 Q221.9844,533.0469 221.9844,534.0781 L221.9844,535.1719 Q221.9844,536.4063 222.875,537.2344 Q223.7656,538.0469 225.3594,538.0469 Q226.2969,538.0469 226.9531,537.7969 Q227.3438,537.6406 227.7656,537.2031 Q228.0313,536.9375 228.1719,536.8594 Q228.3281,536.7813 228.5313,536.7813 Q228.8594,536.7813 229.1094,537.0469 Q229.375,537.2969 229.375,537.6406 Q229.375,537.9844 229.0313,538.3906 Q228.5313,538.9688 227.7344,539.2969 Q226.6563,539.75 225.3594,539.75 Q223.8438,539.75 222.6406,539.125 Q221.6563,538.625 220.9688,537.5625 Q220.2813,536.4844 220.2813,535.2031 L220.2813,534.0469 Q220.2813,532.7188 220.8906,531.5781 Q221.5156,530.4219 222.6094,529.8125 Q223.7031,529.1875 224.9375,529.1875 Q225.6719,529.1875 226.3125,529.3594 Q226.9688,529.5156 227.5156,529.875 Z " fill="#000000"/><text fill="#000000" font-family="sans-serif" font-size="14" lengthAdjust="spacing" textLength="151" x="245.25" y="539.7969">ExamEvaluationListener</text><line style="stroke:#181818;stroke-width:0.5;" x1="8" x2="601" y1="550" y2="550"/><line style="stroke:#181818;stroke-width:0.5;" x1="8" x2="601" y1="558" y2="558"/><ellipse cx="18" cy="572.8105" fill="#84BE84" rx="3" ry="3" style="stroke:#038048;stroke-width:1.0;"/><text fill="#000000" font-family="sans-serif" font-size="14" lengthAdjust="spacing" textLength="311" x="27" y="577.1074">enterStart(ExamGrammarParser.StartContext ctx)</text><ellipse cx="18" cy="591.4316" fill="#84BE84" rx="3" ry="3" style="stroke:#038048;stroke-width:1.0;"/><text fill="#000000" font-family="sans-serif" font-size="14" lengthAdjust="spacing" textLength="305" x="27" y="595.7285">enterTitle(ExamGrammarParser.TitleContext ctx)</text><ellipse cx="18" cy="610.0527" fill="#84BE84" rx="3" ry="3" style="stroke:#038048;stroke-width:1.0;"/><text fill="#000000" font-family="sans-serif" font-size="14" lengthAdjust="spacing" textLength="393" x="27" y="614.3496">enterDescription(ExamGrammarParser.DescriptionContext ctx)</text><ellipse cx="18" cy="628.6738" fill="#84BE84" rx="3" ry="3" style="stroke:#038048;stroke-width:1.0;"/><text fill="#000000" font-family="sans-serif" font-size="14" lengthAdjust="spacing" textLength="569" x="27" y="632.9707">enterMultiple_choice_question(ExamGrammarParser.Multiple_choice_questionContext ctx)</text><ellipse cx="18" cy="647.2949" fill="#84BE84" rx="3" ry="3" style="stroke:#038048;stroke-width:1.0;"/><text fill="#000000" font-family="sans-serif" font-size="14" lengthAdjust="spacing" textLength="445" x="27" y="651.5918">enterOpen_question(ExamGrammarParser.Open_questionContext ctx)</text><ellipse cx="18" cy="665.916" fill="#84BE84" rx="3" ry="3" style="stroke:#038048;stroke-width:1.0;"/><text fill="#000000" font-family="sans-serif" font-size="14" lengthAdjust="spacing" textLength="559" x="27" y="670.2129">enterMissing_words_question(ExamGrammarParser.Missing_words_questionContext ctx)</text><ellipse cx="18" cy="684.5371" fill="#84BE84" rx="3" ry="3" style="stroke:#038048;stroke-width:1.0;"/><text fill="#000000" font-family="sans-serif" font-size="14" lengthAdjust="spacing" textLength="511" x="27" y="688.834">enterTrue_false_question(ExamGrammarParser.True_false_questionContext ctx)</text><ellipse cx="18" cy="703.1582" fill="#84BE84" rx="3" ry="3" style="stroke:#038048;stroke-width:1.0;"/><text fill="#000000" font-family="sans-serif" font-size="14" lengthAdjust="spacing" textLength="489" x="27" y="707.4551">enterMatching_question(ExamGrammarParser.Matching_questionContext ctx)</text><rect fill="#F24D5C" height="6" style="stroke:#C82930;stroke-width:1.0;" width="6" x="15" y="718.7793"/><text fill="#000000" font-family="sans-serif" font-size="14" lengthAdjust="spacing" textLength="191" x="27" y="726.0762">validateAnswer(String answer)</text><rect fill="#F24D5C" height="6" style="stroke:#C82930;stroke-width:1.0;" width="6" x="15" y="737.4004"/><text fill="#000000" font-family="sans-serif" font-size="14" lengthAdjust="spacing" textLength="273" x="27" y="744.6973">validateAnswerList(List&lt;String&gt; answerList)</text><rect fill="#F24D5C" height="6" style="stroke:#C82930;stroke-width:1.0;" width="6" x="15" y="756.0215"/><text fill="#000000" font-family="sans-serif" font-size="14" lengthAdjust="spacing" textLength="391" x="27" y="763.3184">validateMatchingAnswer(String leftAnswer, String rightAnswer)</text><rect fill="#F24D5C" height="6" style="stroke:#C82930;stroke-width:1.0;" width="6" x="15" y="774.6426"/><text fill="#000000" font-family="sans-serif" font-size="14" lengthAdjust="spacing" textLength="415" x="27" y="781.9395">saveFeedback(ExamGrammarParser.FeedbackContext feedback)</text></g><!--class DisplayExamImpl--><g id="elem_DisplayExamImpl"><rect codeLine="36" fill="#F1F1F1" height="141.1055" id="DisplayExamImpl" rx="2.5" ry="2.5" style="stroke:#181818;stroke-width:0.5;" width="694" x="637.5" y="583"/><ellipse cx="927.75" cy="599" fill="#ADD1B2" rx="11" ry="11" style="stroke:#181818;stroke-width:1.0;"/><path d="M930.5156,594.875 Q930.6719,594.6563 930.8594,594.5469 Q931.0469,594.4375 931.2656,594.4375 Q931.6406,594.4375 931.875,594.7031 Q932.1094,594.9531 932.1094,595.5625 L932.1094,597.0156 Q932.1094,597.625 931.875,597.8906 Q931.6406,598.1563 931.2656,598.1563 Q930.9219,598.1563 930.7188,597.9531 Q930.5156,597.7656 930.4063,597.25 Q930.3594,596.8906 930.1719,596.7031 Q929.8438,596.3281 929.2344,596.1094 Q928.625,595.8906 928,595.8906 Q927.2344,595.8906 926.5938,596.2188 Q925.9688,596.5469 925.4688,597.2969 Q924.9844,598.0469 924.9844,599.0781 L924.9844,600.1719 Q924.9844,601.4063 925.875,602.2344 Q926.7656,603.0469 928.3594,603.0469 Q929.2969,603.0469 929.9531,602.7969 Q930.3438,602.6406 930.7656,602.2031 Q931.0313,601.9375 931.1719,601.8594 Q931.3281,601.7813 931.5313,601.7813 Q931.8594,601.7813 932.1094,602.0469 Q932.375,602.2969 932.375,602.6406 Q932.375,602.9844 932.0313,603.3906 Q931.5313,603.9688 930.7344,604.2969 Q929.6563,604.75 928.3594,604.75 Q926.8438,604.75 925.6406,604.125 Q924.6563,603.625 923.9688,602.5625 Q923.2813,601.4844 923.2813,600.2031 L923.2813,599.0469 Q923.2813,597.7188 923.8906,596.5781 Q924.5156,595.4219 925.6094,594.8125 Q926.7031,594.1875 927.9375,594.1875 Q928.6719,594.1875 929.3125,594.3594 Q929.9688,594.5156 930.5156,594.875 Z " fill="#000000"/><text fill="#000000" font-family="sans-serif" font-size="14" lengthAdjust="spacing" textLength="105" x="948.25" y="604.7969">DisplayExamImpl</text><line style="stroke:#181818;stroke-width:0.5;" x1="638.5" x2="1330.5" y1="615" y2="615"/><line style="stroke:#181818;stroke-width:0.5;" x1="638.5" x2="1330.5" y1="623" y2="623"/><ellipse cx="648.5" cy="637.8105" fill="#84BE84" rx="3" ry="3" style="stroke:#038048;stroke-width:1.0;"/><text fill="#000000" font-family="sans-serif" font-size="14" lengthAdjust="spacing" textLength="150" x="657.5" y="642.1074">validateAnswer(answer)</text><ellipse cx="648.5" cy="656.4316" fill="#84BE84" rx="3" ry="3" style="stroke:#038048;stroke-width:1.0;"/><text fill="#000000" font-family="sans-serif" font-size="14" lengthAdjust="spacing" textLength="194" x="657.5" y="660.7285">validateAnswerList(answerList)</text><ellipse cx="648.5" cy="675.0527" fill="#84BE84" rx="3" ry="3" style="stroke:#038048;stroke-width:1.0;"/><text fill="#000000" font-family="sans-serif" font-size="14" lengthAdjust="spacing" textLength="309" x="657.5" y="679.3496">validateMatchingAnswer(leftAnswer, rightAnswer)</text><ellipse cx="648.5" cy="693.6738" fill="#84BE84" rx="3" ry="3" style="stroke:#038048;stroke-width:1.0;"/><text fill="#000000" font-family="sans-serif" font-size="14" lengthAdjust="spacing" textLength="257" x="657.5" y="697.9707">showOptions(displayHeader, optionsList)</text><ellipse cx="648.5" cy="712.2949" fill="#84BE84" rx="3" ry="3" style="stroke:#038048;stroke-width:1.0;"/><text fill="#000000" font-family="sans-serif" font-size="14" lengthAdjust="spacing" textLength="668" x="657.5" y="716.5918">showEvaluationResults(gradesList, studentGrades, correctAnswersList, studentAnswersList, feedbackList)</text></g><!--class DisplayExam--><g id="elem_DisplayExam"><rect codeLine="44" fill="#F1F1F1" height="141.1055" id="DisplayExam" rx="2.5" ry="2.5" style="stroke:#181818;stroke-width:0.5;" width="672" x="648.5" y="849"/><ellipse cx="940.25" cy="865" fill="#B4A7E5" rx="11" ry="11" style="stroke:#181818;stroke-width:1.0;"/><path d="M941.2031,861.6406 L941.2031,868.2969 L942.9219,868.2969 Q943.5313,868.2969 943.7969,868.5313 Q944.0625,868.7656 944.0625,869.1563 Q944.0625,869.5313 943.7969,869.7656 Q943.5313,870 942.9219,870 L937.7813,870 Q937.1719,870 936.9063,869.7656 Q936.6406,869.5313 936.6406,869.1406 Q936.6406,868.7656 936.9063,868.5313 Q937.1719,868.2969 937.7813,868.2969 L939.5,868.2969 L939.5,861.6406 L937.7813,861.6406 Q937.1719,861.6406 936.9063,861.4063 Q936.6406,861.1719 936.6406,860.7813 Q936.6406,860.4063 936.9063,860.1719 Q937.1719,859.9375 937.7813,859.9375 L942.9219,859.9375 Q943.5313,859.9375 943.7969,860.1719 Q944.0625,860.4063 944.0625,860.7813 Q944.0625,861.1719 943.7969,861.4063 Q943.5313,861.6406 942.9219,861.6406 L941.2031,861.6406 Z " fill="#000000"/><text fill="#000000" font-family="sans-serif" font-size="14" font-style="italic" lengthAdjust="spacing" textLength="80" x="960.75" y="870.7969">DisplayExam</text><line style="stroke:#181818;stroke-width:0.5;" x1="649.5" x2="1319.5" y1="881" y2="881"/><line style="stroke:#181818;stroke-width:0.5;" x1="649.5" x2="1319.5" y1="889" y2="889"/><text fill="#000000" font-family="sans-serif" font-size="14" lengthAdjust="spacing" textLength="150" x="654.5" y="908.1074">validateAnswer(answer)</text><text fill="#000000" font-family="sans-serif" font-size="14" lengthAdjust="spacing" textLength="194" x="654.5" y="926.7285">validateAnswerList(answerList)</text><text fill="#000000" font-family="sans-serif" font-size="14" lengthAdjust="spacing" textLength="309" x="654.5" y="945.3496">validateMatchingAnswer(leftAnswer, rightAnswer)</text><text fill="#000000" font-family="sans-serif" font-size="14" lengthAdjust="spacing" textLength="257" x="654.5" y="963.9707">showOptions(displayHeader, optionsList)</text><text fill="#000000" font-family="sans-serif" font-size="14" lengthAdjust="spacing" textLength="660" x="654.5" y="982.5918">showEvaluationResults(radesList, studentGrades, correctAnswersList, studentAnswersList, feedbackList)</text></g><!--class ListExamsManagementService--><g id="elem_ListExamsManagementService"><rect codeLine="52" fill="#F1F1F1" height="66.6211" id="ListExamsManagementService" rx="2.5" ry="2.5" style="stroke:#181818;stroke-width:0.5;" width="224" x="1366.5" y="620"/><ellipse cx="1381.5" cy="636" fill="#ADD1B2" rx="11" ry="11" style="stroke:#181818;stroke-width:1.0;"/><path d="M1384.2656,631.875 Q1384.4219,631.6563 1384.6094,631.5469 Q1384.7969,631.4375 1385.0156,631.4375 Q1385.3906,631.4375 1385.625,631.7031 Q1385.8594,631.9531 1385.8594,632.5625 L1385.8594,634.0156 Q1385.8594,634.625 1385.625,634.8906 Q1385.3906,635.1563 1385.0156,635.1563 Q1384.6719,635.1563 1384.4688,634.9531 Q1384.2656,634.7656 1384.1563,634.25 Q1384.1094,633.8906 1383.9219,633.7031 Q1383.5938,633.3281 1382.9844,633.1094 Q1382.375,632.8906 1381.75,632.8906 Q1380.9844,632.8906 1380.3438,633.2188 Q1379.7188,633.5469 1379.2188,634.2969 Q1378.7344,635.0469 1378.7344,636.0781 L1378.7344,637.1719 Q1378.7344,638.4063 1379.625,639.2344 Q1380.5156,640.0469 1382.1094,640.0469 Q1383.0469,640.0469 1383.7031,639.7969 Q1384.0938,639.6406 1384.5156,639.2031 Q1384.7813,638.9375 1384.9219,638.8594 Q1385.0781,638.7813 1385.2813,638.7813 Q1385.6094,638.7813 1385.8594,639.0469 Q1386.125,639.2969 1386.125,639.6406 Q1386.125,639.9844 1385.7813,640.3906 Q1385.2813,640.9688 1384.4844,641.2969 Q1383.4063,641.75 1382.1094,641.75 Q1380.5938,641.75 1379.3906,641.125 Q1378.4063,640.625 1377.7188,639.5625 Q1377.0313,638.4844 1377.0313,637.2031 L1377.0313,636.0469 Q1377.0313,634.7188 1377.6406,633.5781 Q1378.2656,632.4219 1379.3594,631.8125 Q1380.4531,631.1875 1381.6875,631.1875 Q1382.4219,631.1875 1383.0625,631.3594 Q1383.7188,631.5156 1384.2656,631.875 Z " fill="#000000"/><text fill="#000000" font-family="sans-serif" font-size="14" lengthAdjust="spacing" textLength="192" x="1395.5" y="641.7969">ListExamsManagementService</text><line style="stroke:#181818;stroke-width:0.5;" x1="1367.5" x2="1589.5" y1="652" y2="652"/><line style="stroke:#181818;stroke-width:0.5;" x1="1367.5" x2="1589.5" y1="660" y2="660"/><ellipse cx="1377.5" cy="674.8105" fill="#84BE84" rx="3" ry="3" style="stroke:#038048;stroke-width:1.0;"/><text fill="#000000" font-family="sans-serif" font-size="14" lengthAdjust="spacing" textLength="132" x="1386.5" y="679.1074">findStudentByEmail()</text></g><!--class GradeManagementService--><g id="elem_GradeManagementService"><rect codeLine="56" fill="#F1F1F1" height="66.6211" id="GradeManagementService" rx="2.5" ry="2.5" style="stroke:#181818;stroke-width:0.5;" width="418" x="1625.5" y="620"/><ellipse cx="1745.75" cy="636" fill="#ADD1B2" rx="11" ry="11" style="stroke:#181818;stroke-width:1.0;"/><path d="M1748.5156,631.875 Q1748.6719,631.6563 1748.8594,631.5469 Q1749.0469,631.4375 1749.2656,631.4375 Q1749.6406,631.4375 1749.875,631.7031 Q1750.1094,631.9531 1750.1094,632.5625 L1750.1094,634.0156 Q1750.1094,634.625 1749.875,634.8906 Q1749.6406,635.1563 1749.2656,635.1563 Q1748.9219,635.1563 1748.7188,634.9531 Q1748.5156,634.7656 1748.4063,634.25 Q1748.3594,633.8906 1748.1719,633.7031 Q1747.8438,633.3281 1747.2344,633.1094 Q1746.625,632.8906 1746,632.8906 Q1745.2344,632.8906 1744.5938,633.2188 Q1743.9688,633.5469 1743.4688,634.2969 Q1742.9844,635.0469 1742.9844,636.0781 L1742.9844,637.1719 Q1742.9844,638.4063 1743.875,639.2344 Q1744.7656,640.0469 1746.3594,640.0469 Q1747.2969,640.0469 1747.9531,639.7969 Q1748.3438,639.6406 1748.7656,639.2031 Q1749.0313,638.9375 1749.1719,638.8594 Q1749.3281,638.7813 1749.5313,638.7813 Q1749.8594,638.7813 1750.1094,639.0469 Q1750.375,639.2969 1750.375,639.6406 Q1750.375,639.9844 1750.0313,640.3906 Q1749.5313,640.9688 1748.7344,641.2969 Q1747.6563,641.75 1746.3594,641.75 Q1744.8438,641.75 1743.6406,641.125 Q1742.6563,640.625 1741.9688,639.5625 Q1741.2813,638.4844 1741.2813,637.2031 L1741.2813,636.0469 Q1741.2813,634.7188 1741.8906,633.5781 Q1742.5156,632.4219 1743.6094,631.8125 Q1744.7031,631.1875 1745.9375,631.1875 Q1746.6719,631.1875 1747.3125,631.3594 Q1747.9688,631.5156 1748.5156,631.875 Z " fill="#000000"/><text fill="#000000" font-family="sans-serif" font-size="14" lengthAdjust="spacing" textLength="169" x="1766.25" y="641.7969">GradeManagementService</text><line style="stroke:#181818;stroke-width:0.5;" x1="1626.5" x2="2042.5" y1="652" y2="652"/><line style="stroke:#181818;stroke-width:0.5;" x1="1626.5" x2="2042.5" y1="660" y2="660"/><ellipse cx="1636.5" cy="674.8105" fill="#84BE84" rx="3" ry="3" style="stroke:#038048;stroke-width:1.0;"/><text fill="#000000" font-family="sans-serif" font-size="14" lengthAdjust="spacing" textLength="392" x="1645.5" y="679.1074">saveNewGrade(student, course, exam, examGrade, myGrade)</text></g><!--class PersistenceContext--><g id="elem_PersistenceContext"><rect codeLine="60" fill="#F1F1F1" height="66.6211" id="PersistenceContext" rx="2.5" ry="2.5" style="stroke:#181818;stroke-width:0.5;" width="154" x="1579.5" y="886"/><ellipse cx="1594.5" cy="902" fill="#ADD1B2" rx="11" ry="11" style="stroke:#181818;stroke-width:1.0;"/><path d="M1597.2656,897.875 Q1597.4219,897.6563 1597.6094,897.5469 Q1597.7969,897.4375 1598.0156,897.4375 Q1598.3906,897.4375 1598.625,897.7031 Q1598.8594,897.9531 1598.8594,898.5625 L1598.8594,900.0156 Q1598.8594,900.625 1598.625,900.8906 Q1598.3906,901.1563 1598.0156,901.1563 Q1597.6719,901.1563 1597.4688,900.9531 Q1597.2656,900.7656 1597.1563,900.25 Q1597.1094,899.8906 1596.9219,899.7031 Q1596.5938,899.3281 1595.9844,899.1094 Q1595.375,898.8906 1594.75,898.8906 Q1593.9844,898.8906 1593.3438,899.2188 Q1592.7188,899.5469 1592.2188,900.2969 Q1591.7344,901.0469 1591.7344,902.0781 L1591.7344,903.1719 Q1591.7344,904.4063 1592.625,905.2344 Q1593.5156,906.0469 1595.1094,906.0469 Q1596.0469,906.0469 1596.7031,905.7969 Q1597.0938,905.6406 1597.5156,905.2031 Q1597.7813,904.9375 1597.9219,904.8594 Q1598.0781,904.7813 1598.2813,904.7813 Q1598.6094,904.7813 1598.8594,905.0469 Q1599.125,905.2969 1599.125,905.6406 Q1599.125,905.9844 1598.7813,906.3906 Q1598.2813,906.9688 1597.4844,907.2969 Q1596.4063,907.75 1595.1094,907.75 Q1593.5938,907.75 1592.3906,907.125 Q1591.4063,906.625 1590.7188,905.5625 Q1590.0313,904.4844 1590.0313,903.2031 L1590.0313,902.0469 Q1590.0313,900.7188 1590.6406,899.5781 Q1591.2656,898.4219 1592.3594,897.8125 Q1593.4531,897.1875 1594.6875,897.1875 Q1595.4219,897.1875 1596.0625,897.3594 Q1596.7188,897.5156 1597.2656,897.875 Z " fill="#000000"/><text fill="#000000" font-family="sans-serif" font-size="14" lengthAdjust="spacing" textLength="122" x="1608.5" y="907.7969">PersistenceContext</text><line style="stroke:#181818;stroke-width:0.5;" x1="1580.5" x2="1732.5" y1="918" y2="918"/><line style="stroke:#181818;stroke-width:0.5;" x1="1580.5" x2="1732.5" y1="926" y2="926"/><ellipse cx="1590.5" cy="940.8105" fill="#84BE84" rx="3" ry="3" style="stroke:#038048;stroke-width:1.0;"/><text fill="#000000" font-family="sans-serif" font-size="14" lengthAdjust="spacing" textLength="84" x="1599.5" y="945.1074">repositories()</text></g><!--class RepositoryFactory--><g id="elem_RepositoryFactory"><rect codeLine="64" fill="#F1F1F1" height="85.2422" id="RepositoryFactory" rx="2.5" ry="2.5" style="stroke:#181818;stroke-width:0.5;" width="151" x="1581" y="1050"/><ellipse cx="1597.35" cy="1066" fill="#B4A7E5" rx="11" ry="11" style="stroke:#181818;stroke-width:1.0;"/><path d="M1598.3031,1062.6406 L1598.3031,1069.2969 L1600.0219,1069.2969 Q1600.6313,1069.2969 1600.8969,1069.5313 Q1601.1625,1069.7656 1601.1625,1070.1563 Q1601.1625,1070.5313 1600.8969,1070.7656 Q1600.6313,1071 1600.0219,1071 L1594.8813,1071 Q1594.2719,1071 1594.0063,1070.7656 Q1593.7406,1070.5313 1593.7406,1070.1406 Q1593.7406,1069.7656 1594.0063,1069.5313 Q1594.2719,1069.2969 1594.8813,1069.2969 L1596.6,1069.2969 L1596.6,1062.6406 L1594.8813,1062.6406 Q1594.2719,1062.6406 1594.0063,1062.4063 Q1593.7406,1062.1719 1593.7406,1061.7813 Q1593.7406,1061.4063 1594.0063,1061.1719 Q1594.2719,1060.9375 1594.8813,1060.9375 L1600.0219,1060.9375 Q1600.6313,1060.9375 1600.8969,1061.1719 Q1601.1625,1061.4063 1601.1625,1061.7813 Q1601.1625,1062.1719 1600.8969,1062.4063 Q1600.6313,1062.6406 1600.0219,1062.6406 L1598.3031,1062.6406 Z " fill="#000000"/><text fill="#000000" font-family="sans-serif" font-size="14" font-style="italic" lengthAdjust="spacing" textLength="116" x="1611.65" y="1071.7969">RepositoryFactory</text><line style="stroke:#181818;stroke-width:0.5;" x1="1582" x2="1731" y1="1082" y2="1082"/><line style="stroke:#181818;stroke-width:0.5;" x1="1582" x2="1731" y1="1090" y2="1090"/><ellipse cx="1592" cy="1104.8105" fill="#84BE84" rx="3" ry="3" style="stroke:#038048;stroke-width:1.0;"/><text fill="#000000" font-family="sans-serif" font-size="14" lengthAdjust="spacing" textLength="125" x="1601" y="1109.1074">studentRepository()</text><ellipse cx="1592" cy="1123.4316" fill="#84BE84" rx="3" ry="3" style="stroke:#038048;stroke-width:1.0;"/><text fill="#000000" font-family="sans-serif" font-size="14" lengthAdjust="spacing" textLength="115" x="1601" y="1127.7285">gradeRepository()</text></g><!--class StudentRepository--><g id="elem_StudentRepository"><rect codeLine="69" fill="#F1F1F1" height="85.2422" id="StudentRepository" rx="2.5" ry="2.5" style="stroke:#181818;stroke-width:0.5;" width="158" x="1485.5" y="1195"/><ellipse cx="1504.55" cy="1211" fill="#B4A7E5" rx="11" ry="11" style="stroke:#181818;stroke-width:1.0;"/><path d="M1505.5031,1207.6406 L1505.5031,1214.2969 L1507.2219,1214.2969 Q1507.8313,1214.2969 1508.0969,1214.5313 Q1508.3625,1214.7656 1508.3625,1215.1563 Q1508.3625,1215.5313 1508.0969,1215.7656 Q1507.8313,1216 1507.2219,1216 L1502.0813,1216 Q1501.4719,1216 1501.2063,1215.7656 Q1500.9406,1215.5313 1500.9406,1215.1406 Q1500.9406,1214.7656 1501.2063,1214.5313 Q1501.4719,1214.2969 1502.0813,1214.2969 L1503.8,1214.2969 L1503.8,1207.6406 L1502.0813,1207.6406 Q1501.4719,1207.6406 1501.2063,1207.4063 Q1500.9406,1207.1719 1500.9406,1206.7813 Q1500.9406,1206.4063 1501.2063,1206.1719 Q1501.4719,1205.9375 1502.0813,1205.9375 L1507.2219,1205.9375 Q1507.8313,1205.9375 1508.0969,1206.1719 Q1508.3625,1206.4063 1508.3625,1206.7813 Q1508.3625,1207.1719 1508.0969,1207.4063 Q1507.8313,1207.6406 1507.2219,1207.6406 L1505.5031,1207.6406 Z " fill="#000000"/><text fill="#000000" font-family="sans-serif" font-size="14" font-style="italic" lengthAdjust="spacing" textLength="117" x="1519.45" y="1216.7969">StudentRepository</text><line style="stroke:#181818;stroke-width:0.5;" x1="1486.5" x2="1642.5" y1="1227" y2="1227"/><line style="stroke:#181818;stroke-width:0.5;" x1="1486.5" x2="1642.5" y1="1235" y2="1235"/><ellipse cx="1496.5" cy="1249.8105" fill="#84BE84" rx="3" ry="3" style="stroke:#038048;stroke-width:1.0;"/><text fill="#000000" font-family="sans-serif" font-size="14" lengthAdjust="spacing" textLength="132" x="1505.5" y="1254.1074">findStudentByEmail()</text><ellipse cx="1496.5" cy="1268.4316" fill="#84BE84" rx="3" ry="3" style="stroke:#038048;stroke-width:1.0;"/><text fill="#000000" font-family="sans-serif" font-size="14" lengthAdjust="spacing" textLength="40" x="1505.5" y="1272.7285">save()</text></g><!--class GradeRepository--><g id="elem_GradeRepository"><rect codeLine="74" fill="#F1F1F1" height="66.6211" id="GradeRepository" rx="2.5" ry="2.5" style="stroke:#181818;stroke-width:0.5;" width="140" x="1678.5" y="1204"/><ellipse cx="1693.5" cy="1220" fill="#B4A7E5" rx="11" ry="11" style="stroke:#181818;stroke-width:1.0;"/><path d="M1694.4531,1216.6406 L1694.4531,1223.2969 L1696.1719,1223.2969 Q1696.7813,1223.2969 1697.0469,1223.5313 Q1697.3125,1223.7656 1697.3125,1224.1563 Q1697.3125,1224.5313 1697.0469,1224.7656 Q1696.7813,1225 1696.1719,1225 L1691.0313,1225 Q1690.4219,1225 1690.1563,1224.7656 Q1689.8906,1224.5313 1689.8906,1224.1406 Q1689.8906,1223.7656 1690.1563,1223.5313 Q1690.4219,1223.2969 1691.0313,1223.2969 L1692.75,1223.2969 L1692.75,1216.6406 L1691.0313,1216.6406 Q1690.4219,1216.6406 1690.1563,1216.4063 Q1689.8906,1216.1719 1689.8906,1215.7813 Q1689.8906,1215.4063 1690.1563,1215.1719 Q1690.4219,1214.9375 1691.0313,1214.9375 L1696.1719,1214.9375 Q1696.7813,1214.9375 1697.0469,1215.1719 Q1697.3125,1215.4063 1697.3125,1215.7813 Q1697.3125,1216.1719 1697.0469,1216.4063 Q1696.7813,1216.6406 1696.1719,1216.6406 L1694.4531,1216.6406 Z " fill="#000000"/><text fill="#000000" font-family="sans-serif" font-size="14" font-style="italic" lengthAdjust="spacing" textLength="108" x="1707.5" y="1225.7969">GradeRepository</text><line style="stroke:#181818;stroke-width:0.5;" x1="1679.5" x2="1817.5" y1="1236" y2="1236"/><line style="stroke:#181818;stroke-width:0.5;" x1="1679.5" x2="1817.5" y1="1244" y2="1244"/><ellipse cx="1689.5" cy="1258.8105" fill="#84BE84" rx="3" ry="3" style="stroke:#038048;stroke-width:1.0;"/><text fill="#000000" font-family="sans-serif" font-size="14" lengthAdjust="spacing" textLength="40" x="1698.5" y="1263.1074">save()</text></g><!--link TakeExamAction to TakeExamUI--><g id="link_TakeExamAction_TakeExamUI"><path codeLine="78" d="M1231.5,74.02 C1231.5,90.67 1231.5,111.04 1231.5,128.42 " fill="none" id="TakeExamAction-to-TakeExamUI" style="stroke:#181818;stroke-width:1.0;stroke-dasharray:7.0,7.0;"/><polygon fill="#181818" points="1231.5,133.71,1235.5,124.71,1231.5,128.71,1227.5,124.71,1231.5,133.71" style="stroke:#181818;stroke-width:1.0;"/></g><!--link TakeExamUI to TakeExamController--><g id="link_TakeExamUI_TakeExamController"><path codeLine="79" d="M1231.5,201.16 C1231.5,216.62 1231.5,236.01 1231.5,255.85 " fill="none" id="TakeExamUI-to-TakeExamController" style="stroke:#181818;stroke-width:1.0;stroke-dasharray:7.0,7.0;"/><polygon fill="#181818" points="1231.5,260.91,1235.5,251.91,1231.5,255.91,1227.5,251.91,1231.5,260.91" style="stroke:#181818;stroke-width:1.0;"/></g><!--link TakeExamController to ExamEvaluationListener--><g id="link_TakeExamController_ExamEvaluationListener"><path codeLine="81" d="M884.49,440.05 C797.22,462.72 704.29,489.17 619.5,518 C615.35,519.41 611.18,520.85 607,522.32 " fill="none" id="TakeExamController-to-ExamEvaluationListener" style="stroke:#181818;stroke-width:1.0;"/><polygon fill="#181818" points="602.07,524.05,611.8872,524.839,606.7871,522.3919,609.2342,517.2917,602.07,524.05" style="stroke:#181818;stroke-width:1.0;"/></g><!--link TakeExamController to DisplayExamImpl--><g id="link_TakeExamController_DisplayExamImpl"><path codeLine="82" d="M1148.91,458.14 C1115.62,497.49 1077.87,542.12 1046.94,578.69 " fill="none" id="TakeExamController-to-DisplayExamImpl" style="stroke:#181818;stroke-width:1.0;"/><polygon fill="#181818" points="1043.58,582.65,1052.4477,578.3648,1046.8104,578.8336,1046.3415,573.1962,1043.58,582.65" style="stroke:#181818;stroke-width:1.0;"/></g><!--reverse link DisplayExamImpl to DisplayExam--><g id="link_DisplayExamImpl_DisplayExam"><path codeLine="83" d="M984.5,729.22 C984.5,766.78 984.5,812.03 984.5,848.86 " fill="none" id="DisplayExamImpl-backto-DisplayExam" style="stroke:#181818;stroke-width:1.0;stroke-dasharray:7.0,7.0;"/><polygon fill="#181818" points="984.5,724.21,980.5,733.21,984.5,729.21,988.5,733.21,984.5,724.21" style="stroke:#181818;stroke-width:1.0;"/></g><!--link TakeExamController to ListExamsManagementService--><g id="link_TakeExamController_ListExamsManagementService"><path codeLine="84" d="M1314.09,458.14 C1359.83,512.21 1414,576.25 1447.31,615.63 " fill="none" id="TakeExamController-to-ListExamsManagementService" style="stroke:#181818;stroke-width:1.0;"/><polygon fill="#181818" points="1450.87,619.83,1448.1085,610.3762,1447.6396,616.0136,1442.0023,615.5448,1450.87,619.83" style="stroke:#181818;stroke-width:1.0;"/></g><!--link TakeExamController to GradeManagementService--><g id="link_TakeExamController_GradeManagementService"><path codeLine="85" d="M1478.2,458.08 C1521.76,476.94 1566.32,497.3 1607.5,518 C1668.16,548.49 1734.68,588.76 1779.93,617.27 " fill="none" id="TakeExamController-to-GradeManagementService" style="stroke:#181818;stroke-width:1.0;"/><polygon fill="#181818" points="1784.24,619.99,1778.7676,611.8014,1780.0129,617.3195,1774.4948,618.5648,1784.24,619.99" style="stroke:#181818;stroke-width:1.0;"/></g><!--link ListExamsManagementService to PersistenceContext--><g id="link_ListExamsManagementService_PersistenceContext"><path codeLine="87" d="M1500.5,687.14 C1533.8,736.52 1596.78,829.93 1631.67,881.67 " fill="none" id="ListExamsManagementService-to-PersistenceContext" style="stroke:#181818;stroke-width:1.0;"/><polygon fill="#181818" points="1634.55,885.94,1632.8244,876.2435,1631.7502,881.7974,1626.1963,880.7232,1634.55,885.94" style="stroke:#181818;stroke-width:1.0;"/></g><!--link GradeManagementService to PersistenceContext--><g id="link_GradeManagementService_PersistenceContext"><path codeLine="88" d="M1812.5,687.14 C1779.2,736.52 1716.22,829.93 1681.33,881.67 " fill="none" id="GradeManagementService-to-PersistenceContext" style="stroke:#181818;stroke-width:1.0;"/><polygon fill="#181818" points="1678.45,885.94,1686.8037,880.7232,1681.2498,881.7974,1680.1756,876.2435,1678.45,885.94" style="stroke:#181818;stroke-width:1.0;"/></g><!--link PersistenceContext to RepositoryFactory--><g id="link_PersistenceContext_RepositoryFactory"><path codeLine="89" d="M1656.5,953.07 C1656.5,978.97 1656.5,1015.57 1656.5,1044.63 " fill="none" id="PersistenceContext-to-RepositoryFactory" style="stroke:#181818;stroke-width:1.0;"/><polygon fill="#181818" points="1656.5,1049.97,1660.5,1040.97,1656.5,1044.97,1652.5,1040.97,1656.5,1049.97" style="stroke:#181818;stroke-width:1.0;"/></g><!--link RepositoryFactory to StudentRepository--><g id="link_RepositoryFactory_StudentRepository"><path codeLine="90" d="M1629.64,1135.25 C1618.49,1152.57 1605.52,1172.74 1594.1,1190.49 " fill="none" id="RepositoryFactory-to-StudentRepository" style="stroke:#181818;stroke-width:1.0;"/><polygon fill="#181818" points="1591.23,1194.95,1599.4615,1189.5424,1593.9338,1190.7441,1592.7321,1185.2164,1591.23,1194.95" style="stroke:#181818;stroke-width:1.0;"/></g><!--link RepositoryFactory to GradeRepository--><g id="link_RepositoryFactory_GradeRepository"><path codeLine="91" d="M1683.36,1135.25 C1696.37,1155.48 1711.88,1179.58 1724.5,1199.19 " fill="none" id="RepositoryFactory-to-GradeRepository" style="stroke:#181818;stroke-width:1.0;"/><polygon fill="#181818" points="1727.31,1203.56,1725.7996,1193.8277,1724.6026,1199.3564,1719.0738,1198.1595,1727.31,1203.56" style="stroke:#181818;stroke-width:1.0;"/></g><!--SRC=[lLRRRjmW47ttL_3eLTVx1T5AQRD98tMRA4wVLnIFTr6mSG7lHL7_lO1l-8ALH4hzO6Fcp9bXc1aW34k9dl4BRCuukoQAylmrGFhvWkI1dy95y3S8I0_rwnura8J77j0tdYl16GFHWbEQ9yR2qGAarcf8pF_cY5c9ZVrM847TK5amV360CEd63KBhq0GhkCxb2KI8xMTQ-8DALGFCS0ZQOaKEDD_NJ0nILGsNID3zeVvPEA5vA8opid7hE-34e7arxTemw6vvJo1BfcIu5rh1ufP8gZA1NDtPgIKYN0WWjSq-f3UN0YI_CNcfZBLxq0-d4K8Eeja6JG8YLbYeq02rpIp3uX4B2M9bvytUmLaXeiuBL-cPAWOJIdRUftG3aWXgWpAXwaXz15iTBLems943fmHsVqgG7ZOVr4VzK40-nzUJU_sZKkh4sPsuIEIiTvD0Rx152RiKCpcxuWcKryywmsTT7696PD6mvc8bj09oIo-QAZtpkgh0QpIimyXNXpMxMuxrrAWg8oJn4MxhafXON2DgrjHKZrCvJhkvpmfMjwxvHlEsJlF1LlFENlDVcmqrMPLY0cxOgeZDXEiDiVf8eDuJfUaGVLexDh_snDlY7EyXqsenYADkKBsZCQuOlrus6QRCFLEj7oFbzfZMMVyJJXOKrcuPdqkTz4i4sd3rje0boYvsuD0_wWNOCuAqJRpX5b1mIHKN56GusFIdHdQvnSHyMgtQYGxGdkWs3NlpFSfug3WVe6xzGwAxlXtqEiBshpnebV1JlbexTvp0kUuCfTtbfYDoBZoHWKThppayfp7eFy6m7rrLdhYuEJf_virfJQTR4CpaSQJLncaKJ3Fvq1DvQ92ZF0l6cMTme-Jnu0Qv4Vm3]--></g></svg>