<?xml version="1.0" encoding="us-ascii" standalone="no"?><svg xmlns="http://www.w3.org/2000/svg" xmlns:xlink="http://www.w3.org/1999/xlink" contentStyleType="text/css" height="374px" preserveAspectRatio="none" style="width:484px;height:374px;background:#FFFFFF;" version="1.1" viewBox="0 0 484 374" width="484px" zoomAndPan="magnify"><defs/><g><rect fill="#FFFFFF" height="179.7461" style="stroke:#181818;stroke-width:1.0;" width="10" x="31" y="93.6211"/><rect fill="#FFFFFF" height="31.291" style="stroke:#181818;stroke-width:1.0;" width="10" x="441" y="116.9121"/><rect fill="#FFFFFF" height="31.291" style="stroke:#181818;stroke-width:1.0;" width="10" x="441" y="179.4941"/><rect fill="#FFFFFF" height="31.291" style="stroke:#181818;stroke-width:1.0;" width="10" x="441" y="242.0762"/><line style="stroke:#181818;stroke-width:0.5;stroke-dasharray:5.0,5.0;" x1="36" x2="36" y1="83.6211" y2="291.3672"/><line style="stroke:#181818;stroke-width:0.5;stroke-dasharray:5.0,5.0;" x1="446" x2="446" y1="83.6211" y2="291.3672"/><text fill="#000000" font-family="sans-serif" font-size="14" lengthAdjust="spacing" textLength="56" x="5" y="80.1074">Manager</text><ellipse cx="36" cy="13.5" fill="#E2E2F0" rx="8" ry="8" style="stroke:#181818;stroke-width:0.5;"/><path d="M36,21.5 L36,48.5 M23,29.5 L49,29.5 M36,48.5 L23,63.5 M36,48.5 L49,63.5 " fill="none" style="stroke:#181818;stroke-width:0.5;"/><text fill="#000000" font-family="sans-serif" font-size="14" lengthAdjust="spacing" textLength="56" x="5" y="305.4746">Manager</text><ellipse cx="36" cy="317.4883" fill="#E2E2F0" rx="8" ry="8" style="stroke:#181818;stroke-width:0.5;"/><path d="M36,325.4883 L36,352.4883 M23,333.4883 L49,333.4883 M36,352.4883 L23,367.4883 M36,352.4883 L49,367.4883 " fill="none" style="stroke:#181818;stroke-width:0.5;"/><rect fill="#E2E2F0" height="32.6211" rx="2.5" ry="2.5" style="stroke:#181818;stroke-width:0.5;" width="64" x="414" y="50"/><text fill="#000000" font-family="sans-serif" font-size="14" lengthAdjust="spacing" textLength="50" x="421" y="72.1074">:System</text><rect fill="#E2E2F0" height="32.6211" rx="2.5" ry="2.5" style="stroke:#181818;stroke-width:0.5;" width="64" x="414" y="290.3672"/><text fill="#000000" font-family="sans-serif" font-size="14" lengthAdjust="spacing" textLength="50" x="421" y="312.4746">:System</text><rect fill="#FFFFFF" height="179.7461" style="stroke:#181818;stroke-width:1.0;" width="10" x="31" y="93.6211"/><rect fill="#FFFFFF" height="31.291" style="stroke:#181818;stroke-width:1.0;" width="10" x="441" y="116.9121"/><rect fill="#FFFFFF" height="31.291" style="stroke:#181818;stroke-width:1.0;" width="10" x="441" y="179.4941"/><rect fill="#FFFFFF" height="31.291" style="stroke:#181818;stroke-width:1.0;" width="10" x="441" y="242.0762"/><polygon fill="#181818" points="429,112.9121,439,116.9121,429,120.9121,433,116.9121" style="stroke:#181818;stroke-width:1.0;"/><line style="stroke:#181818;stroke-width:1.0;" x1="41" x2="435" y1="116.9121" y2="116.9121"/><text fill="#000000" font-family="sans-serif" font-size="13" font-weight="bold" lengthAdjust="spacing" textLength="7" x="48" y="111.6494">1</text><text fill="#000000" font-family="sans-serif" font-size="13" lengthAdjust="spacing" textLength="318" x="59" y="111.6494">ask to approve/reject enrollment application in a course</text><polygon fill="#181818" points="52,144.2031,42,148.2031,52,152.2031,48,148.2031" style="stroke:#181818;stroke-width:1.0;"/><line style="stroke:#181818;stroke-width:1.0;stroke-dasharray:2.0,2.0;" x1="46" x2="445" y1="148.2031" y2="148.2031"/><text fill="#000000" font-family="sans-serif" font-size="13" font-weight="bold" lengthAdjust="spacing" textLength="7" x="58" y="142.9404">2</text><text fill="#000000" font-family="sans-serif" font-size="13" lengthAdjust="spacing" textLength="345" x="69" y="142.9404">shows list of enrollment applications and asks to select one</text><polygon fill="#181818" points="429,175.4941,439,179.4941,429,183.4941,433,179.4941" style="stroke:#181818;stroke-width:1.0;"/><line style="stroke:#181818;stroke-width:1.0;" x1="41" x2="435" y1="179.4941" y2="179.4941"/><text fill="#000000" font-family="sans-serif" font-size="13" font-weight="bold" lengthAdjust="spacing" textLength="7" x="48" y="174.2314">3</text><text fill="#000000" font-family="sans-serif" font-size="13" lengthAdjust="spacing" textLength="172" x="59" y="174.2314">selects enrollment application</text><polygon fill="#181818" points="52,206.7852,42,210.7852,52,214.7852,48,210.7852" style="stroke:#181818;stroke-width:1.0;"/><line style="stroke:#181818;stroke-width:1.0;stroke-dasharray:2.0,2.0;" x1="46" x2="445" y1="210.7852" y2="210.7852"/><text fill="#000000" font-family="sans-serif" font-size="13" font-weight="bold" lengthAdjust="spacing" textLength="7" x="58" y="205.5225">4</text><text fill="#000000" font-family="sans-serif" font-size="13" lengthAdjust="spacing" textLength="365" x="69" y="205.5225">asks to approve/reject enrollment application and requests data</text><polygon fill="#181818" points="429,238.0762,439,242.0762,429,246.0762,433,242.0762" style="stroke:#181818;stroke-width:1.0;"/><line style="stroke:#181818;stroke-width:1.0;" x1="41" x2="435" y1="242.0762" y2="242.0762"/><text fill="#000000" font-family="sans-serif" font-size="13" font-weight="bold" lengthAdjust="spacing" textLength="7" x="48" y="236.8135">5</text><text fill="#000000" font-family="sans-serif" font-size="13" lengthAdjust="spacing" textLength="354" x="59" y="236.8135">aprove/reject enrollment application and types requested data</text><polygon fill="#181818" points="47,269.3672,37,273.3672,47,277.3672,43,273.3672" style="stroke:#181818;stroke-width:1.0;"/><line style="stroke:#181818;stroke-width:1.0;stroke-dasharray:2.0,2.0;" x1="41" x2="445" y1="273.3672" y2="273.3672"/><text fill="#000000" font-family="sans-serif" font-size="13" font-weight="bold" lengthAdjust="spacing" textLength="7" x="53" y="268.1045">6</text><text fill="#000000" font-family="sans-serif" font-size="13" lengthAdjust="spacing" textLength="152" x="64" y="268.1045">informs operation success</text><!--SRC=[ZPB1JiCm38RlVGghzubx3xm19vx0fFyWaCR5TZRjxMdekWwf5JibicL_d-DmSSbbU8Cs3GSNfVQ5Cxz3MsAZw_qt5q_ik4Mk9nsUgUrUB-OOMkgccYzo8Hv7bHEU59y8JiWgAGt8NZCf1lOecM8cfY153IlWrgrP-nucoWBio3xaR9IYESbnfxSHvxxQMDKnfAeX6KsF3TBEC7EPxI2sbFywhygBo6FlKjKLtmKsmNjsthRUtS6Z3B-Ci8M4VaRzEzNT9c8-YWv6CaBdjbP2WDcsy5rm-KO_]--></g></svg>