<?xml version="1.0" encoding="us-ascii" standalone="no"?><svg xmlns="http://www.w3.org/2000/svg" xmlns:xlink="http://www.w3.org/1999/xlink" contentStyleType="text/css" height="530px" preserveAspectRatio="none" style="width:1719px;height:530px;background:#FFFFFF;" version="1.1" viewBox="0 0 1719 530" width="1719px" zoomAndPan="magnify"><defs/><g><text fill="#000000" font-family="sans-serif" font-size="14" font-weight="bold" lengthAdjust="spacing" textLength="156" x="774.5" y="25.1074">Domain Driven Design</text><!--cluster <<Aggregate>> ChargeTeacher--><g id="cluster_&lt;&lt;Aggregate&gt;&gt; ChargeTeacher"><rect fill="#7B68EE" height="114" rx="2.5" ry="2.5" style="stroke:#181818;stroke-width:1.0;" width="217" x="346" y="410.6211"/><text fill="#000000" font-family="sans-serif" font-size="14" font-weight="bold" lengthAdjust="spacing" textLength="201" x="354" y="427.7285">&#171;Aggregate&#187; ChargeTeacher</text></g><!--cluster <<Aggregate>> Teacher--><g id="cluster_&lt;&lt;Aggregate&gt;&gt; Teacher"><rect fill="#8A2BE2" height="213" rx="2.5" ry="2.5" style="stroke:#181818;stroke-width:1.0;" width="214" x="7" y="46.6211"/><text fill="#000000" font-family="sans-serif" font-size="14" font-weight="bold" lengthAdjust="spacing" textLength="150" x="39" y="63.7285">&#171;Aggregate&#187; Teacher</text></g><!--cluster <<Aggregate>> Course--><g id="cluster_&lt;&lt;Aggregate&gt;&gt; Course"><rect fill="#87CEFA" height="238" rx="2.5" ry="2.5" style="stroke:#181818;stroke-width:1.0;" width="880" x="833" y="283.6211"/><text fill="#000000" font-family="sans-serif" font-size="14" font-weight="bold" lengthAdjust="spacing" textLength="144" x="1201" y="300.7285">&#171;Aggregate&#187; Course</text></g><!--cluster <<Aggregate>> Student--><g id="cluster_&lt;&lt;Aggregate&gt;&gt; Student"><rect fill="#FF69B4" height="213" rx="2.5" ry="2.5" style="stroke:#181818;stroke-width:1.0;" width="355" x="245" y="46.6211"/><text fill="#000000" font-family="sans-serif" font-size="14" font-weight="bold" lengthAdjust="spacing" textLength="148" x="348.5" y="63.7285">&#171;Aggregate&#187; Student</text></g><!--cluster <<Aggregate>> Enrollment--><g id="cluster_&lt;&lt;Aggregate&gt;&gt; Enrollment"><rect fill="#708090" height="215.5" rx="2.5" ry="2.5" style="stroke:#181818;stroke-width:1.0;" width="185" x="624" y="171.1211"/><text fill="#000000" font-family="sans-serif" font-size="14" font-weight="bold" lengthAdjust="spacing" textLength="169" x="632" y="188.2285">&#171;Aggregate&#187; Enrollment</text></g><!--cluster <<Aggregate>> EnrollmentApprovation--><g id="cluster_&lt;&lt;Aggregate&gt;&gt; EnrollmentApprovation"><rect fill="#708090" height="198.5" rx="2.5" ry="2.5" style="stroke:#181818;stroke-width:1.0;" width="271" x="833" y="61.1211"/><text fill="#000000" font-family="sans-serif" font-size="14" font-weight="bold" lengthAdjust="spacing" textLength="255" x="841" y="78.2285">&#171;Aggregate&#187; EnrollmentApprovation</text></g><!--class ChargeTeacher--><g id="elem_ChargeTeacher"><rect codeLine="12" fill="#F1F1F1" height="60.543" id="ChargeTeacher" rx="2.5" ry="2.5" style="stroke:#181818;stroke-width:0.5;" width="132" x="388" y="447.6211"/><ellipse cx="403" cy="477.8926" fill="#ADD1B2" rx="11" ry="11" style="stroke:#181818;stroke-width:1.0;"/><path d="M401.8594,478.6895 L401.8594,481.1895 L406.1875,481.1895 L406.1875,480.2676 Q406.1875,479.6582 406.4219,479.3926 Q406.6719,479.127 407.0469,479.127 Q407.4219,479.127 407.6563,479.3926 Q407.8906,479.6582 407.8906,480.2676 L407.8906,482.8926 L399.8906,482.8926 Q399.2656,482.8926 399,482.6582 Q398.75,482.4238 398.75,482.0332 Q398.75,481.6582 399.0156,481.4238 Q399.2813,481.1895 399.8906,481.1895 L400.1563,481.1895 L400.1563,474.5332 L399.8906,474.5332 Q399.2656,474.5332 399,474.2988 Q398.75,474.0645 398.75,473.6738 Q398.75,473.2988 399,473.0645 Q399.2656,472.8301 399.8906,472.8301 L407.5156,472.8301 L407.5156,475.4238 Q407.5156,476.0332 407.2813,476.2988 Q407.0625,476.5488 406.6719,476.5488 Q406.2969,476.5488 406.0625,476.2988 Q405.8281,476.0332 405.8281,475.4238 L405.8281,474.5332 L401.8594,474.5332 L401.8594,476.9863 L403.3438,476.9863 Q403.3438,476.3301 403.4688,476.1426 Q403.7344,475.7363 404.2031,475.7363 Q404.5781,475.7363 404.8125,476.002 Q405.0469,476.252 405.0469,476.8613 L405.0469,478.8301 Q405.0469,479.377 404.9219,479.5645 Q404.6563,479.9551 404.2031,479.9551 Q403.7344,479.9551 403.4688,479.5488 Q403.3438,479.3613 403.3438,478.6895 L401.8594,478.6895 Z " fill="#000000"/><text fill="#000000" font-family="sans-serif" font-size="12" font-style="italic" lengthAdjust="spacing" textLength="40" x="447" y="465.5703">&#171;Root&#187;</text><text fill="#000000" font-family="sans-serif" font-size="12" font-style="italic" lengthAdjust="spacing" textLength="44" x="445" y="481.5313">&#171;Entity&#187;</text><text fill="#000000" font-family="sans-serif" font-size="14" lengthAdjust="spacing" textLength="100" x="417" y="499.6504">ChargeTeacher</text></g><!--class Teacher--><g id="elem_Teacher"><rect codeLine="17" fill="#F1F1F1" height="60.543" id="Teacher" rx="2.5" ry="2.5" style="stroke:#181818;stroke-width:0.5;" width="85" x="119.5" y="83.6211"/><ellipse cx="134.5" cy="113.8926" fill="#ADD1B2" rx="11" ry="11" style="stroke:#181818;stroke-width:1.0;"/><path d="M133.3594,114.6895 L133.3594,117.1895 L137.6875,117.1895 L137.6875,116.2676 Q137.6875,115.6582 137.9219,115.3926 Q138.1719,115.127 138.5469,115.127 Q138.9219,115.127 139.1563,115.3926 Q139.3906,115.6582 139.3906,116.2676 L139.3906,118.8926 L131.3906,118.8926 Q130.7656,118.8926 130.5,118.6582 Q130.25,118.4238 130.25,118.0332 Q130.25,117.6582 130.5156,117.4238 Q130.7813,117.1895 131.3906,117.1895 L131.6563,117.1895 L131.6563,110.5332 L131.3906,110.5332 Q130.7656,110.5332 130.5,110.2988 Q130.25,110.0645 130.25,109.6738 Q130.25,109.2988 130.5,109.0645 Q130.7656,108.8301 131.3906,108.8301 L139.0156,108.8301 L139.0156,111.4238 Q139.0156,112.0332 138.7813,112.2988 Q138.5625,112.5488 138.1719,112.5488 Q137.7969,112.5488 137.5625,112.2988 Q137.3281,112.0332 137.3281,111.4238 L137.3281,110.5332 L133.3594,110.5332 L133.3594,112.9863 L134.8438,112.9863 Q134.8438,112.3301 134.9688,112.1426 Q135.2344,111.7363 135.7031,111.7363 Q136.0781,111.7363 136.3125,112.002 Q136.5469,112.252 136.5469,112.8613 L136.5469,114.8301 Q136.5469,115.377 136.4219,115.5645 Q136.1563,115.9551 135.7031,115.9551 Q135.2344,115.9551 134.9688,115.5488 Q134.8438,115.3613 134.8438,114.6895 L133.3594,114.6895 Z " fill="#000000"/><text fill="#000000" font-family="sans-serif" font-size="12" font-style="italic" lengthAdjust="spacing" textLength="44" x="153" y="101.5703">&#171;Entity&#187;</text><text fill="#000000" font-family="sans-serif" font-size="12" font-style="italic" lengthAdjust="spacing" textLength="40" x="155" y="117.5313">&#171;Root&#187;</text><text fill="#000000" font-family="sans-serif" font-size="14" lengthAdjust="spacing" textLength="53" x="148.5" y="135.6504">Teacher</text></g><g id="elem_Acronym"><rect fill="#F1F1F1" height="38.582" style="stroke:#181818;stroke-width:0.5;" width="95" x="59.5" y="204.6211"/><text fill="#000000" font-family="sans-serif" font-size="12" font-style="italic" lengthAdjust="spacing" textLength="85" x="64.5" y="217.5703">&#171;Value Object&#187;</text><text fill="#000000" font-family="sans-serif" font-size="14" lengthAdjust="spacing" textLength="55" x="79.5" y="237.6895">Acronym</text></g><!--class User--><g id="elem_User"><rect fill="#F1F1F1" height="32" id="User" rx="2.5" ry="2.5" style="stroke:#181818;stroke-width:0.5;" width="61" x="23.5" y="98.1211"/><ellipse cx="38.5" cy="114.1211" fill="#ADD1B2" rx="11" ry="11" style="stroke:#181818;stroke-width:1.0;"/><path d="M41.2656,109.9961 Q41.4219,109.7773 41.6094,109.668 Q41.7969,109.5586 42.0156,109.5586 Q42.3906,109.5586 42.625,109.8242 Q42.8594,110.0742 42.8594,110.6836 L42.8594,112.1367 Q42.8594,112.7461 42.625,113.0117 Q42.3906,113.2773 42.0156,113.2773 Q41.6719,113.2773 41.4688,113.0742 Q41.2656,112.8867 41.1563,112.3711 Q41.1094,112.0117 40.9219,111.8242 Q40.5938,111.4492 39.9844,111.2305 Q39.375,111.0117 38.75,111.0117 Q37.9844,111.0117 37.3438,111.3398 Q36.7188,111.668 36.2188,112.418 Q35.7344,113.168 35.7344,114.1992 L35.7344,115.293 Q35.7344,116.5273 36.625,117.3555 Q37.5156,118.168 39.1094,118.168 Q40.0469,118.168 40.7031,117.918 Q41.0938,117.7617 41.5156,117.3242 Q41.7813,117.0586 41.9219,116.9805 Q42.0781,116.9023 42.2813,116.9023 Q42.6094,116.9023 42.8594,117.168 Q43.125,117.418 43.125,117.7617 Q43.125,118.1055 42.7813,118.5117 Q42.2813,119.0898 41.4844,119.418 Q40.4063,119.8711 39.1094,119.8711 Q37.5938,119.8711 36.3906,119.2461 Q35.4063,118.7461 34.7188,117.6836 Q34.0313,116.6055 34.0313,115.3242 L34.0313,114.168 Q34.0313,112.8398 34.6406,111.6992 Q35.2656,110.543 36.3594,109.9336 Q37.4531,109.3086 38.6875,109.3086 Q39.4219,109.3086 40.0625,109.4805 Q40.7188,109.6367 41.2656,109.9961 Z " fill="#000000"/><text fill="#000000" font-family="sans-serif" font-size="14" lengthAdjust="spacing" textLength="29" x="52.5" y="119.918">User</text></g><!--class Course--><g id="elem_Course"><rect codeLine="28" fill="#F1F1F1" height="60.543" id="Course" rx="2.5" ry="2.5" style="stroke:#181818;stroke-width:0.5;" width="78" x="1069" y="320.6211"/><ellipse cx="1084" cy="350.8926" fill="#ADD1B2" rx="11" ry="11" style="stroke:#181818;stroke-width:1.0;"/><path d="M1082.8594,351.6895 L1082.8594,354.1895 L1087.1875,354.1895 L1087.1875,353.2676 Q1087.1875,352.6582 1087.4219,352.3926 Q1087.6719,352.127 1088.0469,352.127 Q1088.4219,352.127 1088.6563,352.3926 Q1088.8906,352.6582 1088.8906,353.2676 L1088.8906,355.8926 L1080.8906,355.8926 Q1080.2656,355.8926 1080,355.6582 Q1079.75,355.4238 1079.75,355.0332 Q1079.75,354.6582 1080.0156,354.4238 Q1080.2813,354.1895 1080.8906,354.1895 L1081.1563,354.1895 L1081.1563,347.5332 L1080.8906,347.5332 Q1080.2656,347.5332 1080,347.2988 Q1079.75,347.0645 1079.75,346.6738 Q1079.75,346.2988 1080,346.0645 Q1080.2656,345.8301 1080.8906,345.8301 L1088.5156,345.8301 L1088.5156,348.4238 Q1088.5156,349.0332 1088.2813,349.2988 Q1088.0625,349.5488 1087.6719,349.5488 Q1087.2969,349.5488 1087.0625,349.2988 Q1086.8281,349.0332 1086.8281,348.4238 L1086.8281,347.5332 L1082.8594,347.5332 L1082.8594,349.9863 L1084.3438,349.9863 Q1084.3438,349.3301 1084.4688,349.1426 Q1084.7344,348.7363 1085.2031,348.7363 Q1085.5781,348.7363 1085.8125,349.002 Q1086.0469,349.252 1086.0469,349.8613 L1086.0469,351.8301 Q1086.0469,352.377 1085.9219,352.5645 Q1085.6563,352.9551 1085.2031,352.9551 Q1084.7344,352.9551 1084.4688,352.5488 Q1084.3438,352.3613 1084.3438,351.6895 L1082.8594,351.6895 Z " fill="#000000"/><text fill="#000000" font-family="sans-serif" font-size="12" font-style="italic" lengthAdjust="spacing" textLength="40" x="1101" y="338.5703">&#171;Root&#187;</text><text fill="#000000" font-family="sans-serif" font-size="12" font-style="italic" lengthAdjust="spacing" textLength="44" x="1099" y="354.5313">&#171;Entity&#187;</text><text fill="#000000" font-family="sans-serif" font-size="14" lengthAdjust="spacing" textLength="46" x="1098" y="372.6504">Course</text></g><g id="elem_Id"><rect fill="#F1F1F1" height="54.543" style="stroke:#181818;stroke-width:0.5;" width="95" x="849.5" y="450.6211"/><text fill="#000000" font-family="sans-serif" font-size="12" font-style="italic" lengthAdjust="spacing" textLength="85" x="854.5" y="463.5703">&#171;Value Object&#187;</text><text fill="#000000" font-family="sans-serif" font-size="12" font-style="italic" lengthAdjust="spacing" textLength="54" x="870" y="479.5313">&#171;Identify&#187;</text><text fill="#000000" font-family="sans-serif" font-size="14" lengthAdjust="spacing" textLength="11" x="891.5" y="499.6504">Id</text></g><g id="elem_CourseState"><rect fill="#F1F1F1" height="38.582" style="stroke:#181818;stroke-width:0.5;" width="95" x="979.5" y="458.6211"/><text fill="#000000" font-family="sans-serif" font-size="12" font-style="italic" lengthAdjust="spacing" textLength="85" x="984.5" y="471.5703">&#171;Value Object&#187;</text><text fill="#000000" font-family="sans-serif" font-size="14" lengthAdjust="spacing" textLength="79" x="987.5" y="491.6895">CourseState</text></g><g id="elem_CourseEnrollmentState"><rect fill="#F1F1F1" height="38.582" style="stroke:#181818;stroke-width:0.5;" width="160" x="1110" y="458.6211"/><text fill="#000000" font-family="sans-serif" font-size="12" font-style="italic" lengthAdjust="spacing" textLength="85" x="1147.5" y="471.5703">&#171;Value Object&#187;</text><text fill="#000000" font-family="sans-serif" font-size="14" lengthAdjust="spacing" textLength="146" x="1117" y="491.6895">CourseEnrollmentState</text></g><g id="elem_Edition"><rect fill="#F1F1F1" height="38.582" style="stroke:#181818;stroke-width:0.5;" width="95" x="1305.5" y="458.6211"/><text fill="#000000" font-family="sans-serif" font-size="12" font-style="italic" lengthAdjust="spacing" textLength="85" x="1310.5" y="471.5703">&#171;Value Object&#187;</text><text fill="#000000" font-family="sans-serif" font-size="14" lengthAdjust="spacing" textLength="43" x="1331.5" y="491.6895">Edition</text></g><g id="elem_CourseDescription"><rect fill="#F1F1F1" height="38.582" style="stroke:#181818;stroke-width:0.5;" width="131" x="1435.5" y="458.6211"/><text fill="#000000" font-family="sans-serif" font-size="12" font-style="italic" lengthAdjust="spacing" textLength="85" x="1458.5" y="471.5703">&#171;Value Object&#187;</text><text fill="#000000" font-family="sans-serif" font-size="14" lengthAdjust="spacing" textLength="117" x="1442.5" y="491.6895">CourseDescription</text></g><g id="elem_CourseTitle"><rect fill="#F1F1F1" height="38.582" style="stroke:#181818;stroke-width:0.5;" width="95" x="1601.5" y="458.6211"/><text fill="#000000" font-family="sans-serif" font-size="12" font-style="italic" lengthAdjust="spacing" textLength="85" x="1606.5" y="471.5703">&#171;Value Object&#187;</text><text fill="#000000" font-family="sans-serif" font-size="14" lengthAdjust="spacing" textLength="73" x="1612.5" y="491.6895">CourseTitle</text></g><!--class Student--><g id="elem_Student"><rect codeLine="47" fill="#F1F1F1" height="60.543" id="Student" rx="2.5" ry="2.5" style="stroke:#181818;stroke-width:0.5;" width="81" x="393.5" y="83.6211"/><ellipse cx="408.5" cy="113.8926" fill="#ADD1B2" rx="11" ry="11" style="stroke:#181818;stroke-width:1.0;"/><path d="M407.3594,114.6895 L407.3594,117.1895 L411.6875,117.1895 L411.6875,116.2676 Q411.6875,115.6582 411.9219,115.3926 Q412.1719,115.127 412.5469,115.127 Q412.9219,115.127 413.1563,115.3926 Q413.3906,115.6582 413.3906,116.2676 L413.3906,118.8926 L405.3906,118.8926 Q404.7656,118.8926 404.5,118.6582 Q404.25,118.4238 404.25,118.0332 Q404.25,117.6582 404.5156,117.4238 Q404.7813,117.1895 405.3906,117.1895 L405.6563,117.1895 L405.6563,110.5332 L405.3906,110.5332 Q404.7656,110.5332 404.5,110.2988 Q404.25,110.0645 404.25,109.6738 Q404.25,109.2988 404.5,109.0645 Q404.7656,108.8301 405.3906,108.8301 L413.0156,108.8301 L413.0156,111.4238 Q413.0156,112.0332 412.7813,112.2988 Q412.5625,112.5488 412.1719,112.5488 Q411.7969,112.5488 411.5625,112.2988 Q411.3281,112.0332 411.3281,111.4238 L411.3281,110.5332 L407.3594,110.5332 L407.3594,112.9863 L408.8438,112.9863 Q408.8438,112.3301 408.9688,112.1426 Q409.2344,111.7363 409.7031,111.7363 Q410.0781,111.7363 410.3125,112.002 Q410.5469,112.252 410.5469,112.8613 L410.5469,114.8301 Q410.5469,115.377 410.4219,115.5645 Q410.1563,115.9551 409.7031,115.9551 Q409.2344,115.9551 408.9688,115.5488 Q408.8438,115.3613 408.8438,114.6895 L407.3594,114.6895 Z " fill="#000000"/><text fill="#000000" font-family="sans-serif" font-size="12" font-style="italic" lengthAdjust="spacing" textLength="44" x="425" y="101.5703">&#171;Entity&#187;</text><text fill="#000000" font-family="sans-serif" font-size="12" font-style="italic" lengthAdjust="spacing" textLength="40" x="427" y="117.5313">&#171;Root&#187;</text><text fill="#000000" font-family="sans-serif" font-size="14" lengthAdjust="spacing" textLength="49" x="422.5" y="135.6504">Student</text></g><g id="elem_MechanographicNumber"><rect fill="#F1F1F1" height="38.582" style="stroke:#181818;stroke-width:0.5;" width="168" x="261" y="204.6211"/><text fill="#000000" font-family="sans-serif" font-size="12" font-style="italic" lengthAdjust="spacing" textLength="85" x="302.5" y="217.5703">&#171;Value Object&#187;</text><text fill="#000000" font-family="sans-serif" font-size="14" lengthAdjust="spacing" textLength="154" x="268" y="237.6895">MechanographicNumber</text></g><!--class FinishedExam--><g id="elem_FinishedExam"><rect fill="#F1F1F1" height="32" id="FinishedExam" rx="2.5" ry="2.5" style="stroke:#181818;stroke-width:0.5;" width="120" x="464" y="208.1211"/><ellipse cx="479" cy="224.1211" fill="#ADD1B2" rx="11" ry="11" style="stroke:#181818;stroke-width:1.0;"/><path d="M481.7656,219.9961 Q481.9219,219.7773 482.1094,219.668 Q482.2969,219.5586 482.5156,219.5586 Q482.8906,219.5586 483.125,219.8242 Q483.3594,220.0742 483.3594,220.6836 L483.3594,222.1367 Q483.3594,222.7461 483.125,223.0117 Q482.8906,223.2773 482.5156,223.2773 Q482.1719,223.2773 481.9688,223.0742 Q481.7656,222.8867 481.6563,222.3711 Q481.6094,222.0117 481.4219,221.8242 Q481.0938,221.4492 480.4844,221.2305 Q479.875,221.0117 479.25,221.0117 Q478.4844,221.0117 477.8438,221.3398 Q477.2188,221.668 476.7188,222.418 Q476.2344,223.168 476.2344,224.1992 L476.2344,225.293 Q476.2344,226.5273 477.125,227.3555 Q478.0156,228.168 479.6094,228.168 Q480.5469,228.168 481.2031,227.918 Q481.5938,227.7617 482.0156,227.3242 Q482.2813,227.0586 482.4219,226.9805 Q482.5781,226.9023 482.7813,226.9023 Q483.1094,226.9023 483.3594,227.168 Q483.625,227.418 483.625,227.7617 Q483.625,228.1055 483.2813,228.5117 Q482.7813,229.0898 481.9844,229.418 Q480.9063,229.8711 479.6094,229.8711 Q478.0938,229.8711 476.8906,229.2461 Q475.9063,228.7461 475.2188,227.6836 Q474.5313,226.6055 474.5313,225.3242 L474.5313,224.168 Q474.5313,222.8398 475.1406,221.6992 Q475.7656,220.543 476.8594,219.9336 Q477.9531,219.3086 479.1875,219.3086 Q479.9219,219.3086 480.5625,219.4805 Q481.2188,219.6367 481.7656,219.9961 Z " fill="#000000"/><text fill="#000000" font-family="sans-serif" font-size="14" lengthAdjust="spacing" textLength="88" x="493" y="229.918">FinishedExam</text></g><!--class Enrollment--><g id="elem_Enrollment"><rect codeLine="57" fill="#F1F1F1" height="32" id="Enrollment" rx="2.5" ry="2.5" style="stroke:#181818;stroke-width:0.5;" width="99" x="689.5" y="208.1211"/><ellipse cx="704.5" cy="224.1211" fill="#ADD1B2" rx="11" ry="11" style="stroke:#181818;stroke-width:1.0;"/><path d="M703.3594,224.918 L703.3594,227.418 L707.6875,227.418 L707.6875,226.4961 Q707.6875,225.8867 707.9219,225.6211 Q708.1719,225.3555 708.5469,225.3555 Q708.9219,225.3555 709.1563,225.6211 Q709.3906,225.8867 709.3906,226.4961 L709.3906,229.1211 L701.3906,229.1211 Q700.7656,229.1211 700.5,228.8867 Q700.25,228.6523 700.25,228.2617 Q700.25,227.8867 700.5156,227.6523 Q700.7813,227.418 701.3906,227.418 L701.6563,227.418 L701.6563,220.7617 L701.3906,220.7617 Q700.7656,220.7617 700.5,220.5273 Q700.25,220.293 700.25,219.9023 Q700.25,219.5273 700.5,219.293 Q700.7656,219.0586 701.3906,219.0586 L709.0156,219.0586 L709.0156,221.6523 Q709.0156,222.2617 708.7813,222.5273 Q708.5625,222.7773 708.1719,222.7773 Q707.7969,222.7773 707.5625,222.5273 Q707.3281,222.2617 707.3281,221.6523 L707.3281,220.7617 L703.3594,220.7617 L703.3594,223.2148 L704.8438,223.2148 Q704.8438,222.5586 704.9688,222.3711 Q705.2344,221.9648 705.7031,221.9648 Q706.0781,221.9648 706.3125,222.2305 Q706.5469,222.4805 706.5469,223.0898 L706.5469,225.0586 Q706.5469,225.6055 706.4219,225.793 Q706.1563,226.1836 705.7031,226.1836 Q705.2344,226.1836 704.9688,225.7773 Q704.8438,225.5898 704.8438,224.918 L703.3594,224.918 Z " fill="#000000"/><text fill="#000000" font-family="sans-serif" font-size="14" lengthAdjust="spacing" textLength="67" x="718.5" y="229.918">Enrollment</text></g><g id="elem_EnrollmentState"><rect fill="#F1F1F1" height="38.582" style="stroke:#181818;stroke-width:0.5;" width="114" x="679" y="331.6211"/><text fill="#000000" font-family="sans-serif" font-size="12" font-style="italic" lengthAdjust="spacing" textLength="85" x="693.5" y="344.5703">&#171;Value Object&#187;</text><text fill="#000000" font-family="sans-serif" font-size="14" lengthAdjust="spacing" textLength="100" x="686" y="364.6895">EnrollmentState</text></g><!--class EnrollmentApprovation--><g id="elem_EnrollmentApprovation"><rect codeLine="65" fill="#F1F1F1" height="32" id="EnrollmentApprovation" rx="2.5" ry="2.5" style="stroke:#181818;stroke-width:0.5;" width="175" x="849.5" y="98.1211"/><ellipse cx="864.5" cy="114.1211" fill="#ADD1B2" rx="11" ry="11" style="stroke:#181818;stroke-width:1.0;"/><path d="M863.3594,114.918 L863.3594,117.418 L867.6875,117.418 L867.6875,116.4961 Q867.6875,115.8867 867.9219,115.6211 Q868.1719,115.3555 868.5469,115.3555 Q868.9219,115.3555 869.1563,115.6211 Q869.3906,115.8867 869.3906,116.4961 L869.3906,119.1211 L861.3906,119.1211 Q860.7656,119.1211 860.5,118.8867 Q860.25,118.6523 860.25,118.2617 Q860.25,117.8867 860.5156,117.6523 Q860.7813,117.418 861.3906,117.418 L861.6563,117.418 L861.6563,110.7617 L861.3906,110.7617 Q860.7656,110.7617 860.5,110.5273 Q860.25,110.293 860.25,109.9023 Q860.25,109.5273 860.5,109.293 Q860.7656,109.0586 861.3906,109.0586 L869.0156,109.0586 L869.0156,111.6523 Q869.0156,112.2617 868.7813,112.5273 Q868.5625,112.7773 868.1719,112.7773 Q867.7969,112.7773 867.5625,112.5273 Q867.3281,112.2617 867.3281,111.6523 L867.3281,110.7617 L863.3594,110.7617 L863.3594,113.2148 L864.8438,113.2148 Q864.8438,112.5586 864.9688,112.3711 Q865.2344,111.9648 865.7031,111.9648 Q866.0781,111.9648 866.3125,112.2305 Q866.5469,112.4805 866.5469,113.0898 L866.5469,115.0586 Q866.5469,115.6055 866.4219,115.793 Q866.1563,116.1836 865.7031,116.1836 Q865.2344,116.1836 864.9688,115.7773 Q864.8438,115.5898 864.8438,114.918 L863.3594,114.918 Z " fill="#000000"/><text fill="#000000" font-family="sans-serif" font-size="14" lengthAdjust="spacing" textLength="143" x="878.5" y="119.918">EnrollmentApprovation</text></g><g id="elem_Justification"><rect fill="#F1F1F1" height="38.582" style="stroke:#181818;stroke-width:0.5;" width="95" x="889.5" y="204.6211"/><text fill="#000000" font-family="sans-serif" font-size="12" font-style="italic" lengthAdjust="spacing" textLength="85" x="894.5" y="217.5703">&#171;Value Object&#187;</text><text fill="#000000" font-family="sans-serif" font-size="14" lengthAdjust="spacing" textLength="73" x="900.5" y="237.6895">Justification</text></g><!--reverse link User to Teacher--><g id="link_User_Teacher"><path codeLine="20" d="M104.66,114.6211 C104.66,114.6211 119.17,114.6211 119.17,114.6211 " fill="none" id="User-backto-Teacher" style="stroke:#181818;stroke-width:1.0;"/><polygon fill="none" points="104.66,121.6211,84.66,114.6211,104.66,107.6211,104.66,121.6211" style="stroke:#181818;stroke-width:1.0;"/><text fill="#000000" font-family="sans-serif" font-size="13" lengthAdjust="spacing" textLength="21" x="89.91" y="110.6494">is a</text></g><!--link Teacher to Acronym--><g id="link_Teacher_Acronym"><path codeLine="21" d="M137,144.7611 C137,144.7611 137,199.3811 137,199.3811 " fill="none" id="Teacher-to-Acronym" style="stroke:#181818;stroke-width:1.0;"/><polygon fill="#181818" points="137,204.3811,141,195.3811,137,199.3811,133,195.3811,137,204.3811" style="stroke:#181818;stroke-width:1.0;"/><text fill="#000000" font-family="sans-serif" font-size="13" lengthAdjust="spacing" textLength="32" x="138" y="168.0994">has a</text><text fill="#000000" font-family="sans-serif" font-size="13" lengthAdjust="spacing" textLength="7" x="124.7453" y="166.0748">1</text><text fill="#000000" font-family="sans-serif" font-size="13" lengthAdjust="spacing" textLength="7" x="137.7844" y="193.218">1</text></g><!--link ChargeTeacher to Teacher--><g id="link_ChargeTeacher_Teacher"><path codeLine="22" d="M387.9,478.6211 C306.68,478.6211 179.5,478.6211 179.5,478.6211 C179.5,478.6211 179.5,164.8811 179.5,164.8811 " fill="none" id="ChargeTeacher-to-Teacher" style="stroke:#181818;stroke-width:1.0;"/><polygon fill="none" points="172.5,164.8811,179.5,144.8811,186.5,164.8811,172.5,164.8811" style="stroke:#181818;stroke-width:1.0;"/><text fill="#000000" font-family="sans-serif" font-size="13" lengthAdjust="spacing" textLength="21" x="157.5" y="421.9794">is a</text><text fill="#000000" font-family="sans-serif" font-size="13" lengthAdjust="spacing" textLength="7" x="372.8525" y="474.7677">1</text><text fill="#000000" font-family="sans-serif" font-size="13" lengthAdjust="spacing" textLength="7" x="175.0813" y="166.2169">1</text></g><!--link Course to CourseTitle--><g id="link_Course_CourseTitle"><path codeLine="36" d="M1147.34,336.6211 C1271.84,336.6211 1649,336.6211 1649,336.6211 C1649,336.6211 1649,453.4511 1649,453.4511 " fill="none" id="Course-to-CourseTitle" style="stroke:#181818;stroke-width:1.0;"/><polygon fill="#181818" points="1649,458.4511,1653.0257,449.4626,1649.0143,453.4511,1645.0257,449.4397,1649,458.4511" style="stroke:#181818;stroke-width:1.0;"/><text fill="#000000" font-family="sans-serif" font-size="13" lengthAdjust="spacing" textLength="32" x="1423.58" y="332.6494">has a</text><text fill="#000000" font-family="sans-serif" font-size="13" lengthAdjust="spacing" textLength="7" x="1154.9709" y="329.6192">1</text><text fill="#000000" font-family="sans-serif" font-size="13" lengthAdjust="spacing" textLength="7" x="1640.9719" y="447.3086">1</text></g><!--link Course to Id--><g id="link_Course_Id"><path codeLine="37" d="M1092.25,381.8911 C1092.25,412.4011 1092.25,454.6211 1092.25,454.6211 C1092.25,454.6211 949.51,454.6211 949.51,454.6211 " fill="none" id="Course-to-Id" style="stroke:#181818;stroke-width:1.0;"/><polygon fill="#181818" points="944.51,454.6211,953.51,458.6211,949.51,454.6211,953.51,450.6211,944.51,454.6211" style="stroke:#181818;stroke-width:1.0;"/><text fill="#000000" font-family="sans-serif" font-size="13" lengthAdjust="spacing" textLength="32" x="1024.25" y="450.6494">has a</text><text fill="#000000" font-family="sans-serif" font-size="13" lengthAdjust="spacing" textLength="7" x="1081.7008" y="403.2288">1</text><text fill="#000000" font-family="sans-serif" font-size="13" lengthAdjust="spacing" textLength="7" x="952.6397" y="446.609">1</text></g><!--link Course to CourseDescription--><g id="link_Course_CourseDescription"><path codeLine="38" d="M1147.12,351.6211 C1246.52,351.6211 1501,351.6211 1501,351.6211 C1501,351.6211 1501,453.3511 1501,453.3511 " fill="none" id="Course-to-CourseDescription" style="stroke:#181818;stroke-width:1.0;"/><polygon fill="#181818" points="1501,458.3511,1505,449.3511,1501,453.3511,1497,449.3511,1501,458.3511" style="stroke:#181818;stroke-width:1.0;"/><text fill="#000000" font-family="sans-serif" font-size="13" lengthAdjust="spacing" textLength="32" x="1341.93" y="347.6494">has a</text><text fill="#000000" font-family="sans-serif" font-size="13" lengthAdjust="spacing" textLength="7" x="1154.9781" y="347.2434">1</text><text fill="#000000" font-family="sans-serif" font-size="13" lengthAdjust="spacing" textLength="7" x="1493.0156" y="447.5282">1</text></g><!--link Course to CourseState--><g id="link_Course_CourseState"><path codeLine="39" d="M1068.86,378.6211 C1056.86,378.6211 1046.75,378.6211 1046.75,378.6211 C1046.75,378.6211 1046.75,453.4611 1046.75,453.4611 " fill="none" id="Course-to-CourseState" style="stroke:#181818;stroke-width:1.0;"/><polygon fill="#181818" points="1046.75,458.4611,1050.75,449.4611,1046.75,453.4611,1042.75,449.4611,1046.75,458.4611" style="stroke:#181818;stroke-width:1.0;"/><text fill="#000000" font-family="sans-serif" font-size="13" lengthAdjust="spacing" textLength="32" x="1013.75" y="401.0094">has a</text><text fill="#000000" font-family="sans-serif" font-size="13" lengthAdjust="spacing" textLength="7" x="1053.9982" y="399.3559">1</text><text fill="#000000" font-family="sans-serif" font-size="13" lengthAdjust="spacing" textLength="7" x="1044.5234" y="447.3215">1</text></g><!--link Course to CourseEnrollmentState--><g id="link_Course_CourseEnrollmentState"><path codeLine="40" d="M1128.5,381.8611 C1128.5,381.8611 1128.5,453.3411 1128.5,453.3411 " fill="none" id="Course-to-CourseEnrollmentState" style="stroke:#181818;stroke-width:1.0;"/><polygon fill="#181818" points="1128.5,458.3411,1132.5,449.3411,1128.5,453.3411,1124.5,449.3411,1128.5,458.3411" style="stroke:#181818;stroke-width:1.0;"/><text fill="#000000" font-family="sans-serif" font-size="13" lengthAdjust="spacing" textLength="39" x="1088.5" y="432.6294">has an</text><text fill="#000000" font-family="sans-serif" font-size="13" lengthAdjust="spacing" textLength="7" x="1124.6344" y="403.1932">1</text><text fill="#000000" font-family="sans-serif" font-size="13" lengthAdjust="spacing" textLength="7" x="1103.2188" y="447.5154">1</text></g><!--link Course to Edition--><g id="link_Course_Edition"><path codeLine="41" d="M1147.09,366.6211 C1216.26,366.6211 1353,366.6211 1353,366.6211 C1353,366.6211 1353,453.4411 1353,453.4411 " fill="none" id="Course-to-Edition" style="stroke:#181818;stroke-width:1.0;"/><polygon fill="#181818" points="1353,458.4411,1357,449.4411,1353,453.4411,1349,449.4411,1353,458.4411" style="stroke:#181818;stroke-width:1.0;"/><text fill="#000000" font-family="sans-serif" font-size="13" lengthAdjust="spacing" textLength="32" x="1260.46" y="362.6494">has a</text><text fill="#000000" font-family="sans-serif" font-size="13" lengthAdjust="spacing" textLength="7" x="1154.9425" y="385.1434">1</text><text fill="#000000" font-family="sans-serif" font-size="13" lengthAdjust="spacing" textLength="7" x="1344.9719" y="447.2957">1</text></g><!--link Course to ChargeTeacher--><g id="link_Course_ChargeTeacher"><path codeLine="42" d="M1069,374.6211 C933.59,374.6211 492,374.6211 492,374.6211 C492,374.6211 492,442.3511 492,442.3511 " fill="none" id="Course-to-ChargeTeacher" style="stroke:#181818;stroke-width:1.0;"/><polygon fill="#181818" points="492,447.3511,496,438.3511,492,442.3511,488,438.3511,492,447.3511" style="stroke:#181818;stroke-width:1.0;"/><text fill="#000000" font-family="sans-serif" font-size="13" lengthAdjust="spacing" textLength="46" x="699.64" y="389.6494">needs a</text><text fill="#000000" font-family="sans-serif" font-size="13" lengthAdjust="spacing" textLength="7" x="1053.8984" y="374.5801">1</text><text fill="#000000" font-family="sans-serif" font-size="13" lengthAdjust="spacing" textLength="7" x="492.1156" y="436.3571">1</text></g><!--reverse link User to Student--><g id="link_User_Student"><path codeLine="50" d="M72,150.3311 C72,150.3311 72,174.6211 72,174.6211 C72,174.6211 405.33,174.6211 405.33,174.6211 C405.33,174.6211 405.33,159.7311 405.33,144.7211 " fill="none" id="User-backto-Student" style="stroke:#181818;stroke-width:1.0;"/><polygon fill="none" points="65,150.3311,72,130.3311,79,150.3311,65,150.3311" style="stroke:#181818;stroke-width:1.0;"/></g><!--link Student to MechanographicNumber--><g id="link_Student_MechanographicNumber"><path codeLine="51" d="M417.17,144.7611 C417.17,144.7611 417.17,199.3811 417.17,199.3811 " fill="none" id="Student-to-MechanographicNumber" style="stroke:#181818;stroke-width:1.0;"/><polygon fill="#181818" points="417.17,204.3811,421.17,195.3811,417.17,199.3811,413.17,195.3811,417.17,204.3811" style="stroke:#181818;stroke-width:1.0;"/><text fill="#000000" font-family="sans-serif" font-size="13" lengthAdjust="spacing" textLength="32" x="418.17" y="168.0994">has a</text><text fill="#000000" font-family="sans-serif" font-size="13" lengthAdjust="spacing" textLength="7" x="406.4217" y="166.0748">1</text><text fill="#000000" font-family="sans-serif" font-size="13" lengthAdjust="spacing" textLength="7" x="430.3418" y="193.218">1</text></g><!--link Student to FinishedExam--><g id="link_Student_FinishedExam"><path codeLine="52" d="M469.25,144.7611 C469.25,144.7611 469.25,202.9011 469.25,202.9011 " fill="none" id="Student-to-FinishedExam" style="stroke:#181818;stroke-width:1.0;"/><polygon fill="#181818" points="469.25,207.9011,473.25,198.9011,469.25,202.9011,465.25,198.9011,469.25,207.9011" style="stroke:#181818;stroke-width:1.0;"/><text fill="#000000" font-family="sans-serif" font-size="13" lengthAdjust="spacing" textLength="48" x="470.25" y="169.8594">answers</text><text fill="#000000" font-family="sans-serif" font-size="13" lengthAdjust="spacing" textLength="7" x="468.1039" y="166.0748">1</text><text fill="#000000" font-family="sans-serif" font-size="13" lengthAdjust="spacing" textLength="7" x="448.7797" y="199.2466">1</text></g><!--link Enrollment to EnrollmentState--><g id="link_Enrollment_EnrollmentState"><path codeLine="60" d="M722.5,240.2011 C722.5,240.2011 722.5,326.4211 722.5,326.4211 " fill="none" id="Enrollment-to-EnrollmentState" style="stroke:#181818;stroke-width:1.0;"/><polygon fill="#181818" points="722.5,331.4211,726.5,322.4211,722.5,326.4211,718.5,322.4211,722.5,331.4211" style="stroke:#181818;stroke-width:1.0;"/><text fill="#000000" font-family="sans-serif" font-size="13" lengthAdjust="spacing" textLength="39" x="682.5" y="279.3394">has an</text><text fill="#000000" font-family="sans-serif" font-size="13" lengthAdjust="spacing" textLength="7" x="709.125" y="262.1107">1</text><text fill="#000000" font-family="sans-serif" font-size="13" lengthAdjust="spacing" textLength="7" x="710.5063" y="320.2698">1</text></g><!--link EnrollmentApprovation to Justification--><g id="link_EnrollmentApprovation_Justification"><path codeLine="68" d="M937,130.3511 C937,130.3511 937,199.4711 937,199.4711 " fill="none" id="EnrollmentApprovation-to-Justification" style="stroke:#181818;stroke-width:1.0;"/><polygon fill="#181818" points="937,204.4711,941,195.4711,937,199.4711,933,195.4711,937,204.4711" style="stroke:#181818;stroke-width:1.0;"/><text fill="#000000" font-family="sans-serif" font-size="13" lengthAdjust="spacing" textLength="39" x="897" y="179.9394">has an</text><text fill="#000000" font-family="sans-serif" font-size="13" lengthAdjust="spacing" textLength="7" x="928.9281" y="151.9975">1</text><text fill="#000000" font-family="sans-serif" font-size="13" lengthAdjust="spacing" textLength="7" x="928.9719" y="193.3345">1</text></g><!--link EnrollmentApprovation to Enrollment--><g id="link_EnrollmentApprovation_Enrollment"><path codeLine="69" d="M869.5,130.4211 C869.5,161.1611 869.5,224.6211 869.5,224.6211 C869.5,224.6211 793.71,224.6211 793.71,224.6211 " fill="none" id="EnrollmentApprovation-to-Enrollment" style="stroke:#181818;stroke-width:1.0;"/><polygon fill="#181818" points="788.71,224.6211,797.71,228.6211,793.71,224.6211,797.71,220.6211,788.71,224.6211" style="stroke:#181818;stroke-width:1.0;"/><text fill="#000000" font-family="sans-serif" font-size="13" lengthAdjust="spacing" textLength="51" x="817.5" y="211.4494">approves</text><text fill="#000000" font-family="sans-serif" font-size="13" lengthAdjust="spacing" textLength="7" x="840.7563" y="152.089">1</text><text fill="#000000" font-family="sans-serif" font-size="13" lengthAdjust="spacing" textLength="20" x="796.3603" y="220.6431">1..*</text></g><!--link Student to Enrollment--><g id="link_Student_Enrollment"><path codeLine="73" d="M474.5,137.6211 C557.47,137.6211 739,137.6211 739,137.6211 C739,137.6211 739,202.8511 739,202.8511 " fill="none" id="Student-to-Enrollment" style="stroke:#181818;stroke-width:1.0;"/><polygon fill="#181818" points="739,207.8511,743,198.8511,739,202.8511,735,198.8511,739,207.8511" style="stroke:#181818;stroke-width:1.0;"/><polygon fill="#000000" points="577.2246,129.4638,569.1463,124.4446,567.7389,130.1515,577.2246,129.4638" style="stroke:#000000;stroke-width:1.0;"/><text fill="#000000" font-family="sans-serif" font-size="13" lengthAdjust="spacing" textLength="57" x="581.37" y="133.6494">makes an</text><text fill="#000000" font-family="sans-serif" font-size="13" lengthAdjust="spacing" textLength="7" x="482.6125" y="137.484">1</text><text fill="#000000" font-family="sans-serif" font-size="13" lengthAdjust="spacing" textLength="24" x="711.025" y="196.7226">1...*</text></g><!--link Enrollment to Course--><g id="link_Enrollment_Course"><path codeLine="74" d="M755.5,240.1411 C755.5,268.9611 755.5,326.6211 755.5,326.6211 C755.5,326.6211 1063.93,326.6211 1063.93,326.6211 " fill="none" id="Enrollment-to-Course" style="stroke:#181818;stroke-width:1.0;"/><polygon fill="#181818" points="1068.93,326.6211,1059.93,322.6211,1063.93,326.6211,1059.93,330.6211,1068.93,326.6211" style="stroke:#181818;stroke-width:1.0;"/><polygon fill="#000000" points="782.2843,318.6165,774.3686,313.3447,772.7817,319.0043,782.2843,318.6165" style="stroke:#000000;stroke-width:1.0;"/><text fill="#000000" font-family="sans-serif" font-size="13" lengthAdjust="spacing" textLength="79" x="786.47" y="322.6494">is related to a</text><text fill="#000000" font-family="sans-serif" font-size="13" lengthAdjust="spacing" textLength="7" x="752.6438" y="262.0315">1</text><text fill="#000000" font-family="sans-serif" font-size="13" lengthAdjust="spacing" textLength="7" x="1054.0812" y="317.634">1</text></g><!--SRC=[ZLHDYzim4BthLmpfeL18Gg_1648tXHJQGdVRksBFMchqOMGvRTZjV-_uAvOThnDVR3HltinxC_9xuNs-MQzpnOqljLebLg-BepGvTrolXDUACIPaYl0iKQNDfqOlR5emvgLN20zMSsdWmSaJqWiBcHd6BYoWf45_pX6iepp672QUcumo5r6qpJA76VSOn_19S9VX4_94e5l0EusfB7MXA7fG9Rume0SDLJt3OWYEeX_M-ZYEebqTZsFsRwPINwCYFachqB-maBz5z7nTXHfa3x-96hQ9i-Qie-WN9nhuNfyIfCQq3B0iyzSOVXReDY0Bu65myN41osKCz6wvO0E2TwY1nWgqNBx6LKvtr3AIr1bNRUaA9AbAPi8NntFZPIYsWKnu66ZTfsEPKRHFAuBd4R9XU_HK_igPAzZEEAkK9fuw0UOoTgdqqXgupKfBc3YPtub-gjTuUegjU_sSWfJ1gCQuVGgpyUj69-64le0RXsx2HfQsU7FT1hqwIzzijM8Djt031Z5jb-xDdNlqPRKQj7J2-boQut3Vsl3yvVgAYU36PexdGYRVIdsehkFKZ5gwuAODZdibKvIXyY2ZIVWiZIm4fhk_N6_8m-8Fkc9MUMy-YQz_NHGxmr1_3ngizt1kqrh30bsNupjqcVXzZMxptDaJh_RWhfu3VDZ-bxAWVu5Cwi3DviEYdOu1ms1jvnDNgm-11pId6eBreDXufgiA7V2HMveViIe5CGlEBssr5wBvsJgi_4d1M-24f-S_]--></g></svg>