<?xml version="1.0" encoding="us-ascii" standalone="no"?><svg xmlns="http://www.w3.org/2000/svg" xmlns:xlink="http://www.w3.org/1999/xlink" contentStyleType="text/css" height="1137px" preserveAspectRatio="none" style="width:2063px;height:1137px;background:#FFFFFF;" version="1.1" viewBox="0 0 2063 1137" width="2063px" zoomAndPan="magnify"><defs/><g><!--class Student--><g id="elem_Student"><rect codeLine="5" fill="#F1F1F1" height="103.8633" id="Student" rx="2.5" ry="2.5" style="stroke:#181818;stroke-width:0.5;" width="104" x="716" y="591"/><ellipse cx="741.35" cy="607" fill="#ADD1B2" rx="11" ry="11" style="stroke:#181818;stroke-width:1.0;"/><path d="M744.1156,602.875 Q744.2719,602.6563 744.4594,602.5469 Q744.6469,602.4375 744.8656,602.4375 Q745.2406,602.4375 745.475,602.7031 Q745.7094,602.9531 745.7094,603.5625 L745.7094,605.0156 Q745.7094,605.625 745.475,605.8906 Q745.2406,606.1563 744.8656,606.1563 Q744.5219,606.1563 744.3188,605.9531 Q744.1156,605.7656 744.0063,605.25 Q743.9594,604.8906 743.7719,604.7031 Q743.4438,604.3281 742.8344,604.1094 Q742.225,603.8906 741.6,603.8906 Q740.8344,603.8906 740.1938,604.2188 Q739.5688,604.5469 739.0688,605.2969 Q738.5844,606.0469 738.5844,607.0781 L738.5844,608.1719 Q738.5844,609.4063 739.475,610.2344 Q740.3656,611.0469 741.9594,611.0469 Q742.8969,611.0469 743.5531,610.7969 Q743.9438,610.6406 744.3656,610.2031 Q744.6313,609.9375 744.7719,609.8594 Q744.9281,609.7813 745.1313,609.7813 Q745.4594,609.7813 745.7094,610.0469 Q745.975,610.2969 745.975,610.6406 Q745.975,610.9844 745.6313,611.3906 Q745.1313,611.9688 744.3344,612.2969 Q743.2563,612.75 741.9594,612.75 Q740.4438,612.75 739.2406,612.125 Q738.2563,611.625 737.5688,610.5625 Q736.8813,609.4844 736.8813,608.2031 L736.8813,607.0469 Q736.8813,605.7188 737.4906,604.5781 Q738.1156,603.4219 739.2094,602.8125 Q740.3031,602.1875 741.5375,602.1875 Q742.2719,602.1875 742.9125,602.3594 Q743.5688,602.5156 744.1156,602.875 Z " fill="#000000"/><text fill="#000000" font-family="FG Virgil" font-size="14" lengthAdjust="spacing" textLength="49" x="757.65" y="612.7969">Student</text><line style="stroke:#181818;stroke-width:0.5;" x1="717" x2="819" y1="623" y2="623"/><rect fill="none" height="6" style="stroke:#C82930;stroke-width:1.0;" width="6" x="724" y="634.8105"/><text fill="#000000" font-family="FG Virgil" font-size="14" lengthAdjust="spacing" textLength="34" x="736" y="642.1074">id: int</text><rect fill="none" height="6" style="stroke:#C82930;stroke-width:1.0;" width="6" x="724" y="653.4316"/><text fill="#000000" font-family="FG Virgil" font-size="14" lengthAdjust="spacing" textLength="78" x="736" y="660.7285">name: string</text><rect fill="none" height="6" style="stroke:#C82930;stroke-width:1.0;" width="6" x="724" y="672.0527"/><text fill="#000000" font-family="FG Virgil" font-size="14" lengthAdjust="spacing" textLength="76" x="736" y="679.3496">email: string</text><line style="stroke:#181818;stroke-width:0.5;" x1="717" x2="819" y1="686.8633" y2="686.8633"/></g><!--class EnrollmentApprovalUI--><g id="elem_EnrollmentApprovalUI"><rect codeLine="11" fill="#F1F1F1" height="122.4844" id="EnrollmentApprovalUI" rx="2.5" ry="2.5" style="stroke:#181818;stroke-width:0.5;" width="593" x="676.5" y="7"/><ellipse cx="901.25" cy="23" fill="#ADD1B2" rx="11" ry="11" style="stroke:#181818;stroke-width:1.0;"/><path d="M904.0156,18.875 Q904.1719,18.6563 904.3594,18.5469 Q904.5469,18.4375 904.7656,18.4375 Q905.1406,18.4375 905.375,18.7031 Q905.6094,18.9531 905.6094,19.5625 L905.6094,21.0156 Q905.6094,21.625 905.375,21.8906 Q905.1406,22.1563 904.7656,22.1563 Q904.4219,22.1563 904.2188,21.9531 Q904.0156,21.7656 903.9063,21.25 Q903.8594,20.8906 903.6719,20.7031 Q903.3438,20.3281 902.7344,20.1094 Q902.125,19.8906 901.5,19.8906 Q900.7344,19.8906 900.0938,20.2188 Q899.4688,20.5469 898.9688,21.2969 Q898.4844,22.0469 898.4844,23.0781 L898.4844,24.1719 Q898.4844,25.4063 899.375,26.2344 Q900.2656,27.0469 901.8594,27.0469 Q902.7969,27.0469 903.4531,26.7969 Q903.8438,26.6406 904.2656,26.2031 Q904.5313,25.9375 904.6719,25.8594 Q904.8281,25.7813 905.0313,25.7813 Q905.3594,25.7813 905.6094,26.0469 Q905.875,26.2969 905.875,26.6406 Q905.875,26.9844 905.5313,27.3906 Q905.0313,27.9688 904.2344,28.2969 Q903.1563,28.75 901.8594,28.75 Q900.3438,28.75 899.1406,28.125 Q898.1563,27.625 897.4688,26.5625 Q896.7813,25.4844 896.7813,24.2031 L896.7813,23.0469 Q896.7813,21.7188 897.3906,20.5781 Q898.0156,19.4219 899.1094,18.8125 Q900.2031,18.1875 901.4375,18.1875 Q902.1719,18.1875 902.8125,18.3594 Q903.4688,18.5156 904.0156,18.875 Z " fill="#000000"/><text fill="#000000" font-family="FG Virgil" font-size="14" lengthAdjust="spacing" textLength="135" x="921.75" y="28.7969">EnrollmentApprovalUI</text><line style="stroke:#181818;stroke-width:0.5;" x1="677.5" x2="1268.5" y1="39" y2="39"/><line style="stroke:#181818;stroke-width:0.5;" x1="677.5" x2="1268.5" y1="47" y2="47"/><ellipse cx="687.5" cy="61.8105" fill="#84BE84" rx="3" ry="3" style="stroke:#038048;stroke-width:1.0;"/><text fill="#000000" font-family="FG Virgil" font-size="14" lengthAdjust="spacing" textLength="84" x="696.5" y="66.1074">create(): void</text><ellipse cx="687.5" cy="80.4316" fill="#84BE84" rx="3" ry="3" style="stroke:#038048;stroke-width:1.0;"/><text fill="#000000" font-family="FG Virgil" font-size="14" lengthAdjust="spacing" textLength="351" x="696.5" y="84.7285">findEnrollmentApplication(): List&lt;EnrollmentApplication&gt;</text><ellipse cx="687.5" cy="99.0527" fill="#84BE84" rx="3" ry="3" style="stroke:#038048;stroke-width:1.0;"/><text fill="#000000" font-family="FG Virgil" font-size="14" lengthAdjust="spacing" textLength="567" x="696.5" y="103.3496">createEnrollmentApproval(enrollment: Enrollment, answer: string, explanation: string): void</text><ellipse cx="687.5" cy="117.6738" fill="#84BE84" rx="3" ry="3" style="stroke:#038048;stroke-width:1.0;"/><text fill="#000000" font-family="FG Virgil" font-size="14" lengthAdjust="spacing" textLength="199" x="696.5" y="121.9707">informOperationSuccess(): void</text></g><!--class EnrollmentApprovalController--><g id="elem_EnrollmentApprovalController"><rect codeLine="18" fill="#F1F1F1" height="159.7266" id="EnrollmentApprovalController" rx="2.5" ry="2.5" style="stroke:#181818;stroke-width:0.5;" width="481" x="732.5" y="189"/><ellipse cx="876.25" cy="205" fill="#ADD1B2" rx="11" ry="11" style="stroke:#181818;stroke-width:1.0;"/><path d="M879.0156,200.875 Q879.1719,200.6563 879.3594,200.5469 Q879.5469,200.4375 879.7656,200.4375 Q880.1406,200.4375 880.375,200.7031 Q880.6094,200.9531 880.6094,201.5625 L880.6094,203.0156 Q880.6094,203.625 880.375,203.8906 Q880.1406,204.1563 879.7656,204.1563 Q879.4219,204.1563 879.2188,203.9531 Q879.0156,203.7656 878.9063,203.25 Q878.8594,202.8906 878.6719,202.7031 Q878.3438,202.3281 877.7344,202.1094 Q877.125,201.8906 876.5,201.8906 Q875.7344,201.8906 875.0938,202.2188 Q874.4688,202.5469 873.9688,203.2969 Q873.4844,204.0469 873.4844,205.0781 L873.4844,206.1719 Q873.4844,207.4063 874.375,208.2344 Q875.2656,209.0469 876.8594,209.0469 Q877.7969,209.0469 878.4531,208.7969 Q878.8438,208.6406 879.2656,208.2031 Q879.5313,207.9375 879.6719,207.8594 Q879.8281,207.7813 880.0313,207.7813 Q880.3594,207.7813 880.6094,208.0469 Q880.875,208.2969 880.875,208.6406 Q880.875,208.9844 880.5313,209.3906 Q880.0313,209.9688 879.2344,210.2969 Q878.1563,210.75 876.8594,210.75 Q875.3438,210.75 874.1406,210.125 Q873.1563,209.625 872.4688,208.5625 Q871.7813,207.4844 871.7813,206.2031 L871.7813,205.0469 Q871.7813,203.7188 872.3906,202.5781 Q873.0156,201.4219 874.1094,200.8125 Q875.2031,200.1875 876.4375,200.1875 Q877.1719,200.1875 877.8125,200.3594 Q878.4688,200.5156 879.0156,200.875 Z " fill="#000000"/><text fill="#000000" font-family="FG Virgil" font-size="14" lengthAdjust="spacing" textLength="185" x="896.75" y="210.7969">EnrollmentApprovalController</text><line style="stroke:#181818;stroke-width:0.5;" x1="733.5" x2="1212.5" y1="221" y2="221"/><rect fill="none" height="6" style="stroke:#C82930;stroke-width:1.0;" width="6" x="740.5" y="232.8105"/><text fill="#000000" font-family="FG Virgil" font-size="14" lengthAdjust="spacing" textLength="347" x="752.5" y="240.1074">enrollmentApprovalService: EnrollmentApprovalService</text><rect fill="none" height="6" style="stroke:#C82930;stroke-width:1.0;" width="6" x="740.5" y="251.4316"/><text fill="#000000" font-family="FG Virgil" font-size="14" lengthAdjust="spacing" textLength="399" x="752.5" y="258.7285">enrollmentManagementService: EnrollmentManagementService</text><line style="stroke:#181818;stroke-width:0.5;" x1="733.5" x2="1212.5" y1="266.2422" y2="266.2422"/><ellipse cx="743.5" cy="281.0527" fill="#84BE84" rx="3" ry="3" style="stroke:#038048;stroke-width:1.0;"/><text fill="#000000" font-family="FG Virgil" font-size="14" lengthAdjust="spacing" textLength="84" x="752.5" y="285.3496">create(): void</text><ellipse cx="743.5" cy="299.6738" fill="#84BE84" rx="3" ry="3" style="stroke:#038048;stroke-width:1.0;"/><text fill="#000000" font-family="FG Virgil" font-size="14" lengthAdjust="spacing" textLength="423" x="752.5" y="303.9707">findEnrollmentApplicationToEvaluate(): List&lt;EnrollmentApplication&gt;</text><ellipse cx="743.5" cy="318.2949" fill="#84BE84" rx="3" ry="3" style="stroke:#038048;stroke-width:1.0;"/><text fill="#000000" font-family="FG Virgil" font-size="14" lengthAdjust="spacing" textLength="455" x="752.5" y="322.5918">saveEnrollmentApproved(enrollmentApproval: EnrollmentApproval): void</text><ellipse cx="743.5" cy="336.916" fill="#84BE84" rx="3" ry="3" style="stroke:#038048;stroke-width:1.0;"/><text fill="#000000" font-family="FG Virgil" font-size="14" lengthAdjust="spacing" textLength="439" x="752.5" y="341.2129">saveEnrollmentDenied(enrollmentApproval: EnrollmentApproval): void</text></g><!--class EnrollmentApprovalService--><g id="elem_EnrollmentApprovalService"><rect codeLine="27" fill="#F1F1F1" height="122.4844" id="EnrollmentApprovalService" rx="2.5" ry="2.5" style="stroke:#181818;stroke-width:0.5;" width="481" x="666.5" y="409"/><ellipse cx="817.75" cy="425" fill="#ADD1B2" rx="11" ry="11" style="stroke:#181818;stroke-width:1.0;"/><path d="M820.5156,420.875 Q820.6719,420.6563 820.8594,420.5469 Q821.0469,420.4375 821.2656,420.4375 Q821.6406,420.4375 821.875,420.7031 Q822.1094,420.9531 822.1094,421.5625 L822.1094,423.0156 Q822.1094,423.625 821.875,423.8906 Q821.6406,424.1563 821.2656,424.1563 Q820.9219,424.1563 820.7188,423.9531 Q820.5156,423.7656 820.4063,423.25 Q820.3594,422.8906 820.1719,422.7031 Q819.8438,422.3281 819.2344,422.1094 Q818.625,421.8906 818,421.8906 Q817.2344,421.8906 816.5938,422.2188 Q815.9688,422.5469 815.4688,423.2969 Q814.9844,424.0469 814.9844,425.0781 L814.9844,426.1719 Q814.9844,427.4063 815.875,428.2344 Q816.7656,429.0469 818.3594,429.0469 Q819.2969,429.0469 819.9531,428.7969 Q820.3438,428.6406 820.7656,428.2031 Q821.0313,427.9375 821.1719,427.8594 Q821.3281,427.7813 821.5313,427.7813 Q821.8594,427.7813 822.1094,428.0469 Q822.375,428.2969 822.375,428.6406 Q822.375,428.9844 822.0313,429.3906 Q821.5313,429.9688 820.7344,430.2969 Q819.6563,430.75 818.3594,430.75 Q816.8438,430.75 815.6406,430.125 Q814.6563,429.625 813.9688,428.5625 Q813.2813,427.4844 813.2813,426.2031 L813.2813,425.0469 Q813.2813,423.7188 813.8906,422.5781 Q814.5156,421.4219 815.6094,420.8125 Q816.7031,420.1875 817.9375,420.1875 Q818.6719,420.1875 819.3125,420.3594 Q819.9688,420.5156 820.5156,420.875 Z " fill="#000000"/><text fill="#000000" font-family="FG Virgil" font-size="14" lengthAdjust="spacing" textLength="170" x="838.25" y="430.7969">EnrollmentApprovalService</text><line style="stroke:#181818;stroke-width:0.5;" x1="667.5" x2="1146.5" y1="441" y2="441"/><rect fill="none" height="6" style="stroke:#C82930;stroke-width:1.0;" width="6" x="674.5" y="452.8105"/><text fill="#000000" font-family="FG Virgil" font-size="14" lengthAdjust="spacing" textLength="389" x="686.5" y="460.1074">enrollmentApprovalRepository: EnrollmentApprovalRepository</text><line style="stroke:#181818;stroke-width:0.5;" x1="667.5" x2="1146.5" y1="467.6211" y2="467.6211"/><ellipse cx="677.5" cy="482.4316" fill="#84BE84" rx="3" ry="3" style="stroke:#038048;stroke-width:1.0;"/><text fill="#000000" font-family="FG Virgil" font-size="14" lengthAdjust="spacing" textLength="423" x="686.5" y="486.7285">findEnrollmentApplicationToEvaluate(): List&lt;EnrollmentApplication&gt;</text><ellipse cx="677.5" cy="501.0527" fill="#84BE84" rx="3" ry="3" style="stroke:#038048;stroke-width:1.0;"/><text fill="#000000" font-family="FG Virgil" font-size="14" lengthAdjust="spacing" textLength="455" x="686.5" y="505.3496">saveEnrollmentApproved(enrollmentApproval: EnrollmentApproval): void</text><ellipse cx="677.5" cy="519.6738" fill="#84BE84" rx="3" ry="3" style="stroke:#038048;stroke-width:1.0;"/><text fill="#000000" font-family="FG Virgil" font-size="14" lengthAdjust="spacing" textLength="439" x="686.5" y="523.9707">saveEnrollmentDenied(enrollmentApproval: EnrollmentApproval): void</text></g><!--class EnrollmentManagementService--><g id="elem_EnrollmentManagementService"><rect codeLine="34" fill="#F1F1F1" height="122.4844" id="EnrollmentManagementService" rx="2.5" ry="2.5" style="stroke:#181818;stroke-width:0.5;" width="418" x="1183" y="409"/><ellipse cx="1289.75" cy="425" fill="#ADD1B2" rx="11" ry="11" style="stroke:#181818;stroke-width:1.0;"/><path d="M1292.5156,420.875 Q1292.6719,420.6563 1292.8594,420.5469 Q1293.0469,420.4375 1293.2656,420.4375 Q1293.6406,420.4375 1293.875,420.7031 Q1294.1094,420.9531 1294.1094,421.5625 L1294.1094,423.0156 Q1294.1094,423.625 1293.875,423.8906 Q1293.6406,424.1563 1293.2656,424.1563 Q1292.9219,424.1563 1292.7188,423.9531 Q1292.5156,423.7656 1292.4063,423.25 Q1292.3594,422.8906 1292.1719,422.7031 Q1291.8438,422.3281 1291.2344,422.1094 Q1290.625,421.8906 1290,421.8906 Q1289.2344,421.8906 1288.5938,422.2188 Q1287.9688,422.5469 1287.4688,423.2969 Q1286.9844,424.0469 1286.9844,425.0781 L1286.9844,426.1719 Q1286.9844,427.4063 1287.875,428.2344 Q1288.7656,429.0469 1290.3594,429.0469 Q1291.2969,429.0469 1291.9531,428.7969 Q1292.3438,428.6406 1292.7656,428.2031 Q1293.0313,427.9375 1293.1719,427.8594 Q1293.3281,427.7813 1293.5313,427.7813 Q1293.8594,427.7813 1294.1094,428.0469 Q1294.375,428.2969 1294.375,428.6406 Q1294.375,428.9844 1294.0313,429.3906 Q1293.5313,429.9688 1292.7344,430.2969 Q1291.6563,430.75 1290.3594,430.75 Q1288.8438,430.75 1287.6406,430.125 Q1286.6563,429.625 1285.9688,428.5625 Q1285.2813,427.4844 1285.2813,426.2031 L1285.2813,425.0469 Q1285.2813,423.7188 1285.8906,422.5781 Q1286.5156,421.4219 1287.6094,420.8125 Q1288.7031,420.1875 1289.9375,420.1875 Q1290.6719,420.1875 1291.3125,420.3594 Q1291.9688,420.5156 1292.5156,420.875 Z " fill="#000000"/><text fill="#000000" font-family="FG Virgil" font-size="14" lengthAdjust="spacing" textLength="196" x="1310.25" y="430.7969">EnrollmentManagementService</text><line style="stroke:#181818;stroke-width:0.5;" x1="1184" x2="1600" y1="441" y2="441"/><rect fill="none" height="6" style="stroke:#C82930;stroke-width:1.0;" width="6" x="1191" y="452.8105"/><text fill="#000000" font-family="FG Virgil" font-size="14" lengthAdjust="spacing" textLength="277" x="1203" y="460.1074">enrollmentRepository: EnrollmentRepository</text><rect fill="none" height="6" style="stroke:#C82930;stroke-width:1.0;" width="6" x="1191" y="471.4316"/><text fill="#000000" font-family="FG Virgil" font-size="14" lengthAdjust="spacing" textLength="240" x="1203" y="478.7285">studentRepository: StudentRepository</text><rect fill="none" height="6" style="stroke:#C82930;stroke-width:1.0;" width="6" x="1191" y="490.0527"/><text fill="#000000" font-family="FG Virgil" font-size="14" lengthAdjust="spacing" textLength="233" x="1203" y="497.3496">courseRepository: CourseRepository</text><line style="stroke:#181818;stroke-width:0.5;" x1="1184" x2="1600" y1="504.8633" y2="504.8633"/><ellipse cx="1194" cy="519.6738" fill="#84BE84" rx="3" ry="3" style="stroke:#038048;stroke-width:1.0;"/><text fill="#000000" font-family="FG Virgil" font-size="14" lengthAdjust="spacing" textLength="392" x="1203" y="523.9707">updateEnrollment(enrollment: Enrollment, answer: string): void</text></g><!--class EnrollmentApprovalRepository--><g id="elem_EnrollmentApprovalRepository"><rect codeLine="41" fill="#F1F1F1" height="85.2422" id="EnrollmentApprovalRepository" rx="2.5" ry="2.5" style="stroke:#181818;stroke-width:0.5;" width="449" x="1607.5" y="900"/><ellipse cx="1732.75" cy="916" fill="#B4A7E5" rx="11" ry="11" style="stroke:#181818;stroke-width:1.0;"/><path d="M1733.7031,912.6406 L1733.7031,919.2969 L1735.4219,919.2969 Q1736.0313,919.2969 1736.2969,919.5313 Q1736.5625,919.7656 1736.5625,920.1563 Q1736.5625,920.5313 1736.2969,920.7656 Q1736.0313,921 1735.4219,921 L1730.2813,921 Q1729.6719,921 1729.4063,920.7656 Q1729.1406,920.5313 1729.1406,920.1406 Q1729.1406,919.7656 1729.4063,919.5313 Q1729.6719,919.2969 1730.2813,919.2969 L1732,919.2969 L1732,912.6406 L1730.2813,912.6406 Q1729.6719,912.6406 1729.4063,912.4063 Q1729.1406,912.1719 1729.1406,911.7813 Q1729.1406,911.4063 1729.4063,911.1719 Q1729.6719,910.9375 1730.2813,910.9375 L1735.4219,910.9375 Q1736.0313,910.9375 1736.2969,911.1719 Q1736.5625,911.4063 1736.5625,911.7813 Q1736.5625,912.1719 1736.2969,912.4063 Q1736.0313,912.6406 1735.4219,912.6406 L1733.7031,912.6406 Z " fill="#000000"/><text fill="#000000" font-family="FG Virgil" font-size="14" font-style="italic" lengthAdjust="spacing" textLength="190" x="1753.25" y="921.7969">EnrollmentApprovalRepository</text><line style="stroke:#181818;stroke-width:0.5;" x1="1608.5" x2="2055.5" y1="932" y2="932"/><line style="stroke:#181818;stroke-width:0.5;" x1="1608.5" x2="2055.5" y1="940" y2="940"/><ellipse cx="1618.5" cy="954.8105" fill="#84BE84" rx="3" ry="3" style="stroke:#038048;stroke-width:1.0;"/><text fill="#000000" font-family="FG Virgil" font-size="14" lengthAdjust="spacing" textLength="423" x="1627.5" y="959.1074">findEnrollmentApplicationToEvaluate(): List&lt;EnrollmentApplication&gt;</text><ellipse cx="1618.5" cy="973.4316" fill="#84BE84" rx="3" ry="3" style="stroke:#038048;stroke-width:1.0;"/><text fill="#000000" font-family="FG Virgil" font-size="14" lengthAdjust="spacing" textLength="327" x="1627.5" y="977.7285">save(enrollmentApproval: EnrollmentApproval): void</text></g><!--class JpaEnrollmentApprovalRepository--><g id="elem_JpaEnrollmentApprovalRepository"><rect codeLine="45" fill="#F1F1F1" height="85.2422" id="JpaEnrollmentApprovalRepository" rx="2.5" ry="2.5" style="stroke:#181818;stroke-width:0.5;" width="449" x="1607.5" y="1045"/><ellipse cx="1721.25" cy="1061" fill="#ADD1B2" rx="11" ry="11" style="stroke:#181818;stroke-width:1.0;"/><path d="M1724.0156,1056.875 Q1724.1719,1056.6563 1724.3594,1056.5469 Q1724.5469,1056.4375 1724.7656,1056.4375 Q1725.1406,1056.4375 1725.375,1056.7031 Q1725.6094,1056.9531 1725.6094,1057.5625 L1725.6094,1059.0156 Q1725.6094,1059.625 1725.375,1059.8906 Q1725.1406,1060.1563 1724.7656,1060.1563 Q1724.4219,1060.1563 1724.2188,1059.9531 Q1724.0156,1059.7656 1723.9063,1059.25 Q1723.8594,1058.8906 1723.6719,1058.7031 Q1723.3438,1058.3281 1722.7344,1058.1094 Q1722.125,1057.8906 1721.5,1057.8906 Q1720.7344,1057.8906 1720.0938,1058.2188 Q1719.4688,1058.5469 1718.9688,1059.2969 Q1718.4844,1060.0469 1718.4844,1061.0781 L1718.4844,1062.1719 Q1718.4844,1063.4063 1719.375,1064.2344 Q1720.2656,1065.0469 1721.8594,1065.0469 Q1722.7969,1065.0469 1723.4531,1064.7969 Q1723.8438,1064.6406 1724.2656,1064.2031 Q1724.5313,1063.9375 1724.6719,1063.8594 Q1724.8281,1063.7813 1725.0313,1063.7813 Q1725.3594,1063.7813 1725.6094,1064.0469 Q1725.875,1064.2969 1725.875,1064.6406 Q1725.875,1064.9844 1725.5313,1065.3906 Q1725.0313,1065.9688 1724.2344,1066.2969 Q1723.1563,1066.75 1721.8594,1066.75 Q1720.3438,1066.75 1719.1406,1066.125 Q1718.1563,1065.625 1717.4688,1064.5625 Q1716.7813,1063.4844 1716.7813,1062.2031 L1716.7813,1061.0469 Q1716.7813,1059.7188 1717.3906,1058.5781 Q1718.0156,1057.4219 1719.1094,1056.8125 Q1720.2031,1056.1875 1721.4375,1056.1875 Q1722.1719,1056.1875 1722.8125,1056.3594 Q1723.4688,1056.5156 1724.0156,1056.875 Z " fill="#000000"/><text fill="#000000" font-family="FG Virgil" font-size="14" lengthAdjust="spacing" textLength="213" x="1741.75" y="1066.7969">JpaEnrollmentApprovalRepository</text><line style="stroke:#181818;stroke-width:0.5;" x1="1608.5" x2="2055.5" y1="1077" y2="1077"/><line style="stroke:#181818;stroke-width:0.5;" x1="1608.5" x2="2055.5" y1="1085" y2="1085"/><ellipse cx="1618.5" cy="1099.8105" fill="#84BE84" rx="3" ry="3" style="stroke:#038048;stroke-width:1.0;"/><text fill="#000000" font-family="FG Virgil" font-size="14" lengthAdjust="spacing" textLength="423" x="1627.5" y="1104.1074">findEnrollmentApplicationToEvaluate(): List&lt;EnrollmentApplication&gt;</text><ellipse cx="1618.5" cy="1118.4316" fill="#84BE84" rx="3" ry="3" style="stroke:#038048;stroke-width:1.0;"/><text fill="#000000" font-family="FG Virgil" font-size="14" lengthAdjust="spacing" textLength="327" x="1627.5" y="1122.7285">save(enrollmentApproval: EnrollmentApproval): void</text></g><!--class EnrollmentRepository--><g id="elem_EnrollmentRepository"><rect codeLine="52" fill="#F1F1F1" height="66.6211" id="EnrollmentRepository" rx="2.5" ry="2.5" style="stroke:#181818;stroke-width:0.5;" width="241" x="1331.5" y="909"/><ellipse cx="1380.25" cy="925" fill="#B4A7E5" rx="11" ry="11" style="stroke:#181818;stroke-width:1.0;"/><path d="M1381.2031,921.6406 L1381.2031,928.2969 L1382.9219,928.2969 Q1383.5313,928.2969 1383.7969,928.5313 Q1384.0625,928.7656 1384.0625,929.1563 Q1384.0625,929.5313 1383.7969,929.7656 Q1383.5313,930 1382.9219,930 L1377.7813,930 Q1377.1719,930 1376.9063,929.7656 Q1376.6406,929.5313 1376.6406,929.1406 Q1376.6406,928.7656 1376.9063,928.5313 Q1377.1719,928.2969 1377.7813,928.2969 L1379.5,928.2969 L1379.5,921.6406 L1377.7813,921.6406 Q1377.1719,921.6406 1376.9063,921.4063 Q1376.6406,921.1719 1376.6406,920.7813 Q1376.6406,920.4063 1376.9063,920.1719 Q1377.1719,919.9375 1377.7813,919.9375 L1382.9219,919.9375 Q1383.5313,919.9375 1383.7969,920.1719 Q1384.0625,920.4063 1384.0625,920.7813 Q1384.0625,921.1719 1383.7969,921.4063 Q1383.5313,921.6406 1382.9219,921.6406 L1381.2031,921.6406 Z " fill="#000000"/><text fill="#000000" font-family="FG Virgil" font-size="14" font-style="italic" lengthAdjust="spacing" textLength="135" x="1400.75" y="930.7969">EnrollmentRepository</text><line style="stroke:#181818;stroke-width:0.5;" x1="1332.5" x2="1571.5" y1="941" y2="941"/><line style="stroke:#181818;stroke-width:0.5;" x1="1332.5" x2="1571.5" y1="949" y2="949"/><ellipse cx="1342.5" cy="963.8105" fill="#84BE84" rx="3" ry="3" style="stroke:#038048;stroke-width:1.0;"/><text fill="#000000" font-family="FG Virgil" font-size="14" lengthAdjust="spacing" textLength="215" x="1351.5" y="968.1074">save(enrollment: Enrollment): void</text></g><!--class JpaEnrollmentRepository--><g id="elem_JpaEnrollmentRepository"><rect codeLine="55" fill="#F1F1F1" height="66.6211" id="JpaEnrollmentRepository" rx="2.5" ry="2.5" style="stroke:#181818;stroke-width:0.5;" width="241" x="1331.5" y="1054"/><ellipse cx="1369.9" cy="1070" fill="#ADD1B2" rx="11" ry="11" style="stroke:#181818;stroke-width:1.0;"/><path d="M1372.6656,1065.875 Q1372.8219,1065.6563 1373.0094,1065.5469 Q1373.1969,1065.4375 1373.4156,1065.4375 Q1373.7906,1065.4375 1374.025,1065.7031 Q1374.2594,1065.9531 1374.2594,1066.5625 L1374.2594,1068.0156 Q1374.2594,1068.625 1374.025,1068.8906 Q1373.7906,1069.1563 1373.4156,1069.1563 Q1373.0719,1069.1563 1372.8688,1068.9531 Q1372.6656,1068.7656 1372.5563,1068.25 Q1372.5094,1067.8906 1372.3219,1067.7031 Q1371.9938,1067.3281 1371.3844,1067.1094 Q1370.775,1066.8906 1370.15,1066.8906 Q1369.3844,1066.8906 1368.7438,1067.2188 Q1368.1188,1067.5469 1367.6188,1068.2969 Q1367.1344,1069.0469 1367.1344,1070.0781 L1367.1344,1071.1719 Q1367.1344,1072.4063 1368.025,1073.2344 Q1368.9156,1074.0469 1370.5094,1074.0469 Q1371.4469,1074.0469 1372.1031,1073.7969 Q1372.4938,1073.6406 1372.9156,1073.2031 Q1373.1813,1072.9375 1373.3219,1072.8594 Q1373.4781,1072.7813 1373.6813,1072.7813 Q1374.0094,1072.7813 1374.2594,1073.0469 Q1374.525,1073.2969 1374.525,1073.6406 Q1374.525,1073.9844 1374.1813,1074.3906 Q1373.6813,1074.9688 1372.8844,1075.2969 Q1371.8063,1075.75 1370.5094,1075.75 Q1368.9938,1075.75 1367.7906,1075.125 Q1366.8063,1074.625 1366.1188,1073.5625 Q1365.4313,1072.4844 1365.4313,1071.2031 L1365.4313,1070.0469 Q1365.4313,1068.7188 1366.0406,1067.5781 Q1366.6656,1066.4219 1367.7594,1065.8125 Q1368.8531,1065.1875 1370.0875,1065.1875 Q1370.8219,1065.1875 1371.4625,1065.3594 Q1372.1188,1065.5156 1372.6656,1065.875 Z " fill="#000000"/><text fill="#000000" font-family="FG Virgil" font-size="14" lengthAdjust="spacing" textLength="157" x="1389.1" y="1075.7969">JpaEnrollmentRepository</text><line style="stroke:#181818;stroke-width:0.5;" x1="1332.5" x2="1571.5" y1="1086" y2="1086"/><line style="stroke:#181818;stroke-width:0.5;" x1="1332.5" x2="1571.5" y1="1094" y2="1094"/><ellipse cx="1342.5" cy="1108.8105" fill="#84BE84" rx="3" ry="3" style="stroke:#038048;stroke-width:1.0;"/><text fill="#000000" font-family="FG Virgil" font-size="14" lengthAdjust="spacing" textLength="215" x="1351.5" y="1113.1074">save(enrollment: Enrollment): void</text></g><!--class StudentRepository--><g id="elem_StudentRepository"><rect codeLine="61" fill="#F1F1F1" height="66.6211" id="StudentRepository" rx="2.5" ry="2.5" style="stroke:#181818;stroke-width:0.5;" width="204" x="1092" y="909"/><ellipse cx="1131.75" cy="925" fill="#B4A7E5" rx="11" ry="11" style="stroke:#181818;stroke-width:1.0;"/><path d="M1132.7031,921.6406 L1132.7031,928.2969 L1134.4219,928.2969 Q1135.0313,928.2969 1135.2969,928.5313 Q1135.5625,928.7656 1135.5625,929.1563 Q1135.5625,929.5313 1135.2969,929.7656 Q1135.0313,930 1134.4219,930 L1129.2813,930 Q1128.6719,930 1128.4063,929.7656 Q1128.1406,929.5313 1128.1406,929.1406 Q1128.1406,928.7656 1128.4063,928.5313 Q1128.6719,928.2969 1129.2813,928.2969 L1131,928.2969 L1131,921.6406 L1129.2813,921.6406 Q1128.6719,921.6406 1128.4063,921.4063 Q1128.1406,921.1719 1128.1406,920.7813 Q1128.1406,920.4063 1128.4063,920.1719 Q1128.6719,919.9375 1129.2813,919.9375 L1134.4219,919.9375 Q1135.0313,919.9375 1135.2969,920.1719 Q1135.5625,920.4063 1135.5625,920.7813 Q1135.5625,921.1719 1135.2969,921.4063 Q1135.0313,921.6406 1134.4219,921.6406 L1132.7031,921.6406 Z " fill="#000000"/><text fill="#000000" font-family="FG Virgil" font-size="14" font-style="italic" lengthAdjust="spacing" textLength="117" x="1151.25" y="930.7969">StudentRepository</text><line style="stroke:#181818;stroke-width:0.5;" x1="1093" x2="1295" y1="941" y2="941"/><line style="stroke:#181818;stroke-width:0.5;" x1="1093" x2="1295" y1="949" y2="949"/><ellipse cx="1103" cy="963.8105" fill="#84BE84" rx="3" ry="3" style="stroke:#038048;stroke-width:1.0;"/><text fill="#000000" font-family="FG Virgil" font-size="14" lengthAdjust="spacing" textLength="178" x="1112" y="968.1074">save(student: Student): void</text></g><!--class JpaStudentRepository--><g id="elem_JpaStudentRepository"><rect fill="#F1F1F1" height="48" id="JpaStudentRepository" rx="2.5" ry="2.5" style="stroke:#181818;stroke-width:0.5;" width="171" x="1108.5" y="1063.5"/><ellipse cx="1123.5" cy="1079.5" fill="#ADD1B2" rx="11" ry="11" style="stroke:#181818;stroke-width:1.0;"/><path d="M1126.2656,1075.375 Q1126.4219,1075.1563 1126.6094,1075.0469 Q1126.7969,1074.9375 1127.0156,1074.9375 Q1127.3906,1074.9375 1127.625,1075.2031 Q1127.8594,1075.4531 1127.8594,1076.0625 L1127.8594,1077.5156 Q1127.8594,1078.125 1127.625,1078.3906 Q1127.3906,1078.6563 1127.0156,1078.6563 Q1126.6719,1078.6563 1126.4688,1078.4531 Q1126.2656,1078.2656 1126.1563,1077.75 Q1126.1094,1077.3906 1125.9219,1077.2031 Q1125.5938,1076.8281 1124.9844,1076.6094 Q1124.375,1076.3906 1123.75,1076.3906 Q1122.9844,1076.3906 1122.3438,1076.7188 Q1121.7188,1077.0469 1121.2188,1077.7969 Q1120.7344,1078.5469 1120.7344,1079.5781 L1120.7344,1080.6719 Q1120.7344,1081.9063 1121.625,1082.7344 Q1122.5156,1083.5469 1124.1094,1083.5469 Q1125.0469,1083.5469 1125.7031,1083.2969 Q1126.0938,1083.1406 1126.5156,1082.7031 Q1126.7813,1082.4375 1126.9219,1082.3594 Q1127.0781,1082.2813 1127.2813,1082.2813 Q1127.6094,1082.2813 1127.8594,1082.5469 Q1128.125,1082.7969 1128.125,1083.1406 Q1128.125,1083.4844 1127.7813,1083.8906 Q1127.2813,1084.4688 1126.4844,1084.7969 Q1125.4063,1085.25 1124.1094,1085.25 Q1122.5938,1085.25 1121.3906,1084.625 Q1120.4063,1084.125 1119.7188,1083.0625 Q1119.0313,1081.9844 1119.0313,1080.7031 L1119.0313,1079.5469 Q1119.0313,1078.2188 1119.6406,1077.0781 Q1120.2656,1075.9219 1121.3594,1075.3125 Q1122.4531,1074.6875 1123.6875,1074.6875 Q1124.4219,1074.6875 1125.0625,1074.8594 Q1125.7188,1075.0156 1126.2656,1075.375 Z " fill="#000000"/><text fill="#000000" font-family="FG Virgil" font-size="14" lengthAdjust="spacing" textLength="139" x="1137.5" y="1085.2969">JpaStudentRepository</text><line style="stroke:#181818;stroke-width:0.5;" x1="1109.5" x2="1278.5" y1="1095.5" y2="1095.5"/><line style="stroke:#181818;stroke-width:0.5;" x1="1109.5" x2="1278.5" y1="1103.5" y2="1103.5"/></g><!--class CourseRepository--><g id="elem_CourseRepository"><rect codeLine="66" fill="#F1F1F1" height="66.6211" id="CourseRepository" rx="2.5" ry="2.5" style="stroke:#181818;stroke-width:0.5;" width="197" x="859.5" y="909"/><ellipse cx="897.45" cy="925" fill="#B4A7E5" rx="11" ry="11" style="stroke:#181818;stroke-width:1.0;"/><path d="M898.4031,921.6406 L898.4031,928.2969 L900.1219,928.2969 Q900.7313,928.2969 900.9969,928.5313 Q901.2625,928.7656 901.2625,929.1563 Q901.2625,929.5313 900.9969,929.7656 Q900.7313,930 900.1219,930 L894.9813,930 Q894.3719,930 894.1063,929.7656 Q893.8406,929.5313 893.8406,929.1406 Q893.8406,928.7656 894.1063,928.5313 Q894.3719,928.2969 894.9813,928.2969 L896.7,928.2969 L896.7,921.6406 L894.9813,921.6406 Q894.3719,921.6406 894.1063,921.4063 Q893.8406,921.1719 893.8406,920.7813 Q893.8406,920.4063 894.1063,920.1719 Q894.3719,919.9375 894.9813,919.9375 L900.1219,919.9375 Q900.7313,919.9375 900.9969,920.1719 Q901.2625,920.4063 901.2625,920.7813 Q901.2625,921.1719 900.9969,921.4063 Q900.7313,921.6406 900.1219,921.6406 L898.4031,921.6406 Z " fill="#000000"/><text fill="#000000" font-family="FG Virgil" font-size="14" font-style="italic" lengthAdjust="spacing" textLength="114" x="916.55" y="930.7969">CourseRepository</text><line style="stroke:#181818;stroke-width:0.5;" x1="860.5" x2="1055.5" y1="941" y2="941"/><line style="stroke:#181818;stroke-width:0.5;" x1="860.5" x2="1055.5" y1="949" y2="949"/><ellipse cx="870.5" cy="963.8105" fill="#84BE84" rx="3" ry="3" style="stroke:#038048;stroke-width:1.0;"/><text fill="#000000" font-family="FG Virgil" font-size="14" lengthAdjust="spacing" textLength="171" x="879.5" y="968.1074">save(course: Course): void</text></g><!--class JpaCourseRepository--><g id="elem_JpaCourseRepository"><rect fill="#F1F1F1" height="48" id="JpaCourseRepository" rx="2.5" ry="2.5" style="stroke:#181818;stroke-width:0.5;" width="168" x="874" y="1063.5"/><ellipse cx="889" cy="1079.5" fill="#ADD1B2" rx="11" ry="11" style="stroke:#181818;stroke-width:1.0;"/><path d="M891.7656,1075.375 Q891.9219,1075.1563 892.1094,1075.0469 Q892.2969,1074.9375 892.5156,1074.9375 Q892.8906,1074.9375 893.125,1075.2031 Q893.3594,1075.4531 893.3594,1076.0625 L893.3594,1077.5156 Q893.3594,1078.125 893.125,1078.3906 Q892.8906,1078.6563 892.5156,1078.6563 Q892.1719,1078.6563 891.9688,1078.4531 Q891.7656,1078.2656 891.6563,1077.75 Q891.6094,1077.3906 891.4219,1077.2031 Q891.0938,1076.8281 890.4844,1076.6094 Q889.875,1076.3906 889.25,1076.3906 Q888.4844,1076.3906 887.8438,1076.7188 Q887.2188,1077.0469 886.7188,1077.7969 Q886.2344,1078.5469 886.2344,1079.5781 L886.2344,1080.6719 Q886.2344,1081.9063 887.125,1082.7344 Q888.0156,1083.5469 889.6094,1083.5469 Q890.5469,1083.5469 891.2031,1083.2969 Q891.5938,1083.1406 892.0156,1082.7031 Q892.2813,1082.4375 892.4219,1082.3594 Q892.5781,1082.2813 892.7813,1082.2813 Q893.1094,1082.2813 893.3594,1082.5469 Q893.625,1082.7969 893.625,1083.1406 Q893.625,1083.4844 893.2813,1083.8906 Q892.7813,1084.4688 891.9844,1084.7969 Q890.9063,1085.25 889.6094,1085.25 Q888.0938,1085.25 886.8906,1084.625 Q885.9063,1084.125 885.2188,1083.0625 Q884.5313,1081.9844 884.5313,1080.7031 L884.5313,1079.5469 Q884.5313,1078.2188 885.1406,1077.0781 Q885.7656,1075.9219 886.8594,1075.3125 Q887.9531,1074.6875 889.1875,1074.6875 Q889.9219,1074.6875 890.5625,1074.8594 Q891.2188,1075.0156 891.7656,1075.375 Z " fill="#000000"/><text fill="#000000" font-family="FG Virgil" font-size="14" lengthAdjust="spacing" textLength="136" x="903" y="1085.2969">JpaCourseRepository</text><line style="stroke:#181818;stroke-width:0.5;" x1="875" x2="1041" y1="1095.5" y2="1095.5"/><line style="stroke:#181818;stroke-width:0.5;" x1="875" x2="1041" y1="1103.5" y2="1103.5"/></g><!--class EnrollmentApprovalBuilder--><g id="elem_EnrollmentApprovalBuilder"><rect codeLine="71" fill="#F1F1F1" height="66.6211" id="EnrollmentApprovalBuilder" rx="2.5" ry="2.5" style="stroke:#181818;stroke-width:0.5;" width="690" x="7" y="235.5"/><ellipse cx="264.25" cy="251.5" fill="#ADD1B2" rx="11" ry="11" style="stroke:#181818;stroke-width:1.0;"/><path d="M267.0156,247.375 Q267.1719,247.1563 267.3594,247.0469 Q267.5469,246.9375 267.7656,246.9375 Q268.1406,246.9375 268.375,247.2031 Q268.6094,247.4531 268.6094,248.0625 L268.6094,249.5156 Q268.6094,250.125 268.375,250.3906 Q268.1406,250.6563 267.7656,250.6563 Q267.4219,250.6563 267.2188,250.4531 Q267.0156,250.2656 266.9063,249.75 Q266.8594,249.3906 266.6719,249.2031 Q266.3438,248.8281 265.7344,248.6094 Q265.125,248.3906 264.5,248.3906 Q263.7344,248.3906 263.0938,248.7188 Q262.4688,249.0469 261.9688,249.7969 Q261.4844,250.5469 261.4844,251.5781 L261.4844,252.6719 Q261.4844,253.9063 262.375,254.7344 Q263.2656,255.5469 264.8594,255.5469 Q265.7969,255.5469 266.4531,255.2969 Q266.8438,255.1406 267.2656,254.7031 Q267.5313,254.4375 267.6719,254.3594 Q267.8281,254.2813 268.0313,254.2813 Q268.3594,254.2813 268.6094,254.5469 Q268.875,254.7969 268.875,255.1406 Q268.875,255.4844 268.5313,255.8906 Q268.0313,256.4688 267.2344,256.7969 Q266.1563,257.25 264.8594,257.25 Q263.3438,257.25 262.1406,256.625 Q261.1563,256.125 260.4688,255.0625 Q259.7813,253.9844 259.7813,252.7031 L259.7813,251.5469 Q259.7813,250.2188 260.3906,249.0781 Q261.0156,247.9219 262.1094,247.3125 Q263.2031,246.6875 264.4375,246.6875 Q265.1719,246.6875 265.8125,246.8594 Q266.4688,247.0156 267.0156,247.375 Z " fill="#000000"/><text fill="#000000" font-family="FG Virgil" font-size="14" lengthAdjust="spacing" textLength="167" x="284.75" y="257.2969">EnrollmentApprovalBuilder</text><line style="stroke:#181818;stroke-width:0.5;" x1="8" x2="696" y1="267.5" y2="267.5"/><line style="stroke:#181818;stroke-width:0.5;" x1="8" x2="696" y1="275.5" y2="275.5"/><ellipse cx="18" cy="290.3105" fill="#84BE84" rx="3" ry="3" style="stroke:#038048;stroke-width:1.0;"/><text fill="#000000" font-family="FG Virgil" font-size="14" lengthAdjust="spacing" textLength="664" x="27" y="294.6074">createEnrollmentApproval(explanation: string, enrollment: Enrollment, answer: string): EnrollmentApproval</text></g><!--class Course--><g id="elem_Course"><rect codeLine="75" fill="#F1F1F1" height="85.2422" id="Course" rx="2.5" ry="2.5" style="stroke:#181818;stroke-width:0.5;" width="104" x="855" y="600.5"/><ellipse cx="881.7" cy="616.5" fill="#ADD1B2" rx="11" ry="11" style="stroke:#181818;stroke-width:1.0;"/><path d="M884.4656,612.375 Q884.6219,612.1563 884.8094,612.0469 Q884.9969,611.9375 885.2156,611.9375 Q885.5906,611.9375 885.825,612.2031 Q886.0594,612.4531 886.0594,613.0625 L886.0594,614.5156 Q886.0594,615.125 885.825,615.3906 Q885.5906,615.6563 885.2156,615.6563 Q884.8719,615.6563 884.6688,615.4531 Q884.4656,615.2656 884.3563,614.75 Q884.3094,614.3906 884.1219,614.2031 Q883.7938,613.8281 883.1844,613.6094 Q882.575,613.3906 881.95,613.3906 Q881.1844,613.3906 880.5438,613.7188 Q879.9188,614.0469 879.4188,614.7969 Q878.9344,615.5469 878.9344,616.5781 L878.9344,617.6719 Q878.9344,618.9063 879.825,619.7344 Q880.7156,620.5469 882.3094,620.5469 Q883.2469,620.5469 883.9031,620.2969 Q884.2938,620.1406 884.7156,619.7031 Q884.9813,619.4375 885.1219,619.3594 Q885.2781,619.2813 885.4813,619.2813 Q885.8094,619.2813 886.0594,619.5469 Q886.325,619.7969 886.325,620.1406 Q886.325,620.4844 885.9813,620.8906 Q885.4813,621.4688 884.6844,621.7969 Q883.6063,622.25 882.3094,622.25 Q880.7938,622.25 879.5906,621.625 Q878.6063,621.125 877.9188,620.0625 Q877.2313,618.9844 877.2313,617.7031 L877.2313,616.5469 Q877.2313,615.2188 877.8406,614.0781 Q878.4656,612.9219 879.5594,612.3125 Q880.6531,611.6875 881.8875,611.6875 Q882.6219,611.6875 883.2625,611.8594 Q883.9188,612.0156 884.4656,612.375 Z " fill="#000000"/><text fill="#000000" font-family="FG Virgil" font-size="14" lengthAdjust="spacing" textLength="46" x="898.3" y="622.2969">Course</text><line style="stroke:#181818;stroke-width:0.5;" x1="856" x2="958" y1="632.5" y2="632.5"/><rect fill="none" height="6" style="stroke:#C82930;stroke-width:1.0;" width="6" x="863" y="644.3105"/><text fill="#000000" font-family="FG Virgil" font-size="14" lengthAdjust="spacing" textLength="34" x="875" y="651.6074">id: int</text><rect fill="none" height="6" style="stroke:#C82930;stroke-width:1.0;" width="6" x="863" y="662.9316"/><text fill="#000000" font-family="FG Virgil" font-size="14" lengthAdjust="spacing" textLength="78" x="875" y="670.2285">name: string</text><line style="stroke:#181818;stroke-width:0.5;" x1="856" x2="958" y1="677.7422" y2="677.7422"/></g><!--class Enrollment--><g id="elem_Enrollment"><rect codeLine="80" fill="#F1F1F1" height="103.8633" id="Enrollment" rx="2.5" ry="2.5" style="stroke:#181818;stroke-width:0.5;" width="130" x="994" y="591"/><ellipse cx="1022.95" cy="607" fill="#ADD1B2" rx="11" ry="11" style="stroke:#181818;stroke-width:1.0;"/><path d="M1025.7156,602.875 Q1025.8719,602.6563 1026.0594,602.5469 Q1026.2469,602.4375 1026.4656,602.4375 Q1026.8406,602.4375 1027.075,602.7031 Q1027.3094,602.9531 1027.3094,603.5625 L1027.3094,605.0156 Q1027.3094,605.625 1027.075,605.8906 Q1026.8406,606.1563 1026.4656,606.1563 Q1026.1219,606.1563 1025.9188,605.9531 Q1025.7156,605.7656 1025.6063,605.25 Q1025.5594,604.8906 1025.3719,604.7031 Q1025.0438,604.3281 1024.4344,604.1094 Q1023.825,603.8906 1023.2,603.8906 Q1022.4344,603.8906 1021.7938,604.2188 Q1021.1688,604.5469 1020.6688,605.2969 Q1020.1844,606.0469 1020.1844,607.0781 L1020.1844,608.1719 Q1020.1844,609.4063 1021.075,610.2344 Q1021.9656,611.0469 1023.5594,611.0469 Q1024.4969,611.0469 1025.1531,610.7969 Q1025.5438,610.6406 1025.9656,610.2031 Q1026.2313,609.9375 1026.3719,609.8594 Q1026.5281,609.7813 1026.7313,609.7813 Q1027.0594,609.7813 1027.3094,610.0469 Q1027.575,610.2969 1027.575,610.6406 Q1027.575,610.9844 1027.2313,611.3906 Q1026.7313,611.9688 1025.9344,612.2969 Q1024.8563,612.75 1023.5594,612.75 Q1022.0438,612.75 1020.8406,612.125 Q1019.8563,611.625 1019.1688,610.5625 Q1018.4813,609.4844 1018.4813,608.2031 L1018.4813,607.0469 Q1018.4813,605.7188 1019.0906,604.5781 Q1019.7156,603.4219 1020.8094,602.8125 Q1021.9031,602.1875 1023.1375,602.1875 Q1023.8719,602.1875 1024.5125,602.3594 Q1025.1688,602.5156 1025.7156,602.875 Z " fill="#000000"/><text fill="#000000" font-family="FG Virgil" font-size="14" lengthAdjust="spacing" textLength="67" x="1040.05" y="612.7969">Enrollment</text><line style="stroke:#181818;stroke-width:0.5;" x1="995" x2="1123" y1="623" y2="623"/><rect fill="none" height="6" style="stroke:#C82930;stroke-width:1.0;" width="6" x="1002" y="634.8105"/><text fill="#000000" font-family="FG Virgil" font-size="14" lengthAdjust="spacing" textLength="34" x="1014" y="642.1074">id: int</text><rect fill="none" height="6" style="stroke:#C82930;stroke-width:1.0;" width="6" x="1002" y="653.4316"/><text fill="#000000" font-family="FG Virgil" font-size="14" lengthAdjust="spacing" textLength="104" x="1014" y="660.7285">student: Student</text><rect fill="none" height="6" style="stroke:#C82930;stroke-width:1.0;" width="6" x="1002" y="672.0527"/><text fill="#000000" font-family="FG Virgil" font-size="14" lengthAdjust="spacing" textLength="97" x="1014" y="679.3496">course: Course</text><line style="stroke:#181818;stroke-width:0.5;" x1="995" x2="1123" y1="686.8633" y2="686.8633"/></g><!--class EnrollmentApproval--><g id="elem_EnrollmentApproval"><rect codeLine="86" fill="#F1F1F1" height="122.4844" id="EnrollmentApproval" rx="2.5" ry="2.5" style="stroke:#181818;stroke-width:0.5;" width="167" x="399.5" y="409"/><ellipse cx="419.9" cy="425" fill="#ADD1B2" rx="11" ry="11" style="stroke:#181818;stroke-width:1.0;"/><path d="M422.6656,420.875 Q422.8219,420.6563 423.0094,420.5469 Q423.1969,420.4375 423.4156,420.4375 Q423.7906,420.4375 424.025,420.7031 Q424.2594,420.9531 424.2594,421.5625 L424.2594,423.0156 Q424.2594,423.625 424.025,423.8906 Q423.7906,424.1563 423.4156,424.1563 Q423.0719,424.1563 422.8688,423.9531 Q422.6656,423.7656 422.5563,423.25 Q422.5094,422.8906 422.3219,422.7031 Q421.9938,422.3281 421.3844,422.1094 Q420.775,421.8906 420.15,421.8906 Q419.3844,421.8906 418.7438,422.2188 Q418.1188,422.5469 417.6188,423.2969 Q417.1344,424.0469 417.1344,425.0781 L417.1344,426.1719 Q417.1344,427.4063 418.025,428.2344 Q418.9156,429.0469 420.5094,429.0469 Q421.4469,429.0469 422.1031,428.7969 Q422.4938,428.6406 422.9156,428.2031 Q423.1813,427.9375 423.3219,427.8594 Q423.4781,427.7813 423.6813,427.7813 Q424.0094,427.7813 424.2594,428.0469 Q424.525,428.2969 424.525,428.6406 Q424.525,428.9844 424.1813,429.3906 Q423.6813,429.9688 422.8844,430.2969 Q421.8063,430.75 420.5094,430.75 Q418.9938,430.75 417.7906,430.125 Q416.8063,429.625 416.1188,428.5625 Q415.4313,427.4844 415.4313,426.2031 L415.4313,425.0469 Q415.4313,423.7188 416.0406,422.5781 Q416.6656,421.4219 417.7594,420.8125 Q418.8531,420.1875 420.0875,420.1875 Q420.8219,420.1875 421.4625,420.3594 Q422.1188,420.5156 422.6656,420.875 Z " fill="#000000"/><text fill="#000000" font-family="FG Virgil" font-size="14" lengthAdjust="spacing" textLength="123" x="435.1" y="430.7969">EnrollmentApproval</text><line style="stroke:#181818;stroke-width:0.5;" x1="400.5" x2="565.5" y1="441" y2="441"/><rect fill="none" height="6" style="stroke:#C82930;stroke-width:1.0;" width="6" x="407.5" y="452.8105"/><text fill="#000000" font-family="FG Virgil" font-size="14" lengthAdjust="spacing" textLength="34" x="419.5" y="460.1074">id: int</text><rect fill="none" height="6" style="stroke:#C82930;stroke-width:1.0;" width="6" x="407.5" y="471.4316"/><text fill="#000000" font-family="FG Virgil" font-size="14" lengthAdjust="spacing" textLength="141" x="419.5" y="478.7285">enrollment: Enrollment</text><rect fill="none" height="6" style="stroke:#C82930;stroke-width:1.0;" width="6" x="407.5" y="490.0527"/><text fill="#000000" font-family="FG Virgil" font-size="14" lengthAdjust="spacing" textLength="88" x="419.5" y="497.3496">answer: string</text><rect fill="none" height="6" style="stroke:#C82930;stroke-width:1.0;" width="6" x="407.5" y="508.6738"/><text fill="#000000" font-family="FG Virgil" font-size="14" lengthAdjust="spacing" textLength="115" x="419.5" y="515.9707">explanation: string</text><line style="stroke:#181818;stroke-width:0.5;" x1="400.5" x2="565.5" y1="523.4844" y2="523.4844"/></g><!--class PersistenceContext--><g id="elem_PersistenceContext"><rect codeLine="93" fill="#F1F1F1" height="66.6211" id="PersistenceContext" rx="2.5" ry="2.5" style="stroke:#181818;stroke-width:0.5;" width="192" x="1227" y="609.5"/><ellipse cx="1259.1" cy="625.5" fill="#ADD1B2" rx="11" ry="11" style="stroke:#181818;stroke-width:1.0;"/><path d="M1261.8656,621.375 Q1262.0219,621.1563 1262.2094,621.0469 Q1262.3969,620.9375 1262.6156,620.9375 Q1262.9906,620.9375 1263.225,621.2031 Q1263.4594,621.4531 1263.4594,622.0625 L1263.4594,623.5156 Q1263.4594,624.125 1263.225,624.3906 Q1262.9906,624.6563 1262.6156,624.6563 Q1262.2719,624.6563 1262.0688,624.4531 Q1261.8656,624.2656 1261.7563,623.75 Q1261.7094,623.3906 1261.5219,623.2031 Q1261.1938,622.8281 1260.5844,622.6094 Q1259.975,622.3906 1259.35,622.3906 Q1258.5844,622.3906 1257.9438,622.7188 Q1257.3188,623.0469 1256.8188,623.7969 Q1256.3344,624.5469 1256.3344,625.5781 L1256.3344,626.6719 Q1256.3344,627.9063 1257.225,628.7344 Q1258.1156,629.5469 1259.7094,629.5469 Q1260.6469,629.5469 1261.3031,629.2969 Q1261.6938,629.1406 1262.1156,628.7031 Q1262.3813,628.4375 1262.5219,628.3594 Q1262.6781,628.2813 1262.8813,628.2813 Q1263.2094,628.2813 1263.4594,628.5469 Q1263.725,628.7969 1263.725,629.1406 Q1263.725,629.4844 1263.3813,629.8906 Q1262.8813,630.4688 1262.0844,630.7969 Q1261.0063,631.25 1259.7094,631.25 Q1258.1938,631.25 1256.9906,630.625 Q1256.0063,630.125 1255.3188,629.0625 Q1254.6313,627.9844 1254.6313,626.7031 L1254.6313,625.5469 Q1254.6313,624.2188 1255.2406,623.0781 Q1255.8656,621.9219 1256.9594,621.3125 Q1258.0531,620.6875 1259.2875,620.6875 Q1260.0219,620.6875 1260.6625,620.8594 Q1261.3188,621.0156 1261.8656,621.375 Z " fill="#000000"/><text fill="#000000" font-family="FG Virgil" font-size="14" lengthAdjust="spacing" textLength="122" x="1276.9" y="631.2969">PersistenceContext</text><line style="stroke:#181818;stroke-width:0.5;" x1="1228" x2="1418" y1="641.5" y2="641.5"/><line style="stroke:#181818;stroke-width:0.5;" x1="1228" x2="1418" y1="649.5" y2="649.5"/><ellipse cx="1238" cy="664.3105" fill="#84BE84" rx="3" ry="3" style="stroke:#038048;stroke-width:1.0;"/><text fill="#000000" font-family="FG Virgil" font-size="14" lengthAdjust="spacing" textLength="166" x="1247" y="668.6074">repositories(): Persistence</text></g><!--class RepositoryFactory--><g id="elem_RepositoryFactory"><rect codeLine="97" fill="#F1F1F1" height="85.2422" id="RepositoryFactory" rx="2.5" ry="2.5" style="stroke:#181818;stroke-width:0.5;" width="443" x="1101.5" y="755"/><ellipse cx="1260.75" cy="771" fill="#B4A7E5" rx="11" ry="11" style="stroke:#181818;stroke-width:1.0;"/><path d="M1261.7031,767.6406 L1261.7031,774.2969 L1263.4219,774.2969 Q1264.0313,774.2969 1264.2969,774.5313 Q1264.5625,774.7656 1264.5625,775.1563 Q1264.5625,775.5313 1264.2969,775.7656 Q1264.0313,776 1263.4219,776 L1258.2813,776 Q1257.6719,776 1257.4063,775.7656 Q1257.1406,775.5313 1257.1406,775.1406 Q1257.1406,774.7656 1257.4063,774.5313 Q1257.6719,774.2969 1258.2813,774.2969 L1260,774.2969 L1260,767.6406 L1258.2813,767.6406 Q1257.6719,767.6406 1257.4063,767.4063 Q1257.1406,767.1719 1257.1406,766.7813 Q1257.1406,766.4063 1257.4063,766.1719 Q1257.6719,765.9375 1258.2813,765.9375 L1263.4219,765.9375 Q1264.0313,765.9375 1264.2969,766.1719 Q1264.5625,766.4063 1264.5625,766.7813 Q1264.5625,767.1719 1264.2969,767.4063 Q1264.0313,767.6406 1263.4219,767.6406 L1261.7031,767.6406 Z " fill="#000000"/><text fill="#000000" font-family="FG Virgil" font-size="14" font-style="italic" lengthAdjust="spacing" textLength="116" x="1281.25" y="776.7969">RepositoryFactory</text><line style="stroke:#181818;stroke-width:0.5;" x1="1102.5" x2="1543.5" y1="787" y2="787"/><line style="stroke:#181818;stroke-width:0.5;" x1="1102.5" x2="1543.5" y1="795" y2="795"/><ellipse cx="1112.5" cy="809.8105" fill="#84BE84" rx="3" ry="3" style="stroke:#038048;stroke-width:1.0;"/><text fill="#000000" font-family="FG Virgil" font-size="14" lengthAdjust="spacing" textLength="180" x="1121.5" y="814.1074">create(): PersistenceContext</text><ellipse cx="1112.5" cy="828.4316" fill="#84BE84" rx="3" ry="3" style="stroke:#038048;stroke-width:1.0;"/><text fill="#000000" font-family="FG Virgil" font-size="14" lengthAdjust="spacing" textLength="417" x="1121.5" y="832.7285">enrollmentApplicationEvaluations(): EnrollmentApprovalRepository</text></g><!--reverse link EnrollmentApprovalRepository to JpaEnrollmentApprovalRepository--><g id="link_EnrollmentApprovalRepository_JpaEnrollmentApprovalRepository"><path codeLine="49" d="M1832,1005.54 C1832,1018.86 1832,1032.63 1832,1044.95 " fill="none" id="EnrollmentApprovalRepository-backto-JpaEnrollmentApprovalRepository" style="stroke:#181818;stroke-width:1.0;"/><polygon fill="none" points="1825,1005.25,1832,985.25,1839,1005.25,1825,1005.25" style="stroke:#181818;stroke-width:1.0;"/></g><!--reverse link EnrollmentRepository to JpaEnrollmentRepository--><g id="link_EnrollmentRepository_JpaEnrollmentRepository"><path codeLine="59" d="M1452,996.51 C1452,1015.74 1452,1036.88 1452,1053.85 " fill="none" id="EnrollmentRepository-backto-JpaEnrollmentRepository" style="stroke:#181818;stroke-width:1.0;"/><polygon fill="none" points="1445,996.31,1452,976.31,1459,996.31,1445,996.31" style="stroke:#181818;stroke-width:1.0;"/></g><!--reverse link StudentRepository to JpaStudentRepository--><g id="link_StudentRepository_JpaStudentRepository"><path codeLine="64" d="M1194,996.35 C1194,1019.36 1194,1045.13 1194,1063.21 " fill="none" id="StudentRepository-backto-JpaStudentRepository" style="stroke:#181818;stroke-width:1.0;"/><polygon fill="none" points="1187,996.31,1194,976.31,1201,996.31,1187,996.31" style="stroke:#181818;stroke-width:1.0;"/></g><!--reverse link CourseRepository to JpaCourseRepository--><g id="link_CourseRepository_JpaCourseRepository"><path codeLine="69" d="M958,996.35 C958,1019.36 958,1045.13 958,1063.21 " fill="none" id="CourseRepository-backto-JpaCourseRepository" style="stroke:#181818;stroke-width:1.0;"/><polygon fill="none" points="951,996.31,958,976.31,965,996.31,951,996.31" style="stroke:#181818;stroke-width:1.0;"/></g><!--link EnrollmentApprovalUI to EnrollmentApprovalController--><g id="link_EnrollmentApprovalUI_EnrollmentApprovalController"><path codeLine="102" d="M973,129.25 C973,146.4 973,165.4 973,183.7 " fill="none" id="EnrollmentApprovalUI-to-EnrollmentApprovalController" style="stroke:#181818;stroke-width:1.0;stroke-dasharray:7.0,7.0;"/><polygon fill="#181818" points="973,188.84,977,179.84,973,183.84,969,179.84,973,188.84" style="stroke:#181818;stroke-width:1.0;"/></g><!--link EnrollmentApprovalController to EnrollmentApprovalService--><g id="link_EnrollmentApprovalController_EnrollmentApprovalService"><path codeLine="103" d="M946.73,349.22 C940.71,367.35 934.39,386.42 928.6,403.88 " fill="none" id="EnrollmentApprovalController-to-EnrollmentApprovalService" style="stroke:#181818;stroke-width:1.0;"/><polygon fill="#181818" points="926.98,408.76,933.6076,401.4748,928.5526,404.0137,926.0136,398.9587,926.98,408.76" style="stroke:#181818;stroke-width:1.0;"/></g><!--link EnrollmentApprovalController to EnrollmentManagementService--><g id="link_EnrollmentApprovalController_EnrollmentManagementService"><path codeLine="104" d="M1139.5,349.08 C1179.88,368.25 1222.48,388.49 1260.95,406.76 " fill="none" id="EnrollmentApprovalController-to-EnrollmentManagementService" style="stroke:#181818;stroke-width:1.0;"/><polygon fill="#181818" points="1265.62,408.98,1259.2048,401.507,1261.1031,406.8359,1255.7742,408.7341,1265.62,408.98" style="stroke:#181818;stroke-width:1.0;"/></g><!--link EnrollmentApprovalService to PersistenceContext--><g id="link_EnrollmentApprovalService_PersistenceContext"><path codeLine="105" d="M1053.08,531.05 C1115.35,556.64 1185.76,585.59 1239.06,607.49 " fill="none" id="EnrollmentApprovalService-to-PersistenceContext" style="stroke:#181818;stroke-width:1.0;"/><polygon fill="#181818" points="1243.83,609.46,1237.0232,602.3419,1239.2045,607.5613,1233.9852,609.7427,1243.83,609.46" style="stroke:#181818;stroke-width:1.0;"/></g><!--link EnrollmentManagementService to PersistenceContext--><g id="link_EnrollmentManagementService_PersistenceContext"><path codeLine="106" d="M1367.67,531.29 C1357.86,555.6 1346.84,582.91 1338.21,604.32 " fill="none" id="EnrollmentManagementService-to-PersistenceContext" style="stroke:#181818;stroke-width:1.0;"/><polygon fill="#181818" points="1336.29,609.07,1343.3719,602.2256,1338.1642,604.4346,1335.9552,599.2268,1336.29,609.07" style="stroke:#181818;stroke-width:1.0;"/></g><!--link PersistenceContext to RepositoryFactory--><g id="link_PersistenceContext_RepositoryFactory"><path codeLine="107" d="M1323,676.72 C1323,697.95 1323,725.96 1323,749.56 " fill="none" id="PersistenceContext-to-RepositoryFactory" style="stroke:#181818;stroke-width:1.0;"/><polygon fill="#181818" points="1323,754.83,1327,745.83,1323,749.83,1319,745.83,1323,754.83" style="stroke:#181818;stroke-width:1.0;"/></g><!--link RepositoryFactory to StudentRepository--><g id="link_RepositoryFactory_StudentRepository"><path codeLine="109" d="M1285.34,840.25 C1266.94,860.65 1244.98,884.99 1227.21,904.69 " fill="none" id="RepositoryFactory-to-StudentRepository" style="stroke:#181818;stroke-width:1.0;"/><polygon fill="#181818" points="1223.71,908.56,1232.7039,904.5462,1227.0548,904.8435,1226.7575,899.1945,1223.71,908.56" style="stroke:#181818;stroke-width:1.0;"/></g><!--link RepositoryFactory to CourseRepository--><g id="link_RepositoryFactory_CourseRepository"><path codeLine="110" d="M1216.94,840.05 C1162.7,861.3 1097.46,886.86 1046.04,907.01 " fill="none" id="RepositoryFactory-to-CourseRepository" style="stroke:#181818;stroke-width:1.0;"/><polygon fill="#181818" points="1041.11,908.94,1050.9497,909.3637,1045.7622,907.1078,1048.0181,901.9202,1041.11,908.94" style="stroke:#181818;stroke-width:1.0;"/></g><!--link RepositoryFactory to EnrollmentApprovalRepository--><g id="link_RepositoryFactory_EnrollmentApprovalRepository"><path codeLine="111" d="M1470.91,840.05 C1536.27,858.42 1613.09,880 1679.03,898.52 " fill="none" id="RepositoryFactory-to-EnrollmentApprovalRepository" style="stroke:#181818;stroke-width:1.0;"/><polygon fill="#181818" points="1684.16,899.97,1676.5656,893.699,1679.3438,898.6266,1674.4162,901.4048,1684.16,899.97" style="stroke:#181818;stroke-width:1.0;"/></g><!--link RepositoryFactory to EnrollmentRepository--><g id="link_RepositoryFactory_EnrollmentRepository"><path codeLine="112" d="M1360.66,840.25 C1379.06,860.65 1401.02,884.99 1418.79,904.69 " fill="none" id="RepositoryFactory-to-EnrollmentRepository" style="stroke:#181818;stroke-width:1.0;"/><polygon fill="#181818" points="1422.29,908.56,1419.2425,899.1945,1418.9452,904.8435,1413.2961,904.5462,1422.29,908.56" style="stroke:#181818;stroke-width:1.0;"/></g><!--link EnrollmentApprovalController to EnrollmentApproval--><g id="link_EnrollmentApprovalController_EnrollmentApproval"><path codeLine="114" d="M778.28,349.08 C706.72,378.14 629.19,409.63 571.53,433.05 " fill="none" id="EnrollmentApprovalController-to-EnrollmentApproval" style="stroke:#181818;stroke-width:1.0;"/><polygon fill="#181818" points="566.71,435,576.5532,435.3348,571.3454,433.1258,573.5544,427.9181,566.71,435" style="stroke:#181818;stroke-width:1.0;"/></g><!--link EnrollmentApprovalBuilder to EnrollmentApproval--><g id="link_EnrollmentApprovalBuilder_EnrollmentApproval"><path codeLine="115" d="M373.63,302.86 C391.71,330.33 418.05,370.34 440.35,404.21 " fill="none" id="EnrollmentApprovalBuilder-to-EnrollmentApproval" style="stroke:#181818;stroke-width:1.0;"/><polygon fill="#181818" points="443.33,408.74,441.7276,399.0224,440.583,404.5622,435.0431,403.4176,443.33,408.74" style="stroke:#181818;stroke-width:1.0;"/></g><!--link EnrollmentApprovalService to Student--><g id="link_EnrollmentApprovalService_Student"><path codeLine="117" d="M857.99,531.29 C843.32,549.35 827.3,569.05 812.9,586.77 " fill="none" id="EnrollmentApprovalService-to-Student" style="stroke:#181818;stroke-width:1.0;"/><polygon fill="#181818" points="809.66,590.75,818.4299,586.2679,812.8043,586.8624,812.2098,581.2369,809.66,590.75" style="stroke:#181818;stroke-width:1.0;"/></g><!--link EnrollmentApprovalService to Course--><g id="link_EnrollmentApprovalService_Course"><path codeLine="118" d="M907,531.29 C907,552.3 907,575.53 907,595.27 " fill="none" id="EnrollmentApprovalService-to-Course" style="stroke:#181818;stroke-width:1.0;"/><polygon fill="#181818" points="907,600.48,911,591.48,907,595.48,903,591.48,907,600.48" style="stroke:#181818;stroke-width:1.0;"/></g><!--link EnrollmentApprovalService to Enrollment--><g id="link_EnrollmentApprovalService_Enrollment"><path codeLine="119" d="M960.59,531.29 C976.64,549.35 994.16,569.05 1009.9,586.77 " fill="none" id="EnrollmentApprovalService-to-Enrollment" style="stroke:#181818;stroke-width:1.0;"/><polygon fill="#181818" points="1013.44,590.75,1010.4303,581.3723,1010.1102,587.0201,1004.4624,586.6999,1013.44,590.75" style="stroke:#181818;stroke-width:1.0;"/></g><!--SRC=[vLRDZjCm4BxdANpiQZVx016g1CiMBU9F5BXRoRIord4YsocBW7V7gUF6pZZEjkA0H4x9UFw_VEDHZqoqLDAQLB2Z7TURHkWFj0QoUKE-CRbdFCjAJfKYMzrL83JvcH7pvAmg21FQVWXZKH2b9HDxAu6QCduI_NPExeLiEA-DdvTjAvi3vLyV1e_NfGIgONLLa4F3AYlRCL45DfoLLBD6z6hlcD8legThtoEEkOAJgF1IkY5KgEyWNTet19vQJiNHfHC6wJ6nQsJziGLvrDbsPGbAdKf8b7rd-jpBGBg60jBPWZom4eg8-N0qjNnlajr3_nQnHOSNjFrBSs-YTuF18W2A7b3xeLhXKcCr1Xc5dbw3O6VxIQ0nD6GUYi_GDehfHlw8HHXF_w_seJyADp3Uk4d3ScLdYw-ydOgiPjbqKe6lU3UHs8AxjWge_qpAUyK-20roHqrHAS3TyFgRa9yDZCNbRKl_-KoDuLAQUTVclzPfbiNHmRLESlHpItRlGa_Pd1DKar_BM0hwvuFe0qbEr1ZZch3OT8Y9UUG5d78dY6UfvWWMH4DsGp34nTc9-wfZl3fTVecR6j_0vbf-BfUnmt6CsLoNrvd8t8iQJU7nvvLhOkeEYZgDLshFmce7VTokCUOdaCgm6aG9_Ve1JwwGQ-aGOt3SNZpDS1IEq6vewVynunQ1erWDYCsIOUAOjsFS9EbD8j7ryVPsdLomikJsbUVhn7vrXYbUh-RtZDuoqgVKpJfZ4i6qrqGuPHc6hbV4uo6kXvWTLqi2k6JYpuqBCClcfyoCmG92ZiXfhO7PQIMFk-Rv0m00]--></g></svg>