<?xml version="1.0" encoding="us-ascii" standalone="no"?><svg xmlns="http://www.w3.org/2000/svg" xmlns:xlink="http://www.w3.org/1999/xlink" contentStyleType="text/css" height="278px" preserveAspectRatio="none" style="width:336px;height:278px;background:#FFFFFF;" version="1.1" viewBox="0 0 336 278" width="336px" zoomAndPan="magnify"><defs/><g><!--entity Admin--><g id="elem_Admin"><ellipse cx="83.5" cy="14" fill="#F1F1F1" rx="8" ry="8" style="stroke:#181818;stroke-width:0.5;"/><path d="M83.5,22 L83.5,49 M70.5,30 L96.5,30 M83.5,49 L70.5,64 M83.5,49 L96.5,64 " fill="none" style="stroke:#181818;stroke-width:0.5;"/><text fill="#000000" font-family="sans-serif" font-size="14" lengthAdjust="spacing" textLength="45" x="61" y="79.0352">Admin</text></g><g id="elem_I want to accept or reject a meeting request"><ellipse cx="168.4213" cy="237.3843" fill="#F1F1F1" rx="162.4213" ry="34.8843" style="stroke:#181818;stroke-width:0.5;"/><text fill="#000000" font-family="sans-serif" font-size="14" lengthAdjust="spacing" textLength="296" x="20.4213" y="240.6753">I want to accept or reject a meeting request</text></g><!--entity Teacher--><g id="elem_Teacher"><ellipse cx="168.5" cy="14" fill="#F1F1F1" rx="8" ry="8" style="stroke:#181818;stroke-width:0.5;"/><path d="M168.5,22 L168.5,49 M155.5,30 L181.5,30 M168.5,49 L155.5,64 M168.5,49 L181.5,64 " fill="none" style="stroke:#181818;stroke-width:0.5;"/><text fill="#000000" font-family="sans-serif" font-size="14" lengthAdjust="spacing" textLength="55" x="141" y="79.0352">Teacher</text></g><!--entity Student--><g id="elem_Student"><ellipse cx="257.5" cy="14" fill="#F1F1F1" rx="8" ry="8" style="stroke:#181818;stroke-width:0.5;"/><path d="M257.5,22 L257.5,49 M244.5,30 L270.5,30 M257.5,49 L244.5,64 M257.5,49 L270.5,64 " fill="none" style="stroke:#181818;stroke-width:0.5;"/><text fill="#000000" font-family="sans-serif" font-size="14" lengthAdjust="spacing" textLength="53" x="231" y="79.0352">Student</text></g><!--link Admin to I want to accept or reject a meeting request--><g id="link_Admin_I want to accept or reject a meeting request"><path d="M99.8889,81.52 C114.649,114.859 136.269,163.695 151.279,197.6014 " fill="none" id="Admin-to-I want to accept or reject a meeting request" style="stroke:#181818;stroke-width:1.0;"/><polygon fill="#181818" points="153.444,202.4921,153.4588,192.6433,151.4202,197.92,146.1435,195.8814,153.444,202.4921" style="stroke:#181818;stroke-width:1.0;"/></g><!--link Teacher to I want to accept or reject a meeting request--><g id="link_Teacher_I want to accept or reject a meeting request"><path d="M168.5,81.52 C168.5,114.723 168.5,163.295 168.5,197.1838 " fill="none" id="Teacher-to-I want to accept or reject a meeting request" style="stroke:#181818;stroke-width:1.0;"/><polygon fill="#181818" points="168.5,202.4921,172.5,193.4921,168.5,197.4921,164.5,193.4921,168.5,202.4921" style="stroke:#181818;stroke-width:1.0;"/></g><!--link Student to I want to accept or reject a meeting request--><g id="link_Student_I want to accept or reject a meeting request"><path d="M240.34,81.52 C224.885,114.859 202.248,163.695 186.531,197.6014 " fill="none" id="Student-to-I want to accept or reject a meeting request" style="stroke:#181818;stroke-width:1.0;"/><polygon fill="#181818" points="184.264,202.4921,191.6777,196.0085,186.3665,197.9557,184.4194,192.6445,184.264,202.4921" style="stroke:#181818;stroke-width:1.0;"/></g><!--SRC=[dOin3W8n30JxUuKxe0ZfAP0egU43bhEw2ped8N74z_4RReifLZEdpQoDMunjvs9JzwjKZNCW23jIvhMpBhv7qbmeX72dyvD-RfDLOX4qezgfumCnObB0Sbdz-4uCkonli6peXzgNpGJNZxH_]--></g></svg>