<?xml version="1.0" encoding="us-ascii" standalone="no"?><svg xmlns="http://www.w3.org/2000/svg" xmlns:xlink="http://www.w3.org/1999/xlink" contentStyleType="text/css" height="1302px" preserveAspectRatio="none" style="width:1417px;height:1302px;background:#FFFFFF;" version="1.1" viewBox="0 0 1417 1302" width="1417px" zoomAndPan="magnify"><defs/><g><!--class MeetingRequestsUI--><g id="elem_MeetingRequestsUI"><rect codeLine="4" fill="#F1F1F1" height="85.2422" id="MeetingRequestsUI" rx="2.5" ry="2.5" style="stroke:#181818;stroke-width:0.5;" width="240" x="678" y="7"/><ellipse cx="732.75" cy="23" fill="#ADD1B2" rx="11" ry="11" style="stroke:#181818;stroke-width:1.0;"/><path d="M735.5156,18.875 Q735.6719,18.6563 735.8594,18.5469 Q736.0469,18.4375 736.2656,18.4375 Q736.6406,18.4375 736.875,18.7031 Q737.1094,18.9531 737.1094,19.5625 L737.1094,21.0156 Q737.1094,21.625 736.875,21.8906 Q736.6406,22.1563 736.2656,22.1563 Q735.9219,22.1563 735.7188,21.9531 Q735.5156,21.7656 735.4063,21.25 Q735.3594,20.8906 735.1719,20.7031 Q734.8438,20.3281 734.2344,20.1094 Q733.625,19.8906 733,19.8906 Q732.2344,19.8906 731.5938,20.2188 Q730.9688,20.5469 730.4688,21.2969 Q729.9844,22.0469 729.9844,23.0781 L729.9844,24.1719 Q729.9844,25.4063 730.875,26.2344 Q731.7656,27.0469 733.3594,27.0469 Q734.2969,27.0469 734.9531,26.7969 Q735.3438,26.6406 735.7656,26.2031 Q736.0313,25.9375 736.1719,25.8594 Q736.3281,25.7813 736.5313,25.7813 Q736.8594,25.7813 737.1094,26.0469 Q737.375,26.2969 737.375,26.6406 Q737.375,26.9844 737.0313,27.3906 Q736.5313,27.9688 735.7344,28.2969 Q734.6563,28.75 733.3594,28.75 Q731.8438,28.75 730.6406,28.125 Q729.6563,27.625 728.9688,26.5625 Q728.2813,25.4844 728.2813,24.2031 L728.2813,23.0469 Q728.2813,21.7188 728.8906,20.5781 Q729.5156,19.4219 730.6094,18.8125 Q731.7031,18.1875 732.9375,18.1875 Q733.6719,18.1875 734.3125,18.3594 Q734.9688,18.5156 735.5156,18.875 Z " fill="#000000"/><text fill="#000000" font-family="sans-serif" font-size="14" lengthAdjust="spacing" textLength="122" x="753.25" y="28.7969">MeetingRequestsUI</text><line style="stroke:#181818;stroke-width:0.5;" x1="679" x2="917" y1="39" y2="39"/><line style="stroke:#181818;stroke-width:0.5;" x1="679" x2="917" y1="47" y2="47"/><ellipse cx="689" cy="61.8105" fill="#84BE84" rx="3" ry="3" style="stroke:#038048;stroke-width:1.0;"/><text fill="#000000" font-family="sans-serif" font-size="14" lengthAdjust="spacing" textLength="118" x="698" y="66.1074">listOfNotifications()</text><ellipse cx="689" cy="80.4316" fill="#84BE84" rx="3" ry="3" style="stroke:#038048;stroke-width:1.0;"/><text fill="#000000" font-family="sans-serif" font-size="14" lengthAdjust="spacing" textLength="214" x="698" y="84.7285">notificationOption(current,answer)</text></g><!--class MeetingRequestsController--><g id="elem_MeetingRequestsController"><rect codeLine="8" fill="#F1F1F1" height="103.8633" id="MeetingRequestsController" rx="2.5" ry="2.5" style="stroke:#181818;stroke-width:0.5;" width="218" x="689" y="152"/><ellipse cx="710.3" cy="168" fill="#ADD1B2" rx="11" ry="11" style="stroke:#181818;stroke-width:1.0;"/><path d="M713.0656,163.875 Q713.2219,163.6563 713.4094,163.5469 Q713.5969,163.4375 713.8156,163.4375 Q714.1906,163.4375 714.425,163.7031 Q714.6594,163.9531 714.6594,164.5625 L714.6594,166.0156 Q714.6594,166.625 714.425,166.8906 Q714.1906,167.1563 713.8156,167.1563 Q713.4719,167.1563 713.2688,166.9531 Q713.0656,166.7656 712.9563,166.25 Q712.9094,165.8906 712.7219,165.7031 Q712.3938,165.3281 711.7844,165.1094 Q711.175,164.8906 710.55,164.8906 Q709.7844,164.8906 709.1438,165.2188 Q708.5188,165.5469 708.0188,166.2969 Q707.5344,167.0469 707.5344,168.0781 L707.5344,169.1719 Q707.5344,170.4063 708.425,171.2344 Q709.3156,172.0469 710.9094,172.0469 Q711.8469,172.0469 712.5031,171.7969 Q712.8938,171.6406 713.3156,171.2031 Q713.5813,170.9375 713.7219,170.8594 Q713.8781,170.7813 714.0813,170.7813 Q714.4094,170.7813 714.6594,171.0469 Q714.925,171.2969 714.925,171.6406 Q714.925,171.9844 714.5813,172.3906 Q714.0813,172.9688 713.2844,173.2969 Q712.2063,173.75 710.9094,173.75 Q709.3938,173.75 708.1906,173.125 Q707.2063,172.625 706.5188,171.5625 Q705.8313,170.4844 705.8313,169.2031 L705.8313,168.0469 Q705.8313,166.7188 706.4406,165.5781 Q707.0656,164.4219 708.1594,163.8125 Q709.2531,163.1875 710.4875,163.1875 Q711.2219,163.1875 711.8625,163.3594 Q712.5188,163.5156 713.0656,163.875 Z " fill="#000000"/><text fill="#000000" font-family="sans-serif" font-size="14" lengthAdjust="spacing" textLength="172" x="725.7" y="173.7969">MeetingRequestsController</text><line style="stroke:#181818;stroke-width:0.5;" x1="690" x2="906" y1="184" y2="184"/><line style="stroke:#181818;stroke-width:0.5;" x1="690" x2="906" y1="192" y2="192"/><ellipse cx="700" cy="206.8105" fill="#84BE84" rx="3" ry="3" style="stroke:#038048;stroke-width:1.0;"/><text fill="#000000" font-family="sans-serif" font-size="14" lengthAdjust="spacing" textLength="53" x="709" y="211.1074">Create()</text><ellipse cx="700" cy="225.4316" fill="#84BE84" rx="3" ry="3" style="stroke:#038048;stroke-width:1.0;"/><text fill="#000000" font-family="sans-serif" font-size="14" lengthAdjust="spacing" textLength="113" x="709" y="229.7285">viewNotifications()</text><ellipse cx="700" cy="244.0527" fill="#84BE84" rx="3" ry="3" style="stroke:#038048;stroke-width:1.0;"/><text fill="#000000" font-family="sans-serif" font-size="14" lengthAdjust="spacing" textLength="192" x="709" y="248.3496">notificationOption(current,flag)</text></g><!--class NotificationAcceptanceService--><g id="elem_NotificationAcceptanceService"><rect codeLine="13" fill="#F1F1F1" height="252.832" id="NotificationAcceptanceService" rx="2.5" ry="2.5" style="stroke:#181818;stroke-width:0.5;" width="294" x="651" y="316"/><ellipse cx="698.75" cy="332" fill="#ADD1B2" rx="11" ry="11" style="stroke:#181818;stroke-width:1.0;"/><path d="M701.5156,327.875 Q701.6719,327.6563 701.8594,327.5469 Q702.0469,327.4375 702.2656,327.4375 Q702.6406,327.4375 702.875,327.7031 Q703.1094,327.9531 703.1094,328.5625 L703.1094,330.0156 Q703.1094,330.625 702.875,330.8906 Q702.6406,331.1563 702.2656,331.1563 Q701.9219,331.1563 701.7188,330.9531 Q701.5156,330.7656 701.4063,330.25 Q701.3594,329.8906 701.1719,329.7031 Q700.8438,329.3281 700.2344,329.1094 Q699.625,328.8906 699,328.8906 Q698.2344,328.8906 697.5938,329.2188 Q696.9688,329.5469 696.4688,330.2969 Q695.9844,331.0469 695.9844,332.0781 L695.9844,333.1719 Q695.9844,334.4063 696.875,335.2344 Q697.7656,336.0469 699.3594,336.0469 Q700.2969,336.0469 700.9531,335.7969 Q701.3438,335.6406 701.7656,335.2031 Q702.0313,334.9375 702.1719,334.8594 Q702.3281,334.7813 702.5313,334.7813 Q702.8594,334.7813 703.1094,335.0469 Q703.375,335.2969 703.375,335.6406 Q703.375,335.9844 703.0313,336.3906 Q702.5313,336.9688 701.7344,337.2969 Q700.6563,337.75 699.3594,337.75 Q697.8438,337.75 696.6406,337.125 Q695.6563,336.625 694.9688,335.5625 Q694.2813,334.4844 694.2813,333.2031 L694.2813,332.0469 Q694.2813,330.7188 694.8906,329.5781 Q695.5156,328.4219 696.6094,327.8125 Q697.7031,327.1875 698.9375,327.1875 Q699.6719,327.1875 700.3125,327.3594 Q700.9688,327.5156 701.5156,327.875 Z " fill="#000000"/><text fill="#000000" font-family="sans-serif" font-size="14" lengthAdjust="spacing" textLength="190" x="719.25" y="337.7969">NotificationAcceptanceService</text><line style="stroke:#181818;stroke-width:0.5;" x1="652" x2="944" y1="348" y2="348"/><line style="stroke:#181818;stroke-width:0.5;" x1="652" x2="944" y1="356" y2="356"/><ellipse cx="662" cy="370.8105" fill="#84BE84" rx="3" ry="3" style="stroke:#038048;stroke-width:1.0;"/><text fill="#000000" font-family="sans-serif" font-size="14" lengthAdjust="spacing" textLength="138" x="671" y="375.1074">authorizationService()</text><ellipse cx="662" cy="389.4316" fill="#84BE84" rx="3" ry="3" style="stroke:#038048;stroke-width:1.0;"/><text fill="#000000" font-family="sans-serif" font-size="14" lengthAdjust="spacing" textLength="53" x="671" y="393.7285">Create()</text><ellipse cx="662" cy="408.0527" fill="#84BE84" rx="3" ry="3" style="stroke:#038048;stroke-width:1.0;"/><text fill="#000000" font-family="sans-serif" font-size="14" lengthAdjust="spacing" textLength="62" x="671" y="412.3496">findUser()</text><ellipse cx="662" cy="426.6738" fill="#84BE84" rx="3" ry="3" style="stroke:#038048;stroke-width:1.0;"/><text fill="#000000" font-family="sans-serif" font-size="14" lengthAdjust="spacing" textLength="268" x="671" y="430.9707">session().get().authenticatedUser().email()</text><ellipse cx="662" cy="445.2949" fill="#84BE84" rx="3" ry="3" style="stroke:#038048;stroke-width:1.0;"/><text fill="#000000" font-family="sans-serif" font-size="14" lengthAdjust="spacing" textLength="100" x="671" y="449.5918">ofIdentity(email)</text><ellipse cx="662" cy="463.916" fill="#84BE84" rx="3" ry="3" style="stroke:#038048;stroke-width:1.0;"/><text fill="#000000" font-family="sans-serif" font-size="14" lengthAdjust="spacing" textLength="259" x="671" y="468.2129">findListNotificationsByUser(eCourseUser)</text><ellipse cx="662" cy="482.5371" fill="#84BE84" rx="3" ry="3" style="stroke:#038048;stroke-width:1.0;"/><text fill="#000000" font-family="sans-serif" font-size="14" lengthAdjust="spacing" textLength="108" x="671" y="486.834">save(notification)</text><ellipse cx="662" cy="501.1582" fill="#84BE84" rx="3" ry="3" style="stroke:#038048;stroke-width:1.0;"/><text fill="#000000" font-family="sans-serif" font-size="14" lengthAdjust="spacing" textLength="185" x="671" y="505.4551">createParticipant(notification)</text><ellipse cx="662" cy="519.7793" fill="#84BE84" rx="3" ry="3" style="stroke:#038048;stroke-width:1.0;"/><text fill="#000000" font-family="sans-serif" font-size="14" lengthAdjust="spacing" textLength="90" x="671" y="524.0762">save(meeting)</text><ellipse cx="662" cy="538.4004" fill="#84BE84" rx="3" ry="3" style="stroke:#038048;stroke-width:1.0;"/><text fill="#000000" font-family="sans-serif" font-size="14" lengthAdjust="spacing" textLength="102" x="671" y="542.6973">save(timeTable)</text><ellipse cx="662" cy="557.0215" fill="#84BE84" rx="3" ry="3" style="stroke:#038048;stroke-width:1.0;"/><text fill="#000000" font-family="sans-serif" font-size="14" lengthAdjust="spacing" textLength="123" x="671" y="561.3184">save(eCourseUser)</text></g><!--class ParticipantService--><g id="elem_ParticipantService"><rect codeLine="27" fill="#F1F1F1" height="66.6211" id="ParticipantService" rx="2.5" ry="2.5" style="stroke:#181818;stroke-width:0.5;" width="146" x="338" y="629"/><ellipse cx="353" cy="645" fill="#ADD1B2" rx="11" ry="11" style="stroke:#181818;stroke-width:1.0;"/><path d="M355.7656,640.875 Q355.9219,640.6563 356.1094,640.5469 Q356.2969,640.4375 356.5156,640.4375 Q356.8906,640.4375 357.125,640.7031 Q357.3594,640.9531 357.3594,641.5625 L357.3594,643.0156 Q357.3594,643.625 357.125,643.8906 Q356.8906,644.1563 356.5156,644.1563 Q356.1719,644.1563 355.9688,643.9531 Q355.7656,643.7656 355.6563,643.25 Q355.6094,642.8906 355.4219,642.7031 Q355.0938,642.3281 354.4844,642.1094 Q353.875,641.8906 353.25,641.8906 Q352.4844,641.8906 351.8438,642.2188 Q351.2188,642.5469 350.7188,643.2969 Q350.2344,644.0469 350.2344,645.0781 L350.2344,646.1719 Q350.2344,647.4063 351.125,648.2344 Q352.0156,649.0469 353.6094,649.0469 Q354.5469,649.0469 355.2031,648.7969 Q355.5938,648.6406 356.0156,648.2031 Q356.2813,647.9375 356.4219,647.8594 Q356.5781,647.7813 356.7813,647.7813 Q357.1094,647.7813 357.3594,648.0469 Q357.625,648.2969 357.625,648.6406 Q357.625,648.9844 357.2813,649.3906 Q356.7813,649.9688 355.9844,650.2969 Q354.9063,650.75 353.6094,650.75 Q352.0938,650.75 350.8906,650.125 Q349.9063,649.625 349.2188,648.5625 Q348.5313,647.4844 348.5313,646.2031 L348.5313,645.0469 Q348.5313,643.7188 349.1406,642.5781 Q349.7656,641.4219 350.8594,640.8125 Q351.9531,640.1875 353.1875,640.1875 Q353.9219,640.1875 354.5625,640.3594 Q355.2188,640.5156 355.7656,640.875 Z " fill="#000000"/><text fill="#000000" font-family="sans-serif" font-size="14" lengthAdjust="spacing" textLength="114" x="367" y="650.7969">ParticipantService</text><line style="stroke:#181818;stroke-width:0.5;" x1="339" x2="483" y1="661" y2="661"/><line style="stroke:#181818;stroke-width:0.5;" x1="339" x2="483" y1="669" y2="669"/><ellipse cx="349" cy="683.8105" fill="#84BE84" rx="3" ry="3" style="stroke:#038048;stroke-width:1.0;"/><text fill="#000000" font-family="sans-serif" font-size="14" lengthAdjust="spacing" textLength="106" x="358" y="688.1074">save(participant)</text></g><!--class AuthorizationService--><g id="elem_AuthorizationService"><rect codeLine="30" fill="#F1F1F1" height="66.6211" id="AuthorizationService" rx="2.5" ry="2.5" style="stroke:#181818;stroke-width:0.5;" width="294" x="519" y="629"/><ellipse cx="597.25" cy="645" fill="#ADD1B2" rx="11" ry="11" style="stroke:#181818;stroke-width:1.0;"/><path d="M600.0156,640.875 Q600.1719,640.6563 600.3594,640.5469 Q600.5469,640.4375 600.7656,640.4375 Q601.1406,640.4375 601.375,640.7031 Q601.6094,640.9531 601.6094,641.5625 L601.6094,643.0156 Q601.6094,643.625 601.375,643.8906 Q601.1406,644.1563 600.7656,644.1563 Q600.4219,644.1563 600.2188,643.9531 Q600.0156,643.7656 599.9063,643.25 Q599.8594,642.8906 599.6719,642.7031 Q599.3438,642.3281 598.7344,642.1094 Q598.125,641.8906 597.5,641.8906 Q596.7344,641.8906 596.0938,642.2188 Q595.4688,642.5469 594.9688,643.2969 Q594.4844,644.0469 594.4844,645.0781 L594.4844,646.1719 Q594.4844,647.4063 595.375,648.2344 Q596.2656,649.0469 597.8594,649.0469 Q598.7969,649.0469 599.4531,648.7969 Q599.8438,648.6406 600.2656,648.2031 Q600.5313,647.9375 600.6719,647.8594 Q600.8281,647.7813 601.0313,647.7813 Q601.3594,647.7813 601.6094,648.0469 Q601.875,648.2969 601.875,648.6406 Q601.875,648.9844 601.5313,649.3906 Q601.0313,649.9688 600.2344,650.2969 Q599.1563,650.75 597.8594,650.75 Q596.3438,650.75 595.1406,650.125 Q594.1563,649.625 593.4688,648.5625 Q592.7813,647.4844 592.7813,646.2031 L592.7813,645.0469 Q592.7813,643.7188 593.3906,642.5781 Q594.0156,641.4219 595.1094,640.8125 Q596.2031,640.1875 597.4375,640.1875 Q598.1719,640.1875 598.8125,640.3594 Q599.4688,640.5156 600.0156,640.875 Z " fill="#000000"/><text fill="#000000" font-family="sans-serif" font-size="14" lengthAdjust="spacing" textLength="129" x="617.75" y="650.7969">AuthorizationService</text><line style="stroke:#181818;stroke-width:0.5;" x1="520" x2="812" y1="661" y2="661"/><line style="stroke:#181818;stroke-width:0.5;" x1="520" x2="812" y1="669" y2="669"/><ellipse cx="530" cy="683.8105" fill="#84BE84" rx="3" ry="3" style="stroke:#038048;stroke-width:1.0;"/><text fill="#000000" font-family="sans-serif" font-size="14" lengthAdjust="spacing" textLength="268" x="539" y="688.1074">session().get().authenticatedUser().email()</text></g><!--class AuthzRegistry--><g id="elem_AuthzRegistry"><rect codeLine="33" fill="#F1F1F1" height="66.6211" id="AuthzRegistry" rx="2.5" ry="2.5" style="stroke:#181818;stroke-width:0.5;" width="164" x="848" y="629"/><ellipse cx="883.25" cy="645" fill="#ADD1B2" rx="11" ry="11" style="stroke:#181818;stroke-width:1.0;"/><path d="M886.0156,640.875 Q886.1719,640.6563 886.3594,640.5469 Q886.5469,640.4375 886.7656,640.4375 Q887.1406,640.4375 887.375,640.7031 Q887.6094,640.9531 887.6094,641.5625 L887.6094,643.0156 Q887.6094,643.625 887.375,643.8906 Q887.1406,644.1563 886.7656,644.1563 Q886.4219,644.1563 886.2188,643.9531 Q886.0156,643.7656 885.9063,643.25 Q885.8594,642.8906 885.6719,642.7031 Q885.3438,642.3281 884.7344,642.1094 Q884.125,641.8906 883.5,641.8906 Q882.7344,641.8906 882.0938,642.2188 Q881.4688,642.5469 880.9688,643.2969 Q880.4844,644.0469 880.4844,645.0781 L880.4844,646.1719 Q880.4844,647.4063 881.375,648.2344 Q882.2656,649.0469 883.8594,649.0469 Q884.7969,649.0469 885.4531,648.7969 Q885.8438,648.6406 886.2656,648.2031 Q886.5313,647.9375 886.6719,647.8594 Q886.8281,647.7813 887.0313,647.7813 Q887.3594,647.7813 887.6094,648.0469 Q887.875,648.2969 887.875,648.6406 Q887.875,648.9844 887.5313,649.3906 Q887.0313,649.9688 886.2344,650.2969 Q885.1563,650.75 883.8594,650.75 Q882.3438,650.75 881.1406,650.125 Q880.1563,649.625 879.4688,648.5625 Q878.7813,647.4844 878.7813,646.2031 L878.7813,645.0469 Q878.7813,643.7188 879.3906,642.5781 Q880.0156,641.4219 881.1094,640.8125 Q882.2031,640.1875 883.4375,640.1875 Q884.1719,640.1875 884.8125,640.3594 Q885.4688,640.5156 886.0156,640.875 Z " fill="#000000"/><text fill="#000000" font-family="sans-serif" font-size="14" lengthAdjust="spacing" textLength="87" x="901.75" y="650.7969">AuthzRegistry</text><line style="stroke:#181818;stroke-width:0.5;" x1="849" x2="1011" y1="661" y2="661"/><line style="stroke:#181818;stroke-width:0.5;" x1="849" x2="1011" y1="669" y2="669"/><ellipse cx="859" cy="683.8105" fill="#84BE84" rx="3" ry="3" style="stroke:#038048;stroke-width:1.0;"/><text fill="#000000" font-family="sans-serif" font-size="14" lengthAdjust="spacing" textLength="138" x="868" y="688.1074">authorizationService()</text></g><!--class PersistenceContext--><g id="elem_PersistenceContext"><rect codeLine="36" fill="#F1F1F1" height="66.6211" id="PersistenceContext" rx="2.5" ry="2.5" style="stroke:#181818;stroke-width:0.5;" width="172" x="652" y="756"/><ellipse cx="675.1" cy="772" fill="#ADD1B2" rx="11" ry="11" style="stroke:#181818;stroke-width:1.0;"/><path d="M677.8656,767.875 Q678.0219,767.6563 678.2094,767.5469 Q678.3969,767.4375 678.6156,767.4375 Q678.9906,767.4375 679.225,767.7031 Q679.4594,767.9531 679.4594,768.5625 L679.4594,770.0156 Q679.4594,770.625 679.225,770.8906 Q678.9906,771.1563 678.6156,771.1563 Q678.2719,771.1563 678.0688,770.9531 Q677.8656,770.7656 677.7563,770.25 Q677.7094,769.8906 677.5219,769.7031 Q677.1938,769.3281 676.5844,769.1094 Q675.975,768.8906 675.35,768.8906 Q674.5844,768.8906 673.9438,769.2188 Q673.3188,769.5469 672.8188,770.2969 Q672.3344,771.0469 672.3344,772.0781 L672.3344,773.1719 Q672.3344,774.4063 673.225,775.2344 Q674.1156,776.0469 675.7094,776.0469 Q676.6469,776.0469 677.3031,775.7969 Q677.6938,775.6406 678.1156,775.2031 Q678.3813,774.9375 678.5219,774.8594 Q678.6781,774.7813 678.8813,774.7813 Q679.2094,774.7813 679.4594,775.0469 Q679.725,775.2969 679.725,775.6406 Q679.725,775.9844 679.3813,776.3906 Q678.8813,776.9688 678.0844,777.2969 Q677.0063,777.75 675.7094,777.75 Q674.1938,777.75 672.9906,777.125 Q672.0063,776.625 671.3188,775.5625 Q670.6313,774.4844 670.6313,773.2031 L670.6313,772.0469 Q670.6313,770.7188 671.2406,769.5781 Q671.8656,768.4219 672.9594,767.8125 Q674.0531,767.1875 675.2875,767.1875 Q676.0219,767.1875 676.6625,767.3594 Q677.3188,767.5156 677.8656,767.875 Z " fill="#000000"/><text fill="#000000" font-family="sans-serif" font-size="14" lengthAdjust="spacing" textLength="122" x="690.9" y="777.7969">PersistenceContext</text><line style="stroke:#181818;stroke-width:0.5;" x1="653" x2="823" y1="788" y2="788"/><line style="stroke:#181818;stroke-width:0.5;" x1="653" x2="823" y1="796" y2="796"/><ellipse cx="663" cy="810.8105" fill="#84BE84" rx="3" ry="3" style="stroke:#038048;stroke-width:1.0;"/><text fill="#000000" font-family="sans-serif" font-size="14" lengthAdjust="spacing" textLength="146" x="672" y="815.1074">getRepositoryFactory()</text></g><!--class RepositoryFactory--><g id="elem_RepositoryFactory"><rect codeLine="39" fill="#F1F1F1" height="122.4844" id="RepositoryFactory" rx="2.5" ry="2.5" style="stroke:#181818;stroke-width:0.5;" width="184" x="646" y="883"/><ellipse cx="677.2" cy="899" fill="#B4A7E5" rx="11" ry="11" style="stroke:#181818;stroke-width:1.0;"/><path d="M678.1531,895.6406 L678.1531,902.2969 L679.8719,902.2969 Q680.4813,902.2969 680.7469,902.5313 Q681.0125,902.7656 681.0125,903.1563 Q681.0125,903.5313 680.7469,903.7656 Q680.4813,904 679.8719,904 L674.7313,904 Q674.1219,904 673.8563,903.7656 Q673.5906,903.5313 673.5906,903.1406 Q673.5906,902.7656 673.8563,902.5313 Q674.1219,902.2969 674.7313,902.2969 L676.45,902.2969 L676.45,895.6406 L674.7313,895.6406 Q674.1219,895.6406 673.8563,895.4063 Q673.5906,895.1719 673.5906,894.7813 Q673.5906,894.4063 673.8563,894.1719 Q674.1219,893.9375 674.7313,893.9375 L679.8719,893.9375 Q680.4813,893.9375 680.7469,894.1719 Q681.0125,894.4063 681.0125,894.7813 Q681.0125,895.1719 680.7469,895.4063 Q680.4813,895.6406 679.8719,895.6406 L678.1531,895.6406 Z " fill="#000000"/><text fill="#000000" font-family="sans-serif" font-size="14" font-style="italic" lengthAdjust="spacing" textLength="116" x="694.8" y="904.7969">RepositoryFactory</text><line style="stroke:#181818;stroke-width:0.5;" x1="647" x2="829" y1="915" y2="915"/><line style="stroke:#181818;stroke-width:0.5;" x1="647" x2="829" y1="923" y2="923"/><ellipse cx="657" cy="937.8105" fill="#84BE84" rx="3" ry="3" style="stroke:#038048;stroke-width:1.0;"/><text fill="#000000" font-family="sans-serif" font-size="14" lengthAdjust="spacing" textLength="128" x="666" y="942.1074">meetingRepository()</text><ellipse cx="657" cy="956.4316" fill="#84BE84" rx="3" ry="3" style="stroke:#038048;stroke-width:1.0;"/><text fill="#000000" font-family="sans-serif" font-size="14" lengthAdjust="spacing" textLength="135" x="666" y="960.7285">scheduleRepository()</text><ellipse cx="657" cy="975.0527" fill="#84BE84" rx="3" ry="3" style="stroke:#038048;stroke-width:1.0;"/><text fill="#000000" font-family="sans-serif" font-size="14" lengthAdjust="spacing" textLength="135" x="666" y="979.3496">timetableRepository()</text><ellipse cx="657" cy="993.6738" fill="#84BE84" rx="3" ry="3" style="stroke:#038048;stroke-width:1.0;"/><text fill="#000000" font-family="sans-serif" font-size="14" lengthAdjust="spacing" textLength="158" x="666" y="997.9707">ecourseUserRepository()</text></g><!--class MeetingRepository--><g id="elem_MeetingRepository"><rect codeLine="45" fill="#F1F1F1" height="66.6211" id="MeetingRepository" rx="2.5" ry="2.5" style="stroke:#181818;stroke-width:0.5;" width="151" x="30.5" y="1074"/><ellipse cx="45.5" cy="1090" fill="#B4A7E5" rx="11" ry="11" style="stroke:#181818;stroke-width:1.0;"/><path d="M46.4531,1086.6406 L46.4531,1093.2969 L48.1719,1093.2969 Q48.7813,1093.2969 49.0469,1093.5313 Q49.3125,1093.7656 49.3125,1094.1563 Q49.3125,1094.5313 49.0469,1094.7656 Q48.7813,1095 48.1719,1095 L43.0313,1095 Q42.4219,1095 42.1563,1094.7656 Q41.8906,1094.5313 41.8906,1094.1406 Q41.8906,1093.7656 42.1563,1093.5313 Q42.4219,1093.2969 43.0313,1093.2969 L44.75,1093.2969 L44.75,1086.6406 L43.0313,1086.6406 Q42.4219,1086.6406 42.1563,1086.4063 Q41.8906,1086.1719 41.8906,1085.7813 Q41.8906,1085.4063 42.1563,1085.1719 Q42.4219,1084.9375 43.0313,1084.9375 L48.1719,1084.9375 Q48.7813,1084.9375 49.0469,1085.1719 Q49.3125,1085.4063 49.3125,1085.7813 Q49.3125,1086.1719 49.0469,1086.4063 Q48.7813,1086.6406 48.1719,1086.6406 L46.4531,1086.6406 Z " fill="#000000"/><text fill="#000000" font-family="sans-serif" font-size="14" font-style="italic" lengthAdjust="spacing" textLength="119" x="59.5" y="1095.7969">MeetingRepository</text><line style="stroke:#181818;stroke-width:0.5;" x1="31.5" x2="180.5" y1="1106" y2="1106"/><line style="stroke:#181818;stroke-width:0.5;" x1="31.5" x2="180.5" y1="1114" y2="1114"/><ellipse cx="41.5" cy="1128.8105" fill="#84BE84" rx="3" ry="3" style="stroke:#038048;stroke-width:1.0;"/><text fill="#000000" font-family="sans-serif" font-size="14" lengthAdjust="spacing" textLength="90" x="50.5" y="1133.1074">save(meeting)</text></g><!--class NotificationRepository--><g id="elem_NotificationRepository"><rect codeLine="48" fill="#F1F1F1" height="85.2422" id="NotificationRepository" rx="2.5" ry="2.5" style="stroke:#181818;stroke-width:0.5;" width="285" x="222.5" y="1065"/><ellipse cx="291.75" cy="1081" fill="#B4A7E5" rx="11" ry="11" style="stroke:#181818;stroke-width:1.0;"/><path d="M292.7031,1077.6406 L292.7031,1084.2969 L294.4219,1084.2969 Q295.0313,1084.2969 295.2969,1084.5313 Q295.5625,1084.7656 295.5625,1085.1563 Q295.5625,1085.5313 295.2969,1085.7656 Q295.0313,1086 294.4219,1086 L289.2813,1086 Q288.6719,1086 288.4063,1085.7656 Q288.1406,1085.5313 288.1406,1085.1406 Q288.1406,1084.7656 288.4063,1084.5313 Q288.6719,1084.2969 289.2813,1084.2969 L291,1084.2969 L291,1077.6406 L289.2813,1077.6406 Q288.6719,1077.6406 288.4063,1077.4063 Q288.1406,1077.1719 288.1406,1076.7813 Q288.1406,1076.4063 288.4063,1076.1719 Q288.6719,1075.9375 289.2813,1075.9375 L294.4219,1075.9375 Q295.0313,1075.9375 295.2969,1076.1719 Q295.5625,1076.4063 295.5625,1076.7813 Q295.5625,1077.1719 295.2969,1077.4063 Q295.0313,1077.6406 294.4219,1077.6406 L292.7031,1077.6406 Z " fill="#000000"/><text fill="#000000" font-family="sans-serif" font-size="14" font-style="italic" lengthAdjust="spacing" textLength="138" x="312.25" y="1086.7969">NotificationRepository</text><line style="stroke:#181818;stroke-width:0.5;" x1="223.5" x2="506.5" y1="1097" y2="1097"/><line style="stroke:#181818;stroke-width:0.5;" x1="223.5" x2="506.5" y1="1105" y2="1105"/><ellipse cx="233.5" cy="1119.8105" fill="#84BE84" rx="3" ry="3" style="stroke:#038048;stroke-width:1.0;"/><text fill="#000000" font-family="sans-serif" font-size="14" lengthAdjust="spacing" textLength="108" x="242.5" y="1124.1074">save(notification)</text><ellipse cx="233.5" cy="1138.4316" fill="#84BE84" rx="3" ry="3" style="stroke:#038048;stroke-width:1.0;"/><text fill="#000000" font-family="sans-serif" font-size="14" lengthAdjust="spacing" textLength="259" x="242.5" y="1142.7285">findListNotificationsByUser(eCourseUser)</text></g><!--class ScheduleRepository--><g id="elem_ScheduleRepository"><rect codeLine="52" fill="#F1F1F1" height="66.6211" id="ScheduleRepository" rx="2.5" ry="2.5" style="stroke:#181818;stroke-width:0.5;" width="159" x="554.5" y="1074"/><ellipse cx="569.5" cy="1090" fill="#B4A7E5" rx="11" ry="11" style="stroke:#181818;stroke-width:1.0;"/><path d="M570.4531,1086.6406 L570.4531,1093.2969 L572.1719,1093.2969 Q572.7813,1093.2969 573.0469,1093.5313 Q573.3125,1093.7656 573.3125,1094.1563 Q573.3125,1094.5313 573.0469,1094.7656 Q572.7813,1095 572.1719,1095 L567.0313,1095 Q566.4219,1095 566.1563,1094.7656 Q565.8906,1094.5313 565.8906,1094.1406 Q565.8906,1093.7656 566.1563,1093.5313 Q566.4219,1093.2969 567.0313,1093.2969 L568.75,1093.2969 L568.75,1086.6406 L567.0313,1086.6406 Q566.4219,1086.6406 566.1563,1086.4063 Q565.8906,1086.1719 565.8906,1085.7813 Q565.8906,1085.4063 566.1563,1085.1719 Q566.4219,1084.9375 567.0313,1084.9375 L572.1719,1084.9375 Q572.7813,1084.9375 573.0469,1085.1719 Q573.3125,1085.4063 573.3125,1085.7813 Q573.3125,1086.1719 573.0469,1086.4063 Q572.7813,1086.6406 572.1719,1086.6406 L570.4531,1086.6406 Z " fill="#000000"/><text fill="#000000" font-family="sans-serif" font-size="14" font-style="italic" lengthAdjust="spacing" textLength="127" x="583.5" y="1095.7969">ScheduleRepository</text><line style="stroke:#181818;stroke-width:0.5;" x1="555.5" x2="712.5" y1="1106" y2="1106"/><line style="stroke:#181818;stroke-width:0.5;" x1="555.5" x2="712.5" y1="1114" y2="1114"/><ellipse cx="565.5" cy="1128.8105" fill="#84BE84" rx="3" ry="3" style="stroke:#038048;stroke-width:1.0;"/><text fill="#000000" font-family="sans-serif" font-size="14" lengthAdjust="spacing" textLength="102" x="574.5" y="1133.1074">save(schedule))</text></g><!--class TimetableRepository--><g id="elem_TimetableRepository"><rect codeLine="55" fill="#F1F1F1" height="66.6211" id="TimetableRepository" rx="2.5" ry="2.5" style="stroke:#181818;stroke-width:0.5;" width="162" x="761" y="1074"/><ellipse cx="776" cy="1090" fill="#B4A7E5" rx="11" ry="11" style="stroke:#181818;stroke-width:1.0;"/><path d="M776.9531,1086.6406 L776.9531,1093.2969 L778.6719,1093.2969 Q779.2813,1093.2969 779.5469,1093.5313 Q779.8125,1093.7656 779.8125,1094.1563 Q779.8125,1094.5313 779.5469,1094.7656 Q779.2813,1095 778.6719,1095 L773.5313,1095 Q772.9219,1095 772.6563,1094.7656 Q772.3906,1094.5313 772.3906,1094.1406 Q772.3906,1093.7656 772.6563,1093.5313 Q772.9219,1093.2969 773.5313,1093.2969 L775.25,1093.2969 L775.25,1086.6406 L773.5313,1086.6406 Q772.9219,1086.6406 772.6563,1086.4063 Q772.3906,1086.1719 772.3906,1085.7813 Q772.3906,1085.4063 772.6563,1085.1719 Q772.9219,1084.9375 773.5313,1084.9375 L778.6719,1084.9375 Q779.2813,1084.9375 779.5469,1085.1719 Q779.8125,1085.4063 779.8125,1085.7813 Q779.8125,1086.1719 779.5469,1086.4063 Q779.2813,1086.6406 778.6719,1086.6406 L776.9531,1086.6406 Z " fill="#000000"/><text fill="#000000" font-family="sans-serif" font-size="14" font-style="italic" lengthAdjust="spacing" textLength="130" x="790" y="1095.7969">TimetableRepository</text><line style="stroke:#181818;stroke-width:0.5;" x1="762" x2="922" y1="1106" y2="1106"/><line style="stroke:#181818;stroke-width:0.5;" x1="762" x2="922" y1="1114" y2="1114"/><ellipse cx="772" cy="1128.8105" fill="#84BE84" rx="3" ry="3" style="stroke:#038048;stroke-width:1.0;"/><text fill="#000000" font-family="sans-serif" font-size="14" lengthAdjust="spacing" textLength="102" x="781" y="1133.1074">save(timeTable)</text></g><!--class ECourseUserRepository--><g id="elem_ECourseUserRepository"><rect codeLine="58" fill="#F1F1F1" height="85.2422" id="ECourseUserRepository" rx="2.5" ry="2.5" style="stroke:#181818;stroke-width:0.5;" width="185" x="975.5" y="1065"/><ellipse cx="990.5" cy="1081" fill="#B4A7E5" rx="11" ry="11" style="stroke:#181818;stroke-width:1.0;"/><path d="M991.4531,1077.6406 L991.4531,1084.2969 L993.1719,1084.2969 Q993.7813,1084.2969 994.0469,1084.5313 Q994.3125,1084.7656 994.3125,1085.1563 Q994.3125,1085.5313 994.0469,1085.7656 Q993.7813,1086 993.1719,1086 L988.0313,1086 Q987.4219,1086 987.1563,1085.7656 Q986.8906,1085.5313 986.8906,1085.1406 Q986.8906,1084.7656 987.1563,1084.5313 Q987.4219,1084.2969 988.0313,1084.2969 L989.75,1084.2969 L989.75,1077.6406 L988.0313,1077.6406 Q987.4219,1077.6406 987.1563,1077.4063 Q986.8906,1077.1719 986.8906,1076.7813 Q986.8906,1076.4063 987.1563,1076.1719 Q987.4219,1075.9375 988.0313,1075.9375 L993.1719,1075.9375 Q993.7813,1075.9375 994.0469,1076.1719 Q994.3125,1076.4063 994.3125,1076.7813 Q994.3125,1077.1719 994.0469,1077.4063 Q993.7813,1077.6406 993.1719,1077.6406 L991.4531,1077.6406 Z " fill="#000000"/><text fill="#000000" font-family="sans-serif" font-size="14" font-style="italic" lengthAdjust="spacing" textLength="153" x="1004.5" y="1086.7969">ECourseUserRepository</text><line style="stroke:#181818;stroke-width:0.5;" x1="976.5" x2="1159.5" y1="1097" y2="1097"/><line style="stroke:#181818;stroke-width:0.5;" x1="976.5" x2="1159.5" y1="1105" y2="1105"/><ellipse cx="986.5" cy="1119.8105" fill="#84BE84" rx="3" ry="3" style="stroke:#038048;stroke-width:1.0;"/><text fill="#000000" font-family="sans-serif" font-size="14" lengthAdjust="spacing" textLength="123" x="995.5" y="1124.1074">save(eCourseUser)</text><ellipse cx="986.5" cy="1138.4316" fill="#84BE84" rx="3" ry="3" style="stroke:#038048;stroke-width:1.0;"/><text fill="#000000" font-family="sans-serif" font-size="14" lengthAdjust="spacing" textLength="100" x="995.5" y="1142.7285">ofIdentity(email)</text></g><!--class ParticipantRepository--><g id="elem_ParticipantRepository"><rect codeLine="62" fill="#F1F1F1" height="66.6211" id="ParticipantRepository" rx="2.5" ry="2.5" style="stroke:#181818;stroke-width:0.5;" width="167" x="1216.5" y="1074"/><ellipse cx="1231.5" cy="1090" fill="#B4A7E5" rx="11" ry="11" style="stroke:#181818;stroke-width:1.0;"/><path d="M1232.4531,1086.6406 L1232.4531,1093.2969 L1234.1719,1093.2969 Q1234.7813,1093.2969 1235.0469,1093.5313 Q1235.3125,1093.7656 1235.3125,1094.1563 Q1235.3125,1094.5313 1235.0469,1094.7656 Q1234.7813,1095 1234.1719,1095 L1229.0313,1095 Q1228.4219,1095 1228.1563,1094.7656 Q1227.8906,1094.5313 1227.8906,1094.1406 Q1227.8906,1093.7656 1228.1563,1093.5313 Q1228.4219,1093.2969 1229.0313,1093.2969 L1230.75,1093.2969 L1230.75,1086.6406 L1229.0313,1086.6406 Q1228.4219,1086.6406 1228.1563,1086.4063 Q1227.8906,1086.1719 1227.8906,1085.7813 Q1227.8906,1085.4063 1228.1563,1085.1719 Q1228.4219,1084.9375 1229.0313,1084.9375 L1234.1719,1084.9375 Q1234.7813,1084.9375 1235.0469,1085.1719 Q1235.3125,1085.4063 1235.3125,1085.7813 Q1235.3125,1086.1719 1235.0469,1086.4063 Q1234.7813,1086.6406 1234.1719,1086.6406 L1232.4531,1086.6406 Z " fill="#000000"/><text fill="#000000" font-family="sans-serif" font-size="14" font-style="italic" lengthAdjust="spacing" textLength="135" x="1245.5" y="1095.7969">ParticipantRepository</text><line style="stroke:#181818;stroke-width:0.5;" x1="1217.5" x2="1382.5" y1="1106" y2="1106"/><line style="stroke:#181818;stroke-width:0.5;" x1="1217.5" x2="1382.5" y1="1114" y2="1114"/><ellipse cx="1227.5" cy="1128.8105" fill="#84BE84" rx="3" ry="3" style="stroke:#038048;stroke-width:1.0;"/><text fill="#000000" font-family="sans-serif" font-size="14" lengthAdjust="spacing" textLength="106" x="1236.5" y="1133.1074">save(participant)</text></g><!--class JPAMeetingRepository--><g id="elem_JPAMeetingRepository"><rect codeLine="65" fill="#F1F1F1" height="66.6211" id="JPAMeetingRepository" rx="2.5" ry="2.5" style="stroke:#181818;stroke-width:0.5;" width="174" x="7" y="1219"/><ellipse cx="22" cy="1235" fill="#ADD1B2" rx="11" ry="11" style="stroke:#181818;stroke-width:1.0;"/><path d="M24.7656,1230.875 Q24.9219,1230.6563 25.1094,1230.5469 Q25.2969,1230.4375 25.5156,1230.4375 Q25.8906,1230.4375 26.125,1230.7031 Q26.3594,1230.9531 26.3594,1231.5625 L26.3594,1233.0156 Q26.3594,1233.625 26.125,1233.8906 Q25.8906,1234.1563 25.5156,1234.1563 Q25.1719,1234.1563 24.9688,1233.9531 Q24.7656,1233.7656 24.6563,1233.25 Q24.6094,1232.8906 24.4219,1232.7031 Q24.0938,1232.3281 23.4844,1232.1094 Q22.875,1231.8906 22.25,1231.8906 Q21.4844,1231.8906 20.8438,1232.2188 Q20.2188,1232.5469 19.7188,1233.2969 Q19.2344,1234.0469 19.2344,1235.0781 L19.2344,1236.1719 Q19.2344,1237.4063 20.125,1238.2344 Q21.0156,1239.0469 22.6094,1239.0469 Q23.5469,1239.0469 24.2031,1238.7969 Q24.5938,1238.6406 25.0156,1238.2031 Q25.2813,1237.9375 25.4219,1237.8594 Q25.5781,1237.7813 25.7813,1237.7813 Q26.1094,1237.7813 26.3594,1238.0469 Q26.625,1238.2969 26.625,1238.6406 Q26.625,1238.9844 26.2813,1239.3906 Q25.7813,1239.9688 24.9844,1240.2969 Q23.9063,1240.75 22.6094,1240.75 Q21.0938,1240.75 19.8906,1240.125 Q18.9063,1239.625 18.2188,1238.5625 Q17.5313,1237.4844 17.5313,1236.2031 L17.5313,1235.0469 Q17.5313,1233.7188 18.1406,1232.5781 Q18.7656,1231.4219 19.8594,1230.8125 Q20.9531,1230.1875 22.1875,1230.1875 Q22.9219,1230.1875 23.5625,1230.3594 Q24.2188,1230.5156 24.7656,1230.875 Z " fill="#000000"/><text fill="#000000" font-family="sans-serif" font-size="14" lengthAdjust="spacing" textLength="142" x="36" y="1240.7969">JPAMeetingRepository</text><line style="stroke:#181818;stroke-width:0.5;" x1="8" x2="180" y1="1251" y2="1251"/><line style="stroke:#181818;stroke-width:0.5;" x1="8" x2="180" y1="1259" y2="1259"/><ellipse cx="18" cy="1273.8105" fill="#84BE84" rx="3" ry="3" style="stroke:#038048;stroke-width:1.0;"/><text fill="#000000" font-family="sans-serif" font-size="14" lengthAdjust="spacing" textLength="90" x="27" y="1278.1074">save(meeting)</text></g><!--class JPANotificationRepository--><g id="elem_JPANotificationRepository"><rect codeLine="68" fill="#F1F1F1" height="85.2422" id="JPANotificationRepository" rx="2.5" ry="2.5" style="stroke:#181818;stroke-width:0.5;" width="285" x="216.5" y="1210"/><ellipse cx="274.25" cy="1226" fill="#ADD1B2" rx="11" ry="11" style="stroke:#181818;stroke-width:1.0;"/><path d="M277.0156,1221.875 Q277.1719,1221.6563 277.3594,1221.5469 Q277.5469,1221.4375 277.7656,1221.4375 Q278.1406,1221.4375 278.375,1221.7031 Q278.6094,1221.9531 278.6094,1222.5625 L278.6094,1224.0156 Q278.6094,1224.625 278.375,1224.8906 Q278.1406,1225.1563 277.7656,1225.1563 Q277.4219,1225.1563 277.2188,1224.9531 Q277.0156,1224.7656 276.9063,1224.25 Q276.8594,1223.8906 276.6719,1223.7031 Q276.3438,1223.3281 275.7344,1223.1094 Q275.125,1222.8906 274.5,1222.8906 Q273.7344,1222.8906 273.0938,1223.2188 Q272.4688,1223.5469 271.9688,1224.2969 Q271.4844,1225.0469 271.4844,1226.0781 L271.4844,1227.1719 Q271.4844,1228.4063 272.375,1229.2344 Q273.2656,1230.0469 274.8594,1230.0469 Q275.7969,1230.0469 276.4531,1229.7969 Q276.8438,1229.6406 277.2656,1229.2031 Q277.5313,1228.9375 277.6719,1228.8594 Q277.8281,1228.7813 278.0313,1228.7813 Q278.3594,1228.7813 278.6094,1229.0469 Q278.875,1229.2969 278.875,1229.6406 Q278.875,1229.9844 278.5313,1230.3906 Q278.0313,1230.9688 277.2344,1231.2969 Q276.1563,1231.75 274.8594,1231.75 Q273.3438,1231.75 272.1406,1231.125 Q271.1563,1230.625 270.4688,1229.5625 Q269.7813,1228.4844 269.7813,1227.2031 L269.7813,1226.0469 Q269.7813,1224.7188 270.3906,1223.5781 Q271.0156,1222.4219 272.1094,1221.8125 Q273.2031,1221.1875 274.4375,1221.1875 Q275.1719,1221.1875 275.8125,1221.3594 Q276.4688,1221.5156 277.0156,1221.875 Z " fill="#000000"/><text fill="#000000" font-family="sans-serif" font-size="14" lengthAdjust="spacing" textLength="161" x="294.75" y="1231.7969">JPANotificationRepository</text><line style="stroke:#181818;stroke-width:0.5;" x1="217.5" x2="500.5" y1="1242" y2="1242"/><line style="stroke:#181818;stroke-width:0.5;" x1="217.5" x2="500.5" y1="1250" y2="1250"/><ellipse cx="227.5" cy="1264.8105" fill="#84BE84" rx="3" ry="3" style="stroke:#038048;stroke-width:1.0;"/><text fill="#000000" font-family="sans-serif" font-size="14" lengthAdjust="spacing" textLength="108" x="236.5" y="1269.1074">save(notification)</text><ellipse cx="227.5" cy="1283.4316" fill="#84BE84" rx="3" ry="3" style="stroke:#038048;stroke-width:1.0;"/><text fill="#000000" font-family="sans-serif" font-size="14" lengthAdjust="spacing" textLength="259" x="236.5" y="1287.7285">findListNotificationsByUser(eCourseUser)</text></g><!--class JPAScheduleRepository--><g id="elem_JPAScheduleRepository"><rect codeLine="72" fill="#F1F1F1" height="66.6211" id="JPAScheduleRepository" rx="2.5" ry="2.5" style="stroke:#181818;stroke-width:0.5;" width="183" x="536.5" y="1219"/><ellipse cx="551.5" cy="1235" fill="#ADD1B2" rx="11" ry="11" style="stroke:#181818;stroke-width:1.0;"/><path d="M554.2656,1230.875 Q554.4219,1230.6563 554.6094,1230.5469 Q554.7969,1230.4375 555.0156,1230.4375 Q555.3906,1230.4375 555.625,1230.7031 Q555.8594,1230.9531 555.8594,1231.5625 L555.8594,1233.0156 Q555.8594,1233.625 555.625,1233.8906 Q555.3906,1234.1563 555.0156,1234.1563 Q554.6719,1234.1563 554.4688,1233.9531 Q554.2656,1233.7656 554.1563,1233.25 Q554.1094,1232.8906 553.9219,1232.7031 Q553.5938,1232.3281 552.9844,1232.1094 Q552.375,1231.8906 551.75,1231.8906 Q550.9844,1231.8906 550.3438,1232.2188 Q549.7188,1232.5469 549.2188,1233.2969 Q548.7344,1234.0469 548.7344,1235.0781 L548.7344,1236.1719 Q548.7344,1237.4063 549.625,1238.2344 Q550.5156,1239.0469 552.1094,1239.0469 Q553.0469,1239.0469 553.7031,1238.7969 Q554.0938,1238.6406 554.5156,1238.2031 Q554.7813,1237.9375 554.9219,1237.8594 Q555.0781,1237.7813 555.2813,1237.7813 Q555.6094,1237.7813 555.8594,1238.0469 Q556.125,1238.2969 556.125,1238.6406 Q556.125,1238.9844 555.7813,1239.3906 Q555.2813,1239.9688 554.4844,1240.2969 Q553.4063,1240.75 552.1094,1240.75 Q550.5938,1240.75 549.3906,1240.125 Q548.4063,1239.625 547.7188,1238.5625 Q547.0313,1237.4844 547.0313,1236.2031 L547.0313,1235.0469 Q547.0313,1233.7188 547.6406,1232.5781 Q548.2656,1231.4219 549.3594,1230.8125 Q550.4531,1230.1875 551.6875,1230.1875 Q552.4219,1230.1875 553.0625,1230.3594 Q553.7188,1230.5156 554.2656,1230.875 Z " fill="#000000"/><text fill="#000000" font-family="sans-serif" font-size="14" lengthAdjust="spacing" textLength="151" x="565.5" y="1240.7969">JPAScheduleRepository</text><line style="stroke:#181818;stroke-width:0.5;" x1="537.5" x2="718.5" y1="1251" y2="1251"/><line style="stroke:#181818;stroke-width:0.5;" x1="537.5" x2="718.5" y1="1259" y2="1259"/><ellipse cx="547.5" cy="1273.8105" fill="#84BE84" rx="3" ry="3" style="stroke:#038048;stroke-width:1.0;"/><text fill="#000000" font-family="sans-serif" font-size="14" lengthAdjust="spacing" textLength="102" x="556.5" y="1278.1074">save(schedule))</text></g><!--class JPATimetableRepository--><g id="elem_JPATimetableRepository"><rect codeLine="75" fill="#F1F1F1" height="66.6211" id="JPATimetableRepository" rx="2.5" ry="2.5" style="stroke:#181818;stroke-width:0.5;" width="186" x="755" y="1219"/><ellipse cx="770" cy="1235" fill="#ADD1B2" rx="11" ry="11" style="stroke:#181818;stroke-width:1.0;"/><path d="M772.7656,1230.875 Q772.9219,1230.6563 773.1094,1230.5469 Q773.2969,1230.4375 773.5156,1230.4375 Q773.8906,1230.4375 774.125,1230.7031 Q774.3594,1230.9531 774.3594,1231.5625 L774.3594,1233.0156 Q774.3594,1233.625 774.125,1233.8906 Q773.8906,1234.1563 773.5156,1234.1563 Q773.1719,1234.1563 772.9688,1233.9531 Q772.7656,1233.7656 772.6563,1233.25 Q772.6094,1232.8906 772.4219,1232.7031 Q772.0938,1232.3281 771.4844,1232.1094 Q770.875,1231.8906 770.25,1231.8906 Q769.4844,1231.8906 768.8438,1232.2188 Q768.2188,1232.5469 767.7188,1233.2969 Q767.2344,1234.0469 767.2344,1235.0781 L767.2344,1236.1719 Q767.2344,1237.4063 768.125,1238.2344 Q769.0156,1239.0469 770.6094,1239.0469 Q771.5469,1239.0469 772.2031,1238.7969 Q772.5938,1238.6406 773.0156,1238.2031 Q773.2813,1237.9375 773.4219,1237.8594 Q773.5781,1237.7813 773.7813,1237.7813 Q774.1094,1237.7813 774.3594,1238.0469 Q774.625,1238.2969 774.625,1238.6406 Q774.625,1238.9844 774.2813,1239.3906 Q773.7813,1239.9688 772.9844,1240.2969 Q771.9063,1240.75 770.6094,1240.75 Q769.0938,1240.75 767.8906,1240.125 Q766.9063,1239.625 766.2188,1238.5625 Q765.5313,1237.4844 765.5313,1236.2031 L765.5313,1235.0469 Q765.5313,1233.7188 766.1406,1232.5781 Q766.7656,1231.4219 767.8594,1230.8125 Q768.9531,1230.1875 770.1875,1230.1875 Q770.9219,1230.1875 771.5625,1230.3594 Q772.2188,1230.5156 772.7656,1230.875 Z " fill="#000000"/><text fill="#000000" font-family="sans-serif" font-size="14" lengthAdjust="spacing" textLength="154" x="784" y="1240.7969">JPATimetableRepository</text><line style="stroke:#181818;stroke-width:0.5;" x1="756" x2="940" y1="1251" y2="1251"/><line style="stroke:#181818;stroke-width:0.5;" x1="756" x2="940" y1="1259" y2="1259"/><ellipse cx="766" cy="1273.8105" fill="#84BE84" rx="3" ry="3" style="stroke:#038048;stroke-width:1.0;"/><text fill="#000000" font-family="sans-serif" font-size="14" lengthAdjust="spacing" textLength="102" x="775" y="1278.1074">save(timeTable)</text></g><!--class JPAECourseUserRepository--><g id="elem_JPAECourseUserRepository"><rect codeLine="78" fill="#F1F1F1" height="85.2422" id="JPAECourseUserRepository" rx="2.5" ry="2.5" style="stroke:#181818;stroke-width:0.5;" width="208" x="976" y="1210"/><ellipse cx="991" cy="1226" fill="#ADD1B2" rx="11" ry="11" style="stroke:#181818;stroke-width:1.0;"/><path d="M993.7656,1221.875 Q993.9219,1221.6563 994.1094,1221.5469 Q994.2969,1221.4375 994.5156,1221.4375 Q994.8906,1221.4375 995.125,1221.7031 Q995.3594,1221.9531 995.3594,1222.5625 L995.3594,1224.0156 Q995.3594,1224.625 995.125,1224.8906 Q994.8906,1225.1563 994.5156,1225.1563 Q994.1719,1225.1563 993.9688,1224.9531 Q993.7656,1224.7656 993.6563,1224.25 Q993.6094,1223.8906 993.4219,1223.7031 Q993.0938,1223.3281 992.4844,1223.1094 Q991.875,1222.8906 991.25,1222.8906 Q990.4844,1222.8906 989.8438,1223.2188 Q989.2188,1223.5469 988.7188,1224.2969 Q988.2344,1225.0469 988.2344,1226.0781 L988.2344,1227.1719 Q988.2344,1228.4063 989.125,1229.2344 Q990.0156,1230.0469 991.6094,1230.0469 Q992.5469,1230.0469 993.2031,1229.7969 Q993.5938,1229.6406 994.0156,1229.2031 Q994.2813,1228.9375 994.4219,1228.8594 Q994.5781,1228.7813 994.7813,1228.7813 Q995.1094,1228.7813 995.3594,1229.0469 Q995.625,1229.2969 995.625,1229.6406 Q995.625,1229.9844 995.2813,1230.3906 Q994.7813,1230.9688 993.9844,1231.2969 Q992.9063,1231.75 991.6094,1231.75 Q990.0938,1231.75 988.8906,1231.125 Q987.9063,1230.625 987.2188,1229.5625 Q986.5313,1228.4844 986.5313,1227.2031 L986.5313,1226.0469 Q986.5313,1224.7188 987.1406,1223.5781 Q987.7656,1222.4219 988.8594,1221.8125 Q989.9531,1221.1875 991.1875,1221.1875 Q991.9219,1221.1875 992.5625,1221.3594 Q993.2188,1221.5156 993.7656,1221.875 Z " fill="#000000"/><text fill="#000000" font-family="sans-serif" font-size="14" lengthAdjust="spacing" textLength="176" x="1005" y="1231.7969">JPAECourseUserRepository</text><line style="stroke:#181818;stroke-width:0.5;" x1="977" x2="1183" y1="1242" y2="1242"/><line style="stroke:#181818;stroke-width:0.5;" x1="977" x2="1183" y1="1250" y2="1250"/><ellipse cx="987" cy="1264.8105" fill="#84BE84" rx="3" ry="3" style="stroke:#038048;stroke-width:1.0;"/><text fill="#000000" font-family="sans-serif" font-size="14" lengthAdjust="spacing" textLength="123" x="996" y="1269.1074">save(eCourseUser)</text><ellipse cx="987" cy="1283.4316" fill="#84BE84" rx="3" ry="3" style="stroke:#038048;stroke-width:1.0;"/><text fill="#000000" font-family="sans-serif" font-size="14" lengthAdjust="spacing" textLength="100" x="996" y="1287.7285">ofIdentity(email)</text></g><!--class JPAParticipantRepository--><g id="elem_JPAParticipantRepository"><rect codeLine="82" fill="#F1F1F1" height="66.6211" id="JPAParticipantRepository" rx="2.5" ry="2.5" style="stroke:#181818;stroke-width:0.5;" width="191" x="1219.5" y="1219"/><ellipse cx="1234.5" cy="1235" fill="#ADD1B2" rx="11" ry="11" style="stroke:#181818;stroke-width:1.0;"/><path d="M1237.2656,1230.875 Q1237.4219,1230.6563 1237.6094,1230.5469 Q1237.7969,1230.4375 1238.0156,1230.4375 Q1238.3906,1230.4375 1238.625,1230.7031 Q1238.8594,1230.9531 1238.8594,1231.5625 L1238.8594,1233.0156 Q1238.8594,1233.625 1238.625,1233.8906 Q1238.3906,1234.1563 1238.0156,1234.1563 Q1237.6719,1234.1563 1237.4688,1233.9531 Q1237.2656,1233.7656 1237.1563,1233.25 Q1237.1094,1232.8906 1236.9219,1232.7031 Q1236.5938,1232.3281 1235.9844,1232.1094 Q1235.375,1231.8906 1234.75,1231.8906 Q1233.9844,1231.8906 1233.3438,1232.2188 Q1232.7188,1232.5469 1232.2188,1233.2969 Q1231.7344,1234.0469 1231.7344,1235.0781 L1231.7344,1236.1719 Q1231.7344,1237.4063 1232.625,1238.2344 Q1233.5156,1239.0469 1235.1094,1239.0469 Q1236.0469,1239.0469 1236.7031,1238.7969 Q1237.0938,1238.6406 1237.5156,1238.2031 Q1237.7813,1237.9375 1237.9219,1237.8594 Q1238.0781,1237.7813 1238.2813,1237.7813 Q1238.6094,1237.7813 1238.8594,1238.0469 Q1239.125,1238.2969 1239.125,1238.6406 Q1239.125,1238.9844 1238.7813,1239.3906 Q1238.2813,1239.9688 1237.4844,1240.2969 Q1236.4063,1240.75 1235.1094,1240.75 Q1233.5938,1240.75 1232.3906,1240.125 Q1231.4063,1239.625 1230.7188,1238.5625 Q1230.0313,1237.4844 1230.0313,1236.2031 L1230.0313,1235.0469 Q1230.0313,1233.7188 1230.6406,1232.5781 Q1231.2656,1231.4219 1232.3594,1230.8125 Q1233.4531,1230.1875 1234.6875,1230.1875 Q1235.4219,1230.1875 1236.0625,1230.3594 Q1236.7188,1230.5156 1237.2656,1230.875 Z " fill="#000000"/><text fill="#000000" font-family="sans-serif" font-size="14" lengthAdjust="spacing" textLength="159" x="1248.5" y="1240.7969">JPAParticipantRepository</text><line style="stroke:#181818;stroke-width:0.5;" x1="1220.5" x2="1409.5" y1="1251" y2="1251"/><line style="stroke:#181818;stroke-width:0.5;" x1="1220.5" x2="1409.5" y1="1259" y2="1259"/><ellipse cx="1230.5" cy="1273.8105" fill="#84BE84" rx="3" ry="3" style="stroke:#038048;stroke-width:1.0;"/><text fill="#000000" font-family="sans-serif" font-size="14" lengthAdjust="spacing" textLength="106" x="1239.5" y="1278.1074">save(participant)</text></g><!--link MeetingRequestsUI to MeetingRequestsController--><g id="link_MeetingRequestsUI_MeetingRequestsController"><path codeLine="87" d="M798,92.17 C798,109.02 798,128.72 798,146.81 " fill="none" id="MeetingRequestsUI-to-MeetingRequestsController" style="stroke:#181818;stroke-width:1.0;stroke-dasharray:7.0,7.0;"/><polygon fill="#181818" points="798,151.86,802,142.86,798,146.86,794,142.86,798,151.86" style="stroke:#181818;stroke-width:1.0;"/></g><!--link MeetingRequestsController to NotificationAcceptanceService--><g id="link_MeetingRequestsController_NotificationAcceptanceService"><path codeLine="88" d="M798,256.03 C798,272.29 798,291.08 798,310.35 " fill="none" id="MeetingRequestsController-to-NotificationAcceptanceService" style="stroke:#181818;stroke-width:1.0;"/><polygon fill="#181818" points="798,315.79,802,306.79,798,310.79,794,306.79,798,315.79" style="stroke:#181818;stroke-width:1.0;"/></g><!--link NotificationAcceptanceService to AuthzRegistry--><g id="link_NotificationAcceptanceService_AuthzRegistry"><path codeLine="90" d="M874.02,569.05 C886.28,589.29 898.06,608.76 907.63,624.56 " fill="none" id="NotificationAcceptanceService-to-AuthzRegistry" style="stroke:#181818;stroke-width:1.0;"/><polygon fill="#181818" points="910.27,628.92,909.0217,619.1506,907.6766,624.6452,902.182,623.3,910.27,628.92" style="stroke:#181818;stroke-width:1.0;"/></g><!--link NotificationAcceptanceService to ParticipantService--><g id="link_NotificationAcceptanceService_ParticipantService"><path codeLine="91" d="M650.86,526.38 C589.37,561.02 521.25,599.4 473.36,626.37 " fill="none" id="NotificationAcceptanceService-to-ParticipantService" style="stroke:#181818;stroke-width:1.0;"/><polygon fill="#181818" points="468.79,628.95,478.5965,628.0377,473.1513,626.5048,474.6842,621.0596,468.79,628.95" style="stroke:#181818;stroke-width:1.0;"/></g><!--link ParticipantService to PersistenceContext--><g id="link_ParticipantService_PersistenceContext"><path codeLine="92" d="M484.39,691.55 C532.73,710.03 596.35,734.35 647.78,754.01 " fill="none" id="ParticipantService-to-PersistenceContext" style="stroke:#181818;stroke-width:1.0;"/><polygon fill="#181818" points="652.72,755.9,645.7415,748.9501,648.0496,754.1147,642.885,756.4227,652.72,755.9" style="stroke:#181818;stroke-width:1.0;"/></g><!--link NotificationAcceptanceService to PersistenceContext--><g id="link_NotificationAcceptanceService_PersistenceContext"><path codeLine="94" d="M945.15,522.32 C1015.01,570.26 1074.34,634.02 1029,696 C983.7,757.93 896.62,779.4 829.47,786.36 " fill="none" id="NotificationAcceptanceService-to-PersistenceContext" style="stroke:#181818;stroke-width:1.0;"/><polygon fill="#181818" points="824.26,786.88,833.6142,789.962,829.235,786.3811,832.8159,782.0019,824.26,786.88" style="stroke:#181818;stroke-width:1.0;"/></g><!--link PersistenceContext to RepositoryFactory--><g id="link_PersistenceContext_RepositoryFactory"><path codeLine="95" d="M738,823.22 C738,839.13 738,858.86 738,877.68 " fill="none" id="PersistenceContext-to-RepositoryFactory" style="stroke:#181818;stroke-width:1.0;"/><polygon fill="#181818" points="738,882.96,742,873.96,738,877.96,734,873.96,738,882.96" style="stroke:#181818;stroke-width:1.0;"/></g><!--link NotificationAcceptanceService to AuthorizationService--><g id="link_NotificationAcceptanceService_AuthorizationService"><path codeLine="97" d="M721.98,569.05 C709.72,589.29 697.94,608.76 688.37,624.56 " fill="none" id="NotificationAcceptanceService-to-AuthorizationService" style="stroke:#181818;stroke-width:1.0;"/><polygon fill="#181818" points="685.73,628.92,693.818,623.3,688.3234,624.6452,686.9783,619.1506,685.73,628.92" style="stroke:#181818;stroke-width:1.0;"/></g><!--link RepositoryFactory to ECourseUserRepository--><g id="link_RepositoryFactory_ECourseUserRepository"><path codeLine="98" d="M830.36,990.2 C876.63,1012.85 932.42,1040.15 978.32,1062.61 " fill="none" id="RepositoryFactory-to-ECourseUserRepository" style="stroke:#181818;stroke-width:1.0;"/><polygon fill="#181818" points="983.01,1064.91,976.6909,1057.3556,978.5208,1062.7083,973.1682,1064.5383,983.01,1064.91" style="stroke:#181818;stroke-width:1.0;"/></g><!--link RepositoryFactory to NotificationRepository--><g id="link_RepositoryFactory_NotificationRepository"><path codeLine="99" d="M645.8,984.92 C591.14,1008.59 521.81,1038.61 465.72,1062.89 " fill="none" id="RepositoryFactory-to-NotificationRepository" style="stroke:#181818;stroke-width:1.0;"/><polygon fill="#181818" points="461.02,1064.93,470.8683,1065.0355,465.6105,1062.9484,467.6977,1057.6906,461.02,1064.93" style="stroke:#181818;stroke-width:1.0;"/></g><!--link RepositoryFactory to MeetingRepository--><g id="link_RepositoryFactory_MeetingRepository"><path codeLine="100" d="M645.69,960.69 C538.36,980.09 356.57,1016.58 205,1065 C198.29,1067.14 191.41,1069.56 184.55,1072.12 " fill="none" id="RepositoryFactory-to-MeetingRepository" style="stroke:#181818;stroke-width:1.0;"/><polygon fill="#181818" points="179.8,1073.91,189.633,1074.469,184.4769,1072.1419,186.804,1066.9858,179.8,1073.91" style="stroke:#181818;stroke-width:1.0;"/></g><!--link RepositoryFactory to ScheduleRepository--><g id="link_RepositoryFactory_ScheduleRepository"><path codeLine="101" d="M699.27,1005.14 C685.31,1026.81 669.99,1050.62 657.69,1069.7 " fill="none" id="RepositoryFactory-to-ScheduleRepository" style="stroke:#181818;stroke-width:1.0;"/><polygon fill="#181818" points="654.96,1073.95,663.2045,1068.5622,657.6739,1069.7506,656.4855,1064.22,654.96,1073.95" style="stroke:#181818;stroke-width:1.0;"/></g><!--link RepositoryFactory to TimetableRepository--><g id="link_RepositoryFactory_TimetableRepository"><path codeLine="102" d="M776.73,1005.14 C790.69,1026.81 806.01,1050.62 818.31,1069.7 " fill="none" id="RepositoryFactory-to-TimetableRepository" style="stroke:#181818;stroke-width:1.0;"/><polygon fill="#181818" points="821.04,1073.95,819.5145,1064.22,818.3261,1069.7506,812.7955,1068.5622,821.04,1073.95" style="stroke:#181818;stroke-width:1.0;"/></g><!--link MeetingRepository to JPAMeetingRepository--><g id="link_MeetingRepository_JPAMeetingRepository"><path codeLine="103" d="M103.25,1141.31 C101.43,1162.93 99.05,1191.3 97.16,1213.84 " fill="none" id="MeetingRepository-to-JPAMeetingRepository" style="stroke:#181818;stroke-width:1.0;"/><polygon fill="#181818" points="96.74,1218.85,101.4715,1210.2121,97.154,1213.8672,93.499,1209.5497,96.74,1218.85" style="stroke:#181818;stroke-width:1.0;"/></g><!--link RepositoryFactory to ParticipantRepository--><g id="link_RepositoryFactory_ParticipantRepository"><path codeLine="104" d="M830.33,968.41 C919.69,991.49 1058.76,1028.5 1178,1065 C1188.86,1068.32 1200.2,1071.96 1211.42,1075.66 " fill="none" id="RepositoryFactory-to-ParticipantRepository" style="stroke:#181818;stroke-width:1.0;"/><polygon fill="#181818" points="1216.22,1077.24,1208.9348,1070.6124,1211.4737,1075.6674,1206.4187,1078.2064,1216.22,1077.24" style="stroke:#181818;stroke-width:1.0;"/></g><!--link NotificationRepository to JPANotificationRepository--><g id="link_NotificationRepository_JPANotificationRepository"><path codeLine="105" d="M363.25,1150.25 C362.53,1167.28 361.7,1187.06 360.97,1204.59 " fill="none" id="NotificationRepository-to-JPANotificationRepository" style="stroke:#181818;stroke-width:1.0;"/><polygon fill="#181818" points="360.74,1209.95,365.1217,1201.1295,360.9541,1204.9546,357.129,1200.787,360.74,1209.95" style="stroke:#181818;stroke-width:1.0;"/></g><!--link ScheduleRepository to JPAScheduleRepository--><g id="link_ScheduleRepository_JPAScheduleRepository"><path codeLine="106" d="M632.62,1141.31 C631.72,1162.93 630.53,1191.3 629.58,1213.84 " fill="none" id="ScheduleRepository-to-JPAScheduleRepository" style="stroke:#181818;stroke-width:1.0;"/><polygon fill="#181818" points="629.37,1218.85,633.7265,1210.0171,629.5698,1213.854,625.7329,1209.6973,629.37,1218.85" style="stroke:#181818;stroke-width:1.0;"/></g><!--link TimetableRepository to JPATimetableRepository--><g id="link_TimetableRepository_JPATimetableRepository"><path codeLine="107" d="M843.38,1141.31 C844.28,1162.93 845.47,1191.3 846.42,1213.84 " fill="none" id="TimetableRepository-to-JPATimetableRepository" style="stroke:#181818;stroke-width:1.0;"/><polygon fill="#181818" points="846.63,1218.85,850.2671,1209.6973,846.4302,1213.854,842.2735,1210.0171,846.63,1218.85" style="stroke:#181818;stroke-width:1.0;"/></g><!--link ECourseUserRepository to JPAECourseUserRepository--><g id="link_ECourseUserRepository_JPAECourseUserRepository"><path codeLine="108" d="M1071.5,1150.25 C1072.93,1167.28 1074.59,1187.06 1076.06,1204.59 " fill="none" id="ECourseUserRepository-to-JPAECourseUserRepository" style="stroke:#181818;stroke-width:1.0;"/><polygon fill="#181818" points="1076.51,1209.95,1079.751,1200.6497,1076.096,1204.9672,1071.7785,1201.3121,1076.51,1209.95" style="stroke:#181818;stroke-width:1.0;"/></g><!--link ParticipantRepository to JPAParticipantRepository--><g id="link_ParticipantRepository_JPAParticipantRepository"><path codeLine="109" d="M1303.44,1141.31 C1305.71,1162.93 1308.68,1191.3 1311.05,1213.84 " fill="none" id="ParticipantRepository-to-JPAParticipantRepository" style="stroke:#181818;stroke-width:1.0;"/><polygon fill="#181818" points="1311.57,1218.85,1314.596,1209.4775,1311.0414,1213.878,1306.6409,1210.3233,1311.57,1218.85" style="stroke:#181818;stroke-width:1.0;"/></g><!--SRC=[pLRRJkCm47ttL-In4T1FG2hL8h5QBYhm0LvtKYobJjPsofQ8VySsDNNYSKcxL8iVqdGySyvS7REIAfLT0sWk5ZFuqu3Iwl6g9ISbL_gskAaqBpYZcbT2ZN9o8WB1RMsV8zP82KAVKg6UGURabJ0CTLe9BQko16dGfnAe1Wkuul2y3qjHqaLEijtBkn02JnY3MbF1u1xaYZCmRj16FrMIlpY5ZTZoRzqhk9W_Af3sNO5IrfLyl01jdjRQk6JnOQCqXYNbfLMkYgkvtTJhaPDji7wPj7R2lLWxIvXMZLHWtoqJNS4eJ8AHCUVJ7PM6aDTKwBw2Crg-9zt_rNm93_Ht2LxGuVaiZM4g0-9j_XnalTr95yR3J92Cj_kbzdDVBSdB31OcrtATBdEsp_h80qXbSC7qaUre-AiDWN5w1dMbkAxa-f8o-xClmOQ56qnPK0PPX6Y8bdwc_9RhI_O4ywQ4hjIMNjlITyN0FXgWiv4Tia9th_kkjVsM_6UAS71Ydjuu39wsxE0L-dOV5S7xvSkJ7qeLqZp4LMtZMV-2U7vCaJvfiLC4EUg-9AF1YHDxCEZG6JpKF-ycnsdVWE2RDM_WsV5QDo0vPkC6DF-bRGF-upVjAo4akh1bu_5v-i95aZlPsTdvxbiI8Jkt7K3dUpj0FxvBa5ZqhXbzROVuWrZ58gSPVME7Xjk_Jf08oQcYxPZGnG-8X79qN2NqujbEA2BpII8IfuaTbWbGT1e87gZ7JgGX3iGR824YmNXjB4wqIju0Bo4QcJV1mtu3]--></g></svg>