<?xml version="1.0" encoding="us-ascii" standalone="no"?><svg xmlns="http://www.w3.org/2000/svg" xmlns:xlink="http://www.w3.org/1999/xlink" contentStyleType="text/css" height="761px" preserveAspectRatio="none" style="width:977px;height:761px;background:#FFFFFF;" version="1.1" viewBox="0 0 977 761" width="977px" zoomAndPan="magnify"><defs/><g><!--cluster <<Aggregate>> User--><g id="cluster_&lt;&lt;Aggregate&gt;&gt; User"><rect fill="#BBAABB" height="440" rx="2.5" ry="2.5" style="stroke:#181818;stroke-width:1.0;" width="284" x="7" y="197"/><text fill="#000000" font-family="sans-serif" font-size="14" font-weight="bold" lengthAdjust="spacing" textLength="126" x="86" y="214.1074">&#171;Aggregate&#187; User</text></g><!--cluster <<Aggregate>> Meeting--><g id="cluster_&lt;&lt;Aggregate&gt;&gt; Meeting"><rect fill="#32CD32" height="298" rx="2.5" ry="2.5" style="stroke:#181818;stroke-width:1.0;" width="167" x="315" y="7"/><text fill="#000000" font-family="sans-serif" font-size="14" font-weight="bold" lengthAdjust="spacing" textLength="151" x="323" y="24.1074">&#171;Aggregate&#187; Meeting</text></g><!--cluster <<Aggregate>> Notification--><g id="cluster_&lt;&lt;Aggregate&gt;&gt; Notification"><rect fill="#FFB6C1" height="390" rx="2.5" ry="2.5" style="stroke:#181818;stroke-width:1.0;" width="266" x="705" y="365"/><text fill="#000000" font-family="sans-serif" font-size="14" font-weight="bold" lengthAdjust="spacing" textLength="173" x="751.5" y="382.1074">&#171;Aggregate&#187; Notification</text></g><!--cluster <<Aggregate>> Invitation--><g id="cluster_&lt;&lt;Aggregate&gt;&gt; Invitation"><rect fill="#F5DEB3" height="298" rx="2.5" ry="2.5" style="stroke:#181818;stroke-width:1.0;" width="175" x="506" y="186"/><text fill="#000000" font-family="sans-serif" font-size="14" font-weight="bold" lengthAdjust="spacing" textLength="159" x="514" y="203.1074">&#171;Aggregate&#187; Invitation</text></g><!--class User--><g id="elem_User"><rect codeLine="4" fill="#F1F1F1" height="92.5039" id="User" rx="2.5" ry="2.5" style="stroke:#181818;stroke-width:0.5;" width="87" x="187.5" y="394"/><ellipse cx="202.5" cy="432.252" fill="#ADD1B2" rx="11" ry="11" style="stroke:#181818;stroke-width:1.0;"/><path d="M201.3594,433.0488 L201.3594,435.5488 L205.6875,435.5488 L205.6875,434.627 Q205.6875,434.0176 205.9219,433.752 Q206.1719,433.4863 206.5469,433.4863 Q206.9219,433.4863 207.1563,433.752 Q207.3906,434.0176 207.3906,434.627 L207.3906,437.252 L199.3906,437.252 Q198.7656,437.252 198.5,437.0176 Q198.25,436.7832 198.25,436.3926 Q198.25,436.0176 198.5156,435.7832 Q198.7813,435.5488 199.3906,435.5488 L199.6563,435.5488 L199.6563,428.8926 L199.3906,428.8926 Q198.7656,428.8926 198.5,428.6582 Q198.25,428.4238 198.25,428.0332 Q198.25,427.6582 198.5,427.4238 Q198.7656,427.1895 199.3906,427.1895 L207.0156,427.1895 L207.0156,429.7832 Q207.0156,430.3926 206.7813,430.6582 Q206.5625,430.9082 206.1719,430.9082 Q205.7969,430.9082 205.5625,430.6582 Q205.3281,430.3926 205.3281,429.7832 L205.3281,428.8926 L201.3594,428.8926 L201.3594,431.3457 L202.8438,431.3457 Q202.8438,430.6895 202.9688,430.502 Q203.2344,430.0957 203.7031,430.0957 Q204.0781,430.0957 204.3125,430.3613 Q204.5469,430.6113 204.5469,431.2207 L204.5469,433.1895 Q204.5469,433.7363 204.4219,433.9238 Q204.1563,434.3145 203.7031,434.3145 Q203.2344,434.3145 202.9688,433.9082 Q202.8438,433.7207 202.8438,433.0488 L201.3594,433.0488 Z " fill="#000000"/><text fill="#000000" font-family="sans-serif" font-size="12" font-style="italic" lengthAdjust="spacing" textLength="40" x="224" y="411.9492">&#171;Root&#187;</text><text fill="#000000" font-family="sans-serif" font-size="12" font-style="italic" lengthAdjust="spacing" textLength="44" x="222" y="427.9102">&#171;Entity&#187;</text><text fill="#000000" font-family="sans-serif" font-size="12" font-style="italic" lengthAdjust="spacing" textLength="59" x="214.5" y="443.8711">&#171;Strategy&#187;</text><text fill="#000000" font-family="sans-serif" font-size="14" lengthAdjust="spacing" textLength="29" x="229.5" y="461.9902">User</text><line style="stroke:#181818;stroke-width:0.5;" x1="188.5" x2="273.5" y1="470.5039" y2="470.5039"/><line style="stroke:#181818;stroke-width:0.5;" x1="188.5" x2="273.5" y1="478.5039" y2="478.5039"/></g><g id="elem_BirthDate"><rect fill="#F1F1F1" height="54.582" style="stroke:#181818;stroke-width:0.5;" width="95" x="49.5" y="234"/><text fill="#000000" font-family="sans-serif" font-size="12" font-style="italic" lengthAdjust="spacing" textLength="85" x="54.5" y="246.9492">&#171;Value Object&#187;</text><text fill="#000000" font-family="sans-serif" font-size="14" lengthAdjust="spacing" textLength="59" x="67.5" y="267.0684">BirthDate</text><line style="stroke:#181818;stroke-width:0.5;" x1="50.5" x2="143.5" y1="272.582" y2="272.582"/></g><g id="elem_TaxNumber"><rect fill="#F1F1F1" height="70.543" style="stroke:#181818;stroke-width:0.5;" width="95" x="23.5" y="405"/><text fill="#000000" font-family="sans-serif" font-size="12" font-style="italic" lengthAdjust="spacing" textLength="85" x="28.5" y="417.9492">&#171;Value Object&#187;</text><text fill="#000000" font-family="sans-serif" font-size="12" font-style="italic" lengthAdjust="spacing" textLength="25" x="58.5" y="433.9102">&#171;Id&#187;</text><text fill="#000000" font-family="sans-serif" font-size="14" lengthAdjust="spacing" textLength="72" x="35" y="454.0293">TaxNumber</text><line style="stroke:#181818;stroke-width:0.5;" x1="24.5" x2="117.5" y1="459.543" y2="459.543"/></g><g id="elem_FullName"><rect fill="#F1F1F1" height="54.582" style="stroke:#181818;stroke-width:0.5;" width="95" x="179.5" y="566"/><text fill="#000000" font-family="sans-serif" font-size="12" font-style="italic" lengthAdjust="spacing" textLength="85" x="184.5" y="578.9492">&#171;Value Object&#187;</text><text fill="#000000" font-family="sans-serif" font-size="14" lengthAdjust="spacing" textLength="59" x="197.5" y="599.0684">FullName</text><line style="stroke:#181818;stroke-width:0.5;" x1="180.5" x2="273.5" y1="604.582" y2="604.582"/></g><g id="elem_ShortName"><rect fill="#F1F1F1" height="54.582" style="stroke:#181818;stroke-width:0.5;" width="95" x="179.5" y="234"/><text fill="#000000" font-family="sans-serif" font-size="12" font-style="italic" lengthAdjust="spacing" textLength="85" x="184.5" y="246.9492">&#171;Value Object&#187;</text><text fill="#000000" font-family="sans-serif" font-size="14" lengthAdjust="spacing" textLength="70" x="192" y="267.0684">ShortName</text><line style="stroke:#181818;stroke-width:0.5;" x1="180.5" x2="273.5" y1="272.582" y2="272.582"/></g><!--class Meeting--><g id="elem_Meeting"><rect codeLine="18" fill="#F1F1F1" height="76.543" id="Meeting" rx="2.5" ry="2.5" style="stroke:#181818;stroke-width:0.5;" width="82" x="382" y="44"/><ellipse cx="397" cy="74.2715" fill="#ADD1B2" rx="11" ry="11" style="stroke:#181818;stroke-width:1.0;"/><path d="M395.8594,75.0684 L395.8594,77.5684 L400.1875,77.5684 L400.1875,76.6465 Q400.1875,76.0371 400.4219,75.7715 Q400.6719,75.5059 401.0469,75.5059 Q401.4219,75.5059 401.6563,75.7715 Q401.8906,76.0371 401.8906,76.6465 L401.8906,79.2715 L393.8906,79.2715 Q393.2656,79.2715 393,79.0371 Q392.75,78.8027 392.75,78.4121 Q392.75,78.0371 393.0156,77.8027 Q393.2813,77.5684 393.8906,77.5684 L394.1563,77.5684 L394.1563,70.9121 L393.8906,70.9121 Q393.2656,70.9121 393,70.6777 Q392.75,70.4434 392.75,70.0527 Q392.75,69.6777 393,69.4434 Q393.2656,69.209 393.8906,69.209 L401.5156,69.209 L401.5156,71.8027 Q401.5156,72.4121 401.2813,72.6777 Q401.0625,72.9277 400.6719,72.9277 Q400.2969,72.9277 400.0625,72.6777 Q399.8281,72.4121 399.8281,71.8027 L399.8281,70.9121 L395.8594,70.9121 L395.8594,73.3652 L397.3438,73.3652 Q397.3438,72.709 397.4688,72.5215 Q397.7344,72.1152 398.2031,72.1152 Q398.5781,72.1152 398.8125,72.3809 Q399.0469,72.6309 399.0469,73.2402 L399.0469,75.209 Q399.0469,75.7559 398.9219,75.9434 Q398.6563,76.334 398.2031,76.334 Q397.7344,76.334 397.4688,75.9277 Q397.3438,75.7402 397.3438,75.0684 L395.8594,75.0684 Z " fill="#000000"/><text fill="#000000" font-family="sans-serif" font-size="12" font-style="italic" lengthAdjust="spacing" textLength="40" x="416" y="61.9492">&#171;Root&#187;</text><text fill="#000000" font-family="sans-serif" font-size="12" font-style="italic" lengthAdjust="spacing" textLength="44" x="414" y="77.9102">&#171;Entity&#187;</text><text fill="#000000" font-family="sans-serif" font-size="14" lengthAdjust="spacing" textLength="50" x="411" y="96.0293">Meeting</text><line style="stroke:#181818;stroke-width:0.5;" x1="383" x2="463" y1="104.543" y2="104.543"/><line style="stroke:#181818;stroke-width:0.5;" x1="383" x2="463" y1="112.543" y2="112.543"/></g><g id="elem_MeetingState"><rect fill="#F1F1F1" height="54.582" style="stroke:#181818;stroke-width:0.5;" width="97" x="368.5" y="234"/><text fill="#000000" font-family="sans-serif" font-size="12" font-style="italic" lengthAdjust="spacing" textLength="85" x="374.5" y="246.9492">&#171;Value Object&#187;</text><text fill="#000000" font-family="sans-serif" font-size="14" lengthAdjust="spacing" textLength="83" x="375.5" y="267.0684">MeetingState</text><line style="stroke:#181818;stroke-width:0.5;" x1="369.5" x2="464.5" y1="272.582" y2="272.582"/></g><!--class Notification--><g id="elem_Notification"><rect codeLine="25" fill="#F1F1F1" height="76.543" id="Notification" rx="2.5" ry="2.5" style="stroke:#181818;stroke-width:0.5;" width="101" x="735.5" y="402"/><ellipse cx="750.5" cy="432.2715" fill="#ADD1B2" rx="11" ry="11" style="stroke:#181818;stroke-width:1.0;"/><path d="M749.3594,433.0684 L749.3594,435.5684 L753.6875,435.5684 L753.6875,434.6465 Q753.6875,434.0371 753.9219,433.7715 Q754.1719,433.5059 754.5469,433.5059 Q754.9219,433.5059 755.1563,433.7715 Q755.3906,434.0371 755.3906,434.6465 L755.3906,437.2715 L747.3906,437.2715 Q746.7656,437.2715 746.5,437.0371 Q746.25,436.8027 746.25,436.4121 Q746.25,436.0371 746.5156,435.8027 Q746.7813,435.5684 747.3906,435.5684 L747.6563,435.5684 L747.6563,428.9121 L747.3906,428.9121 Q746.7656,428.9121 746.5,428.6777 Q746.25,428.4434 746.25,428.0527 Q746.25,427.6777 746.5,427.4434 Q746.7656,427.209 747.3906,427.209 L755.0156,427.209 L755.0156,429.8027 Q755.0156,430.4121 754.7813,430.6777 Q754.5625,430.9277 754.1719,430.9277 Q753.7969,430.9277 753.5625,430.6777 Q753.3281,430.4121 753.3281,429.8027 L753.3281,428.9121 L749.3594,428.9121 L749.3594,431.3652 L750.8438,431.3652 Q750.8438,430.709 750.9688,430.5215 Q751.2344,430.1152 751.7031,430.1152 Q752.0781,430.1152 752.3125,430.3809 Q752.5469,430.6309 752.5469,431.2402 L752.5469,433.209 Q752.5469,433.7559 752.4219,433.9434 Q752.1563,434.334 751.7031,434.334 Q751.2344,434.334 750.9688,433.9277 Q750.8438,433.7402 750.8438,433.0684 L749.3594,433.0684 Z " fill="#000000"/><text fill="#000000" font-family="sans-serif" font-size="12" font-style="italic" lengthAdjust="spacing" textLength="40" x="779" y="419.9492">&#171;Root&#187;</text><text fill="#000000" font-family="sans-serif" font-size="12" font-style="italic" lengthAdjust="spacing" textLength="44" x="777" y="435.9102">&#171;Entity&#187;</text><text fill="#000000" font-family="sans-serif" font-size="14" lengthAdjust="spacing" textLength="69" x="764.5" y="454.0293">Notification</text><line style="stroke:#181818;stroke-width:0.5;" x1="736.5" x2="835.5" y1="462.543" y2="462.543"/><line style="stroke:#181818;stroke-width:0.5;" x1="736.5" x2="835.5" y1="470.543" y2="470.543"/></g><g id="elem_TypeOfNotification"><rect fill="#F1F1F1" height="54.582" style="stroke:#181818;stroke-width:0.5;" width="130" x="721" y="566"/><text fill="#000000" font-family="sans-serif" font-size="12" font-style="italic" lengthAdjust="spacing" textLength="85" x="743.5" y="578.9492">&#171;Value Object&#187;</text><text fill="#000000" font-family="sans-serif" font-size="14" lengthAdjust="spacing" textLength="116" x="728" y="599.0684">TypeOfNotification</text><line style="stroke:#181818;stroke-width:0.5;" x1="722" x2="850" y1="604.582" y2="604.582"/></g><g id="elem_NotificationDescription"><rect fill="#F1F1F1" height="54.582" style="stroke:#181818;stroke-width:0.5;" width="154" x="801" y="684"/><text fill="#000000" font-family="sans-serif" font-size="12" font-style="italic" lengthAdjust="spacing" textLength="85" x="835.5" y="696.9492">&#171;Value Object&#187;</text><text fill="#000000" font-family="sans-serif" font-size="14" lengthAdjust="spacing" textLength="140" x="808" y="717.0684">NotificationDescription</text><line style="stroke:#181818;stroke-width:0.5;" x1="802" x2="954" y1="722.582" y2="722.582"/></g><!--class Invitation--><g id="elem_Invitation"><rect codeLine="33" fill="#F1F1F1" height="76.543" id="Invitation" rx="2.5" ry="2.5" style="stroke:#181818;stroke-width:0.5;" width="88" x="526" y="223"/><ellipse cx="541" cy="253.2715" fill="#ADD1B2" rx="11" ry="11" style="stroke:#181818;stroke-width:1.0;"/><path d="M539.8594,254.0684 L539.8594,256.5684 L544.1875,256.5684 L544.1875,255.6465 Q544.1875,255.0371 544.4219,254.7715 Q544.6719,254.5059 545.0469,254.5059 Q545.4219,254.5059 545.6563,254.7715 Q545.8906,255.0371 545.8906,255.6465 L545.8906,258.2715 L537.8906,258.2715 Q537.2656,258.2715 537,258.0371 Q536.75,257.8027 536.75,257.4121 Q536.75,257.0371 537.0156,256.8027 Q537.2813,256.5684 537.8906,256.5684 L538.1563,256.5684 L538.1563,249.9121 L537.8906,249.9121 Q537.2656,249.9121 537,249.6777 Q536.75,249.4434 536.75,249.0527 Q536.75,248.6777 537,248.4434 Q537.2656,248.209 537.8906,248.209 L545.5156,248.209 L545.5156,250.8027 Q545.5156,251.4121 545.2813,251.6777 Q545.0625,251.9277 544.6719,251.9277 Q544.2969,251.9277 544.0625,251.6777 Q543.8281,251.4121 543.8281,250.8027 L543.8281,249.9121 L539.8594,249.9121 L539.8594,252.3652 L541.3438,252.3652 Q541.3438,251.709 541.4688,251.5215 Q541.7344,251.1152 542.2031,251.1152 Q542.5781,251.1152 542.8125,251.3809 Q543.0469,251.6309 543.0469,252.2402 L543.0469,254.209 Q543.0469,254.7559 542.9219,254.9434 Q542.6563,255.334 542.2031,255.334 Q541.7344,255.334 541.4688,254.9277 Q541.3438,254.7402 541.3438,254.0684 L539.8594,254.0684 Z " fill="#000000"/><text fill="#000000" font-family="sans-serif" font-size="12" font-style="italic" lengthAdjust="spacing" textLength="44" x="561" y="240.9492">&#171;Entity&#187;</text><text fill="#000000" font-family="sans-serif" font-size="12" font-style="italic" lengthAdjust="spacing" textLength="40" x="563" y="256.9102">&#171;Root&#187;</text><text fill="#000000" font-family="sans-serif" font-size="14" lengthAdjust="spacing" textLength="56" x="555" y="275.0293">Invitation</text><line style="stroke:#181818;stroke-width:0.5;" x1="527" x2="613" y1="283.543" y2="283.543"/><line style="stroke:#181818;stroke-width:0.5;" x1="527" x2="613" y1="291.543" y2="291.543"/></g><g id="elem_InvitationState"><rect fill="#F1F1F1" height="54.582" style="stroke:#181818;stroke-width:0.5;" width="103" x="522.5" y="413"/><text fill="#000000" font-family="sans-serif" font-size="12" font-style="italic" lengthAdjust="spacing" textLength="85" x="531.5" y="425.9492">&#171;Value Object&#187;</text><text fill="#000000" font-family="sans-serif" font-size="14" lengthAdjust="spacing" textLength="89" x="529.5" y="446.0684">InvitationState</text><line style="stroke:#181818;stroke-width:0.5;" x1="523.5" x2="624.5" y1="451.582" y2="451.582"/></g><!--reverse link BirthDate to User--><g id="link_BirthDate_User"><path codeLine="10" d="M120.37,293.37 C141.37,321.11 172.47,362.19 196.36,393.74 " fill="none" id="BirthDate-backto-User" style="stroke:#181818;stroke-width:1.0;"/><polygon fill="#181818" points="117.35,289.38,119.5937,298.9699,120.3682,293.3663,125.9718,294.1408,117.35,289.38" style="stroke:#181818;stroke-width:1.0;"/><text fill="#000000" font-family="sans-serif" font-size="13" lengthAdjust="spacing" textLength="32" x="161" y="345.0283">has a</text><text fill="#000000" font-family="sans-serif" font-size="13" lengthAdjust="spacing" textLength="7" x="113.6673" y="310.6404">1</text><text fill="#000000" font-family="sans-serif" font-size="13" lengthAdjust="spacing" textLength="7" x="183.7582" y="382.7098">1</text></g><!--reverse link TaxNumber to User--><g id="link_TaxNumber_User"><path codeLine="11" d="M123.76,440.5 C144.39,440.5 167.78,440.5 187.43,440.5 " fill="none" id="TaxNumber-backto-User" style="stroke:#181818;stroke-width:1.0;"/><polygon fill="#181818" points="118.57,440.5,127.57,444.5,123.57,440.5,127.57,436.5,118.57,440.5" style="stroke:#181818;stroke-width:1.0;"/><text fill="#000000" font-family="sans-serif" font-size="13" lengthAdjust="spacing" textLength="32" x="137" y="433.5283">has a</text><text fill="#000000" font-family="sans-serif" font-size="13" lengthAdjust="spacing" textLength="7" x="126.3901" y="436.284">1</text><text fill="#000000" font-family="sans-serif" font-size="13" lengthAdjust="spacing" textLength="7" x="172.634" y="436.1857">1</text></g><!--link User to FullName--><g id="link_User_FullName"><path codeLine="12" d="M229.79,487.21 C229.16,510.9 228.41,539.25 227.85,560.55 " fill="none" id="User-to-FullName" style="stroke:#181818;stroke-width:1.0;"/><polygon fill="#181818" points="227.71,565.81,231.94,556.9158,227.8385,560.8117,223.9427,556.7102,227.71,565.81" style="stroke:#181818;stroke-width:1.0;"/><text fill="#000000" font-family="sans-serif" font-size="13" lengthAdjust="spacing" textLength="32" x="230" y="532.0283">has a</text><text fill="#000000" font-family="sans-serif" font-size="13" lengthAdjust="spacing" textLength="7" x="222.1865" y="508.3625">1</text><text fill="#000000" font-family="sans-serif" font-size="13" lengthAdjust="spacing" textLength="7" x="220.0648" y="554.5514">1</text></g><!--reverse link ShortName to User--><g id="link_ShortName_User"><path codeLine="13" d="M227.72,294.4 C228.35,322.11 229.26,362.58 229.97,393.74 " fill="none" id="ShortName-backto-User" style="stroke:#181818;stroke-width:1.0;"/><polygon fill="#181818" points="227.61,289.38,223.8167,298.4691,227.7243,294.3787,231.8146,298.2862,227.61,289.38" style="stroke:#181818;stroke-width:1.0;"/><text fill="#000000" font-family="sans-serif" font-size="13" lengthAdjust="spacing" textLength="32" x="230" y="345.0283">has a</text><text fill="#000000" font-family="sans-serif" font-size="13" lengthAdjust="spacing" textLength="7" x="220.041" y="310.6404">1</text><text fill="#000000" font-family="sans-serif" font-size="13" lengthAdjust="spacing" textLength="7" x="222.3047" y="382.7098">1</text></g><!--link Meeting to MeetingState--><g id="link_Meeting_MeetingState"><path codeLine="20" d="M421.73,121.04 C420.64,153.08 419.1,198.64 418.07,228.86 " fill="none" id="Meeting-to-MeetingState" style="stroke:#181818;stroke-width:1.0;"/><polygon fill="#181818" points="417.9,233.94,422.1807,225.0701,418.0571,228.9425,414.1847,224.8188,417.9,233.94" style="stroke:#181818;stroke-width:1.0;"/><text fill="#000000" font-family="sans-serif" font-size="13" lengthAdjust="spacing" textLength="32" x="422" y="166.0283">has a</text><text fill="#000000" font-family="sans-serif" font-size="13" lengthAdjust="spacing" textLength="7" x="413.9698" y="142.6249">1</text><text fill="#000000" font-family="sans-serif" font-size="13" lengthAdjust="spacing" textLength="7" x="410.2988" y="222.7114">1</text></g><!--link Notification to TypeOfNotification--><g id="link_Notification_TypeOfNotification"><path codeLine="28" d="M786,479.21 C786,504.23 786,536.7 786,560.46 " fill="none" id="Notification-to-TypeOfNotification" style="stroke:#181818;stroke-width:1.0;"/><polygon fill="#181818" points="786,565.69,790,556.69,786,560.69,782,556.69,786,565.69" style="stroke:#181818;stroke-width:1.0;"/><text fill="#000000" font-family="sans-serif" font-size="13" lengthAdjust="spacing" textLength="32" x="787" y="532.0283">has a</text><text fill="#000000" font-family="sans-serif" font-size="13" lengthAdjust="spacing" textLength="7" x="778.4641" y="500.5246">1</text><text fill="#000000" font-family="sans-serif" font-size="13" lengthAdjust="spacing" textLength="7" x="778.2344" y="554.8531">1</text></g><!--link Notification to NotificationDescription--><g id="link_Notification_NotificationDescription"><path codeLine="29" d="M818.69,479.03 C836.98,502.39 858.21,534 869,566 C881.56,603.26 882.13,648.95 880.67,678.85 " fill="none" id="Notification-to-NotificationDescription" style="stroke:#181818;stroke-width:1.0;"/><polygon fill="#181818" points="880.4,683.87,884.882,675.1001,880.671,678.8774,876.8937,674.6664,880.4,683.87" style="stroke:#181818;stroke-width:1.0;"/><text fill="#000000" font-family="sans-serif" font-size="13" lengthAdjust="spacing" textLength="32" x="882" y="599.0283">has a</text><text fill="#000000" font-family="sans-serif" font-size="13" lengthAdjust="spacing" textLength="7" x="816.3422" y="500.6133">1</text><text fill="#000000" font-family="sans-serif" font-size="13" lengthAdjust="spacing" textLength="7" x="873.1456" y="672.6252">1</text></g><!--link Meeting to Invitation--><g id="link_Meeting_Invitation"><path codeLine="35" d="M454.17,121.04 C477.97,149.69 510.74,189.15 535.35,218.78 " fill="none" id="Meeting-to-Invitation" style="stroke:#181818;stroke-width:1.0;"/><polygon fill="#181818" points="538.62,222.71,535.9555,213.2284,535.4289,218.8607,529.7967,218.3341,538.62,222.71" style="stroke:#181818;stroke-width:1.0;"/><text fill="#000000" font-family="sans-serif" font-size="13" lengthAdjust="spacing" textLength="7" x="451.5799" y="142.6249">1</text><text fill="#000000" font-family="sans-serif" font-size="13" lengthAdjust="spacing" textLength="7" x="525.625" y="211.6746">1</text></g><!--link Invitation to InvitationState--><g id="link_Invitation_InvitationState"><path codeLine="37" d="M570.85,300.04 C571.57,332.08 572.6,377.64 573.28,407.86 " fill="none" id="Invitation-to-InvitationState" style="stroke:#181818;stroke-width:1.0;"/><polygon fill="#181818" points="573.4,412.94,577.1933,403.8509,573.2857,407.9413,569.1954,404.0338,573.4,412.94" style="stroke:#181818;stroke-width:1.0;"/><text fill="#000000" font-family="sans-serif" font-size="13" lengthAdjust="spacing" textLength="32" x="572" y="345.0283">has a</text><text fill="#000000" font-family="sans-serif" font-size="13" lengthAdjust="spacing" textLength="7" x="563.4277" y="321.6249">1</text><text fill="#000000" font-family="sans-serif" font-size="13" lengthAdjust="spacing" textLength="7" x="565.4519" y="401.7114">1</text></g><!--link Invitation to User--><g id="link_Invitation_User"><path codeLine="38" d="M525.95,288.4 C511.98,296.45 496.42,305.23 482,313 C412.35,350.5 330.26,391.23 279.42,416.07 " fill="none" id="Invitation-to-User" style="stroke:#181818;stroke-width:1.0;"/><polygon fill="#181818" points="274.9,418.27,284.7428,417.9236,279.3948,416.0799,281.2385,410.7319,274.9,418.27" style="stroke:#181818;stroke-width:1.0;"/><text fill="#000000" font-family="sans-serif" font-size="13" lengthAdjust="spacing" textLength="54" x="449" y="345.0283">is sent to</text><text fill="#000000" font-family="sans-serif" font-size="13" lengthAdjust="spacing" textLength="24" x="494.068" y="288.0684">1...*</text><text fill="#000000" font-family="sans-serif" font-size="13" lengthAdjust="spacing" textLength="7" x="282.4544" y="410.4634">1</text></g><!--link Invitation to Notification--><g id="link_Invitation_Notification"><path codeLine="39" d="M614.23,298.75 C649.6,327.73 699.18,368.36 735.99,398.52 " fill="none" id="Invitation-to-Notification" style="stroke:#181818;stroke-width:1.0;"/><polygon fill="#181818" points="739.96,401.78,735.5326,392.9824,736.0921,398.6115,730.463,399.171,739.96,401.78" style="stroke:#181818;stroke-width:1.0;"/><text fill="#000000" font-family="sans-serif" font-size="13" lengthAdjust="spacing" textLength="57" x="672" y="345.0283">generates</text><text fill="#000000" font-family="sans-serif" font-size="13" lengthAdjust="spacing" textLength="7" x="622.1353" y="300.602">1</text><text fill="#000000" font-family="sans-serif" font-size="13" lengthAdjust="spacing" textLength="7" x="724.4453" y="390.7567">1</text></g><!--SRC=[ZPHHJy8m58NVzojkyCq44bz9iqI393m8YQ3l7LwwwcYNxaubnFzkrq7N2aDuAkrtRyyzPvl1DN4b2eG1O_T261ISC4tXfK8pW9iiuppBzaa2zeUA9EtS4MFFMbEQClReDflLaeoj5NRjQ9szs-Rm80tb4tl0s2ilQeI5su-X5V-UrzkiwHj3ZCtUOdHQ5yMSRo-sM-RQq5d8KMwskm4CwtAOWbrvZJ26d5V0Owp03RMWrtaUR24lyGG2VwjTU94U-qaIqvV74o999MmaXToYtKSLft80JeC9ZJb0I-hBum0qGeTEPLXnZSwv9hcHQqvIAoTMv5HAzH6B3QdBYbUx4XURcEyFFkGcMAsDB7jBGhQRzyo5OOgdHMrLpyLNHJjJdvAEXdtbo6aVUjKTXozRwrauUyVz6w-Vjgjfu-d-1uxyQHpQ4V6ZqUZsMDCyxMEG5LHs2Y3TtprsMg32vYjIDOublm00]--></g></svg>