<?xml version="1.0" encoding="us-ascii" standalone="no"?><svg xmlns="http://www.w3.org/2000/svg" xmlns:xlink="http://www.w3.org/1999/xlink" contentStyleType="text/css" height="1175px" preserveAspectRatio="none" style="width:1405px;height:1175px;background:#FFFFFF;" version="1.1" viewBox="0 0 1405 1175" width="1405px" zoomAndPan="magnify"><defs/><g><!--class Teacher--><g id="elem_Teacher"><rect codeLine="4" fill="#F1F1F1" height="103.8633" id="Teacher" rx="2.5" ry="2.5" style="stroke:#181818;stroke-width:0.5;" width="104" x="7" y="638"/><ellipse cx="30.55" cy="654" fill="#ADD1B2" rx="11" ry="11" style="stroke:#181818;stroke-width:1.0;"/><path d="M33.3156,649.875 Q33.4719,649.6563 33.6594,649.5469 Q33.8469,649.4375 34.0656,649.4375 Q34.4406,649.4375 34.675,649.7031 Q34.9094,649.9531 34.9094,650.5625 L34.9094,652.0156 Q34.9094,652.625 34.675,652.8906 Q34.4406,653.1563 34.0656,653.1563 Q33.7219,653.1563 33.5188,652.9531 Q33.3156,652.7656 33.2063,652.25 Q33.1594,651.8906 32.9719,651.7031 Q32.6438,651.3281 32.0344,651.1094 Q31.425,650.8906 30.8,650.8906 Q30.0344,650.8906 29.3938,651.2188 Q28.7688,651.5469 28.2688,652.2969 Q27.7844,653.0469 27.7844,654.0781 L27.7844,655.1719 Q27.7844,656.4063 28.675,657.2344 Q29.5656,658.0469 31.1594,658.0469 Q32.0969,658.0469 32.7531,657.7969 Q33.1438,657.6406 33.5656,657.2031 Q33.8313,656.9375 33.9719,656.8594 Q34.1281,656.7813 34.3313,656.7813 Q34.6594,656.7813 34.9094,657.0469 Q35.175,657.2969 35.175,657.6406 Q35.175,657.9844 34.8313,658.3906 Q34.3313,658.9688 33.5344,659.2969 Q32.4563,659.75 31.1594,659.75 Q29.6438,659.75 28.4406,659.125 Q27.4563,658.625 26.7688,657.5625 Q26.0813,656.4844 26.0813,655.2031 L26.0813,654.0469 Q26.0813,652.7188 26.6906,651.5781 Q27.3156,650.4219 28.4094,649.8125 Q29.5031,649.1875 30.7375,649.1875 Q31.4719,649.1875 32.1125,649.3594 Q32.7688,649.5156 33.3156,649.875 Z " fill="#000000"/><text fill="#000000" font-family="FG Virgil" font-size="14" lengthAdjust="spacing" textLength="53" x="46.45" y="659.7969">Teacher</text><line style="stroke:#181818;stroke-width:0.5;" x1="8" x2="110" y1="670" y2="670"/><rect fill="none" height="6" style="stroke:#C82930;stroke-width:1.0;" width="6" x="15" y="681.8105"/><text fill="#000000" font-family="FG Virgil" font-size="14" lengthAdjust="spacing" textLength="34" x="27" y="689.1074">id: int</text><rect fill="none" height="6" style="stroke:#C82930;stroke-width:1.0;" width="6" x="15" y="700.4316"/><text fill="#000000" font-family="FG Virgil" font-size="14" lengthAdjust="spacing" textLength="78" x="27" y="707.7285">name: string</text><rect fill="none" height="6" style="stroke:#C82930;stroke-width:1.0;" width="6" x="15" y="719.0527"/><text fill="#000000" font-family="FG Virgil" font-size="14" lengthAdjust="spacing" textLength="76" x="27" y="726.3496">email: string</text><line style="stroke:#181818;stroke-width:0.5;" x1="8" x2="110" y1="733.8633" y2="733.8633"/></g><!--class CreateQuestionUI--><g id="elem_CreateQuestionUI"><rect codeLine="10" fill="#F1F1F1" height="103.8633" id="CreateQuestionUI" rx="2.5" ry="2.5" style="stroke:#181818;stroke-width:0.5;" width="399" x="254.5" y="7"/><ellipse cx="393.75" cy="23" fill="#ADD1B2" rx="11" ry="11" style="stroke:#181818;stroke-width:1.0;"/><path d="M396.5156,18.875 Q396.6719,18.6563 396.8594,18.5469 Q397.0469,18.4375 397.2656,18.4375 Q397.6406,18.4375 397.875,18.7031 Q398.1094,18.9531 398.1094,19.5625 L398.1094,21.0156 Q398.1094,21.625 397.875,21.8906 Q397.6406,22.1563 397.2656,22.1563 Q396.9219,22.1563 396.7188,21.9531 Q396.5156,21.7656 396.4063,21.25 Q396.3594,20.8906 396.1719,20.7031 Q395.8438,20.3281 395.2344,20.1094 Q394.625,19.8906 394,19.8906 Q393.2344,19.8906 392.5938,20.2188 Q391.9688,20.5469 391.4688,21.2969 Q390.9844,22.0469 390.9844,23.0781 L390.9844,24.1719 Q390.9844,25.4063 391.875,26.2344 Q392.7656,27.0469 394.3594,27.0469 Q395.2969,27.0469 395.9531,26.7969 Q396.3438,26.6406 396.7656,26.2031 Q397.0313,25.9375 397.1719,25.8594 Q397.3281,25.7813 397.5313,25.7813 Q397.8594,25.7813 398.1094,26.0469 Q398.375,26.2969 398.375,26.6406 Q398.375,26.9844 398.0313,27.3906 Q397.5313,27.9688 396.7344,28.2969 Q395.6563,28.75 394.3594,28.75 Q392.8438,28.75 391.6406,28.125 Q390.6563,27.625 389.9688,26.5625 Q389.2813,25.4844 389.2813,24.2031 L389.2813,23.0469 Q389.2813,21.7188 389.8906,20.5781 Q390.5156,19.4219 391.6094,18.8125 Q392.7031,18.1875 393.9375,18.1875 Q394.6719,18.1875 395.3125,18.3594 Q395.9688,18.5156 396.5156,18.875 Z " fill="#000000"/><text fill="#000000" font-family="FG Virgil" font-size="14" lengthAdjust="spacing" textLength="112" x="414.25" y="28.7969">CreateQuestionUI</text><line style="stroke:#181818;stroke-width:0.5;" x1="255.5" x2="652.5" y1="39" y2="39"/><line style="stroke:#181818;stroke-width:0.5;" x1="255.5" x2="652.5" y1="47" y2="47"/><ellipse cx="265.5" cy="61.8105" fill="#84BE84" rx="3" ry="3" style="stroke:#038048;stroke-width:1.0;"/><text fill="#000000" font-family="FG Virgil" font-size="14" lengthAdjust="spacing" textLength="172" x="274.5" y="66.1074">listCourses(): List&lt;Course&gt;</text><ellipse cx="265.5" cy="80.4316" fill="#84BE84" rx="3" ry="3" style="stroke:#038048;stroke-width:1.0;"/><text fill="#000000" font-family="FG Virgil" font-size="14" lengthAdjust="spacing" textLength="373" x="274.5" y="84.7285">createQuestion(selectedCourse: Course, path: string): void</text><ellipse cx="265.5" cy="99.0527" fill="#84BE84" rx="3" ry="3" style="stroke:#038048;stroke-width:1.0;"/><text fill="#000000" font-family="FG Virgil" font-size="14" lengthAdjust="spacing" textLength="296" x="274.5" y="103.3496">informOperationResult(success: boolean): void</text></g><!--class CreateQuestionController--><g id="elem_CreateQuestionController"><rect codeLine="16" fill="#F1F1F1" height="141.1055" id="CreateQuestionController" rx="2.5" ry="2.5" style="stroke:#181818;stroke-width:0.5;" width="403" x="252.5" y="171"/><ellipse cx="368.75" cy="187" fill="#ADD1B2" rx="11" ry="11" style="stroke:#181818;stroke-width:1.0;"/><path d="M371.5156,182.875 Q371.6719,182.6563 371.8594,182.5469 Q372.0469,182.4375 372.2656,182.4375 Q372.6406,182.4375 372.875,182.7031 Q373.1094,182.9531 373.1094,183.5625 L373.1094,185.0156 Q373.1094,185.625 372.875,185.8906 Q372.6406,186.1563 372.2656,186.1563 Q371.9219,186.1563 371.7188,185.9531 Q371.5156,185.7656 371.4063,185.25 Q371.3594,184.8906 371.1719,184.7031 Q370.8438,184.3281 370.2344,184.1094 Q369.625,183.8906 369,183.8906 Q368.2344,183.8906 367.5938,184.2188 Q366.9688,184.5469 366.4688,185.2969 Q365.9844,186.0469 365.9844,187.0781 L365.9844,188.1719 Q365.9844,189.4063 366.875,190.2344 Q367.7656,191.0469 369.3594,191.0469 Q370.2969,191.0469 370.9531,190.7969 Q371.3438,190.6406 371.7656,190.2031 Q372.0313,189.9375 372.1719,189.8594 Q372.3281,189.7813 372.5313,189.7813 Q372.8594,189.7813 373.1094,190.0469 Q373.375,190.2969 373.375,190.6406 Q373.375,190.9844 373.0313,191.3906 Q372.5313,191.9688 371.7344,192.2969 Q370.6563,192.75 369.3594,192.75 Q367.8438,192.75 366.6406,192.125 Q365.6563,191.625 364.9688,190.5625 Q364.2813,189.4844 364.2813,188.2031 L364.2813,187.0469 Q364.2813,185.7188 364.8906,184.5781 Q365.5156,183.4219 366.6094,182.8125 Q367.7031,182.1875 368.9375,182.1875 Q369.6719,182.1875 370.3125,182.3594 Q370.9688,182.5156 371.5156,182.875 Z " fill="#000000"/><text fill="#000000" font-family="FG Virgil" font-size="14" lengthAdjust="spacing" textLength="162" x="389.25" y="192.7969">CreateQuestionController</text><line style="stroke:#181818;stroke-width:0.5;" x1="253.5" x2="654.5" y1="203" y2="203"/><rect fill="none" height="6" style="stroke:#C82930;stroke-width:1.0;" width="6" x="260.5" y="214.8105"/><text fill="#000000" font-family="FG Virgil" font-size="14" lengthAdjust="spacing" textLength="377" x="272.5" y="222.1074">questionManagementService: QuestionManagementService</text><line style="stroke:#181818;stroke-width:0.5;" x1="253.5" x2="654.5" y1="229.6211" y2="229.6211"/><ellipse cx="263.5" cy="244.4316" fill="#84BE84" rx="3" ry="3" style="stroke:#038048;stroke-width:1.0;"/><text fill="#000000" font-family="FG Virgil" font-size="14" lengthAdjust="spacing" textLength="172" x="272.5" y="248.7285">listCourses(): List&lt;Course&gt;</text><ellipse cx="263.5" cy="263.0527" fill="#84BE84" rx="3" ry="3" style="stroke:#038048;stroke-width:1.0;"/><text fill="#000000" font-family="FG Virgil" font-size="14" lengthAdjust="spacing" textLength="246" x="272.5" y="267.3496">validateQuestion(path: string): boolean</text><ellipse cx="263.5" cy="281.6738" fill="#84BE84" rx="3" ry="3" style="stroke:#038048;stroke-width:1.0;"/><text fill="#000000" font-family="FG Virgil" font-size="14" lengthAdjust="spacing" textLength="373" x="272.5" y="285.9707">createQuestion(selectedCourse: Course, path: string): void</text><ellipse cx="263.5" cy="300.2949" fill="#84BE84" rx="3" ry="3" style="stroke:#038048;stroke-width:1.0;"/><text fill="#000000" font-family="FG Virgil" font-size="14" lengthAdjust="spacing" textLength="250" x="272.5" y="304.5918">saveQuestion(question: Question): void</text></g><!--class QuestionManagementService--><g id="elem_QuestionManagementService"><rect codeLine="24" fill="#F1F1F1" height="196.9688" id="QuestionManagementService" rx="2.5" ry="2.5" style="stroke:#181818;stroke-width:0.5;" width="399" x="254.5" y="372"/><ellipse cx="356.75" cy="388" fill="#ADD1B2" rx="11" ry="11" style="stroke:#181818;stroke-width:1.0;"/><path d="M359.5156,383.875 Q359.6719,383.6563 359.8594,383.5469 Q360.0469,383.4375 360.2656,383.4375 Q360.6406,383.4375 360.875,383.7031 Q361.1094,383.9531 361.1094,384.5625 L361.1094,386.0156 Q361.1094,386.625 360.875,386.8906 Q360.6406,387.1563 360.2656,387.1563 Q359.9219,387.1563 359.7188,386.9531 Q359.5156,386.7656 359.4063,386.25 Q359.3594,385.8906 359.1719,385.7031 Q358.8438,385.3281 358.2344,385.1094 Q357.625,384.8906 357,384.8906 Q356.2344,384.8906 355.5938,385.2188 Q354.9688,385.5469 354.4688,386.2969 Q353.9844,387.0469 353.9844,388.0781 L353.9844,389.1719 Q353.9844,390.4063 354.875,391.2344 Q355.7656,392.0469 357.3594,392.0469 Q358.2969,392.0469 358.9531,391.7969 Q359.3438,391.6406 359.7656,391.2031 Q360.0313,390.9375 360.1719,390.8594 Q360.3281,390.7813 360.5313,390.7813 Q360.8594,390.7813 361.1094,391.0469 Q361.375,391.2969 361.375,391.6406 Q361.375,391.9844 361.0313,392.3906 Q360.5313,392.9688 359.7344,393.2969 Q358.6563,393.75 357.3594,393.75 Q355.8438,393.75 354.6406,393.125 Q353.6563,392.625 352.9688,391.5625 Q352.2813,390.4844 352.2813,389.2031 L352.2813,388.0469 Q352.2813,386.7188 352.8906,385.5781 Q353.5156,384.4219 354.6094,383.8125 Q355.7031,383.1875 356.9375,383.1875 Q357.6719,383.1875 358.3125,383.3594 Q358.9688,383.5156 359.5156,383.875 Z " fill="#000000"/><text fill="#000000" font-family="FG Virgil" font-size="14" lengthAdjust="spacing" textLength="186" x="377.25" y="393.7969">QuestionManagementService</text><line style="stroke:#181818;stroke-width:0.5;" x1="255.5" x2="652.5" y1="404" y2="404"/><rect fill="none" height="6" style="stroke:#C82930;stroke-width:1.0;" width="6" x="262.5" y="415.8105"/><text fill="#000000" font-family="FG Virgil" font-size="14" lengthAdjust="spacing" textLength="255" x="274.5" y="423.1074">questionRepository: QuestionRepository</text><rect fill="none" height="6" style="stroke:#C82930;stroke-width:1.0;" width="6" x="262.5" y="434.4316"/><text fill="#000000" font-family="FG Virgil" font-size="14" lengthAdjust="spacing" textLength="245" x="274.5" y="441.7285">teacherRepository: TeacherRepository</text><rect fill="none" height="6" style="stroke:#C82930;stroke-width:1.0;" width="6" x="262.5" y="453.0527"/><text fill="#000000" font-family="FG Virgil" font-size="14" lengthAdjust="spacing" textLength="233" x="274.5" y="460.3496">courseRepository: CourseRepository</text><line style="stroke:#181818;stroke-width:0.5;" x1="255.5" x2="652.5" y1="467.8633" y2="467.8633"/><ellipse cx="265.5" cy="482.6738" fill="#84BE84" rx="3" ry="3" style="stroke:#038048;stroke-width:1.0;"/><text fill="#000000" font-family="FG Virgil" font-size="14" lengthAdjust="spacing" textLength="172" x="274.5" y="486.9707">listCourses(): List&lt;Course&gt;</text><ellipse cx="265.5" cy="501.2949" fill="#84BE84" rx="3" ry="3" style="stroke:#038048;stroke-width:1.0;"/><text fill="#000000" font-family="FG Virgil" font-size="14" lengthAdjust="spacing" textLength="246" x="274.5" y="505.5918">validateQuestion(path: string): boolean</text><ellipse cx="265.5" cy="519.916" fill="#84BE84" rx="3" ry="3" style="stroke:#038048;stroke-width:1.0;"/><text fill="#000000" font-family="FG Virgil" font-size="14" lengthAdjust="spacing" textLength="230" x="274.5" y="524.2129">readFileToString(path: string): string</text><ellipse cx="265.5" cy="538.5371" fill="#84BE84" rx="3" ry="3" style="stroke:#038048;stroke-width:1.0;"/><text fill="#000000" font-family="FG Virgil" font-size="14" lengthAdjust="spacing" textLength="250" x="274.5" y="542.834">saveQuestion(question: Question): void</text><ellipse cx="265.5" cy="557.1582" fill="#84BE84" rx="3" ry="3" style="stroke:#038048;stroke-width:1.0;"/><text fill="#000000" font-family="FG Virgil" font-size="14" lengthAdjust="spacing" textLength="373" x="274.5" y="561.4551">createQuestion(path: string, selectedCourse: Course): void</text></g><!--class AuthzRegistry--><g id="elem_AuthzRegistry"><rect codeLine="35" fill="#F1F1F1" height="66.6211" id="AuthzRegistry" rx="2.5" ry="2.5" style="stroke:#181818;stroke-width:0.5;" width="198" x="146" y="656.5"/><ellipse cx="197.25" cy="672.5" fill="#ADD1B2" rx="11" ry="11" style="stroke:#181818;stroke-width:1.0;"/><path d="M200.0156,668.375 Q200.1719,668.1563 200.3594,668.0469 Q200.5469,667.9375 200.7656,667.9375 Q201.1406,667.9375 201.375,668.2031 Q201.6094,668.4531 201.6094,669.0625 L201.6094,670.5156 Q201.6094,671.125 201.375,671.3906 Q201.1406,671.6563 200.7656,671.6563 Q200.4219,671.6563 200.2188,671.4531 Q200.0156,671.2656 199.9063,670.75 Q199.8594,670.3906 199.6719,670.2031 Q199.3438,669.8281 198.7344,669.6094 Q198.125,669.3906 197.5,669.3906 Q196.7344,669.3906 196.0938,669.7188 Q195.4688,670.0469 194.9688,670.7969 Q194.4844,671.5469 194.4844,672.5781 L194.4844,673.6719 Q194.4844,674.9063 195.375,675.7344 Q196.2656,676.5469 197.8594,676.5469 Q198.7969,676.5469 199.4531,676.2969 Q199.8438,676.1406 200.2656,675.7031 Q200.5313,675.4375 200.6719,675.3594 Q200.8281,675.2813 201.0313,675.2813 Q201.3594,675.2813 201.6094,675.5469 Q201.875,675.7969 201.875,676.1406 Q201.875,676.4844 201.5313,676.8906 Q201.0313,677.4688 200.2344,677.7969 Q199.1563,678.25 197.8594,678.25 Q196.3438,678.25 195.1406,677.625 Q194.1563,677.125 193.4688,676.0625 Q192.7813,674.9844 192.7813,673.7031 L192.7813,672.5469 Q192.7813,671.2188 193.3906,670.0781 Q194.0156,668.9219 195.1094,668.3125 Q196.2031,667.6875 197.4375,667.6875 Q198.1719,667.6875 198.8125,667.8594 Q199.4688,668.0156 200.0156,668.375 Z " fill="#000000"/><text fill="#000000" font-family="FG Virgil" font-size="14" lengthAdjust="spacing" textLength="87" x="217.75" y="678.2969">AuthzRegistry</text><line style="stroke:#181818;stroke-width:0.5;" x1="147" x2="343" y1="688.5" y2="688.5"/><line style="stroke:#181818;stroke-width:0.5;" x1="147" x2="343" y1="696.5" y2="696.5"/><ellipse cx="157" cy="711.3105" fill="#84BE84" rx="3" ry="3" style="stroke:#038048;stroke-width:1.0;"/><text fill="#000000" font-family="FG Virgil" font-size="14" lengthAdjust="spacing" textLength="172" x="166" y="715.6074">authorizationService(): void</text></g><!--class Question--><g id="elem_Question"><rect codeLine="39" fill="#F1F1F1" height="122.4844" id="Question" rx="2.5" ry="2.5" style="stroke:#181818;stroke-width:0.5;" width="150" x="379" y="629"/><ellipse cx="421.45" cy="645" fill="#ADD1B2" rx="11" ry="11" style="stroke:#181818;stroke-width:1.0;"/><path d="M424.2156,640.875 Q424.3719,640.6563 424.5594,640.5469 Q424.7469,640.4375 424.9656,640.4375 Q425.3406,640.4375 425.575,640.7031 Q425.8094,640.9531 425.8094,641.5625 L425.8094,643.0156 Q425.8094,643.625 425.575,643.8906 Q425.3406,644.1563 424.9656,644.1563 Q424.6219,644.1563 424.4188,643.9531 Q424.2156,643.7656 424.1063,643.25 Q424.0594,642.8906 423.8719,642.7031 Q423.5438,642.3281 422.9344,642.1094 Q422.325,641.8906 421.7,641.8906 Q420.9344,641.8906 420.2938,642.2188 Q419.6688,642.5469 419.1688,643.2969 Q418.6844,644.0469 418.6844,645.0781 L418.6844,646.1719 Q418.6844,647.4063 419.575,648.2344 Q420.4656,649.0469 422.0594,649.0469 Q422.9969,649.0469 423.6531,648.7969 Q424.0438,648.6406 424.4656,648.2031 Q424.7313,647.9375 424.8719,647.8594 Q425.0281,647.7813 425.2313,647.7813 Q425.5594,647.7813 425.8094,648.0469 Q426.075,648.2969 426.075,648.6406 Q426.075,648.9844 425.7313,649.3906 Q425.2313,649.9688 424.4344,650.2969 Q423.3563,650.75 422.0594,650.75 Q420.5438,650.75 419.3406,650.125 Q418.3563,649.625 417.6688,648.5625 Q416.9813,647.4844 416.9813,646.2031 L416.9813,645.0469 Q416.9813,643.7188 417.5906,642.5781 Q418.2156,641.4219 419.3094,640.8125 Q420.4031,640.1875 421.6375,640.1875 Q422.3719,640.1875 423.0125,640.3594 Q423.6688,640.5156 424.2156,640.875 Z " fill="#000000"/><text fill="#000000" font-family="FG Virgil" font-size="14" lengthAdjust="spacing" textLength="57" x="441.55" y="650.7969">Question</text><line style="stroke:#181818;stroke-width:0.5;" x1="380" x2="528" y1="661" y2="661"/><rect fill="none" height="6" style="stroke:#C82930;stroke-width:1.0;" width="6" x="387" y="672.8105"/><text fill="#000000" font-family="FG Virgil" font-size="14" lengthAdjust="spacing" textLength="34" x="399" y="680.1074">id: int</text><rect fill="none" height="6" style="stroke:#C82930;stroke-width:1.0;" width="6" x="387" y="691.4316"/><text fill="#000000" font-family="FG Virgil" font-size="14" lengthAdjust="spacing" textLength="124" x="399" y="698.7285">type: QuestionType</text><rect fill="none" height="6" style="stroke:#C82930;stroke-width:1.0;" width="6" x="387" y="710.0527"/><text fill="#000000" font-family="FG Virgil" font-size="14" lengthAdjust="spacing" textLength="65" x="399" y="717.3496">text: string</text><rect fill="none" height="6" style="stroke:#C82930;stroke-width:1.0;" width="6" x="387" y="728.6738"/><text fill="#000000" font-family="FG Virgil" font-size="14" lengthAdjust="spacing" textLength="97" x="399" y="735.9707">course: Course</text><line style="stroke:#181818;stroke-width:0.5;" x1="380" x2="528" y1="743.4844" y2="743.4844"/></g><!--class Course--><g id="elem_Course"><rect codeLine="46" fill="#F1F1F1" height="85.2422" id="Course" rx="2.5" ry="2.5" style="stroke:#181818;stroke-width:0.5;" width="104" x="564" y="647.5"/><ellipse cx="590.7" cy="663.5" fill="#ADD1B2" rx="11" ry="11" style="stroke:#181818;stroke-width:1.0;"/><path d="M593.4656,659.375 Q593.6219,659.1563 593.8094,659.0469 Q593.9969,658.9375 594.2156,658.9375 Q594.5906,658.9375 594.825,659.2031 Q595.0594,659.4531 595.0594,660.0625 L595.0594,661.5156 Q595.0594,662.125 594.825,662.3906 Q594.5906,662.6563 594.2156,662.6563 Q593.8719,662.6563 593.6688,662.4531 Q593.4656,662.2656 593.3563,661.75 Q593.3094,661.3906 593.1219,661.2031 Q592.7938,660.8281 592.1844,660.6094 Q591.575,660.3906 590.95,660.3906 Q590.1844,660.3906 589.5438,660.7188 Q588.9188,661.0469 588.4188,661.7969 Q587.9344,662.5469 587.9344,663.5781 L587.9344,664.6719 Q587.9344,665.9063 588.825,666.7344 Q589.7156,667.5469 591.3094,667.5469 Q592.2469,667.5469 592.9031,667.2969 Q593.2938,667.1406 593.7156,666.7031 Q593.9813,666.4375 594.1219,666.3594 Q594.2781,666.2813 594.4813,666.2813 Q594.8094,666.2813 595.0594,666.5469 Q595.325,666.7969 595.325,667.1406 Q595.325,667.4844 594.9813,667.8906 Q594.4813,668.4688 593.6844,668.7969 Q592.6063,669.25 591.3094,669.25 Q589.7938,669.25 588.5906,668.625 Q587.6063,668.125 586.9188,667.0625 Q586.2313,665.9844 586.2313,664.7031 L586.2313,663.5469 Q586.2313,662.2188 586.8406,661.0781 Q587.4656,659.9219 588.5594,659.3125 Q589.6531,658.6875 590.8875,658.6875 Q591.6219,658.6875 592.2625,658.8594 Q592.9188,659.0156 593.4656,659.375 Z " fill="#000000"/><text fill="#000000" font-family="FG Virgil" font-size="14" lengthAdjust="spacing" textLength="46" x="607.3" y="669.2969">Course</text><line style="stroke:#181818;stroke-width:0.5;" x1="565" x2="667" y1="679.5" y2="679.5"/><rect fill="none" height="6" style="stroke:#C82930;stroke-width:1.0;" width="6" x="572" y="691.3105"/><text fill="#000000" font-family="FG Virgil" font-size="14" lengthAdjust="spacing" textLength="34" x="584" y="698.6074">id: int</text><rect fill="none" height="6" style="stroke:#C82930;stroke-width:1.0;" width="6" x="572" y="709.9316"/><text fill="#000000" font-family="FG Virgil" font-size="14" lengthAdjust="spacing" textLength="78" x="584" y="717.2285">name: string</text><line style="stroke:#181818;stroke-width:0.5;" x1="565" x2="667" y1="724.7422" y2="724.7422"/></g><!--class PersistenceContext--><g id="elem_PersistenceContext"><rect codeLine="51" fill="#F1F1F1" height="66.6211" id="PersistenceContext" rx="2.5" ry="2.5" style="stroke:#181818;stroke-width:0.5;" width="296" x="703" y="656.5"/><ellipse cx="785.75" cy="672.5" fill="#ADD1B2" rx="11" ry="11" style="stroke:#181818;stroke-width:1.0;"/><path d="M788.5156,668.375 Q788.6719,668.1563 788.8594,668.0469 Q789.0469,667.9375 789.2656,667.9375 Q789.6406,667.9375 789.875,668.2031 Q790.1094,668.4531 790.1094,669.0625 L790.1094,670.5156 Q790.1094,671.125 789.875,671.3906 Q789.6406,671.6563 789.2656,671.6563 Q788.9219,671.6563 788.7188,671.4531 Q788.5156,671.2656 788.4063,670.75 Q788.3594,670.3906 788.1719,670.2031 Q787.8438,669.8281 787.2344,669.6094 Q786.625,669.3906 786,669.3906 Q785.2344,669.3906 784.5938,669.7188 Q783.9688,670.0469 783.4688,670.7969 Q782.9844,671.5469 782.9844,672.5781 L782.9844,673.6719 Q782.9844,674.9063 783.875,675.7344 Q784.7656,676.5469 786.3594,676.5469 Q787.2969,676.5469 787.9531,676.2969 Q788.3438,676.1406 788.7656,675.7031 Q789.0313,675.4375 789.1719,675.3594 Q789.3281,675.2813 789.5313,675.2813 Q789.8594,675.2813 790.1094,675.5469 Q790.375,675.7969 790.375,676.1406 Q790.375,676.4844 790.0313,676.8906 Q789.5313,677.4688 788.7344,677.7969 Q787.6563,678.25 786.3594,678.25 Q784.8438,678.25 783.6406,677.625 Q782.6563,677.125 781.9688,676.0625 Q781.2813,674.9844 781.2813,673.7031 L781.2813,672.5469 Q781.2813,671.2188 781.8906,670.0781 Q782.5156,668.9219 783.6094,668.3125 Q784.7031,667.6875 785.9375,667.6875 Q786.6719,667.6875 787.3125,667.8594 Q787.9688,668.0156 788.5156,668.375 Z " fill="#000000"/><text fill="#000000" font-family="FG Virgil" font-size="14" lengthAdjust="spacing" textLength="122" x="806.25" y="678.2969">PersistenceContext</text><line style="stroke:#181818;stroke-width:0.5;" x1="704" x2="998" y1="688.5" y2="688.5"/><line style="stroke:#181818;stroke-width:0.5;" x1="704" x2="998" y1="696.5" y2="696.5"/><ellipse cx="714" cy="711.3105" fill="#84BE84" rx="3" ry="3" style="stroke:#038048;stroke-width:1.0;"/><text fill="#000000" font-family="FG Virgil" font-size="14" lengthAdjust="spacing" textLength="270" x="723" y="715.6074">getRepositoryFactory(): RepositoryFactory</text></g><!--class RepositoryFactory--><g id="elem_RepositoryFactory"><rect codeLine="55" fill="#F1F1F1" height="103.8633" id="RepositoryFactory" rx="2.5" ry="2.5" style="stroke:#181818;stroke-width:0.5;" width="291" x="705.5" y="811"/><ellipse cx="788.75" cy="827" fill="#B4A7E5" rx="11" ry="11" style="stroke:#181818;stroke-width:1.0;"/><path d="M789.7031,823.6406 L789.7031,830.2969 L791.4219,830.2969 Q792.0313,830.2969 792.2969,830.5313 Q792.5625,830.7656 792.5625,831.1563 Q792.5625,831.5313 792.2969,831.7656 Q792.0313,832 791.4219,832 L786.2813,832 Q785.6719,832 785.4063,831.7656 Q785.1406,831.5313 785.1406,831.1406 Q785.1406,830.7656 785.4063,830.5313 Q785.6719,830.2969 786.2813,830.2969 L788,830.2969 L788,823.6406 L786.2813,823.6406 Q785.6719,823.6406 785.4063,823.4063 Q785.1406,823.1719 785.1406,822.7813 Q785.1406,822.4063 785.4063,822.1719 Q785.6719,821.9375 786.2813,821.9375 L791.4219,821.9375 Q792.0313,821.9375 792.2969,822.1719 Q792.5625,822.4063 792.5625,822.7813 Q792.5625,823.1719 792.2969,823.4063 Q792.0313,823.6406 791.4219,823.6406 L789.7031,823.6406 Z " fill="#000000"/><text fill="#000000" font-family="FG Virgil" font-size="14" font-style="italic" lengthAdjust="spacing" textLength="116" x="809.25" y="832.7969">RepositoryFactory</text><line style="stroke:#181818;stroke-width:0.5;" x1="706.5" x2="995.5" y1="843" y2="843"/><line style="stroke:#181818;stroke-width:0.5;" x1="706.5" x2="995.5" y1="851" y2="851"/><ellipse cx="716.5" cy="865.8105" fill="#84BE84" rx="3" ry="3" style="stroke:#038048;stroke-width:1.0;"/><text fill="#000000" font-family="FG Virgil" font-size="14" lengthAdjust="spacing" textLength="243" x="725.5" y="870.1074">courseRepository(): CourseRepository</text><ellipse cx="716.5" cy="884.4316" fill="#84BE84" rx="3" ry="3" style="stroke:#038048;stroke-width:1.0;"/><text fill="#000000" font-family="FG Virgil" font-size="14" lengthAdjust="spacing" textLength="265" x="725.5" y="888.7285">questionRepository(): QuestionRepository</text><ellipse cx="716.5" cy="903.0527" fill="#84BE84" rx="3" ry="3" style="stroke:#038048;stroke-width:1.0;"/><text fill="#000000" font-family="FG Virgil" font-size="14" lengthAdjust="spacing" textLength="255" x="725.5" y="907.3496">teacherRepository(): TeacherRepository</text></g><!--class QuestionRepository--><g id="elem_QuestionRepository"><rect codeLine="61" fill="#F1F1F1" height="66.6211" id="QuestionRepository" rx="2.5" ry="2.5" style="stroke:#181818;stroke-width:0.5;" width="219" x="447.5" y="975"/><ellipse cx="490.4" cy="991" fill="#B4A7E5" rx="11" ry="11" style="stroke:#181818;stroke-width:1.0;"/><path d="M491.3531,987.6406 L491.3531,994.2969 L493.0719,994.2969 Q493.6813,994.2969 493.9469,994.5313 Q494.2125,994.7656 494.2125,995.1563 Q494.2125,995.5313 493.9469,995.7656 Q493.6813,996 493.0719,996 L487.9313,996 Q487.3219,996 487.0563,995.7656 Q486.7906,995.5313 486.7906,995.1406 Q486.7906,994.7656 487.0563,994.5313 Q487.3219,994.2969 487.9313,994.2969 L489.65,994.2969 L489.65,987.6406 L487.9313,987.6406 Q487.3219,987.6406 487.0563,987.4063 Q486.7906,987.1719 486.7906,986.7813 Q486.7906,986.4063 487.0563,986.1719 Q487.3219,985.9375 487.9313,985.9375 L493.0719,985.9375 Q493.6813,985.9375 493.9469,986.1719 Q494.2125,986.4063 494.2125,986.7813 Q494.2125,987.1719 493.9469,987.4063 Q493.6813,987.6406 493.0719,987.6406 L491.3531,987.6406 Z " fill="#000000"/><text fill="#000000" font-family="FG Virgil" font-size="14" font-style="italic" lengthAdjust="spacing" textLength="125" x="510.6" y="996.7969">QuestionRepository</text><line style="stroke:#181818;stroke-width:0.5;" x1="448.5" x2="665.5" y1="1007" y2="1007"/><line style="stroke:#181818;stroke-width:0.5;" x1="448.5" x2="665.5" y1="1015" y2="1015"/><ellipse cx="458.5" cy="1029.8105" fill="#84BE84" rx="3" ry="3" style="stroke:#038048;stroke-width:1.0;"/><text fill="#000000" font-family="FG Virgil" font-size="14" lengthAdjust="spacing" textLength="193" x="467.5" y="1034.1074">save(question: Question): void</text></g><!--class TeacherRepository--><g id="elem_TeacherRepository"><rect codeLine="65" fill="#F1F1F1" height="66.6211" id="TeacherRepository" rx="2.5" ry="2.5" style="stroke:#181818;stroke-width:0.5;" width="299" x="701.5" y="975"/><ellipse cx="786.25" cy="991" fill="#B4A7E5" rx="11" ry="11" style="stroke:#181818;stroke-width:1.0;"/><path d="M787.2031,987.6406 L787.2031,994.2969 L788.9219,994.2969 Q789.5313,994.2969 789.7969,994.5313 Q790.0625,994.7656 790.0625,995.1563 Q790.0625,995.5313 789.7969,995.7656 Q789.5313,996 788.9219,996 L783.7813,996 Q783.1719,996 782.9063,995.7656 Q782.6406,995.5313 782.6406,995.1406 Q782.6406,994.7656 782.9063,994.5313 Q783.1719,994.2969 783.7813,994.2969 L785.5,994.2969 L785.5,987.6406 L783.7813,987.6406 Q783.1719,987.6406 782.9063,987.4063 Q782.6406,987.1719 782.6406,986.7813 Q782.6406,986.4063 782.9063,986.1719 Q783.1719,985.9375 783.7813,985.9375 L788.9219,985.9375 Q789.5313,985.9375 789.7969,986.1719 Q790.0625,986.4063 790.0625,986.7813 Q790.0625,987.1719 789.7969,987.4063 Q789.5313,987.6406 788.9219,987.6406 L787.2031,987.6406 Z " fill="#000000"/><text fill="#000000" font-family="FG Virgil" font-size="14" font-style="italic" lengthAdjust="spacing" textLength="121" x="806.75" y="996.7969">TeacherRepository</text><line style="stroke:#181818;stroke-width:0.5;" x1="702.5" x2="999.5" y1="1007" y2="1007"/><line style="stroke:#181818;stroke-width:0.5;" x1="702.5" x2="999.5" y1="1015" y2="1015"/><ellipse cx="712.5" cy="1029.8105" fill="#84BE84" rx="3" ry="3" style="stroke:#038048;stroke-width:1.0;"/><text fill="#000000" font-family="FG Virgil" font-size="14" lengthAdjust="spacing" textLength="273" x="721.5" y="1034.1074">findTeacherByEmail(email: string): Teacher</text></g><!--class CourseRepository--><g id="elem_CourseRepository"><rect codeLine="69" fill="#F1F1F1" height="66.6211" id="CourseRepository" rx="2.5" ry="2.5" style="stroke:#181818;stroke-width:0.5;" width="363" x="1035.5" y="975"/><ellipse cx="1155.75" cy="991" fill="#B4A7E5" rx="11" ry="11" style="stroke:#181818;stroke-width:1.0;"/><path d="M1156.7031,987.6406 L1156.7031,994.2969 L1158.4219,994.2969 Q1159.0313,994.2969 1159.2969,994.5313 Q1159.5625,994.7656 1159.5625,995.1563 Q1159.5625,995.5313 1159.2969,995.7656 Q1159.0313,996 1158.4219,996 L1153.2813,996 Q1152.6719,996 1152.4063,995.7656 Q1152.1406,995.5313 1152.1406,995.1406 Q1152.1406,994.7656 1152.4063,994.5313 Q1152.6719,994.2969 1153.2813,994.2969 L1155,994.2969 L1155,987.6406 L1153.2813,987.6406 Q1152.6719,987.6406 1152.4063,987.4063 Q1152.1406,987.1719 1152.1406,986.7813 Q1152.1406,986.4063 1152.4063,986.1719 Q1152.6719,985.9375 1153.2813,985.9375 L1158.4219,985.9375 Q1159.0313,985.9375 1159.2969,986.1719 Q1159.5625,986.4063 1159.5625,986.7813 Q1159.5625,987.1719 1159.2969,987.4063 Q1159.0313,987.6406 1158.4219,987.6406 L1156.7031,987.6406 Z " fill="#000000"/><text fill="#000000" font-family="FG Virgil" font-size="14" font-style="italic" lengthAdjust="spacing" textLength="114" x="1176.25" y="996.7969">CourseRepository</text><line style="stroke:#181818;stroke-width:0.5;" x1="1036.5" x2="1397.5" y1="1007" y2="1007"/><line style="stroke:#181818;stroke-width:0.5;" x1="1036.5" x2="1397.5" y1="1015" y2="1015"/><ellipse cx="1046.5" cy="1029.8105" fill="#84BE84" rx="3" ry="3" style="stroke:#038048;stroke-width:1.0;"/><text fill="#000000" font-family="FG Virgil" font-size="14" lengthAdjust="spacing" textLength="337" x="1055.5" y="1034.1074">coursesByTeachers(teacher: Teacher): List&lt;Course&gt;</text></g><!--class JPAQuestionRepository--><g id="elem_JPAQuestionRepository"><rect codeLine="73" fill="#F1F1F1" height="66.6211" id="JPAQuestionRepository" rx="2.5" ry="2.5" style="stroke:#181818;stroke-width:0.5;" width="219" x="447.5" y="1102"/><ellipse cx="479.6" cy="1118" fill="#ADD1B2" rx="11" ry="11" style="stroke:#181818;stroke-width:1.0;"/><path d="M482.3656,1113.875 Q482.5219,1113.6563 482.7094,1113.5469 Q482.8969,1113.4375 483.1156,1113.4375 Q483.4906,1113.4375 483.725,1113.7031 Q483.9594,1113.9531 483.9594,1114.5625 L483.9594,1116.0156 Q483.9594,1116.625 483.725,1116.8906 Q483.4906,1117.1563 483.1156,1117.1563 Q482.7719,1117.1563 482.5688,1116.9531 Q482.3656,1116.7656 482.2563,1116.25 Q482.2094,1115.8906 482.0219,1115.7031 Q481.6938,1115.3281 481.0844,1115.1094 Q480.475,1114.8906 479.85,1114.8906 Q479.0844,1114.8906 478.4438,1115.2188 Q477.8188,1115.5469 477.3188,1116.2969 Q476.8344,1117.0469 476.8344,1118.0781 L476.8344,1119.1719 Q476.8344,1120.4063 477.725,1121.2344 Q478.6156,1122.0469 480.2094,1122.0469 Q481.1469,1122.0469 481.8031,1121.7969 Q482.1938,1121.6406 482.6156,1121.2031 Q482.8813,1120.9375 483.0219,1120.8594 Q483.1781,1120.7813 483.3813,1120.7813 Q483.7094,1120.7813 483.9594,1121.0469 Q484.225,1121.2969 484.225,1121.6406 Q484.225,1121.9844 483.8813,1122.3906 Q483.3813,1122.9688 482.5844,1123.2969 Q481.5063,1123.75 480.2094,1123.75 Q478.6938,1123.75 477.4906,1123.125 Q476.5063,1122.625 475.8188,1121.5625 Q475.1313,1120.4844 475.1313,1119.2031 L475.1313,1118.0469 Q475.1313,1116.7188 475.7406,1115.5781 Q476.3656,1114.4219 477.4594,1113.8125 Q478.5531,1113.1875 479.7875,1113.1875 Q480.5219,1113.1875 481.1625,1113.3594 Q481.8188,1113.5156 482.3656,1113.875 Z " fill="#000000"/><text fill="#000000" font-family="FG Virgil" font-size="14" lengthAdjust="spacing" textLength="149" x="497.4" y="1123.7969">JPAQuestionRepository</text><line style="stroke:#181818;stroke-width:0.5;" x1="448.5" x2="665.5" y1="1134" y2="1134"/><line style="stroke:#181818;stroke-width:0.5;" x1="448.5" x2="665.5" y1="1142" y2="1142"/><ellipse cx="458.5" cy="1156.8105" fill="#84BE84" rx="3" ry="3" style="stroke:#038048;stroke-width:1.0;"/><text fill="#000000" font-family="FG Virgil" font-size="14" lengthAdjust="spacing" textLength="193" x="467.5" y="1161.1074">save(question: Question): void</text></g><!--class JPATeacherRepository--><g id="elem_JPATeacherRepository"><rect codeLine="77" fill="#F1F1F1" height="66.6211" id="JPATeacherRepository" rx="2.5" ry="2.5" style="stroke:#181818;stroke-width:0.5;" width="299" x="701.5" y="1102"/><ellipse cx="774.25" cy="1118" fill="#ADD1B2" rx="11" ry="11" style="stroke:#181818;stroke-width:1.0;"/><path d="M777.0156,1113.875 Q777.1719,1113.6563 777.3594,1113.5469 Q777.5469,1113.4375 777.7656,1113.4375 Q778.1406,1113.4375 778.375,1113.7031 Q778.6094,1113.9531 778.6094,1114.5625 L778.6094,1116.0156 Q778.6094,1116.625 778.375,1116.8906 Q778.1406,1117.1563 777.7656,1117.1563 Q777.4219,1117.1563 777.2188,1116.9531 Q777.0156,1116.7656 776.9063,1116.25 Q776.8594,1115.8906 776.6719,1115.7031 Q776.3438,1115.3281 775.7344,1115.1094 Q775.125,1114.8906 774.5,1114.8906 Q773.7344,1114.8906 773.0938,1115.2188 Q772.4688,1115.5469 771.9688,1116.2969 Q771.4844,1117.0469 771.4844,1118.0781 L771.4844,1119.1719 Q771.4844,1120.4063 772.375,1121.2344 Q773.2656,1122.0469 774.8594,1122.0469 Q775.7969,1122.0469 776.4531,1121.7969 Q776.8438,1121.6406 777.2656,1121.2031 Q777.5313,1120.9375 777.6719,1120.8594 Q777.8281,1120.7813 778.0313,1120.7813 Q778.3594,1120.7813 778.6094,1121.0469 Q778.875,1121.2969 778.875,1121.6406 Q778.875,1121.9844 778.5313,1122.3906 Q778.0313,1122.9688 777.2344,1123.2969 Q776.1563,1123.75 774.8594,1123.75 Q773.3438,1123.75 772.1406,1123.125 Q771.1563,1122.625 770.4688,1121.5625 Q769.7813,1120.4844 769.7813,1119.2031 L769.7813,1118.0469 Q769.7813,1116.7188 770.3906,1115.5781 Q771.0156,1114.4219 772.1094,1113.8125 Q773.2031,1113.1875 774.4375,1113.1875 Q775.1719,1113.1875 775.8125,1113.3594 Q776.4688,1113.5156 777.0156,1113.875 Z " fill="#000000"/><text fill="#000000" font-family="FG Virgil" font-size="14" lengthAdjust="spacing" textLength="145" x="794.75" y="1123.7969">JPATeacherRepository</text><line style="stroke:#181818;stroke-width:0.5;" x1="702.5" x2="999.5" y1="1134" y2="1134"/><line style="stroke:#181818;stroke-width:0.5;" x1="702.5" x2="999.5" y1="1142" y2="1142"/><ellipse cx="712.5" cy="1156.8105" fill="#84BE84" rx="3" ry="3" style="stroke:#038048;stroke-width:1.0;"/><text fill="#000000" font-family="FG Virgil" font-size="14" lengthAdjust="spacing" textLength="273" x="721.5" y="1161.1074">findTeacherByEmail(email: string): Teacher</text></g><!--class JPACourseRepository--><g id="elem_JPACourseRepository"><rect codeLine="81" fill="#F1F1F1" height="66.6211" id="JPACourseRepository" rx="2.5" ry="2.5" style="stroke:#181818;stroke-width:0.5;" width="363" x="1035.5" y="1102"/><ellipse cx="1143.75" cy="1118" fill="#ADD1B2" rx="11" ry="11" style="stroke:#181818;stroke-width:1.0;"/><path d="M1146.5156,1113.875 Q1146.6719,1113.6563 1146.8594,1113.5469 Q1147.0469,1113.4375 1147.2656,1113.4375 Q1147.6406,1113.4375 1147.875,1113.7031 Q1148.1094,1113.9531 1148.1094,1114.5625 L1148.1094,1116.0156 Q1148.1094,1116.625 1147.875,1116.8906 Q1147.6406,1117.1563 1147.2656,1117.1563 Q1146.9219,1117.1563 1146.7188,1116.9531 Q1146.5156,1116.7656 1146.4063,1116.25 Q1146.3594,1115.8906 1146.1719,1115.7031 Q1145.8438,1115.3281 1145.2344,1115.1094 Q1144.625,1114.8906 1144,1114.8906 Q1143.2344,1114.8906 1142.5938,1115.2188 Q1141.9688,1115.5469 1141.4688,1116.2969 Q1140.9844,1117.0469 1140.9844,1118.0781 L1140.9844,1119.1719 Q1140.9844,1120.4063 1141.875,1121.2344 Q1142.7656,1122.0469 1144.3594,1122.0469 Q1145.2969,1122.0469 1145.9531,1121.7969 Q1146.3438,1121.6406 1146.7656,1121.2031 Q1147.0313,1120.9375 1147.1719,1120.8594 Q1147.3281,1120.7813 1147.5313,1120.7813 Q1147.8594,1120.7813 1148.1094,1121.0469 Q1148.375,1121.2969 1148.375,1121.6406 Q1148.375,1121.9844 1148.0313,1122.3906 Q1147.5313,1122.9688 1146.7344,1123.2969 Q1145.6563,1123.75 1144.3594,1123.75 Q1142.8438,1123.75 1141.6406,1123.125 Q1140.6563,1122.625 1139.9688,1121.5625 Q1139.2813,1120.4844 1139.2813,1119.2031 L1139.2813,1118.0469 Q1139.2813,1116.7188 1139.8906,1115.5781 Q1140.5156,1114.4219 1141.6094,1113.8125 Q1142.7031,1113.1875 1143.9375,1113.1875 Q1144.6719,1113.1875 1145.3125,1113.3594 Q1145.9688,1113.5156 1146.5156,1113.875 Z " fill="#000000"/><text fill="#000000" font-family="FG Virgil" font-size="14" lengthAdjust="spacing" textLength="138" x="1164.25" y="1123.7969">JPACourseRepository</text><line style="stroke:#181818;stroke-width:0.5;" x1="1036.5" x2="1397.5" y1="1134" y2="1134"/><line style="stroke:#181818;stroke-width:0.5;" x1="1036.5" x2="1397.5" y1="1142" y2="1142"/><ellipse cx="1046.5" cy="1156.8105" fill="#84BE84" rx="3" ry="3" style="stroke:#038048;stroke-width:1.0;"/><text fill="#000000" font-family="FG Virgil" font-size="14" lengthAdjust="spacing" textLength="337" x="1055.5" y="1161.1074">coursesByTeachers(teacher: Teacher): List&lt;Course&gt;</text></g><!--link CreateQuestionUI to CreateQuestionController--><g id="link_CreateQuestionUI_CreateQuestionController"><path codeLine="85" d="M454,111.24 C454,128.2 454,147.43 454,165.78 " fill="none" id="CreateQuestionUI-to-CreateQuestionController" style="stroke:#181818;stroke-width:1.0;stroke-dasharray:7.0,7.0;"/><polygon fill="#181818" points="454,170.93,458,161.93,454,165.93,450,161.93,454,170.93" style="stroke:#181818;stroke-width:1.0;"/></g><!--link CreateQuestionController to QuestionManagementService--><g id="link_CreateQuestionController_QuestionManagementService"><path codeLine="86" d="M454,312.15 C454,329.42 454,348.3 454,366.79 " fill="none" id="CreateQuestionController-to-QuestionManagementService" style="stroke:#181818;stroke-width:1.0;"/><polygon fill="#181818" points="454,371.99,458,362.99,454,366.99,450,362.99,454,371.99" style="stroke:#181818;stroke-width:1.0;"/></g><!--link QuestionManagementService to AuthzRegistry--><g id="link_QuestionManagementService_AuthzRegistry"><path codeLine="88" d="M360.2,569.12 C331.56,598.92 301.84,629.84 279.77,652.82 " fill="none" id="QuestionManagementService-to-AuthzRegistry" style="stroke:#181818;stroke-width:1.0;"/><polygon fill="#181818" points="276.29,656.44,285.4166,652.7379,279.7607,652.8408,279.6578,647.1849,276.29,656.44" style="stroke:#181818;stroke-width:1.0;"/></g><!--link QuestionManagementService to PersistenceContext--><g id="link_QuestionManagementService_PersistenceContext"><path codeLine="89" d="M632.18,569.12 C687.47,599.41 744.88,630.86 787.02,653.95 " fill="none" id="QuestionManagementService-to-PersistenceContext" style="stroke:#181818;stroke-width:1.0;"/><polygon fill="#181818" points="791.57,656.44,785.5951,648.6106,787.1838,654.0397,781.7546,655.6285,791.57,656.44" style="stroke:#181818;stroke-width:1.0;"/></g><!--link QuestionManagementService to Question--><g id="link_QuestionManagementService_Question"><path codeLine="91" d="M454,569.12 C454,587.54 454,606.39 454,623.53 " fill="none" id="QuestionManagementService-to-Question" style="stroke:#181818;stroke-width:1.0;"/><polygon fill="#181818" points="454,628.79,458,619.79,454,623.79,450,619.79,454,628.79" style="stroke:#181818;stroke-width:1.0;"/></g><!--link QuestionManagementService to Teacher--><g id="link_QuestionManagementService_Teacher"><path codeLine="92" d="M254.14,557.66 C211.34,578.95 167.23,603.14 128,629 C123.83,631.75 119.63,634.74 115.49,637.85 " fill="none" id="QuestionManagementService-to-Teacher" style="stroke:#181818;stroke-width:1.0;"/><polygon fill="#181818" points="111.37,641.01,120.9469,638.7114,115.339,637.969,116.0813,632.3611,111.37,641.01" style="stroke:#181818;stroke-width:1.0;"/></g><!--link QuestionManagementService to Course--><g id="link_QuestionManagementService_Course"><path codeLine="93" d="M526.71,569.12 C545.95,594.95 565.82,621.63 581.92,643.24 " fill="none" id="QuestionManagementService-to-Course" style="stroke:#181818;stroke-width:1.0;"/><polygon fill="#181818" points="585.09,647.5,582.912,637.895,582.0992,643.4931,576.501,642.6803,585.09,647.5" style="stroke:#181818;stroke-width:1.0;"/></g><!--link PersistenceContext to RepositoryFactory--><g id="link_PersistenceContext_RepositoryFactory"><path codeLine="95" d="M851,723.57 C851,746.74 851,778.46 851,805.69 " fill="none" id="PersistenceContext-to-RepositoryFactory" style="stroke:#181818;stroke-width:1.0;"/><polygon fill="#181818" points="851,810.72,855,801.72,851,805.72,847,801.72,851,810.72" style="stroke:#181818;stroke-width:1.0;"/></g><!--link RepositoryFactory to CourseRepository--><g id="link_RepositoryFactory_CourseRepository"><path codeLine="97" d="M981.33,915.1 C1030.37,934.33 1084.93,955.72 1129.2,973.07 " fill="none" id="RepositoryFactory-to-CourseRepository" style="stroke:#181818;stroke-width:1.0;"/><polygon fill="#181818" points="1133.99,974.96,1127.0745,967.9474,1129.3359,973.1326,1124.1507,975.394,1133.99,974.96" style="stroke:#181818;stroke-width:1.0;"/></g><!--link RepositoryFactory to QuestionRepository--><g id="link_RepositoryFactory_QuestionRepository"><path codeLine="98" d="M746.1,915.2 C707.12,934.23 663.83,955.36 628.51,972.6 " fill="none" id="RepositoryFactory-to-QuestionRepository" style="stroke:#181818;stroke-width:1.0;"/><polygon fill="#181818" points="623.8,974.89,633.6428,974.5436,628.2948,972.6999,630.1385,967.3519,623.8,974.89" style="stroke:#181818;stroke-width:1.0;"/></g><!--link RepositoryFactory to TeacherRepository--><g id="link_RepositoryFactory_TeacherRepository"><path codeLine="99" d="M851,915.4 C851,933.33 851,953.11 851,969.72 " fill="none" id="RepositoryFactory-to-TeacherRepository" style="stroke:#181818;stroke-width:1.0;"/><polygon fill="#181818" points="851,974.77,855,965.77,851,969.77,847,965.77,851,974.77" style="stroke:#181818;stroke-width:1.0;"/></g><!--link CourseRepository to JPACourseRepository--><g id="link_CourseRepository_JPACourseRepository"><path codeLine="101" d="M1217,1042.02 C1217,1058.67 1217,1079.04 1217,1096.42 " fill="none" id="CourseRepository-to-JPACourseRepository" style="stroke:#181818;stroke-width:1.0;"/><polygon fill="#181818" points="1217,1101.71,1221,1092.71,1217,1096.71,1213,1092.71,1217,1101.71" style="stroke:#181818;stroke-width:1.0;"/></g><!--link QuestionRepository to JPAQuestionRepository--><g id="link_QuestionRepository_JPAQuestionRepository"><path codeLine="102" d="M557,1042.02 C557,1058.67 557,1079.04 557,1096.42 " fill="none" id="QuestionRepository-to-JPAQuestionRepository" style="stroke:#181818;stroke-width:1.0;"/><polygon fill="#181818" points="557,1101.71,561,1092.71,557,1096.71,553,1092.71,557,1101.71" style="stroke:#181818;stroke-width:1.0;"/></g><!--link TeacherRepository to JPATeacherRepository--><g id="link_TeacherRepository_JPATeacherRepository"><path codeLine="103" d="M851,1042.02 C851,1058.67 851,1079.04 851,1096.42 " fill="none" id="TeacherRepository-to-JPATeacherRepository" style="stroke:#181818;stroke-width:1.0;"/><polygon fill="#181818" points="851,1101.71,855,1092.71,851,1096.71,847,1092.71,851,1101.71" style="stroke:#181818;stroke-width:1.0;"/></g><!--SRC=[jLLTRziW57tth-3HLPl-06kAr4RBr6eVRPhjdU4R1ms31pYQE-s_3uBn5pYfj2ml4N3kyJttdWlg1-KLbhX4EUnmpVHQSFqPbu3M7z0tAWlAaeGmh1JQ0YPxaEXtWinlGVCCKQxTWfk832ajAI_S3fIOicxhZoTPIS0QdcjGcWh-zQ5bksPKwPMefGALNcNeerc-S-kb0v1HOAg00T6GEqo6tFyDgh3U-wyQdeEWkOkdV2Ta-QK2YIt11fGHcwgQ450gGz-5O82v3vd9TsMA8mLZVHL-jYUVCCS5bC3r2yW39IQbvxcZDoe-O4RpeUQ9jZRbovH7uKCVxKNr6eAwp8gR5cO3bL1K2zdqRFsUmshdh25qEzroI7BKCGIk9Zl_exYcjlcQCjYAb-Fv53pm_LiB6MlQaFK6nLiODEAkrllN3HH6eMpyD66pAIHzFLgzRKmwsyFeHEkc6dXuQrQ-Lx_qUDB9AC71w1pNvw-BBk09f38oW1EmWsO-vFKKeFiEhp6nVrPFi6d97aoet65ZnU3OyqrjPBdYHWfjRB4pHhuEZ6p1ePL7IOPSFajhfTEpsBC47_4aEyhpzl2-UMylvNHqDVS9ZWcdvHYNJjqtRPHAMz4TptJUklu-FjtzYzYEv49QExwBIWqUkDlRvUmhaim-Bul5yiG3ainVlpPmT2USmOP3TuxTdvw1-KgVHhMNHXAPVNiS3dWI3dNFCvYnE2mok75WEBH9O1EBYzWdYPYyXKO-7vgvnKOoIFu2]--></g></svg>