<?xml version="1.0" encoding="us-ascii" standalone="no"?><svg xmlns="http://www.w3.org/2000/svg" xmlns:xlink="http://www.w3.org/1999/xlink" contentStyleType="text/css" height="1230px" preserveAspectRatio="none" style="width:1405px;height:1230px;background:#FFFFFF;" version="1.1" viewBox="0 0 1405 1230" width="1405px" zoomAndPan="magnify"><defs/><g><!--class Teacher--><g id="elem_Teacher"><rect codeLine="5" fill="#F1F1F1" height="103.8633" id="Teacher" rx="2.5" ry="2.5" style="stroke:#181818;stroke-width:0.5;" width="104" x="7" y="656"/><ellipse cx="30.55" cy="672" fill="#ADD1B2" rx="11" ry="11" style="stroke:#181818;stroke-width:1.0;"/><path d="M33.3156,667.875 Q33.4719,667.6563 33.6594,667.5469 Q33.8469,667.4375 34.0656,667.4375 Q34.4406,667.4375 34.675,667.7031 Q34.9094,667.9531 34.9094,668.5625 L34.9094,670.0156 Q34.9094,670.625 34.675,670.8906 Q34.4406,671.1563 34.0656,671.1563 Q33.7219,671.1563 33.5188,670.9531 Q33.3156,670.7656 33.2063,670.25 Q33.1594,669.8906 32.9719,669.7031 Q32.6438,669.3281 32.0344,669.1094 Q31.425,668.8906 30.8,668.8906 Q30.0344,668.8906 29.3938,669.2188 Q28.7688,669.5469 28.2688,670.2969 Q27.7844,671.0469 27.7844,672.0781 L27.7844,673.1719 Q27.7844,674.4063 28.675,675.2344 Q29.5656,676.0469 31.1594,676.0469 Q32.0969,676.0469 32.7531,675.7969 Q33.1438,675.6406 33.5656,675.2031 Q33.8313,674.9375 33.9719,674.8594 Q34.1281,674.7813 34.3313,674.7813 Q34.6594,674.7813 34.9094,675.0469 Q35.175,675.2969 35.175,675.6406 Q35.175,675.9844 34.8313,676.3906 Q34.3313,676.9688 33.5344,677.2969 Q32.4563,677.75 31.1594,677.75 Q29.6438,677.75 28.4406,677.125 Q27.4563,676.625 26.7688,675.5625 Q26.0813,674.4844 26.0813,673.2031 L26.0813,672.0469 Q26.0813,670.7188 26.6906,669.5781 Q27.3156,668.4219 28.4094,667.8125 Q29.5031,667.1875 30.7375,667.1875 Q31.4719,667.1875 32.1125,667.3594 Q32.7688,667.5156 33.3156,667.875 Z " fill="#000000"/><text fill="#000000" font-family="FG Virgil" font-size="14" lengthAdjust="spacing" textLength="53" x="46.45" y="677.7969">Teacher</text><line style="stroke:#181818;stroke-width:0.5;" x1="8" x2="110" y1="688" y2="688"/><rect fill="none" height="6" style="stroke:#C82930;stroke-width:1.0;" width="6" x="15" y="699.8105"/><text fill="#000000" font-family="FG Virgil" font-size="14" lengthAdjust="spacing" textLength="34" x="27" y="707.1074">id: int</text><rect fill="none" height="6" style="stroke:#C82930;stroke-width:1.0;" width="6" x="15" y="718.4316"/><text fill="#000000" font-family="FG Virgil" font-size="14" lengthAdjust="spacing" textLength="78" x="27" y="725.7285">name: string</text><rect fill="none" height="6" style="stroke:#C82930;stroke-width:1.0;" width="6" x="15" y="737.0527"/><text fill="#000000" font-family="FG Virgil" font-size="14" lengthAdjust="spacing" textLength="76" x="27" y="744.3496">email: string</text><line style="stroke:#181818;stroke-width:0.5;" x1="8" x2="110" y1="751.8633" y2="751.8633"/></g><!--class UpdateQuestionUI--><g id="elem_UpdateQuestionUI"><rect codeLine="11" fill="#F1F1F1" height="122.4844" id="UpdateQuestionUI" rx="2.5" ry="2.5" style="stroke:#181818;stroke-width:0.5;" width="373" x="267.5" y="7"/><ellipse cx="392.75" cy="23" fill="#ADD1B2" rx="11" ry="11" style="stroke:#181818;stroke-width:1.0;"/><path d="M395.5156,18.875 Q395.6719,18.6563 395.8594,18.5469 Q396.0469,18.4375 396.2656,18.4375 Q396.6406,18.4375 396.875,18.7031 Q397.1094,18.9531 397.1094,19.5625 L397.1094,21.0156 Q397.1094,21.625 396.875,21.8906 Q396.6406,22.1563 396.2656,22.1563 Q395.9219,22.1563 395.7188,21.9531 Q395.5156,21.7656 395.4063,21.25 Q395.3594,20.8906 395.1719,20.7031 Q394.8438,20.3281 394.2344,20.1094 Q393.625,19.8906 393,19.8906 Q392.2344,19.8906 391.5938,20.2188 Q390.9688,20.5469 390.4688,21.2969 Q389.9844,22.0469 389.9844,23.0781 L389.9844,24.1719 Q389.9844,25.4063 390.875,26.2344 Q391.7656,27.0469 393.3594,27.0469 Q394.2969,27.0469 394.9531,26.7969 Q395.3438,26.6406 395.7656,26.2031 Q396.0313,25.9375 396.1719,25.8594 Q396.3281,25.7813 396.5313,25.7813 Q396.8594,25.7813 397.1094,26.0469 Q397.375,26.2969 397.375,26.6406 Q397.375,26.9844 397.0313,27.3906 Q396.5313,27.9688 395.7344,28.2969 Q394.6563,28.75 393.3594,28.75 Q391.8438,28.75 390.6406,28.125 Q389.6563,27.625 388.9688,26.5625 Q388.2813,25.4844 388.2813,24.2031 L388.2813,23.0469 Q388.2813,21.7188 388.8906,20.5781 Q389.5156,19.4219 390.6094,18.8125 Q391.7031,18.1875 392.9375,18.1875 Q393.6719,18.1875 394.3125,18.3594 Q394.9688,18.5156 395.5156,18.875 Z " fill="#000000"/><text fill="#000000" font-family="FG Virgil" font-size="14" lengthAdjust="spacing" textLength="114" x="413.25" y="28.7969">UpdateQuestionUI</text><line style="stroke:#181818;stroke-width:0.5;" x1="268.5" x2="639.5" y1="39" y2="39"/><line style="stroke:#181818;stroke-width:0.5;" x1="268.5" x2="639.5" y1="47" y2="47"/><ellipse cx="278.5" cy="61.8105" fill="#84BE84" rx="3" ry="3" style="stroke:#038048;stroke-width:1.0;"/><text fill="#000000" font-family="FG Virgil" font-size="14" lengthAdjust="spacing" textLength="172" x="287.5" y="66.1074">listCourses(): List&lt;Course&gt;</text><ellipse cx="278.5" cy="80.4316" fill="#84BE84" rx="3" ry="3" style="stroke:#038048;stroke-width:1.0;"/><text fill="#000000" font-family="FG Virgil" font-size="14" lengthAdjust="spacing" textLength="347" x="287.5" y="84.7285">listQuestions(selectedCourse: Course): List&lt;Question&gt;</text><ellipse cx="278.5" cy="99.0527" fill="#84BE84" rx="3" ry="3" style="stroke:#038048;stroke-width:1.0;"/><text fill="#000000" font-family="FG Virgil" font-size="14" lengthAdjust="spacing" textLength="343" x="287.5" y="103.3496">updateQuestion(question: Question, path: string): void</text><ellipse cx="278.5" cy="117.6738" fill="#84BE84" rx="3" ry="3" style="stroke:#038048;stroke-width:1.0;"/><text fill="#000000" font-family="FG Virgil" font-size="14" lengthAdjust="spacing" textLength="296" x="287.5" y="121.9707">informOperationResult(success: boolean): void</text></g><!--class UpdateQuestionController--><g id="elem_UpdateQuestionController"><rect codeLine="18" fill="#F1F1F1" height="141.1055" id="UpdateQuestionController" rx="2.5" ry="2.5" style="stroke:#181818;stroke-width:0.5;" width="403" x="252.5" y="189"/><ellipse cx="367.75" cy="205" fill="#ADD1B2" rx="11" ry="11" style="stroke:#181818;stroke-width:1.0;"/><path d="M370.5156,200.875 Q370.6719,200.6563 370.8594,200.5469 Q371.0469,200.4375 371.2656,200.4375 Q371.6406,200.4375 371.875,200.7031 Q372.1094,200.9531 372.1094,201.5625 L372.1094,203.0156 Q372.1094,203.625 371.875,203.8906 Q371.6406,204.1563 371.2656,204.1563 Q370.9219,204.1563 370.7188,203.9531 Q370.5156,203.7656 370.4063,203.25 Q370.3594,202.8906 370.1719,202.7031 Q369.8438,202.3281 369.2344,202.1094 Q368.625,201.8906 368,201.8906 Q367.2344,201.8906 366.5938,202.2188 Q365.9688,202.5469 365.4688,203.2969 Q364.9844,204.0469 364.9844,205.0781 L364.9844,206.1719 Q364.9844,207.4063 365.875,208.2344 Q366.7656,209.0469 368.3594,209.0469 Q369.2969,209.0469 369.9531,208.7969 Q370.3438,208.6406 370.7656,208.2031 Q371.0313,207.9375 371.1719,207.8594 Q371.3281,207.7813 371.5313,207.7813 Q371.8594,207.7813 372.1094,208.0469 Q372.375,208.2969 372.375,208.6406 Q372.375,208.9844 372.0313,209.3906 Q371.5313,209.9688 370.7344,210.2969 Q369.6563,210.75 368.3594,210.75 Q366.8438,210.75 365.6406,210.125 Q364.6563,209.625 363.9688,208.5625 Q363.2813,207.4844 363.2813,206.2031 L363.2813,205.0469 Q363.2813,203.7188 363.8906,202.5781 Q364.5156,201.4219 365.6094,200.8125 Q366.7031,200.1875 367.9375,200.1875 Q368.6719,200.1875 369.3125,200.3594 Q369.9688,200.5156 370.5156,200.875 Z " fill="#000000"/><text fill="#000000" font-family="FG Virgil" font-size="14" lengthAdjust="spacing" textLength="164" x="388.25" y="210.7969">UpdateQuestionController</text><line style="stroke:#181818;stroke-width:0.5;" x1="253.5" x2="654.5" y1="221" y2="221"/><rect fill="none" height="6" style="stroke:#C82930;stroke-width:1.0;" width="6" x="260.5" y="232.8105"/><text fill="#000000" font-family="FG Virgil" font-size="14" lengthAdjust="spacing" textLength="377" x="272.5" y="240.1074">questionManagementService: QuestionManagementService</text><line style="stroke:#181818;stroke-width:0.5;" x1="253.5" x2="654.5" y1="247.6211" y2="247.6211"/><ellipse cx="263.5" cy="262.4316" fill="#84BE84" rx="3" ry="3" style="stroke:#038048;stroke-width:1.0;"/><text fill="#000000" font-family="FG Virgil" font-size="14" lengthAdjust="spacing" textLength="172" x="272.5" y="266.7285">listCourses(): List&lt;Course&gt;</text><ellipse cx="263.5" cy="281.0527" fill="#84BE84" rx="3" ry="3" style="stroke:#038048;stroke-width:1.0;"/><text fill="#000000" font-family="FG Virgil" font-size="14" lengthAdjust="spacing" textLength="347" x="272.5" y="285.3496">listQuestions(selectedCourse: Course): List&lt;Question&gt;</text><ellipse cx="263.5" cy="299.6738" fill="#84BE84" rx="3" ry="3" style="stroke:#038048;stroke-width:1.0;"/><text fill="#000000" font-family="FG Virgil" font-size="14" lengthAdjust="spacing" textLength="343" x="272.5" y="303.9707">updateQuestion(question: Question, path: string): void</text><ellipse cx="263.5" cy="318.2949" fill="#84BE84" rx="3" ry="3" style="stroke:#038048;stroke-width:1.0;"/><text fill="#000000" font-family="FG Virgil" font-size="14" lengthAdjust="spacing" textLength="250" x="272.5" y="322.5918">saveQuestion(question: Question): void</text></g><!--class QuestionManagementService--><g id="elem_QuestionManagementService"><rect codeLine="26" fill="#F1F1F1" height="196.9688" id="QuestionManagementService" rx="2.5" ry="2.5" style="stroke:#181818;stroke-width:0.5;" width="373" x="267.5" y="390"/><ellipse cx="356.75" cy="406" fill="#ADD1B2" rx="11" ry="11" style="stroke:#181818;stroke-width:1.0;"/><path d="M359.5156,401.875 Q359.6719,401.6563 359.8594,401.5469 Q360.0469,401.4375 360.2656,401.4375 Q360.6406,401.4375 360.875,401.7031 Q361.1094,401.9531 361.1094,402.5625 L361.1094,404.0156 Q361.1094,404.625 360.875,404.8906 Q360.6406,405.1563 360.2656,405.1563 Q359.9219,405.1563 359.7188,404.9531 Q359.5156,404.7656 359.4063,404.25 Q359.3594,403.8906 359.1719,403.7031 Q358.8438,403.3281 358.2344,403.1094 Q357.625,402.8906 357,402.8906 Q356.2344,402.8906 355.5938,403.2188 Q354.9688,403.5469 354.4688,404.2969 Q353.9844,405.0469 353.9844,406.0781 L353.9844,407.1719 Q353.9844,408.4063 354.875,409.2344 Q355.7656,410.0469 357.3594,410.0469 Q358.2969,410.0469 358.9531,409.7969 Q359.3438,409.6406 359.7656,409.2031 Q360.0313,408.9375 360.1719,408.8594 Q360.3281,408.7813 360.5313,408.7813 Q360.8594,408.7813 361.1094,409.0469 Q361.375,409.2969 361.375,409.6406 Q361.375,409.9844 361.0313,410.3906 Q360.5313,410.9688 359.7344,411.2969 Q358.6563,411.75 357.3594,411.75 Q355.8438,411.75 354.6406,411.125 Q353.6563,410.625 352.9688,409.5625 Q352.2813,408.4844 352.2813,407.2031 L352.2813,406.0469 Q352.2813,404.7188 352.8906,403.5781 Q353.5156,402.4219 354.6094,401.8125 Q355.7031,401.1875 356.9375,401.1875 Q357.6719,401.1875 358.3125,401.3594 Q358.9688,401.5156 359.5156,401.875 Z " fill="#000000"/><text fill="#000000" font-family="FG Virgil" font-size="14" lengthAdjust="spacing" textLength="186" x="377.25" y="411.7969">QuestionManagementService</text><line style="stroke:#181818;stroke-width:0.5;" x1="268.5" x2="639.5" y1="422" y2="422"/><rect fill="none" height="6" style="stroke:#C82930;stroke-width:1.0;" width="6" x="275.5" y="433.8105"/><text fill="#000000" font-family="FG Virgil" font-size="14" lengthAdjust="spacing" textLength="255" x="287.5" y="441.1074">questionRepository: QuestionRepository</text><rect fill="none" height="6" style="stroke:#C82930;stroke-width:1.0;" width="6" x="275.5" y="452.4316"/><text fill="#000000" font-family="FG Virgil" font-size="14" lengthAdjust="spacing" textLength="245" x="287.5" y="459.7285">teacherRepository: TeacherRepository</text><rect fill="none" height="6" style="stroke:#C82930;stroke-width:1.0;" width="6" x="275.5" y="471.0527"/><text fill="#000000" font-family="FG Virgil" font-size="14" lengthAdjust="spacing" textLength="233" x="287.5" y="478.3496">courseRepository: CourseRepository</text><line style="stroke:#181818;stroke-width:0.5;" x1="268.5" x2="639.5" y1="485.8633" y2="485.8633"/><ellipse cx="278.5" cy="500.6738" fill="#84BE84" rx="3" ry="3" style="stroke:#038048;stroke-width:1.0;"/><text fill="#000000" font-family="FG Virgil" font-size="14" lengthAdjust="spacing" textLength="172" x="287.5" y="504.9707">listCourses(): List&lt;Course&gt;</text><ellipse cx="278.5" cy="519.2949" fill="#84BE84" rx="3" ry="3" style="stroke:#038048;stroke-width:1.0;"/><text fill="#000000" font-family="FG Virgil" font-size="14" lengthAdjust="spacing" textLength="347" x="287.5" y="523.5918">listQuestions(selectedCourse: Course): List&lt;Question&gt;</text><ellipse cx="278.5" cy="537.916" fill="#84BE84" rx="3" ry="3" style="stroke:#038048;stroke-width:1.0;"/><text fill="#000000" font-family="FG Virgil" font-size="14" lengthAdjust="spacing" textLength="230" x="287.5" y="542.2129">readFileToString(path: string): string</text><ellipse cx="278.5" cy="556.5371" fill="#84BE84" rx="3" ry="3" style="stroke:#038048;stroke-width:1.0;"/><text fill="#000000" font-family="FG Virgil" font-size="14" lengthAdjust="spacing" textLength="239" x="287.5" y="560.834">setQuestion(question: Question): void</text><ellipse cx="278.5" cy="575.1582" fill="#84BE84" rx="3" ry="3" style="stroke:#038048;stroke-width:1.0;"/><text fill="#000000" font-family="FG Virgil" font-size="14" lengthAdjust="spacing" textLength="250" x="287.5" y="579.4551">saveQuestion(question: Question): void</text></g><!--class AuthzRegistry--><g id="elem_AuthzRegistry"><rect codeLine="37" fill="#F1F1F1" height="66.6211" id="AuthzRegistry" rx="2.5" ry="2.5" style="stroke:#181818;stroke-width:0.5;" width="198" x="146" y="674.5"/><ellipse cx="197.25" cy="690.5" fill="#ADD1B2" rx="11" ry="11" style="stroke:#181818;stroke-width:1.0;"/><path d="M200.0156,686.375 Q200.1719,686.1563 200.3594,686.0469 Q200.5469,685.9375 200.7656,685.9375 Q201.1406,685.9375 201.375,686.2031 Q201.6094,686.4531 201.6094,687.0625 L201.6094,688.5156 Q201.6094,689.125 201.375,689.3906 Q201.1406,689.6563 200.7656,689.6563 Q200.4219,689.6563 200.2188,689.4531 Q200.0156,689.2656 199.9063,688.75 Q199.8594,688.3906 199.6719,688.2031 Q199.3438,687.8281 198.7344,687.6094 Q198.125,687.3906 197.5,687.3906 Q196.7344,687.3906 196.0938,687.7188 Q195.4688,688.0469 194.9688,688.7969 Q194.4844,689.5469 194.4844,690.5781 L194.4844,691.6719 Q194.4844,692.9063 195.375,693.7344 Q196.2656,694.5469 197.8594,694.5469 Q198.7969,694.5469 199.4531,694.2969 Q199.8438,694.1406 200.2656,693.7031 Q200.5313,693.4375 200.6719,693.3594 Q200.8281,693.2813 201.0313,693.2813 Q201.3594,693.2813 201.6094,693.5469 Q201.875,693.7969 201.875,694.1406 Q201.875,694.4844 201.5313,694.8906 Q201.0313,695.4688 200.2344,695.7969 Q199.1563,696.25 197.8594,696.25 Q196.3438,696.25 195.1406,695.625 Q194.1563,695.125 193.4688,694.0625 Q192.7813,692.9844 192.7813,691.7031 L192.7813,690.5469 Q192.7813,689.2188 193.3906,688.0781 Q194.0156,686.9219 195.1094,686.3125 Q196.2031,685.6875 197.4375,685.6875 Q198.1719,685.6875 198.8125,685.8594 Q199.4688,686.0156 200.0156,686.375 Z " fill="#000000"/><text fill="#000000" font-family="FG Virgil" font-size="14" lengthAdjust="spacing" textLength="87" x="217.75" y="696.2969">AuthzRegistry</text><line style="stroke:#181818;stroke-width:0.5;" x1="147" x2="343" y1="706.5" y2="706.5"/><line style="stroke:#181818;stroke-width:0.5;" x1="147" x2="343" y1="714.5" y2="714.5"/><ellipse cx="157" cy="729.3105" fill="#84BE84" rx="3" ry="3" style="stroke:#038048;stroke-width:1.0;"/><text fill="#000000" font-family="FG Virgil" font-size="14" lengthAdjust="spacing" textLength="172" x="166" y="733.6074">authorizationService(): void</text></g><!--class Question--><g id="elem_Question"><rect codeLine="41" fill="#F1F1F1" height="122.4844" id="Question" rx="2.5" ry="2.5" style="stroke:#181818;stroke-width:0.5;" width="150" x="379" y="647"/><ellipse cx="421.45" cy="663" fill="#ADD1B2" rx="11" ry="11" style="stroke:#181818;stroke-width:1.0;"/><path d="M424.2156,658.875 Q424.3719,658.6563 424.5594,658.5469 Q424.7469,658.4375 424.9656,658.4375 Q425.3406,658.4375 425.575,658.7031 Q425.8094,658.9531 425.8094,659.5625 L425.8094,661.0156 Q425.8094,661.625 425.575,661.8906 Q425.3406,662.1563 424.9656,662.1563 Q424.6219,662.1563 424.4188,661.9531 Q424.2156,661.7656 424.1063,661.25 Q424.0594,660.8906 423.8719,660.7031 Q423.5438,660.3281 422.9344,660.1094 Q422.325,659.8906 421.7,659.8906 Q420.9344,659.8906 420.2938,660.2188 Q419.6688,660.5469 419.1688,661.2969 Q418.6844,662.0469 418.6844,663.0781 L418.6844,664.1719 Q418.6844,665.4063 419.575,666.2344 Q420.4656,667.0469 422.0594,667.0469 Q422.9969,667.0469 423.6531,666.7969 Q424.0438,666.6406 424.4656,666.2031 Q424.7313,665.9375 424.8719,665.8594 Q425.0281,665.7813 425.2313,665.7813 Q425.5594,665.7813 425.8094,666.0469 Q426.075,666.2969 426.075,666.6406 Q426.075,666.9844 425.7313,667.3906 Q425.2313,667.9688 424.4344,668.2969 Q423.3563,668.75 422.0594,668.75 Q420.5438,668.75 419.3406,668.125 Q418.3563,667.625 417.6688,666.5625 Q416.9813,665.4844 416.9813,664.2031 L416.9813,663.0469 Q416.9813,661.7188 417.5906,660.5781 Q418.2156,659.4219 419.3094,658.8125 Q420.4031,658.1875 421.6375,658.1875 Q422.3719,658.1875 423.0125,658.3594 Q423.6688,658.5156 424.2156,658.875 Z " fill="#000000"/><text fill="#000000" font-family="FG Virgil" font-size="14" lengthAdjust="spacing" textLength="57" x="441.55" y="668.7969">Question</text><line style="stroke:#181818;stroke-width:0.5;" x1="380" x2="528" y1="679" y2="679"/><rect fill="none" height="6" style="stroke:#C82930;stroke-width:1.0;" width="6" x="387" y="690.8105"/><text fill="#000000" font-family="FG Virgil" font-size="14" lengthAdjust="spacing" textLength="34" x="399" y="698.1074">id: int</text><rect fill="none" height="6" style="stroke:#C82930;stroke-width:1.0;" width="6" x="387" y="709.4316"/><text fill="#000000" font-family="FG Virgil" font-size="14" lengthAdjust="spacing" textLength="124" x="399" y="716.7285">type: QuestionType</text><rect fill="none" height="6" style="stroke:#C82930;stroke-width:1.0;" width="6" x="387" y="728.0527"/><text fill="#000000" font-family="FG Virgil" font-size="14" lengthAdjust="spacing" textLength="65" x="399" y="735.3496">text: string</text><rect fill="none" height="6" style="stroke:#C82930;stroke-width:1.0;" width="6" x="387" y="746.6738"/><text fill="#000000" font-family="FG Virgil" font-size="14" lengthAdjust="spacing" textLength="97" x="399" y="753.9707">course: Course</text><line style="stroke:#181818;stroke-width:0.5;" x1="380" x2="528" y1="761.4844" y2="761.4844"/></g><!--class Course--><g id="elem_Course"><rect codeLine="48" fill="#F1F1F1" height="85.2422" id="Course" rx="2.5" ry="2.5" style="stroke:#181818;stroke-width:0.5;" width="104" x="564" y="665.5"/><ellipse cx="590.7" cy="681.5" fill="#ADD1B2" rx="11" ry="11" style="stroke:#181818;stroke-width:1.0;"/><path d="M593.4656,677.375 Q593.6219,677.1563 593.8094,677.0469 Q593.9969,676.9375 594.2156,676.9375 Q594.5906,676.9375 594.825,677.2031 Q595.0594,677.4531 595.0594,678.0625 L595.0594,679.5156 Q595.0594,680.125 594.825,680.3906 Q594.5906,680.6563 594.2156,680.6563 Q593.8719,680.6563 593.6688,680.4531 Q593.4656,680.2656 593.3563,679.75 Q593.3094,679.3906 593.1219,679.2031 Q592.7938,678.8281 592.1844,678.6094 Q591.575,678.3906 590.95,678.3906 Q590.1844,678.3906 589.5438,678.7188 Q588.9188,679.0469 588.4188,679.7969 Q587.9344,680.5469 587.9344,681.5781 L587.9344,682.6719 Q587.9344,683.9063 588.825,684.7344 Q589.7156,685.5469 591.3094,685.5469 Q592.2469,685.5469 592.9031,685.2969 Q593.2938,685.1406 593.7156,684.7031 Q593.9813,684.4375 594.1219,684.3594 Q594.2781,684.2813 594.4813,684.2813 Q594.8094,684.2813 595.0594,684.5469 Q595.325,684.7969 595.325,685.1406 Q595.325,685.4844 594.9813,685.8906 Q594.4813,686.4688 593.6844,686.7969 Q592.6063,687.25 591.3094,687.25 Q589.7938,687.25 588.5906,686.625 Q587.6063,686.125 586.9188,685.0625 Q586.2313,683.9844 586.2313,682.7031 L586.2313,681.5469 Q586.2313,680.2188 586.8406,679.0781 Q587.4656,677.9219 588.5594,677.3125 Q589.6531,676.6875 590.8875,676.6875 Q591.6219,676.6875 592.2625,676.8594 Q592.9188,677.0156 593.4656,677.375 Z " fill="#000000"/><text fill="#000000" font-family="FG Virgil" font-size="14" lengthAdjust="spacing" textLength="46" x="607.3" y="687.2969">Course</text><line style="stroke:#181818;stroke-width:0.5;" x1="565" x2="667" y1="697.5" y2="697.5"/><rect fill="none" height="6" style="stroke:#C82930;stroke-width:1.0;" width="6" x="572" y="709.3105"/><text fill="#000000" font-family="FG Virgil" font-size="14" lengthAdjust="spacing" textLength="34" x="584" y="716.6074">id: int</text><rect fill="none" height="6" style="stroke:#C82930;stroke-width:1.0;" width="6" x="572" y="727.9316"/><text fill="#000000" font-family="FG Virgil" font-size="14" lengthAdjust="spacing" textLength="78" x="584" y="735.2285">name: string</text><line style="stroke:#181818;stroke-width:0.5;" x1="565" x2="667" y1="742.7422" y2="742.7422"/></g><!--class PersistenceContext--><g id="elem_PersistenceContext"><rect codeLine="53" fill="#F1F1F1" height="66.6211" id="PersistenceContext" rx="2.5" ry="2.5" style="stroke:#181818;stroke-width:0.5;" width="296" x="703" y="674.5"/><ellipse cx="785.75" cy="690.5" fill="#ADD1B2" rx="11" ry="11" style="stroke:#181818;stroke-width:1.0;"/><path d="M788.5156,686.375 Q788.6719,686.1563 788.8594,686.0469 Q789.0469,685.9375 789.2656,685.9375 Q789.6406,685.9375 789.875,686.2031 Q790.1094,686.4531 790.1094,687.0625 L790.1094,688.5156 Q790.1094,689.125 789.875,689.3906 Q789.6406,689.6563 789.2656,689.6563 Q788.9219,689.6563 788.7188,689.4531 Q788.5156,689.2656 788.4063,688.75 Q788.3594,688.3906 788.1719,688.2031 Q787.8438,687.8281 787.2344,687.6094 Q786.625,687.3906 786,687.3906 Q785.2344,687.3906 784.5938,687.7188 Q783.9688,688.0469 783.4688,688.7969 Q782.9844,689.5469 782.9844,690.5781 L782.9844,691.6719 Q782.9844,692.9063 783.875,693.7344 Q784.7656,694.5469 786.3594,694.5469 Q787.2969,694.5469 787.9531,694.2969 Q788.3438,694.1406 788.7656,693.7031 Q789.0313,693.4375 789.1719,693.3594 Q789.3281,693.2813 789.5313,693.2813 Q789.8594,693.2813 790.1094,693.5469 Q790.375,693.7969 790.375,694.1406 Q790.375,694.4844 790.0313,694.8906 Q789.5313,695.4688 788.7344,695.7969 Q787.6563,696.25 786.3594,696.25 Q784.8438,696.25 783.6406,695.625 Q782.6563,695.125 781.9688,694.0625 Q781.2813,692.9844 781.2813,691.7031 L781.2813,690.5469 Q781.2813,689.2188 781.8906,688.0781 Q782.5156,686.9219 783.6094,686.3125 Q784.7031,685.6875 785.9375,685.6875 Q786.6719,685.6875 787.3125,685.8594 Q787.9688,686.0156 788.5156,686.375 Z " fill="#000000"/><text fill="#000000" font-family="FG Virgil" font-size="14" lengthAdjust="spacing" textLength="122" x="806.25" y="696.2969">PersistenceContext</text><line style="stroke:#181818;stroke-width:0.5;" x1="704" x2="998" y1="706.5" y2="706.5"/><line style="stroke:#181818;stroke-width:0.5;" x1="704" x2="998" y1="714.5" y2="714.5"/><ellipse cx="714" cy="729.3105" fill="#84BE84" rx="3" ry="3" style="stroke:#038048;stroke-width:1.0;"/><text fill="#000000" font-family="FG Virgil" font-size="14" lengthAdjust="spacing" textLength="270" x="723" y="733.6074">getRepositoryFactory(): RepositoryFactory</text></g><!--class RepositoryFactory--><g id="elem_RepositoryFactory"><rect codeLine="57" fill="#F1F1F1" height="103.8633" id="RepositoryFactory" rx="2.5" ry="2.5" style="stroke:#181818;stroke-width:0.5;" width="291" x="705.5" y="829"/><ellipse cx="788.75" cy="845" fill="#B4A7E5" rx="11" ry="11" style="stroke:#181818;stroke-width:1.0;"/><path d="M789.7031,841.6406 L789.7031,848.2969 L791.4219,848.2969 Q792.0313,848.2969 792.2969,848.5313 Q792.5625,848.7656 792.5625,849.1563 Q792.5625,849.5313 792.2969,849.7656 Q792.0313,850 791.4219,850 L786.2813,850 Q785.6719,850 785.4063,849.7656 Q785.1406,849.5313 785.1406,849.1406 Q785.1406,848.7656 785.4063,848.5313 Q785.6719,848.2969 786.2813,848.2969 L788,848.2969 L788,841.6406 L786.2813,841.6406 Q785.6719,841.6406 785.4063,841.4063 Q785.1406,841.1719 785.1406,840.7813 Q785.1406,840.4063 785.4063,840.1719 Q785.6719,839.9375 786.2813,839.9375 L791.4219,839.9375 Q792.0313,839.9375 792.2969,840.1719 Q792.5625,840.4063 792.5625,840.7813 Q792.5625,841.1719 792.2969,841.4063 Q792.0313,841.6406 791.4219,841.6406 L789.7031,841.6406 Z " fill="#000000"/><text fill="#000000" font-family="FG Virgil" font-size="14" font-style="italic" lengthAdjust="spacing" textLength="116" x="809.25" y="850.7969">RepositoryFactory</text><line style="stroke:#181818;stroke-width:0.5;" x1="706.5" x2="995.5" y1="861" y2="861"/><line style="stroke:#181818;stroke-width:0.5;" x1="706.5" x2="995.5" y1="869" y2="869"/><ellipse cx="716.5" cy="883.8105" fill="#84BE84" rx="3" ry="3" style="stroke:#038048;stroke-width:1.0;"/><text fill="#000000" font-family="FG Virgil" font-size="14" lengthAdjust="spacing" textLength="243" x="725.5" y="888.1074">courseRepository(): CourseRepository</text><ellipse cx="716.5" cy="902.4316" fill="#84BE84" rx="3" ry="3" style="stroke:#038048;stroke-width:1.0;"/><text fill="#000000" font-family="FG Virgil" font-size="14" lengthAdjust="spacing" textLength="265" x="725.5" y="906.7285">questionRepository(): QuestionRepository</text><ellipse cx="716.5" cy="921.0527" fill="#84BE84" rx="3" ry="3" style="stroke:#038048;stroke-width:1.0;"/><text fill="#000000" font-family="FG Virgil" font-size="14" lengthAdjust="spacing" textLength="255" x="725.5" y="925.3496">teacherRepository(): TeacherRepository</text></g><!--class QuestionRepository--><g id="elem_QuestionRepository"><rect codeLine="63" fill="#F1F1F1" height="85.2422" id="QuestionRepository" rx="2.5" ry="2.5" style="stroke:#181818;stroke-width:0.5;" width="373" x="293.5" y="993"/><ellipse cx="413.25" cy="1009" fill="#B4A7E5" rx="11" ry="11" style="stroke:#181818;stroke-width:1.0;"/><path d="M414.2031,1005.6406 L414.2031,1012.2969 L415.9219,1012.2969 Q416.5313,1012.2969 416.7969,1012.5313 Q417.0625,1012.7656 417.0625,1013.1563 Q417.0625,1013.5313 416.7969,1013.7656 Q416.5313,1014 415.9219,1014 L410.7813,1014 Q410.1719,1014 409.9063,1013.7656 Q409.6406,1013.5313 409.6406,1013.1406 Q409.6406,1012.7656 409.9063,1012.5313 Q410.1719,1012.2969 410.7813,1012.2969 L412.5,1012.2969 L412.5,1005.6406 L410.7813,1005.6406 Q410.1719,1005.6406 409.9063,1005.4063 Q409.6406,1005.1719 409.6406,1004.7813 Q409.6406,1004.4063 409.9063,1004.1719 Q410.1719,1003.9375 410.7813,1003.9375 L415.9219,1003.9375 Q416.5313,1003.9375 416.7969,1004.1719 Q417.0625,1004.4063 417.0625,1004.7813 Q417.0625,1005.1719 416.7969,1005.4063 Q416.5313,1005.6406 415.9219,1005.6406 L414.2031,1005.6406 Z " fill="#000000"/><text fill="#000000" font-family="FG Virgil" font-size="14" font-style="italic" lengthAdjust="spacing" textLength="125" x="433.75" y="1014.7969">QuestionRepository</text><line style="stroke:#181818;stroke-width:0.5;" x1="294.5" x2="665.5" y1="1025" y2="1025"/><line style="stroke:#181818;stroke-width:0.5;" x1="294.5" x2="665.5" y1="1033" y2="1033"/><ellipse cx="304.5" cy="1047.8105" fill="#84BE84" rx="3" ry="3" style="stroke:#038048;stroke-width:1.0;"/><text fill="#000000" font-family="FG Virgil" font-size="14" lengthAdjust="spacing" textLength="347" x="313.5" y="1052.1074">listQuestions(selectedCourse: Course): List&lt;Question&gt;</text><ellipse cx="304.5" cy="1066.4316" fill="#84BE84" rx="3" ry="3" style="stroke:#038048;stroke-width:1.0;"/><text fill="#000000" font-family="FG Virgil" font-size="14" lengthAdjust="spacing" textLength="193" x="313.5" y="1070.7285">save(question: Question): void</text></g><!--class TeacherRepository--><g id="elem_TeacherRepository"><rect codeLine="68" fill="#F1F1F1" height="66.6211" id="TeacherRepository" rx="2.5" ry="2.5" style="stroke:#181818;stroke-width:0.5;" width="299" x="701.5" y="1002"/><ellipse cx="786.25" cy="1018" fill="#B4A7E5" rx="11" ry="11" style="stroke:#181818;stroke-width:1.0;"/><path d="M787.2031,1014.6406 L787.2031,1021.2969 L788.9219,1021.2969 Q789.5313,1021.2969 789.7969,1021.5313 Q790.0625,1021.7656 790.0625,1022.1563 Q790.0625,1022.5313 789.7969,1022.7656 Q789.5313,1023 788.9219,1023 L783.7813,1023 Q783.1719,1023 782.9063,1022.7656 Q782.6406,1022.5313 782.6406,1022.1406 Q782.6406,1021.7656 782.9063,1021.5313 Q783.1719,1021.2969 783.7813,1021.2969 L785.5,1021.2969 L785.5,1014.6406 L783.7813,1014.6406 Q783.1719,1014.6406 782.9063,1014.4063 Q782.6406,1014.1719 782.6406,1013.7813 Q782.6406,1013.4063 782.9063,1013.1719 Q783.1719,1012.9375 783.7813,1012.9375 L788.9219,1012.9375 Q789.5313,1012.9375 789.7969,1013.1719 Q790.0625,1013.4063 790.0625,1013.7813 Q790.0625,1014.1719 789.7969,1014.4063 Q789.5313,1014.6406 788.9219,1014.6406 L787.2031,1014.6406 Z " fill="#000000"/><text fill="#000000" font-family="FG Virgil" font-size="14" font-style="italic" lengthAdjust="spacing" textLength="121" x="806.75" y="1023.7969">TeacherRepository</text><line style="stroke:#181818;stroke-width:0.5;" x1="702.5" x2="999.5" y1="1034" y2="1034"/><line style="stroke:#181818;stroke-width:0.5;" x1="702.5" x2="999.5" y1="1042" y2="1042"/><ellipse cx="712.5" cy="1056.8105" fill="#84BE84" rx="3" ry="3" style="stroke:#038048;stroke-width:1.0;"/><text fill="#000000" font-family="FG Virgil" font-size="14" lengthAdjust="spacing" textLength="273" x="721.5" y="1061.1074">findTeacherByEmail(email: string): Teacher</text></g><!--class CourseRepository--><g id="elem_CourseRepository"><rect codeLine="72" fill="#F1F1F1" height="66.6211" id="CourseRepository" rx="2.5" ry="2.5" style="stroke:#181818;stroke-width:0.5;" width="363" x="1035.5" y="1002"/><ellipse cx="1155.75" cy="1018" fill="#B4A7E5" rx="11" ry="11" style="stroke:#181818;stroke-width:1.0;"/><path d="M1156.7031,1014.6406 L1156.7031,1021.2969 L1158.4219,1021.2969 Q1159.0313,1021.2969 1159.2969,1021.5313 Q1159.5625,1021.7656 1159.5625,1022.1563 Q1159.5625,1022.5313 1159.2969,1022.7656 Q1159.0313,1023 1158.4219,1023 L1153.2813,1023 Q1152.6719,1023 1152.4063,1022.7656 Q1152.1406,1022.5313 1152.1406,1022.1406 Q1152.1406,1021.7656 1152.4063,1021.5313 Q1152.6719,1021.2969 1153.2813,1021.2969 L1155,1021.2969 L1155,1014.6406 L1153.2813,1014.6406 Q1152.6719,1014.6406 1152.4063,1014.4063 Q1152.1406,1014.1719 1152.1406,1013.7813 Q1152.1406,1013.4063 1152.4063,1013.1719 Q1152.6719,1012.9375 1153.2813,1012.9375 L1158.4219,1012.9375 Q1159.0313,1012.9375 1159.2969,1013.1719 Q1159.5625,1013.4063 1159.5625,1013.7813 Q1159.5625,1014.1719 1159.2969,1014.4063 Q1159.0313,1014.6406 1158.4219,1014.6406 L1156.7031,1014.6406 Z " fill="#000000"/><text fill="#000000" font-family="FG Virgil" font-size="14" font-style="italic" lengthAdjust="spacing" textLength="114" x="1176.25" y="1023.7969">CourseRepository</text><line style="stroke:#181818;stroke-width:0.5;" x1="1036.5" x2="1397.5" y1="1034" y2="1034"/><line style="stroke:#181818;stroke-width:0.5;" x1="1036.5" x2="1397.5" y1="1042" y2="1042"/><ellipse cx="1046.5" cy="1056.8105" fill="#84BE84" rx="3" ry="3" style="stroke:#038048;stroke-width:1.0;"/><text fill="#000000" font-family="FG Virgil" font-size="14" lengthAdjust="spacing" textLength="337" x="1055.5" y="1061.1074">coursesByTeachers(teacher: Teacher): List&lt;Course&gt;</text></g><!--class JPAQuestionRepository--><g id="elem_JPAQuestionRepository"><rect codeLine="76" fill="#F1F1F1" height="85.2422" id="JPAQuestionRepository" rx="2.5" ry="2.5" style="stroke:#181818;stroke-width:0.5;" width="373" x="293.5" y="1138"/><ellipse cx="401.25" cy="1154" fill="#ADD1B2" rx="11" ry="11" style="stroke:#181818;stroke-width:1.0;"/><path d="M404.0156,1149.875 Q404.1719,1149.6563 404.3594,1149.5469 Q404.5469,1149.4375 404.7656,1149.4375 Q405.1406,1149.4375 405.375,1149.7031 Q405.6094,1149.9531 405.6094,1150.5625 L405.6094,1152.0156 Q405.6094,1152.625 405.375,1152.8906 Q405.1406,1153.1563 404.7656,1153.1563 Q404.4219,1153.1563 404.2188,1152.9531 Q404.0156,1152.7656 403.9063,1152.25 Q403.8594,1151.8906 403.6719,1151.7031 Q403.3438,1151.3281 402.7344,1151.1094 Q402.125,1150.8906 401.5,1150.8906 Q400.7344,1150.8906 400.0938,1151.2188 Q399.4688,1151.5469 398.9688,1152.2969 Q398.4844,1153.0469 398.4844,1154.0781 L398.4844,1155.1719 Q398.4844,1156.4063 399.375,1157.2344 Q400.2656,1158.0469 401.8594,1158.0469 Q402.7969,1158.0469 403.4531,1157.7969 Q403.8438,1157.6406 404.2656,1157.2031 Q404.5313,1156.9375 404.6719,1156.8594 Q404.8281,1156.7813 405.0313,1156.7813 Q405.3594,1156.7813 405.6094,1157.0469 Q405.875,1157.2969 405.875,1157.6406 Q405.875,1157.9844 405.5313,1158.3906 Q405.0313,1158.9688 404.2344,1159.2969 Q403.1563,1159.75 401.8594,1159.75 Q400.3438,1159.75 399.1406,1159.125 Q398.1563,1158.625 397.4688,1157.5625 Q396.7813,1156.4844 396.7813,1155.2031 L396.7813,1154.0469 Q396.7813,1152.7188 397.3906,1151.5781 Q398.0156,1150.4219 399.1094,1149.8125 Q400.2031,1149.1875 401.4375,1149.1875 Q402.1719,1149.1875 402.8125,1149.3594 Q403.4688,1149.5156 404.0156,1149.875 Z " fill="#000000"/><text fill="#000000" font-family="FG Virgil" font-size="14" lengthAdjust="spacing" textLength="149" x="421.75" y="1159.7969">JPAQuestionRepository</text><line style="stroke:#181818;stroke-width:0.5;" x1="294.5" x2="665.5" y1="1170" y2="1170"/><line style="stroke:#181818;stroke-width:0.5;" x1="294.5" x2="665.5" y1="1178" y2="1178"/><ellipse cx="304.5" cy="1192.8105" fill="#84BE84" rx="3" ry="3" style="stroke:#038048;stroke-width:1.0;"/><text fill="#000000" font-family="FG Virgil" font-size="14" lengthAdjust="spacing" textLength="347" x="313.5" y="1197.1074">listQuestions(selectedCourse: Course): List&lt;Question&gt;</text><ellipse cx="304.5" cy="1211.4316" fill="#84BE84" rx="3" ry="3" style="stroke:#038048;stroke-width:1.0;"/><text fill="#000000" font-family="FG Virgil" font-size="14" lengthAdjust="spacing" textLength="193" x="313.5" y="1215.7285">save(question: Question): void</text></g><!--class JPATeacherRepository--><g id="elem_JPATeacherRepository"><rect codeLine="81" fill="#F1F1F1" height="66.6211" id="JPATeacherRepository" rx="2.5" ry="2.5" style="stroke:#181818;stroke-width:0.5;" width="299" x="701.5" y="1147"/><ellipse cx="774.25" cy="1163" fill="#ADD1B2" rx="11" ry="11" style="stroke:#181818;stroke-width:1.0;"/><path d="M777.0156,1158.875 Q777.1719,1158.6563 777.3594,1158.5469 Q777.5469,1158.4375 777.7656,1158.4375 Q778.1406,1158.4375 778.375,1158.7031 Q778.6094,1158.9531 778.6094,1159.5625 L778.6094,1161.0156 Q778.6094,1161.625 778.375,1161.8906 Q778.1406,1162.1563 777.7656,1162.1563 Q777.4219,1162.1563 777.2188,1161.9531 Q777.0156,1161.7656 776.9063,1161.25 Q776.8594,1160.8906 776.6719,1160.7031 Q776.3438,1160.3281 775.7344,1160.1094 Q775.125,1159.8906 774.5,1159.8906 Q773.7344,1159.8906 773.0938,1160.2188 Q772.4688,1160.5469 771.9688,1161.2969 Q771.4844,1162.0469 771.4844,1163.0781 L771.4844,1164.1719 Q771.4844,1165.4063 772.375,1166.2344 Q773.2656,1167.0469 774.8594,1167.0469 Q775.7969,1167.0469 776.4531,1166.7969 Q776.8438,1166.6406 777.2656,1166.2031 Q777.5313,1165.9375 777.6719,1165.8594 Q777.8281,1165.7813 778.0313,1165.7813 Q778.3594,1165.7813 778.6094,1166.0469 Q778.875,1166.2969 778.875,1166.6406 Q778.875,1166.9844 778.5313,1167.3906 Q778.0313,1167.9688 777.2344,1168.2969 Q776.1563,1168.75 774.8594,1168.75 Q773.3438,1168.75 772.1406,1168.125 Q771.1563,1167.625 770.4688,1166.5625 Q769.7813,1165.4844 769.7813,1164.2031 L769.7813,1163.0469 Q769.7813,1161.7188 770.3906,1160.5781 Q771.0156,1159.4219 772.1094,1158.8125 Q773.2031,1158.1875 774.4375,1158.1875 Q775.1719,1158.1875 775.8125,1158.3594 Q776.4688,1158.5156 777.0156,1158.875 Z " fill="#000000"/><text fill="#000000" font-family="FG Virgil" font-size="14" lengthAdjust="spacing" textLength="145" x="794.75" y="1168.7969">JPATeacherRepository</text><line style="stroke:#181818;stroke-width:0.5;" x1="702.5" x2="999.5" y1="1179" y2="1179"/><line style="stroke:#181818;stroke-width:0.5;" x1="702.5" x2="999.5" y1="1187" y2="1187"/><ellipse cx="712.5" cy="1201.8105" fill="#84BE84" rx="3" ry="3" style="stroke:#038048;stroke-width:1.0;"/><text fill="#000000" font-family="FG Virgil" font-size="14" lengthAdjust="spacing" textLength="273" x="721.5" y="1206.1074">findTeacherByEmail(email: string): Teacher</text></g><!--class JPACourseRepository--><g id="elem_JPACourseRepository"><rect codeLine="85" fill="#F1F1F1" height="66.6211" id="JPACourseRepository" rx="2.5" ry="2.5" style="stroke:#181818;stroke-width:0.5;" width="363" x="1035.5" y="1147"/><ellipse cx="1143.75" cy="1163" fill="#ADD1B2" rx="11" ry="11" style="stroke:#181818;stroke-width:1.0;"/><path d="M1146.5156,1158.875 Q1146.6719,1158.6563 1146.8594,1158.5469 Q1147.0469,1158.4375 1147.2656,1158.4375 Q1147.6406,1158.4375 1147.875,1158.7031 Q1148.1094,1158.9531 1148.1094,1159.5625 L1148.1094,1161.0156 Q1148.1094,1161.625 1147.875,1161.8906 Q1147.6406,1162.1563 1147.2656,1162.1563 Q1146.9219,1162.1563 1146.7188,1161.9531 Q1146.5156,1161.7656 1146.4063,1161.25 Q1146.3594,1160.8906 1146.1719,1160.7031 Q1145.8438,1160.3281 1145.2344,1160.1094 Q1144.625,1159.8906 1144,1159.8906 Q1143.2344,1159.8906 1142.5938,1160.2188 Q1141.9688,1160.5469 1141.4688,1161.2969 Q1140.9844,1162.0469 1140.9844,1163.0781 L1140.9844,1164.1719 Q1140.9844,1165.4063 1141.875,1166.2344 Q1142.7656,1167.0469 1144.3594,1167.0469 Q1145.2969,1167.0469 1145.9531,1166.7969 Q1146.3438,1166.6406 1146.7656,1166.2031 Q1147.0313,1165.9375 1147.1719,1165.8594 Q1147.3281,1165.7813 1147.5313,1165.7813 Q1147.8594,1165.7813 1148.1094,1166.0469 Q1148.375,1166.2969 1148.375,1166.6406 Q1148.375,1166.9844 1148.0313,1167.3906 Q1147.5313,1167.9688 1146.7344,1168.2969 Q1145.6563,1168.75 1144.3594,1168.75 Q1142.8438,1168.75 1141.6406,1168.125 Q1140.6563,1167.625 1139.9688,1166.5625 Q1139.2813,1165.4844 1139.2813,1164.2031 L1139.2813,1163.0469 Q1139.2813,1161.7188 1139.8906,1160.5781 Q1140.5156,1159.4219 1141.6094,1158.8125 Q1142.7031,1158.1875 1143.9375,1158.1875 Q1144.6719,1158.1875 1145.3125,1158.3594 Q1145.9688,1158.5156 1146.5156,1158.875 Z " fill="#000000"/><text fill="#000000" font-family="FG Virgil" font-size="14" lengthAdjust="spacing" textLength="138" x="1164.25" y="1168.7969">JPACourseRepository</text><line style="stroke:#181818;stroke-width:0.5;" x1="1036.5" x2="1397.5" y1="1179" y2="1179"/><line style="stroke:#181818;stroke-width:0.5;" x1="1036.5" x2="1397.5" y1="1187" y2="1187"/><ellipse cx="1046.5" cy="1201.8105" fill="#84BE84" rx="3" ry="3" style="stroke:#038048;stroke-width:1.0;"/><text fill="#000000" font-family="FG Virgil" font-size="14" lengthAdjust="spacing" textLength="337" x="1055.5" y="1206.1074">coursesByTeachers(teacher: Teacher): List&lt;Course&gt;</text></g><!--link UpdateQuestionUI to UpdateQuestionController--><g id="link_UpdateQuestionUI_UpdateQuestionController"><path codeLine="89" d="M454,129.22 C454,146.56 454,165.68 454,183.78 " fill="none" id="UpdateQuestionUI-to-UpdateQuestionController" style="stroke:#181818;stroke-width:1.0;stroke-dasharray:7.0,7.0;"/><polygon fill="#181818" points="454,188.85,458,179.85,454,183.85,450,179.85,454,188.85" style="stroke:#181818;stroke-width:1.0;"/></g><!--link UpdateQuestionController to QuestionManagementService--><g id="link_UpdateQuestionController_QuestionManagementService"><path codeLine="90" d="M454,330.15 C454,347.42 454,366.3 454,384.79 " fill="none" id="UpdateQuestionController-to-QuestionManagementService" style="stroke:#181818;stroke-width:1.0;"/><polygon fill="#181818" points="454,389.99,458,380.99,454,384.99,450,380.99,454,389.99" style="stroke:#181818;stroke-width:1.0;"/></g><!--link QuestionManagementService to AuthzRegistry--><g id="link_QuestionManagementService_AuthzRegistry"><path codeLine="92" d="M360.2,587.12 C331.56,616.92 301.84,647.84 279.77,670.82 " fill="none" id="QuestionManagementService-to-AuthzRegistry" style="stroke:#181818;stroke-width:1.0;"/><polygon fill="#181818" points="276.29,674.44,285.4166,670.7379,279.7607,670.8408,279.6578,665.1849,276.29,674.44" style="stroke:#181818;stroke-width:1.0;"/></g><!--link QuestionManagementService to PersistenceContext--><g id="link_QuestionManagementService_PersistenceContext"><path codeLine="93" d="M632.18,587.12 C687.47,617.41 744.88,648.86 787.02,671.95 " fill="none" id="QuestionManagementService-to-PersistenceContext" style="stroke:#181818;stroke-width:1.0;"/><polygon fill="#181818" points="791.57,674.44,785.5951,666.6106,787.1838,672.0397,781.7546,673.6285,791.57,674.44" style="stroke:#181818;stroke-width:1.0;"/></g><!--link QuestionManagementService to Question--><g id="link_QuestionManagementService_Question"><path codeLine="95" d="M454,587.12 C454,605.54 454,624.39 454,641.53 " fill="none" id="QuestionManagementService-to-Question" style="stroke:#181818;stroke-width:1.0;"/><polygon fill="#181818" points="454,646.79,458,637.79,454,641.79,450,637.79,454,646.79" style="stroke:#181818;stroke-width:1.0;"/></g><!--link QuestionManagementService to Teacher--><g id="link_QuestionManagementService_Teacher"><path codeLine="96" d="M267.41,569.14 C220.54,591.95 171.29,618.46 128,647 C123.83,649.75 119.63,652.74 115.49,655.85 " fill="none" id="QuestionManagementService-to-Teacher" style="stroke:#181818;stroke-width:1.0;"/><polygon fill="#181818" points="111.37,659.01,120.9469,656.7114,115.339,655.969,116.0813,650.3611,111.37,659.01" style="stroke:#181818;stroke-width:1.0;"/></g><!--link QuestionManagementService to Course--><g id="link_QuestionManagementService_Course"><path codeLine="97" d="M526.71,587.12 C545.95,612.95 565.82,639.63 581.92,661.24 " fill="none" id="QuestionManagementService-to-Course" style="stroke:#181818;stroke-width:1.0;"/><polygon fill="#181818" points="585.09,665.5,582.912,655.895,582.0992,661.4931,576.501,660.6803,585.09,665.5" style="stroke:#181818;stroke-width:1.0;"/></g><!--link PersistenceContext to RepositoryFactory--><g id="link_PersistenceContext_RepositoryFactory"><path codeLine="99" d="M851,741.57 C851,764.74 851,796.46 851,823.69 " fill="none" id="PersistenceContext-to-RepositoryFactory" style="stroke:#181818;stroke-width:1.0;"/><polygon fill="#181818" points="851,828.72,855,819.72,851,823.72,847,819.72,851,828.72" style="stroke:#181818;stroke-width:1.0;"/></g><!--link RepositoryFactory to CourseRepository--><g id="link_RepositoryFactory_CourseRepository"><path codeLine="101" d="M973.64,933.1 C1026.36,955.07 1086.61,980.17 1133.97,999.9 " fill="none" id="RepositoryFactory-to-CourseRepository" style="stroke:#181818;stroke-width:1.0;"/><polygon fill="#181818" points="1138.8,1001.92,1132.0386,994.7587,1134.1867,999.9919,1128.9536,1002.14,1138.8,1001.92" style="stroke:#181818;stroke-width:1.0;"/></g><!--link RepositoryFactory to QuestionRepository--><g id="link_RepositoryFactory_QuestionRepository"><path codeLine="102" d="M726.69,933.1 C680.97,951.89 629.68,972.98 585.75,991.03 " fill="none" id="RepositoryFactory-to-QuestionRepository" style="stroke:#181818;stroke-width:1.0;"/><polygon fill="#181818" points="580.98,992.99,590.8248,993.2727,585.6055,991.0913,587.7868,985.8719,580.98,992.99" style="stroke:#181818;stroke-width:1.0;"/></g><!--link RepositoryFactory to TeacherRepository--><g id="link_RepositoryFactory_TeacherRepository"><path codeLine="103" d="M851,933.2 C851,953.93 851,977.43 851,996.57 " fill="none" id="RepositoryFactory-to-TeacherRepository" style="stroke:#181818;stroke-width:1.0;"/><polygon fill="#181818" points="851,1001.85,855,992.85,851,996.85,847,992.85,851,1001.85" style="stroke:#181818;stroke-width:1.0;"/></g><!--link CourseRepository to JPACourseRepository--><g id="link_CourseRepository_JPACourseRepository"><path codeLine="105" d="M1217,1069.31 C1217,1090.93 1217,1119.3 1217,1141.84 " fill="none" id="CourseRepository-to-JPACourseRepository" style="stroke:#181818;stroke-width:1.0;"/><polygon fill="#181818" points="1217,1146.85,1221,1137.85,1217,1141.85,1213,1137.85,1217,1146.85" style="stroke:#181818;stroke-width:1.0;"/></g><!--link QuestionRepository to JPAQuestionRepository--><g id="link_QuestionRepository_JPAQuestionRepository"><path codeLine="106" d="M480,1078.25 C480,1095.28 480,1115.06 480,1132.59 " fill="none" id="QuestionRepository-to-JPAQuestionRepository" style="stroke:#181818;stroke-width:1.0;"/><polygon fill="#181818" points="480,1137.95,484,1128.95,480,1132.95,476,1128.95,480,1137.95" style="stroke:#181818;stroke-width:1.0;"/></g><!--link TeacherRepository to JPATeacherRepository--><g id="link_TeacherRepository_JPATeacherRepository"><path codeLine="107" d="M851,1069.31 C851,1090.93 851,1119.3 851,1141.84 " fill="none" id="TeacherRepository-to-JPATeacherRepository" style="stroke:#181818;stroke-width:1.0;"/><polygon fill="#181818" points="851,1146.85,855,1137.85,851,1141.85,847,1137.85,851,1146.85" style="stroke:#181818;stroke-width:1.0;"/></g><!--SRC=[pLNRZjiW47tdAtXqbMO_mAeYxKPDjLKlssosxooUEAWONC1HlLN_lH2CRzX9jTggpOl3S6QOEPmPz3ScIg98WJFOaugRZHJc4oa0RzxXhqpbZ2D4ET4Qxu3G0oZy4s7xMx8inKmOln3M8yNQA2PoRu62CDwQVeKW3sL637ofG1icnSDj4st1cJPhMIaDEdcLuWzs-SQlLnqWkEb40mTg8FEG5FjlS0ounhKQd9byR_waE9XUuvAOGqZMHZbAbdbV9lPI5PzBKCGXjw0jHuckA0MjK_me9GSYWijCcMlBgPAST-I573uIGN8eG9XxK4T6eKigslg_YTBaUCupOcYsp355MoYbPaQgkelMsJpMU6dseRknoIFfgVu-S3so_7sQ5P1impZivFs9nsH4Qg-D5XhC7x3wh1kuhipXQGkvpL3LeG-9DKh5davgRsuacRsyoLbWwh8duvrTXKlwOOOpWWxOwiBxzUL1qphSWTAs310KNA_PWq8zEPZkQZU4ke-h9pAwOBVMLUs9rM2q7UADzUDYJIierg_3pYXu4IdOWMCD3vACO_MdwJF5wLHqNZrT0b5-uVmz4rcpULE_TIz1CdWFkjg60STC3bdNDtNZfPE6hpREk4TRQRo_k_v7FBNdln1DRRmNPIbwaA-kLhFF5vfzrvRBrPcN2yrFU-Suc4GNi76hNueUTY_00jFdKSseGXCJnst7OmN5ewIBq-liQTZ4k9W6ngC2HJ9nk0dve8d-QA0JnyTYRh0J6Q3V]--></g></svg>