<?xml version="1.0" encoding="us-ascii" standalone="no"?><svg xmlns="http://www.w3.org/2000/svg" xmlns:xlink="http://www.w3.org/1999/xlink" contentStyleType="text/css" height="455px" preserveAspectRatio="none" style="width:376px;height:455px;background:#FFFFFF;" version="1.1" viewBox="0 0 376 455" width="376px" zoomAndPan="magnify"><defs/><g><rect fill="#FFFFFF" height="260.959" style="stroke:#181818;stroke-width:1.0;" width="10" x="46" y="93.6211"/><rect fill="#FFFFFF" height="237.668" style="stroke:#181818;stroke-width:1.0;" width="10" x="324" y="116.9121"/><rect fill="none" height="98.5039" style="stroke:#000000;stroke-width:1.5;" width="359" x="10" y="225.7852"/><line style="stroke:#181818;stroke-width:0.5;stroke-dasharray:5.0,5.0;" x1="51" x2="51" y1="83.6211" y2="372.5801"/><line style="stroke:#181818;stroke-width:0.5;stroke-dasharray:5.0,5.0;" x1="329" x2="329" y1="83.6211" y2="372.5801"/><text fill="#000000" font-family="sans-serif" font-size="14" lengthAdjust="spacing" textLength="56" x="20" y="80.1074">Manager</text><ellipse cx="51" cy="13.5" fill="#E2E2F0" rx="8" ry="8" style="stroke:#181818;stroke-width:0.5;"/><path d="M51,21.5 L51,48.5 M38,29.5 L64,29.5 M51,48.5 L38,63.5 M51,48.5 L64,63.5 " fill="none" style="stroke:#181818;stroke-width:0.5;"/><text fill="#000000" font-family="sans-serif" font-size="14" lengthAdjust="spacing" textLength="56" x="20" y="386.6875">Manager</text><ellipse cx="51" cy="398.7012" fill="#E2E2F0" rx="8" ry="8" style="stroke:#181818;stroke-width:0.5;"/><path d="M51,406.7012 L51,433.7012 M38,414.7012 L64,414.7012 M51,433.7012 L38,448.7012 M51,433.7012 L64,448.7012 " fill="none" style="stroke:#181818;stroke-width:0.5;"/><rect fill="#E2E2F0" height="32.6211" rx="2.5" ry="2.5" style="stroke:#181818;stroke-width:0.5;" width="60" x="299" y="50"/><text fill="#000000" font-family="sans-serif" font-size="14" lengthAdjust="spacing" textLength="46" x="306" y="72.1074">System</text><rect fill="#E2E2F0" height="32.6211" rx="2.5" ry="2.5" style="stroke:#181818;stroke-width:0.5;" width="60" x="299" y="371.5801"/><text fill="#000000" font-family="sans-serif" font-size="14" lengthAdjust="spacing" textLength="46" x="306" y="393.6875">System</text><rect fill="#FFFFFF" height="260.959" style="stroke:#181818;stroke-width:1.0;" width="10" x="46" y="93.6211"/><rect fill="#FFFFFF" height="237.668" style="stroke:#181818;stroke-width:1.0;" width="10" x="324" y="116.9121"/><polygon fill="#181818" points="312,112.9121,322,116.9121,312,120.9121,316,116.9121" style="stroke:#181818;stroke-width:1.0;"/><line style="stroke:#181818;stroke-width:1.0;" x1="56" x2="318" y1="116.9121" y2="116.9121"/><text fill="#000000" font-family="sans-serif" font-size="13" font-weight="bold" lengthAdjust="spacing" textLength="7" x="63" y="111.6494">1</text><text fill="#000000" font-family="sans-serif" font-size="13" lengthAdjust="spacing" textLength="165" x="74" y="111.6494">asks to change course state</text><polygon fill="#181818" points="67,144.2031,57,148.2031,67,152.2031,63,148.2031" style="stroke:#181818;stroke-width:1.0;"/><line style="stroke:#181818;stroke-width:1.0;stroke-dasharray:2.0,2.0;" x1="61" x2="323" y1="148.2031" y2="148.2031"/><text fill="#000000" font-family="sans-serif" font-size="13" font-weight="bold" lengthAdjust="spacing" textLength="7" x="73" y="142.9404">2</text><text fill="#000000" font-family="sans-serif" font-size="13" lengthAdjust="spacing" textLength="233" x="84" y="142.9404">show all courses and asks to select one</text><polygon fill="#181818" points="312,175.4941,322,179.4941,312,183.4941,316,179.4941" style="stroke:#181818;stroke-width:1.0;"/><line style="stroke:#181818;stroke-width:1.0;" x1="56" x2="318" y1="179.4941" y2="179.4941"/><text fill="#000000" font-family="sans-serif" font-size="13" font-weight="bold" lengthAdjust="spacing" textLength="7" x="63" y="174.2314">3</text><text fill="#000000" font-family="sans-serif" font-size="13" lengthAdjust="spacing" textLength="130" x="74" y="174.2314">selects wanted course</text><polygon fill="#181818" points="67,206.7852,57,210.7852,67,214.7852,63,210.7852" style="stroke:#181818;stroke-width:1.0;"/><line style="stroke:#181818;stroke-width:1.0;stroke-dasharray:2.0,2.0;" x1="61" x2="323" y1="210.7852" y2="210.7852"/><text fill="#000000" font-family="sans-serif" font-size="13" font-weight="bold" lengthAdjust="spacing" textLength="7" x="73" y="205.5225">4</text><text fill="#000000" font-family="sans-serif" font-size="13" lengthAdjust="spacing" textLength="191" x="84" y="205.5225">asks if he wants to open or close</text><path d="M10,225.7852 L71,225.7852 L71,235.0762 L61,245.0762 L10,245.0762 L10,225.7852 " fill="#EEEEEE" style="stroke:#000000;stroke-width:1.5;"/><rect fill="none" height="98.5039" style="stroke:#000000;stroke-width:1.5;" width="359" x="10" y="225.7852"/><text fill="#000000" font-family="sans-serif" font-size="13" font-weight="bold" lengthAdjust="spacing" textLength="16" x="25" y="240.8135">alt</text><text fill="#000000" font-family="sans-serif" font-size="11" font-weight="bold" lengthAdjust="spacing" textLength="36" x="86" y="239.6553">[open]</text><polygon fill="#181818" points="312,264.3672,322,268.3672,312,272.3672,316,268.3672" style="stroke:#181818;stroke-width:1.0;"/><line style="stroke:#181818;stroke-width:1.0;" x1="56" x2="318" y1="268.3672" y2="268.3672"/><text fill="#000000" font-family="sans-serif" font-size="13" font-weight="bold" lengthAdjust="spacing" textLength="7" x="63" y="263.1045">5</text><text fill="#000000" font-family="sans-serif" font-size="13" lengthAdjust="spacing" textLength="28" x="74" y="263.1045">open</text><line style="stroke:#000000;stroke-width:1.0;stroke-dasharray:2.0,2.0;" x1="10" x2="369" y1="277.3672" y2="277.3672"/><text fill="#000000" font-family="sans-serif" font-size="11" font-weight="bold" lengthAdjust="spacing" textLength="38" x="15" y="289.2373">[close]</text><polygon fill="#181818" points="312,312.2891,322,316.2891,312,320.2891,316,316.2891" style="stroke:#181818;stroke-width:1.0;"/><line style="stroke:#181818;stroke-width:1.0;" x1="56" x2="318" y1="316.2891" y2="316.2891"/><text fill="#000000" font-family="sans-serif" font-size="13" font-weight="bold" lengthAdjust="spacing" textLength="7" x="63" y="311.0264">6</text><text fill="#000000" font-family="sans-serif" font-size="13" lengthAdjust="spacing" textLength="31" x="74" y="311.0264">close</text><polygon fill="#181818" points="62,350.5801,52,354.5801,62,358.5801,58,354.5801" style="stroke:#181818;stroke-width:1.0;"/><line style="stroke:#181818;stroke-width:1.0;stroke-dasharray:2.0,2.0;" x1="56" x2="328" y1="354.5801" y2="354.5801"/><text fill="#000000" font-family="sans-serif" font-size="13" font-weight="bold" lengthAdjust="spacing" textLength="7" x="68" y="349.3174">7</text><text fill="#000000" font-family="sans-serif" font-size="13" lengthAdjust="spacing" textLength="152" x="79" y="349.3174">shows course actual state</text><!--SRC=[RL2xSiCW4EpvYkjIAUfLUCOVu2fVS86BfCa12dVOuxyF0f9uh3GmBFkOtPT5TPDf73V6eDdpgur-5FhA52mDRiKveJS6iyQG_JibWrPZWWi6d2a12fntmEpuUaMb_gud32TukukIdmhpKq0Zs0N3J61ZJa8WMYH_saOsxHgAkjfC84ky0J9tcG06z-ien6GLOg1ZQliJk9LwvBgy-yD3GFLQFs2XIgs-SQC0nSvoB1fahSWnewB4fKrZ7WWDfk3-2TwRoSyQPOUCt4Tnz3pB8rJbtm00]--></g></svg>