<?xml version="1.0" encoding="us-ascii" standalone="no"?><svg xmlns="http://www.w3.org/2000/svg" xmlns:xlink="http://www.w3.org/1999/xlink" contentStyleType="text/css" height="1233px" preserveAspectRatio="none" style="width:1604px;height:1233px;background:#FFFFFF;" version="1.1" viewBox="0 0 1604 1233" width="1604px" zoomAndPan="magnify"><defs/><g><rect fill="#FFFFFF" height="1018.3242" style="stroke:#181818;stroke-width:1.0;" width="10" x="46" y="98.2422"/><rect fill="#FFFFFF" height="311.6191" style="stroke:#181818;stroke-width:1.0;" width="10" x="407" y="121.5332"/><rect fill="#FFFFFF" height="75.582" style="stroke:#181818;stroke-width:1.0;" width="10" x="407" y="464.4434"/><rect fill="#FFFFFF" height="178.873" style="stroke:#181818;stroke-width:1.0;" width="10" x="407" y="597.6074"/><rect fill="#FFFFFF" height="178.873" style="stroke:#181818;stroke-width:1.0;" width="10" x="407" y="849.4023"/><rect fill="#FFFFFF" height="249.0371" style="stroke:#181818;stroke-width:1.0;" width="10" x="624" y="152.8242"/><rect fill="#FFFFFF" height="147.582" style="stroke:#181818;stroke-width:1.0;" width="10" x="624" y="628.8984"/><rect fill="#FFFFFF" height="147.582" style="stroke:#181818;stroke-width:1.0;" width="10" x="624" y="880.6934"/><rect fill="#FFFFFF" height="186.4551" style="stroke:#181818;stroke-width:1.0;" width="10" x="827" y="184.1152"/><rect fill="#FFFFFF" height="61.291" style="stroke:#181818;stroke-width:1.0;" width="10" x="1061" y="215.4063"/><rect fill="#FFFFFF" height="30" style="stroke:#181818;stroke-width:1.0;" width="10" x="1210" y="246.6973"/><rect fill="#FFFFFF" height="31.291" style="stroke:#181818;stroke-width:1.0;" width="10" x="1349" y="307.9883"/><rect fill="#FFFFFF" height="30" style="stroke:#181818;stroke-width:1.0;" width="10" x="1349" y="746.4805"/><rect fill="#FFFFFF" height="30" style="stroke:#181818;stroke-width:1.0;" width="10" x="1349" y="998.2754"/><rect fill="#FFFFFF" height="30" style="stroke:#181818;stroke-width:1.0;" width="10" x="1500.5" y="660.1895"/><rect fill="#FFFFFF" height="30" style="stroke:#181818;stroke-width:1.0;" width="10" x="1500.5" y="911.9844"/><rect fill="none" height="506.25" style="stroke:#000000;stroke-width:1.5;" width="1587" x="10" y="555.0254"/><line style="stroke:#181818;stroke-width:0.5;stroke-dasharray:5.0,5.0;" x1="51" x2="51" y1="88.2422" y2="1134.5664"/><line style="stroke:#181818;stroke-width:0.5;stroke-dasharray:5.0,5.0;" x1="411.5" x2="411.5" y1="88.2422" y2="1134.5664"/><line style="stroke:#181818;stroke-width:0.5;stroke-dasharray:5.0,5.0;" x1="628.5" x2="628.5" y1="88.2422" y2="1134.5664"/><line style="stroke:#181818;stroke-width:0.5;stroke-dasharray:5.0,5.0;" x1="831.5" x2="831.5" y1="88.2422" y2="1134.5664"/><line style="stroke:#181818;stroke-width:0.5;stroke-dasharray:5.0,5.0;" x1="1066" x2="1066" y1="88.2422" y2="1134.5664"/><line style="stroke:#181818;stroke-width:0.5;stroke-dasharray:5.0,5.0;" x1="1215" x2="1215" y1="88.2422" y2="1134.5664"/><line style="stroke:#181818;stroke-width:0.5;stroke-dasharray:5.0,5.0;" x1="1354" x2="1354" y1="88.2422" y2="1134.5664"/><line style="stroke:#181818;stroke-width:0.5;stroke-dasharray:5.0,5.0;" x1="1505" x2="1505" y1="88.2422" y2="1134.5664"/><text fill="#000000" font-family="sans-serif" font-size="14" lengthAdjust="spacing" textLength="56" x="20" y="84.7285">Manager</text><ellipse cx="51" cy="18.1211" fill="#E2E2F0" rx="8" ry="8" style="stroke:#181818;stroke-width:0.5;"/><path d="M51,26.1211 L51,53.1211 M38,34.1211 L64,34.1211 M51,53.1211 L38,68.1211 M51,53.1211 L64,68.1211 " fill="none" style="stroke:#181818;stroke-width:0.5;"/><text fill="#000000" font-family="sans-serif" font-size="14" lengthAdjust="spacing" textLength="56" x="20" y="1148.6738">Manager</text><ellipse cx="51" cy="1160.6875" fill="#E2E2F0" rx="8" ry="8" style="stroke:#181818;stroke-width:0.5;"/><path d="M51,1168.6875 L51,1195.6875 M38,1176.6875 L64,1176.6875 M51,1195.6875 L38,1210.6875 M51,1195.6875 L64,1210.6875 " fill="none" style="stroke:#181818;stroke-width:0.5;"/><rect fill="#E2E2F0" height="32.6211" rx="2.5" ry="2.5" style="stroke:#181818;stroke-width:0.5;" width="155" x="334.5" y="54.6211"/><text fill="#000000" font-family="sans-serif" font-size="14" lengthAdjust="spacing" textLength="141" x="341.5" y="76.7285">ChangeCourseStateUI</text><rect fill="#E2E2F0" height="32.6211" rx="2.5" ry="2.5" style="stroke:#181818;stroke-width:0.5;" width="155" x="334.5" y="1133.5664"/><text fill="#000000" font-family="sans-serif" font-size="14" lengthAdjust="spacing" textLength="141" x="341.5" y="1155.6738">ChangeCourseStateUI</text><text fill="#000000" font-family="sans-serif" font-size="14" lengthAdjust="spacing" textLength="191" x="530.5" y="84.7285">ChangeCourseStateController</text><ellipse cx="629" cy="53.6211" fill="#E2E2F0" rx="12" ry="12" style="stroke:#181818;stroke-width:0.5;"/><polygon fill="#181818" points="625,41.6211,631,36.6211,629,41.6211,631,46.6211,625,41.6211" style="stroke:#181818;stroke-width:1.0;"/><text fill="#000000" font-family="sans-serif" font-size="14" lengthAdjust="spacing" textLength="191" x="530.5" y="1148.6738">ChangeCourseStateController</text><ellipse cx="629" cy="1168.1875" fill="#E2E2F0" rx="12" ry="12" style="stroke:#181818;stroke-width:0.5;"/><polygon fill="#181818" points="625,1156.1875,631,1151.1875,629,1156.1875,631,1161.1875,625,1156.1875" style="stroke:#181818;stroke-width:1.0;"/><rect fill="#E2E2F0" height="32.6211" rx="2.5" ry="2.5" style="stroke:#181818;stroke-width:0.5;" width="189" x="737.5" y="54.6211"/><text fill="#000000" font-family="sans-serif" font-size="14" lengthAdjust="spacing" textLength="175" x="744.5" y="76.7285">CourseManagementService</text><rect fill="#E2E2F0" height="32.6211" rx="2.5" ry="2.5" style="stroke:#181818;stroke-width:0.5;" width="189" x="737.5" y="1133.5664"/><text fill="#000000" font-family="sans-serif" font-size="14" lengthAdjust="spacing" textLength="175" x="744.5" y="1155.6738">CourseManagementService</text><rect fill="#E2E2F0" height="32.6211" rx="2.5" ry="2.5" style="stroke:#181818;stroke-width:0.5;" width="140" x="996" y="54.6211"/><text fill="#000000" font-family="sans-serif" font-size="14" lengthAdjust="spacing" textLength="126" x="1003" y="76.7285">:PersistenceContext</text><rect fill="#E2E2F0" height="32.6211" rx="2.5" ry="2.5" style="stroke:#181818;stroke-width:0.5;" width="140" x="996" y="1133.5664"/><text fill="#000000" font-family="sans-serif" font-size="14" lengthAdjust="spacing" textLength="126" x="1003" y="1155.6738">:PersistenceContext</text><rect fill="#E2E2F0" height="32.6211" rx="2.5" ry="2.5" style="stroke:#181818;stroke-width:0.5;" width="138" x="1146" y="54.6211"/><text fill="#000000" font-family="sans-serif" font-size="14" lengthAdjust="spacing" textLength="120" x="1153" y="76.7285">:RepositoryFactory</text><rect fill="#E2E2F0" height="32.6211" rx="2.5" ry="2.5" style="stroke:#181818;stroke-width:0.5;" width="138" x="1146" y="1133.5664"/><text fill="#000000" font-family="sans-serif" font-size="14" lengthAdjust="spacing" textLength="120" x="1153" y="1155.6738">:RepositoryFactory</text><text fill="#000000" font-family="sans-serif" font-size="14" font-style="italic" lengthAdjust="spacing" textLength="79" x="1311.5" y="66.1074">&#171;repository&#187;</text><text fill="#000000" font-family="sans-serif" font-size="14" lengthAdjust="spacing" textLength="114" x="1294" y="84.7285">CourseRepository</text><path d="M1336,15 C1336,5 1354,5 1354,5 C1354,5 1372,5 1372,15 L1372,41 C1372,51 1354,51 1354,51 C1354,51 1336,51 1336,41 L1336,15 " fill="#E2E2F0" style="stroke:#181818;stroke-width:1.5;"/><path d="M1336,15 C1336,25 1354,25 1354,25 C1354,25 1372,25 1372,15 " fill="none" style="stroke:#181818;stroke-width:1.5;"/><text fill="#000000" font-family="sans-serif" font-size="14" font-style="italic" lengthAdjust="spacing" textLength="79" x="1311.5" y="1148.6738">&#171;repository&#187;</text><text fill="#000000" font-family="sans-serif" font-size="14" lengthAdjust="spacing" textLength="114" x="1294" y="1167.2949">CourseRepository</text><path d="M1336,1180.8086 C1336,1170.8086 1354,1170.8086 1354,1170.8086 C1354,1170.8086 1372,1170.8086 1372,1180.8086 L1372,1206.8086 C1372,1216.8086 1354,1216.8086 1354,1216.8086 C1354,1216.8086 1336,1216.8086 1336,1206.8086 L1336,1180.8086 " fill="#E2E2F0" style="stroke:#181818;stroke-width:1.5;"/><path d="M1336,1180.8086 C1336,1190.8086 1354,1190.8086 1354,1190.8086 C1354,1190.8086 1372,1190.8086 1372,1180.8086 " fill="none" style="stroke:#181818;stroke-width:1.5;"/><rect fill="#E2E2F0" height="51.2422" rx="2.5" ry="2.5" style="stroke:#181818;stroke-width:0.5;" width="163" x="1424" y="36"/><text fill="#000000" font-family="sans-serif" font-size="14" font-style="italic" lengthAdjust="spacing" textLength="62" x="1474.5" y="58.1074">&#171;domain&#187;</text><text fill="#000000" font-family="sans-serif" font-size="14" lengthAdjust="spacing" textLength="149" x="1431" y="76.7285">selectedCourse:Course</text><rect fill="#E2E2F0" height="51.2422" rx="2.5" ry="2.5" style="stroke:#181818;stroke-width:0.5;" width="163" x="1424" y="1133.5664"/><text fill="#000000" font-family="sans-serif" font-size="14" font-style="italic" lengthAdjust="spacing" textLength="62" x="1474.5" y="1155.6738">&#171;domain&#187;</text><text fill="#000000" font-family="sans-serif" font-size="14" lengthAdjust="spacing" textLength="149" x="1431" y="1174.2949">selectedCourse:Course</text><rect fill="#FFFFFF" height="1018.3242" style="stroke:#181818;stroke-width:1.0;" width="10" x="46" y="98.2422"/><rect fill="#FFFFFF" height="311.6191" style="stroke:#181818;stroke-width:1.0;" width="10" x="407" y="121.5332"/><rect fill="#FFFFFF" height="75.582" style="stroke:#181818;stroke-width:1.0;" width="10" x="407" y="464.4434"/><rect fill="#FFFFFF" height="178.873" style="stroke:#181818;stroke-width:1.0;" width="10" x="407" y="597.6074"/><rect fill="#FFFFFF" height="178.873" style="stroke:#181818;stroke-width:1.0;" width="10" x="407" y="849.4023"/><rect fill="#FFFFFF" height="249.0371" style="stroke:#181818;stroke-width:1.0;" width="10" x="624" y="152.8242"/><rect fill="#FFFFFF" height="147.582" style="stroke:#181818;stroke-width:1.0;" width="10" x="624" y="628.8984"/><rect fill="#FFFFFF" height="147.582" style="stroke:#181818;stroke-width:1.0;" width="10" x="624" y="880.6934"/><rect fill="#FFFFFF" height="186.4551" style="stroke:#181818;stroke-width:1.0;" width="10" x="827" y="184.1152"/><rect fill="#FFFFFF" height="61.291" style="stroke:#181818;stroke-width:1.0;" width="10" x="1061" y="215.4063"/><rect fill="#FFFFFF" height="30" style="stroke:#181818;stroke-width:1.0;" width="10" x="1210" y="246.6973"/><rect fill="#FFFFFF" height="31.291" style="stroke:#181818;stroke-width:1.0;" width="10" x="1349" y="307.9883"/><rect fill="#FFFFFF" height="30" style="stroke:#181818;stroke-width:1.0;" width="10" x="1349" y="746.4805"/><rect fill="#FFFFFF" height="30" style="stroke:#181818;stroke-width:1.0;" width="10" x="1349" y="998.2754"/><rect fill="#FFFFFF" height="30" style="stroke:#181818;stroke-width:1.0;" width="10" x="1500.5" y="660.1895"/><rect fill="#FFFFFF" height="30" style="stroke:#181818;stroke-width:1.0;" width="10" x="1500.5" y="911.9844"/><polygon fill="#181818" points="395,117.5332,405,121.5332,395,125.5332,399,121.5332" style="stroke:#181818;stroke-width:1.0;"/><line style="stroke:#181818;stroke-width:1.0;" x1="56" x2="401" y1="121.5332" y2="121.5332"/><text fill="#000000" font-family="sans-serif" font-size="13" font-weight="bold" lengthAdjust="spacing" textLength="7" x="63" y="116.2705">1</text><text fill="#000000" font-family="sans-serif" font-size="13" lengthAdjust="spacing" textLength="165" x="74" y="116.2705">asks to change course state</text><polygon fill="#181818" points="612,148.8242,622,152.8242,612,156.8242,616,152.8242" style="stroke:#181818;stroke-width:1.0;"/><line style="stroke:#181818;stroke-width:1.0;" x1="417" x2="618" y1="152.8242" y2="152.8242"/><text fill="#000000" font-family="sans-serif" font-size="13" font-weight="bold" lengthAdjust="spacing" textLength="7" x="424" y="147.5615">2</text><text fill="#000000" font-family="sans-serif" font-size="13" lengthAdjust="spacing" textLength="73" x="435" y="147.5615">listCourses()</text><polygon fill="#181818" points="815,180.1152,825,184.1152,815,188.1152,819,184.1152" style="stroke:#181818;stroke-width:1.0;"/><line style="stroke:#181818;stroke-width:1.0;" x1="634" x2="821" y1="184.1152" y2="184.1152"/><text fill="#000000" font-family="sans-serif" font-size="13" font-weight="bold" lengthAdjust="spacing" textLength="7" x="641" y="178.8525">3</text><text fill="#000000" font-family="sans-serif" font-size="13" lengthAdjust="spacing" textLength="73" x="652" y="178.8525">listCourses()</text><polygon fill="#181818" points="1049,211.4063,1059,215.4063,1049,219.4063,1053,215.4063" style="stroke:#181818;stroke-width:1.0;"/><line style="stroke:#181818;stroke-width:1.0;" x1="837" x2="1055" y1="215.4063" y2="215.4063"/><text fill="#000000" font-family="sans-serif" font-size="13" font-weight="bold" lengthAdjust="spacing" textLength="7" x="844" y="210.1436">4</text><text fill="#000000" font-family="sans-serif" font-size="13" lengthAdjust="spacing" textLength="194" x="855" y="210.1436">courseRepo = repositoryFactory()</text><polygon fill="#181818" points="1198,242.6973,1208,246.6973,1198,250.6973,1202,246.6973" style="stroke:#181818;stroke-width:1.0;"/><line style="stroke:#181818;stroke-width:1.0;" x1="1071" x2="1204" y1="246.6973" y2="246.6973"/><text fill="#000000" font-family="sans-serif" font-size="13" font-weight="bold" lengthAdjust="spacing" textLength="7" x="1078" y="241.4346">5</text><text fill="#000000" font-family="sans-serif" font-size="13" lengthAdjust="spacing" textLength="109" x="1089" y="241.4346">courseRepository()</text><polygon fill="#181818" points="1337,303.9883,1347,307.9883,1337,311.9883,1341,307.9883" style="stroke:#181818;stroke-width:1.0;"/><line style="stroke:#181818;stroke-width:1.0;" x1="837" x2="1343" y1="307.9883" y2="307.9883"/><text fill="#000000" font-family="sans-serif" font-size="13" font-weight="bold" lengthAdjust="spacing" textLength="7" x="844" y="302.7256">6</text><text fill="#000000" font-family="sans-serif" font-size="13" lengthAdjust="spacing" textLength="69" x="855" y="302.7256">allCourses()</text><polygon fill="#181818" points="848,335.2793,838,339.2793,848,343.2793,844,339.2793" style="stroke:#181818;stroke-width:1.0;"/><line style="stroke:#181818;stroke-width:1.0;stroke-dasharray:2.0,2.0;" x1="842" x2="1353" y1="339.2793" y2="339.2793"/><text fill="#000000" font-family="sans-serif" font-size="13" font-weight="bold" lengthAdjust="spacing" textLength="7" x="854" y="334.0166">7</text><text fill="#000000" font-family="sans-serif" font-size="13" lengthAdjust="spacing" textLength="61" x="865" y="334.0166">allCourses</text><polygon fill="#181818" points="645,366.5703,635,370.5703,645,374.5703,641,370.5703" style="stroke:#181818;stroke-width:1.0;"/><line style="stroke:#181818;stroke-width:1.0;stroke-dasharray:2.0,2.0;" x1="639" x2="831" y1="370.5703" y2="370.5703"/><text fill="#000000" font-family="sans-serif" font-size="13" font-weight="bold" lengthAdjust="spacing" textLength="7" x="651" y="365.3076">8</text><text fill="#000000" font-family="sans-serif" font-size="13" lengthAdjust="spacing" textLength="61" x="662" y="365.3076">allCourses</text><polygon fill="#181818" points="428,397.8613,418,401.8613,428,405.8613,424,401.8613" style="stroke:#181818;stroke-width:1.0;"/><line style="stroke:#181818;stroke-width:1.0;stroke-dasharray:2.0,2.0;" x1="422" x2="628" y1="401.8613" y2="401.8613"/><text fill="#000000" font-family="sans-serif" font-size="13" font-weight="bold" lengthAdjust="spacing" textLength="7" x="434" y="396.5986">9</text><text fill="#000000" font-family="sans-serif" font-size="13" lengthAdjust="spacing" textLength="61" x="445" y="396.5986">allCourses</text><polygon fill="#181818" points="67,429.1523,57,433.1523,67,437.1523,63,433.1523" style="stroke:#181818;stroke-width:1.0;"/><line style="stroke:#181818;stroke-width:1.0;stroke-dasharray:2.0,2.0;" x1="61" x2="411" y1="433.1523" y2="433.1523"/><text fill="#000000" font-family="sans-serif" font-size="13" font-weight="bold" lengthAdjust="spacing" textLength="14" x="73" y="427.8896">10</text><text fill="#000000" font-family="sans-serif" font-size="13" lengthAdjust="spacing" textLength="261" x="91" y="427.8896">asks to select the course : shows allCourses</text><polygon fill="#181818" points="395,460.4434,405,464.4434,395,468.4434,399,464.4434" style="stroke:#181818;stroke-width:1.0;"/><line style="stroke:#181818;stroke-width:1.0;" x1="56" x2="401" y1="464.4434" y2="464.4434"/><text fill="#000000" font-family="sans-serif" font-size="13" font-weight="bold" lengthAdjust="spacing" textLength="14" x="63" y="459.1807">11</text><text fill="#000000" font-family="sans-serif" font-size="13" lengthAdjust="spacing" textLength="130" x="81" y="459.1807">selects wanted course</text><line style="stroke:#181818;stroke-width:1.0;" x1="417" x2="459" y1="495.7344" y2="495.7344"/><line style="stroke:#181818;stroke-width:1.0;" x1="459" x2="459" y1="495.7344" y2="508.7344"/><line style="stroke:#181818;stroke-width:1.0;" x1="418" x2="459" y1="508.7344" y2="508.7344"/><polygon fill="#181818" points="428,504.7344,418,508.7344,428,512.7344,424,508.7344" style="stroke:#181818;stroke-width:1.0;"/><text fill="#000000" font-family="sans-serif" font-size="13" font-weight="bold" lengthAdjust="spacing" textLength="14" x="424" y="490.4717">12</text><text fill="#000000" font-family="sans-serif" font-size="13" lengthAdjust="spacing" textLength="105" x="442" y="490.4717">c=selectedCourse</text><polygon fill="#181818" points="67,536.0254,57,540.0254,67,544.0254,63,540.0254" style="stroke:#181818;stroke-width:1.0;"/><line style="stroke:#181818;stroke-width:1.0;" x1="61" x2="411" y1="540.0254" y2="540.0254"/><text fill="#000000" font-family="sans-serif" font-size="13" font-weight="bold" lengthAdjust="spacing" textLength="14" x="73" y="534.7627">13</text><text fill="#000000" font-family="sans-serif" font-size="13" lengthAdjust="spacing" textLength="309" x="91" y="534.7627">asks if he wants to open or close the selected course</text><path d="M10,555.0254 L71,555.0254 L71,564.3164 L61,574.3164 L10,574.3164 L10,555.0254 " fill="#EEEEEE" style="stroke:#000000;stroke-width:1.5;"/><rect fill="none" height="506.25" style="stroke:#000000;stroke-width:1.5;" width="1587" x="10" y="555.0254"/><text fill="#000000" font-family="sans-serif" font-size="13" font-weight="bold" lengthAdjust="spacing" textLength="16" x="25" y="570.0537">alt</text><text fill="#000000" font-family="sans-serif" font-size="11" font-weight="bold" lengthAdjust="spacing" textLength="36" x="86" y="568.8955">[open]</text><polygon fill="#181818" points="395,593.6074,405,597.6074,395,601.6074,399,597.6074" style="stroke:#181818;stroke-width:1.0;"/><line style="stroke:#181818;stroke-width:1.0;" x1="56" x2="401" y1="597.6074" y2="597.6074"/><text fill="#000000" font-family="sans-serif" font-size="13" font-weight="bold" lengthAdjust="spacing" textLength="14" x="63" y="592.3447">14</text><text fill="#000000" font-family="sans-serif" font-size="13" lengthAdjust="spacing" textLength="28" x="81" y="592.3447">open</text><polygon fill="#181818" points="612,624.8984,622,628.8984,612,632.8984,616,628.8984" style="stroke:#181818;stroke-width:1.0;"/><line style="stroke:#181818;stroke-width:1.0;" x1="417" x2="618" y1="628.8984" y2="628.8984"/><text fill="#000000" font-family="sans-serif" font-size="13" font-weight="bold" lengthAdjust="spacing" textLength="14" x="424" y="623.6357">15</text><text fill="#000000" font-family="sans-serif" font-size="13" lengthAdjust="spacing" textLength="167" x="442" y="623.6357">openCourse(selectedCourse)</text><polygon fill="#181818" points="1488.5,656.1895,1498.5,660.1895,1488.5,664.1895,1492.5,660.1895" style="stroke:#181818;stroke-width:1.0;"/><line style="stroke:#181818;stroke-width:1.0;" x1="634" x2="1494.5" y1="660.1895" y2="660.1895"/><text fill="#000000" font-family="sans-serif" font-size="13" font-weight="bold" lengthAdjust="spacing" textLength="14" x="641" y="654.9268">16</text><text fill="#000000" font-family="sans-serif" font-size="13" lengthAdjust="spacing" textLength="171" x="659" y="654.9268">selectedCourse.openCourse()</text><polygon fill="#181818" points="1337,742.4805,1347,746.4805,1337,750.4805,1341,746.4805" style="stroke:#181818;stroke-width:1.0;"/><line style="stroke:#181818;stroke-width:1.0;" x1="634" x2="1343" y1="746.4805" y2="746.4805"/><text fill="#000000" font-family="sans-serif" font-size="13" font-weight="bold" lengthAdjust="spacing" textLength="14" x="641" y="741.2178">17</text><text fill="#000000" font-family="sans-serif" font-size="13" lengthAdjust="spacing" textLength="124" x="659" y="741.2178">save(selectedCourse)</text><line style="stroke:#000000;stroke-width:1.0;stroke-dasharray:2.0,2.0;" x1="10" x2="1597" y1="810.4805" y2="810.4805"/><text fill="#000000" font-family="sans-serif" font-size="11" font-weight="bold" lengthAdjust="spacing" textLength="38" x="15" y="822.3506">[close]</text><polygon fill="#181818" points="395,845.4023,405,849.4023,395,853.4023,399,849.4023" style="stroke:#181818;stroke-width:1.0;"/><line style="stroke:#181818;stroke-width:1.0;" x1="56" x2="401" y1="849.4023" y2="849.4023"/><text fill="#000000" font-family="sans-serif" font-size="13" font-weight="bold" lengthAdjust="spacing" textLength="14" x="63" y="844.1396">18</text><text fill="#000000" font-family="sans-serif" font-size="13" lengthAdjust="spacing" textLength="33" x="81" y="844.1396">Close</text><polygon fill="#181818" points="612,876.6934,622,880.6934,612,884.6934,616,880.6934" style="stroke:#181818;stroke-width:1.0;"/><line style="stroke:#181818;stroke-width:1.0;" x1="417" x2="618" y1="880.6934" y2="880.6934"/><text fill="#000000" font-family="sans-serif" font-size="13" font-weight="bold" lengthAdjust="spacing" textLength="14" x="424" y="875.4307">19</text><text fill="#000000" font-family="sans-serif" font-size="13" lengthAdjust="spacing" textLength="170" x="442" y="875.4307">closeCourse(selectedCourse)</text><polygon fill="#181818" points="1488.5,907.9844,1498.5,911.9844,1488.5,915.9844,1492.5,911.9844" style="stroke:#181818;stroke-width:1.0;"/><line style="stroke:#181818;stroke-width:1.0;" x1="634" x2="1494.5" y1="911.9844" y2="911.9844"/><text fill="#000000" font-family="sans-serif" font-size="13" font-weight="bold" lengthAdjust="spacing" textLength="14" x="641" y="906.7217">20</text><text fill="#000000" font-family="sans-serif" font-size="13" lengthAdjust="spacing" textLength="174" x="659" y="906.7217">selectedCourse.closeCourse()</text><polygon fill="#181818" points="1337,994.2754,1347,998.2754,1337,1002.2754,1341,998.2754" style="stroke:#181818;stroke-width:1.0;"/><line style="stroke:#181818;stroke-width:1.0;" x1="634" x2="1343" y1="998.2754" y2="998.2754"/><text fill="#000000" font-family="sans-serif" font-size="13" font-weight="bold" lengthAdjust="spacing" textLength="14" x="641" y="993.0127">21</text><text fill="#000000" font-family="sans-serif" font-size="13" lengthAdjust="spacing" textLength="124" x="659" y="993.0127">save(selectedCourse)</text><polygon fill="#181818" points="62,1112.5664,52,1116.5664,62,1120.5664,58,1116.5664" style="stroke:#181818;stroke-width:1.0;"/><line style="stroke:#181818;stroke-width:1.0;stroke-dasharray:2.0,2.0;" x1="56" x2="411" y1="1116.5664" y2="1116.5664"/><text fill="#000000" font-family="sans-serif" font-size="13" font-weight="bold" lengthAdjust="spacing" textLength="14" x="68" y="1111.3037">22</text><text fill="#000000" font-family="sans-serif" font-size="13" lengthAdjust="spacing" textLength="152" x="86" y="1111.3037">shows course actual state</text><!--SRC=[nLJ1Rjim3BtxAuHSrXxSt8tMm11WG0u3XXNv05Lc4sEov4bokWBv-96IR4jsibusp8VOajvx91-fV3evrzjgk-qbLsxev8FGtTR2pm6KWB9f-T7mhYZuuBGQkXSm-2sSDkmhL_m8Xd7BFjD6qNFZMj7sgCDs9wwEiDE3iV3ik8F3de27VI6qSaRBDM8N3cIGd5UvhiU7q1qezmpct0eWHlpCu9lg6nZRMaV5a2JySXi2zsA1-mwzjYsMyVx5b_VEFEurB8gYuOw_S0inWndkayKbUtmqqsPTv_8M90W7JI1NuRK9TT8daXlTyLOXaUnjpsX8jDN_ih96yofa_B3CQIQyUqm4jYN_PXwwVDYNzMnXnIHw44BPk_iPcRWyVvPrjF8cRRGwlikw5rNCXOnXJymixKpfPBwWYgAxAJUGKlJOWWR-j8MQuooWC3K4pPBoMiruLlYEbOWSIIawrVNeIPca4rUlKqPtae4kVVjk1vdRW8r3hE_vtEqmFioTfevNp9xqcxsXXmEGJKtWM_Q6mmXDr5ZCouWLJ_cmngCqe_QLOIOavhFJFIY6mOJKc1abEIgCaVBK2YwT9nKCdopHQJV5qpeaaNfFq93XNPxmVIwGU4lxQLFgUFigbYiy9DehDLyGxLqk5__E-ZYTBkBuURJy_56oD6qiFjS2qFawQbRXmcoGs1JVchNTksdxOx-znByoF1N_Zux_HTTLKv3IwfBDLobSu7YV4JPm6V_85rh9qbD_0m00]--></g></svg>