<?xml version="1.0" encoding="us-ascii" standalone="no"?><svg xmlns="http://www.w3.org/2000/svg" xmlns:xlink="http://www.w3.org/1999/xlink" contentStyleType="text/css" height="752px" preserveAspectRatio="none" style="width:237px;height:752px;background:#FFFFFF;" version="1.1" viewBox="0 0 237 752" width="237px" zoomAndPan="magnify"><defs/><g><!--class ChangeCourseStateUI--><g id="elem_ChangeCourseStateUI"><rect codeLine="12" fill="#F1F1F1" height="66.6211" id="ChangeCourseStateUI" rx="2.5" ry="2.5" style="stroke:#181818;stroke-width:0.5;" width="173" x="32" y="7"/><ellipse cx="47" cy="23" fill="#ADD1B2" rx="11" ry="11" style="stroke:#181818;stroke-width:1.0;"/><path d="M49.7656,18.875 Q49.9219,18.6563 50.1094,18.5469 Q50.2969,18.4375 50.5156,18.4375 Q50.8906,18.4375 51.125,18.7031 Q51.3594,18.9531 51.3594,19.5625 L51.3594,21.0156 Q51.3594,21.625 51.125,21.8906 Q50.8906,22.1563 50.5156,22.1563 Q50.1719,22.1563 49.9688,21.9531 Q49.7656,21.7656 49.6563,21.25 Q49.6094,20.8906 49.4219,20.7031 Q49.0938,20.3281 48.4844,20.1094 Q47.875,19.8906 47.25,19.8906 Q46.4844,19.8906 45.8438,20.2188 Q45.2188,20.5469 44.7188,21.2969 Q44.2344,22.0469 44.2344,23.0781 L44.2344,24.1719 Q44.2344,25.4063 45.125,26.2344 Q46.0156,27.0469 47.6094,27.0469 Q48.5469,27.0469 49.2031,26.7969 Q49.5938,26.6406 50.0156,26.2031 Q50.2813,25.9375 50.4219,25.8594 Q50.5781,25.7813 50.7813,25.7813 Q51.1094,25.7813 51.3594,26.0469 Q51.625,26.2969 51.625,26.6406 Q51.625,26.9844 51.2813,27.3906 Q50.7813,27.9688 49.9844,28.2969 Q48.9063,28.75 47.6094,28.75 Q46.0938,28.75 44.8906,28.125 Q43.9063,27.625 43.2188,26.5625 Q42.5313,25.4844 42.5313,24.2031 L42.5313,23.0469 Q42.5313,21.7188 43.1406,20.5781 Q43.7656,19.4219 44.8594,18.8125 Q45.9531,18.1875 47.1875,18.1875 Q47.9219,18.1875 48.5625,18.3594 Q49.2188,18.5156 49.7656,18.875 Z " fill="#000000"/><text fill="#000000" font-family="sans-serif" font-size="14" lengthAdjust="spacing" textLength="141" x="61" y="28.7969">ChangeCourseStateUI</text><line style="stroke:#181818;stroke-width:0.5;" x1="33" x2="204" y1="39" y2="39"/><line style="stroke:#181818;stroke-width:0.5;" x1="33" x2="204" y1="47" y2="47"/><ellipse cx="43" cy="61.8105" fill="#84BE84" rx="3" ry="3" style="stroke:#038048;stroke-width:1.0;"/><text fill="#000000" font-family="sans-serif" font-size="14" lengthAdjust="spacing" textLength="60" x="52" y="66.1074">doShow()</text></g><!--class ChangeCourseStateController--><g id="elem_ChangeCourseStateController"><rect codeLine="16" fill="#F1F1F1" height="66.6211" id="ChangeCourseStateController" rx="2.5" ry="2.5" style="stroke:#181818;stroke-width:0.5;" width="223" x="7" y="134"/><ellipse cx="22" cy="150" fill="#ADD1B2" rx="11" ry="11" style="stroke:#181818;stroke-width:1.0;"/><path d="M24.7656,145.875 Q24.9219,145.6563 25.1094,145.5469 Q25.2969,145.4375 25.5156,145.4375 Q25.8906,145.4375 26.125,145.7031 Q26.3594,145.9531 26.3594,146.5625 L26.3594,148.0156 Q26.3594,148.625 26.125,148.8906 Q25.8906,149.1563 25.5156,149.1563 Q25.1719,149.1563 24.9688,148.9531 Q24.7656,148.7656 24.6563,148.25 Q24.6094,147.8906 24.4219,147.7031 Q24.0938,147.3281 23.4844,147.1094 Q22.875,146.8906 22.25,146.8906 Q21.4844,146.8906 20.8438,147.2188 Q20.2188,147.5469 19.7188,148.2969 Q19.2344,149.0469 19.2344,150.0781 L19.2344,151.1719 Q19.2344,152.4063 20.125,153.2344 Q21.0156,154.0469 22.6094,154.0469 Q23.5469,154.0469 24.2031,153.7969 Q24.5938,153.6406 25.0156,153.2031 Q25.2813,152.9375 25.4219,152.8594 Q25.5781,152.7813 25.7813,152.7813 Q26.1094,152.7813 26.3594,153.0469 Q26.625,153.2969 26.625,153.6406 Q26.625,153.9844 26.2813,154.3906 Q25.7813,154.9688 24.9844,155.2969 Q23.9063,155.75 22.6094,155.75 Q21.0938,155.75 19.8906,155.125 Q18.9063,154.625 18.2188,153.5625 Q17.5313,152.4844 17.5313,151.2031 L17.5313,150.0469 Q17.5313,148.7188 18.1406,147.5781 Q18.7656,146.4219 19.8594,145.8125 Q20.9531,145.1875 22.1875,145.1875 Q22.9219,145.1875 23.5625,145.3594 Q24.2188,145.5156 24.7656,145.875 Z " fill="#000000"/><text fill="#000000" font-family="sans-serif" font-size="14" lengthAdjust="spacing" textLength="191" x="36" y="155.7969">ChangeCourseStateController</text><line style="stroke:#181818;stroke-width:0.5;" x1="8" x2="229" y1="166" y2="166"/><line style="stroke:#181818;stroke-width:0.5;" x1="8" x2="229" y1="174" y2="174"/><ellipse cx="18" cy="188.8105" fill="#84BE84" rx="3" ry="3" style="stroke:#038048;stroke-width:1.0;"/><text fill="#000000" font-family="sans-serif" font-size="14" lengthAdjust="spacing" textLength="189" x="27" y="193.1074">changeCourseStateToEnroll()</text></g><!--class CourseManagementService--><g id="elem_CourseManagementService"><rect codeLine="20" fill="#F1F1F1" height="85.2422" id="CourseManagementService" rx="2.5" ry="2.5" style="stroke:#181818;stroke-width:0.5;" width="207" x="15" y="261"/><ellipse cx="30" cy="277" fill="#ADD1B2" rx="11" ry="11" style="stroke:#181818;stroke-width:1.0;"/><path d="M32.7656,272.875 Q32.9219,272.6563 33.1094,272.5469 Q33.2969,272.4375 33.5156,272.4375 Q33.8906,272.4375 34.125,272.7031 Q34.3594,272.9531 34.3594,273.5625 L34.3594,275.0156 Q34.3594,275.625 34.125,275.8906 Q33.8906,276.1563 33.5156,276.1563 Q33.1719,276.1563 32.9688,275.9531 Q32.7656,275.7656 32.6563,275.25 Q32.6094,274.8906 32.4219,274.7031 Q32.0938,274.3281 31.4844,274.1094 Q30.875,273.8906 30.25,273.8906 Q29.4844,273.8906 28.8438,274.2188 Q28.2188,274.5469 27.7188,275.2969 Q27.2344,276.0469 27.2344,277.0781 L27.2344,278.1719 Q27.2344,279.4063 28.125,280.2344 Q29.0156,281.0469 30.6094,281.0469 Q31.5469,281.0469 32.2031,280.7969 Q32.5938,280.6406 33.0156,280.2031 Q33.2813,279.9375 33.4219,279.8594 Q33.5781,279.7813 33.7813,279.7813 Q34.1094,279.7813 34.3594,280.0469 Q34.625,280.2969 34.625,280.6406 Q34.625,280.9844 34.2813,281.3906 Q33.7813,281.9688 32.9844,282.2969 Q31.9063,282.75 30.6094,282.75 Q29.0938,282.75 27.8906,282.125 Q26.9063,281.625 26.2188,280.5625 Q25.5313,279.4844 25.5313,278.2031 L25.5313,277.0469 Q25.5313,275.7188 26.1406,274.5781 Q26.7656,273.4219 27.8594,272.8125 Q28.9531,272.1875 30.1875,272.1875 Q30.9219,272.1875 31.5625,272.3594 Q32.2188,272.5156 32.7656,272.875 Z " fill="#000000"/><text fill="#000000" font-family="sans-serif" font-size="14" lengthAdjust="spacing" textLength="175" x="44" y="282.7969">CourseManagementService</text><line style="stroke:#181818;stroke-width:0.5;" x1="16" x2="221" y1="293" y2="293"/><line style="stroke:#181818;stroke-width:0.5;" x1="16" x2="221" y1="301" y2="301"/><ellipse cx="26" cy="315.8105" fill="#84BE84" rx="3" ry="3" style="stroke:#038048;stroke-width:1.0;"/><text fill="#000000" font-family="sans-serif" font-size="14" lengthAdjust="spacing" textLength="95" x="35" y="320.1074">openCourses()</text><ellipse cx="26" cy="334.4316" fill="#84BE84" rx="3" ry="3" style="stroke:#038048;stroke-width:1.0;"/><text fill="#000000" font-family="sans-serif" font-size="14" lengthAdjust="spacing" textLength="96" x="35" y="338.7285">closeCourses()</text></g><!--class PersistenceContext--><g id="elem_PersistenceContext"><rect codeLine="25" fill="#F1F1F1" height="66.6211" id="PersistenceContext" rx="2.5" ry="2.5" style="stroke:#181818;stroke-width:0.5;" width="154" x="41.5" y="406"/><ellipse cx="56.5" cy="422" fill="#ADD1B2" rx="11" ry="11" style="stroke:#181818;stroke-width:1.0;"/><path d="M59.2656,417.875 Q59.4219,417.6563 59.6094,417.5469 Q59.7969,417.4375 60.0156,417.4375 Q60.3906,417.4375 60.625,417.7031 Q60.8594,417.9531 60.8594,418.5625 L60.8594,420.0156 Q60.8594,420.625 60.625,420.8906 Q60.3906,421.1563 60.0156,421.1563 Q59.6719,421.1563 59.4688,420.9531 Q59.2656,420.7656 59.1563,420.25 Q59.1094,419.8906 58.9219,419.7031 Q58.5938,419.3281 57.9844,419.1094 Q57.375,418.8906 56.75,418.8906 Q55.9844,418.8906 55.3438,419.2188 Q54.7188,419.5469 54.2188,420.2969 Q53.7344,421.0469 53.7344,422.0781 L53.7344,423.1719 Q53.7344,424.4063 54.625,425.2344 Q55.5156,426.0469 57.1094,426.0469 Q58.0469,426.0469 58.7031,425.7969 Q59.0938,425.6406 59.5156,425.2031 Q59.7813,424.9375 59.9219,424.8594 Q60.0781,424.7813 60.2813,424.7813 Q60.6094,424.7813 60.8594,425.0469 Q61.125,425.2969 61.125,425.6406 Q61.125,425.9844 60.7813,426.3906 Q60.2813,426.9688 59.4844,427.2969 Q58.4063,427.75 57.1094,427.75 Q55.5938,427.75 54.3906,427.125 Q53.4063,426.625 52.7188,425.5625 Q52.0313,424.4844 52.0313,423.2031 L52.0313,422.0469 Q52.0313,420.7188 52.6406,419.5781 Q53.2656,418.4219 54.3594,417.8125 Q55.4531,417.1875 56.6875,417.1875 Q57.4219,417.1875 58.0625,417.3594 Q58.7188,417.5156 59.2656,417.875 Z " fill="#000000"/><text fill="#000000" font-family="sans-serif" font-size="14" lengthAdjust="spacing" textLength="122" x="70.5" y="427.7969">PersistenceContext</text><line style="stroke:#181818;stroke-width:0.5;" x1="42.5" x2="194.5" y1="438" y2="438"/><line style="stroke:#181818;stroke-width:0.5;" x1="42.5" x2="194.5" y1="446" y2="446"/><ellipse cx="52.5" cy="460.8105" fill="#84BE84" rx="3" ry="3" style="stroke:#038048;stroke-width:1.0;"/><text fill="#000000" font-family="sans-serif" font-size="14" lengthAdjust="spacing" textLength="84" x="61.5" y="465.1074">repositories()</text></g><!--class RepositoryFactory--><g id="elem_RepositoryFactory"><rect codeLine="29" fill="#F1F1F1" height="66.6211" id="RepositoryFactory" rx="2.5" ry="2.5" style="stroke:#181818;stroke-width:0.5;" width="148" x="44.5" y="533"/><ellipse cx="59.5" cy="549" fill="#ADD1B2" rx="11" ry="11" style="stroke:#181818;stroke-width:1.0;"/><path d="M62.2656,544.875 Q62.4219,544.6563 62.6094,544.5469 Q62.7969,544.4375 63.0156,544.4375 Q63.3906,544.4375 63.625,544.7031 Q63.8594,544.9531 63.8594,545.5625 L63.8594,547.0156 Q63.8594,547.625 63.625,547.8906 Q63.3906,548.1563 63.0156,548.1563 Q62.6719,548.1563 62.4688,547.9531 Q62.2656,547.7656 62.1563,547.25 Q62.1094,546.8906 61.9219,546.7031 Q61.5938,546.3281 60.9844,546.1094 Q60.375,545.8906 59.75,545.8906 Q58.9844,545.8906 58.3438,546.2188 Q57.7188,546.5469 57.2188,547.2969 Q56.7344,548.0469 56.7344,549.0781 L56.7344,550.1719 Q56.7344,551.4063 57.625,552.2344 Q58.5156,553.0469 60.1094,553.0469 Q61.0469,553.0469 61.7031,552.7969 Q62.0938,552.6406 62.5156,552.2031 Q62.7813,551.9375 62.9219,551.8594 Q63.0781,551.7813 63.2813,551.7813 Q63.6094,551.7813 63.8594,552.0469 Q64.125,552.2969 64.125,552.6406 Q64.125,552.9844 63.7813,553.3906 Q63.2813,553.9688 62.4844,554.2969 Q61.4063,554.75 60.1094,554.75 Q58.5938,554.75 57.3906,554.125 Q56.4063,553.625 55.7188,552.5625 Q55.0313,551.4844 55.0313,550.2031 L55.0313,549.0469 Q55.0313,547.7188 55.6406,546.5781 Q56.2656,545.4219 57.3594,544.8125 Q58.4531,544.1875 59.6875,544.1875 Q60.4219,544.1875 61.0625,544.3594 Q61.7188,544.5156 62.2656,544.875 Z " fill="#000000"/><text fill="#000000" font-family="sans-serif" font-size="14" lengthAdjust="spacing" textLength="116" x="73.5" y="554.7969">RepositoryFactory</text><line style="stroke:#181818;stroke-width:0.5;" x1="45.5" x2="191.5" y1="565" y2="565"/><line style="stroke:#181818;stroke-width:0.5;" x1="45.5" x2="191.5" y1="573" y2="573"/><ellipse cx="55.5" cy="587.8105" fill="#84BE84" rx="3" ry="3" style="stroke:#038048;stroke-width:1.0;"/><text fill="#000000" font-family="sans-serif" font-size="14" lengthAdjust="spacing" textLength="121" x="64.5" y="592.1074">courseRepository()</text></g><!--class CourseRepository--><g id="elem_CourseRepository"><rect codeLine="33" fill="#F1F1F1" height="85.2422" id="CourseRepository" rx="2.5" ry="2.5" style="stroke:#181818;stroke-width:0.5;" width="146" x="45.5" y="660"/><ellipse cx="60.5" cy="676" fill="#ADD1B2" rx="11" ry="11" style="stroke:#181818;stroke-width:1.0;"/><path d="M63.2656,671.875 Q63.4219,671.6563 63.6094,671.5469 Q63.7969,671.4375 64.0156,671.4375 Q64.3906,671.4375 64.625,671.7031 Q64.8594,671.9531 64.8594,672.5625 L64.8594,674.0156 Q64.8594,674.625 64.625,674.8906 Q64.3906,675.1563 64.0156,675.1563 Q63.6719,675.1563 63.4688,674.9531 Q63.2656,674.7656 63.1563,674.25 Q63.1094,673.8906 62.9219,673.7031 Q62.5938,673.3281 61.9844,673.1094 Q61.375,672.8906 60.75,672.8906 Q59.9844,672.8906 59.3438,673.2188 Q58.7188,673.5469 58.2188,674.2969 Q57.7344,675.0469 57.7344,676.0781 L57.7344,677.1719 Q57.7344,678.4063 58.625,679.2344 Q59.5156,680.0469 61.1094,680.0469 Q62.0469,680.0469 62.7031,679.7969 Q63.0938,679.6406 63.5156,679.2031 Q63.7813,678.9375 63.9219,678.8594 Q64.0781,678.7813 64.2813,678.7813 Q64.6094,678.7813 64.8594,679.0469 Q65.125,679.2969 65.125,679.6406 Q65.125,679.9844 64.7813,680.3906 Q64.2813,680.9688 63.4844,681.2969 Q62.4063,681.75 61.1094,681.75 Q59.5938,681.75 58.3906,681.125 Q57.4063,680.625 56.7188,679.5625 Q56.0313,678.4844 56.0313,677.2031 L56.0313,676.0469 Q56.0313,674.7188 56.6406,673.5781 Q57.2656,672.4219 58.3594,671.8125 Q59.4531,671.1875 60.6875,671.1875 Q61.4219,671.1875 62.0625,671.3594 Q62.7188,671.5156 63.2656,671.875 Z " fill="#000000"/><text fill="#000000" font-family="sans-serif" font-size="14" lengthAdjust="spacing" textLength="114" x="74.5" y="681.7969">CourseRepository</text><line style="stroke:#181818;stroke-width:0.5;" x1="46.5" x2="190.5" y1="692" y2="692"/><line style="stroke:#181818;stroke-width:0.5;" x1="46.5" x2="190.5" y1="700" y2="700"/><ellipse cx="56.5" cy="714.8105" fill="#84BE84" rx="3" ry="3" style="stroke:#038048;stroke-width:1.0;"/><text fill="#000000" font-family="sans-serif" font-size="14" lengthAdjust="spacing" textLength="48" x="65.5" y="719.1074">findAll()</text><ellipse cx="56.5" cy="733.4316" fill="#84BE84" rx="3" ry="3" style="stroke:#038048;stroke-width:1.0;"/><text fill="#000000" font-family="sans-serif" font-size="14" lengthAdjust="spacing" textLength="40" x="65.5" y="737.7285">save()</text></g><!--link ChangeCourseStateUI to ChangeCourseStateController--><g id="link_ChangeCourseStateUI_ChangeCourseStateController"><path codeLine="3" d="M118.5,74.02 C118.5,90.67 118.5,111.04 118.5,128.42 " fill="none" id="ChangeCourseStateUI-to-ChangeCourseStateController" style="stroke:#181818;stroke-width:1.0;stroke-dasharray:7.0,7.0;"/><polygon fill="#181818" points="118.5,133.71,122.5,124.71,118.5,128.71,114.5,124.71,118.5,133.71" style="stroke:#181818;stroke-width:1.0;"/></g><!--link ChangeCourseStateController to CourseManagementService--><g id="link_ChangeCourseStateController_CourseManagementService"><path codeLine="5" d="M118.5,201.28 C118.5,217.71 118.5,237.9 118.5,255.9 " fill="none" id="ChangeCourseStateController-to-CourseManagementService" style="stroke:#181818;stroke-width:1.0;"/><polygon fill="#181818" points="118.5,260.92,122.5,251.92,118.5,255.92,114.5,251.92,118.5,260.92" style="stroke:#181818;stroke-width:1.0;"/></g><!--link CourseManagementService to PersistenceContext--><g id="link_CourseManagementService_PersistenceContext"><path codeLine="8" d="M118.5,346.16 C118.5,363.57 118.5,383.65 118.5,400.63 " fill="none" id="CourseManagementService-to-PersistenceContext" style="stroke:#181818;stroke-width:1.0;"/><polygon fill="#181818" points="118.5,405.8,122.5,396.8,118.5,400.8,114.5,396.8,118.5,405.8" style="stroke:#181818;stroke-width:1.0;"/></g><!--link PersistenceContext to RepositoryFactory--><g id="link_PersistenceContext_RepositoryFactory"><path codeLine="9" d="M118.5,473.02 C118.5,489.67 118.5,510.04 118.5,527.42 " fill="none" id="PersistenceContext-to-RepositoryFactory" style="stroke:#181818;stroke-width:1.0;"/><polygon fill="#181818" points="118.5,532.71,122.5,523.71,118.5,527.71,114.5,523.71,118.5,532.71" style="stroke:#181818;stroke-width:1.0;"/></g><!--link RepositoryFactory to CourseRepository--><g id="link_RepositoryFactory_CourseRepository"><path codeLine="10" d="M118.5,600.28 C118.5,616.71 118.5,636.9 118.5,654.9 " fill="none" id="RepositoryFactory-to-CourseRepository" style="stroke:#181818;stroke-width:1.0;"/><polygon fill="#181818" points="118.5,659.92,122.5,650.92,118.5,654.92,114.5,650.92,118.5,659.92" style="stroke:#181818;stroke-width:1.0;"/></g><!--SRC=[VP3TQiCm38NlzHI-t0Z98mnAQ24NWx6q3s0SBJLaKh7Sdr7sxhEThg5nMzyOwzCvrb6zrTHZpNids7hjSTEegkCZLM-gdhEQoJiU1dG0Jw0geq4P319zrwHx_4RoBRg3DGX1VP-eCgW-q8aLZsII9vuyvANK-Oax5klP_QoqYHTabTGt_ZOn03DeaJpWfZb3eJfkjtnyUONVXurJs2WmSxpc9KLyut4_SjJp3cd44XJ1Rs31gN2roDSGrUu_bxtjpdQHHfsj8fzmOcTGuHJgorAtI676j-W3NXv12ty0]--></g></svg>