<?xml version="1.0" encoding="us-ascii" standalone="no"?><svg xmlns="http://www.w3.org/2000/svg" xmlns:xlink="http://www.w3.org/1999/xlink" contentStyleType="text/css" height="245px" preserveAspectRatio="none" style="width:336px;height:245px;background:#FFFFFF;" version="1.1" viewBox="0 0 336 245" width="336px" zoomAndPan="magnify"><defs/><g><!--entity Admin--><g id="elem_Admin"><ellipse cx="168" cy="14" fill="#F1F1F1" rx="8" ry="8" style="stroke:#181818;stroke-width:0.5;"/><path d="M168,22 L168,49 M155,30 L181,30 M168,49 L155,64 M168,49 L181,64 " fill="none" style="stroke:#181818;stroke-width:0.5;"/><text fill="#000000" font-family="sans-serif" font-size="14" lengthAdjust="spacing" textLength="56" x="140" y="80.6074">Manager</text></g><g id="elem_open courses"><ellipse cx="78.1174" cy="222.3235" fill="#F1F1F1" rx="72.1174" ry="16.8235" style="stroke:#181818;stroke-width:0.5;"/><text fill="#000000" font-family="sans-serif" font-size="14" lengthAdjust="spacing" textLength="86" x="32.1174" y="227.1272">open courses</text></g><g id="elem_close courses"><ellipse cx="257.9511" cy="222.3902" fill="#F1F1F1" rx="72.4511" ry="16.8902" style="stroke:#181818;stroke-width:0.5;"/><text fill="#000000" font-family="sans-serif" font-size="14" lengthAdjust="spacing" textLength="87" x="211.4511" y="227.1939">close courses</text></g><!--link Admin to open courses--><g id="link_Admin_open courses"><path d="M148.25,84.51 C129.96,120.19 103.43,171.91 88.76,200.51 " fill="none" id="Admin-to-open courses" style="stroke:#181818;stroke-width:1.0;"/><polygon fill="#181818" points="86.34,205.23,93.9984,199.0374,88.6161,200.7781,86.8754,195.3957,86.34,205.23" style="stroke:#181818;stroke-width:1.0;"/></g><!--link Admin to close courses--><g id="link_Admin_close courses"><path d="M187.75,84.51 C206.04,120.19 232.57,171.91 247.24,200.51 " fill="none" id="Admin-to-close courses" style="stroke:#181818;stroke-width:1.0;"/><polygon fill="#181818" points="249.66,205.23,249.1246,195.3957,247.3839,200.7781,242.0016,199.0374,249.66,205.23" style="stroke:#181818;stroke-width:1.0;"/></g><!--SRC=[LSan3e0W343HdLDqKmTaPp3n01wYmGP9Q24KxgznCIx_3s-wUg_gdQiPfG_EQoZiXf8D-EHC61koCVv0mKZD0ohi9oSnvXrOQpUOIoM1K4PJqkKd8HUbZsu0]--></g></svg>