<?xml version="1.0" encoding="us-ascii" standalone="no"?><svg xmlns="http://www.w3.org/2000/svg" xmlns:xlink="http://www.w3.org/1999/xlink" contentStyleType="text/css" height="1547px" preserveAspectRatio="none" style="width:2981px;height:1547px;background:#FFFFFF;" version="1.1" viewBox="0 0 2981 1547" width="2981px" zoomAndPan="magnify"><defs/><g><rect fill="#FFFFFF" height="1332.2227" style="stroke:#181818;stroke-width:1.0;" width="10" x="31" y="98.2422"/><rect fill="#FFFFFF" height="312.9102" style="stroke:#181818;stroke-width:1.0;" width="10" x="476" y="121.5332"/><rect fill="#FFFFFF" height="357.2012" style="stroke:#181818;stroke-width:1.0;" width="10" x="476" y="465.7344"/><rect fill="#FFFFFF" height="31.291" style="stroke:#181818;stroke-width:1.0;" width="10" x="476" y="854.2266"/><rect fill="#FFFFFF" height="513.6563" style="stroke:#181818;stroke-width:1.0;" width="10" x="476" y="916.8086"/><rect fill="#FFFFFF" height="250.3281" style="stroke:#181818;stroke-width:1.0;" width="10" x="775" y="152.8242"/><rect fill="#FFFFFF" height="250.3281" style="stroke:#181818;stroke-width:1.0;" width="10" x="775" y="541.3164"/><rect fill="#FFFFFF" height="406.7832" style="stroke:#181818;stroke-width:1.0;" width="10" x="775" y="992.3906"/><rect fill="#FFFFFF" height="187.7461" style="stroke:#181818;stroke-width:1.0;" width="10" x="991.5" y="184.1152"/><rect fill="#FFFFFF" height="187.7461" style="stroke:#181818;stroke-width:1.0;" width="10" x="1198" y="572.6074"/><rect fill="#FFFFFF" height="344.2012" style="stroke:#181818;stroke-width:1.0;" width="10" x="1434.5" y="1023.6816"/><rect fill="#FFFFFF" height="62.582" style="stroke:#181818;stroke-width:1.0;" width="10" x="1641" y="215.4063"/><rect fill="#FFFFFF" height="62.582" style="stroke:#181818;stroke-width:1.0;" width="10" x="1641" y="603.8984"/><rect fill="#FFFFFF" height="62.582" style="stroke:#181818;stroke-width:1.0;" width="10" x="1641" y="1054.9727"/><rect fill="#FFFFFF" height="31.291" style="stroke:#181818;stroke-width:1.0;" width="10" x="1961.5" y="309.2793"/><rect fill="#FFFFFF" height="31.291" style="stroke:#181818;stroke-width:1.0;" width="10" x="1961.5" y="697.7715"/><rect fill="#FFFFFF" height="31.291" style="stroke:#181818;stroke-width:1.0;" width="10" x="1961.5" y="1148.8457"/><rect fill="#FFFFFF" height="31.291" style="stroke:#181818;stroke-width:1.0;" width="10" x="1961.5" y="1211.4277"/><line style="stroke:#181818;stroke-width:0.5;stroke-dasharray:5.0,5.0;" x1="36" x2="36" y1="88.2422" y2="1448.4648"/><line style="stroke:#181818;stroke-width:0.5;stroke-dasharray:5.0,5.0;" x1="481" x2="481" y1="88.2422" y2="1448.4648"/><line style="stroke:#181818;stroke-width:0.5;stroke-dasharray:5.0,5.0;" x1="780" x2="780" y1="88.2422" y2="1448.4648"/><line style="stroke:#181818;stroke-width:0.5;stroke-dasharray:5.0,5.0;" x1="996" x2="996" y1="88.2422" y2="1448.4648"/><line style="stroke:#181818;stroke-width:0.5;stroke-dasharray:5.0,5.0;" x1="1203" x2="1203" y1="88.2422" y2="1448.4648"/><line style="stroke:#181818;stroke-width:0.5;stroke-dasharray:5.0,5.0;" x1="1439" x2="1439" y1="88.2422" y2="1448.4648"/><line style="stroke:#181818;stroke-width:0.5;stroke-dasharray:5.0,5.0;" x1="1646" x2="1646" y1="88.2422" y2="1448.4648"/><line style="stroke:#181818;stroke-width:0.5;stroke-dasharray:5.0,5.0;" x1="1795" x2="1795" y1="88.2422" y2="1448.4648"/><line style="stroke:#181818;stroke-width:0.5;stroke-dasharray:5.0,5.0;" x1="1966" x2="1966" y1="88.2422" y2="1448.4648"/><line style="stroke:#181818;stroke-width:0.5;stroke-dasharray:5.0,5.0;" x1="2129" x2="2129" y1="88.2422" y2="1448.4648"/><line style="stroke:#181818;stroke-width:0.5;stroke-dasharray:5.0,5.0;" x1="2262" x2="2262" y1="88.2422" y2="1448.4648"/><line style="stroke:#181818;stroke-width:0.5;stroke-dasharray:5.0,5.0;" x1="2417" x2="2417" y1="88.2422" y2="1448.4648"/><line style="stroke:#181818;stroke-width:0.5;stroke-dasharray:5.0,5.0;" x1="2622" x2="2622" y1="88.2422" y2="1448.4648"/><line style="stroke:#181818;stroke-width:0.5;stroke-dasharray:5.0,5.0;" x1="2860" x2="2860" y1="88.2422" y2="1448.4648"/><text fill="#000000" font-family="sans-serif" font-size="14" lengthAdjust="spacing" textLength="56" x="5" y="84.7285">Manager</text><ellipse cx="36" cy="18.1211" fill="#E2E2F0" rx="8" ry="8" style="stroke:#181818;stroke-width:0.5;"/><path d="M36,26.1211 L36,53.1211 M23,34.1211 L49,34.1211 M36,53.1211 L23,68.1211 M36,53.1211 L49,68.1211 " fill="none" style="stroke:#181818;stroke-width:0.5;"/><text fill="#000000" font-family="sans-serif" font-size="14" lengthAdjust="spacing" textLength="56" x="5" y="1462.5723">Manager</text><ellipse cx="36" cy="1474.5859" fill="#E2E2F0" rx="8" ry="8" style="stroke:#181818;stroke-width:0.5;"/><path d="M36,1482.5859 L36,1509.5859 M23,1490.5859 L49,1490.5859 M36,1509.5859 L23,1524.5859 M36,1509.5859 L49,1524.5859 " fill="none" style="stroke:#181818;stroke-width:0.5;"/><rect fill="#E2E2F0" height="51.2422" rx="2.5" ry="2.5" style="stroke:#181818;stroke-width:0.5;" width="174" x="394" y="36"/><text fill="#000000" font-family="sans-serif" font-size="14" font-style="italic" lengthAdjust="spacing" textLength="95" x="433.5" y="58.1074">&#171;presentation&#187;</text><text fill="#000000" font-family="sans-serif" font-size="14" lengthAdjust="spacing" textLength="160" x="401" y="76.7285">AddTeachersToCourseUI</text><rect fill="#E2E2F0" height="51.2422" rx="2.5" ry="2.5" style="stroke:#181818;stroke-width:0.5;" width="174" x="394" y="1447.4648"/><text fill="#000000" font-family="sans-serif" font-size="14" font-style="italic" lengthAdjust="spacing" textLength="95" x="433.5" y="1469.5723">&#171;presentation&#187;</text><text fill="#000000" font-family="sans-serif" font-size="14" lengthAdjust="spacing" textLength="160" x="401" y="1488.1934">AddTeachersToCourseUI</text><text fill="#000000" font-family="sans-serif" font-size="14" font-style="italic" lengthAdjust="spacing" textLength="84" x="735" y="66.1074">&#171;application&#187;</text><text fill="#000000" font-family="sans-serif" font-size="14" lengthAdjust="spacing" textLength="214" x="670" y="84.7285">:AddTeachersToCourseController</text><ellipse cx="780" cy="35" fill="#E2E2F0" rx="12" ry="12" style="stroke:#181818;stroke-width:0.5;"/><polygon fill="#181818" points="776,23,782,18,780,23,782,28,776,23" style="stroke:#181818;stroke-width:1.0;"/><text fill="#000000" font-family="sans-serif" font-size="14" font-style="italic" lengthAdjust="spacing" textLength="84" x="735" y="1462.5723">&#171;application&#187;</text><text fill="#000000" font-family="sans-serif" font-size="14" lengthAdjust="spacing" textLength="214" x="670" y="1481.1934">:AddTeachersToCourseController</text><ellipse cx="780" cy="1500.707" fill="#E2E2F0" rx="12" ry="12" style="stroke:#181818;stroke-width:0.5;"/><polygon fill="#181818" points="776,1488.707,782,1483.707,780,1488.707,782,1493.707,776,1488.707" style="stroke:#181818;stroke-width:1.0;"/><rect fill="#E2E2F0" height="51.2422" rx="2.5" ry="2.5" style="stroke:#181818;stroke-width:0.5;" width="193" x="900" y="36"/><text fill="#000000" font-family="sans-serif" font-size="14" font-style="italic" lengthAdjust="spacing" textLength="62" x="965.5" y="58.1074">&#171;Service&#187;</text><text fill="#000000" font-family="sans-serif" font-size="14" lengthAdjust="spacing" textLength="179" x="907" y="76.7285">:CourseManagementService</text><rect fill="#E2E2F0" height="51.2422" rx="2.5" ry="2.5" style="stroke:#181818;stroke-width:0.5;" width="193" x="900" y="1447.4648"/><text fill="#000000" font-family="sans-serif" font-size="14" font-style="italic" lengthAdjust="spacing" textLength="62" x="965.5" y="1469.5723">&#171;Service&#187;</text><text fill="#000000" font-family="sans-serif" font-size="14" lengthAdjust="spacing" textLength="179" x="907" y="1488.1934">:CourseManagementService</text><rect fill="#E2E2F0" height="51.2422" rx="2.5" ry="2.5" style="stroke:#181818;stroke-width:0.5;" width="200" x="1103" y="36"/><text fill="#000000" font-family="sans-serif" font-size="14" font-style="italic" lengthAdjust="spacing" textLength="62" x="1172" y="58.1074">&#171;Service&#187;</text><text fill="#000000" font-family="sans-serif" font-size="14" lengthAdjust="spacing" textLength="186" x="1110" y="76.7285">:TeacherManagementService</text><rect fill="#E2E2F0" height="51.2422" rx="2.5" ry="2.5" style="stroke:#181818;stroke-width:0.5;" width="200" x="1103" y="1447.4648"/><text fill="#000000" font-family="sans-serif" font-size="14" font-style="italic" lengthAdjust="spacing" textLength="62" x="1172" y="1469.5723">&#171;Service&#187;</text><text fill="#000000" font-family="sans-serif" font-size="14" lengthAdjust="spacing" textLength="186" x="1110" y="1488.1934">:TeacherManagementService</text><rect fill="#E2E2F0" height="51.2422" rx="2.5" ry="2.5" style="stroke:#181818;stroke-width:0.5;" width="253" x="1313" y="36"/><text fill="#000000" font-family="sans-serif" font-size="14" font-style="italic" lengthAdjust="spacing" textLength="62" x="1408.5" y="58.1074">&#171;Service&#187;</text><text fill="#000000" font-family="sans-serif" font-size="14" lengthAdjust="spacing" textLength="239" x="1320" y="76.7285">:CourseTeachersManagementService</text><rect fill="#E2E2F0" height="51.2422" rx="2.5" ry="2.5" style="stroke:#181818;stroke-width:0.5;" width="253" x="1313" y="1447.4648"/><text fill="#000000" font-family="sans-serif" font-size="14" font-style="italic" lengthAdjust="spacing" textLength="62" x="1408.5" y="1469.5723">&#171;Service&#187;</text><text fill="#000000" font-family="sans-serif" font-size="14" lengthAdjust="spacing" textLength="239" x="1320" y="1488.1934">:CourseTeachersManagementService</text><rect fill="#E2E2F0" height="51.2422" rx="2.5" ry="2.5" style="stroke:#181818;stroke-width:0.5;" width="140" x="1576" y="36"/><text fill="#000000" font-family="sans-serif" font-size="14" font-style="italic" lengthAdjust="spacing" textLength="89" x="1601.5" y="58.1074">&#171;persistence&#187;</text><text fill="#000000" font-family="sans-serif" font-size="14" lengthAdjust="spacing" textLength="126" x="1583" y="76.7285">:PersistenceContext</text><rect fill="#E2E2F0" height="51.2422" rx="2.5" ry="2.5" style="stroke:#181818;stroke-width:0.5;" width="140" x="1576" y="1447.4648"/><text fill="#000000" font-family="sans-serif" font-size="14" font-style="italic" lengthAdjust="spacing" textLength="89" x="1601.5" y="1469.5723">&#171;persistence&#187;</text><text fill="#000000" font-family="sans-serif" font-size="14" lengthAdjust="spacing" textLength="126" x="1583" y="1488.1934">:PersistenceContext</text><rect fill="#E2E2F0" height="51.2422" rx="2.5" ry="2.5" style="stroke:#181818;stroke-width:0.5;" width="138" x="1726" y="36"/><text fill="#000000" font-family="sans-serif" font-size="14" font-style="italic" lengthAdjust="spacing" textLength="59" x="1765.5" y="58.1074">&#171;factory&#187;</text><text fill="#000000" font-family="sans-serif" font-size="14" lengthAdjust="spacing" textLength="120" x="1733" y="76.7285">:RepositoryFactory</text><rect fill="#E2E2F0" height="51.2422" rx="2.5" ry="2.5" style="stroke:#181818;stroke-width:0.5;" width="138" x="1726" y="1447.4648"/><text fill="#000000" font-family="sans-serif" font-size="14" font-style="italic" lengthAdjust="spacing" textLength="59" x="1765.5" y="1469.5723">&#171;factory&#187;</text><text fill="#000000" font-family="sans-serif" font-size="14" lengthAdjust="spacing" textLength="120" x="1733" y="1488.1934">:RepositoryFactory</text><rect fill="#E2E2F0" height="51.2422" rx="2.5" ry="2.5" style="stroke:#181818;stroke-width:0.5;" width="185" x="1874" y="36"/><text fill="#000000" font-family="sans-serif" font-size="14" font-style="italic" lengthAdjust="spacing" textLength="59" x="1937" y="58.1074">&#171;factory&#187;</text><text fill="#000000" font-family="sans-serif" font-size="14" lengthAdjust="spacing" textLength="167" x="1881" y="76.7285">factory: RepositoryFactory</text><rect fill="#E2E2F0" height="51.2422" rx="2.5" ry="2.5" style="stroke:#181818;stroke-width:0.5;" width="185" x="1874" y="1447.4648"/><text fill="#000000" font-family="sans-serif" font-size="14" font-style="italic" lengthAdjust="spacing" textLength="59" x="1937" y="1469.5723">&#171;factory&#187;</text><text fill="#000000" font-family="sans-serif" font-size="14" lengthAdjust="spacing" textLength="167" x="1881" y="1488.1934">factory: RepositoryFactory</text><text fill="#000000" font-family="sans-serif" font-size="14" font-style="italic" lengthAdjust="spacing" textLength="79" x="2086.5" y="66.1074">&#171;repository&#187;</text><text fill="#000000" font-family="sans-serif" font-size="14" lengthAdjust="spacing" textLength="114" x="2069" y="84.7285">CourseRepository</text><path d="M2111,15 C2111,5 2129,5 2129,5 C2129,5 2147,5 2147,15 L2147,41 C2147,51 2129,51 2129,51 C2129,51 2111,51 2111,41 L2111,15 " fill="#E2E2F0" style="stroke:#181818;stroke-width:1.5;"/><path d="M2111,15 C2111,25 2129,25 2129,25 C2129,25 2147,25 2147,15 " fill="none" style="stroke:#181818;stroke-width:1.5;"/><text fill="#000000" font-family="sans-serif" font-size="14" font-style="italic" lengthAdjust="spacing" textLength="79" x="2086.5" y="1462.5723">&#171;repository&#187;</text><text fill="#000000" font-family="sans-serif" font-size="14" lengthAdjust="spacing" textLength="114" x="2069" y="1481.1934">CourseRepository</text><path d="M2111,1494.707 C2111,1484.707 2129,1484.707 2129,1484.707 C2129,1484.707 2147,1484.707 2147,1494.707 L2147,1520.707 C2147,1530.707 2129,1530.707 2129,1530.707 C2129,1530.707 2111,1530.707 2111,1520.707 L2111,1494.707 " fill="#E2E2F0" style="stroke:#181818;stroke-width:1.5;"/><path d="M2111,1494.707 C2111,1504.707 2129,1504.707 2129,1504.707 C2129,1504.707 2147,1504.707 2147,1494.707 " fill="none" style="stroke:#181818;stroke-width:1.5;"/><text fill="#000000" font-family="sans-serif" font-size="14" font-style="italic" lengthAdjust="spacing" textLength="79" x="2220" y="66.1074">&#171;repository&#187;</text><text fill="#000000" font-family="sans-serif" font-size="14" lengthAdjust="spacing" textLength="121" x="2199" y="84.7285">TeacherRepository</text><path d="M2244.5,15 C2244.5,5 2262.5,5 2262.5,5 C2262.5,5 2280.5,5 2280.5,15 L2280.5,41 C2280.5,51 2262.5,51 2262.5,51 C2262.5,51 2244.5,51 2244.5,41 L2244.5,15 " fill="#E2E2F0" style="stroke:#181818;stroke-width:1.5;"/><path d="M2244.5,15 C2244.5,25 2262.5,25 2262.5,25 C2262.5,25 2280.5,25 2280.5,15 " fill="none" style="stroke:#181818;stroke-width:1.5;"/><text fill="#000000" font-family="sans-serif" font-size="14" font-style="italic" lengthAdjust="spacing" textLength="79" x="2220" y="1462.5723">&#171;repository&#187;</text><text fill="#000000" font-family="sans-serif" font-size="14" lengthAdjust="spacing" textLength="121" x="2199" y="1481.1934">TeacherRepository</text><path d="M2244.5,1494.707 C2244.5,1484.707 2262.5,1484.707 2262.5,1484.707 C2262.5,1484.707 2280.5,1484.707 2280.5,1494.707 L2280.5,1520.707 C2280.5,1530.707 2262.5,1530.707 2262.5,1530.707 C2262.5,1530.707 2244.5,1530.707 2244.5,1520.707 L2244.5,1494.707 " fill="#E2E2F0" style="stroke:#181818;stroke-width:1.5;"/><path d="M2244.5,1494.707 C2244.5,1504.707 2262.5,1504.707 2262.5,1504.707 C2262.5,1504.707 2280.5,1504.707 2280.5,1494.707 " fill="none" style="stroke:#181818;stroke-width:1.5;"/><rect fill="#E2E2F0" height="51.2422" rx="2.5" ry="2.5" style="stroke:#181818;stroke-width:0.5;" width="163" x="2336" y="36"/><text fill="#000000" font-family="sans-serif" font-size="14" font-style="italic" lengthAdjust="spacing" textLength="62" x="2386.5" y="58.1074">&#171;domain&#187;</text><text fill="#000000" font-family="sans-serif" font-size="14" lengthAdjust="spacing" textLength="149" x="2343" y="76.7285">selectedCourse:Course</text><rect fill="#E2E2F0" height="51.2422" rx="2.5" ry="2.5" style="stroke:#181818;stroke-width:0.5;" width="163" x="2336" y="1447.4648"/><text fill="#000000" font-family="sans-serif" font-size="14" font-style="italic" lengthAdjust="spacing" textLength="62" x="2386.5" y="1469.5723">&#171;domain&#187;</text><text fill="#000000" font-family="sans-serif" font-size="14" lengthAdjust="spacing" textLength="149" x="2343" y="1488.1934">selectedCourse:Course</text><rect fill="#E2E2F0" height="51.2422" rx="2.5" ry="2.5" style="stroke:#181818;stroke-width:0.5;" width="226" x="2509" y="36"/><text fill="#000000" font-family="sans-serif" font-size="14" font-style="italic" lengthAdjust="spacing" textLength="62" x="2591" y="58.1074">&#171;domain&#187;</text><text fill="#000000" font-family="sans-serif" font-size="14" lengthAdjust="spacing" textLength="212" x="2516" y="76.7285">chargeTeacher:TeacherInCharge</text><rect fill="#E2E2F0" height="51.2422" rx="2.5" ry="2.5" style="stroke:#181818;stroke-width:0.5;" width="226" x="2509" y="1447.4648"/><text fill="#000000" font-family="sans-serif" font-size="14" font-style="italic" lengthAdjust="spacing" textLength="62" x="2591" y="1469.5723">&#171;domain&#187;</text><text fill="#000000" font-family="sans-serif" font-size="14" lengthAdjust="spacing" textLength="212" x="2516" y="1488.1934">chargeTeacher:TeacherInCharge</text><rect fill="#E2E2F0" height="51.2422" rx="2.5" ry="2.5" style="stroke:#181818;stroke-width:0.5;" width="230" x="2745" y="36"/><text fill="#000000" font-family="sans-serif" font-size="14" font-style="italic" lengthAdjust="spacing" textLength="62" x="2829" y="58.1074">&#171;domain&#187;</text><text fill="#000000" font-family="sans-serif" font-size="14" lengthAdjust="spacing" textLength="216" x="2752" y="76.7285">courseteacher:TeacherRepository</text><rect fill="#E2E2F0" height="51.2422" rx="2.5" ry="2.5" style="stroke:#181818;stroke-width:0.5;" width="230" x="2745" y="1447.4648"/><text fill="#000000" font-family="sans-serif" font-size="14" font-style="italic" lengthAdjust="spacing" textLength="62" x="2829" y="1469.5723">&#171;domain&#187;</text><text fill="#000000" font-family="sans-serif" font-size="14" lengthAdjust="spacing" textLength="216" x="2752" y="1488.1934">courseteacher:TeacherRepository</text><rect fill="#FFFFFF" height="1332.2227" style="stroke:#181818;stroke-width:1.0;" width="10" x="31" y="98.2422"/><rect fill="#FFFFFF" height="312.9102" style="stroke:#181818;stroke-width:1.0;" width="10" x="476" y="121.5332"/><rect fill="#FFFFFF" height="357.2012" style="stroke:#181818;stroke-width:1.0;" width="10" x="476" y="465.7344"/><rect fill="#FFFFFF" height="31.291" style="stroke:#181818;stroke-width:1.0;" width="10" x="476" y="854.2266"/><rect fill="#FFFFFF" height="513.6563" style="stroke:#181818;stroke-width:1.0;" width="10" x="476" y="916.8086"/><rect fill="#FFFFFF" height="250.3281" style="stroke:#181818;stroke-width:1.0;" width="10" x="775" y="152.8242"/><rect fill="#FFFFFF" height="250.3281" style="stroke:#181818;stroke-width:1.0;" width="10" x="775" y="541.3164"/><rect fill="#FFFFFF" height="406.7832" style="stroke:#181818;stroke-width:1.0;" width="10" x="775" y="992.3906"/><rect fill="#FFFFFF" height="187.7461" style="stroke:#181818;stroke-width:1.0;" width="10" x="991.5" y="184.1152"/><rect fill="#FFFFFF" height="187.7461" style="stroke:#181818;stroke-width:1.0;" width="10" x="1198" y="572.6074"/><rect fill="#FFFFFF" height="344.2012" style="stroke:#181818;stroke-width:1.0;" width="10" x="1434.5" y="1023.6816"/><rect fill="#FFFFFF" height="62.582" style="stroke:#181818;stroke-width:1.0;" width="10" x="1641" y="215.4063"/><rect fill="#FFFFFF" height="62.582" style="stroke:#181818;stroke-width:1.0;" width="10" x="1641" y="603.8984"/><rect fill="#FFFFFF" height="62.582" style="stroke:#181818;stroke-width:1.0;" width="10" x="1641" y="1054.9727"/><rect fill="#FFFFFF" height="31.291" style="stroke:#181818;stroke-width:1.0;" width="10" x="1961.5" y="309.2793"/><rect fill="#FFFFFF" height="31.291" style="stroke:#181818;stroke-width:1.0;" width="10" x="1961.5" y="697.7715"/><rect fill="#FFFFFF" height="31.291" style="stroke:#181818;stroke-width:1.0;" width="10" x="1961.5" y="1148.8457"/><rect fill="#FFFFFF" height="31.291" style="stroke:#181818;stroke-width:1.0;" width="10" x="1961.5" y="1211.4277"/><polygon fill="#181818" points="464,117.5332,474,121.5332,464,125.5332,468,121.5332" style="stroke:#181818;stroke-width:1.0;"/><line style="stroke:#181818;stroke-width:1.0;" x1="41" x2="470" y1="121.5332" y2="121.5332"/><text fill="#000000" font-family="sans-serif" font-size="13" font-weight="bold" lengthAdjust="spacing" textLength="7" x="48" y="116.2705">1</text><text fill="#000000" font-family="sans-serif" font-size="13" lengthAdjust="spacing" textLength="188" x="59" y="116.2705">asks to set teachers to a course</text><polygon fill="#181818" points="763,148.8242,773,152.8242,763,156.8242,767,152.8242" style="stroke:#181818;stroke-width:1.0;"/><line style="stroke:#181818;stroke-width:1.0;" x1="486" x2="769" y1="152.8242" y2="152.8242"/><text fill="#000000" font-family="sans-serif" font-size="13" font-weight="bold" lengthAdjust="spacing" textLength="7" x="493" y="147.5615">2</text><text fill="#000000" font-family="sans-serif" font-size="13" lengthAdjust="spacing" textLength="104" x="504" y="147.5615">listOpenCourses()</text><polygon fill="#181818" points="979.5,180.1152,989.5,184.1152,979.5,188.1152,983.5,184.1152" style="stroke:#181818;stroke-width:1.0;"/><line style="stroke:#181818;stroke-width:1.0;" x1="785" x2="985.5" y1="184.1152" y2="184.1152"/><text fill="#000000" font-family="sans-serif" font-size="13" font-weight="bold" lengthAdjust="spacing" textLength="7" x="792" y="178.8525">3</text><text fill="#000000" font-family="sans-serif" font-size="13" lengthAdjust="spacing" textLength="84" x="803" y="178.8525">openCourses()</text><polygon fill="#181818" points="1629,211.4063,1639,215.4063,1629,219.4063,1633,215.4063" style="stroke:#181818;stroke-width:1.0;"/><line style="stroke:#181818;stroke-width:1.0;" x1="1001.5" x2="1635" y1="215.4063" y2="215.4063"/><text fill="#000000" font-family="sans-serif" font-size="13" font-weight="bold" lengthAdjust="spacing" textLength="7" x="1008.5" y="210.1436">4</text><text fill="#000000" font-family="sans-serif" font-size="13" lengthAdjust="spacing" textLength="130" x="1019.5" y="210.1436">factory = repositories()</text><polygon fill="#181818" points="1783,242.6973,1793,246.6973,1783,250.6973,1787,246.6973" style="stroke:#181818;stroke-width:1.0;"/><line style="stroke:#181818;stroke-width:1.0;" x1="1651" x2="1789" y1="246.6973" y2="246.6973"/><text fill="#000000" font-family="sans-serif" font-size="13" font-weight="bold" lengthAdjust="spacing" textLength="7" x="1658" y="241.4346">5</text><text fill="#000000" font-family="sans-serif" font-size="13" lengthAdjust="spacing" textLength="44" x="1669" y="241.4346">create()</text><polygon fill="#181818" points="1012.5,273.9883,1002.5,277.9883,1012.5,281.9883,1008.5,277.9883" style="stroke:#181818;stroke-width:1.0;"/><line style="stroke:#181818;stroke-width:1.0;stroke-dasharray:2.0,2.0;" x1="1006.5" x2="1645" y1="277.9883" y2="277.9883"/><text fill="#000000" font-family="sans-serif" font-size="13" font-weight="bold" lengthAdjust="spacing" textLength="7" x="1018.5" y="272.7256">6</text><text fill="#000000" font-family="sans-serif" font-size="13" lengthAdjust="spacing" textLength="39" x="1029.5" y="272.7256">factory</text><polygon fill="#181818" points="1949.5,305.2793,1959.5,309.2793,1949.5,313.2793,1953.5,309.2793" style="stroke:#181818;stroke-width:1.0;"/><line style="stroke:#181818;stroke-width:1.0;" x1="1001.5" x2="1955.5" y1="309.2793" y2="309.2793"/><text fill="#000000" font-family="sans-serif" font-size="13" font-weight="bold" lengthAdjust="spacing" textLength="7" x="1008.5" y="304.0166">7</text><text fill="#000000" font-family="sans-serif" font-size="13" lengthAdjust="spacing" textLength="226" x="1019.5" y="304.0166">courseRepository = courseRepository()</text><polygon fill="#181818" points="1012.5,336.5703,1002.5,340.5703,1012.5,344.5703,1008.5,340.5703" style="stroke:#181818;stroke-width:1.0;"/><line style="stroke:#181818;stroke-width:1.0;stroke-dasharray:2.0,2.0;" x1="1006.5" x2="1965.5" y1="340.5703" y2="340.5703"/><text fill="#000000" font-family="sans-serif" font-size="13" font-weight="bold" lengthAdjust="spacing" textLength="7" x="1018.5" y="335.3076">8</text><text fill="#000000" font-family="sans-serif" font-size="13" lengthAdjust="spacing" textLength="101" x="1029.5" y="335.3076">courseRepository</text><polygon fill="#181818" points="2117,367.8613,2127,371.8613,2117,375.8613,2121,371.8613" style="stroke:#181818;stroke-width:1.0;"/><line style="stroke:#181818;stroke-width:1.0;" x1="996.5" x2="2123" y1="371.8613" y2="371.8613"/><text fill="#000000" font-family="sans-serif" font-size="13" font-weight="bold" lengthAdjust="spacing" textLength="7" x="1003.5" y="366.5986">9</text><text fill="#000000" font-family="sans-serif" font-size="13" lengthAdjust="spacing" textLength="59" x="1014.5" y="366.5986">findOpen()</text><polygon fill="#181818" points="497,399.1523,487,403.1523,497,407.1523,493,403.1523" style="stroke:#181818;stroke-width:1.0;"/><line style="stroke:#181818;stroke-width:1.0;stroke-dasharray:2.0,2.0;" x1="491" x2="779" y1="403.1523" y2="403.1523"/><text fill="#000000" font-family="sans-serif" font-size="13" font-weight="bold" lengthAdjust="spacing" textLength="14" x="503" y="397.8896">10</text><text fill="#000000" font-family="sans-serif" font-size="13" lengthAdjust="spacing" textLength="92" x="521" y="397.8896">allOpenCourses</text><polygon fill="#181818" points="52,430.4434,42,434.4434,52,438.4434,48,434.4434" style="stroke:#181818;stroke-width:1.0;"/><line style="stroke:#181818;stroke-width:1.0;stroke-dasharray:2.0,2.0;" x1="46" x2="480" y1="434.4434" y2="434.4434"/><text fill="#000000" font-family="sans-serif" font-size="13" font-weight="bold" lengthAdjust="spacing" textLength="14" x="58" y="429.1807">11</text><text fill="#000000" font-family="sans-serif" font-size="13" lengthAdjust="spacing" textLength="292" x="76" y="429.1807">asks to select the course : shows allOpenCourses</text><polygon fill="#181818" points="464,461.7344,474,465.7344,464,469.7344,468,465.7344" style="stroke:#181818;stroke-width:1.0;"/><line style="stroke:#181818;stroke-width:1.0;" x1="41" x2="470" y1="465.7344" y2="465.7344"/><text fill="#000000" font-family="sans-serif" font-size="13" font-weight="bold" lengthAdjust="spacing" textLength="14" x="48" y="460.4717">12</text><text fill="#000000" font-family="sans-serif" font-size="13" lengthAdjust="spacing" textLength="193" x="66" y="460.4717">selects Course to set teachers to</text><line style="stroke:#181818;stroke-width:1.0;" x1="486" x2="528" y1="497.0254" y2="497.0254"/><line style="stroke:#181818;stroke-width:1.0;" x1="528" x2="528" y1="497.0254" y2="510.0254"/><line style="stroke:#181818;stroke-width:1.0;" x1="487" x2="528" y1="510.0254" y2="510.0254"/><polygon fill="#181818" points="497,506.0254,487,510.0254,497,514.0254,493,510.0254" style="stroke:#181818;stroke-width:1.0;"/><text fill="#000000" font-family="sans-serif" font-size="13" font-weight="bold" lengthAdjust="spacing" textLength="14" x="493" y="491.7627">13</text><text fill="#000000" font-family="sans-serif" font-size="13" lengthAdjust="spacing" textLength="90" x="511" y="491.7627">selectedCourse</text><polygon fill="#181818" points="763,537.3164,773,541.3164,763,545.3164,767,541.3164" style="stroke:#181818;stroke-width:1.0;"/><line style="stroke:#181818;stroke-width:1.0;" x1="486" x2="769" y1="541.3164" y2="541.3164"/><text fill="#000000" font-family="sans-serif" font-size="13" font-weight="bold" lengthAdjust="spacing" textLength="14" x="493" y="536.0537">14</text><text fill="#000000" font-family="sans-serif" font-size="13" lengthAdjust="spacing" textLength="140" x="511" y="536.0537">listRegisteredTeachers()</text><polygon fill="#181818" points="1186,568.6074,1196,572.6074,1186,576.6074,1190,572.6074" style="stroke:#181818;stroke-width:1.0;"/><line style="stroke:#181818;stroke-width:1.0;" x1="785" x2="1192" y1="572.6074" y2="572.6074"/><text fill="#000000" font-family="sans-serif" font-size="13" font-weight="bold" lengthAdjust="spacing" textLength="14" x="792" y="567.3447">15</text><text fill="#000000" font-family="sans-serif" font-size="13" lengthAdjust="spacing" textLength="140" x="810" y="567.3447">listRegisteredTeachers()</text><polygon fill="#181818" points="1629,599.8984,1639,603.8984,1629,607.8984,1633,603.8984" style="stroke:#181818;stroke-width:1.0;"/><line style="stroke:#181818;stroke-width:1.0;" x1="1208" x2="1635" y1="603.8984" y2="603.8984"/><text fill="#000000" font-family="sans-serif" font-size="13" font-weight="bold" lengthAdjust="spacing" textLength="14" x="1215" y="598.6357">16</text><text fill="#000000" font-family="sans-serif" font-size="13" lengthAdjust="spacing" textLength="130" x="1233" y="598.6357">factory = repositories()</text><polygon fill="#181818" points="1783,631.1895,1793,635.1895,1783,639.1895,1787,635.1895" style="stroke:#181818;stroke-width:1.0;"/><line style="stroke:#181818;stroke-width:1.0;" x1="1651" x2="1789" y1="635.1895" y2="635.1895"/><text fill="#000000" font-family="sans-serif" font-size="13" font-weight="bold" lengthAdjust="spacing" textLength="14" x="1658" y="629.9268">17</text><text fill="#000000" font-family="sans-serif" font-size="13" lengthAdjust="spacing" textLength="44" x="1676" y="629.9268">create()</text><polygon fill="#181818" points="1219,662.4805,1209,666.4805,1219,670.4805,1215,666.4805" style="stroke:#181818;stroke-width:1.0;"/><line style="stroke:#181818;stroke-width:1.0;stroke-dasharray:2.0,2.0;" x1="1213" x2="1645" y1="666.4805" y2="666.4805"/><text fill="#000000" font-family="sans-serif" font-size="13" font-weight="bold" lengthAdjust="spacing" textLength="14" x="1225" y="661.2178">18</text><text fill="#000000" font-family="sans-serif" font-size="13" lengthAdjust="spacing" textLength="39" x="1243" y="661.2178">factory</text><polygon fill="#181818" points="1949.5,693.7715,1959.5,697.7715,1949.5,701.7715,1953.5,697.7715" style="stroke:#181818;stroke-width:1.0;"/><line style="stroke:#181818;stroke-width:1.0;" x1="1208" x2="1955.5" y1="697.7715" y2="697.7715"/><text fill="#000000" font-family="sans-serif" font-size="13" font-weight="bold" lengthAdjust="spacing" textLength="14" x="1215" y="692.5088">19</text><text fill="#000000" font-family="sans-serif" font-size="13" lengthAdjust="spacing" textLength="234" x="1233" y="692.5088">teacherRepository = teacherRepository()</text><polygon fill="#181818" points="1219,725.0625,1209,729.0625,1219,733.0625,1215,729.0625" style="stroke:#181818;stroke-width:1.0;"/><line style="stroke:#181818;stroke-width:1.0;stroke-dasharray:2.0,2.0;" x1="1213" x2="1965.5" y1="729.0625" y2="729.0625"/><text fill="#000000" font-family="sans-serif" font-size="13" font-weight="bold" lengthAdjust="spacing" textLength="14" x="1225" y="723.7998">20</text><text fill="#000000" font-family="sans-serif" font-size="13" lengthAdjust="spacing" textLength="105" x="1243" y="723.7998">teacherRepository</text><polygon fill="#181818" points="2250.5,756.3535,2260.5,760.3535,2250.5,764.3535,2254.5,760.3535" style="stroke:#181818;stroke-width:1.0;"/><line style="stroke:#181818;stroke-width:1.0;" x1="1203" x2="2256.5" y1="760.3535" y2="760.3535"/><text fill="#000000" font-family="sans-serif" font-size="13" font-weight="bold" lengthAdjust="spacing" textLength="14" x="1210" y="755.0908">21</text><text fill="#000000" font-family="sans-serif" font-size="13" lengthAdjust="spacing" textLength="43" x="1228" y="755.0908">findAll()</text><polygon fill="#181818" points="497,787.6445,487,791.6445,497,795.6445,493,791.6445" style="stroke:#181818;stroke-width:1.0;"/><line style="stroke:#181818;stroke-width:1.0;stroke-dasharray:2.0,2.0;" x1="491" x2="779" y1="791.6445" y2="791.6445"/><text fill="#000000" font-family="sans-serif" font-size="13" font-weight="bold" lengthAdjust="spacing" textLength="14" x="503" y="786.3818">22</text><text fill="#000000" font-family="sans-serif" font-size="13" lengthAdjust="spacing" textLength="128" x="521" y="786.3818">allRegisteredTeachers</text><polygon fill="#181818" points="52,818.9355,42,822.9355,52,826.9355,48,822.9355" style="stroke:#181818;stroke-width:1.0;"/><line style="stroke:#181818;stroke-width:1.0;stroke-dasharray:2.0,2.0;" x1="46" x2="480" y1="822.9355" y2="822.9355"/><text fill="#000000" font-family="sans-serif" font-size="13" font-weight="bold" lengthAdjust="spacing" textLength="14" x="58" y="817.6729">23</text><text fill="#000000" font-family="sans-serif" font-size="13" lengthAdjust="spacing" textLength="340" x="76" y="817.6729">asks to choose the index of the teachers he desires to add</text><polygon fill="#181818" points="464,850.2266,474,854.2266,464,858.2266,468,854.2266" style="stroke:#181818;stroke-width:1.0;"/><line style="stroke:#181818;stroke-width:1.0;" x1="41" x2="470" y1="854.2266" y2="854.2266"/><text fill="#000000" font-family="sans-serif" font-size="13" font-weight="bold" lengthAdjust="spacing" textLength="14" x="48" y="848.9639">24</text><text fill="#000000" font-family="sans-serif" font-size="13" lengthAdjust="spacing" textLength="138" x="66" y="848.9639">List &#171;selectedteachers&#187;</text><polygon fill="#181818" points="52,881.5176,42,885.5176,52,889.5176,48,885.5176" style="stroke:#181818;stroke-width:1.0;"/><line style="stroke:#181818;stroke-width:1.0;stroke-dasharray:2.0,2.0;" x1="46" x2="480" y1="885.5176" y2="885.5176"/><text fill="#000000" font-family="sans-serif" font-size="13" font-weight="bold" lengthAdjust="spacing" textLength="14" x="58" y="880.2549">25</text><text fill="#000000" font-family="sans-serif" font-size="13" lengthAdjust="spacing" textLength="393" x="76" y="880.2549">Shows selectedteachers list ans asks to choose the charge teacher</text><polygon fill="#181818" points="464,912.8086,474,916.8086,464,920.8086,468,916.8086" style="stroke:#181818;stroke-width:1.0;"/><line style="stroke:#181818;stroke-width:1.0;" x1="41" x2="470" y1="916.8086" y2="916.8086"/><text fill="#000000" font-family="sans-serif" font-size="13" font-weight="bold" lengthAdjust="spacing" textLength="14" x="48" y="911.5459">26</text><text fill="#000000" font-family="sans-serif" font-size="13" lengthAdjust="spacing" textLength="136" x="66" y="911.5459">selectedChargeTeacher</text><line style="stroke:#181818;stroke-width:1.0;" x1="486" x2="528" y1="948.0996" y2="948.0996"/><line style="stroke:#181818;stroke-width:1.0;" x1="528" x2="528" y1="948.0996" y2="961.0996"/><line style="stroke:#181818;stroke-width:1.0;" x1="487" x2="528" y1="961.0996" y2="961.0996"/><polygon fill="#181818" points="497,957.0996,487,961.0996,497,965.0996,493,961.0996" style="stroke:#181818;stroke-width:1.0;"/><text fill="#000000" font-family="sans-serif" font-size="13" font-weight="bold" lengthAdjust="spacing" textLength="14" x="493" y="942.8369">27</text><text fill="#000000" font-family="sans-serif" font-size="13" lengthAdjust="spacing" textLength="136" x="511" y="942.8369">selectedChargeTeacher</text><polygon fill="#181818" points="763,988.3906,773,992.3906,763,996.3906,767,992.3906" style="stroke:#181818;stroke-width:1.0;"/><line style="stroke:#181818;stroke-width:1.0;" x1="486" x2="769" y1="992.3906" y2="992.3906"/><text fill="#000000" font-family="sans-serif" font-size="13" font-weight="bold" lengthAdjust="spacing" textLength="14" x="493" y="987.1279">28</text><text fill="#000000" font-family="sans-serif" font-size="13" lengthAdjust="spacing" textLength="252" x="511" y="987.1279">addChargeTeacher(selectedChargeTeacher)</text><polygon fill="#181818" points="1422.5,1019.6816,1432.5,1023.6816,1422.5,1027.6816,1426.5,1023.6816" style="stroke:#181818;stroke-width:1.0;"/><line style="stroke:#181818;stroke-width:1.0;" x1="785" x2="1428.5" y1="1023.6816" y2="1023.6816"/><text fill="#000000" font-family="sans-serif" font-size="13" font-weight="bold" lengthAdjust="spacing" textLength="14" x="792" y="1018.4189">29</text><text fill="#000000" font-family="sans-serif" font-size="13" lengthAdjust="spacing" textLength="467" x="810" y="1018.4189">setTeachersToCourse(selectedCourse,selectedChargeTeacher,selectedteachers)</text><polygon fill="#181818" points="1629,1050.9727,1639,1054.9727,1629,1058.9727,1633,1054.9727" style="stroke:#181818;stroke-width:1.0;"/><line style="stroke:#181818;stroke-width:1.0;" x1="1444.5" x2="1635" y1="1054.9727" y2="1054.9727"/><text fill="#000000" font-family="sans-serif" font-size="13" font-weight="bold" lengthAdjust="spacing" textLength="14" x="1451.5" y="1049.71">30</text><text fill="#000000" font-family="sans-serif" font-size="13" lengthAdjust="spacing" textLength="130" x="1469.5" y="1049.71">factory = repositories()</text><polygon fill="#181818" points="1783,1082.2637,1793,1086.2637,1783,1090.2637,1787,1086.2637" style="stroke:#181818;stroke-width:1.0;"/><line style="stroke:#181818;stroke-width:1.0;" x1="1651" x2="1789" y1="1086.2637" y2="1086.2637"/><text fill="#000000" font-family="sans-serif" font-size="13" font-weight="bold" lengthAdjust="spacing" textLength="14" x="1658" y="1081.001">31</text><text fill="#000000" font-family="sans-serif" font-size="13" lengthAdjust="spacing" textLength="44" x="1676" y="1081.001">create()</text><polygon fill="#181818" points="1455.5,1113.5547,1445.5,1117.5547,1455.5,1121.5547,1451.5,1117.5547" style="stroke:#181818;stroke-width:1.0;"/><line style="stroke:#181818;stroke-width:1.0;stroke-dasharray:2.0,2.0;" x1="1449.5" x2="1645" y1="1117.5547" y2="1117.5547"/><text fill="#000000" font-family="sans-serif" font-size="13" font-weight="bold" lengthAdjust="spacing" textLength="14" x="1461.5" y="1112.292">32</text><text fill="#000000" font-family="sans-serif" font-size="13" lengthAdjust="spacing" textLength="39" x="1479.5" y="1112.292">factory</text><polygon fill="#181818" points="1949.5,1144.8457,1959.5,1148.8457,1949.5,1152.8457,1953.5,1148.8457" style="stroke:#181818;stroke-width:1.0;"/><line style="stroke:#181818;stroke-width:1.0;" x1="1444.5" x2="1955.5" y1="1148.8457" y2="1148.8457"/><text fill="#000000" font-family="sans-serif" font-size="13" font-weight="bold" lengthAdjust="spacing" textLength="14" x="1451.5" y="1143.583">33</text><text fill="#000000" font-family="sans-serif" font-size="13" lengthAdjust="spacing" textLength="234" x="1469.5" y="1143.583">teacherRepository = teacherRepository()</text><polygon fill="#181818" points="1455.5,1176.1367,1445.5,1180.1367,1455.5,1184.1367,1451.5,1180.1367" style="stroke:#181818;stroke-width:1.0;"/><line style="stroke:#181818;stroke-width:1.0;stroke-dasharray:2.0,2.0;" x1="1449.5" x2="1965.5" y1="1180.1367" y2="1180.1367"/><text fill="#000000" font-family="sans-serif" font-size="13" font-weight="bold" lengthAdjust="spacing" textLength="14" x="1461.5" y="1174.874">34</text><text fill="#000000" font-family="sans-serif" font-size="13" lengthAdjust="spacing" textLength="105" x="1479.5" y="1174.874">teacherRepository</text><polygon fill="#181818" points="1949.5,1207.4277,1959.5,1211.4277,1949.5,1215.4277,1953.5,1211.4277" style="stroke:#181818;stroke-width:1.0;"/><line style="stroke:#181818;stroke-width:1.0;" x1="1444.5" x2="1955.5" y1="1211.4277" y2="1211.4277"/><text fill="#000000" font-family="sans-serif" font-size="13" font-weight="bold" lengthAdjust="spacing" textLength="14" x="1451.5" y="1206.165">35</text><text fill="#000000" font-family="sans-serif" font-size="13" lengthAdjust="spacing" textLength="226" x="1469.5" y="1206.165">courseRepository = courseRepository()</text><polygon fill="#181818" points="1455.5,1238.7188,1445.5,1242.7188,1455.5,1246.7188,1451.5,1242.7188" style="stroke:#181818;stroke-width:1.0;"/><line style="stroke:#181818;stroke-width:1.0;stroke-dasharray:2.0,2.0;" x1="1449.5" x2="1965.5" y1="1242.7188" y2="1242.7188"/><text fill="#000000" font-family="sans-serif" font-size="13" font-weight="bold" lengthAdjust="spacing" textLength="14" x="1461.5" y="1237.4561">36</text><text fill="#000000" font-family="sans-serif" font-size="13" lengthAdjust="spacing" textLength="101" x="1479.5" y="1237.4561">courseRepository</text><polygon fill="#181818" points="2250.5,1270.0098,2260.5,1274.0098,2250.5,1278.0098,2254.5,1274.0098" style="stroke:#181818;stroke-width:1.0;"/><line style="stroke:#181818;stroke-width:1.0;" x1="1444.5" x2="2256.5" y1="1274.0098" y2="1274.0098"/><text fill="#000000" font-family="sans-serif" font-size="13" font-weight="bold" lengthAdjust="spacing" textLength="14" x="1451.5" y="1268.7471">37</text><text fill="#000000" font-family="sans-serif" font-size="13" lengthAdjust="spacing" textLength="84" x="1469.5" y="1268.7471">save(teachers)</text><polygon fill="#181818" points="2117,1301.3008,2127,1305.3008,2117,1309.3008,2121,1305.3008" style="stroke:#181818;stroke-width:1.0;"/><line style="stroke:#181818;stroke-width:1.0;" x1="1444.5" x2="2123" y1="1305.3008" y2="1305.3008"/><text fill="#000000" font-family="sans-serif" font-size="13" font-weight="bold" lengthAdjust="spacing" textLength="14" x="1451.5" y="1300.0381">38</text><text fill="#000000" font-family="sans-serif" font-size="13" lengthAdjust="spacing" textLength="73" x="1469.5" y="1300.0381">save(course)</text><polygon fill="#181818" points="2250.5,1332.5918,2260.5,1336.5918,2250.5,1340.5918,2254.5,1336.5918" style="stroke:#181818;stroke-width:1.0;"/><line style="stroke:#181818;stroke-width:1.0;" x1="1444.5" x2="2256.5" y1="1336.5918" y2="1336.5918"/><text fill="#000000" font-family="sans-serif" font-size="13" font-weight="bold" lengthAdjust="spacing" textLength="14" x="1451.5" y="1331.3291">39</text><text fill="#000000" font-family="sans-serif" font-size="13" lengthAdjust="spacing" textLength="43" x="1469.5" y="1331.3291">findAll()</text><polygon fill="#181818" points="1427.5,1363.8828,1437.5,1367.8828,1427.5,1371.8828,1431.5,1367.8828" style="stroke:#181818;stroke-width:1.0;"/><line style="stroke:#181818;stroke-width:1.0;" x1="785" x2="1433.5" y1="1367.8828" y2="1367.8828"/><text fill="#000000" font-family="sans-serif" font-size="13" font-weight="bold" lengthAdjust="spacing" textLength="14" x="792" y="1362.6201">40</text><text fill="#000000" font-family="sans-serif" font-size="13" lengthAdjust="spacing" textLength="233" x="810" y="1362.6201">saveRegularTeachers(selectedTeachers)</text><polygon fill="#181818" points="497,1395.1738,487,1399.1738,497,1403.1738,493,1399.1738" style="stroke:#181818;stroke-width:1.0;"/><line style="stroke:#181818;stroke-width:1.0;stroke-dasharray:2.0,2.0;" x1="491" x2="779" y1="1399.1738" y2="1399.1738"/><text fill="#000000" font-family="sans-serif" font-size="13" font-weight="bold" lengthAdjust="spacing" textLength="14" x="503" y="1393.9111">41</text><text fill="#000000" font-family="sans-serif" font-size="13" lengthAdjust="spacing" textLength="4" x="521" y="1393.9111">&#160;</text><polygon fill="#181818" points="47,1426.4648,37,1430.4648,47,1434.4648,43,1430.4648" style="stroke:#181818;stroke-width:1.0;"/><line style="stroke:#181818;stroke-width:1.0;stroke-dasharray:2.0,2.0;" x1="41" x2="480" y1="1430.4648" y2="1430.4648"/><text fill="#000000" font-family="sans-serif" font-size="13" font-weight="bold" lengthAdjust="spacing" textLength="14" x="53" y="1425.2021">42</text><text fill="#000000" font-family="sans-serif" font-size="13" lengthAdjust="spacing" textLength="207" x="71" y="1425.2021">shows message that it was realized</text><!--SRC=[jLTDRzim3BthLmYzD0MQzMua0OhCsm9qIv4uvq6LrKIOOtcIqe_z-b7obopBgO5bEMoMH3u-YtoaUttGkb3HtLsHaLoVZjadAevtYlq-iPooQSh9Nf8ZGkIaHNuwFZ49prGBYR-JdEoPn4JXUxE12Y8rfxm077nrdwO98_J0f4h4KfoaOhlLbJ7UhV1iLaYcMAw9vY9VB10LkPOYmrTHm6zP7cPCMlzs2JYaA39EQvWkXQXqBtaU8TgMoHTEcKMXzkodAhS0gJe4b2v8nIQCeil384oGJFrkvqXLe6eCwYFOSQLDhiozi3TjWGfgxhWzwxtLXXL2SSZQ-nURpNTi_IHiFrSRirdrv3jNsn4U00a1e9HeyaGKm-KzjAusfR04SzbiWaVZK5rProC9U7HPAfOngbbQngkktxbby4x5aV3SVprw879V9wfE_ofVskqIm3uE0xXPZ7hqtS9nCT0rVbXj4xn-Z7_WvNgtsSPRF1_tCvBaBqIpIehsNpnTWDWY2FSB0WeCdEguTasgcsYTTokqMu5NAx48Pr12wuBbvGMgoKrhtfgXzd6ww4ehmYBitJL3tULqKT2egQGvRXBDko05HL3hGDcft0XJoU0GxCmP7FgCAaEKCXV8QmdWrmBwHJllRRciQloQVuY3x- -IgVtxZ8nIW3_FKvCJYEbuUHVgzCcfhGGCfP1bJYvTPoUNK09WRql8BHuZ9wmFTHn0KmVngivWGZbr2h74K5KB29Hahn9Rhrh8w7h-hp_KI6qJVuN_uaty6IVn_V9Rl1clEBZFW58sR6zQhcJD51iX66-AZ47oN92tlgnyUlp2-l67eIiWtMlYy_xUHnBgyUWXX4GKe9KqAhhFCeXwaPfoO_lf6T1YFyU3aiID9d4hIdeGmWW9H0dlmjwmUBQBHbBmd3B5uMFBDlmqFIVF1-020wdMMmq2ewahomwLhUq1le-jO4no5Q9QZS_AzkE60T9tH_Bv9j6nj4hVnachxcHTZTRHEWy87Uwn4sSIZFwHxd4p57eVVEPzjFyPFEasmjjWq5i_4pV8dxX-D1JU_XyJs8znVXBthkNY3MM8rQY-CeBanJuR-XJ7V3wWOOvb1rJaXKsSIXb-fMLhNngTjVRxg_cDBNm80Mtnb17PpBswffEMQRVT3XHsh-kEwAxrLysHAKLCbpeGZRd6h_Ql8vBnFynlekxIOlm5]--></g></svg>