<?xml version="1.0" encoding="us-ascii" standalone="no"?><svg xmlns="http://www.w3.org/2000/svg" xmlns:xlink="http://www.w3.org/1999/xlink" contentStyleType="text/css" height="564px" preserveAspectRatio="none" style="width:483px;height:564px;background:#FFFFFF;" version="1.1" viewBox="0 0 483 564" width="483px" zoomAndPan="magnify"><defs/><g><rect fill="#FFFFFF" height="377.4922" style="stroke:#181818;stroke-width:1.0;" width="10" x="46" y="93.6211"/><rect fill="#FFFFFF" height="354.2012" style="stroke:#181818;stroke-width:1.0;" width="10" x="432" y="116.9121"/><rect fill="none" height="81.873" style="stroke:#000000;stroke-width:1.5;" width="467" x="10" y="382.2402"/><line style="stroke:#181818;stroke-width:0.5;stroke-dasharray:5.0,5.0;" x1="51" x2="51" y1="83.6211" y2="481.1133"/><line style="stroke:#181818;stroke-width:0.5;stroke-dasharray:5.0,5.0;" x1="437" x2="437" y1="83.6211" y2="481.1133"/><text fill="#000000" font-family="sans-serif" font-size="14" lengthAdjust="spacing" textLength="56" x="20" y="80.1074">Manager</text><ellipse cx="51" cy="13.5" fill="#E2E2F0" rx="8" ry="8" style="stroke:#181818;stroke-width:0.5;"/><path d="M51,21.5 L51,48.5 M38,29.5 L64,29.5 M51,48.5 L38,63.5 M51,48.5 L64,63.5 " fill="none" style="stroke:#181818;stroke-width:0.5;"/><text fill="#000000" font-family="sans-serif" font-size="14" lengthAdjust="spacing" textLength="56" x="20" y="495.2207">Manager</text><ellipse cx="51" cy="507.2344" fill="#E2E2F0" rx="8" ry="8" style="stroke:#181818;stroke-width:0.5;"/><path d="M51,515.2344 L51,542.2344 M38,523.2344 L64,523.2344 M51,542.2344 L38,557.2344 M51,542.2344 L64,557.2344 " fill="none" style="stroke:#181818;stroke-width:0.5;"/><rect fill="#E2E2F0" height="32.6211" rx="2.5" ry="2.5" style="stroke:#181818;stroke-width:0.5;" width="60" x="407" y="50"/><text fill="#000000" font-family="sans-serif" font-size="14" lengthAdjust="spacing" textLength="46" x="414" y="72.1074">System</text><rect fill="#E2E2F0" height="32.6211" rx="2.5" ry="2.5" style="stroke:#181818;stroke-width:0.5;" width="60" x="407" y="480.1133"/><text fill="#000000" font-family="sans-serif" font-size="14" lengthAdjust="spacing" textLength="46" x="414" y="502.2207">System</text><rect fill="#FFFFFF" height="377.4922" style="stroke:#181818;stroke-width:1.0;" width="10" x="46" y="93.6211"/><rect fill="#FFFFFF" height="354.2012" style="stroke:#181818;stroke-width:1.0;" width="10" x="432" y="116.9121"/><polygon fill="#181818" points="420,112.9121,430,116.9121,420,120.9121,424,116.9121" style="stroke:#181818;stroke-width:1.0;"/><line style="stroke:#181818;stroke-width:1.0;" x1="56" x2="426" y1="116.9121" y2="116.9121"/><text fill="#000000" font-family="sans-serif" font-size="13" font-weight="bold" lengthAdjust="spacing" textLength="7" x="63" y="111.6494">1</text><text fill="#000000" font-family="sans-serif" font-size="13" lengthAdjust="spacing" textLength="188" x="74" y="111.6494">asks to set teachers to a course</text><polygon fill="#181818" points="67,144.2031,57,148.2031,67,152.2031,63,148.2031" style="stroke:#181818;stroke-width:1.0;"/><line style="stroke:#181818;stroke-width:1.0;stroke-dasharray:2.0,2.0;" x1="61" x2="431" y1="148.2031" y2="148.2031"/><text fill="#000000" font-family="sans-serif" font-size="13" font-weight="bold" lengthAdjust="spacing" textLength="7" x="73" y="142.9404">2</text><text fill="#000000" font-family="sans-serif" font-size="13" lengthAdjust="spacing" textLength="113" x="84" y="142.9404">listExistentCourses</text><polygon fill="#181818" points="420,175.4941,430,179.4941,420,183.4941,424,179.4941" style="stroke:#181818;stroke-width:1.0;"/><line style="stroke:#181818;stroke-width:1.0;" x1="56" x2="426" y1="179.4941" y2="179.4941"/><text fill="#000000" font-family="sans-serif" font-size="13" font-weight="bold" lengthAdjust="spacing" textLength="7" x="63" y="174.2314">3</text><text fill="#000000" font-family="sans-serif" font-size="13" lengthAdjust="spacing" textLength="90" x="74" y="174.2314">selectedCourse</text><polygon fill="#181818" points="67,206.7852,57,210.7852,67,214.7852,63,210.7852" style="stroke:#181818;stroke-width:1.0;"/><line style="stroke:#181818;stroke-width:1.0;stroke-dasharray:2.0,2.0;" x1="61" x2="431" y1="210.7852" y2="210.7852"/><text fill="#000000" font-family="sans-serif" font-size="13" font-weight="bold" lengthAdjust="spacing" textLength="7" x="73" y="205.5225">4</text><text fill="#000000" font-family="sans-serif" font-size="13" lengthAdjust="spacing" textLength="205" x="84" y="205.5225">asks to confirm the selectedCourse</text><polygon fill="#181818" points="420,238.0762,430,242.0762,420,246.0762,424,242.0762" style="stroke:#181818;stroke-width:1.0;"/><line style="stroke:#181818;stroke-width:1.0;" x1="56" x2="426" y1="242.0762" y2="242.0762"/><text fill="#000000" font-family="sans-serif" font-size="13" font-weight="bold" lengthAdjust="spacing" textLength="7" x="63" y="236.8135">5</text><text fill="#000000" font-family="sans-serif" font-size="13" lengthAdjust="spacing" textLength="105" x="74" y="236.8135">confirms selection</text><polygon fill="#181818" points="67,269.3672,57,273.3672,67,277.3672,63,273.3672" style="stroke:#181818;stroke-width:1.0;"/><line style="stroke:#181818;stroke-width:1.0;stroke-dasharray:2.0,2.0;" x1="61" x2="431" y1="273.3672" y2="273.3672"/><text fill="#000000" font-family="sans-serif" font-size="13" font-weight="bold" lengthAdjust="spacing" textLength="7" x="73" y="268.1045">6</text><text fill="#000000" font-family="sans-serif" font-size="13" lengthAdjust="spacing" textLength="341" x="84" y="268.1045">asks to choose the charge teacher: listRegisteredTeachers</text><polygon fill="#181818" points="420,300.6582,430,304.6582,420,308.6582,424,304.6582" style="stroke:#181818;stroke-width:1.0;"/><line style="stroke:#181818;stroke-width:1.0;" x1="56" x2="426" y1="304.6582" y2="304.6582"/><text fill="#000000" font-family="sans-serif" font-size="13" font-weight="bold" lengthAdjust="spacing" textLength="7" x="63" y="299.3955">7</text><text fill="#000000" font-family="sans-serif" font-size="13" lengthAdjust="spacing" textLength="136" x="74" y="299.3955">selectedChargeTeacher</text><polygon fill="#181818" points="67,331.9492,57,335.9492,67,339.9492,63,335.9492" style="stroke:#181818;stroke-width:1.0;"/><line style="stroke:#181818;stroke-width:1.0;stroke-dasharray:2.0,2.0;" x1="61" x2="431" y1="335.9492" y2="335.9492"/><text fill="#000000" font-family="sans-serif" font-size="13" font-weight="bold" lengthAdjust="spacing" textLength="7" x="73" y="330.6865">8</text><text fill="#000000" font-family="sans-serif" font-size="13" lengthAdjust="spacing" textLength="205" x="84" y="330.6865">asks to confirm the selectedCourse</text><polygon fill="#181818" points="420,363.2402,430,367.2402,420,371.2402,424,367.2402" style="stroke:#181818;stroke-width:1.0;"/><line style="stroke:#181818;stroke-width:1.0;" x1="56" x2="426" y1="367.2402" y2="367.2402"/><text fill="#000000" font-family="sans-serif" font-size="13" font-weight="bold" lengthAdjust="spacing" textLength="7" x="63" y="361.9775">9</text><text fill="#000000" font-family="sans-serif" font-size="13" lengthAdjust="spacing" textLength="105" x="74" y="361.9775">confirms selection</text><path d="M10,382.2402 L83,382.2402 L83,391.5313 L73,401.5313 L10,401.5313 L10,382.2402 " fill="#EEEEEE" style="stroke:#000000;stroke-width:1.5;"/><rect fill="none" height="81.873" style="stroke:#000000;stroke-width:1.5;" width="467" x="10" y="382.2402"/><text fill="#000000" font-family="sans-serif" font-size="13" font-weight="bold" lengthAdjust="spacing" textLength="28" x="25" y="397.2686">loop</text><polygon fill="#181818" points="67,420.8223,57,424.8223,67,428.8223,63,424.8223" style="stroke:#181818;stroke-width:1.0;"/><line style="stroke:#181818;stroke-width:1.0;stroke-dasharray:2.0,2.0;" x1="61" x2="431" y1="424.8223" y2="424.8223"/><text fill="#000000" font-family="sans-serif" font-size="13" font-weight="bold" lengthAdjust="spacing" textLength="14" x="73" y="419.5596">10</text><text fill="#000000" font-family="sans-serif" font-size="13" lengthAdjust="spacing" textLength="132" x="91" y="419.5596">listRegisteredTeachers</text><polygon fill="#181818" points="420,452.1133,430,456.1133,420,460.1133,424,456.1133" style="stroke:#181818;stroke-width:1.0;"/><line style="stroke:#181818;stroke-width:1.0;" x1="56" x2="426" y1="456.1133" y2="456.1133"/><text fill="#000000" font-family="sans-serif" font-size="13" font-weight="bold" lengthAdjust="spacing" textLength="14" x="63" y="450.8506">11</text><text fill="#000000" font-family="sans-serif" font-size="13" lengthAdjust="spacing" textLength="89" x="81" y="450.8506">selects teacher</text><!--SRC=[jP6nJiKm34NtV8KtfjAz0n92Z2p03_YbbxQYYKli8lXxsZGLJw_IanXO7DcwzyGtkUdD9ctgUXevsXp6Mo-XLdpCY1vLEt2NE3Z7iqcSmmd9iJT9zCIHEoHYfVjruDRvyCc6qkTArHszVAiXD8loNSc454O6zZrIxfcyp4dn2zWSRZkg1P5P3Os3skFNKX3j8NlqU8rYX3Uqcw10w8oox-4blWqfaFMuD1sWHQj5E4Yy1kv559dhUquTzhXRWcTqQuI4zhMymfKGsLzq_vTb59cEzByjgtjAXzXI9hQu_DApISRy0000]--></g></svg>